<svg width="120" height="27" viewBox="0 0 120 27" fill="none" xmlns="http://www.w3.org/2000/svg">
<path fill-rule="evenodd" clip-rule="evenodd" d="M5.74725 1.053L0 20.6806H4.01025L5.274 16.0851H10.9267L12.1582 20.6806H16.137L10.5472 1.05369H5.74725V1.053ZM8.11575 4.73954L10.1055 13.2134H6.0945L8.11575 4.73954V4.73954ZM17.1577 20.6806H21.0525V0.287308H17.1577V20.6806ZM31.6845 11.3379C31.6845 10.6733 31.5 10.1922 31.1107 9.89792C30.7207 9.603 30.1312 9.45485 29.3317 9.45485C28.6575 9.45485 28.1497 9.65562 27.792 10.0544C27.4342 10.4538 27.2632 10.9578 27.2632 11.5664V15.4461C27.2632 16.0733 27.4522 16.6209 27.8422 17.0868C28.2322 17.5521 28.7497 17.7854 29.424 17.7854C30.939 17.7854 31.6845 17.1388 31.6845 15.8455V11.3386V11.3379ZM30.822 6.29585C31.7685 6.29585 32.553 6.38723 33.174 6.56862C33.795 6.75069 34.2892 7.038 34.6582 7.43054C35.0257 7.82308 35.2582 8.33054 35.3947 8.95292C35.5312 9.57531 35.5792 10.3168 35.5792 11.1787V15.8608C35.5792 17.4697 35.2267 18.7186 34.479 19.6089C33.7312 20.4999 32.484 20.9451 30.7162 20.9451C30 20.9451 29.3257 20.7997 28.674 20.5103C28.0215 20.2202 27.474 19.7758 27.2632 19.1769V27H23.2635V6.60669H26.3055L26.811 8.53962C27.1721 7.85985 27.7363 7.28959 28.437 6.89608C29.142 6.50008 29.937 6.29585 30.822 6.29585ZM44.6527 6.29585C45.558 6.29585 46.2997 6.39623 46.8795 6.59769C47.4577 6.79846 47.916 7.10031 48.2527 7.50254C48.5895 7.90408 48.8212 8.41223 48.9577 9.02492C49.095 9.63762 49.158 10.3555 49.158 11.1787V20.6806H45.2625V11.1787C45.2625 10.566 45.1312 10.1264 44.8785 9.85777C44.6257 9.58985 44.16 9.45554 43.4865 9.45554C43.107 9.45554 42.759 9.53723 42.4432 9.69992C42.126 9.86344 41.8468 10.0829 41.6212 10.3458C41.3887 10.6145 41.184 10.9108 41.058 11.2362C40.9312 11.5615 40.8412 11.8966 40.8412 12.2414V20.6806H36.9465V0H40.8412V8.04808C41.3677 7.49285 41.9257 7.06223 42.5257 6.75554C43.1257 6.44954 43.8517 6.29585 44.652 6.29585H44.6527ZM57.7897 14.1951L54.2107 14.9414V16.7511C54.2107 17.2495 54.363 17.5652 54.5947 17.6995C54.8265 17.8332 55.2232 17.9003 55.7497 17.9003C56.2972 17.9003 56.7697 17.7376 57.18 17.4122C57.591 17.0868 57.7897 16.6645 57.7897 16.1481V14.1951ZM56.3685 6.29585C58.2 6.29585 59.5365 6.67385 60.3997 7.43054C61.263 8.18723 61.6845 9.39808 61.6845 11.0638V20.6806H58.7685L58.4212 18.7158C57.9781 19.3086 57.4278 19.8266 56.7945 20.2472C56.1525 20.6778 55.4632 20.8904 54.7267 20.8904C53.2102 20.8904 52.0792 20.5685 51.384 19.9267C50.6895 19.2856 50.316 18.2735 50.316 16.8944V13.2473L57.8947 11.8108V11.0638C57.8947 10.3936 57.7635 9.93392 57.4792 9.68538C57.1942 9.43615 56.6895 9.31154 55.953 9.31154C55.6785 9.31154 55.3605 9.36 54.9922 9.45554C54.6232 9.55177 54.2565 9.67085 53.8882 9.81415C53.5192 9.95815 53.1727 10.1118 52.8465 10.2738C52.5642 10.4106 52.295 10.5693 52.0417 10.7481L50.6842 8.27792C51.042 8.02869 51.4522 7.785 51.9157 7.54546C52.8536 7.06376 53.8577 6.7014 54.9007 6.46823C55.3809 6.35727 55.8736 6.29917 56.3685 6.29515V6.29585Z" fill="#5C6268"/>
<path fill-rule="evenodd" clip-rule="evenodd" d="M71.8951 6.00844C71.8951 5.39574 71.7736 4.96721 71.4901 4.69859C71.2051 4.43067 70.7476 4.30813 70.0741 4.30813H67.6846V10.3402H70.0741C70.6628 10.3402 71.0993 10.2329 71.4263 10.0411C71.7526 9.85005 71.8951 9.46513 71.8951 8.9099V6.00844V6.00844ZM70.0741 1.14844C71.8628 1.14844 73.2421 1.53475 74.2741 2.32882C75.3053 3.12428 75.7891 4.33305 75.7891 5.98005V8.93828C75.7891 9.68528 75.6736 10.3457 75.3788 10.9204C75.0841 11.495 74.6948 11.9685 74.1788 12.3424C73.6406 12.7316 73.0273 13.0229 72.3713 13.2008C71.6761 13.3926 70.9366 13.4999 70.1363 13.4999H67.6838V20.6805H63.6841V1.14913H70.0741V1.14844ZM84.8423 11.1786C84.8423 10.4517 84.6841 9.98228 84.3578 9.77113C84.0316 9.56067 83.4811 9.45544 82.7026 9.45544C81.9863 9.45544 81.4043 9.5939 81.0248 9.87151C80.6461 10.1498 80.4211 10.595 80.4211 11.2077V15.9756C80.4211 16.742 80.6206 17.2356 80.9476 17.455C81.2738 17.6752 81.8866 17.7853 82.7498 17.7853C83.4233 17.7853 83.9431 17.6517 84.3016 17.3837C84.6593 17.1151 84.8416 16.6554 84.8416 16.004V11.1786H84.8423ZM82.7048 6.29574C83.5261 6.29574 84.3046 6.40098 85.0418 6.61144C85.7498 6.80839 86.4096 7.13052 86.9843 7.5599C87.5336 7.97761 87.9757 8.5025 88.2788 9.09682C88.5946 9.69913 88.7363 10.4032 88.7363 11.2077V16.004C88.7363 16.8084 88.5998 17.5174 88.2946 18.1294C87.9893 18.7427 87.5761 19.255 87.0391 19.6663C86.4801 20.0904 85.8387 20.4123 85.1491 20.6147C84.4223 20.8342 83.6296 20.945 82.7663 20.945C81.8821 20.945 81.0623 20.8391 80.3041 20.6286C79.5466 20.4181 78.8881 20.1024 78.3316 19.6808C77.7681 19.2643 77.316 18.7337 77.0101 18.13C76.7048 17.5174 76.5263 16.8084 76.5263 16.0047V11.207C76.5263 10.4032 76.7101 9.69982 77.0258 9.09613C77.3373 8.50309 77.7834 7.97891 78.3338 7.55921C78.8813 7.13828 79.5353 6.82259 80.2831 6.61144C81.0692 6.39609 81.8856 6.2897 82.7056 6.29574H82.7048ZM90.5266 20.6805H94.4213V6.6059H90.5266V20.6805ZM90.5266 4.78721H94.4213V1.14913H90.5266V4.78721V4.78721ZM104.21 6.26667C105.979 6.26667 107.21 6.67374 107.906 7.4879C108.6 8.30205 108.948 9.52328 108.948 11.1502V20.6805H104.948V11.7761C104.948 11.1267 104.868 10.5728 104.627 10.1145C104.384 9.6562 103.926 9.42636 103.211 9.42636C102.832 9.42636 102.5 9.50805 102.195 9.67005C101.889 9.83408 101.623 10.0533 101.411 10.3146C101.189 10.5825 100.982 10.8837 100.856 11.2174C100.729 11.5517 100.631 11.8903 100.631 12.2344V20.6805H96.7366V6.6059H100.295L100.61 8.07567C101.053 7.45744 101.552 6.99774 102.11 6.70767C102.668 6.41759 103.368 6.26667 104.21 6.26667V6.26667ZM116.526 17.6994C117.158 17.6994 117.668 17.6371 118.058 17.5125C118.448 17.3879 118.842 17.2494 119.242 17.0957L120 19.6234C119.348 19.93 118.668 20.2118 117.963 20.4707C117.258 20.7297 116.59 20.8584 115.958 20.8584C114.443 20.8584 113.369 20.605 112.737 20.0969C112.106 19.5901 111.79 18.6472 111.79 17.2681V9.09544H109.369V6.60659H111.79V2.48944H115.685V6.60659H118.632V9.09544H115.685V16.8091C115.685 17.0203 115.774 17.2211 115.932 17.4128C116.09 17.6039 116.294 17.7001 116.526 17.7001" fill="#5C6268"/>
</svg>
