<?xml version="1.0" encoding="UTF-8"?>
<svg width="490px" height="90px" viewBox="0 0 490 90" version="1.1" xmlns="http://www.w3.org/2000/svg" xmlns:xlink="http://www.w3.org/1999/xlink">
    <!-- Generator: Sketch 52 (66869) - http://www.bohemiancoding.com/sketch -->
    <title>logo</title>
    <desc>Created with Sketch.</desc>
    <defs>
        <polygon id="path-1" points="0.998427273 0.180337838 199.568155 0.180337838 199.568155 74 0.998427273 74"></polygon>
        <polygon id="path-3" points="37.3554737 29.76 31.3166316 35.644 0.991052632 6.072 7.02989474 0.186"></polygon>
        <linearGradient x1="50%" y1="50%" x2="88.6131141%" y2="88.5843996%" id="linearGradient-5">
            <stop stop-color="#000000" stop-opacity="0" offset="0%"></stop>
            <stop stop-color="#414142" offset="100%"></stop>
        </linearGradient>
        <path d="M24.5713158,0.2825 L30.5444737,6.23477273 L30.5342105,6.245 L36.3595789,12.05 L6.05452632,42.2511364 L0.0136315789,36.2313636 L24.3434737,11.9906818 C27.562,8.76704545 27.6276842,3.61045455 24.5569474,0.292727273 L24.5713158,0.2825 Z" id="path-6"></path>
        <linearGradient x1="85.2824883%" y1="12.7227391%" x2="-1.13894279%" y2="87.3042909%" id="linearGradient-8">
            <stop stop-color="#000000" stop-opacity="0.1" offset="0%"></stop>
            <stop stop-color="#000000" stop-opacity="0" offset="100%"></stop>
        </linearGradient>
        <polygon id="path-9" points="37.2408947 29.76 31.2020526 35.644 0.874421053 6.072 6.91531579 0.186"></polygon>
        <linearGradient x1="50%" y1="50%" x2="88.6133301%" y2="88.5843996%" id="linearGradient-11">
            <stop stop-color="#000000" stop-opacity="0" offset="0%"></stop>
            <stop stop-color="#414142" offset="100%"></stop>
        </linearGradient>
        <path d="M25.4587895,0.2825 L31.4319474,6.23477273 L31.4196316,6.245 L37.2429474,12.05 L6.93789474,42.2511364 L0.899052632,36.2313636 L25.2288947,11.9906818 C28.4474211,8.76704545 28.5131053,3.61045455 25.4423684,0.292727273 L25.4587895,0.2825 Z" id="path-12"></path>
        <linearGradient x1="85.2884293%" y1="12.7210937%" x2="31.9634587%" y2="59.0116497%" id="linearGradient-14">
            <stop stop-color="#000000" stop-opacity="0.1" offset="0%"></stop>
            <stop stop-color="#000000" stop-opacity="0" offset="100%"></stop>
        </linearGradient>
    </defs>
    <g id="logo" stroke="none" stroke-width="1" fill="none" fill-rule="evenodd">
        <g id="Group-26" transform="translate(1.000000, 3.000000)">
            <path d="M27.0488172,36.3377451 C32.0445391,36.3377451 35.4779551,37.5914658 37.6639644,38.7354605 L39.7422985,31.7617662 C37.2454533,30.4044154 32.4589869,29.0531605 27.0488172,29.0531605 C10.611084,29.0531605 0,40.4016695 0,55.9075732 C0,71.4094129 9.88173702,81.7195892 25.0720634,81.7195892 C31.8352835,81.7195892 37.1398097,79.9456862 39.5350745,78.8016915 L37.9768319,71.9295953 C35.3743431,73.0796859 31.9409271,74.3252787 26.7359497,74.3252787 C16.7506007,74.3252787 9.25803364,67.1422923 9.25803364,55.486957 C9.25803364,44.9796804 15.5011623,36.3377451 27.0488172,36.3377451 Z M198.965443,80.872261 L208,80.872261 L208,8 L198.965443,8 L198.965443,80.872261 Z M178.387295,64.143116 C178.387295,65.0635949 178.184134,66.0897358 177.879393,67.0183426 C176.43492,71.2204404 172.333105,75.3270361 165.872595,75.3270361 C161.254752,75.3270361 157.352035,72.5534077 157.352035,66.7033884 C157.352035,57.0576638 168.540095,55.3142402 178.387295,55.5194684 L178.387295,64.143116 Z M187.113047,50.3887638 C187.113047,40.430117 183.417554,30.0732056 168.227227,30.0732056 C161.969878,30.0732056 156.017269,31.8125652 151.911391,34.4805316 L153.969409,40.430117 C157.455647,38.1787028 162.27665,36.7380416 166.896525,36.7380416 C177.056592,36.7380416 178.184134,44.1262562 178.184134,48.2369158 L178.184134,49.2589928 C158.993573,49.1553627 148.321541,55.7267285 148.321541,67.7315613 C148.321541,74.9206436 153.455412,82 163.507804,82 C170.589987,82 175.927018,78.5111209 178.698131,74.6077215 L179.004903,74.6077215 L179.722061,80.872261 L187.93788,80.872261 C187.31824,77.482948 187.113047,73.2747542 187.113047,68.9629304 L187.113047,50.3887638 Z M122.420582,30.0732056 C114.208826,30.0732056 108.463441,34.6857598 105.999101,39.4100719 L105.795941,39.4100719 L105.281944,31.1948487 L97.277412,31.1948487 C97.5862163,35.3014443 97.6918599,39.5076061 97.6918599,44.6423746 L97.6918599,80.872261 L106.720322,80.872261 L106.720322,51.0064803 C106.720322,49.462189 106.921451,47.9280576 107.333867,46.7982866 C108.875857,41.7671481 113.491668,37.5589544 119.440214,37.5589544 C127.958743,37.5589544 130.937079,44.2319183 130.937079,52.2317535 L130.937079,80.872261 L139.963509,80.872261 L139.963509,51.2096765 C139.963509,34.1696414 129.291477,30.0732056 122.420582,30.0732056 Z M77.115743,64.143116 C77.115743,65.0635949 76.9125823,66.0897358 76.603778,67.0183426 C75.1654002,71.2204404 71.0595222,75.3270361 64.5969799,75.3270361 C59.979137,75.3270361 56.0804829,72.5534077 56.0804829,66.7033884 C56.0804829,57.0576638 67.2644801,55.3142402 77.115743,55.5194684 L77.115743,64.143116 Z M85.8374324,50.3887638 C85.8374324,40.430117 82.1439706,30.0732056 66.9556758,30.0732056 C60.6962943,30.0732056 54.745717,31.8125652 50.6418706,34.4805316 L52.6917622,40.430117 C56.1800316,38.1787028 61.0030669,36.7380416 65.6209099,36.7380416 C75.7830087,36.7380416 76.9125823,44.1262562 76.9125823,48.2369158 L76.9125823,49.2589928 C57.7220214,49.1553627 47.0479576,55.7267285 47.0479576,67.7315613 C47.0479576,74.9206436 52.1797972,82 62.2362525,82 C69.3184349,82 74.6514036,78.5111209 77.4265789,74.6077215 L77.73132,74.6077215 L78.4484773,80.872261 L86.6582016,80.872261 C86.0405931,77.482948 85.8374324,73.2747542 85.8374324,68.9629304 L85.8374324,50.3887638 Z" id="Fill-1" fill="#F68426"></path>
            <g id="Group-5" transform="translate(218.000000, 8.000000)">
                <mask id="mask-2" fill="white">
                    <use xlink:href="#path-1"></use>
                </mask>
                <g id="Clip-4"></g>
                <path d="M172.676791,46.0073649 L196.638427,22.0843919 L184.694155,22.0843919 L164.973821,41.7729054 L164.973821,0.180337838 L156.05267,0.180337838 L156.05267,72.8756081 L164.973821,72.8756081 L164.973821,54.2370946 L165.057064,54.1418243 L165.057064,50.3269595 L187.623882,72.865473 L199.568155,72.865473 L172.676791,46.0073649 Z M83.1871242,56.1870946 C83.1871242,57.1053378 82.9800333,58.1269595 82.6714273,59.0553378 C81.236003,63.2452027 77.1327606,67.3438514 70.676397,67.3438514 C66.0615182,67.3438514 62.1633364,64.5769595 62.1633364,58.7391216 C62.1633364,49.1168243 73.3381242,47.3776351 83.1871242,47.5823649 L83.1871242,56.1870946 Z M91.9011848,42.4641216 C91.9011848,32.5296622 88.2121242,22.1979054 73.0376394,22.1979054 C66.7782152,22.1979054 60.827397,23.9350676 56.7302455,26.594527 L58.7788212,32.5296622 C62.2689121,30.2837162 67.0888515,28.8465541 71.7017,28.8465541 C81.8511848,28.8465541 82.9800333,36.2168243 82.9800333,40.3175 L82.9800333,41.3370946 C63.8058515,41.2357432 53.1406697,47.7911486 53.1406697,59.7647973 C53.1406697,66.9384459 58.2671848,74.0006081 68.3192152,74.0006081 C75.3907606,74.0006081 80.7284273,70.5181757 83.4937,66.6242568 L83.8002758,66.6242568 L84.5169727,72.8756081 L92.7214273,72.8756081 C92.1082758,69.494527 91.9011848,65.294527 91.9011848,60.9952027 L91.9011848,42.4641216 Z M127.516761,22.1979054 C119.310276,22.1979054 113.568579,26.8012838 111.105821,31.5120946 L110.900761,31.5120946 L110.391155,23.3168243 L102.391761,23.3168243 C102.696306,27.4134459 102.801882,31.6093919 102.801882,36.7316892 L102.801882,72.8756081 L111.824548,72.8756081 L111.824548,43.0803378 C111.824548,41.5397973 112.029609,40.0093919 112.4377,38.8823649 C113.98073,33.8634459 118.593579,29.6675 124.538306,29.6675 C133.051367,29.6675 136.025761,36.3222297 136.025761,44.3026351 L136.025761,72.8756081 L145.046397,72.8756081 L145.046397,43.2830405 C145.046397,26.2843919 134.385276,22.1979054 127.516761,22.1979054 Z M24.2778818,66.8330405 C17.7118818,66.8330405 12.4818212,62.5276351 10.7418515,56.2884459 C10.5327303,55.2627703 10.3276697,54.1357432 10.3276697,53.0107432 L10.3276697,44.1019595 C10.3276697,42.6708784 10.6383061,41.4384459 10.8433667,40.4168243 C12.6868818,33.5593919 18.4285788,29.3533108 24.5844576,29.3533108 C34.2243364,29.3533108 39.3488212,37.8526351 39.3488212,47.7911486 C39.3488212,59.1546622 33.7086394,66.8330405 24.2778818,66.8330405 Z M27.4553061,22.1979054 C19.4559121,22.1979054 13.7142152,25.7715541 10.5327303,31.3053378 L10.3276697,31.3053378 L10.3276697,0.180337838 L1.40448788,0.180337838 L1.40448788,60.0729054 C1.40448788,64.4776351 1.20551818,69.494527 0.998427273,72.8756081 L8.7907303,72.8756081 L9.20085152,64.6803378 L9.50945758,64.6803378 C13.2005485,71.2418243 18.9463061,74.0006081 26.121397,74.0006081 C37.2007606,74.0006081 48.3755485,65.1911486 48.3755485,47.4749324 C48.4790939,32.4283108 39.7569121,22.1979054 27.4553061,22.1979054 Z" id="Fill-3" fill="#C7DA39" mask="url(#mask-2)"></path>
            </g>
            <polygon id="Fill-6" fill="#E2772D" points="458 30.0230248 427.977987 0 422 5.97900677 452.022013 36"></polygon>
            <g id="Group-10" transform="translate(421.000000, 0.000000)">
                <mask id="mask-4" fill="white">
                    <use xlink:href="#path-3"></use>
                </mask>
                <g id="Clip-9"></g>
                <polygon id="Fill-8" fill="url(#linearGradient-5)" mask="url(#mask-4)" points="37 30 7.02989474 0.186 0.991052632 6.072 31.3166316 35.644"></polygon>
            </g>
            <path d="M446.325973,18 L446.311741,18.0102349 C449.35325,21.3283946 449.288191,26.4908861 446.100299,29.7169315 L422,53.9736816 L427.983396,60 L458,29.774247 L452.234145,23.9669558 L452.242277,23.9567209 L446.325973,18 Z" id="Fill-11" fill="#E2772D"></path>
            <g id="Group-15" transform="translate(422.000000, 18.000000)">
                <mask id="mask-7" fill="white">
                    <use xlink:href="#path-6"></use>
                </mask>
                <g id="Clip-14"></g>
                <path d="M24.5713158,0.2825 L24.5569474,0.292727273 C27.6276842,3.61045455 27.562,8.76704545 24.3434737,11.9906818 L0.0136315789,36.2313636 L6.05452632,42.2511364 L36.3595789,12.05 L30.5342105,6.245 L30.5444737,6.23477273 L24.5713158,0.2825 Z" id="Fill-13" fill="url(#linearGradient-8)" mask="url(#mask-7)"></path>
            </g>
            <polygon id="Fill-16" fill="#E2772D" points="487 30.0230248 456.979682 0 451 5.97900677 481.02235 36"></polygon>
            <g id="Group-20" transform="translate(450.000000, 0.000000)">
                <mask id="mask-10" fill="white">
                    <use xlink:href="#path-9"></use>
                </mask>
                <g id="Clip-19"></g>
                <polygon id="Fill-18" fill="url(#linearGradient-11)" mask="url(#mask-10)" points="37.2408947 29.76 6.91531579 0.186 0.874421053 6.072 31.2020526 35.644"></polygon>
            </g>
            <path d="M475.325973,18 L475.311741,18.0102349 C478.35325,21.3283946 478.288191,26.4908861 475.100299,29.7169315 L451,53.9736816 L456.985429,60 L487,29.774247 L481.234145,23.9669558 L481.242277,23.9567209 L475.325973,18 Z" id="Fill-21" fill="#E2772D"></path>
            <g id="Group-25" transform="translate(450.000000, 18.000000)">
                <mask id="mask-13" fill="white">
                    <use xlink:href="#path-12"></use>
                </mask>
                <g id="Clip-24"></g>
                <path d="M25.4587895,0.2825 L25.4423684,0.292727273 C28.5131053,3.61045455 28.4474211,8.76704545 25.2288947,11.9906818 L0.899052632,36.2313636 L6.93789474,42.2511364 L37.2408947,11.9906818 L31.4196316,6.245 L31.4319474,6.23477273 L25.4587895,0.2825 Z" id="Grad" fill="url(#linearGradient-14)" mask="url(#mask-13)"></path>
            </g>
        </g>
    </g>
</svg>