<?xml version="1.0" encoding="utf-8"?>
<!-- Generator: Adobe Illustrator 23.0.1, SVG Export Plug-In . SVG Version: 6.00 Build 0)  -->
<svg version="1.1" id="Capa_1" xmlns="http://www.w3.org/2000/svg" xmlns:xlink="http://www.w3.org/1999/xlink" x="0px" y="0px"
	 viewBox="0 0 48 48" style="enable-background:new 0 0 48 48;" xml:space="preserve">
<style type="text/css">
	.st0{fill:#CBE7EB;}
	.st1{fill:#FFFFFF;}
</style>
<title>usd</title>
<desc>Created with Sketch.</desc>
<g>
	<g>
		<g id="usd_1_">
			<circle id="Oval_1_" class="st0" cx="24" cy="24" r="24"/>
		</g>
	</g>
	<path id="Shape_1_" class="st1" d="M33.8,28.7c0,3.9-3.1,6.4-7.7,6.8V39h-3.2v-3.5c-3.2-0.4-6.1-1.6-8.6-3.5l2.3-3.2
		c2.1,1.6,4,2.7,6.4,3V25c-5.3-1.3-7.8-3.3-7.8-7.2c0-3.8,3.1-6.4,7.6-6.7V9H26v2.1c2.7,0.3,4.8,1.2,6.8,2.7l-2,3.3
		c-1.6-1.2-3.2-1.9-4.9-2.2v6.7C31.4,22.8,33.8,24.9,33.8,28.7z M23,20.7v-6.2c-2.3,0.2-3.5,1.4-3.5,2.9C19.5,19,20.2,19.9,23,20.7z
		 M29.5,29c0-1.6-0.8-2.5-3.6-3.3V32C28.1,31.8,29.5,30.7,29.5,29z"/>
</g>
</svg>
