<svg id="light" xmlns="http://www.w3.org/2000/svg" xmlns:xlink="http://www.w3.org/1999/xlink" viewBox="0 0 1600.91 559.12"><defs><style>.cls-1{fill:url(#Degradado_sin_nombre_2);}.cls-2{fill:url(#Degradado_sin_nombre_2-2);}.cls-3{font-size:20.37px;font-family:RobotoCondensed-Bold, Roboto Condensed;font-weight:700;}.cls-3,.cls-5{fill:#c1833e;}.cls-4{opacity:0.4;}</style><linearGradient id="Degradado_sin_nombre_2" x1="959.9" y1="-188.5" x2="611.98" y2="832.87" gradientUnits="userSpaceOnUse"><stop offset="0" stop-color="#e99e5d"/><stop offset="0.38" stop-color="#c1833e"/><stop offset="1" stop-color="#882818"/></linearGradient><linearGradient id="Degradado_sin_nombre_2-2" x1="660.17" y1="-199.1" x2="960.77" y2="683.36" gradientTransform="matrix(-1, 0, 0, 1, 1600.24, 0)" xlink:href="#Degradado_sin_nombre_2"/></defs><title>header-light</title><rect class="cls-1" y="0.01" width="1600.91" height="559.11"/><path class="cls-2" d="M1600.24,423.48V0H0V409.12l319.77,107.5a570.38,570.38,0,0,0,247.05,26Z" transform="translate(0 0.01)"/><text class="cls-3" transform="translate(106.71 504.4)">19.03</text><text class="cls-3" transform="translate(380.58 360.62)">19.03</text><text class="cls-3" transform="translate(920.12 233.71)">23.01</text><text class="cls-3" transform="translate(811.52 483.88)">22.80</text><text class="cls-3" transform="translate(1355.86 332.67)">23.26</text><text class="cls-3" transform="translate(1517.35 57.54)">30.01</text><g class="cls-4"><rect class="cls-5" x="87.43" y="511.46" width="13.46" height="47.46"/><rect class="cls-5" x="222.9" y="516.9" width="13.46" height="42.06"/><rect class="cls-5" x="250.67" y="493.41" width="13.46" height="38.8"/><rect class="cls-5" x="277.25" y="464.23" width="13.46" height="47.1"/><rect class="cls-5" x="304.3" y="423.34" width="13.46" height="67.1"/><rect class="cls-5" x="331.36" y="414.35" width="13.46" height="15.81"/><path class="cls-5" d="M358.24,373V450.6H371.7V373.35l-.82-.39Z" transform="translate(0 0.01)"/><path class="cls-5" d="M370.88,373l.82.39V373Z" transform="translate(0 0.01)"/><rect class="cls-5" x="385.77" y="422.78" width="13.46" height="48.24"/><rect class="cls-5" x="412.82" y="468.14" width="13.46" height="47.02"/><rect class="cls-5" x="440.35" y="448.01" width="13.46" height="68.58"/><rect class="cls-5" x="466.93" y="507.62" width="13.46" height="51.43"/><rect class="cls-5" x="494.35" y="537.09" width="13.46" height="21.97"/><rect class="cls-5" x="547.81" y="526.47" width="13.46" height="32.62"/><rect class="cls-5" x="575.22" y="498.29" width="13.46" height="60.8"/><rect class="cls-5" x="602.21" y="555.02" width="13.46" height="4.08"/><rect class="cls-5" x="630.31" y="533.88" width="13.46" height="25.23"/><rect class="cls-5" x="657.73" y="516.04" width="13.46" height="20.64"/><rect class="cls-5" x="683.79" y="448.43" width="13.46" height="67.83"/><rect class="cls-5" x="710.64" y="494.95" width="13.46" height="47.49"/><rect class="cls-5" x="737.82" y="479.55" width="13.46" height="37.38"/><rect class="cls-5" x="765.35" y="414.7" width="13.46" height="134.01"/><rect class="cls-5" x="792.53" y="437.68" width="13.46" height="29.25"/><path class="cls-5" d="M832.17,376.11H818.71V409a24.29,24.29,0,0,0,6,3.19h7.49Z" transform="translate(0 0.01)"/><path class="cls-5" d="M818.71,412.21h6a24.29,24.29,0,0,1-6-3.19Z" transform="translate(0 0.01)"/><rect class="cls-5" x="846.92" y="306.12" width="13.46" height="66.67"/><rect class="cls-5" x="874.44" y="316.34" width="13.46" height="27.22"/><rect class="cls-5" x="900.34" y="242.63" width="13.46" height="95.22"/><rect class="cls-5" x="927.53" y="257.03" width="13.46" height="66.05"/><rect class="cls-5" x="954.48" y="245.54" width="13.46" height="36.55"/><rect class="cls-5" x="981.82" y="206.51" width="13.46" height="65.18"/><path class="cls-5" d="M1009,254.85v38h.37q6.45-4.6,13.09-9.19V254.85Z" transform="translate(0 0.01)"/><path class="cls-5" d="M1022.47,292.82v-9.19q-6.65,4.58-13.09,9.19Z" transform="translate(0 0.01)"/><rect class="cls-5" x="1036.67" y="276.97" width="13.46" height="78.79"/><rect class="cls-5" x="1062.96" y="259.25" width="13.46" height="54.41"/><rect class="cls-5" x="1090.62" y="276.82" width="13.46" height="25.92"/><rect class="cls-5" x="1116.58" y="295.45" width="13.46" height="46.22"/><rect class="cls-5" x="1144.58" y="315.86" width="13.46" height="94.3"/><rect class="cls-5" x="1171.56" y="297.82" width="13.46" height="47.26"/><rect class="cls-5" x="1198.88" y="289.57" width="13.46" height="67.46"/><rect class="cls-5" x="1226.54" y="207.18" width="12.6" height="111.26"/><rect class="cls-5" x="1253.52" y="242.53" width="13.46" height="67.72"/><rect class="cls-5" x="1280.84" y="269.16" width="13.46" height="67.72"/><rect class="cls-5" x="1306.79" y="238.82" width="13.46" height="56.06"/><rect class="cls-5" x="1334.79" y="223.19" width="13.46" height="88.08"/><path class="cls-5" d="M1361.77,182.56v60.06h13.47V183.71Q1368.58,183.05,1361.77,182.56Z" transform="translate(0 0.01)"/><path class="cls-5" d="M1375.24,175.71h-13.47v6.85q6.81.49,13.47,1.15Z" transform="translate(0 0.01)"/><rect class="cls-5" x="1416.07" y="98.54" width="13.46" height="85.58"/><rect class="cls-5" x="1442.71" y="29.9" width="13.46" height="66.91"/><rect class="cls-5" x="1470.71" y="12.49" width="13.46" height="66.91"/><rect class="cls-5" x="1389.43" y="154.26" width="13.46" height="26.56"/><rect class="cls-5" x="521.42" y="536.06" width="13.46" height="14.47"/><rect class="cls-5" x="1497.35" width="13.46" height="39.1"/><polygon class="cls-5" points="97.5 497.45 100.61 492.06 94.39 492.06 88.16 492.06 91.27 497.45 94.39 502.83 97.5 497.45"/><polygon class="cls-5" points="368.26 359.05 371.37 353.66 374.48 348.27 368.26 348.27 362.04 348.27 365.15 353.66 368.26 359.05"/><polygon class="cls-5" points="907.8 232.15 910.91 226.76 914.02 221.37 907.8 221.37 901.58 221.37 904.69 226.76 907.8 232.15"/><polygon class="cls-5" points="799.2 471.54 796.09 476.93 792.97 482.31 799.2 482.31 805.42 482.31 802.31 476.93 799.2 471.54"/><polygon class="cls-5" points="1343.53 320.33 1340.42 325.72 1337.31 331.11 1343.53 331.11 1349.76 331.11 1346.64 325.72 1343.53 320.33"/><polygon class="cls-5" points="1505.03 45.2 1501.91 50.59 1498.8 55.97 1505.03 55.97 1511.25 55.97 1508.14 50.59 1505.03 45.2"/></g></svg>