<svg id="Capa_1" data-name="Capa 1" xmlns="http://www.w3.org/2000/svg" xmlns:xlink="http://www.w3.org/1999/xlink" viewBox="0 0 1601.51 571.44"><defs><style>.cls-1{fill:url(#Degradado_sin_nombre_25);}.cls-2{opacity:0.3;}.cls-3{fill:#fff;}</style><linearGradient id="Degradado_sin_nombre_25" y1="285.39" x2="1600.69" y2="285.39" gradientUnits="userSpaceOnUse"><stop offset="0" stop-color="#e99e5d"/><stop offset="0.38" stop-color="#c1833e"/><stop offset="1" stop-color="#882818"/></linearGradient></defs><title>header-final</title><path class="cls-1" d="M501,540.18a388.8,388.8,0,0,0,286.79,6.5c150.67-55.71,349.87-118.3,416.44-115.93,95,3.38,252.23,58.89,309-57,43.68-89.06,87.21-84.52,87.21-84.52l.2-289.4L.44.12S0,387.24,0,385.55c0,0,87.48,93.75,259.89,102.41C339.48,492,428.19,509.25,501,540.18Z" transform="translate(0.11 0.5)"/><g class="cls-2"><rect class="cls-3" x="65.94" y="377.39" width="14.31" height="57.51"/><polygon class="cls-3" points="159.34 472.63 146.79 468.88 146.83 443.49 159.47 443.49 159.34 472.63"/><rect class="cls-3" x="174.07" y="434.27" width="13.41" height="28.01"/><rect class="cls-3" x="200.89" y="382.81" width="13.41" height="66.8"/><rect class="cls-3" x="228.55" y="359.41" width="13.41" height="38.64"/><rect class="cls-3" x="255.02" y="330.34" width="13.41" height="46.91"/><rect class="cls-3" x="281.97" y="289.62" width="13.41" height="66.84"/><rect class="cls-3" x="308.92" y="280.66" width="13.41" height="15.75"/><rect class="cls-3" x="335.69" y="239.44" width="13.41" height="77.33"/><rect class="cls-3" x="363.12" y="289.06" width="13.41" height="48.05"/><rect class="cls-3" x="390.06" y="334.24" width="13.41" height="46.84"/><rect class="cls-3" x="417.49" y="314.18" width="13.41" height="68.31"/><rect class="cls-3" x="443.96" y="373.56" width="13.41" height="51.44"/><rect class="cls-3" x="471.27" y="402.92" width="13.41" height="64.95"/><rect class="cls-3" x="524.52" y="392.34" width="13.41" height="41.03"/><rect class="cls-3" x="551.83" y="364.27" width="13.41" height="92.89"/><rect class="cls-3" x="578.71" y="420.78" width="13.41" height="57.29"/><rect class="cls-3" x="606.7" y="399.72" width="13.41" height="33.63"/><rect class="cls-3" x="634.01" y="381.95" width="13.41" height="20.55"/><rect class="cls-3" x="659.97" y="314.61" width="13.41" height="67.57"/><rect class="cls-3" x="686.71" y="360.94" width="13.41" height="47.31"/><rect class="cls-3" x="713.79" y="345.61" width="13.41" height="37.24"/><rect class="cls-3" x="741.21" y="281.01" width="13.41" height="133.49"/><rect class="cls-3" x="768.29" y="303.9" width="13.41" height="29.13"/><rect class="cls-3" x="794.36" y="242.57" width="13.41" height="35.96"/><rect class="cls-3" x="822.46" y="172.85" width="13.41" height="66.41"/><rect class="cls-3" x="849.88" y="183.03" width="13.41" height="27.12"/><rect class="cls-3" x="875.67" y="109.61" width="13.41" height="94.84"/><rect class="cls-3" x="902.75" y="123.95" width="13.41" height="65.79"/><rect class="cls-3" x="929.61" y="112.51" width="13.41" height="36.4"/><rect class="cls-3" x="956.84" y="73.63" width="13.41" height="64.93"/><rect class="cls-3" x="983.91" y="121.79" width="13.41" height="37.82"/><rect class="cls-3" x="1011.47" y="143.82" width="13.41" height="78.49"/><rect class="cls-3" x="1037.66" y="126.17" width="13.41" height="54.2"/><rect class="cls-3" x="1065.21" y="143.66" width="13.41" height="25.82"/><rect class="cls-3" x="1091.06" y="162.22" width="13.41" height="46.04"/><rect class="cls-3" x="1118.96" y="182.56" width="13.41" height="93.93"/><rect class="cls-3" x="1145.83" y="164.59" width="13.41" height="47.07"/><rect class="cls-3" x="1173.04" y="156.37" width="13.41" height="67.2"/><rect class="cls-3" x="1200.6" y="74.3" width="12.55" height="110.83"/><rect class="cls-3" x="1227.47" y="109.51" width="13.41" height="67.46"/><rect class="cls-3" x="1254.68" y="136.04" width="13.41" height="67.46"/><rect class="cls-3" x="1280.53" y="105.82" width="13.41" height="55.84"/><rect class="cls-3" x="1308.43" y="90.25" width="13.41" height="87.74"/><rect class="cls-3" x="1335.3" y="42.97" width="13.41" height="66.65"/><rect class="cls-3" x="1389.38" width="13.41" height="51.34"/><rect class="cls-3" x="1362.85" y="21.59" width="13.41" height="26.45"/><rect class="cls-3" x="498.24" y="401.89" width="13.41" height="14.41"/><path class="cls-3" d="M1601.39,165.22a282.16,282.16,0,0,0-25.19-20.58q-13.11-9.63-27-18.2a456.84,456.84,0,0,0-182.52-64.72c-86-10.82-175,2.38-253.59,39.09-39.42,18-76.4,41.05-111.47,66.48C984.09,180,967,193.36,950.1,207s-33.6,27.46-50.81,40.74c-8.62,6.61-17.38,13.08-26.63,18.89a131.69,131.69,0,0,1-14.37,7.91,58.59,58.59,0,0,1-15.77,5.05,31.29,31.29,0,0,1-8.43.15A24.52,24.52,0,0,1,826,277.2a26.88,26.88,0,0,1-6.81-5c-1.93-2-3.78-3.92-5.65-5.91-7.43-7.95-14.52-16.2-21.5-24.52S778.21,225,770.72,217.24c-3.77-3.8-7.75-7.49-12.35-9.9a16.56,16.56,0,0,0-7.23-2.05,14.27,14.27,0,0,0-7.2,1.81,27.46,27.46,0,0,0-6.2,4.66,55.64,55.64,0,0,0-5.28,6c-1.65,2.1-3.17,4.3-4.69,6.54s-3.13,4.5-4.85,6.66a51.21,51.21,0,0,1-12.06,11.42,22,22,0,0,1-8,3.22,15.33,15.33,0,0,1-8.67-1,20.86,20.86,0,0,1-7-5,35.25,35.25,0,0,1-5-6.81,62,62,0,0,1-6-15.43,72.44,72.44,0,0,1-1.57-8.13,64.72,64.72,0,0,0-1.38-7.89,71.11,71.11,0,0,0-5.36-15,47.85,47.85,0,0,0-4.07-6.79,24.72,24.72,0,0,0-5.37-5.52,10.63,10.63,0,0,0-6.79-2.21,11.8,11.8,0,0,0-6.62,2.92c-3.93,3.29-6.8,7.93-9.26,12.63a119.45,119.45,0,0,0-6.24,14.83,123.51,123.51,0,0,1-6.14,15.22c-2.48,4.9-5.33,9.77-9.64,13.59a14.45,14.45,0,0,1-7.9,3.74,12.43,12.43,0,0,1-8.44-2.52,26.73,26.73,0,0,1-5.91-6.11A53.42,53.42,0,0,1,587.3,219c-4.93-9.89-7.92-20.47-10.39-31.08a325.93,325.93,0,0,1-5.46-32.2c-1.31-10.8-2.22-21.64-2.83-32.5l-.21-4.07a25.14,25.14,0,0,0-.38-3.88,27.58,27.58,0,0,0-2.62-7.33A33.23,33.23,0,0,0,555.35,96a16.8,16.8,0,0,0-6.94-2.94,10.13,10.13,0,0,0-7,1.47,16.67,16.67,0,0,0-5.19,5.49,36.25,36.25,0,0,0-3.35,7.12,83.16,83.16,0,0,0-3.59,15.62c-.73,5.33-1.15,10.71-1.38,16.1-.46,10.8-.1,21.59.44,32.45a109.43,109.43,0,0,1-3.51,32.56,80.8,80.8,0,0,1-5.93,15.35,67.81,67.81,0,0,1-9.26,13.63,64.13,64.13,0,0,1-27.13,18.22,83.84,83.84,0,0,1-32.42,4.32,126.67,126.67,0,0,1-32.11-6.13c-20.79-6.75-40-17.61-57.58-30.36a304.6,304.6,0,0,1-25.29-20.6c-2-1.82-4-3.66-6-5.54s-3.92-3.76-5.86-5.67-3.88-3.77-5.82-5.65-4-3.62-6-5.43a209.32,209.32,0,0,0-55.24-33.57c-19.95-8.43-41-14.15-62.29-18a423.63,423.63,0,0,0-64.68-6.24,555.29,555.29,0,0,0-65,2.45q-16.2,1.56-32.3,4c-10.72,1.63-21.42,3.49-32,5.89,10.57-2.44,21.26-4.36,32-6s21.49-3,32.29-4.11a553.75,553.75,0,0,1,65-2.75,424.3,424.3,0,0,1,64.82,6c21.39,3.77,42.52,9.41,62.61,17.79A208.89,208.89,0,0,1,312.3,175c2,1.82,4.1,3.58,6.08,5.45s3.95,3.77,5.87,5.67,3.87,3.79,5.85,5.63,4,3.69,6,5.5a304.86,304.86,0,0,0,25.21,20.44c17.54,12.62,36.62,23.35,57.19,30a125.07,125.07,0,0,0,31.67,6,82,82,0,0,0,31.69-4.3,62.18,62.18,0,0,0,26.27-17.73,66,66,0,0,0,8.95-13.25,79,79,0,0,0,5.73-15,107.24,107.24,0,0,0,3.36-31.93c-.54-10.8-.93-21.74-.48-32.62.22-5.45.64-10.9,1.38-16.32a85.45,85.45,0,0,1,3.68-16.06,38,38,0,0,1,3.55-7.57,18.92,18.92,0,0,1,5.9-6.22,12.51,12.51,0,0,1,8.56-1.79,18.85,18.85,0,0,1,7.92,3.31,35.38,35.38,0,0,1,10.82,12.69,30.15,30.15,0,0,1,2.84,8,27,27,0,0,1,.42,4.21L571,123c.62,10.81,1.53,21.6,2.85,32.34a318.72,318.72,0,0,0,5.44,32c2.44,10.49,5.42,20.95,10.21,30.51a51.18,51.18,0,0,0,4.09,6.81,24.36,24.36,0,0,0,5.35,5.55,10.05,10.05,0,0,0,6.8,2.08,12.1,12.1,0,0,0,6.55-3.17c3.85-3.4,6.65-8.08,9-12.83a121.15,121.15,0,0,0,6-14.95,121.31,121.31,0,0,1,6.37-15.14c2.55-4.86,5.46-9.71,9.88-13.43a14.22,14.22,0,0,1,8.05-3.49,13.1,13.1,0,0,1,8.4,2.66,27.21,27.21,0,0,1,5.94,6.09,49.11,49.11,0,0,1,4.3,7.15,73.7,73.7,0,0,1,5.58,15.56,68.85,68.85,0,0,1,1.43,8.13,69.51,69.51,0,0,0,1.51,7.84,59.62,59.62,0,0,0,5.76,14.81,33.63,33.63,0,0,0,4.58,6.33,18.32,18.32,0,0,0,6.12,4.42,12.9,12.9,0,0,0,7.29.82,19.74,19.74,0,0,0,7-2.86A48.54,48.54,0,0,0,721,229.36c1.67-2.08,3.25-4.25,4.75-6.48s3.09-4.52,4.79-6.69A57.61,57.61,0,0,1,736,210a30.33,30.33,0,0,1,6.77-5.07,19.71,19.71,0,0,1,4.05-1.59,16.07,16.07,0,0,1,4.37-.49,19.2,19.2,0,0,1,8.29,2.32c5,2.67,9.1,6.5,13,10.37,7.62,7.87,14.39,16.37,21.38,24.66s14,16.52,21.4,24.43c1.84,2,3.71,4,5.59,5.87a24.42,24.42,0,0,0,6.21,4.6,22.21,22.21,0,0,0,7.35,2.27,29.08,29.08,0,0,0,7.79-.15,55.76,55.76,0,0,0,15.13-4.84,131.1,131.1,0,0,0,14.12-7.76c9.14-5.73,17.87-12.15,26.47-18.74,17.16-13.22,33.85-27.1,50.8-40.67s34.06-26.95,51.67-39.68c35.16-25.49,72.36-48.42,111.95-66.44,79-36.64,168.38-49.69,254.55-38.55a457.72,457.72,0,0,1,182.52,65.65q13.8,8.65,26.9,18.34A282.59,282.59,0,0,1,1601.39,165.22Z" transform="translate(0.11 0.5)"/><polygon class="cls-3" points="72.88 358.06 79.07 358.06 75.97 363.43 72.88 368.8 69.78 363.43 66.68 358.06 72.88 358.06"/><path class="cls-3" d="M91.79,369.85H89V358.37l-2.68.06v-2l5.49-1Z" transform="translate(0.11 0.5)"/><path class="cls-3" d="M99.58,367.81A1.66,1.66,0,0,0,101,367a4,4,0,0,0,.56-2.28v-.55a2.81,2.81,0,0,1-.92.87,2.28,2.28,0,0,1-1.13.3A3.1,3.1,0,0,1,96.84,364a6.06,6.06,0,0,1-1-3.63,5.67,5.67,0,0,1,1.2-3.66,3.84,3.84,0,0,1,6.1,0,6.82,6.82,0,0,1,1.19,4.27v3.52a5.78,5.78,0,0,1-1.36,4,4.39,4.39,0,0,1-3.42,1.49,5.56,5.56,0,0,1-1.3-.16,5.31,5.31,0,0,1-1.27-.45l.32-2.1a5.66,5.66,0,0,0,1.08.35A5.29,5.29,0,0,0,99.58,367.81Zm.46-4.59a1.51,1.51,0,0,0,.87-.25,1.93,1.93,0,0,0,.64-.66v-1.64a5.65,5.65,0,0,0-.39-2.37c-.27-.53-.62-.79-1-.76h-.06c-.41,0-.74.25-1,.82a4.81,4.81,0,0,0-.39,2,5,5,0,0,0,.35,2.07A1.09,1.09,0,0,0,100,363.22Z" transform="translate(0.11 0.5)"/><path class="cls-3" d="M109.24,369.85h-2.78V367.3h2.78Z" transform="translate(0.11 0.5)"/><path class="cls-3" d="M119.85,364.2a7.1,7.1,0,0,1-1.14,4.37,3.93,3.93,0,0,1-6.16,0,7,7,0,0,1-1.15-4.37v-3.1a7.15,7.15,0,0,1,1.14-4.38,3.91,3.91,0,0,1,6.16,0,7.08,7.08,0,0,1,1.15,4.38ZM117,360.85a6.46,6.46,0,0,0-.37-2.55q-.36-.8-1-.75h-.06q-.66,0-1,.75a6.69,6.69,0,0,0-.36,2.55v3.57a6.76,6.76,0,0,0,.37,2.58,1,1,0,0,0,1,.74h.06c.44,0,.77-.2,1-.74a6.72,6.72,0,0,0,.36-2.58Z" transform="translate(0.11 0.5)"/><path class="cls-3" d="M124,361.4h1.41a1.29,1.29,0,0,0,1.12-.53,2.68,2.68,0,0,0,.36-1.5,2.36,2.36,0,0,0-.36-1.37,1.22,1.22,0,0,0-1-.53,1.24,1.24,0,0,0-1,.47,1.79,1.79,0,0,0-.4,1.22h-2.72l0-.06a3.49,3.49,0,0,1,1.12-2.8,4.12,4.12,0,0,1,2.9-1.08,4.43,4.43,0,0,1,3.13,1.08,3.89,3.89,0,0,1,1.17,3,3.54,3.54,0,0,1-1.89,3.12,3.14,3.14,0,0,1,1.54,1.3,4.36,4.36,0,0,1-.73,5.18,4.63,4.63,0,0,1-3.23,1.13,4.42,4.42,0,0,1-3-1.06,3.62,3.62,0,0,1-1.2-3.05l0-.06H124a2.13,2.13,0,0,0,.44,1.38,1.34,1.34,0,0,0,1.08.54,1.37,1.37,0,0,0,1.16-.55,2.28,2.28,0,0,0,.43-1.47,2.73,2.73,0,0,0-.42-1.68,1.49,1.49,0,0,0-1.24-.53H124Z" transform="translate(0.11 0.5)"/><polygon class="cls-3" points="345.68 214.84 351.87 214.84 348.77 220.21 345.68 225.58 342.58 220.21 339.48 214.84 345.68 214.84"/><path class="cls-3" d="M364.59,226.63h-2.81V215.15l-2.68.06v-2l5.49-1Z" transform="translate(0.11 0.5)"/><path class="cls-3" d="M372.38,224.59a1.66,1.66,0,0,0,1.41-.81,3.92,3.92,0,0,0,.56-2.28V221a2.81,2.81,0,0,1-.92.87,2.28,2.28,0,0,1-1.13.3,3.11,3.11,0,0,1-2.66-1.34,6.06,6.06,0,0,1-1-3.63,5.67,5.67,0,0,1,1.19-3.66,3.84,3.84,0,0,1,6.1,0,6.82,6.82,0,0,1,1.19,4.27v3.52a5.72,5.72,0,0,1-1.36,4,4.39,4.39,0,0,1-3.42,1.49,5.56,5.56,0,0,1-1.3-.16,5.31,5.31,0,0,1-1.27-.45l.32-2.1a5.66,5.66,0,0,0,1.08.35A5.29,5.29,0,0,0,372.38,224.59Zm.46-4.59a1.51,1.51,0,0,0,.87-.25,2,2,0,0,0,.64-.65v-1.65a5.65,5.65,0,0,0-.39-2.37c-.27-.53-.62-.79-1-.76h-.06c-.41,0-.74.25-1,.82a4.81,4.81,0,0,0-.39,2,5,5,0,0,0,.35,2.07A1.09,1.09,0,0,0,372.84,220Z" transform="translate(0.11 0.5)"/><path class="cls-3" d="M382,226.63h-2.78v-2.55H382Z" transform="translate(0.11 0.5)"/><path class="cls-3" d="M392.65,221a7.1,7.1,0,0,1-1.14,4.37,3.93,3.93,0,0,1-6.16,0A7,7,0,0,1,384.2,221v-3.1a7.15,7.15,0,0,1,1.14-4.38,3.91,3.91,0,0,1,6.16,0,7.08,7.08,0,0,1,1.15,4.38Zm-2.81-3.35a6.46,6.46,0,0,0-.37-2.55q-.36-.79-1-.75h-.06q-.66,0-1,.75a6.69,6.69,0,0,0-.36,2.55v3.58a6.73,6.73,0,0,0,.37,2.57c.25.53.59.78,1,.74h.06c.44,0,.77-.2,1-.74a6.7,6.7,0,0,0,.36-2.57Z" transform="translate(0.11 0.5)"/><path class="cls-3" d="M396.82,218.18h1.41a1.26,1.26,0,0,0,1.12-.53,2.68,2.68,0,0,0,.36-1.5,2.36,2.36,0,0,0-.36-1.37,1.22,1.22,0,0,0-1.05-.53,1.24,1.24,0,0,0-1,.47,1.79,1.79,0,0,0-.4,1.22h-2.72l0-.06a3.49,3.49,0,0,1,1.12-2.8,4.12,4.12,0,0,1,2.9-1.08,4.43,4.43,0,0,1,3.13,1.08,3.9,3.9,0,0,1,1.17,3,3.54,3.54,0,0,1-1.89,3.12,3.14,3.14,0,0,1,1.54,1.3,4.36,4.36,0,0,1-.73,5.18,4.63,4.63,0,0,1-3.23,1.13,4.42,4.42,0,0,1-3-1.06,3.65,3.65,0,0,1-1.2-3.05l0-.06h2.73a2.13,2.13,0,0,0,.44,1.38,1.34,1.34,0,0,0,1.08.54,1.37,1.37,0,0,0,1.16-.55,2.28,2.28,0,0,0,.43-1.47,2.73,2.73,0,0,0-.42-1.68,1.49,1.49,0,0,0-1.24-.53h-1.41Z" transform="translate(0.11 0.5)"/><polygon class="cls-3" points="883.1 88.44 889.3 88.44 886.2 93.81 883.1 99.17 880 93.81 876.91 88.44 883.1 88.44"/><path class="cls-3" d="M904.61,100.23h-8.52V98.32l3.93-5a10.59,10.59,0,0,0,1.12-1.93,4,4,0,0,0,.35-1.5,2.76,2.76,0,0,0-.36-1.49,1.14,1.14,0,0,0-1-.56,1.16,1.16,0,0,0-1.07.68,3.88,3.88,0,0,0-.37,1.8h-2.74l0,0A4.79,4.79,0,0,1,897,87a3.81,3.81,0,0,1,3.09-1.36,4.08,4.08,0,0,1,3.09,1.15,4.31,4.31,0,0,1,1.11,3.13,5,5,0,0,1-.62,2.45,21.84,21.84,0,0,1-2.07,3L899.73,98h4.88Z" transform="translate(0.11 0.5)"/><path class="cls-3" d="M908.73,91.78h1.4a1.25,1.25,0,0,0,1.12-.54,2.56,2.56,0,0,0,.37-1.5,2.31,2.31,0,0,0-.37-1.37,1.27,1.27,0,0,0-2-.06,1.79,1.79,0,0,0-.4,1.22h-2.73l0,0a3.47,3.47,0,0,1,1.13-2.8,4.11,4.11,0,0,1,2.89-1.08,4.49,4.49,0,0,1,3.14,1.07,4,4,0,0,1,1.16,3,3.44,3.44,0,0,1-.5,1.82,3.48,3.48,0,0,1-1.39,1.3,3.19,3.19,0,0,1,1.55,1.29,4,4,0,0,1,.53,2.09,4,4,0,0,1-1.26,3.1,4.68,4.68,0,0,1-3.24,1.13,4.45,4.45,0,0,1-3-1.07,3.66,3.66,0,0,1-1.2-3l0-.06h2.74a2.12,2.12,0,0,0,.43,1.37,1.32,1.32,0,0,0,1.08.55,1.41,1.41,0,0,0,1.17-.55,2.32,2.32,0,0,0,.43-1.47,2.69,2.69,0,0,0-.42-1.68,1.51,1.51,0,0,0-1.25-.53h-1.4Z" transform="translate(0.11 0.5)"/><path class="cls-3" d="M919.47,100.23h-2.79V97.67h2.79Z" transform="translate(0.11 0.5)"/><path class="cls-3" d="M930.08,94.57A7.06,7.06,0,0,1,928.93,99a3.92,3.92,0,0,1-6.15,0,7.06,7.06,0,0,1-1.15-4.38v-3.1a7.14,7.14,0,0,1,1.14-4.37,3.91,3.91,0,0,1,6.16,0,7.07,7.07,0,0,1,1.15,4.37Zm-2.82-3.35a6.59,6.59,0,0,0-.36-2.54q-.37-.81-1-.75h-.06q-.66-.06-1,.75a6.59,6.59,0,0,0-.36,2.54V94.8a6.51,6.51,0,0,0,.37,2.57c.24.54.59.79,1,.75h.06c.43,0,.77-.21,1-.74a6.83,6.83,0,0,0,.35-2.58Z" transform="translate(0.11 0.5)"/><path class="cls-3" d="M937.64,100.23h-2.82V88.75l-2.67.06v-2l5.49-1Z" transform="translate(0.11 0.5)"/><polygon class="cls-3" points="180.97 477.96 176.01 476.84 178.01 473.47 181.11 468.11 184.21 473.47 187.31 478.84 180.97 477.96"/><path class="cls-3" d="M202.52,474.24a7,7,0,0,1-1.15,4.37,3.92,3.92,0,0,1-6.15,0,7,7,0,0,1-1.15-4.37v-3.1a7.15,7.15,0,0,1,1.14-4.38,3.91,3.91,0,0,1,6.16,0,7.08,7.08,0,0,1,1.15,4.38Zm-2.82-3.35a6.69,6.69,0,0,0-.36-2.55q-.37-.79-1-.75h-.06q-.66,0-1,.75a6.69,6.69,0,0,0-.36,2.55v3.58a6.54,6.54,0,0,0,.37,2.57c.24.54.59.79,1,.75h.06c.43,0,.77-.21,1-.75a6.74,6.74,0,0,0,.35-2.57Z" transform="translate(0.11 0.5)"/><path class="cls-3" d="M212.64,467.73a14.22,14.22,0,0,0-2.59,4.82,33.09,33.09,0,0,0-.92,6L209,479.9h-2.83l.14-1.39a25.76,25.76,0,0,1,1.16-5.93,17.42,17.42,0,0,1,2.48-4.86h-6.08v-2.25h8.77Z" transform="translate(0.11 0.5)"/><path class="cls-3" d="M217.43,479.9h-2.78v-2.56h2.78Z" transform="translate(0.11 0.5)"/><path class="cls-3" d="M222.17,471.44h1.4a1.25,1.25,0,0,0,1.12-.53,2.6,2.6,0,0,0,.37-1.5,2.31,2.31,0,0,0-.37-1.37,1.25,1.25,0,0,0-2-.06,1.8,1.8,0,0,0-.41,1.22h-2.72l0-.06a3.49,3.49,0,0,1,1.12-2.79,4.1,4.1,0,0,1,2.9-1.09,4.43,4.43,0,0,1,3.13,1.08,3.9,3.9,0,0,1,1.17,3,3.51,3.51,0,0,1-.5,1.82A3.58,3.58,0,0,1,226,472.5a3.13,3.13,0,0,1,1.55,1.29,4.41,4.41,0,0,1-.73,5.18,4.66,4.66,0,0,1-3.24,1.13,4.44,4.44,0,0,1-3-1.06,3.68,3.68,0,0,1-1.2-3.05l0-.06h2.74a2.13,2.13,0,0,0,.43,1.38,1.35,1.35,0,0,0,1.08.55,1.43,1.43,0,0,0,1.17-.55,2.39,2.39,0,0,0,.43-1.48,2.73,2.73,0,0,0-.42-1.68,1.53,1.53,0,0,0-1.25-.53h-1.4Z" transform="translate(0.11 0.5)"/><path class="cls-3" d="M233.34,477.86a1.67,1.67,0,0,0,1.41-.82,3.92,3.92,0,0,0,.56-2.28v-.55a2.81,2.81,0,0,1-.92.87,2.28,2.28,0,0,1-1.13.3,3.13,3.13,0,0,1-2.66-1.33,6.12,6.12,0,0,1-1-3.64,5.67,5.67,0,0,1,1.19-3.66,3.84,3.84,0,0,1,6.1,0,6.84,6.84,0,0,1,1.19,4.27v3.53a5.71,5.71,0,0,1-1.36,4,4.39,4.39,0,0,1-3.42,1.49A6.11,6.11,0,0,1,232,480a5.54,5.54,0,0,1-1.26-.46l.31-2.1a5.48,5.48,0,0,0,2.25.47Zm.46-4.6a1.58,1.58,0,0,0,.87-.24,2.12,2.12,0,0,0,.64-.66v-1.65a5.65,5.65,0,0,0-.39-2.37c-.27-.53-.61-.79-1-.76h-.06c-.41,0-.74.25-1,.82a4.81,4.81,0,0,0-.39,2,5.2,5.2,0,0,0,.35,2.08A1.09,1.09,0,0,0,233.8,473.26Z" transform="translate(0.11 0.5)"/><polygon class="cls-3" points="613.92 452.74 607.72 452.74 610.82 447.38 613.92 442.01 617.01 447.38 620.11 452.74 613.92 452.74"/><path class="cls-3" d="M632.83,453.8H630V442.32l-2.67.06v-2l5.48-1Z" transform="translate(0.11 0.5)"/><path class="cls-3" d="M642.06,439.16a5,5,0,0,1,1.28.16,5.7,5.7,0,0,1,1.19.46l-.48,2.13a6,6,0,0,0-1-.34,3.83,3.83,0,0,0-1-.12,1.9,1.9,0,0,0-1.65.94,4.65,4.65,0,0,0-.59,2.65l0,0a2.65,2.65,0,0,1,1-.7,3.25,3.25,0,0,1,1.35-.26,2.9,2.9,0,0,1,2.55,1.38,6.22,6.22,0,0,1,.92,3.52,5.41,5.41,0,0,1-1.18,3.57,3.77,3.77,0,0,1-3,1.42,4,4,0,0,1-3.24-1.55,6.57,6.57,0,0,1-1.24-4.24v-3a6.52,6.52,0,0,1,1.43-4.45A4.64,4.64,0,0,1,642.06,439.16Zm-.62,7.18a2.35,2.35,0,0,0-1,.2,1.74,1.74,0,0,0-.66.57v1.14a6,6,0,0,0,.45,2.6,1.38,1.38,0,0,0,1.22.91q.64,0,1-.81a4.4,4.4,0,0,0,.39-1.93,4,4,0,0,0-.4-1.94A1.16,1.16,0,0,0,641.44,446.34Z" transform="translate(0.11 0.5)"/><path class="cls-3" d="M650.28,453.8H647.5v-2.56h2.78Z" transform="translate(0.11 0.5)"/><path class="cls-3" d="M657.53,439.16a5.18,5.18,0,0,1,1.29.16,5.63,5.63,0,0,1,1.18.46l-.47,2.13a6.32,6.32,0,0,0-1-.34,3.86,3.86,0,0,0-1-.12,1.92,1.92,0,0,0-1.65.94,4.66,4.66,0,0,0-.58,2.65l0,0a2.61,2.61,0,0,1,1-.7,3.24,3.24,0,0,1,1.34-.26,2.9,2.9,0,0,1,2.55,1.38,6.14,6.14,0,0,1,.92,3.52,5.36,5.36,0,0,1-1.18,3.57,3.75,3.75,0,0,1-3,1.42,4,4,0,0,1-3.24-1.55,6.57,6.57,0,0,1-1.25-4.24v-3a6.57,6.57,0,0,1,1.43-4.45A4.67,4.67,0,0,1,657.53,439.16Zm-.61,7.18a2.35,2.35,0,0,0-1,.2,1.67,1.67,0,0,0-.66.57v1.14a6,6,0,0,0,.45,2.6,1.38,1.38,0,0,0,1.22.91q.63,0,1-.81a4.4,4.4,0,0,0,.39-1.93,4.15,4.15,0,0,0-.4-1.94A1.16,1.16,0,0,0,656.92,446.34Z" transform="translate(0.11 0.5)"/><path class="cls-3" d="M662.84,447.42l.71-8.05h7.05v2.31h-4.75l-.31,3.4a2.58,2.58,0,0,1,.77-.51,2.45,2.45,0,0,1,1-.22,3.18,3.18,0,0,1,2.77,1.24,5.77,5.77,0,0,1,1,3.58,5.38,5.38,0,0,1-1.1,3.45,3.76,3.76,0,0,1-3.12,1.39,4.35,4.35,0,0,1-3-1.11,3.67,3.67,0,0,1-1.21-3l0,0,2.73-.15a2.49,2.49,0,0,0,.4,1.51,1.23,1.23,0,0,0,1,.54,1.14,1.14,0,0,0,1.08-.71,4.43,4.43,0,0,0,.33-1.86,4.55,4.55,0,0,0-.37-2,1.33,1.33,0,0,0-2.05-.43,1.77,1.77,0,0,0-.44.85Z" transform="translate(0.11 0.5)"/><polygon class="cls-3" points="774.92 348.36 768.73 348.36 771.83 342.99 774.92 337.62 778.02 342.99 781.12 348.36 774.92 348.36"/><path class="cls-3" d="M796.43,349.42h-8.52V347.5l3.93-5a10.07,10.07,0,0,0,1.12-1.94,3.9,3.9,0,0,0,.35-1.49,2.72,2.72,0,0,0-.36-1.49,1.15,1.15,0,0,0-1-.57,1.17,1.17,0,0,0-1.07.69,3.83,3.83,0,0,0-.37,1.8h-2.74l0,0a4.8,4.8,0,0,1,1.11-3.33,3.85,3.85,0,0,1,3.09-1.36,4.08,4.08,0,0,1,3.09,1.15,4.32,4.32,0,0,1,1.11,3.13,5,5,0,0,1-.62,2.46,22.56,22.56,0,0,1-2.06,3l-1.89,2.7h4.88Z" transform="translate(0.11 0.5)"/><path class="cls-3" d="M806.52,349.42H798V347.5l3.94-5a10.63,10.63,0,0,0,1.12-1.94,3.87,3.87,0,0,0,.34-1.49,2.81,2.81,0,0,0-.35-1.49,1.19,1.19,0,0,0-2.1.12,3.71,3.71,0,0,0-.37,1.8h-2.74l0,0a4.9,4.9,0,0,1,1.11-3.33,3.88,3.88,0,0,1,3.1-1.36,4.08,4.08,0,0,1,3.09,1.15,4.32,4.32,0,0,1,1.11,3.13,5,5,0,0,1-.62,2.46,22.83,22.83,0,0,1-2.07,3l-1.88,2.7h4.87Z" transform="translate(0.11 0.5)"/><path class="cls-3" d="M811.29,349.42h-2.78v-2.56h2.78Z" transform="translate(0.11 0.5)"/><path class="cls-3" d="M821.67,338.81a3.72,3.72,0,0,1-.49,1.93,3.4,3.4,0,0,1-1.34,1.29,3.72,3.72,0,0,1,2.08,3.44,4,4,0,0,1-1.16,3.08,4.9,4.9,0,0,1-6.11,0,4,4,0,0,1-1.17-3.08,3.7,3.7,0,0,1,2.09-3.44,3.49,3.49,0,0,1-1.35-1.29,3.81,3.81,0,0,1-.48-1.93,3.71,3.71,0,0,1,4-4,4,4,0,0,1,2.88,1.06A4,4,0,0,1,821.67,338.81Zm-2.56,6.45a2.7,2.7,0,0,0-.39-1.54,1.19,1.19,0,0,0-1-.57,1.16,1.16,0,0,0-1,.57,2.78,2.78,0,0,0-.38,1.54,2.75,2.75,0,0,0,.38,1.55,1.16,1.16,0,0,0,1,.56,1.18,1.18,0,0,0,1-.56A2.75,2.75,0,0,0,819.11,345.26Zm-.27-6.31a2.89,2.89,0,0,0-.29-1.4.93.93,0,0,0-.85-.52.91.91,0,0,0-.84.51,2.91,2.91,0,0,0-.29,1.41,3,3,0,0,0,.29,1.43.93.93,0,0,0,.85.52.91.91,0,0,0,.84-.51A3,3,0,0,0,818.84,339Z" transform="translate(0.11 0.5)"/><path class="cls-3" d="M832,343.76a7,7,0,0,1-1.15,4.37,3.64,3.64,0,0,1-3.06,1.49,3.7,3.7,0,0,1-3.1-1.49,7.1,7.1,0,0,1-1.14-4.37v-3.1a7.15,7.15,0,0,1,1.14-4.38,3.91,3.91,0,0,1,6.16,0,7.15,7.15,0,0,1,1.15,4.38Zm-2.82-3.35a6.69,6.69,0,0,0-.36-2.55q-.37-.8-1-.75h-.06a1,1,0,0,0-1,.75,6.69,6.69,0,0,0-.36,2.55V344a6.54,6.54,0,0,0,.37,2.57c.24.54.58.78,1,.74h0c.44,0,.78-.2,1-.74a6.94,6.94,0,0,0,.35-2.57Z" transform="translate(0.11 0.5)"/><polygon class="cls-3" points="1317.13 197.75 1310.93 197.75 1314.03 192.38 1317.13 187.01 1320.23 192.38 1323.33 197.75 1317.13 197.75"/><path class="cls-3" d="M1338.63,198.8h-8.52v-1.91l3.93-5a10.19,10.19,0,0,0,1.13-1.94,3.92,3.92,0,0,0,.34-1.5,2.76,2.76,0,0,0-.36-1.49,1.15,1.15,0,0,0-1-.56,1.17,1.17,0,0,0-1.06.68,3.76,3.76,0,0,0-.37,1.8h-2.75l0,0a4.9,4.9,0,0,1,1.11-3.33,3.84,3.84,0,0,1,3.09-1.36,4.12,4.12,0,0,1,3.1,1.15,4.34,4.34,0,0,1,1.1,3.13,5,5,0,0,1-.62,2.46,23.26,23.26,0,0,1-2.06,3l-1.88,2.69h4.87Z" transform="translate(0.11 0.5)"/><path class="cls-3" d="M1342.75,190.35h1.41a1.27,1.27,0,0,0,1.12-.53,2.68,2.68,0,0,0,.37-1.5,2.42,2.42,0,0,0-.37-1.38,1.19,1.19,0,0,0-1-.52,1.21,1.21,0,0,0-1,.47,1.83,1.83,0,0,0-.4,1.22h-2.72l0-.06a3.48,3.48,0,0,1,1.12-2.8,4.14,4.14,0,0,1,2.9-1.08,4.47,4.47,0,0,1,3.13,1.07,3.93,3.93,0,0,1,1.17,3,3.54,3.54,0,0,1-.5,1.82,3.48,3.48,0,0,1-1.39,1.3,3.14,3.14,0,0,1,1.54,1.3,3.86,3.86,0,0,1,.54,2.08,4,4,0,0,1-1.26,3.1,4.72,4.72,0,0,1-3.24,1.13,4.44,4.44,0,0,1-3-1.06,3.68,3.68,0,0,1-1.2-3l0-.06h2.73a2.17,2.17,0,0,0,.44,1.38,1.34,1.34,0,0,0,1.08.54,1.37,1.37,0,0,0,1.16-.55,2.3,2.3,0,0,0,.44-1.47,2.62,2.62,0,0,0-.43-1.68,1.49,1.49,0,0,0-1.24-.53h-1.41Z" transform="translate(0.11 0.5)"/><path class="cls-3" d="M1353.49,198.8h-2.78v-2.55h2.78Z" transform="translate(0.11 0.5)"/><path class="cls-3" d="M1364.2,198.8h-8.52v-1.91l3.94-5a10.63,10.63,0,0,0,1.12-1.94,3.92,3.92,0,0,0,.34-1.5,2.76,2.76,0,0,0-.36-1.49,1.14,1.14,0,0,0-1-.56,1.17,1.17,0,0,0-1.07.68,3.76,3.76,0,0,0-.37,1.8h-2.75l0,0a4.9,4.9,0,0,1,1.11-3.33,3.84,3.84,0,0,1,3.1-1.36,4.08,4.08,0,0,1,3.09,1.15,4.31,4.31,0,0,1,1.11,3.13,5.11,5.11,0,0,1-.62,2.46,24.67,24.67,0,0,1-2.07,3l-1.88,2.69h4.87Z" transform="translate(0.11 0.5)"/><path class="cls-3" d="M1370.84,184.17a5.05,5.05,0,0,1,1.28.15,6.76,6.76,0,0,1,1.19.46l-.48,2.13a7.51,7.51,0,0,0-1-.34,4.49,4.49,0,0,0-1-.11,1.89,1.89,0,0,0-1.65.93,4.67,4.67,0,0,0-.59,2.65l0,0a2.77,2.77,0,0,1,1-.7,3.46,3.46,0,0,1,1.35-.26,2.9,2.9,0,0,1,2.55,1.38,6.25,6.25,0,0,1,.92,3.53,5.41,5.41,0,0,1-1.18,3.57,3.79,3.79,0,0,1-3,1.41,4,4,0,0,1-3.25-1.54,6.6,6.6,0,0,1-1.24-4.25v-3a6.53,6.53,0,0,1,1.43-4.44A4.65,4.65,0,0,1,1370.84,184.17Zm-.61,7.17a2.17,2.17,0,0,0-1,.21,1.67,1.67,0,0,0-.67.56v1.14a6,6,0,0,0,.45,2.6,1.36,1.36,0,0,0,1.23.91c.42,0,.76-.27,1-.8a4.45,4.45,0,0,0,.38-1.94,4.18,4.18,0,0,0-.39-1.94A1.19,1.19,0,0,0,1370.23,191.34Z" transform="translate(0.11 0.5)"/></g></svg>