<?xml version="1.0" encoding="utf-8"?>
<!-- Generator: Adobe Illustrator 23.0.1, SVG Export Plug-In . SVG Version: 6.00 Build 0)  -->
<svg version="1.1" xmlns="http://www.w3.org/2000/svg" xmlns:xlink="http://www.w3.org/1999/xlink" x="0px" y="0px"
	 viewBox="0 0 1600.9 559.1" style="enable-background:new 0 0 1600.9 559.1;" xml:space="preserve">
<style type="text/css">
	.st0{display:none;}
	.st1{display:inline;fill:url(#SVGID_1_);}
	.st2{display:inline;fill:url(#SVGID_2_);}
	.st3{display:inline;}
	.st4{fill:#C1833E;}
	.st5{font-family:'RobotoCondensed-Bold';}
	.st6{font-size:20.3705px;}
	.st7{display:inline;opacity:0.4;}
	.st8{display:inline;fill:url(#SVGID_3_);}
	.st9{fill:url(#SVGID_4_);}
	.st10{fill:url(#SVGID_5_);}
	.st11{opacity:0.3;}
	.st12{fill:#6B6B6B;}
</style>
<g id="light" class="st0">
	<linearGradient id="SVGID_1_" gradientUnits="userSpaceOnUse" x1="959.9005" y1="-188.5132" x2="611.9771" y2="832.8658">
		<stop  offset="0" style="stop-color:#E99E5D"/>
		<stop  offset="0.3814" style="stop-color:#C1833E"/>
		<stop  offset="1" style="stop-color:#882818"/>
	</linearGradient>
	<rect x="0" y="0" class="st1" width="1600.9" height="559.1"/>
	
		<linearGradient id="SVGID_2_" gradientUnits="userSpaceOnUse" x1="660.1686" y1="-199.1032" x2="960.7719" y2="683.3608" gradientTransform="matrix(-1 0 0 1 1600.2371 0)">
		<stop  offset="0" style="stop-color:#E99E5D"/>
		<stop  offset="0.3814" style="stop-color:#C1833E"/>
		<stop  offset="1" style="stop-color:#882818"/>
	</linearGradient>
	<path class="st2" d="M1600.2,423.5V0L0,0l0,409.1l319.8,107.5c79.4,26.7,163.8,35.6,247,26L1600.2,423.5z"/>
	<g class="st3">
		<text transform="matrix(1 0 0 1 106.7068 504.3897)" class="st4 st5 st6">19.03</text>
		<text transform="matrix(1 0 0 1 380.5809 360.6085)" class="st4 st5 st6">19.03</text>
		<text transform="matrix(1 0 0 1 920.1229 233.7052)" class="st4 st5 st6">23.01</text>
		<text transform="matrix(1 0 0 1 811.5184 483.8712)" class="st4 st5 st6">22.80</text>
		<text transform="matrix(1 0 0 1 1355.8552 332.6651)" class="st4 st5 st6">23.26</text>
		<text transform="matrix(1 0 0 1 1517.3455 57.5294)" class="st4 st5 st6">30.01</text>
	</g>
	<g class="st7">
		<rect x="87.4" y="511.4" class="st4" width="13.5" height="47.5"/>
		<rect x="222.9" y="516.9" class="st4" width="13.5" height="42.1"/>
		<rect x="250.7" y="493.4" class="st4" width="13.5" height="38.8"/>
		<rect x="277.2" y="464.2" class="st4" width="13.5" height="47.1"/>
		<rect x="304.3" y="423.3" class="st4" width="13.5" height="67.1"/>
		<rect x="331.4" y="414.3" class="st4" width="13.5" height="15.8"/>
		<path class="st4" d="M358.2,373v77.6h13.5v-77.2c-0.3-0.1-0.5-0.3-0.8-0.4H358.2z"/>
		<path class="st4" d="M370.9,373c0.3,0.1,0.5,0.3,0.8,0.4V373H370.9z"/>
		<rect x="385.8" y="422.8" class="st4" width="13.5" height="48.2"/>
		<rect x="412.8" y="468.1" class="st4" width="13.5" height="47"/>
		<rect x="440.4" y="448" class="st4" width="13.5" height="68.6"/>
		<rect x="466.9" y="507.6" class="st4" width="13.5" height="51.4"/>
		<rect x="494.3" y="537.1" class="st4" width="13.5" height="22"/>
		<rect x="547.8" y="526.5" class="st4" width="13.5" height="32.6"/>
		<rect x="575.2" y="498.3" class="st4" width="13.5" height="60.8"/>
		<rect x="602.2" y="555" class="st4" width="13.5" height="4.1"/>
		<rect x="630.3" y="533.9" class="st4" width="13.5" height="25.2"/>
		<rect x="657.7" y="516" class="st4" width="13.5" height="20.6"/>
		<rect x="683.8" y="448.4" class="st4" width="13.5" height="67.8"/>
		<rect x="710.6" y="494.9" class="st4" width="13.5" height="47.5"/>
		<rect x="737.8" y="479.5" class="st4" width="13.5" height="37.4"/>
		<rect x="765.3" y="414.7" class="st4" width="13.5" height="134"/>
		<rect x="792.5" y="437.7" class="st4" width="13.5" height="29.2"/>
		<path class="st4" d="M832.2,376.1h-13.5V409c1.9,1.4,3.9,2.4,6,3.2h7.5V376.1z"/>
		<path class="st4" d="M818.7,412.2h6c-2.1-0.8-4.1-1.8-6-3.2V412.2z"/>
		<rect x="846.9" y="306.1" class="st4" width="13.5" height="66.7"/>
		<rect x="874.4" y="316.3" class="st4" width="13.5" height="27.2"/>
		<rect x="900.3" y="242.6" class="st4" width="13.5" height="95.2"/>
		<rect x="927.5" y="257" class="st4" width="13.5" height="66"/>
		<rect x="954.5" y="245.5" class="st4" width="13.5" height="36.5"/>
		<rect x="981.8" y="206.5" class="st4" width="13.5" height="65.2"/>
		<path class="st4" d="M1009,254.8v38h0.4c4.3-3.1,8.7-6.1,13.1-9.2v-28.8H1009z"/>
		<path class="st4" d="M1022.5,292.8v-9.2c-4.4,3.1-8.8,6.1-13.1,9.2H1022.5z"/>
		<rect x="1036.7" y="277" class="st4" width="13.5" height="78.8"/>
		<rect x="1063" y="259.2" class="st4" width="13.5" height="54.4"/>
		<rect x="1090.6" y="276.8" class="st4" width="13.5" height="25.9"/>
		<rect x="1116.6" y="295.4" class="st4" width="13.5" height="46.2"/>
		<rect x="1144.6" y="315.9" class="st4" width="13.5" height="94.3"/>
		<rect x="1171.6" y="297.8" class="st4" width="13.5" height="47.3"/>
		<rect x="1198.9" y="289.6" class="st4" width="13.5" height="67.5"/>
		<rect x="1226.5" y="207.2" class="st4" width="12.6" height="111.3"/>
		<rect x="1253.5" y="242.5" class="st4" width="13.5" height="67.7"/>
		<rect x="1280.8" y="269.2" class="st4" width="13.5" height="67.7"/>
		<rect x="1306.8" y="238.8" class="st4" width="13.5" height="56.1"/>
		<rect x="1334.8" y="223.2" class="st4" width="13.5" height="88.1"/>
		<path class="st4" d="M1361.8,182.6v60.1h13.5v-58.9C1370.8,183.3,1366.3,182.9,1361.8,182.6z"/>
		<path class="st4" d="M1375.2,175.7h-13.5v6.9c4.5,0.3,9,0.7,13.5,1.1V175.7z"/>
		<rect x="1416.1" y="98.5" class="st4" width="13.5" height="85.6"/>
		<rect x="1442.7" y="29.9" class="st4" width="13.5" height="66.9"/>
		<rect x="1470.7" y="12.5" class="st4" width="13.5" height="66.9"/>
		<rect x="1389.4" y="154.3" class="st4" width="13.5" height="26.6"/>
		<rect x="521.4" y="536.1" class="st4" width="13.5" height="14.5"/>
		<rect x="1497.3" y="0" class="st4" width="13.5" height="39.1"/>
		<polygon class="st4" points="97.5,497.4 100.6,492 94.4,492 88.2,492 91.3,497.4 94.4,502.8 		"/>
		<polygon class="st4" points="368.3,359 371.4,353.7 374.5,348.3 368.3,348.3 362,348.3 365.1,353.7 		"/>
		<polygon class="st4" points="907.8,232.1 910.9,226.8 914,221.4 907.8,221.4 901.6,221.4 904.7,226.8 		"/>
		<polygon class="st4" points="799.2,471.5 796.1,476.9 793,482.3 799.2,482.3 805.4,482.3 802.3,476.9 		"/>
		<polygon class="st4" points="1343.5,320.3 1340.4,325.7 1337.3,331.1 1343.5,331.1 1349.8,331.1 1346.6,325.7 		"/>
		<polygon class="st4" points="1505,45.2 1501.9,50.6 1498.8,56 1505,56 1511.2,56 1508.1,50.6 		"/>
	</g>
	<linearGradient id="SVGID_3_" gradientUnits="userSpaceOnUse" x1="-967.1185" y1="389.5884" x2="-793.6147" y2="389.5884">
		<stop  offset="0" style="stop-color:#3A3C39"/>
		<stop  offset="0.3814" style="stop-color:#3A3C39"/>
		<stop  offset="1" style="stop-color:#3A3C39"/>
	</linearGradient>
	<circle class="st8" cx="-880.4" cy="389.6" r="86.8"/>
</g>
<g id="dark">
	<linearGradient id="SVGID_4_" gradientUnits="userSpaceOnUse" x1="1131.1285" y1="-108.7886" x2="709.5526" y2="386.3181">
		<stop  offset="0" style="stop-color:#6B6B6B"/>
		<stop  offset="0.558" style="stop-color:#484947"/>
		<stop  offset="1" style="stop-color:#3A3C39"/>
	</linearGradient>
	<rect x="0" y="0" class="st9" width="1600.9" height="559.1"/>
	<linearGradient id="SVGID_5_" gradientUnits="userSpaceOnUse" x1="1682.4082" y1="-51.2395" x2="68.3531" y2="429.8531">
		<stop  offset="0" style="stop-color:#6B6B6B"/>
		<stop  offset="0.558" style="stop-color:#484947"/>
		<stop  offset="1" style="stop-color:#3A3C39"/>
	</linearGradient>
	<path class="st10" d="M1600.2,423.5V0L0,0l0,409.1l319.8,107.5c79.4,26.7,163.8,35.6,247,26L1600.2,423.5z"/>
	<g class="st11">
		<g>
			<text transform="matrix(1 0 0 1 106.7068 504.3897)" class="st12 st5 st6">19.03</text>
			<text transform="matrix(1 0 0 1 380.5809 360.6085)" class="st12 st5 st6">19.03</text>
			<text transform="matrix(1 0 0 1 920.1229 233.7052)" class="st12 st5 st6">23.01</text>
			<text transform="matrix(1 0 0 1 811.5184 483.8712)" class="st12 st5 st6">22.80</text>
			<text transform="matrix(1 0 0 1 1355.8552 332.6651)" class="st12 st5 st6">23.26</text>
			<text transform="matrix(1 0 0 1 1517.3455 57.5294)" class="st12 st5 st6">30.01</text>
		</g>
		<g>
			<rect x="87.4" y="511.4" class="st12" width="13.5" height="47.5"/>
			<rect x="222.9" y="516.9" class="st12" width="13.5" height="42.1"/>
			<rect x="250.7" y="493.4" class="st12" width="13.5" height="38.8"/>
			<rect x="277.2" y="464.2" class="st12" width="13.5" height="47.1"/>
			<rect x="304.3" y="423.3" class="st12" width="13.5" height="67.1"/>
			<rect x="331.4" y="414.3" class="st12" width="13.5" height="15.8"/>
			<path class="st12" d="M358.2,373v77.6h13.5v-77.2c-0.3-0.1-0.5-0.3-0.8-0.4H358.2z"/>
			<path class="st12" d="M370.9,373c0.3,0.1,0.5,0.3,0.8,0.4V373H370.9z"/>
			<rect x="385.8" y="422.8" class="st12" width="13.5" height="48.2"/>
			<rect x="412.8" y="468.1" class="st12" width="13.5" height="47"/>
			<rect x="440.4" y="448" class="st12" width="13.5" height="68.6"/>
			<rect x="466.9" y="507.6" class="st12" width="13.5" height="51.4"/>
			<rect x="494.3" y="537.1" class="st12" width="13.5" height="22"/>
			<rect x="547.8" y="526.5" class="st12" width="13.5" height="32.6"/>
			<rect x="575.2" y="498.3" class="st12" width="13.5" height="60.8"/>
			<rect x="602.2" y="555" class="st12" width="13.5" height="4.1"/>
			<rect x="630.3" y="533.9" class="st12" width="13.5" height="25.2"/>
			<rect x="657.7" y="516" class="st12" width="13.5" height="20.6"/>
			<rect x="683.8" y="448.4" class="st12" width="13.5" height="67.8"/>
			<rect x="710.6" y="494.9" class="st12" width="13.5" height="47.5"/>
			<rect x="737.8" y="479.5" class="st12" width="13.5" height="37.4"/>
			<rect x="765.3" y="414.7" class="st12" width="13.5" height="134"/>
			<rect x="792.5" y="437.7" class="st12" width="13.5" height="29.2"/>
			<path class="st12" d="M832.2,376.1h-13.5V409c1.9,1.4,3.9,2.4,6,3.2h7.5V376.1z"/>
			<path class="st12" d="M818.7,412.2h6c-2.1-0.8-4.1-1.8-6-3.2V412.2z"/>
			<rect x="846.9" y="306.1" class="st12" width="13.5" height="66.7"/>
			<rect x="874.4" y="316.3" class="st12" width="13.5" height="27.2"/>
			<rect x="900.3" y="242.6" class="st12" width="13.5" height="95.2"/>
			<rect x="927.5" y="257" class="st12" width="13.5" height="66"/>
			<rect x="954.5" y="245.5" class="st12" width="13.5" height="36.5"/>
			<rect x="981.8" y="206.5" class="st12" width="13.5" height="65.2"/>
			<path class="st12" d="M1009,254.8v38h0.4c4.3-3.1,8.7-6.1,13.1-9.2v-28.8H1009z"/>
			<path class="st12" d="M1022.5,292.8v-9.2c-4.4,3.1-8.8,6.1-13.1,9.2H1022.5z"/>
			<rect x="1036.7" y="277" class="st12" width="13.5" height="78.8"/>
			<rect x="1063" y="259.2" class="st12" width="13.5" height="54.4"/>
			<rect x="1090.6" y="276.8" class="st12" width="13.5" height="25.9"/>
			<rect x="1116.6" y="295.4" class="st12" width="13.5" height="46.2"/>
			<rect x="1144.6" y="315.9" class="st12" width="13.5" height="94.3"/>
			<rect x="1171.6" y="297.8" class="st12" width="13.5" height="47.3"/>
			<rect x="1198.9" y="289.6" class="st12" width="13.5" height="67.5"/>
			<rect x="1226.5" y="207.2" class="st12" width="12.6" height="111.3"/>
			<rect x="1253.5" y="242.5" class="st12" width="13.5" height="67.7"/>
			<rect x="1280.8" y="269.2" class="st12" width="13.5" height="67.7"/>
			<rect x="1306.8" y="238.8" class="st12" width="13.5" height="56.1"/>
			<rect x="1334.8" y="223.2" class="st12" width="13.5" height="88.1"/>
			<path class="st12" d="M1361.8,182.6v60.1h13.5v-58.9C1370.8,183.3,1366.3,182.9,1361.8,182.6z"/>
			<path class="st12" d="M1375.2,175.7h-13.5v6.9c4.5,0.3,9,0.7,13.5,1.1V175.7z"/>
			<rect x="1416.1" y="98.5" class="st12" width="13.5" height="85.6"/>
			<rect x="1442.7" y="29.9" class="st12" width="13.5" height="66.9"/>
			<rect x="1470.7" y="12.5" class="st12" width="13.5" height="66.9"/>
			<rect x="1389.4" y="154.3" class="st12" width="13.5" height="26.6"/>
			<rect x="521.4" y="536.1" class="st12" width="13.5" height="14.5"/>
			<rect x="1497.3" y="0" class="st12" width="13.5" height="39.1"/>
			<polygon class="st12" points="97.5,497.4 100.6,492 94.4,492 88.2,492 91.3,497.4 94.4,502.8 			"/>
			<polygon class="st12" points="368.3,359 371.4,353.7 374.5,348.3 368.3,348.3 362,348.3 365.1,353.7 			"/>
			<polygon class="st12" points="907.8,232.1 910.9,226.8 914,221.4 907.8,221.4 901.6,221.4 904.7,226.8 			"/>
			<polygon class="st12" points="799.2,471.5 796.1,476.9 793,482.3 799.2,482.3 805.4,482.3 802.3,476.9 			"/>
			<polygon class="st12" points="1343.5,320.3 1340.4,325.7 1337.3,331.1 1343.5,331.1 1349.8,331.1 1346.6,325.7 			"/>
			<polygon class="st12" points="1505,45.2 1501.9,50.6 1498.8,56 1505,56 1511.2,56 1508.1,50.6 			"/>
		</g>
	</g>
</g>
</svg>
