<svg xmlns="http://www.w3.org/2000/svg" width="1440" height="856" viewBox="0 0 1440 856">
    <g fill="none" fill-rule="evenodd" stroke="#F2F4F7">
        <path d="M142.655 113L265 235.206 83 417M249 373L126 495.34 221.17 590M272 605l123-122.34L299.83 388M366.659 231h136.2M348.333 489H189.868M604.333 489H445.868M861.333 489H702.868M1117.333 489H958.868M1373.333 489h-158.465M93.333 489H-65.132M281.744 171h-52.558M604.333 171H445.868M861.333 171H702.868M1117.333 171H958.868M1373.333 171h-158.465M44.411 171h-109.55M135.333 329H-23.132M392.333 329H233.868M647.333 329H488.868M903.333 329H744.868M1159.333 329h-158.465M1415.333 329h-158.465M135.333 806H-23.132M392.333 806H233.868M647.333 806H488.868M903.333 806H744.868M1159.333 806h-158.465M1415.333 806h-158.465M223.333 647H64.868M478.333 647H319.868M734.333 647H575.868M991.333 647H832.868M1247.333 647h-158.465M1503.333 647h-158.465M294.667 159.667l70.911 70.911M501.34 250.66L366.42 385.58M394.264 416.264l45.3 45.3M447.663 374h173.314M327 52l77.522 77.522M350 106.667H200.301M587 106.667H437.301M122 45l-79.369 79.369M808 224L657 375l151-151zM525 203l64.78 64.78M754 257.667H624.645M520 440h165L584.707 540M856 216l152.924 152H1178M954 218l66.496 66.496M1067 216l-29.326 29.326M1487 101l-183.792 183H1254M853 424l112.917 113H1060"/>
        <path d="M764 447l100.444-100L955 437.155M677 612H538v124M103.77 547L5 644.9 107 746M281 651l-92.555 93H145M612.819 213c49.2-48.349 73.249-72.523 72.145-72.523-1.105 0-33.76-32.826-97.964-98.477M834 535l57.302 57H1041M832 85l91.685 91.685M703 124L836.05-9.05M915 38l87.88 88H1125M1289 35l-132 132.225L1237.638 248M1270 451.876L1328.123 394 1534 599M1294 646l-74.528 74h-124.2M1287.657 529.657l90.764 90.764M1349 685l115.388 115.388M1304 831l-107.584 107.584M-99 768L9 875.046-71.667 955M95.333 833v114.803M260 832l107.199 107.199M-104 25.493L-18.7 111 104-12M1157 562l57.428 57.428M114 138l-92 92.474L68.287 277M70.659 231h136.2M314 303l51-51M429.44 538L355 612h149M1084.183 413L1176 504.903 1071 610M706.643 535L795 623.201 681 737M-109 437v134H7M447 804V700H322M352 763H244.513L150 857M896.31 736L969 808.788 811 967M769 758l69.645-69H952M989 679l91.394 91.394M755 950l-97-97.012L704.983 806M600 828L491.257 936.743M386 833l89.81 89.81"/>
    </g>
</svg>
