<?xml version="1.0" encoding="UTF-8"?>
<svg width="48px" height="48px" viewBox="0 0 48 48" version="1.1" xmlns="http://www.w3.org/2000/svg" xmlns:xlink="http://www.w3.org/1999/xlink">
    <!-- Generator: Sketch 49.1 (51147) - http://www.bohemiancoding.com/sketch -->
    <title>ada</title>
    <desc>Created with Sketch.</desc>
    <defs></defs>
    <g id="48px" stroke="none" stroke-width="1" fill="none" fill-rule="evenodd">
        <g id="ada" fill-rule="nonzero">
            <circle id="Oval" fill="#3CC8C8" cx="24" cy="24" r="24"></circle>
            <path d="M23.5870785,9.08872767 C24.305954,8.71993373 25.1834802,9.57547727 24.8015312,10.2820754 C24.5797172,10.8580625 23.7386376,11.0112263 23.3090274,10.5721782 C22.8538551,10.1508153 23.0022809,9.31798673 23.5870785,9.08872767 Z M15.8549195,9.90873849 C16.2916212,9.73188614 16.8444248,10.1255043 16.7998969,10.5937574 C16.8462388,11.1020862 16.2144398,11.4762344 15.7693273,11.2346444 C15.1795823,11.0099283 15.2470335,10.0680679 15.8549195,9.90873849 Z M31.6912913,11.2489224 C31.0088625,11.1677974 30.9008415,10.1121998 31.557873,9.8996525 C32.0674683,9.65514195 32.5350095,10.1136601 32.6095523,10.5888899 C32.5026857,10.9946768 32.1573483,11.366229 31.6912913,11.2489224 Z M17.6142598,13.1464345 C18.3443497,12.6921349 19.386134,13.3687169 19.273825,14.2030057 C19.2358939,15.045407 18.0986226,15.5334546 17.4569284,14.9639575 C16.8365086,14.5166346 16.9305117,13.4904043 17.6142598,13.1464345 Z M28.7595522,13.6284789 C29.0852643,12.8026271 30.4050995,12.7776406 30.7758341,13.5815887 C31.1422809,14.2072242 30.6915612,14.9819673 30.0386526,15.1946769 C29.1738251,15.3535194 28.3523708,14.433725 28.7595522,13.6284789 Z M22.655954,15.1477866 C22.6488626,14.4379435 23.3060589,13.9090089 23.991786,13.8606584 C24.4466286,13.9503826 24.9423708,14.1410262 25.1374683,14.5925676 C25.5011114,15.2154449 25.1782029,16.0730976 24.5211714,16.3589818 C24.2206915,16.524639 23.8654593,16.4624973 23.5382628,16.4431896 C23.038068,16.2015995 22.6168686,15.7278299 22.655954,15.1477866 Z M11.1570784,16.1821295 C11.824005,15.7787763 12.7237951,16.514904 12.4713063,17.2276677 C12.3322808,17.8442172 11.489882,18.0950555 11.0083228,17.7014373 C10.4942748,17.3326433 10.5757441,16.4459478 11.1570784,16.1821295 Z M35.8493572,16.1808315 C36.4151893,15.7485978 37.3489525,16.2444335 37.2815011,16.9472999 C37.3194322,17.5881869 36.5121609,18.0715292 35.9504517,17.741513 C35.331846,17.4679598 35.2686826,16.5316157 35.8493572,16.1808315 Z M25.8896571,17.4569267 C26.8234203,17.1269105 27.9324907,17.5218267 28.4646797,18.3408639 C29.1667336,19.3421079 28.7931954,20.8669322 27.70375,21.4414589 C26.5748895,22.1209613 24.9265387,21.5449743 24.5096271,20.3047364 C24.0363138,19.1944605 24.7258341,17.8049526 25.8896571,17.4569267 Z M20.4110964,17.5661208 C21.445954,17.0855367 22.8386826,17.4887277 23.3385477,18.5302095 C23.9268085,19.5439467 23.4719659,20.9555205 22.4202868,21.4789386 C21.3672884,22.0672566 19.8817112,21.6212318 19.3721159,20.5328597 C18.8006766,19.4803448 19.3081279,18.0507612 20.4110964,17.5661208 Z M14.9254442,19.4112263 C15.0041098,18.7552502 15.6331055,18.3283707 16.267708,18.2842388 C16.9514562,18.3653637 17.4976632,18.8878083 17.572041,19.5686087 C17.5271834,20.2425947 16.9977981,20.9013291 16.2718311,20.8972728 C15.4731354,20.9649311 14.7728955,20.1832112 14.9254442,19.4112263 Z M31.1282628,18.4268564 C31.9482329,17.9573054 33.0868236,18.6408639 33.0503768,19.5676352 C33.1066137,20.5495713 31.8464787,21.2415671 31.029972,20.6655801 C30.1818011,20.1859695 30.2479331,18.8352393 31.1282628,18.4268564 Z M18.1815762,21.887646 C19.1405716,21.6280463 20.2371084,22.0727731 20.7074532,22.9399986 C21.2226557,23.8129029 21.0120559,25.0255584 20.211876,25.6657964 C19.1855942,26.6048986 17.2928355,26.2278299 16.7466286,24.9462181 C16.1189525,23.771367 16.8813663,22.1968943 18.1815762,21.887646 Z M28.5728655,21.8827785 C29.5051444,21.6204206 30.6003618,21.9739629 31.1015461,22.8095498 C31.7641848,23.7652014 31.447873,25.1905665 30.4613362,25.8066293 C29.427963,26.5219889 27.8272734,26.1463805 27.2586376,25.0278298 C26.5692823,23.8708262 27.2629255,22.235672 28.5728655,21.8827785 Z M12.0134952,22.9730976 C12.841876,22.6648229 13.7601369,23.5641738 13.4245297,24.3721782 C13.2195372,25.1083057 12.1650544,25.3803988 11.6203318,24.837673 C10.9829255,24.3280462 11.2189225,23.194082 12.0134952,22.9730976 Z M34.4670184,24.1456775 C34.4431054,23.4703935 34.9452793,22.8723405 35.6491474,22.8350229 C36.2164638,22.9234491 36.7681129,23.3736926 36.7232553,23.9813183 C36.7752043,24.7838061 35.7922957,25.3292901 35.0973333,24.9522214 C34.7716212,24.7893227 34.6045597,24.4606044 34.4670184,24.1456775 Z M7.94036178,23.3694739 C8.4387426,23.1554664 9.05520436,23.5803989 8.94141126,24.1249093 C8.91469462,24.7414589 7.98950721,24.9785059 7.64961216,24.4633626 C7.34929733,24.1056017 7.52905745,23.553952 7.94036178,23.3694739 Z M39.3642448,23.3571431 C39.7151893,23.1113345 40.2782178,23.2880245 40.4172433,23.6913777 C40.6530754,24.1318861 40.2206616,24.7354557 39.7166736,24.660983 C39.0091774,24.7244226 38.7802719,23.6636331 39.3642448,23.3571431 Z M20.8885327,26.3167428 C22.1999569,25.98121 23.6096721,27.0570889 23.6179181,28.3855908 C23.7035101,29.7280462 22.3150695,30.9184735 20.9726406,30.6084139 C19.9349795,30.4440549 19.1207815,29.4606585 19.1544247,28.4290738 C19.1516211,27.4424323 19.9084278,26.5253961 20.8885327,26.3167428 Z M26.0821159,26.3139846 C27.4131654,25.9479489 28.8649345,27.0431355 28.843825,28.4023026 C28.91408,29.7199338 27.5690124,30.8702853 26.2546197,30.6089007 C25.0177381,30.4515183 24.1050844,29.1145796 24.4504218,27.933725 C24.6247397,27.1468131 25.2929854,26.5068996 26.0821159,26.3139846 Z M16.0684876,27.1317239 C16.9895521,26.9770998 17.8530604,27.9880787 17.4795222,28.8484898 C17.2070784,29.7653637 15.8507965,30.0140928 15.2511564,29.2651473 C14.5477831,28.5458937 15.0728805,27.2310209 16.0684876,27.1317239 Z M31.2994473,27.1721241 C32.1207366,26.8336708 33.1288776,27.5326432 33.0657141,28.4096038 C33.0986976,29.3749905 31.854065,30.0407017 31.0509165,29.477208 C30.1412313,28.9713129 30.3068085,27.4825081 31.2994473,27.1721241 Z M35.5566287,31.3730976 C35.2350395,30.7833194 35.8191774,30.0015995 36.4847846,30.1107936 C36.8161039,30.1052772 37.047813,30.3621188 37.2598969,30.5775866 C37.3034352,30.9270728 37.3764937,31.3440549 37.0816212,31.6133897 C36.6812013,32.1119835 35.7741549,31.9696904 35.5566287,31.3730976 Z M11.1542748,30.2749905 C11.7763438,29.8675811 12.6715162,30.4752069 12.5316661,31.1907288 C12.4572883,31.8235032 11.6470484,32.1851582 11.1133753,31.8260993 C10.5406167,31.5001392 10.5617261,30.57207 11.1542748,30.2749905 Z M23.44393,31.5995984 C24.2582928,31.246056 25.2957891,31.9435682 25.2186076,32.8260452 C25.2789675,33.8011668 23.995744,34.4764508 23.1995221,33.890891 C22.3150695,33.3880787 22.4625057,31.9088466 23.44393,31.5995984 Z M17.751801,32.9060343 C18.4454442,32.5469754 19.3762389,33.1670943 19.3130754,33.9308045 C19.3341849,34.5579002 18.7121158,35.0923512 18.0831204,34.9997066 C17.562146,34.9886736 17.2224158,34.5291819 17.0553543,34.0922432 C17.06393,33.6160398 17.2631504,33.0856449 17.751801,32.9060343 Z M29.2818461,32.9170673 C29.9951144,32.4833735 31.0088625,33.1062507 30.9414113,33.9230164 C30.9597171,34.776613 29.814035,35.323395 29.1499121,34.7626596 C28.5068985,34.3231246 28.5853992,33.2665536 29.2818461,32.9170673 Z M31.2869135,37.7938115 C30.9696122,37.3215021 31.3431504,36.7524918 31.8583529,36.6447579 C32.2726257,36.7276677 32.7106467,37.0341576 32.6235702,37.5066293 C32.5632104,38.146056 31.6126257,38.3422161 31.2869135,37.7938115 Z M15.3705567,37.3836438 C15.4968835,37.0093333 15.8029705,36.6372945 16.2508864,36.7346443 C16.903795,36.7802365 17.0975731,37.7483815 16.5261339,38.046759 C16.0122508,38.387646 15.4160739,37.9208532 15.3705567,37.3836438 Z M23.0492823,37.8131193 C23.1742897,37.2593604 23.9028956,36.9900256 24.3831354,37.2841846 C24.7004367,37.418203 24.7931204,37.7675269 24.8745897,38.0644443 C24.8310515,38.2190683 24.792131,38.3738547 24.75387,38.5284789 C24.5572883,38.757738 24.3046347,38.9869969 23.9774382,38.9787222 C23.3693873,39.0488142 22.8208716,38.3725567 23.0492823,37.8131193 Z" id="Shape" fill="#FFFFFF"></path>
        </g>
    </g>
</svg>