<?xml version="1.0" encoding="UTF-8"?>
<svg width="48px" height="48px" viewBox="0 0 48 48" version="1.1" xmlns="http://www.w3.org/2000/svg" xmlns:xlink="http://www.w3.org/1999/xlink">
    <!-- Generator: Sketch 49.1 (51147) - http://www.bohemiancoding.com/sketch -->
    <title>ae</title>
    <desc>Created with Sketch.</desc>
    <defs></defs>
    <g id="48px" stroke="none" stroke-width="1" fill="none" fill-rule="evenodd">
        <g id="ae" fill-rule="nonzero">
            <circle id="Oval" fill="#DE3F6B" cx="24" cy="24" r="24"></circle>
            <path d="M14.628,16.5 L15.9843,16.5 C18.1029,16.7010639 20.0631,17.7319149 21.5151,19.2159575 C24.528,22.2734043 26.1846,26.5882979 30.0192,28.8638298 C32.7912,30.5106382 36.6687,29.1638298 38.0316,26.3840426 C38.7246,26.3712766 39.4209,26.3712766 40.1139,26.3744681 C39.1602,29.1989361 36.3816,31.2287233 33.3423,31.5 L32.2236,31.5 C30.3525,31.35 28.5342,30.6542553 27.1185,29.4510639 C25.0626,27.7659575 23.7426,25.4553192 22.1454,23.3968085 C20.7726,21.5776596 19.3701,19.5319149 17.0964,18.7053192 C14.2881,17.6872341 10.8561,19.2797872 9.8331,21.9861702 C8.9322,24.2138298 9.6648,26.9776596 11.6778,28.4042553 C13.1859,29.5340425 15.288,29.9553192 17.0997,29.2978723 C19.1127,28.5957447 20.6076,27 21.7527,25.3085106 C22.2048,25.9340426 22.6437,26.569149 23.0793,27.2074469 C21.2973,29.3776596 18.8256,31.2414894 15.8853,31.5 L14.6808,31.5 C10.9749,31.2510639 7.7541,28.206383 7.5,24.6095745 L7.5,23.4319149 C7.7409,19.8414894 10.9188,16.7617022 14.628,16.5 Z M32.1477,16.5 L33.273,16.5 C37.0119,16.7361702 40.1931,19.8414894 40.5,23.4382979 L40.5,25.2829786 C37.4145,25.3117022 34.3257,25.2925531 31.2402,25.2957447 C31.2435,24.756383 31.2435,24.2202127 31.2402,23.680851 C33.6789,23.674468 36.1143,23.6904255 38.5497,23.674468 C38.3781,22.7202128 38.1537,21.743617 37.5696,20.9361702 C36.144,18.8297873 33.1311,17.9680851 30.7221,18.880851 C28.8015,19.5702127 27.3561,21.0797873 26.2407,22.6914894 C25.8117,22.0946808 25.386,21.4914894 24.9735,20.8819149 C26.7324,18.6797873 29.1876,16.774468 32.1477,16.5 Z" id="Shape" fill="#FFFFFF"></path>
        </g>
    </g>
</svg>