<?xml version="1.0" encoding="UTF-8"?>
<svg width="48px" height="48px" viewBox="0 0 48 48" version="1.1" xmlns="http://www.w3.org/2000/svg" xmlns:xlink="http://www.w3.org/1999/xlink">
    <!-- Generator: Sketch 49.1 (51147) - http://www.bohemiancoding.com/sketch -->
    <title>aion</title>
    <desc>Created with Sketch.</desc>
    <defs></defs>
    <g id="48px" stroke="none" stroke-width="1" fill="none" fill-rule="evenodd">
        <g id="aion" fill-rule="nonzero">
            <circle id="Oval" fill="#00BFEC" cx="24" cy="24" r="24"></circle>
            <g id="Group" transform="translate(7.500000, 7.500000)" fill="#FFFFFF">
                <path d="M16.4569108,27.2252088 C10.5217452,27.2252088 5.69281528,22.4270506 5.69281528,16.5296583 C5.69281528,10.6318481 10.5217452,5.83389873 16.4569108,5.83389873 C22.3922866,5.83389873 27.2210064,10.632057 27.2210064,16.5296583 C27.2210064,22.4270506 22.3922866,27.2252088 16.4569108,27.2252088 Z M16.4569108,7.92918987 C11.6843121,7.92918987 7.80145222,11.7872658 7.80145222,16.5294494 C7.80145222,21.2720506 11.6843121,25.1297088 16.4569108,25.1297088 C21.2295096,25.1297088 25.1123694,21.2718417 25.1123694,16.5294494 C25.1123694,11.7872658 21.2295096,7.92918987 16.4569108,7.92918987 Z M23.9939427,4.30670886 C21.7324968,2.92634809 19.1263375,2.19679747 16.4569108,2.19679747 C14.005242,2.19679747 11.5848917,2.81857595 9.45691719,3.99446202 L8.43181528,2.16337974 C10.872344,0.814139241 13.6474968,0.101088608 16.4569108,0.101088608 C19.5156114,0.101088608 22.5041083,0.937784809 25.0982866,2.52094936 L23.9939427,4.30670886 Z M27.1362993,29.0709114 L25.7734204,27.4716645 C29.0191911,24.7399747 30.8808536,20.7521963 30.8808536,16.5294494 L32.9899109,16.5294494 C32.9897007,21.3689621 30.8562612,25.9396708 27.1362993,29.0709114 Z M16.4569108,32.9573923 C12.6213439,32.9573923 8.88372612,31.6227721 5.93201274,29.1995696 L7.27576432,27.5844493 C9.85018472,29.6983292 13.110879,30.8623101 16.4569108,30.8623101 C18.796758,30.8623101 21.0279363,30.3232406 23.0892802,29.2607658 L24.0601528,31.1210886 C21.7297644,32.3226645 19.1000637,32.9573923 16.4569108,32.9573923 Z" id="Shape"></path>
                <path d="M30.5258407,12.6379557 C29.9715669,10.6541962 29.0145669,8.84212026 27.6811146,7.25164557 L29.0315923,6.13382278 C30.5254204,7.91582278 31.5978153,9.94699367 32.2189299,12.1711519 L30.5258407,12.6379557 Z M2.79070701,25.4647215 C1.0301465,22.8107278 0.0998407644,19.7210506 0.0998407644,16.5294494 C0.0998407644,12.0863544 1.87007007,7.9375443 5.0843121,4.84682278 L6.30657325,6.10228481 C3.43746496,8.8605 1.85703822,12.5633924 1.85703822,16.5294494 C1.85703822,19.3778923 2.68729299,22.1356899 4.25805096,24.5033355 L2.79070701,25.4647215 Z" id="Shape" opacity="0.5"></path>
            </g>
        </g>
    </g>
</svg>