<?xml version="1.0" encoding="UTF-8"?>
<svg width="48px" height="48px" viewBox="0 0 48 48" version="1.1" xmlns="http://www.w3.org/2000/svg" xmlns:xlink="http://www.w3.org/1999/xlink">
    <!-- Generator: Sketch 49.1 (51147) - http://www.bohemiancoding.com/sketch -->
    <title>amp</title>
    <desc>Created with Sketch.</desc>
    <defs></defs>
    <g id="48px" stroke="none" stroke-width="1" fill="none" fill-rule="evenodd">
        <g id="amp" fill-rule="nonzero">
            <circle id="Oval" fill="#2DAEE4" cx="24" cy="24" r="24"></circle>
            <path d="M12.4548314,17.9354426 L12.6184634,17.9354426 C14.064377,17.9081109 15.3193298,17.3624177 16.3833216,16.2984051 C17.4200273,15.1796869 17.9383374,13.8972778 17.9383374,12.451263 C17.9383374,11.7145471 18.2043354,11.0802501 18.7363312,10.5482012 C19.2683699,10.0161523 19.9163748,9.75 20.6803037,9.75 C21.4167756,9.75 22.0510097,10.0161523 22.5830055,10.5482012 C23.1150441,11.0802501 23.3811273,11.7145471 23.3811273,12.451263 C23.3811273,13.1878082 23.1288152,13.8222332 22.6239775,14.3542821 C22.1193104,14.8863309 21.5123627,15.1659999 20.8029638,15.1932035 C19.2479478,15.1387108 17.9111792,15.6707598 16.7925296,16.7893928 C15.6740079,17.9081109 15.1420119,19.2176811 15.1965417,20.7183591 C15.2511569,22.2737001 15.8104816,23.5696259 16.8743456,24.606392 C18.0476102,25.6432008 19.3570502,26.148046 20.8029638,26.120757 C21.5123627,26.148046 22.1193104,26.4276295 22.6239775,26.9596785 C23.1288152,27.4917273 23.3811273,28.1125078 23.3811273,28.8218495 C23.3811273,29.5858542 23.1150441,30.2338385 22.5830055,30.7658872 C22.0510097,31.2979362 21.4167756,31.5639606 20.6803037,31.5639606 C19.9163748,31.5639606 19.2683699,31.2979362 18.7363312,30.7658872 C18.2043354,30.2338385 17.9383374,29.5858542 17.9383374,28.8218495 C17.9383374,27.3485031 17.4200273,26.0934255 16.3833216,25.0566167 C15.346616,23.992519 14.0916632,23.4331386 12.6184634,23.378646 C12.1001106,23.4059775 11.6568375,23.3240255 11.2886015,23.1330456 C10.9201097,22.9420657 10.6200039,22.6760413 10.3882416,22.3349724 C10.1563088,21.9939886 9.99267678,21.6119436 9.89717502,21.1890504 C9.801588,20.7661147 9.78116598,20.3500864 9.83569577,19.9408377 C10.1903739,18.603936 11.0633196,17.9354426 12.4548314,17.9354426 Z M12.4919236,26.121354 C13.2012373,26.121354 13.8218281,26.3805988 14.353824,26.8991311 C14.88582,27.4174077 15.1654611,28.0314085 15.1927899,28.7407502 C15.1654611,30.2414281 15.6838138,31.551041 16.7476779,32.6697592 C17.8117124,33.7610605 19.0940791,34.3067538 20.59448,34.3067538 L20.676296,34.3067538 L20.7172678,34.3067538 C22.1903825,34.3067538 23.4589783,33.7610605 24.5229702,32.6697592 C25.6142908,31.5783299 26.1462868,30.2687596 26.1189579,28.7407502 C26.0916717,27.2400723 25.5324748,25.9713503 24.441282,24.9345414 C23.3644572,23.9103537 22.1108261,23.3915657 20.6803036,23.378646 L20.652719,23.3783901 L20.6445332,23.3783901 C20.6007898,23.378177 20.5569188,23.3785181 20.512664,23.3793708 C19.8033929,23.3520393 19.1963172,23.0723705 18.6916502,22.5404494 C18.1869404,22.0084006 17.9345856,21.3739756 17.9345856,20.6372598 C17.9345856,19.9005865 18.2004982,19.2661615 18.7324943,18.7341128 C19.18374,18.2827794 19.7184219,18.0230655 20.3364546,17.9545448 C20.3956743,17.9464434 20.4557466,17.9401328 20.5165437,17.9354426 L20.5856546,17.9374892 C20.6158826,17.9366364 20.6459826,17.9361673 20.676296,17.9361673 C20.7181206,17.9361673 20.7596895,17.9370201 20.8007893,17.938683 C22.2090992,17.9211585 23.4373625,17.3879157 24.4860059,16.3392532 C25.6044849,15.2205351 26.1501666,13.8972778 26.1229656,12.3693962 C26.1229656,11.7692103 26.3274417,11.2233464 26.7366497,10.7322736 L26.7776216,10.6912975 L26.8185936,10.6504494 C26.8185936,10.6231178 26.8322793,10.6094734 26.8594375,10.6094734 L26.9004096,10.5686253 L26.9004096,10.5277771 L26.9412537,10.5277771 L26.9412537,10.4866732 C26.9685825,10.4866732 26.9823535,10.4731566 26.9823535,10.4458251 L27.0231975,10.404849 L27.0640416,10.404849 L27.1050135,10.404849 C27.1050135,10.3776454 27.1186994,10.3640009 27.1458576,10.3640009 L27.1868295,10.3230249 L27.1868295,10.2820489 L27.2278016,10.2820489 L27.2686456,10.2820489 C27.2686456,10.2547173 27.2824593,10.2412007 27.3096176,10.2412007 L27.3505895,10.2002247 L27.3914335,10.1592487 L27.4324055,10.1592487 C27.4324055,10.132045 27.4459633,10.1184006 27.4732922,10.1184006 C27.5005784,10.1184006 27.5143494,10.1047561 27.5143494,10.0774245 L27.5551935,10.0774245 L27.5960802,10.0365764 L27.6370095,10.0365764 L27.6778962,10.0365764 L27.6778962,9.99572829 L27.7188681,9.99572829 L27.7597974,9.95462433 L27.8006841,9.95462433 L27.8416562,9.95462433 L27.8416562,9.91377622 L27.8825855,9.91377622 L27.9234722,9.91377622 L27.9644441,9.87280019 L28.0052882,9.87280019 L28.0462601,9.87280019 L28.0872321,9.83195206 L28.1280761,9.83195206 L28.1690481,9.83195206 L28.2098921,9.83195206 L28.2508641,9.79097604 L28.291836,9.79097604 L28.3326801,9.79097604 L28.373652,9.79097604 C28.4009382,9.79097604 28.4146241,9.77733157 28.4146241,9.75 L28.455468,9.75 L28.4964401,9.75 L28.537284,9.75 L28.5782561,9.75 L28.619228,9.75 L28.6600721,9.75 L28.701044,9.75 L28.7418881,9.75 L28.78286,9.75 L28.823832,9.75 L28.864676,9.75 L28.905648,9.75 L28.987464,9.75 L29.06928,9.75 L29.151224,9.75 L29.1920679,9.75 L29.2738839,9.75 C29.2738839,9.75 29.2807482,9.75690751 29.294306,9.77042406 C29.308077,9.78419645 29.3284991,9.79097604 29.3558279,9.79097604 L29.396672,9.79097604 L29.4376439,9.79097604 C29.4376439,9.79097604 29.4444228,9.79775563 29.4580659,9.811528 C29.471709,9.82504456 29.4921311,9.83195206 29.5194599,9.83195206 L29.6012759,9.83195206 L29.6422479,9.87280019 L29.7240639,9.87280019 L29.7650358,9.91377622 L29.846724,9.91377622 C29.8740528,9.94110778 29.901339,9.95462433 29.9286678,9.95462433 L29.9696399,9.99572829 L30.0514559,9.99572829 L30.0514559,10.0365764 L30.0924278,10.0365764 L30.1332718,10.0774245 C30.1332718,10.0774245 30.1401786,10.084332 30.1536939,10.0979765 C30.1674649,10.111621 30.1878869,10.1184006 30.2152158,10.1184006 L30.2560598,10.1592487 L30.2970318,10.1592487 C30.2970318,10.1865802 30.3243606,10.2002247 30.3787199,10.2002247 L30.4198197,10.2412007 L30.4198197,10.2820489 L30.4606638,10.2820489 C30.4606638,10.3093804 30.4879926,10.3230249 30.5424798,10.3230249 C30.5424798,10.3503565 30.5561655,10.3640009 30.5834517,10.3640009 L30.5834517,10.404849 L30.6244238,10.404849 L30.6652677,10.4458251 C30.6925967,10.4731566 30.7198829,10.4866732 30.7470839,10.4866732 L30.7880558,10.5277771 C30.7880558,10.5549808 30.8017414,10.5686253 30.8290277,10.5686253 L30.8290277,10.6094734 L30.8698718,10.6094734 C30.8698718,10.636805 30.8767787,10.657229 30.8902938,10.6708735 C30.9040649,10.6845179 30.9107159,10.6912975 30.9107159,10.6912975 C30.9107159,10.7186291 30.9245295,10.7322736 30.9518157,10.7322736 L30.9926597,10.7732496 C30.9926597,10.8005812 30.9995666,10.8210052 31.0130817,10.8345218 C31.0267676,10.8482942 31.0336317,10.8550737 31.0336317,10.8550737 L31.0744758,10.8960498 L31.1153198,10.9368979 L31.1153198,11.0187221 L31.1564196,11.0596981 L31.1564196,11.1006741 L31.1972637,11.1006741 C31.1972637,11.1280057 31.2041706,11.1484298 31.2176858,11.1620742 C31.2313714,11.1756334 31.2381078,11.1824983 31.2381078,11.1824983 C31.2381078,11.2098298 31.2519214,11.2233464 31.2790797,11.2233464 L31.2790797,11.2643224 C31.2790797,11.2915261 31.2859866,11.312206 31.2996297,11.3257225 C31.3131874,11.3394096 31.3200516,11.3461466 31.3200516,11.3461466 L31.3610237,11.3871226 C31.3610237,11.4416578 31.3745814,11.4689468 31.4018678,11.4689468 L31.4018678,11.5099228 C31.4018678,11.5372544 31.4087745,11.5576784 31.4222897,11.571195 C31.4361033,11.58501 31.4427117,11.591747 31.4427117,11.591747 L31.4427117,11.6735711 L31.4838116,11.7145471 L31.4838116,11.7963713 L31.4838116,11.8373473 C31.5110126,11.8646789 31.5246557,11.8918825 31.5246557,11.9191715 L31.5246557,12.0009956 L31.5246557,12.0419717 C31.5519845,12.0693032 31.5656276,12.0966348 31.5656276,12.1237958 L31.5656276,12.1647718 L31.5656276,12.246596 L31.5656276,12.3284628 L31.5656276,12.4102869 L31.5656276,12.451263 C31.5656276,13.8972778 32.0839804,15.1796869 33.1206861,16.2984051 C34.1846779,17.3624177 35.4532739,17.9081109 36.9265162,17.9354426 C37.6631161,17.9081109 38.3177721,18.1604909 38.89074,18.6925398 C39.4635799,19.2245886 39.75,19.8725729 39.75,20.6365349 C39.75,21.4004118 39.4841299,22.0483959 38.952134,22.5804448 C38.4201381,23.1124936 37.785904,23.378646 37.0491763,23.378646 C36.3125764,23.378646 35.6782998,23.126266 35.1463038,22.6215487 C34.614308,22.1166609 34.3346668,21.495923 34.307338,20.7592498 C34.3346668,19.2586572 33.7891131,17.9354426 32.6705061,16.7893928 C31.5791855,15.6980913 30.2560598,15.1659999 28.701044,15.1932035 C27.2278016,15.2478666 25.9727636,15.8072045 24.9360579,16.8713448 C23.8993522,17.9081109 23.3811273,19.1630605 23.3811273,20.6365349 C23.3811273,20.6792164 23.3803173,20.7213864 23.3786118,20.763471 C23.4081152,22.1580207 23.9258285,23.3983452 24.9323061,24.4843167 C25.9962979,25.5484571 27.2649363,26.0942783 28.7381363,26.121354 C29.7201842,26.0669468 30.4704697,26.421575 30.9888226,27.1854518 C31.5071328,27.922125 31.6708928,28.699902 31.4798466,29.5182715 C31.0979249,30.8825048 30.2248938,31.5646854 28.8607962,31.5646854 L28.7381363,31.5646854 C27.2102787,31.619178 25.9416828,32.1785584 24.9323061,33.2426562 C23.8956431,34.2794649 23.3772902,35.548187 23.3772902,37.0488649 C23.3772902,37.7855382 23.1112923,38.4199632 22.5792963,38.952012 C22.0472577,39.4841036 21.4128958,39.75 20.676296,39.75 L20.59448,39.75 C19.8578801,39.75 19.2304249,39.4841036 18.7120722,38.952012 C18.1937193,38.4199632 17.9345856,37.7855382 17.9345856,37.0488649 C17.9345856,35.548187 17.4161475,34.2794649 16.3794418,33.2426562 C15.3427788,32.1785584 14.0878261,31.619178 12.6145836,31.5646854 C11.8234966,31.5918891 11.1482906,31.3395092 10.5889659,30.8074602 C10.0296411,30.2754114 9.75,29.6139107 9.75,28.8225744 C9.75,28.0859012 10.015998,27.4516041 10.5479939,26.9195551 C11.0799898,26.3875064 11.7279948,26.121354 12.4919236,26.121354 Z" id="Shape" fill="#FFFFFF"></path>
        </g>
    </g>
</svg>