<?xml version="1.0" encoding="UTF-8"?>
<svg width="48px" height="48px" viewBox="0 0 48 48" version="1.1" xmlns="http://www.w3.org/2000/svg" xmlns:xlink="http://www.w3.org/1999/xlink">
    <!-- Generator: Sketch 49.1 (51147) - http://www.bohemiancoding.com/sketch -->
    <title>ant</title>
    <desc>Created with Sketch.</desc>
    <defs></defs>
    <g id="48px" stroke="none" stroke-width="1" fill="none" fill-rule="evenodd">
        <g id="ant" fill-rule="nonzero">
            <circle id="Oval" fill="#2CD3E1" cx="24" cy="24" r="24"></circle>
            <path d="M11.9469749,26.3962903 C11.937846,26.2437825 11.9330544,26.0859004 11.9330544,25.922008 C11.9330544,20.646723 16.0450623,16.3573776 21.1901865,16.1744197 C21.312933,16.1744197 21.4459085,16.1744197 21.568655,16.1845841 L20.3411898,14.964865 C20.3411898,14.964865 25.2817366,14.1415546 31.6236393,17.9531768 C31.6236393,17.9531768 31.7156993,18.1462989 31.6236393,18.7155012 C31.6236393,18.7155012 34.6104709,19.9962061 34.8661929,22.486466 C35.1219147,24.9767257 33.536439,26.3997314 32.2578297,26.603018 C32.2578297,26.603018 32.9227065,25.5764209 31.899819,25.0275474 C31.6850126,24.9055755 31.4292907,24.8547539 31.1735688,24.8649181 C29.2198536,24.8649181 28.9948184,27.0807413 28.9948184,27.0807413 C28.9743606,27.1925488 28.9743606,27.3043563 28.9743606,27.4161639 C28.9743606,27.4161639 28.6899274,30.233714 33.3576506,30.5664687 C34.3893408,29.2448157 35.3235103,27.7718385 36.1485461,26.1642045 C37.0114732,24.4805036 37.700178,22.7534469 38.233422,21.0542317 C38.5544693,20.031195 38.7806208,19.147419 38.927767,18.446038 C36.2091405,16.2159138 33.0008721,14.3049191 29.5517898,12.7045047 C28.2603297,12.1052521 27.0067988,11.5837792 25.8216086,11.1375026 C25.0886134,10.8614974 24.4899571,10.6537539 23.9924049,10.4927794 C23.5087389,10.648243 22.8948978,10.8608658 22.159812,11.1375255 C20.9759952,11.5830714 19.7219727,12.1048312 18.4302333,12.7044758 C14.9843359,14.3041125 11.7767952,16.215636 9.05748209,18.446485 C9.20423388,19.1555119 9.42814364,20.0387262 9.74869754,21.0649029 C10.2801551,22.7662372 10.9696153,24.4959499 11.8372506,26.1845331 C11.8736099,26.2553816 11.910185,26.3259677 11.9469749,26.3962903 Z M40.5,17.8526678 L40.4255617,18.271823 C40.3858272,18.5977817 40.1203722,19.7648624 39.7929885,20.8823382 C39.2225016,22.8296105 38.4474597,24.8421686 37.4401599,26.807985 C36.0816286,29.456376 34.4307995,31.7675107 32.5381999,33.6688331 C30.2017924,36.0112259 27.499961,37.7403189 24.487084,38.8176874 L24.3192896,38.8765353 L23.9997925,39 L23.6828325,38.8888377 L23.506575,38.8270135 C20.4873034,37.7473503 17.7769329,36.0144732 15.4567533,33.6779184 C13.555199,31.7572175 11.9074358,29.4529699 10.5556124,26.8176547 C9.54929275,24.8492467 8.77702853,22.8387405 8.20681148,20.8884809 C8.00681335,20.2044461 7.84623015,19.5761674 7.7203464,19.0131647 C7.64494158,18.6759239 7.56257507,18.256572 7.57754092,18.3160577 L7.5,17.8852116 L7.67950246,17.7342834 L7.81229191,17.6226322 C10.5781078,15.2942856 13.8499132,13.2968523 17.3824551,11.6186391 C19.7359199,10.500573 21.8874381,9.67037706 23.5122121,9.14924698 L23.9901046,9 L24.3150457,9.09686714 L24.4765928,9.15019913 C26.0983586,9.67037706 28.249877,10.500573 30.6033416,11.6186391 C34.1303748,13.2942352 37.3974842,15.2880567 40.160562,17.6117421 L40.5,17.8526678 Z M29.0971071,18.9391164 C29.1789381,18.898459 29.4448889,18.7663228 29.7517551,18.4512287 C30.3654877,18.5325434 30.9689913,18.7256655 30.9689913,18.7256655 C29.8540439,18.0548201 28.3299416,17.6584113 26.6421771,17.6685756 C26.6421771,17.6685756 27.2865962,18.583365 29.0766494,18.959445 C29.0766494,18.959445 29.0868783,18.9492807 29.0971071,18.9391164 Z" id="Shape" fill="#FFFFFF"></path>
        </g>
    </g>
</svg>