<?xml version="1.0" encoding="UTF-8"?>
<svg width="48px" height="48px" viewBox="0 0 48 48" version="1.1" xmlns="http://www.w3.org/2000/svg" xmlns:xlink="http://www.w3.org/1999/xlink">
    <!-- Generator: Sketch 49.1 (51147) - http://www.bohemiancoding.com/sketch -->
    <title>atm</title>
    <desc>Created with Sketch.</desc>
    <defs></defs>
    <g id="48px" stroke="none" stroke-width="1" fill="none" fill-rule="evenodd">
        <g id="atm" fill-rule="nonzero">
            <circle id="Oval" fill="#346FCE" cx="24" cy="24" r="24"></circle>
            <path d="M27.4220929,30.5399549 L27.4220929,33.5927925 C27.4220929,37.2120203 24.4881292,40.145984 20.8689014,40.145984 L20.6582112,40.145984 C17.0389835,40.145984 14.1050198,37.2120203 14.1050198,33.5927925 L14.1050198,23.2949201 C14.1050198,19.7999521 16.8409773,16.9440012 20.2879466,16.7520131 L20.2879466,13.6991756 C20.2879466,10.0799478 23.2219103,7.14598409 26.8411381,7.14598409 L27.0518282,7.14598409 C30.671056,7.14598409 33.6050197,10.0799478 33.6050197,13.6991756 L33.6050197,23.9970479 C33.6050197,27.492016 30.8690622,30.3479669 27.4220929,30.5399549 Z M27.4220929,30.5399549 L27.4220929,23.2949201 C27.4220929,19.6756925 24.4881292,16.7417287 20.8689014,16.7417287 L20.6582112,16.7417287 C20.5339516,16.7417287 20.4104997,16.7451872 20.2879466,16.7520131 L20.2879466,23.9970479 C20.2879466,27.6162755 23.2219103,30.5502393 26.8411381,30.5502393 L27.0518282,30.5502393 C27.1760879,30.5502393 27.2995398,30.5467808 27.4220929,30.5399549 Z" id="Shape" fill="#FFFFFF" transform="translate(23.855020, 23.645984) rotate(-28.000000) translate(-23.855020, -23.645984) "></path>
        </g>
    </g>
</svg>