<?xml version="1.0" encoding="UTF-8"?>
<svg width="48px" height="48px" viewBox="0 0 48 48" version="1.1" xmlns="http://www.w3.org/2000/svg" xmlns:xlink="http://www.w3.org/1999/xlink">
    <!-- Generator: Sketch 49.1 (51147) - http://www.bohemiancoding.com/sketch -->
    <title>bay</title>
    <desc>Created with Sketch.</desc>
    <defs></defs>
    <g id="48px" stroke="none" stroke-width="1" fill="none" fill-rule="evenodd">
        <g id="bay" fill-rule="nonzero">
            <circle id="Oval" fill="#6356AB" cx="24" cy="24" r="24"></circle>
            <path d="M34.1763847,23.9617208 C34.2629924,23.8632884 34.3604261,23.764856 34.4578598,23.6664236 C34.7718128,23.3273789 35.1182437,22.9664601 35.4430226,22.6164783 C36.7529644,21.2384251 37.4783039,19.4447685 37.4783039,17.5636165 C37.4783039,17.4323733 37.4999558,16.8964638 37.4999558,16.8199052 C37.3483924,12.5107547 33.7216942,9 29.4346122,9 L15.9346343,9 L15.9346343,14.4465913 L10.5,14.4465913 L10.5,39 L29.6511315,39 C33.9057356,39 37.4999558,35.215822 37.4999558,30.7316806 C37.5107819,27.52716 35.5296304,25.2632154 34.1763847,23.9617207 Z M18.6411254,17.1808239 L29.3913083,17.1917609 L22.6359063,24.0382793 L29.3155266,30.8191761 L18.6411254,30.8191761 L18.6411254,17.1808239 Z M29.6511315,36.2548305 L13.2064912,36.2548305 L13.2064912,17.1698869 L15.9346342,17.1698869 L15.9346342,33.5424717 L29.3155266,33.5424717 C30.419775,33.5424717 31.4049378,32.875319 31.8271503,31.8472476 C32.2493629,30.8191761 32.0220177,29.6489245 31.2425482,28.8614655 L26.4682978,24.0273423 L31.31833,19.1166606 C32.0977995,18.3292016 32.3251447,17.15895 31.9029321,16.1308786 C31.4807194,15.1028072 30.4955566,14.4356544 29.3913082,14.4356544 L18.6519514,14.4356544 L18.6519514,11.7232957 L29.4454381,11.7232957 C32.3034928,11.7232957 34.7068569,14.0528618 34.8042906,16.8855269 C34.8042906,17.005833 34.7826387,17.4761211 34.7826387,17.4870579 L34.7826387,17.5417426 C34.7826387,19.1385345 33.9815173,20.2212906 33.4943488,20.7243894 C33.158744,21.0743712 32.8123131,21.4462268 32.4983601,21.7743346 C31.9678879,22.332118 31.5131973,22.8133431 31.2966781,23.0320816 L30.3223413,23.9945316 L31.285852,24.9679183 C31.4157637,25.0991614 31.5781531,25.2522786 31.7730205,25.4382063 C32.8989208,26.4881517 34.7934646,28.2380605 34.7934646,30.7098067 C34.8042906,33.662778 32.4009264,36.2548305 29.6511315,36.2548305 Z" id="Shape" fill="#FFFFFF"></path>
        </g>
    </g>
</svg>