<?xml version="1.0" encoding="UTF-8"?>
<svg width="48px" height="48px" viewBox="0 0 48 48" version="1.1" xmlns="http://www.w3.org/2000/svg" xmlns:xlink="http://www.w3.org/1999/xlink">
    <!-- Generator: Sketch 49.1 (51147) - http://www.bohemiancoding.com/sketch -->
    <title>bcc</title>
    <desc>Created with Sketch.</desc>
    <defs></defs>
    <g id="48px" stroke="none" stroke-width="1" fill="none" fill-rule="evenodd">
        <g id="bcc" fill-rule="nonzero">
            <circle id="Oval" fill="#F7931C" cx="24" cy="24" r="24"></circle>
            <path d="M11.02656,28.9812 C11.01384,24.46152 14.19648,20.66976 18.7476,19.81704 C19.13712,19.74504 19.24728,19.61448 19.23768,19.23312 C19.21224,18.21912 19.21368,17.20392 19.23768,16.18992 C19.2456,15.8244 19.1292,15.60768 18.81576,15.4032 C17.7228,14.6904 17.27616,13.3956 17.67576,12.22992 C18.09792,10.99824 19.21776,10.2324 20.50776,10.29336 C21.66432,10.34808 22.72008,11.20752 23.03256,12.34872 C23.34648,13.49544 22.9092,14.74248 21.89232,15.38808 C21.53232,15.61608 21.42072,15.84672 21.43272,16.25376 C21.46296,17.26728 21.45096,18.28272 21.43728,19.29696 C21.4332,19.59144 21.47688,19.74912 21.82608,19.79448 C22.4906923,19.8818168 23.1400879,20.0603784 23.75592,20.32512 C23.98704,20.424 24.11112,20.36328 24.26568,20.19312 C26.41864,17.8211201 28.57768,15.45464 30.7428,13.09368 C30.966,12.85104 30.90144,12.68352 30.7992,12.43224 C30.2712,11.13096 30.58008,9.72624 31.5768,8.79648 C32.48496,7.94904 33.9888,7.70712 35.07432,8.23344 C36.3528,8.85336 37.05456,10.0404 36.9672,11.43528 C36.85008,13.30272 35.03616,14.70792 33.19392,14.32488 C32.82072,14.24736 32.60328,14.3376 32.36184,14.60448 C30.35832,16.81904 28.3464,19.026 26.32608,21.22536 C26.08224,21.4908 26.0472,21.63336 26.35224,21.89736 C29.65728,24.77976 30.55752,29.12472 28.67424,33.08136 C28.53192,33.3804 28.56336,33.55248 28.7928,33.77088 C29.3448,34.29456 29.8776,34.83648 30.4056,35.3832 C30.6156,35.60064 30.81168,35.65848 31.1232,35.57976 C32.33952,35.2728 33.59808,35.81976 34.20504,36.87312 C34.8214156,37.9446819 34.6618128,39.2936965 33.8124,40.19184 C32.98128,41.07528 31.62504,41.3316 30.56976,40.8048 C29.41776,40.2288 28.78176,38.9964 29.0556,37.7328 C29.13432,37.36992 29.0508,37.16304 28.80792,36.9324 C28.36152,36.5088 27.92544,36.0732 27.50712,35.622 C27.26304,35.358 27.11136,35.35392 26.8308,35.61552 C23.98368,38.27064 20.68008,38.95776 17.0352,37.66272 C13.41144,36.37656 11.03736,32.8536 11.02656,28.9812" id="Shape" fill="#FEFDFC"></path>
        </g>
    </g>
</svg>