<?xml version="1.0" encoding="UTF-8"?>
<svg width="48px" height="48px" viewBox="0 0 48 48" version="1.1" xmlns="http://www.w3.org/2000/svg" xmlns:xlink="http://www.w3.org/1999/xlink">
    <!-- Generator: Sketch 49.1 (51147) - http://www.bohemiancoding.com/sketch -->
    <title>bch</title>
    <desc>Created with Sketch.</desc>
    <defs></defs>
    <g id="48px" stroke="none" stroke-width="1" fill="none" fill-rule="evenodd">
        <g id="bch" fill-rule="nonzero">
            <circle id="Oval" fill="#8DC351" cx="24" cy="24" r="24"></circle>
            <path d="M34.7834307,21.0306088 C35.2538307,17.8862396 32.8597385,16.1959012 29.5861385,15.0682703 L30.6480461,10.8088242 L28.0553076,10.1626704 L27.0214616,14.3098704 C26.3398616,14.1400242 25.6398,13.979778 24.9441692,13.8210088 L25.9854,9.64648575 L23.3941385,9.0003319 L22.3314923,13.2583011 C21.7673076,13.1298088 21.2134616,13.0027934 20.6758616,12.8691319 L20.6788154,12.8558396 L17.1031846,11.9630396 L16.4134616,14.7322704 C16.4134616,14.7322704 18.3371539,15.1731319 18.2965385,15.200455 C19.3466308,15.4626088 19.5364154,16.1575012 19.5046616,16.7083934 L18.2950616,21.5608241 C18.3674308,21.5792857 18.4612154,21.6058703 18.5646001,21.6472241 C18.4782001,21.6258088 18.3858923,21.6021781 18.2906308,21.5792857 L16.5951232,28.3768241 C16.4666308,28.6958396 16.1409692,29.1743625 15.4069385,28.9927011 C15.4327846,29.0303625 13.5223847,28.5223011 13.5223847,28.5223011 L12.2352462,31.490178 L15.609277,32.3312856 C16.2369692,32.488578 16.8521077,32.6532549 17.4576461,32.8083318 L16.3846616,37.1165165 L18.9744461,37.7626703 L20.0370923,33.5002703 C20.7445385,33.6922703 21.4313077,33.8695011 22.1033076,34.0363934 L21.0443539,38.2788549 L23.6370923,38.9250087 L24.7100769,34.6249472 C29.1312461,35.4616241 32.4558,35.1241472 33.8551845,31.125378 C34.9828154,27.9056856 33.7990616,26.0484549 31.4729076,24.8373781 C33.1669385,24.4467319 34.443,23.3323934 34.7834307,21.0306088 Z M28.8594923,29.3375625 C28.0582616,32.5572549 22.6372154,30.8167011 20.879677,30.3802703 L22.3034307,24.6727012 C24.0609692,25.1113472 29.6969076,25.979778 28.8594923,29.3375625 Z M29.6614616,20.9840857 C28.9303845,23.9128241 24.4183845,22.4248241 22.9547538,22.0600241 L24.2455845,16.8834088 C25.7092154,17.2482088 30.4228154,17.9290703 29.6614616,20.9840857 Z" id="Shape" fill="#FFFFFF" transform="translate(23.538881, 23.962670) rotate(-30.000000) translate(-23.538881, -23.962670) "></path>
        </g>
    </g>
</svg>