<?xml version="1.0" encoding="UTF-8"?>
<svg width="48px" height="48px" viewBox="0 0 48 48" version="1.1" xmlns="http://www.w3.org/2000/svg" xmlns:xlink="http://www.w3.org/1999/xlink">
    <!-- Generator: Sketch 49.1 (51147) - http://www.bohemiancoding.com/sketch -->
    <title>bcn</title>
    <desc>Created with Sketch.</desc>
    <defs></defs>
    <g id="48px" stroke="none" stroke-width="1" fill="none" fill-rule="evenodd">
        <g id="bcn" fill-rule="nonzero">
            <circle id="Oval" fill="#F04086" cx="23.9985" cy="23.9985" r="23.9985"></circle>
            <path d="M35.1555555,25.1311112 C34.2118518,24.0866667 32.8518519,23.4385185 31.0755555,23.1866667 L31.0755555,23.1488889 C32.6311112,22.8977778 33.8533333,22.26 34.6844445,21.24 C35.528076,20.2283071 35.9862593,18.9505898 35.9777778,17.6333334 C35.9777778,15.4422222 35.2711111,13.9533333 33.8111111,12.7822222 C32.3511111,11.6111111 30.1577778,11.2266667 27.1866666,11.2266667 L15.9644445,11.2266667 L15.9644445,21.6711111 L9.52,21.6711111 L9.52,25.6711112 L27.1111112,25.6711112 C28.4955555,25.6711112 29.5355556,25.7688889 30.2222222,26.3222221 C30.9088889,26.8755555 31.26,27.5911112 31.26,28.6488889 C31.26,29.7066666 30.9133334,30.6088888 30.2222222,31.1755555 C29.5311111,31.7422223 28.4911111,32.1155556 27.1111112,32.1155556 L21.0755556,32.1155556 L21.0755556,29.0044445 L15.9644445,29.0044445 L15.9644445,36.1155555 L27.5555556,36.1155555 C30.5022222,36.1155555 32.7555555,35.3466666 34.3177778,34.1511111 C35.88,32.9555556 36.6133334,31.1888889 36.6133334,29.0222221 C36.6327875,27.5882289 36.1124441,26.1993244 35.1555555,25.1311112 Z M26.4666666,21.66 L21.0755556,21.66 L21.0755556,15.2155556 L26.4666666,15.2155556 C29.2377779,15.2155556 30.6222222,16.2977778 30.6222222,18.4377778 C30.6222222,20.5777778 29.2377779,21.66 26.4666666,21.66 Z" id="Shape" fill="#FFFFFF"></path>
        </g>
    </g>
</svg>