<?xml version="1.0" encoding="UTF-8"?>
<svg width="48px" height="48px" viewBox="0 0 48 48" version="1.1" xmlns="http://www.w3.org/2000/svg" xmlns:xlink="http://www.w3.org/1999/xlink">
    <!-- Generator: Sketch 49.1 (51147) - http://www.bohemiancoding.com/sketch -->
    <title>bdl</title>
    <desc>Created with Sketch.</desc>
    <defs></defs>
    <g id="48px" stroke="none" stroke-width="1" fill="none" fill-rule="evenodd">
        <g id="bdl" fill-rule="nonzero">
            <circle id="Oval" fill="#E54C40" cx="24" cy="24" r="24"></circle>
            <path d="M13.992,12.92496 C13.96296,12.7056 14.1684,12.5736 14.28816,12.42336 C15.77904,10.94768 17.2628,9.46488 18.73944,7.97496 C18.71808,12.04896 18.75168,16.12296 18.72264,20.1972 C21.79656,18.50232 25.66824,18.42696 28.82664,19.94568 C28.824,20.208 28.824,20.46888 28.824,20.73264 C26.30232,19.37664 23.20224,19.20336 20.51184,20.1468 C17.418,21.21432 14.952,23.83416 13.98672,26.952 C13.992,22.2756 13.98528,17.6004 13.992,12.92496 Z M34.07688,30.41904 C34.00008,32.87328 32.95248,35.27544 31.23144,37.02552 C29.74968,38.54712 27.77544,39.58872 25.67712,39.93072 C23.19528,40.34952 20.56776,39.79272 18.47712,38.3892 C16.25832,36.93072 14.65248,34.56 14.16,31.94688 C13.73208,29.8776 14.022,27.67944 14.91168,25.76832 C15.90264,23.63232 17.67576,21.87528 19.81416,20.88888 C22.63968,19.55736 26.0832,19.66944 28.81968,21.17688 C28.80288,23.41784 28.80336,25.65888 28.82112,27.9 C28.37472,26.97504 27.71064,26.1468 26.8332,25.59768 C25.09824,24.4764 22.68552,24.53016 21.01056,25.74504 C19.16688,27.01368 18.3324,29.5308 19.06656,31.6476 C19.72152,33.73368 21.7968,35.26464 23.98896,35.2416 C26.09808,35.29368 28.13352,33.91488 28.88832,31.94832 C29.36832,30.83472 29.24832,29.60304 29.2596,28.42344 C29.26872,22.3416 29.24424,16.25952 29.24736,10.17768 C29.2488,9.41376 29.26128,8.6484 29.21832,7.88592 C30.852,9.4968 32.472,11.12736 34.0932,12.7548 C34.05936,18.642 34.0932,24.53064 34.07616,30.41928 L34.07688,30.41904 Z" id="Shape" fill="#FFFFFF"></path>
        </g>
    </g>
</svg>