<?xml version="1.0" encoding="UTF-8"?>
<svg width="48px" height="48px" viewBox="0 0 48 48" version="1.1" xmlns="http://www.w3.org/2000/svg" xmlns:xlink="http://www.w3.org/1999/xlink">
    <!-- Generator: Sketch 49.1 (51147) - http://www.bohemiancoding.com/sketch -->
    <title>bela</title>
    <desc>Created with Sketch.</desc>
    <defs></defs>
    <g id="48px" stroke="none" stroke-width="1" fill="none" fill-rule="evenodd">
        <g id="bela" fill-rule="nonzero">
            <circle id="Oval" fill="#13A0F6" cx="24" cy="24" r="24"></circle>
            <path d="M12.4453983,17.352377 C11.2890088,16.7453975 10.5,15.5312903 10.5,14.1325301 C10.5,12.1263391 12.1230799,10.5 14.1252505,10.5 C15.5141875,10.5 16.7206905,11.2826618 17.3294601,12.4318521 C19.3127181,11.2726007 21.6195334,10.6084337 24.0811623,10.6084337 C31.4921817,10.6084337 37.5,16.6283158 37.5,24.0542169 C37.5,31.4801178 31.4921817,37.5 24.0811623,37.5 C16.6701429,37.5 10.6623246,31.4801178 10.6623246,24.0542169 C10.6623246,21.6138387 11.3111574,19.3253078 12.4453983,17.352377 Z M24.0811623,30.6686746 C27.7269057,30.6686746 30.6823647,27.707281 30.6823647,24.0542169 C30.6823647,20.4011528 27.7269057,17.439759 24.0811623,17.439759 C20.4354189,17.439759 17.4799599,20.4011527 17.4799599,24.0542169 C17.4799599,27.707281 20.4354189,30.6686746 24.0811623,30.6686746 Z" id="Shape" fill="#FFFFFF"></path>
        </g>
    </g>
</svg>