<?xml version="1.0" encoding="UTF-8"?>
<svg width="48px" height="48px" viewBox="0 0 48 48" version="1.1" xmlns="http://www.w3.org/2000/svg" xmlns:xlink="http://www.w3.org/1999/xlink">
    <!-- Generator: Sketch 49.1 (51147) - http://www.bohemiancoding.com/sketch -->
    <title>blcn</title>
    <desc>Created with Sketch.</desc>
    <defs></defs>
    <g id="48px" stroke="none" stroke-width="1" fill="none" fill-rule="evenodd">
        <g id="blcn" fill-rule="nonzero">
            <circle id="Oval" fill="#2AABE4" cx="24" cy="24" r="24"></circle>
            <path d="M11.85,10.5 L21.15,10.5 C21.8955845,10.5 22.5,11.1044156 22.5,11.85 L22.5,21.15 C22.5,21.8955845 21.8955845,22.5 21.15,22.5 L11.85,22.5 C11.1044156,22.5 10.5,21.8955845 10.5,21.15 L10.5,11.85 C10.5,11.1044156 11.1044156,10.5 11.85,10.5 Z M26.85,10.5 L36.15,10.5 C36.8955844,10.5 37.5,11.1044156 37.5,11.85 L37.5,21.15 C37.5,21.8955845 36.8955844,22.5 36.15,22.5 L26.85,22.5 C26.1044155,22.5 25.5,21.8955845 25.5,21.15 L25.5,11.85 C25.5,11.1044156 26.1044155,10.5 26.85,10.5 Z M26.85,25.5 L36.15,25.5 C36.8955844,25.5 37.5,26.1044156 37.5,26.85 L37.5,36.15 C37.5,36.8955844 36.8955844,37.5 36.15,37.5 L26.85,37.5 C26.1044155,37.5 25.5,36.8955844 25.5,36.15 L25.5,26.85 C25.5,26.1044155 26.1044155,25.5 26.85,25.5 Z M11.85,25.5 L21.15,25.5 C21.8955844,25.5 22.5,26.1044156 22.5,26.85 L22.5,36.15 C22.5,36.8955844 21.8955844,37.5 21.15,37.5 L11.85,37.5 C11.1044156,37.5 10.5,36.8955844 10.5,36.15 L10.5,26.85 C10.5,26.1044155 11.1044156,25.5 11.85,25.5 Z" id="Shape" fill="#FFFFFF"></path>
        </g>
    </g>
</svg>