<?xml version="1.0" encoding="UTF-8"?>
<svg width="48px" height="48px" viewBox="0 0 48 48" version="1.1" xmlns="http://www.w3.org/2000/svg" xmlns:xlink="http://www.w3.org/1999/xlink">
    <!-- Generator: Sketch 49.1 (51147) - http://www.bohemiancoding.com/sketch -->
    <title>blk</title>
    <desc>Created with Sketch.</desc>
    <defs></defs>
    <g id="48px" stroke="none" stroke-width="1" fill="none" fill-rule="evenodd">
        <g id="blk" fill-rule="nonzero">
            <circle id="Oval" fill="#181818" cx="24" cy="24" r="24"></circle>
            <path d="M34.6495665,16.6946547 C34.7199502,21.0651648 30.9955011,22.293307 30.9955011,22.293307 C30.9955011,22.293307 32.5134853,20.7923026 32.4428457,16.9478772 C32.372206,13.1034519 29.5481563,11.204676 29.5481563,11.204676 C29.5481563,11.204676 34.5791828,12.3241446 34.6495665,16.6946547 Z M17.9043899,37.2284583 L12.75,37.4814189 L12.75,36.9998509 C12.75,36.9998509 15.9039573,36.6746158 15.9039573,31.0159968 L15.9039573,16.5558667 C15.9039573,11.7637557 12.75,10.933123 12.75,10.933123 L12.75,10.5 L17.9043899,10.7524369 L17.9043899,37.2284583 Z M26.1415856,37.4992257 C23.8998009,37.5175562 19.7397407,37.2043668 19.7397407,37.2043668 L19.7397407,10.7890978 C22.4818895,10.7526988 23.4408993,10.3735197 25.7000878,10.6984929 C27.9592764,11.0234661 29.9013546,13.2812575 30.4308958,15.5387871 C30.9604371,17.7963167 30.395832,19.9454345 29.6715198,21.1191088 C28.9472076,22.2927832 27.3593514,23.1061329 27.3593514,23.1061329 C27.3593514,23.1061329 29.7600753,23.9367654 30.607751,24.6589863 C31.4554265,25.3812074 33.0965183,27.3499008 32.4610176,31.6303298 C31.8255168,35.9107587 28.3831143,37.4814189 26.1413297,37.4992257 L26.1415856,37.4992257 Z M32.0991174,36.5245678 C32.0991174,36.5245678 34.543351,34.3932567 34.4358559,30.071977 C34.3283608,25.7506974 32.0991174,23.7194184 32.0991174,23.7194184 C32.0991174,23.7194184 36.6968363,24.8755479 36.74956,30.0224848 C36.8022838,35.1694216 32.0991174,36.5245678 32.0991174,36.5245678 Z M27.447651,21.0222192 C29.0948853,18.8309412 28.5773733,14.7073689 26.5828273,13.2972312 C24.5882814,11.8870936 22.487776,12.5930789 22.0815981,12.9900648 C21.6754203,13.3870506 21.6941038,22.636087 21.6941038,22.636087 C21.6941038,22.636087 25.8001606,23.2142827 27.447651,21.0222192 Z M27.7532442,24.9593443 C26.2117133,24.2729988 21.6933362,24.453685 21.6933362,24.453685 C21.6933362,24.453685 21.6232083,26.78925 21.7872663,31.160022 C21.9513243,35.530794 23.411466,35.5069644 24.9294504,35.5666693 C26.4474346,35.6263743 29.342636,35.5184863 30.2957592,31.7497396 C31.2488823,27.9809931 29.2955428,25.6462137 27.7532442,24.9601299 L27.7532442,24.9593443 Z" id="Shape" fill="#FFFFFF"></path>
        </g>
    </g>
</svg>