<?xml version="1.0" encoding="UTF-8"?>
<svg width="48px" height="48px" viewBox="0 0 48 48" version="1.1" xmlns="http://www.w3.org/2000/svg" xmlns:xlink="http://www.w3.org/1999/xlink">
    <!-- Generator: Sketch 49.1 (51147) - http://www.bohemiancoding.com/sketch -->
    <title>bnb</title>
    <desc>Created with Sketch.</desc>
    <defs></defs>
    <g id="48px" stroke="none" stroke-width="1" fill="none" fill-rule="evenodd">
        <g id="bnb" fill-rule="nonzero">
            <circle id="Oval" fill="#F3BA2F" cx="24" cy="24" r="24"></circle>
            <path d="M18.1737325,21.6063 L23.999715,15.78045 L29.8286974,21.6093 L33.2186874,18.2193 L23.999715,9 L14.7838926,18.2163 L18.1737325,21.6063 Z M9,23.999535 L12.3900948,20.60943 L15.7799646,23.999325 L12.3898998,27.3894 L9,23.999535 Z M18.1737326,26.3937 L23.999715,32.21955 L29.8285475,26.39085 L33.2203374,29.77905 L33.2186874,29.78085 L23.999715,39 L14.7835926,29.784 L14.7787927,29.7792 L18.1737326,26.3937 Z M32.2200354,24.001395 L35.6101302,20.611305 L39,24.001185 L35.6099202,27.39129 L32.2200354,24.001395 Z M27.4381546,23.9982 L27.4413046,23.99985 L27.4396547,24.0018 L23.999715,27.44175 L20.5629254,24.0048 L20.5581253,23.99985 L20.5629254,23.9952 L21.1653236,23.39265 L21.4573726,23.10045 L21.4575227,23.10045 L23.999715,20.55825 L27.4396547,23.9982 L27.4381546,23.9982 Z" id="Shape" fill="#FFFFFF"></path>
        </g>
    </g>
</svg>