<?xml version="1.0" encoding="UTF-8"?>
<svg width="48px" height="48px" viewBox="0 0 48 48" version="1.1" xmlns="http://www.w3.org/2000/svg" xmlns:xlink="http://www.w3.org/1999/xlink">
    <!-- Generator: Sketch 49.1 (51147) - http://www.bohemiancoding.com/sketch -->
    <title>bq</title>
    <desc>Created with Sketch.</desc>
    <defs></defs>
    <g id="48px" stroke="none" stroke-width="1" fill="none" fill-rule="evenodd">
        <g id="bq" fill-rule="nonzero">
            <circle id="Oval" fill="#1D1D1D" cx="24" cy="24" r="24"></circle>
            <path d="M14.9424277,25.4312166 C14.9422255,28.6304057 17.549596,31.2235769 20.7464629,31.2034113 C23.9297841,31.1833461 26.5152185,28.629252 26.5168865,25.50305 C26.5186048,22.2652354 23.9563197,19.6955907 20.7301878,19.6997041 C17.5312991,19.7037171 14.9426299,22.2672419 14.9424277,25.4312166 Z M14.9491501,31.641534 L14.9491501,33.5498813 L12,33.5498813 L12,12 C12.8379715,12.0150489 13.5464488,12.3141201 14.1154749,12.9082495 C14.6592794,13.4760935 14.9308531,14.1601148 14.927315,14.9520866 C14.920997,16.3721984 14.9255459,17.7923601 14.9255459,19.2808439 C16.9840575,17.5611092 19.2778015,16.7123028 21.9488577,17.1204783 C24.5968657,17.5251926 26.6303075,18.8584221 28.0153688,21.13652 C30.1084526,24.5791998 29.4303017,28.9760783 26.3988659,31.7127152 C23.4414771,34.3823847 18.5298492,34.7950749 14.9491501,31.641534 Z M24.4872051,33.5107743 C24.6051752,33.4403956 24.6652722,33.3989611 24.7300192,33.3667064 C25.66453,32.9008937 26.4954759,32.296531 27.2057223,31.5337039 C27.3635211,31.3642035 27.5395158,31.2783747 27.7764162,31.2647807 C30.2817886,31.1206626 32.5386355,29.1036124 32.9631558,26.6383065 C33.5209611,23.3994888 31.5524181,20.5387989 28.2971727,19.9186853 C27.8121004,19.8262851 27.4650138,19.6453476 27.1414806,19.2881376 C26.5414204,18.6255359 25.8141913,18.1082058 25.0373782,17.6620571 C24.9726312,17.6248863 24.9097037,17.5847561 24.8011349,17.5187918 C26.276367,17.1130743 27.7150557,17.0179152 29.1741136,17.3485389 C30.6236692,17.6770056 31.8737272,18.3883155 33.0436221,19.3599207 L33.0436221,17.4467579 L36,17.4467579 L36,39 C35.1665269,38.9769753 34.4669959,38.6794089 33.8983237,38.0976697 C33.3394065,37.5259131 33.0716742,36.8294514 33.0711181,36.0330651 C33.0702589,34.6212303 33.0708654,33.2093454 33.0708654,31.7285366 C30.5232886,33.8617641 27.7061094,34.5010401 24.4872051,33.5107743 Z" id="Shape" fill="#FFFFFF"></path>
        </g>
    </g>
</svg>