<?xml version="1.0" encoding="UTF-8"?>
<svg width="48px" height="48px" viewBox="0 0 48 48" version="1.1" xmlns="http://www.w3.org/2000/svg" xmlns:xlink="http://www.w3.org/1999/xlink">
    <!-- Generator: Sketch 49.1 (51147) - http://www.bohemiancoding.com/sketch -->
    <title>bqx</title>
    <desc>Created with Sketch.</desc>
    <defs></defs>
    <g id="48px" stroke="none" stroke-width="1" fill="none" fill-rule="evenodd">
        <g id="bqx" fill-rule="nonzero">
            <circle id="Oval" fill="#319E31" cx="24" cy="24" r="24"></circle>
            <path d="M40.4313383,23.7871629 C39.5980439,20.0338973 37.6312991,17.0279039 34.562246,14.7901792 C31.9754196,12.9041248 29.0386946,11.9601284 25.8683496,12.0637128 C19.0083386,12.2878945 13.9442682,16.7653895 12.1451388,22.6137089 C11.0749295,26.0927234 11.2751752,29.5619394 12.7066559,32.9352161 C14.1377115,36.3072006 16.5257802,38.7573701 19.700483,40.5 C19.3510095,40.4101982 18.9967532,40.335794 18.652913,40.2279026 C17.0018421,39.7092267 15.4614167,38.95754 14.0556575,37.9353708 C13.2283152,37.3336769 12.4769685,36.6457343 11.7718569,35.8971701 C10.561348,34.6118405 9.60348462,33.15929 8.8857248,31.5472712 C8.28371211,30.1955055 7.87206042,28.7826876 7.66735061,27.3075251 C7.52014235,26.2473462 7.47730846,25.1836142 7.51068276,24.1181592 C7.56180707,22.4878355 7.86079395,20.8989671 8.37830804,19.3530614 C9.00253481,17.4883268 9.91703289,15.7834911 11.1106421,14.2296175 C12.4679341,12.4626528 14.0999794,11.0165628 16.0014638,9.87691907 C17.6921798,8.86368704 19.4987493,8.15700884 21.4283997,7.7959709 C23.0877609,7.48543303 24.7572195,7.41404379 26.4434715,7.60656864 C27.5497124,7.73276502 28.6283184,7.95167052 29.6796086,8.30527881 C30.9247673,8.7242465 32.1094482,9.27791696 33.2137758,10.0051613 C34.1066976,10.5930728 34.9409486,11.2543117 35.7028178,12.0053524 C36.6506901,12.9396579 37.4717615,13.9797012 38.1545526,15.1294665 C39.0082542,16.5669425 39.6549077,18.096266 40.0093767,19.733481 C40.2033515,20.6291307 40.2858306,21.550515 40.4008337,22.4626392 C40.4554655,22.8951741 40.4683263,23.3330928 40.5,23.7685349 C40.4771483,23.7747801 40.4542964,23.7809177 40.4313383,23.7871629 Z M23.3836548,30.1325473 C23.3836548,28.0693657 23.3819542,26.0060765 23.3914138,23.9428948 C23.3917327,23.8774277 23.4988705,23.7656599 23.5681701,23.7548923 C24.0049056,23.6869487 24.4438732,23.6209432 24.8844351,23.5924091 C26.1834814,23.507991 27.4841223,23.4480154 28.7839126,23.5826106 C29.7245576,23.6801651 30.603343,23.9606613 31.3688259,24.5406048 C32.6739307,25.5293943 32.8065777,27.4405374 31.7849416,28.5567076 C31.4350431,28.9389579 31.0394408,29.2343133 30.5572141,29.4160706 C30.4943982,29.4397593 30.4526272,29.5205165 30.4011841,29.5748928 C30.4574101,29.6220551 30.5066214,29.6934443 30.5711379,29.7130413 C32.1746982,30.1994142 33.1195944,31.6284914 32.8733262,33.2813193 C32.6393872,34.8513444 31.68822,35.7928643 30.2414338,36.2704077 C28.8570385,36.727385 27.4230069,36.7657178 25.9871683,36.7355684 C25.2180717,36.7192017 24.4503567,36.6463048 23.6818977,36.6010809 C23.488348,36.5896672 23.386312,36.5333527 23.3875875,36.2951731 C23.3976849,34.2410364 23.3933271,32.1867918 23.3933271,30.1325473 L23.3836548,30.1325473 Z M26.193685,27.231215 L26.1886896,27.231215 C26.1886896,27.6520133 26.191453,28.0728114 26.1873078,28.4937173 C26.185501,28.6776279 26.2389636,28.7752902 26.4468621,28.7683989 C26.7999493,28.7568776 27.1542057,28.7825045 27.5071866,28.7692604 C28.0349043,28.7495556 28.5399828,28.6389723 28.9868157,28.3282191 C29.8901535,27.6998214 29.8314828,26.3643149 28.8599083,25.8760037 C28.5898317,25.7402241 28.274689,25.6562369 27.9738952,25.6331942 C27.4914561,25.5961536 27.0035962,25.6383626 26.5183936,25.6303946 C26.2540564,25.6259798 26.1841192,25.7529299 26.190709,25.9950935 C26.2016566,26.4068469 26.193685,26.8191386 26.193685,27.231215 Z M26.1889021,32.7303408 L26.191453,32.7303408 C26.191453,33.2680752 26.1966612,33.806025 26.1885832,34.343544 C26.1858198,34.5258396 26.2583079,34.6225328 26.4311314,34.6184411 C27.031231,34.6047662 27.6357946,34.6229634 28.2296232,34.5513588 C28.8026193,34.4822309 29.3299119,34.2356526 29.6541952,33.7174076 C30.196368,32.8510457 30.0798768,31.4404889 28.5805846,31.0042931 C27.8903533,30.8034771 27.184285,30.8016467 26.4765163,30.8018619 C26.26054,30.8018619 26.1823123,30.901893 26.1859261,31.1173529 C26.1949605,31.654872 26.1889021,32.1927141 26.1889021,32.7303408 Z M36.5757149,23.4477247 C36.2577026,23.0612752 35.9933654,22.6766562 35.6667437,22.3576119 C35.141577,21.8446431 34.6067381,21.3314587 34.0197119,20.8961244 C32.8205757,20.0070429 31.4734873,19.4412049 30.0099077,19.14768 C28.8355367,18.9121923 27.6638226,18.8629843 26.4749964,19.0053321 C24.9875021,19.1833208 23.5997055,19.6578493 22.2903492,20.3776639 C21.073038,21.0470862 20.0279124,21.9365985 19.1086314,22.9831025 C18.0026032,24.242159 17.2315934,25.6966476 16.7456466,27.2958529 C16.3149694,28.712655 16.1656354,30.1719891 16.336227,31.6542582 C16.375766,31.997745 16.4213632,32.3405856 16.42232,32.709807 C16.3023213,32.493378 16.1709498,32.2826559 16.0643434,32.0596587 C15.4721092,30.8225681 15.0835219,29.5264708 14.9897763,28.1487553 C14.8539408,26.1538402 15.1613244,24.2436664 16.0004646,22.4194181 C16.634151,21.0419178 17.503902,19.8445596 18.592818,18.8163606 C19.9054692,17.5769012 21.4316522,16.7007408 23.1561677,16.1720511 C24.5939193,15.7312252 26.0607938,15.62258 27.5419109,15.7545909 C28.7655993,15.8636668 29.936463,16.2109222 31.0491875,16.7528559 C32.8060143,17.6085579 34.2166626,18.8621229 35.2886789,20.507306 C35.8567859,21.3791593 36.273752,22.3242324 36.5747583,23.3223897 C36.5820921,23.3462938 36.5757149,23.3743973 36.5757149,23.4477247 Z" id="Shape" fill="#FFFFFF"></path>
        </g>
    </g>
</svg>