<?xml version="1.0" encoding="UTF-8"?>
<svg width="48px" height="48px" viewBox="0 0 48 48" version="1.1" xmlns="http://www.w3.org/2000/svg" xmlns:xlink="http://www.w3.org/1999/xlink">
    <!-- Generator: Sketch 49.1 (51147) - http://www.bohemiancoding.com/sketch -->
    <title>btc</title>
    <desc>Created with Sketch.</desc>
    <defs></defs>
    <g id="48px" stroke="none" stroke-width="1" fill="none" fill-rule="evenodd">
        <g id="btc" fill-rule="nonzero">
            <circle id="Oval" fill="#F7931A" cx="24" cy="24" r="24"></circle>
            <path d="M34.7834289,21.0302769 C35.2538289,17.8859078 32.8597367,16.1955693 29.5861367,15.0679384 L30.6480442,10.8084923 L28.0553058,10.1623385 L27.0214597,14.3095385 C26.3398598,14.1396923 25.6397982,13.9794462 24.9441674,13.8206769 L25.9853982,9.64615385 L23.3941367,9 L22.3314905,13.2579692 C21.7673058,13.1294769 21.2134597,13.0024615 20.6758598,12.8688 L20.6788136,12.8555077 L17.1031827,11.9627077 L16.4134598,14.7319385 C16.4134598,14.7319385 18.337152,15.1728 18.2965367,15.2001231 C19.3466289,15.4622769 19.5364136,16.1571693 19.5046597,16.7080615 L18.2950598,21.5604922 C18.3674289,21.5789538 18.4612136,21.6055384 18.5645982,21.6468923 C18.4781982,21.6254769 18.3858905,21.6018462 18.2906289,21.5789538 L16.5951213,28.3764922 C16.4666289,28.6955078 16.1409674,29.1740307 15.4069366,28.9923693 C15.4327827,29.0300307 13.5223828,28.5219693 13.5223828,28.5219693 L12.2352443,31.4898462 L15.6092751,32.3309538 C16.2369674,32.4882462 16.8521058,32.6529231 17.4576443,32.808 L16.3846597,37.1161846 L18.9744442,37.7623385 L20.0370905,33.4999384 C20.7445367,33.6919384 21.4313058,33.8691693 22.1033058,34.0360615 L21.044352,38.2785231 L23.6370905,38.9246769 L24.7100751,34.6246153 C29.1312443,35.4612922 32.4557982,35.1238154 33.8551827,31.1250462 C34.9828135,27.9053538 33.7990597,26.0481231 31.4729058,24.8370462 C33.1669366,24.4464 34.4429982,23.3320615 34.7834289,21.0302769 Z M28.8594905,29.3372307 C28.0582597,32.5569231 22.6372135,30.8163693 20.8796751,30.3799384 L22.3034289,24.6723693 C24.0609673,25.1110154 29.6969058,25.9794462 28.8594905,29.3372307 Z M29.6614597,20.9837538 C28.9303827,23.9124922 24.4183827,22.4244923 22.954752,22.0596923 L24.2455827,16.8830769 C25.7092135,17.2478769 30.4228136,17.9287384 29.6614597,20.9837538 Z" id="Shape" fill="#FFFFFF"></path>
        </g>
    </g>
</svg>