<?xml version="1.0" encoding="UTF-8"?>
<svg width="48px" height="48px" viewBox="0 0 48 48" version="1.1" xmlns="http://www.w3.org/2000/svg" xmlns:xlink="http://www.w3.org/1999/xlink">
    <!-- Generator: Sketch 49.1 (51147) - http://www.bohemiancoding.com/sketch -->
    <title>btcd</title>
    <desc>Created with Sketch.</desc>
    <defs></defs>
    <g id="48px" stroke="none" stroke-width="1" fill="none" fill-rule="evenodd">
        <g id="btcd" fill-rule="nonzero">
            <circle id="Oval" fill="#FF6600" cx="24" cy="24" r="24"></circle>
            <path d="M25.6176198,29.033707 C33.2376288,26.6835861 30.5176755,18.7835431 25.6176198,18.4834855 C26.8626212,18.4834855 27.8791723,14.9168117 27.8791723,10.5 C39.8425866,11.3499853 45.4636933,31.0671427 27.5191721,37.2339602 C27.6339222,35.633907 26.9784213,31.1672128 25.6180698,29.033707 L25.6176198,29.033707 Z M9,26.6997559 L9,18.4995028 L9.01635002,18.4995028 C13.3429552,18.4828753 16.8336093,14.8994215 16.8172593,10.5160173 L25.1587692,10.5160173 C25.1587692,19.4661856 17.9316106,26.6997559 9,26.6997559 Z M19.9309631,25.2164004 L19.9311131,25.2164004 C24.8803689,29.2831194 25.1589192,36.1333421 25.1589192,37.5 L16.8172593,37.5 C16.8172593,32.9664907 13.8673558,29.2997469 10.2127514,29.2997469 C16.4074588,28.2998091 17.6700103,27.2498361 19.9309631,25.2164004 Z" id="Shape" fill="#FFFFFF"></path>
        </g>
    </g>
</svg>