<?xml version="1.0" encoding="UTF-8"?>
<svg width="48px" height="48px" viewBox="0 0 48 48" version="1.1" xmlns="http://www.w3.org/2000/svg" xmlns:xlink="http://www.w3.org/1999/xlink">
    <!-- Generator: Sketch 49.1 (51147) - http://www.bohemiancoding.com/sketch -->
    <title>btcz</title>
    <desc>Created with Sketch.</desc>
    <defs></defs>
    <g id="48px" stroke="none" stroke-width="1" fill="none" fill-rule="evenodd">
        <g id="btcz" fill-rule="nonzero">
            <circle id="Oval" fill="#F8C24A" cx="24" cy="24" r="24"></circle>
            <path d="M23.999999,40.4999963 C14.9015433,40.4999963 7.5,33.0984534 7.5,23.9999982 C7.5,14.9015429 14.9061246,7.5 23.999999,7.5 C33.0938734,7.5 40.499998,14.9061242 40.499998,23.9999982 C40.5007439,25.5035372 40.2963661,27.0001497 39.8925181,28.4484372 C39.694658,29.1568877 38.959948,29.5708031 38.2514975,29.3729429 C37.5430469,29.1750828 37.1291317,28.4403729 37.3269917,27.7319225 C37.6654054,26.5168578 37.8364904,25.2613089 37.8355157,23.9999982 C37.8355157,16.3703067 31.6287746,10.1644821 23.999999,10.1644821 C16.3712234,10.1644821 10.1644823,16.3712229 10.1644823,23.9999982 C10.1644823,31.6287734 16.3712234,37.8355142 23.999999,37.8355142 C25.4283131,37.8369366 26.8482344,37.6171796 28.2092946,37.1840538 C28.6626716,37.039857 29.1585371,37.1484873 29.5101036,37.4690249 C29.8616702,37.7895624 30.0155262,38.2733097 29.913716,38.7380441 C29.8119056,39.2027784 29.469896,39.5778954 29.0165192,39.7220921 C27.3945122,40.2387309 25.7022977,40.50114 23.999999,40.4999963 Z M29.0623321,23.9615153 C29.6322454,24.4379702 30.0164635,25.1273025 30.2149864,26.0295126 C30.3430737,26.5487636 30.3345509,27.092331 30.1902474,27.6073112 C30.0469947,28.0844001 29.7933651,28.5210321 29.4499098,28.8818279 C29.0742247,29.2732763 28.6337482,29.5968915 28.1479051,29.8384026 C27.6338836,30.1032017 27.5129375,30.1884137 26.9008762,30.3240201 L26.5206285,30.415646 C26.2853389,30.4723362 26.1389541,30.7072044 26.1916914,30.9434114 L26.4152587,31.9512966 C26.440905,32.0662493 26.41977,32.1866823 26.3565153,32.2860336 C26.2932604,32.3853849 26.1930822,32.4554928 26.0780752,32.4808946 L25.0619436,32.7053781 C24.9469909,32.7310244 24.8265579,32.7098894 24.7272066,32.6466347 C24.6278554,32.5833798 24.5577476,32.4832016 24.5323456,32.3681946 L24.3106108,31.3676394 C24.2852091,31.2526326 24.2151012,31.1524544 24.1157499,31.0891995 C24.0163986,31.0259448 23.8959657,31.0048098 23.781013,31.0304561 L21.0322349,31.6397685 C20.7516787,31.7016692 20.4580233,31.649556 20.2158982,31.4948985 C19.9737734,31.340241 19.8030223,31.0957142 19.7412254,30.8151351 L17.267325,19.6266923 C17.2054244,19.3461362 17.2575375,19.0524807 17.412195,18.8103558 C17.5668525,18.5682309 17.8113795,18.3974799 18.0919586,18.3356829 L20.8407366,17.7263705 C20.9557436,17.7009686 21.0559218,17.6308608 21.1191766,17.5315095 C21.1824313,17.4321582 21.2035663,17.3117252 21.1779201,17.1967725 L20.9534365,16.1888873 C20.9018893,15.9495447 21.0540532,15.7137111 21.2933688,15.6620382 L22.3095004,15.4375547 C22.4244531,15.4119084 22.5448861,15.4330434 22.6442373,15.4962981 C22.7435886,15.559553 22.8136965,15.6597312 22.8390984,15.774738 L23.060833,16.7752932 C23.0862349,16.8903002 23.1563428,16.9904784 23.2556942,17.0537333 C23.3550453,17.116988 23.4754783,17.138123 23.590431,17.1124767 L24.4306408,16.9292249 C24.866043,16.826667 25.3201389,16.8342249 25.7518869,16.951215 C26.1616548,17.0633892 26.5450497,17.2558653 26.8798023,17.5174633 C27.2165762,17.7825158 27.504084,18.1047602 27.7291746,18.4694568 C27.9601476,18.8379539 28.1262571,19.2433107 28.2202897,19.667924 C28.3615011,20.2985636 28.3340061,20.955282 28.1405751,21.5719109 C27.9399291,22.2132977 27.5355699,22.7717444 26.9888371,23.1625371 C27.7480267,23.1985353 28.4752872,23.47877 29.0623321,23.9615153 Z M20.9167862,21.5654971 L21.0643039,22.2041298 C21.1261008,22.4847089 21.2968518,22.7292357 21.5389769,22.8838932 C21.7811017,23.0385507 22.0747572,23.0906638 22.3553134,23.0287632 L24.314276,22.5953726 C24.6458613,22.5245388 24.9395601,22.3336345 25.1389093,22.0593609 C25.3514816,21.7765422 25.4052354,21.3978216 25.300171,20.9231992 C25.2030476,20.4858381 25.012771,20.1740046 24.7293414,19.9876984 C24.4618019,19.8038051 24.128995,19.7415702 23.813082,19.816358 L21.7414195,20.2744877 C21.4608407,20.3362846 21.2163136,20.5070356 21.0616561,20.7491606 C20.9069986,20.9912854 20.8548855,21.2849409 20.9167862,21.5654971 Z M26.7808462,27.2160684 L26.7845112,27.2160684 C26.9903719,26.8817707 27.0493684,26.4774124 26.9476054,26.098232 C26.8738329,25.7148696 26.6651425,25.370628 26.3593669,25.1279135 C26.0827521,24.8981401 25.7142822,24.8116209 25.3643092,24.8942673 L22.8803299,25.4440228 C22.599751,25.5058199 22.355224,25.6765708 22.2005665,25.9186958 C22.045909,26.1608207 21.9937959,26.4544761 22.0556966,26.7350322 L22.2307021,27.5248477 C22.292499,27.8054268 22.46325,28.0499537 22.705375,28.2046112 C22.9474999,28.3592688 23.2411554,28.4113819 23.5217116,28.3494811 L25.8746656,27.8290459 C26.2485376,27.7589262 26.5766284,27.5369922 26.7808462,27.2160684 Z M31.7277306,35.2910619 L34.0275417,32.542284 C34.130418,32.4183697 34.1525227,32.2462057 34.0842867,32.1003217 C34.0160506,31.9544377 33.8697364,31.8610505 33.7086834,31.8605869 L32.1592888,31.8605869 C31.9295484,31.8605869 31.743307,31.6743456 31.743307,31.4446053 L31.743307,31.1211657 C31.743307,30.8914254 31.9295484,30.7051839 32.1592888,30.7051839 L35.6969662,30.7051839 C35.8072915,30.7051839 35.9130981,30.7490105 35.9911098,30.8270221 C36.0691215,30.9050338 36.112948,31.0108405 36.112948,31.1211657 L36.112948,31.5463101 C36.11248,31.6403175 36.0801831,31.7313945 36.021322,31.8046951 L33.8222995,34.5681333 C33.7232682,34.6930802 33.7043628,34.8636371 33.7736271,35.0072386 C33.8428915,35.1508401 33.9881386,35.2422202 34.1475717,35.2425001 L35.724454,35.2425001 C35.9541945,35.2425001 36.1404358,35.4287415 36.1404358,35.658482 L36.1404358,35.980089 C36.1404358,36.0904142 36.0966093,36.1962207 36.0185976,36.2742326 C35.9405859,36.3522442 35.8347793,36.3960706 35.724454,36.3960706 L32.0465889,36.3960706 C31.8168484,36.3960706 31.6306071,36.2098293 31.6306071,35.980089 L31.6306071,35.5604422 C31.6300813,35.4619842 31.6644963,35.3665315 31.7277306,35.2910619 Z" id="Shape" fill="#FFFFFF"></path>
        </g>
    </g>
</svg>