<?xml version="1.0" encoding="UTF-8"?>
<svg width="48px" height="48px" viewBox="0 0 48 48" version="1.1" xmlns="http://www.w3.org/2000/svg" xmlns:xlink="http://www.w3.org/1999/xlink">
    <!-- Generator: Sketch 49.1 (51147) - http://www.bohemiancoding.com/sketch -->
    <title>btg</title>
    <desc>Created with Sketch.</desc>
    <defs></defs>
    <g id="48px" stroke="none" stroke-width="1" fill="none" fill-rule="evenodd">
        <g id="btg" fill-rule="nonzero">
            <circle id="Oval" fill="#EBA809" cx="24" cy="24" r="24"></circle>
            <path d="M24,40.5 C14.8873016,40.5 7.5,33.1126983 7.5,24 C7.5,14.8873016 14.8873016,7.5 24,7.5 C33.1126983,7.5 40.5,14.8873016 40.5,24 C40.5,33.1126983 33.1126983,40.5 24,40.5 Z M22.5172836,10.1104725 C22.5204561,11.4229648 22.5215136,12.7354571 22.5204561,14.0479494 C23.175759,14.0479494 23.83115,14.0490056 24.486629,14.051118 C24.4898016,12.7044756 24.4929741,11.3578331 24.486629,10.013039 C23.831238,10.0349549 23.1726746,10.0658485 22.5172836,10.1107366 L22.5172836,10.1104725 Z M27.2467266,14.1110568 C28.9739025,14.3431546 30.8300946,14.6072021 32.2069708,15.7721799 C34.3085049,17.6574793 34.0375182,21.6168721 31.4632779,22.9827901 C33.004068,23.3416308 34.5300529,24.3677194 34.9102273,25.9852748 C35.4048769,28.1066327 35.0109549,30.6496746 33.3065154,32.1447117 C31.6176741,33.5328096 29.3300185,33.7152665 27.2411746,33.9138303 C27.2506921,35.1413873 27.2475196,36.3694724 27.2443471,37.5994059 C31.6398817,36.5260525 35.4334298,33.2560878 37.0466591,29.0260463 C38.5779316,25.1234235 38.2157349,20.5313727 36.0541872,16.9368936 C34.1448554,13.6951819 30.8988327,11.312681 27.2538648,10.3998686 C27.2443471,11.6366673 27.2443471,12.87373 27.2475196,14.1105287 L27.2467266,14.1110568 Z M14.1272744,14.0577192 C16.0307899,14.1490797 17.9366848,14.1300682 19.8428442,14.1268997 C19.8428442,12.9687871 19.8460167,11.8104106 19.8364992,10.6522981 C17.7032398,11.3446307 15.8034256,12.584862 14.1259525,14.0585113 L14.1272744,14.0577192 Z M11.9043912,17.0422485 C9.6640592,20.8537747 9.41210777,25.7415588 11.2804611,29.7513847 C12.8931618,33.3456 16.0921254,36.1413352 19.8380855,37.3459201 C19.8444305,36.1907122 19.841258,35.0325997 19.841258,33.8776557 C17.9287536,33.8586442 16.0130768,33.9280888 14.1042736,33.8248462 C14.1262169,32.7609987 14.3752602,31.7193312 14.7387788,30.7183269 C15.6746739,30.6993154 16.6512831,30.863025 17.5557174,30.5577859 C18.0844717,30.1139222 17.9337768,29.380662 17.9620652,28.7733526 C17.9337768,25.3019197 17.9747552,21.8302225 17.94303,18.3587896 C17.9776634,17.7984807 17.6257773,17.1943399 17.0441477,17.0842321 C16.0831367,16.8922695 15.0970098,16.9677871 14.1264813,16.96145 C14.0130635,16.1809255 14.0003734,15.3908952 13.9879476,14.600865 C14.0152666,14.4204325 13.9794876,14.2662287 13.8806105,14.1382537 C13.3317635,15.1793931 12.4590545,16.0040136 11.9043912,17.0422485 Z M22.6000337,17.1948681 L22.6000337,22.3126376 C24.3108181,22.2812159 26.2077243,22.471066 27.7043634,21.4785113 C28.9469361,20.6665652 28.8676229,18.6080505 27.5846006,17.8779591 C26.0879615,16.9904952 24.2603222,17.2421325 22.6000337,17.1948681 Z M22.6000337,25.0663893 L22.6000337,30.7434114 C24.7110852,30.5733648 27.0804333,30.9282447 28.9186478,29.6544793 C30.2326022,28.7831225 30.0750334,26.6266463 28.7201004,25.8714702 C26.8800354,24.7730325 24.6428758,25.1223673 22.6010912,25.0658611 L22.6000337,25.0663893 Z M22.5217779,33.9539655 C22.5217779,35.2664579 22.5196629,36.5799183 22.5154329,37.894347 C23.1991122,37.9384428 23.8827917,37.9666959 24.5667353,37.9857073 C24.5730804,36.6417054 24.5699078,35.2979675 24.5699078,33.9539655 L22.5217779,33.9539655 Z" id="Shape" fill="#FFFFFF"></path>
        </g>
    </g>
</svg>