<?xml version="1.0" encoding="UTF-8"?>
<svg width="48px" height="48px" viewBox="0 0 48 48" version="1.1" xmlns="http://www.w3.org/2000/svg" xmlns:xlink="http://www.w3.org/1999/xlink">
    <!-- Generator: Sketch 49.1 (51147) - http://www.bohemiancoding.com/sketch -->
    <title>btm</title>
    <desc>Created with Sketch.</desc>
    <defs></defs>
    <g id="48px" stroke="none" stroke-width="1" fill="none" fill-rule="evenodd">
        <g id="btm" fill-rule="nonzero">
            <circle id="Oval" fill="#504C4C" cx="24" cy="24" r="24"></circle>
            <path d="M16.24035,23.06325 L13.6233,28.6113 L14.8413,33.1587 L17.9397,33.98685 L21.7866,37.8372 L20.6274,39 L11.46,36.54 L9,27.3726 L10.8459,25.53015 L18.8574,17.5152 L16.24035,23.06325 L13.6233,28.6113 L21.7866,20.448 L18.8574,17.5152 L16.24035,23.06325 Z M20.448,26.2134 L28.6113,34.3767 L33.1587,33.1587 L33.9903,30.06045 L37.8372,26.2134 L39,27.3726 L36.54345,36.54345 L27.3726,39 L17.51865,29.1426 L20.448,26.2134 Z M27.552,21.7866 L19.3887,13.6233 L14.83785,14.8413 L14.00985,17.93625 L10.1628,21.7866 L9,20.6274 L11.46,11.45655 L20.6274,9 L22.46985,10.8459 L30.48135,18.85395 L27.552,21.7866 Z M30.06045,14.00985 L26.2134,10.1628 L27.3726,9 L36.54345,11.45655 L39,20.6274 L29.1426,30.48135 L26.2134,27.552 L34.38015,19.38525 L33.1587,14.83785 L30.06045,14.00985 Z" id="Shape" fill="#FFFFFF"></path>
        </g>
    </g>
</svg>