<?xml version="1.0" encoding="UTF-8"?>
<svg width="48px" height="48px" viewBox="0 0 48 48" version="1.1" xmlns="http://www.w3.org/2000/svg" xmlns:xlink="http://www.w3.org/1999/xlink">
    <!-- Generator: Sketch 49.1 (51147) - http://www.bohemiancoding.com/sketch -->
    <title>bts</title>
    <desc>Created with Sketch.</desc>
    <defs></defs>
    <g id="48px" stroke="none" stroke-width="1" fill="none" fill-rule="evenodd">
        <g id="bts" fill-rule="nonzero">
            <circle id="Oval" fill="#35BAEB" cx="24" cy="24" r="24"></circle>
            <path d="M16.5,19.8035875 L22.8148317,26.3194084 C22.562511,26.6988631 22.3835068,27.1342887 22.2988954,27.6039381 L16.5,27.6039381 L16.5,19.8035875 Z M16.5,18.0506002 L16.5,7.5 L24.9091953,15.2084464 L24.9091953,24.9105573 C24.4540329,24.9978616 24.0320387,25.1825632 23.6642888,25.4429148 L16.5,18.0506002 Z M32.2914222,34.3446336 L28.2048726,30.1280169 C28.4571933,29.7485622 28.6361974,29.3131365 28.7208088,28.8434872 L34.5,28.8434872 C34.365984,30.9443778 33.555602,32.8546441 32.2914222,34.3446336 Z M31.4419651,35.2211272 C29.9979363,36.5255435 28.1465947,37.3617184 26.110509,37.5 L26.110509,31.536868 C26.5656713,31.4495637 26.9876656,31.2648621 27.3554156,31.0045105 L31.4419651,35.2211272 Z M16.5197043,28.8434872 L22.2988954,28.8434872 C22.3835068,29.3131365 22.562511,29.7485622 22.8148317,30.1280169 L18.7282821,34.3446336 C17.4641024,32.8546441 16.6537203,30.9443778 16.5197043,28.8434872 Z M34.5,27.6039381 L28.7208088,27.6039381 C28.6361974,27.1342887 28.4571933,26.6988632 28.2048726,26.3194084 L32.2914222,22.1027916 C33.555602,23.5927812 34.365984,25.5030474 34.5,27.6039381 Z M19.5777391,35.2211272 L23.6642888,31.0045105 C24.0320387,31.2648621 24.4540329,31.4495637 24.9091953,31.536868 L24.9091953,37.5 C22.8731096,37.3617184 21.021768,36.5255435 19.5777391,35.2211272 Z M31.4419651,21.2262981 L27.3554156,25.4429148 C26.9876656,25.1825633 26.5656713,24.9978616 26.110509,24.9105573 L26.110509,18.9474253 C28.1465947,19.0857067 29.9979363,19.9218819 31.4419651,21.2262981 Z" id="Shape" fill="#FFFFFF"></path>
        </g>
    </g>
</svg>