<?xml version="1.0" encoding="UTF-8"?>
<svg width="48px" height="48px" viewBox="0 0 48 48" version="1.1" xmlns="http://www.w3.org/2000/svg" xmlns:xlink="http://www.w3.org/1999/xlink">
    <!-- Generator: Sketch 49.1 (51147) - http://www.bohemiancoding.com/sketch -->
    <title>btx</title>
    <desc>Created with Sketch.</desc>
    <defs></defs>
    <g id="48px" stroke="none" stroke-width="1" fill="none" fill-rule="evenodd">
        <g id="btx" fill-rule="nonzero">
            <circle id="Oval" fill="#FB2EA3" cx="24" cy="24" r="24"></circle>
            <path d="M33.9481845,21.0302769 C33.6077536,23.3320615 32.3316921,24.4464 30.6376614,24.8370462 C32.9638152,26.0481231 34.1475691,27.9053538 33.0199383,31.1250462 C31.6205536,35.1238154 28.2959998,35.4612922 23.8748307,34.6246153 L22.801846,38.9246769 L20.2091076,38.2785231 L21.2680614,34.0360615 C20.5960614,33.8691693 19.9092921,33.6919384 19.2018461,33.4999384 L18.1391999,37.7623385 L15.5494152,37.1161846 L16.6223999,32.808 C16.0168614,32.6529231 15.401723,32.4882462 14.7740306,32.3309538 L11.3999999,31.4898462 L12.6871383,28.5219693 C12.6871383,28.5219693 14.5975383,29.0300307 14.5716922,28.9923693 C15.305723,29.1740307 15.6313845,28.6955078 15.7598768,28.3764922 L17.4553845,21.5789538 C17.5506461,21.6018462 17.6429536,21.6254769 17.7293537,21.6468923 C17.6259692,21.6055384 17.5321845,21.5789538 17.4598152,21.5604922 L18.6694152,16.7080615 C18.7011691,16.1571693 18.5113845,15.4622769 17.4612921,15.2001231 C17.5019076,15.1728 15.5782152,14.7319385 15.5782152,14.7319385 L16.2679383,11.9627077 L19.8435692,12.8555077 L19.8406152,12.8688 C20.3782152,13.0024615 20.9320614,13.1294769 21.496246,13.2579692 L22.5588921,9 L25.1501537,9.64615385 L24.1089229,13.8206769 C24.8045536,13.9794462 25.5046152,14.1396923 26.1862152,14.3095385 L27.2200614,10.1623385 L29.8127998,10.8084923 L28.7508921,15.0679384 C32.0244921,16.1955693 34.4185845,17.8859078 33.9481845,21.0302769 Z M28.0242461,29.3372307 C28.8616614,25.9794462 23.225723,25.1110154 21.4681845,24.6723693 L20.0444307,30.3799384 C21.8019692,30.8163693 27.2230152,32.5569231 28.0242461,29.3372307 Z M28.8262152,20.9837538 C29.5875692,17.9287384 24.8739692,17.2478769 23.4103383,16.8830769 L22.1195076,22.0596923 C23.5831383,22.4244923 28.0951383,23.9124922 28.8262152,20.9837538 Z M36.3705468,32.4265407 C36.0804789,32.4026781 35.842574,32.4662904 35.6568249,32.6173792 C35.4710757,32.7684682 35.34581,32.9843194 35.2810238,33.2649394 C35.2513301,33.3935569 35.2415354,33.5360031 35.2516395,33.6922821 C35.2617435,33.8485612 35.3125469,34.0019187 35.4040509,34.1523589 C35.4955551,34.3027993 35.6385512,34.4435734 35.8330433,34.5746854 C36.0275354,34.7057974 36.2972418,34.8111684 36.6421704,34.8908014 C36.8292504,34.9339923 37.021389,34.9552594 37.2185918,34.9546033 C37.4157947,34.9539472 37.5986066,34.9222596 37.7670332,34.8595393 C37.9354596,34.7968189 38.0825253,34.6999194 38.2082348,34.5688374 C38.3339442,34.4377555 38.4217673,34.2640615 38.4717066,34.0477503 C38.5391922,33.7554378 38.5042517,33.4933633 38.3668836,33.2615191 C38.2295154,33.0296749 38.0025387,32.8525785 37.6859465,32.7302245 L37.9167462,31.7305209 C38.485622,31.9603819 38.8856123,32.2882614 39.116729,32.7141691 C39.3478457,33.1400769 39.3959177,33.6453357 39.2609463,34.2299605 C39.1786139,34.5865818 39.0461448,34.8869787 38.863535,35.1311602 C38.6809253,35.3753416 38.4642572,35.5670121 38.2135245,35.7061773 C37.9627919,35.8453425 37.6830615,35.9300874 37.3743249,35.9604145 C37.0655885,35.9907417 36.7446069,35.9674389 36.4113707,35.8905052 C36.0722882,35.8122219 35.7644699,35.6918943 35.4879066,35.529519 C35.2113432,35.3671435 34.9850433,35.1671118 34.8089997,34.9294176 C34.6329561,34.6917232 34.5141447,34.4195224 34.4525616,34.1128068 C34.3909787,33.806091 34.4033778,33.4656583 34.4897595,33.0914983 C34.5504966,32.8284171 34.6418114,32.5862544 34.7637066,32.365003 C34.8856019,32.1437517 35.0350371,31.9565719 35.2120167,31.8034585 C35.3889965,31.6503451 35.5932897,31.5389475 35.8249028,31.4692624 C36.0565158,31.3995774 36.3153278,31.3854357 36.6013466,31.4268369 L36.3705468,32.4265407 Z M40.4088715,29.2577502 C40.3251894,29.6202177 40.1906956,29.9293837 40.0053865,30.1852578 C39.8200773,30.4411317 39.5995858,30.6426955 39.3439054,30.7899552 C39.088225,30.9372148 38.802423,31.0282552 38.4864904,31.0630789 C38.170558,31.0979026 37.8372093,31.0748235 37.4864343,30.9938407 C37.1415055,30.9142077 36.8346996,30.7894954 36.5660071,30.6197004 C36.2973145,30.4499053 36.0803467,30.2427915 35.9150971,29.9983524 C35.7498475,29.7539134 35.6400309,29.476092 35.5856439,29.1648798 C35.5312569,28.8536674 35.5459042,28.5168327 35.6295864,28.1543652 C35.7132687,27.7918977 35.8477623,27.4827316 36.0330715,27.2268577 C36.2183808,26.9709837 36.4388722,26.7694198 36.6945526,26.6221602 C36.9502329,26.4749005 37.2360351,26.3838601 37.5519675,26.3490364 C37.8679,26.3142127 38.1983256,26.336617 38.5432543,26.4162501 C38.8940293,26.497233 39.2037585,26.6226199 39.4724509,26.792415 C39.7411434,26.96221 39.9581112,27.1693239 40.1233608,27.413763 C40.2886104,27.6582019 40.398427,27.9360234 40.4528142,28.2472356 C40.5072012,28.5584479 40.4925538,28.8952827 40.4088715,29.2577502 Z M36.4731003,25.0608274 L36.689728,24.122509 L37.5666612,24.324965 L37.5707103,24.3074264 C37.4546876,24.2498511 37.3480008,24.1651823 37.2506466,24.0534174 C37.1532926,23.9416526 37.0702197,23.8147128 37.0014257,23.6725944 C36.9326316,23.530476 36.8858756,23.3795925 36.8611559,23.2199391 C36.8364362,23.0602857 36.8416226,22.9044601 36.8767151,22.7524576 C36.9037093,22.6355326 36.9251907,22.5558228 36.9411599,22.5133255 C36.9571289,22.4708284 36.9734352,22.4268703 36.9900792,22.38145 L37.9547055,22.6041516 C37.9268165,22.6716072 37.900052,22.7408607 37.8744111,22.8119142 C37.8487704,22.8829678 37.827852,22.9535711 37.8116555,23.023726 C37.7725137,23.1932673 37.76935,23.3603359 37.8021642,23.5249369 C37.8349784,23.6895381 37.9043325,23.8425599 38.0102286,23.9840071 C38.1161247,24.1254544 38.2581102,24.2506009 38.4361896,24.3594501 C38.614269,24.4682994 38.8289999,24.5517417 39.0803886,24.6097794 L41.2376439,25.1078209 L41.0068442,26.1075246 L36.4731003,25.0608274 Z M39.8914982,21.7766257 C40.0668857,21.8171172 40.2421605,21.831412 40.4173281,21.8195109 C40.5924957,21.8076097 40.7529353,21.7661386 40.8986516,21.6950964 C41.044368,21.6240541 41.1713096,21.5209689 41.2794803,21.3858379 C41.3876508,21.2507069 41.4660299,21.0779114 41.5146195,20.8674464 C41.5821053,20.5751339 41.5735841,20.3253166 41.4890559,20.1179872 C41.4045279,19.9106578 41.2466946,19.73413 41.0155517,19.5883986 L41.234204,18.6413109 C41.4675992,18.7506152 41.66591,18.8918441 41.8291425,19.0650021 C41.9923751,19.2381601 42.1188392,19.4305374 42.2085387,19.6421397 C42.2982383,19.853742 42.3507212,20.0798409 42.3659891,20.3204431 C42.381257,20.5610455 42.3605472,20.8041142 42.3038594,21.0496567 C42.2215268,21.406278 42.0901818,21.7084738 41.9098203,21.9562533 C41.7294588,22.2040327 41.5121159,22.3986262 41.2577853,22.5400396 C41.0034546,22.6814532 40.7190021,22.7666473 40.4044194,22.7956248 C40.0898367,22.8246022 39.7571628,22.7986 39.4063878,22.7176171 C39.0848441,22.643383 38.7911919,22.5217075 38.5254225,22.3525875 C38.2596533,22.1834673 38.0390874,21.9786017 37.8637188,21.7379843 C37.6883501,21.4973668 37.5674022,21.2277517 37.5008715,20.9291305 C37.4343408,20.6305093 37.4402171,20.3116623 37.5185004,19.9725798 C37.600833,19.6159585 37.7492672,19.3130898 37.9638077,19.0639644 C38.1783482,18.814839 38.4299813,18.6250831 38.7187145,18.494691 C39.0074478,18.364299 39.3209055,18.2934984 39.6590969,18.2822871 C39.9972884,18.2710759 40.3311963,18.3250729 40.6608308,18.44428 L39.8914982,21.7766257 Z M39.6196319,29.0755398 C39.6709209,28.8533823 39.6686915,28.6496615 39.6129435,28.4643711 C39.5571954,28.2790806 39.4654691,28.1162754 39.3377613,27.9759504 C39.2100537,27.8356253 39.0569369,27.7186851 38.8784064,27.6251264 C38.6998758,27.5315676 38.5112271,27.4618442 38.3124546,27.4159539 C38.1195284,27.3714134 37.9208688,27.3517197 37.71647,27.3568722 C37.5120713,27.3620249 37.3231875,27.400008 37.1498133,27.4708227 C36.9764391,27.5416376 36.8240883,27.6480932 36.6927564,27.7901928 C36.5614245,27.9322923 36.4701153,28.1144181 36.4188263,28.3365756 C36.3675371,28.5587331 36.3697665,28.762454 36.4255146,28.9477443 C36.4812626,29.1330348 36.5715275,29.2955027 36.696312,29.4351528 C36.8210966,29.574803 36.9742134,29.6917431 37.1556671,29.7859769 C37.3371207,29.8802105 37.5243078,29.9495966 37.7172341,29.9941371 C37.9160066,30.0400272 38.1161277,30.0600584 38.3176034,30.0542309 C38.519079,30.0484035 38.7079628,30.0104204 38.88426,29.9402804 C39.0605574,29.8701405 39.2143697,29.7640223 39.3457017,29.6219228 C39.4770336,29.4798231 39.5683428,29.2976973 39.6196319,29.0755398 Z M39.7723313,19.2921419 C39.6117831,19.2673921 39.4520221,19.2659155 39.2930436,19.287712 C39.134065,19.3095085 38.989365,19.3561529 38.8589391,19.4276463 C38.7285134,19.4991397 38.6138269,19.5958176 38.5148769,19.7176827 C38.4159267,19.8395479 38.3468819,19.9852489 38.3077403,20.1547902 C38.2672488,20.3301777 38.261162,20.4965715 38.2894797,20.6539765 C38.3177973,20.8113816 38.3742231,20.9537215 38.4587588,21.0810006 C38.5432944,21.2082798 38.6515527,21.3194818 38.7835369,21.4146102 C38.9155212,21.5097387 39.0656068,21.5797959 39.2337984,21.6247837 L39.7723313,19.2921419 Z" id="Shape" fill="#FFFFFF"></path>
        </g>
    </g>
</svg>