<?xml version="1.0" encoding="UTF-8"?>
<svg width="48px" height="48px" viewBox="0 0 48 48" version="1.1" xmlns="http://www.w3.org/2000/svg" xmlns:xlink="http://www.w3.org/1999/xlink">
    <!-- Generator: Sketch 49.1 (51147) - http://www.bohemiancoding.com/sketch -->
    <title>burst</title>
    <desc>Created with Sketch.</desc>
    <defs></defs>
    <g id="48px" stroke="none" stroke-width="1" fill="none" fill-rule="evenodd">
        <g id="burst" fill-rule="nonzero">
            <circle id="Oval" fill="#2D2D2D" cx="24" cy="24" r="24"></circle>
            <path d="M17.5593496,28.9442685 L6,25.1530833 L13.7329014,25.1530833 L14.4980837,21.4884708 L21.3642679,21.4932528 L23.0780604,12 L29.9865673,12 C34.663747,12 36.5599275,13.8817672 35.858337,17.7673506 L35.7083868,18.6006534 C35.2993033,20.8629949 34.2663063,22.3686646 32.4900484,23.2364283 C34.2489432,24.1376019 34.8410466,25.8383116 34.3983193,28.2925764 L34.0562007,30.1908948 C33.3722002,33.9794206 30.5838415,36 26.0585884,36 L18.7461544,36 L20.6395338,25.5100414 L18.3462217,25.5097763 L17.5593496,28.9442685 Z M25.1582968,24.8237775 L23.7423988,32.6679585 L26.6598436,32.6679585 C28.3897564,32.6679585 29.3526859,31.900056 29.6788852,30.0895498 L30.0459343,28.0585008 C30.4634707,25.7441743 29.6622926,24.8237775 27.3930087,24.8237775 L25.1582968,24.8237775 Z M26.8717937,15.3303765 L25.6357545,22.1766784 L27.754095,22.1766784 C29.6866568,22.1766784 30.8165852,21.349771 31.1631701,19.431918 L31.3973708,18.132666 C31.735113,16.2610786 31.0363817,15.3299898 29.2657273,15.3299898 L27.1487901,15.3303316 L26.8717937,15.3303765 Z" id="Shape" fill="#FFFFFF"></path>
        </g>
    </g>
</svg>