<?xml version="1.0" encoding="UTF-8"?>
<svg width="48px" height="48px" viewBox="0 0 48 48" version="1.1" xmlns="http://www.w3.org/2000/svg" xmlns:xlink="http://www.w3.org/1999/xlink">
    <!-- Generator: Sketch 49.1 (51147) - http://www.bohemiancoding.com/sketch -->
    <title>cdn</title>
    <desc>Created with Sketch.</desc>
    <defs></defs>
    <g id="48px" stroke="none" stroke-width="1" fill="none" fill-rule="evenodd">
        <g id="cdn" fill-rule="nonzero">
            <circle id="Oval" fill="#F70808" cx="24" cy="24" r="24"></circle>
            <path d="M23.9994368,9 L21.5105435,13.5244651 C21.2281255,14.0161991 20.7221181,13.9705899 20.2161098,13.695941 L18.4142174,12.7865308 L19.7571958,19.7360142 C20.0396138,21.0056455 19.1334906,21.0056455 18.6863145,20.4566791 L15.5416619,17.0254975 L15.031133,18.7679331 C14.9722601,18.9967524 14.7134061,19.2370845 14.3250641,19.1798521 L10.3486149,18.3649814 L11.3930548,22.0659414 C11.6166415,22.8894464 11.7910443,23.2304056 11.1673348,23.447601 L9.75,24.0968632 L16.5951999,29.5161258 C16.8661368,29.7210333 17.0030252,30.0897792 16.9065698,30.4236529 L16.307469,32.339889 C18.6643725,32.0750919 20.7761946,31.6767111 23.1342917,31.43136 C23.3424633,31.4097003 23.6909678,31.744539 23.6895384,31.9796679 L23.3772521,39 L24.5231903,39 L24.3428063,31.9947235 C24.341369,31.7595947 24.6575352,31.4097003 24.8657069,31.43136 C27.2238041,31.6767119 29.335629,32.0750919 31.6925318,32.339889 L31.0934324,30.4236529 C30.9969771,30.0897792 31.1338647,29.7210333 31.4048016,29.5161258 L38.25,24.0968632 L36.8326667,23.447601 C36.2089557,23.2304057 36.3833586,22.8894464 36.6069452,22.0659414 L37.6513874,18.3649814 L33.674936,19.1798522 C33.2865939,19.2370845 33.02774,18.9967524 32.9688656,18.7679331 L32.4583374,17.0254976 L29.3136863,20.4566791 C28.8665087,21.0056456 27.9603848,21.0056456 28.2428028,19.7360142 L29.5857789,12.7865309 L27.7838903,13.695941 C27.2778696,13.9705899 26.7718745,14.0161991 26.4894558,13.5244651 L23.9994368,9 Z" id="Shape" fill="#FFFFFF"></path>
        </g>
    </g>
</svg>