<?xml version="1.0" encoding="UTF-8"?>
<svg width="48px" height="48px" viewBox="0 0 48 48" version="1.1" xmlns="http://www.w3.org/2000/svg" xmlns:xlink="http://www.w3.org/1999/xlink">
    <!-- Generator: Sketch 49.1 (51147) - http://www.bohemiancoding.com/sketch -->
    <title>clam</title>
    <desc>Created with Sketch.</desc>
    <defs></defs>
    <g id="48px" stroke="none" stroke-width="1" fill="none" fill-rule="evenodd">
        <g id="clam" fill-rule="nonzero">
            <circle id="Oval" fill="#20C5D3" cx="24" cy="24" r="24"></circle>
            <path d="M26.7139361,11.8059364 L26.7139361,11.6716398 C26.9805498,11.5591175 27.5076906,11.4524626 28.4125893,11.6955003 C29.4495378,11.9742634 30.2508342,13.0165613 30.6181392,13.576565 C30.6174775,13.6870011 30.616419,13.8063034 30.6149635,13.9377315 C30.5969688,15.9447481 29.9582869,20.9066805 28.8508147,24.6274779 C27.8838606,27.8778462 25.7725186,32.2029781 25.3446136,33.065475 C25.142437,33.0212745 24.9298077,32.9867224 24.7047408,32.9654697 C24.8828361,31.8682797 25.6619037,26.9845783 26.1529227,22.5341464 C26.6733156,17.8127743 26.7139361,13.1289532 26.7139361,11.8059364 Z M31.0628481,13.9415127 L31.0629804,13.9241715 C31.4543665,13.916218 32.3174539,13.9861043 33.3025351,14.6200363 C34.256787,15.2337586 34.7484676,16.401226 34.9542166,17.0282476 L34.8586855,17.3978892 C34.6254151,18.301327 32.9033424,22.9554204 31.0509397,26.4638205 C29.4802347,29.4381638 26.9695677,32.7269955 26.422315,33.4315962 C26.2163178,33.3335788 26.0035567,33.2500117 25.7856177,33.1815177 C26.2944992,32.1510849 28.3308189,27.9443425 29.2805721,24.7517349 C30.3990264,20.9928651 31.0445887,15.9736936 31.0628481,13.9415127 Z M31.4482802,26.6676123 C33.2122966,23.3270177 34.9953665,18.6394154 35.28884,17.5220157 C35.6773152,17.6632227 36.5110287,18.035472 37.0544442,18.7767108 C37.5186033,19.4101212 37.671162,20.2662293 37.7210445,20.804589 L37.5387152,21.2287315 C37.1886111,22.0423341 35.0480276,25.7962492 32.8939481,28.4699245 C31.0277847,30.7864752 28.2239088,33.53447 27.551619,34.1853519 C27.325904,33.9827838 27.0809178,33.8021055 26.8200524,33.6458187 C27.4519862,32.8284351 29.8995393,29.6002323 31.4482802,26.6676123 Z M16.5073302,14.288728 C16.4877477,14.1365686 16.4704144,14.0004467 16.4544044,13.8782759 C16.6987893,13.3450012 17.2388968,12.4576007 18.2729345,11.9850854 C19.3966812,11.4716292 20.2719416,11.6121842 20.664254,11.7256192 C20.6653124,11.7556078 20.6658417,11.7827278 20.6667678,11.8134987 C20.697994,12.706245 20.9321907,17.1000898 21.5077587,22.2857629 C22.0346349,27.0302131 22.8852846,32.0755918 23.0496192,33.0347041 C22.825234,33.0754936 22.6038303,33.1308541 22.3868559,33.2004235 C21.9698007,32.3152396 20.1134288,28.294687 18.8650417,24.2665722 C17.4730935,19.7749386 16.6755019,15.6044433 16.5073302,14.288728 Z M21.1143877,11.798374 C21.112006,11.7269231 21.1104183,11.6605571 21.1086982,11.5936696 C21.5194023,11.224028 22.4761683,10.5 23.6717617,10.5 C24.8674876,10.5 25.8446299,11.2241584 26.2661839,11.5939303 L26.2661839,11.805806 C26.2661839,13.1232163 26.2256956,17.7870885 25.7071552,22.4862951 C25.2103144,26.991228 24.4170892,31.9449462 24.2550039,32.9414788 C24.2157066,32.9409573 24.1778646,32.9388711 24.1381702,32.9388711 C23.9226726,32.9389368 23.707325,32.9500781 23.4930049,32.9722497 C23.3344921,32.0488631 22.4806669,26.9916192 21.9531291,22.2379116 C21.3790167,17.0655378 21.1454815,12.6875999 21.1143877,11.7983741 Z M24.1383025,33.380094 C26.5632298,33.380094 27.6804933,34.8512283 28.0185567,35.4114927 C26.1805764,36.7007398 24.6852906,37.5 24.1569589,37.5 C23.6299504,37.5 22.3176555,36.8397303 20.2523589,35.3472129 C20.5819543,34.8147204 21.6963067,33.380094 24.1383025,33.380094 Z M37.9394957,21.4267864 C38.3082561,21.6664341 39.0661535,22.3145779 38.9953652,23.5588423 C38.9022158,25.1956959 36.0927827,28.4418918 32.5652789,31.7248561 C31.2431405,32.9526019 29.8449306,34.0982822 28.3787168,35.1552861 C28.2289475,34.9214319 28.0581953,34.7012859 27.8685122,34.4974936 C28.5523133,33.834877 31.3669068,31.0760604 33.2445813,28.7446458 C35.4031596,26.0648424 37.5535344,22.3012788 37.9394957,21.4267864 Z M10.2296702,21.1102116 C10.1205136,20.8385979 10.0171095,20.5647735 9.91952505,20.2889163 C9.92402374,19.8673815 10.0042063,19.3719184 10.2656597,18.8960131 C10.7769228,17.9651944 12.0792941,17.5396177 12.5955852,17.4034957 L12.5979669,17.41171 L12.6539359,17.6065053 C13.0282535,18.9137455 13.9048369,21.9751858 16.2118721,26.4000622 C18.2713467,30.3498157 20.5093137,33.079035 21.1358226,33.810495 C20.9682933,33.9256311 20.8086005,34.0514615 20.6577705,34.1871774 C20.0100912,33.6369525 17.4289005,31.3799879 14.7930639,28.1918133 C12.5701808,25.5039261 11.034936,23.1212702 10.2296702,21.1102116 Z M20.3411419,34.5008836 C20.174886,34.6822134 20.0243994,34.8769996 19.8912727,35.0831832 C18.8129098,34.287313 17.5466604,33.2800887 16.0937151,32.03765 C11.5770284,28.1753847 9.10380634,25.4898444 9.00589363,23.7930138 C8.93100365,22.4981601 9.58873887,21.7672217 9.90510277,21.4928916 C10.7486075,23.498474 12.2735318,25.8439703 14.4456061,28.4708372 C17.0691375,31.6438871 19.6433154,33.906328 20.3411419,34.5008836 Z M13.0289151,17.2905823 C12.9709614,17.0907021 12.9265037,16.9261561 12.8914404,16.7879481 C13.0069509,16.2394183 13.2916916,15.4166887 13.9893858,14.9094911 C14.8110587,14.3123277 15.6611791,14.2724298 16.0565347,14.2935522 L16.0628859,14.3440112 C16.2325131,15.6719826 17.0361912,19.8765085 18.4366075,24.3953926 C19.6779819,28.401342 21.5164914,32.3993379 21.9664929,33.356364 C21.8133869,33.4208718 21.6638401,33.4932927 21.5184761,33.5733246 C20.9713557,32.9393927 18.7009718,30.2082177 16.6102708,26.1983567 C14.3234799,21.8127261 13.4557616,18.7811439 13.0850164,17.4866814 L13.0289151,17.2905823 Z" id="Shape" fill="#FFFFFF"></path>
        </g>
    </g>
</svg>