<?xml version="1.0" encoding="UTF-8"?>
<svg width="48px" height="48px" viewBox="0 0 48 48" version="1.1" xmlns="http://www.w3.org/2000/svg" xmlns:xlink="http://www.w3.org/1999/xlink">
    <!-- Generator: Sketch 49.1 (51147) - http://www.bohemiancoding.com/sketch -->
    <title>cloak</title>
    <desc>Created with Sketch.</desc>
    <defs></defs>
    <g id="48px" stroke="none" stroke-width="1" fill="none" fill-rule="evenodd">
        <g id="cloak" fill-rule="nonzero">
            <circle id="Oval" fill="#FF3A00" cx="24" cy="24" r="24"></circle>
            <path d="M24.0046791,7.5 C33.1033558,7.51470201 40.5030067,14.9188352 40.4999991,24.0046779 C40.4966572,33.1005447 33.0926617,40.5 23.9946534,40.5 L23.9789464,40.5 C14.8879562,40.4909783 7.49565744,33.0798282 7.50000192,23.9796177 C7.50468058,14.8927725 14.9086761,7.5 24.0046791,7.5 Z M24.0003346,9.62677953 C16.0840248,9.62711367 9.64149608,16.0732771 9.63882255,23.9963245 C9.6368174,31.9110185 16.0706573,38.3551771 23.9812858,38.3608573 C31.9059504,38.3611916 38.3588391,31.9177011 38.3655229,23.9973269 C38.369199,20.1654483 36.8750323,16.5587776 34.1583958,13.8409105 C31.4424279,11.1233774 27.8355075,9.62677953 24.0016714,9.62677953 L24.0003346,9.62677953 Z M31.0914608,22.5249873 C31.6004333,25.1035195 30.9467562,27.2707296 29.0933345,29.1509163 L28.8396837,29.4082015 L28.5155187,29.2491525 C28.3367267,29.1616087 28.154927,29.0790769 27.9691169,29.0022255 L27.2359025,28.6971588 L27.8264175,28.1662158 C28.9797096,27.1303923 29.5939523,25.7788096 29.6517672,24.1498936 C29.7105848,22.5203094 29.1337716,21.1002288 27.9373688,19.92908 C26.8836654,18.8979345 25.4874165,18.3299022 24.0059492,18.3299022 C22.3777719,18.3299022 20.8301346,19.0292501 19.7607243,20.2485145 C18.5636532,21.6131286 18.1071486,23.2751241 18.4413393,25.0537332 C18.6705942,26.270993 19.2330372,27.3008019 20.112293,28.1150928 L20.6921139,28.6523846 L19.9592336,28.9480955 C19.7757629,29.0219396 19.5826007,29.1017982 19.378076,29.1876714 L19.0625999,29.3203236 L18.824322,29.0754015 C17.589153,27.8040117 16.9204374,26.3401592 16.7800773,24.5996415 C16.4843186,20.9328264 18.863088,17.7020595 22.4365895,16.9178409 C22.9676186,16.8012272 23.5076708,16.742085 24.0400365,16.742085 C27.4648232,16.742085 30.4304316,19.1742654 31.0914608,22.5249873 Z M14.9592391,31.9604371 C12.7448914,29.4908335 10.9509556,25.111305 12.5560736,20.224557 C14.1444821,15.3862588 18.6313268,12.0605972 23.7203831,11.9486614 C23.8116173,11.9469908 23.9031855,11.9463225 23.9940854,11.9463225 C29.1556611,11.9463225 33.739421,15.2188564 35.4010173,20.0892317 C36.819991,24.2482301 35.8337943,28.9755948 32.8885715,32.1331858 L32.5149462,32.5344839 L31.1684918,31.0315374 L31.4652531,30.6970666 C33.3076466,28.6230807 34.1631749,26.1635012 34.007442,23.3878283 C33.8644083,20.853068 32.8564892,18.6454274 31.0107537,16.8267218 C29.1382831,14.980617 26.6522384,13.9641735 24.0107949,13.9641735 C21.6059584,13.9641735 19.2773175,14.8292532 17.4539728,16.4006976 C16.0246392,17.6316569 15.0107044,19.1646758 14.4409093,20.9566503 C13.874456,22.7406057 13.8132991,24.5706719 14.2601121,26.3960603 C14.6397528,27.9461199 15.3616047,29.3441475 16.4056165,30.551049 L16.6993702,30.8915341 L15.3255121,32.3694204 L14.9592391,31.9604371 Z" id="Shape" fill="#FFFFFF"></path>
        </g>
    </g>
</svg>