<?xml version="1.0" encoding="UTF-8"?>
<svg width="48px" height="48px" viewBox="0 0 48 48" version="1.1" xmlns="http://www.w3.org/2000/svg" xmlns:xlink="http://www.w3.org/1999/xlink">
    <!-- Generator: Sketch 49.1 (51147) - http://www.bohemiancoding.com/sketch -->
    <title>cnd</title>
    <desc>Created with Sketch.</desc>
    <defs></defs>
    <g id="48px" stroke="none" stroke-width="1" fill="none" fill-rule="evenodd">
        <g id="cnd" fill-rule="nonzero">
            <circle id="Oval" fill="#383939" cx="24" cy="24" r="24"></circle>
            <polygon id="Shape" fill="#FFFFFF" points="29.2095 17.2185 33.21 16.302 34.7595 13.7505 33.2295 11.241 31.2705 9.888 27.246 9 24.7635 10.3995 20.7915 9.6915 15.3375 13.47 14.913 17.883 12.5985 18.849 12.8655 22.9425 11.25 24.2295 12.864 28.8375 13.107 29.3205 14.814 34.065 18.3225 35.307 20.9235 37.953 23.9145 39 25.2675 38.61 27.414 38.3625 30.561 37.461 35.25 34.8135 34.023 29.9655 31.662 29.0355 30.486 30.381 27.1785 31.194 22.368 30.432 20.8155 28.6365 21.3555 26.88 19.0815 23.2815 20.994 20.9475 21.198 16.98 23.937 15.408 25.815 14.658 28.365 15.1185"></polygon>
        </g>
    </g>
</svg>