<?xml version="1.0" encoding="UTF-8"?>
<svg width="48px" height="48px" viewBox="0 0 48 48" version="1.1" xmlns="http://www.w3.org/2000/svg" xmlns:xlink="http://www.w3.org/1999/xlink">
    <!-- Generator: Sketch 49.1 (51147) - http://www.bohemiancoding.com/sketch -->
    <title>cnx</title>
    <desc>Created with Sketch.</desc>
    <defs></defs>
    <g id="48px" stroke="none" stroke-width="1" fill="none" fill-rule="evenodd">
        <g id="cnx" fill-rule="nonzero">
            <circle id="Oval" fill="#4C6BAE" cx="24" cy="24" r="24"></circle>
            <g id="Group" transform="translate(7.500000, 7.500000)" fill="#FFFFFF">
                <path d="M2.07407341,18.0143505 L0,18.2298387 C1.10887096,15.1249999 3.30443549,12.6411291 6.58669355,10.7782259 C6.89717742,13.3508064 8.11693545,15.4798388 10.2459678,17.1653226 L8.29511805,17.3680083 C8.68122135,21.0606086 11.5031247,24.0284396 15.1253114,24.6359844 C13.8218238,25.6177115 12.3284405,26.210152 10.6451613,26.4133065 C11.6670954,28.213857 12.8758972,29.6873892 14.2715667,30.8339028 C7.80937305,29.837434 2.75476915,24.5754771 2.07407341,18.0143505 Z M30.9259266,14.9856495 L33,14.7701613 C31.8911291,17.8750001 29.6955645,20.3588709 26.4133065,22.2217741 C26.1028226,19.6491936 24.8830646,17.5201612 22.7540322,15.8346774 L24.704882,15.6319917 C24.3148933,11.9022333 21.4398357,8.91190395 17.7650984,8.3463933 C19.0630323,7.37519607 20.5485909,6.78862947 22.2217742,6.58669354 C21.1926606,4.77349342 19.9740444,3.29192277 18.5659257,2.14198158 C25.1057337,3.07459998 30.2395353,8.3696238 30.9259266,14.9856495 Z" id="Shape" opacity="0.5"></path>
                <path d="M17.8826429,30.938986 L18.0967742,33 C14.9919355,31.8911291 12.5080645,29.6955645 10.6451613,26.4133065 C13.217742,26.1028225 15.3467742,24.8830646 17.0322581,22.7540322 L17.2362645,24.717594 C21.0271773,24.3823296 24.081453,21.4830028 24.6536067,17.7650983 C25.6248039,19.0630323 26.2113705,20.5485909 26.4133065,22.2217741 C28.2265067,21.1926606 29.7080772,19.9740444 30.8580185,18.5659257 C29.9192194,25.1490735 24.5600037,30.3075175 17.8826429,30.938986 Z M14.9856495,2.07407341 L14.7701613,-1.77635684e-15 C17.875,1.10887096 20.3588709,3.30443548 22.2217741,6.58669354 C19.6491936,6.89717742 17.5201612,8.11693545 15.8346774,10.2459678 L15.6319917,8.29511805 C11.9022333,8.68510665 8.91190395,11.5601643 8.3463933,15.2349016 C7.37519607,13.9369677 6.78862947,12.4514091 6.58669354,10.7782259 C4.77349342,11.8073394 3.29192277,13.0259556 2.14198158,14.4340743 C3.07459998,7.8942663 8.3696238,2.76046476 14.9856495,2.07407341 Z" id="Shape"></path>
            </g>
        </g>
    </g>
</svg>