<?xml version="1.0" encoding="UTF-8"?>
<svg width="48px" height="48px" viewBox="0 0 48 48" version="1.1" xmlns="http://www.w3.org/2000/svg" xmlns:xlink="http://www.w3.org/1999/xlink">
    <!-- Generator: Sketch 49.1 (51147) - http://www.bohemiancoding.com/sketch -->
    <title>cny</title>
    <desc>Created with Sketch.</desc>
    <defs></defs>
    <g id="48px" stroke="none" stroke-width="1" fill="none" fill-rule="evenodd">
        <g id="cny" fill-rule="nonzero">
            <circle id="Oval" fill="#FF4314" cx="24" cy="24" r="24"></circle>
            <path d="M13.7565789,12 L34.4802631,12 L34.4802631,14.8878822 L13.7565789,14.8878822 L13.7565789,12 Z M11.4473684,20.4614949 L37.0559211,20.4614949 L37.0559211,23.378256 L29.2105263,23.378256 L29.2105263,33.1392978 C29.2105263,33.8901472 29.5361842,34.2655719 30.2171052,34.2655719 L33.4736842,34.2655719 C33.8289474,34.2655719 34.125,34.0345413 34.3026316,33.601359 C34.5098683,33.1392978 34.6578948,31.7242356 34.7171052,29.385051 L37.5,30.2514156 C37.2927631,33.5147226 36.9078948,35.4496037 36.375,36.0560589 C35.8421052,36.6336354 35.0723684,36.9513024 34.0361843,36.9513024 L29.3289474,36.9513024 C27.2269737,36.9513024 26.1907895,35.8827859 26.1907895,33.7746319 L26.1907895,23.378256 L21.8092106,23.378256 L21.8092106,23.9558324 C21.6611843,27.6234428 20.8322369,30.5690826 19.3223684,32.7638732 C17.8421052,34.7853908 15.4736843,36.3737259 12.1578947,37.5 L10.5,34.9586637 C13.6973684,33.8612684 15.8289474,32.4750849 16.9539474,30.8578708 C18.0789474,29.0673838 18.6710526,26.7859569 18.7894737,23.9558323 L18.7894737,23.378256 L11.4473684,23.378256 L11.4473684,20.4614949 Z" id="Shape" fill="#FFFFFF"></path>
        </g>
    </g>
</svg>