<?xml version="1.0" encoding="UTF-8"?>
<svg width="48px" height="48px" viewBox="0 0 48 48" version="1.1" xmlns="http://www.w3.org/2000/svg" xmlns:xlink="http://www.w3.org/1999/xlink">
    <!-- Generator: Sketch 49.1 (51147) - http://www.bohemiancoding.com/sketch -->
    <title>crpt</title>
    <desc>Created with Sketch.</desc>
    <defs></defs>
    <g id="48px" stroke="none" stroke-width="1" fill="none" fill-rule="evenodd">
        <g id="crpt" fill-rule="nonzero">
            <circle id="Oval" fill="#00BDCD" cx="24" cy="24" r="24"></circle>
            <path d="M32.7501607,14.6164668 C30.5913183,12.789986 27.9385852,11.8456628 25.1623794,11.8456628 C18.8700964,11.8456628 13.6881029,16.8208743 13.2559486,23.181488 L12.0221865,23.181488 C12.4543408,16.0650212 18.1919614,10.5855784 25.1623794,10.5855784 C28.2472669,10.5855784 31.207717,11.7193583 33.6135048,13.7343091 L32.7501607,14.6164668 Z M32.3180064,18.772673 C30.6493441,16.4366708 27.990699,15.0559632 25.1623794,15.0575457 C20.2890675,15.0575457 16.3408361,19.0874474 16.3408361,23.9995067 C16.3408361,28.9747182 20.2890675,33.0056066 25.1623794,33.0056066 C27.990699,33.0062024 30.6493441,31.6254948 32.3180064,29.2894926 L33.1823151,30.1716502 C31.2694535,32.7529977 28.3090032,34.2647042 25.1623794,34.2647042 C19.6099678,34.2647042 15.1070739,29.6674192 15.1070739,24.0004933 C15.1070739,18.395733 19.6099678,13.7974614 25.1623794,13.7974614 C28.3152454,13.8007747 31.2841246,15.3163371 33.1823151,17.891502 L32.3180064,18.772673 Z M33.7369774,15.56079 L34.6012861,14.6796191 C34.9090032,14.9943935 35.1559485,15.3081811 35.4028939,15.6239423 L34.5395499,16.5051132 C34.2926044,16.1903388 34.0456591,15.8765511 33.7369774,15.56079 Z M25.1006431,37.4765871 C18.130225,37.4765871 12.3926045,31.9981311 11.9604502,24.8816643 L13.1942122,24.8816643 C13.6263666,31.2422779 18.8083602,36.2174895 25.1006431,36.2174895 C27.8768488,36.2174895 30.529582,35.2721796 32.6884245,33.4466854 L33.5517685,34.3278564 C31.207717,36.3428071 28.1855305,37.4765871 25.1006431,37.4765871 Z M33.7369774,32.5013754 C34.0456591,32.1866012 34.2926044,31.8718268 34.5395499,31.5570523 L35.4028939,32.4382233 C35.1559485,32.7529977 34.9099678,33.0677721 34.6012861,33.3835332 L33.7369774,32.5013754 Z M10.2337621,23.9995067 C10.2337621,32.3760578 16.9581993,39.2409024 25.1623794,39.2399157 C29.6045016,39.2399157 33.7987138,37.288117 36.6366559,33.6983076 L37.5,34.5794786 C34.4160771,38.3587447 29.973955,40.5 25.1623794,40.5 C16.2173634,40.5 9,33.0677721 9,23.9995067 C9,14.868089 16.2800643,7.5 25.1623794,7.5 C29.9122186,7.5 34.4160771,9.64026852 37.5,13.4205215 L36.6366559,14.3026792 C33.7987138,10.7760219 29.6045016,8.76008433 25.1623794,8.76008433 C16.9572348,8.76008433 10.2337621,15.6239423 10.2337621,23.9995067 Z" id="Shape" fill="#FFFFFF"></path>
        </g>
    </g>
</svg>