<?xml version="1.0" encoding="UTF-8"?>
<svg width="48px" height="48px" viewBox="0 0 48 48" version="1.1" xmlns="http://www.w3.org/2000/svg" xmlns:xlink="http://www.w3.org/1999/xlink">
    <!-- Generator: Sketch 49.1 (51147) - http://www.bohemiancoding.com/sketch -->
    <title>cvc</title>
    <desc>Created with Sketch.</desc>
    <defs></defs>
    <g id="48px" stroke="none" stroke-width="1" fill="none" fill-rule="evenodd">
        <g id="cvc" fill-rule="nonzero">
            <circle id="Oval" fill="#3AB03E" cx="24" cy="24" r="24"></circle>
            <path d="M25.7416752,25.16775 C26.9645565,24.5758257 27.7388246,23.3499696 27.7375126,22.00785 C27.7375126,20.0667 26.1441624,18.4935 24.1803045,18.4935 C22.2164468,18.4935 20.6223351,20.06655 20.6223351,22.0077 C20.6207639,23.3503096 21.3958422,24.576513 22.6196955,25.1676 L22.6196955,29.508 L25.7415228,29.508 L25.7415228,25.16775 M24.1804569,35.25 C17.9022335,35.25 12.7952284,30.2037 12.7952284,24 C12.7952284,17.7963 17.9029948,12.7509 24.1804569,12.7509 C29.303604,12.7509 33.6461421,16.1109 35.0709137,20.7183 L38.9948223,20.7183 C37.4808122,14.01255 31.4229441,9 24.1804569,9 C15.796599,9 9,15.71565 9,24 C9,32.28435 15.796599,39 24.1804569,39 C31.4229441,39 37.4808122,33.98745 38.9949746,27.28155 L35.0710661,27.28155 C33.6452285,31.89 29.303604,35.25 24.1804569,35.25" id="Shape" fill="#FFFFFF"></path>
        </g>
    </g>
</svg>