<?xml version="1.0" encoding="UTF-8"?>
<svg width="48px" height="48px" viewBox="0 0 48 48" version="1.1" xmlns="http://www.w3.org/2000/svg" xmlns:xlink="http://www.w3.org/1999/xlink">
    <!-- Generator: Sketch 49.1 (51147) - http://www.bohemiancoding.com/sketch -->
    <title>dat</title>
    <desc>Created with Sketch.</desc>
    <defs></defs>
    <g id="48px" stroke="none" stroke-width="1" fill="none" fill-rule="evenodd">
        <g id="dat" fill-rule="nonzero">
            <circle id="Oval" fill="#2D9CDB" cx="24" cy="24" r="24"></circle>
            <path d="M30.0808001,8.4096 C30.6696,8.4096 31.1432,8.5888 31.5016001,8.9472 C31.86,9.30559999 32.0392,9.7792 32.0392,10.368 L32.0392,27.8784 C32.0392,29.8752 31.5655999,31.6927999 30.6184001,33.3312 C29.6968001,34.944 28.4296001,36.2239999 26.8168,37.1712 C25.2296,38.0928 23.4504,38.5536 21.4792001,38.5536 C19.508,38.5536 17.7031999,38.0928 16.0648,37.1712 C14.452,36.2239999 13.1848,34.944 12.2632,33.3312 C11.3416,31.6927999 10.8808,29.8752 10.8808,27.8784 C10.8808,25.8816 11.3032,24.0768 12.148,22.464 C13.0184,20.8255999 14.196,19.5456 15.6808,18.624 C17.1912,17.7024 18.868,17.2416 20.7112001,17.2416 C22.196,17.2416 23.5784,17.5488 24.8584001,18.1632 C26.1384,18.7776 27.2264,19.6351999 28.1224001,20.736 L28.1224001,10.368 C28.1224001,9.7792 28.3016,9.30559999 28.6600001,8.9472 C29.0440001,8.5888 29.5176,8.4096 30.0808001,8.4096 Z M21.4792001,35.0976 C22.7592,35.0976 23.9112,34.7904 24.9352,34.176 C25.9848,33.536 26.8039999,32.6656001 27.3928,31.5648 C27.9816,30.464 28.276,29.2352 28.276,27.8784 C28.276,26.5216001 27.9816,25.3056 27.3928,24.2304 C26.8039999,23.1296 25.9848,22.272 24.9352,21.6576 C23.9112,21.0176 22.7592,20.6976 21.4792,20.6976 C20.1991999,20.6976 19.0344,21.0176 17.9848,21.6576 C16.9608,22.272 16.1416,23.1296 15.5272,24.2304 C14.9384,25.3056 14.644,26.5216001 14.644,27.8784 C14.644,29.2352 14.9384,30.464 15.5272,31.5648 C16.1416,32.6656001 16.9608,33.5359999 17.9848,34.176 C19.0344,34.7904 20.1991999,35.0976 21.4792,35.0976 Z" id="Shape" fill="#FFFFFF"></path>
        </g>
    </g>
</svg>