<?xml version="1.0" encoding="UTF-8"?>
<svg width="48px" height="48px" viewBox="0 0 48 48" version="1.1" xmlns="http://www.w3.org/2000/svg" xmlns:xlink="http://www.w3.org/1999/xlink">
    <!-- Generator: Sketch 49.1 (51147) - http://www.bohemiancoding.com/sketch -->
    <title>data</title>
    <desc>Created with Sketch.</desc>
    <defs></defs>
    <g id="48px" stroke="none" stroke-width="1" fill="none" fill-rule="evenodd">
        <g id="data" fill-rule="nonzero">
            <circle id="Oval" fill="#E9570F" cx="24" cy="24" r="24"></circle>
            <path d="M36.2094683,14.8705611 L38.6200529,12.480606 C39.1892061,11.9159883 39.0726236,10.8845041 38.3596698,10.1773077 C37.6467162,9.47011128 36.6056376,9.354669 36.0364844,9.91928668 L31.5119885,14.4051937 L31.3576034,14.5582672 L27.4158695,18.4663632 C24.7633493,16.542675 21.0098715,16.7678623 18.6154662,19.1419254 C16.2210611,21.5159883 15.9939441,25.2372777 17.9341153,27.8675625 L14.9250428,30.8510707 C14.1942465,29.8852538 13.5833594,28.7488219 13.1416759,27.4117905 C12.1315953,24.3555686 12.4031678,21.0068428 14.0404662,18.2480722 C16.5959097,13.9429748 21.1675832,12.0711607 25.4982284,12.6198864 C26.4283191,12.7375775 27.2652647,12.0681622 27.3218171,11.140726 C27.3854763,10.1002462 26.6078049,9.18720273 25.5608291,9.08000632 C21.2093171,8.63382942 16.7108291,10.0534696 13.3882989,13.3477724 C7.88426662,18.8050438 7.56143395,27.4617154 12.3993876,33.3554186 L9.63814767,36.0933497 C9.09379282,36.6330798 9.22988154,37.644774 9.94313758,38.3518204 C10.6563936,39.0588669 11.6764541,39.194849 12.220809,38.6551188 L15.1922304,35.7087919 L15.1937424,35.7075926 L17.3409198,33.5786569 C17.3425832,33.5770079 17.3439441,33.5752088 17.3456073,33.5734097 L20.8290248,30.1195866 C23.2855772,31.1189868 26.2179864,30.6314305 28.2101739,28.6561683 C30.2023614,26.6809059 30.6937929,23.7737095 29.6859804,21.3381772 L33.6376941,17.4203361 C36.5339642,21.7831548 35.9587626,27.8213856 31.9730267,31.7731098 C29.4349722,34.2897514 26.042432,35.4332297 22.7772102,35.1914007 C21.9943977,35.1327799 21.3011013,35.7441743 21.232301,36.5239344 L21.1902647,37.0036945 C21.1125429,37.894699 21.7799823,38.6480722 22.677563,38.6978473 C26.8589642,38.9323302 31.171313,37.4294816 34.4245892,34.2038444 C39.8203554,28.8534696 40.4440953,20.6129898 36.2094683,14.8705611 M25.7078049,26.1737096 C24.4427847,27.4279824 22.3837626,27.4279824 21.1187424,26.1737096 C19.8537222,24.9194366 19.8537222,22.8782073 21.1187424,21.6236344 C22.3837626,20.3690618 24.442936,20.3693616 25.7078049,21.6236344 C26.9726739,22.8779075 26.9728251,24.9194366 25.7078049,26.1737096" id="Shape" fill="#FFFFFF"></path>
        </g>
    </g>
</svg>