<?xml version="1.0" encoding="UTF-8"?>
<svg width="48px" height="48px" viewBox="0 0 48 48" version="1.1" xmlns="http://www.w3.org/2000/svg" xmlns:xlink="http://www.w3.org/1999/xlink">
    <!-- Generator: Sketch 49.1 (51147) - http://www.bohemiancoding.com/sketch -->
    <title>dbc</title>
    <desc>Created with Sketch.</desc>
    <defs></defs>
    <g id="48px" stroke="none" stroke-width="1" fill="none" fill-rule="evenodd">
        <g id="dbc" fill-rule="nonzero">
            <circle id="Oval" fill="#5BC1D4" cx="24" cy="24" r="24"></circle>
            <path d="M20.6770143,25.391447 C19.8515313,26.2534196 19.0254234,27.1148448 18.20126,27.9781173 C17.7575438,28.442867 17.3198003,28.9131582 16.8730283,29.3751027 C16.798439,29.4522075 16.6917636,29.4991408 16.5998813,29.5600995 C16.4053518,29.5289701 16.2565898,29.4073266 16.2298515,29.2316345 C16.1886677,28.9614599 16.1518591,28.6905327 16.1187315,28.4192634 C16.0753947,28.0641162 15.9650387,27.9638868 15.6029957,27.9202374 C14.8574497,27.8303389 14.1129454,27.7318884 13.3681634,27.6358323 C12.8010345,27.5625588 12.2341139,27.4876434 11.667124,27.4134805 C11.3284162,27.369147 11.205073,27.1253125 11.3834206,26.837076 C11.7898421,26.1802144 12.2005001,25.5259527 12.6103247,24.871212 C13.4451834,23.537443 14.2819173,22.2047686 15.1142064,20.8694944 C15.2149089,20.7079644 15.3255428,20.5967884 15.5380599,20.6019196 C15.6743903,20.6052037 15.8141238,20.5720219 15.9480929,20.5385665 C16.1073417,20.4988852 16.2308238,20.5476658 16.3426385,20.6523423 C16.5396681,20.8369285 16.7381564,21.0198727 16.9339359,21.2055537 C17.6883021,21.9207741 18.4411403,22.6376364 19.1959231,23.3524462 C19.6837401,23.8143907 20.175099,24.2727777 20.6627771,24.734859 C20.9137695,24.9727413 20.9149502,25.1429602 20.6770143,25.3914469 Z M37.3133853,28.8697687 C37.453605,28.9878548 37.6064644,29.0988938 37.6358418,29.2981895 C37.6732753,29.5519443 37.5714616,29.7370779 37.3559581,29.8765095 C36.0798835,30.7022217 34.8058228,31.5309441 33.5307204,32.3582298 C32.7096822,32.8909164 31.8877411,33.4223717 31.0669809,33.9554687 C30.9898912,34.0054808 30.9135657,34.0582294 30.8446018,34.1182986 C30.7170222,34.2296114 30.6497946,34.3705484 30.6566007,34.5417251 C30.6688933,34.8489126 30.6877837,35.1559635 30.6913951,35.4631511 C30.6956316,35.8154249 30.4356106,36.0354506 30.0817627,35.9952903 C29.9458491,35.9798967 29.8456327,35.9084021 29.7606954,35.8105673 C29.4639354,35.4686928 29.1676615,35.1263394 28.871874,34.7836439 C28.5012192,34.3541285 28.1330646,33.9224922 27.7597707,33.4951662 C27.6308715,33.3475929 27.5330859,33.1927677 27.5578101,32.9046681 C27.5734363,32.3632926 27.5918406,31.7372867 27.6094114,31.1113491 C27.6153841,30.9004227 27.7389357,30.7661905 27.9068659,30.6588459 C28.5861565,30.2250204 29.2649611,29.790237 29.9444601,29.3564799 C31.084899,28.6284657 32.2281852,27.9045565 33.3645265,27.1701796 C33.6050319,27.0148071 33.8273415,26.9684895 34.092571,27.1038162 C34.2871006,27.2030193 34.5080211,27.2209443 34.7185936,27.1541703 C35.0358412,27.0535305 35.2778052,27.1426764 35.5224081,27.3580498 C36.1082886,27.8741113 36.7156984,28.3666378 37.3133853,28.8697687 Z M26.3649642,30.358021 C26.4529575,30.4466881 26.5310887,30.5704525 26.5552573,30.6895647 C26.6122064,30.968907 26.5001835,31.1595139 26.23669,31.2866307 C25.3590501,31.7101255 24.4830769,32.1373831 23.5982142,32.5456212 C23.4383403,32.6193735 23.2399911,32.6277886 23.0579625,32.6362038 C22.3247787,32.6699329 21.5909697,32.6895682 20.8575774,32.7191239 C20.4246954,32.7366385 19.9920912,32.7629101 19.5930315,32.7835033 C19.4724661,32.7835033 19.3856536,32.7818615 19.2989106,32.7839139 C19.1577187,32.7871979 19.0403481,32.7353386 18.9388122,32.6415403 C18.846027,32.555815 18.7499082,32.4735792 18.6583729,32.3866224 C18.1423593,31.8961485 17.6350963,31.3963016 17.1085957,30.916911 C16.8147526,30.6494046 16.8111412,30.291726 17.0911638,30.0038316 C17.7232284,29.3540169 18.3471675,28.696608 18.9728427,28.0409096 C19.6500499,27.3312307 20.3263542,26.6207996 21.0009918,25.9087947 C21.1262796,25.7765467 21.2682354,25.6990998 21.4574173,25.7043678 C21.6112491,25.708678 21.7374397,25.7601952 21.8447401,25.8669241 C22.7437705,26.7619416 23.6428011,27.6570276 24.5432206,28.5506768 C25.1503528,29.1532845 25.7627631,29.7507611 26.3649642,30.3580211 Z M30.0827838,18.2851092 C29.792691,17.837532 30.1193839,17.2206253 30.6010198,17.1405787 C31.8886233,16.926642 33.1706706,16.6801393 34.4567461,16.4566929 C34.7394078,16.4075701 34.9646341,16.5380394 35.1206884,16.771201 C35.3913351,17.1754708 35.6567731,17.5830931 35.9242251,17.989347 C36.4874649,18.844957 37.0529269,19.6991301 37.6110967,20.5579557 C37.6860333,20.6732365 37.7238141,20.811984 37.7788186,20.939785 C37.767637,20.9447794 37.756525,20.9496369 37.745413,20.9545629 C37.7456908,21.182388 37.6451272,21.3764841 37.5147001,21.5517657 C36.7283175,22.6084502 35.9336008,23.6590455 35.1491629,24.7170982 C34.8832387,25.0757347 34.236034,25.1269098 33.9396907,24.6347939 C32.7920292,22.7290676 31.6320054,20.8305248 30.4764958,18.9293823 C30.3457909,18.7142824 30.2197392,18.4963093 30.0827838,18.2851092 Z M27.8253177,23.5824676 C27.7494783,24.2499336 27.6762085,24.9176049 27.6000217,25.585071 C27.5367528,26.1393086 27.4702197,26.6932041 27.4066035,27.2473734 C27.3318753,27.8978039 27.2584666,28.5483027 27.1851967,29.1988701 C27.1698483,29.3346758 27.1679731,29.472876 27.1395681,29.6057397 C27.1258864,29.6697087 27.0763686,29.7531761 27.0219198,29.7741114 C26.9692072,29.794294 26.8718383,29.7649437 26.8242651,29.7236203 C26.6117479,29.5392395 26.4088845,29.3439803 26.2047013,29.1504315 C25.4709619,28.4552571 24.7392364,27.7578933 24.0043857,27.0638134 C23.3655844,26.4605899 22.724283,25.8599662 22.0825647,25.2597531 C21.8703949,25.0613469 21.8687976,24.9984726 22.0736056,24.7844675 C23.053476,23.7604174 24.0328603,22.7359571 25.0112028,21.7105386 C25.6806315,21.0090015 26.3481157,20.3056855 27.0165027,19.6031904 C27.3446541,19.2581688 27.672736,18.9130788 28.0010262,18.5681255 C28.0288062,18.5390487 28.0528359,18.4974519 28.0872136,18.4856159 C28.1581222,18.461123 28.2443097,18.4253414 28.3060507,18.4462083 C28.3570965,18.463586 28.3821679,18.5556738 28.3977942,18.5810561 C28.343901,19.0523736 28.2953554,19.4764841 28.2468793,19.9007315 C28.1824297,20.4663261 28.1183274,21.0319209 28.0535304,21.5975156 C27.977691,22.2591661 27.9006015,22.9207485 27.8253177,23.5824677 Z M33.5339151,25.1118378 C33.6298255,25.2678947 33.6443406,25.4151258 33.5407212,25.5751506 C33.4218922,25.7588475 33.3801528,25.9660794 33.4014045,26.1814528 C33.4199476,26.369323 33.3414692,26.4856986 33.1813173,26.5872279 C31.9265639,27.3827001 30.6766023,28.1856297 29.4250434,28.9859596 C29.0321646,29.2372514 28.6394941,29.4890221 28.2451569,29.7380562 C28.0883388,29.8371225 27.9280482,29.8291177 27.8429025,29.7037113 C27.795468,29.6339271 27.7889397,29.5371185 27.7749802,29.4897747 C27.8336655,29.0567701 27.8857531,28.6674834 27.9392296,28.2784019 C28.0619478,27.3874209 28.1851521,26.49644 28.3084954,25.6055274 C28.4434368,24.6299843 28.5789337,23.6545097 28.7138056,22.6789665 C28.8455524,21.7260008 28.9766046,20.7728981 29.1081429,19.8197954 C29.1571746,19.4645798 29.2066926,19.1093642 29.2566271,18.7542169 C29.2605858,18.726098 29.2612803,18.6925058 29.2772538,18.6721178 C29.3165625,18.6221057 29.3589964,18.5484218 29.4094866,18.5402118 C29.462338,18.5316599 29.5465809,18.5735304 29.581167,18.6195743 C29.6736051,18.7426547 29.7474304,18.8794865 29.8276452,19.0113924 C30.8051542,20.6193726 31.7825938,22.2273528 32.7597556,23.8355382 C33.0181098,24.2608118 33.2735469,24.6877957 33.5339151,25.1118378 Z M27.4550727,17.7566575 C27.5011875,17.786829 27.5916114,17.8191897 27.6384207,17.8826797 C27.7118988,17.982567 27.6475186,18.0755443 27.5716792,18.1551121 C27.2313046,18.5122434 26.8922497,18.8706061 26.551389,19.2273268 C25.5606844,20.2645128 24.5684518,21.3003303 23.5785112,22.3382002 C22.9567947,22.9898622 22.3397311,23.645766 21.7173201,24.2968806 C21.4936216,24.5308632 21.312357,24.5303158 21.0794217,24.3093324 C20.3545023,23.6216836 19.6309026,22.932735 18.9046636,22.2465229 C18.1993986,21.5801515 17.4917029,20.9161747 16.7842155,20.2519926 C16.6884439,20.1621625 16.6139935,20.063575 16.6244805,19.9261275 C16.6387872,19.7388045 16.7472681,19.6326915 16.9615215,19.5947205 C17.3539836,19.5251415 17.7467233,19.4572045 18.1393243,19.3886517 C19.3969254,19.1690365 20.6545959,18.9499686 21.912058,18.7296009 C23.3970384,18.4693465 24.8818798,18.2078608 26.3668602,17.9469907 C26.7138325,17.8861005 27.0608743,17.8256208 27.4550727,17.7566575 Z M17.3465037,18.7051558 C18.0446848,18.2271336 18.7445326,17.7514374 19.4439639,17.2750572 C21.6992839,15.7390506 23.954604,14.2032492 26.2096462,12.666969 C26.4334141,12.5145382 26.5766202,12.5458043 26.6902404,12.7891599 C27.1565973,13.7880328 27.6195511,14.7884793 28.0835467,15.7884469 C28.143621,15.9179583 28.2018201,16.0483591 28.2623805,16.1776653 C28.3121068,16.2839152 28.279743,16.3698456 28.215849,16.4629597 C28.1358426,16.5796089 28.0633368,16.7045365 28.0102075,16.8348004 C27.9593007,16.9595911 27.8850586,17.0267757 27.7494921,17.0507896 C26.7540649,17.2273711 25.7595406,17.409084 24.7645302,17.5881285 C23.5874911,17.7999444 22.4103133,18.0103918 21.2332743,18.221934 C19.948171,18.4529062 18.6632761,18.6847678 17.378034,18.9145086 C17.3251131,18.92395 17.2689975,18.9156717 17.2144098,18.9156717 C17.2032978,18.8948049 17.1922552,18.8738695 17.1811432,18.8530027 C17.2360087,18.8034012 17.2858738,18.7466158 17.3465037,18.7051558 Z M10.3119734,20.9943879 C9.87027129,20.9855622 9.60754185,20.55591 9.81908662,20.1609447 C9.99708703,19.8285115 10.1959224,19.5070249 10.3868406,19.181365 C10.9393155,18.2390037 11.4938739,17.2978054 12.0439181,16.3541442 C12.1364255,16.1954875 12.2592132,16.0784278 12.4190177,15.9864768 C13.8826075,15.1447554 15.3437665,14.2989974 16.8072868,13.4572075 C16.9006276,13.4035694 17.0043859,13.3543099 17.1092556,13.3360428 C17.3263563,13.2982772 17.5085931,13.3779134 17.6406871,13.5531266 C17.7781981,13.735592 17.7838236,13.9380348 17.6913162,14.1360306 C17.471229,14.607006 17.2423218,15.0739449 17.0146645,15.5414311 C16.5969226,16.3994355 16.1750833,17.2555243 15.7607445,18.1151025 C15.66532,18.3130981 15.5351013,18.440215 15.3101527,18.4990527 C14.9103984,18.6035923 14.6541972,18.8717829 14.5424521,19.2638062 C14.4858504,19.4624178 14.3684104,19.5822825 14.1692972,19.6524772 C12.9657977,20.0765194 11.7652152,20.5084293 10.5628964,20.9355501 C10.4825427,20.964148 10.3957996,20.975163 10.3119734,20.9943879 Z M16.5410433,18.2542741 C16.5445158,18.1936576 16.566462,18.1313307 16.592089,18.0750928 C17.1148393,16.9261152 17.639187,15.7778902 18.1634652,14.6296653 C18.4908526,13.9126662 18.8213653,13.1969669 19.1445162,12.4781204 C19.2188971,12.3128275 19.3284199,12.2303179 19.514407,12.2245025 C20.0052798,12.2089721 20.4958747,12.1824267 20.986678,12.1633386 C21.9513388,12.1258467 22.9160692,12.0917755 23.8806606,12.0534626 C24.2212434,12.0399163 24.5613402,12.0169969 24.9018537,12.0006455 C25.1452065,11.9889464 25.3111921,12.1371353 25.3123034,12.375086 C25.323207,12.5197858 25.2299357,12.616047 25.1104815,12.6973936 C24.8010123,12.907841 24.4918902,13.118699 24.1824903,13.3291465 C22.3356753,14.5855371 20.4885825,15.8416539 18.6419064,17.0982498 C18.0517201,17.499783 17.4622978,17.9024793 16.8723198,18.3042862 C16.8295386,18.3334314 16.7871741,18.3652449 16.740087,18.3855643 C16.6345924,18.4311294 16.5345844,18.3672973 16.5410433,18.2542741 Z M14.4960665,20.7321495 C14.2509773,21.1256097 14.0038047,21.5178382 13.7580211,21.9108879 C12.8384333,23.381352 11.9194012,24.8521582 10.9986328,26.3218012 C10.9567544,26.3885752 10.9096673,26.4598647 10.8470928,26.5048824 C10.6888162,26.6188633 10.4776881,26.540185 10.4019182,26.3392474 C10.2811446,26.0187186 10.1682883,25.6953165 10.0533485,25.3725984 C9.71818269,24.4315369 9.38329467,23.4903387 9.04944841,22.5487983 C9.02493256,22.4795613 9.009723,22.4070405 9,22.3718062 C9.00201405,22.1812678 9.06458851,22.1009475 9.24370012,22.0429992 C9.7767985,21.870591 10.3108692,21.700851 10.8448704,21.5310426 C11.8523124,21.2107875 12.8599628,20.8911481 13.8676132,20.5715088 C13.9997766,20.5296382 14.1323567,20.489136 14.2647979,20.4481548 C14.3588332,20.419078 14.4536325,20.3772759 14.531486,20.4818155 C14.6028806,20.5776663 14.543987,20.6551815 14.4960665,20.7321495 Z M38.6724736,24.6446184 C38.7739402,25.2225964 38.87499,25.8005743 38.9755536,26.3787576 C38.985346,26.4347218 38.9904853,26.491507 39,26.5648489 C38.9836792,26.6390803 38.9681919,26.728842 38.9442316,26.816346 C38.8129017,27.2947788 38.6790714,27.7725958 38.5471164,28.2508917 C38.4333573,28.6637136 38.1056226,28.7599749 37.7753877,28.4813851 C37.0988751,27.9107277 36.4206955,27.3420541 35.7411966,26.774886 C35.5864618,26.6457166 35.5215955,26.4971856 35.5572928,26.2931692 C35.5928512,26.0899054 35.5863924,25.8821262 35.488954,25.6906983 C35.3949188,25.5061804 35.4259629,25.3420506 35.5468059,25.1799048 C36.1014339,24.435813 36.6532143,23.6896 37.205967,22.9442083 C37.3186149,22.7923249 37.4323741,22.6413309 37.5439803,22.4887633 C37.6559337,22.3356484 37.8050428,22.2597067 37.9942248,22.3018509 C38.1907683,22.3456371 38.2927903,22.482469 38.3264737,22.6751968 C38.4409273,23.331853 38.5573256,23.988099 38.6724737,24.6446184 Z M27.3267568,12.728817 C27.3171727,12.708087 27.3073803,12.6874938 27.2978656,12.6666953 C27.2569596,12.5766599 27.2404303,12.470752 27.3309238,12.4203295 C27.3992626,12.3822218 27.5096881,12.3793483 27.5872638,12.4038412 C27.7178299,12.4451645 27.8374923,12.5200799 27.9612522,12.5817911 C29.6424289,13.4209812 31.323675,14.2601029 33.0046434,15.0997719 C33.3036952,15.2491239 33.6010108,15.4017598 33.9002709,15.5507014 C33.9998622,15.6002346 34.0805632,15.658867 34.0591726,15.7846156 C34.0379902,15.9094063 33.9440938,15.9363622 33.8333905,15.9560659 C32.6223904,16.1714394 31.412085,16.3900968 30.2016405,16.6080016 C30.173166,16.6131328 30.1450387,16.6196323 30.0830893,16.6324945 C30.0479476,16.6094383 29.981484,16.5833718 29.9405083,16.5358912 C29.7042394,16.2620905 29.4151189,16.0950871 29.0445336,16.0811304 C28.9102173,16.0760676 28.8409062,15.9954735 28.7890965,15.8832714 C28.5760237,15.422011 28.3584369,14.9627347 28.1447391,14.501748 C27.8709672,13.9112499 27.5993481,13.319794 27.3267568,12.728817 Z" id="Shape" fill="#FFFFFF"></path>
        </g>
    </g>
</svg>