<?xml version="1.0" encoding="UTF-8"?>
<svg width="48px" height="48px" viewBox="0 0 48 48" version="1.1" xmlns="http://www.w3.org/2000/svg" xmlns:xlink="http://www.w3.org/1999/xlink">
    <!-- Generator: Sketch 49.1 (51147) - http://www.bohemiancoding.com/sketch -->
    <title>dcn</title>
    <desc>Created with Sketch.</desc>
    <defs>
        <circle id="path-1" cx="24" cy="24" r="24"></circle>
    </defs>
    <g id="48px" stroke="none" stroke-width="1" fill="none" fill-rule="evenodd">
        <g id="dcn">
            <g id="dcn-a-link" fill="#136485" fill-rule="nonzero">
                <circle id="dcn-a" cx="24" cy="24" r="24"></circle>
            </g>
            <g id="Clipped">
                <mask id="mask-2" fill="white">
                    <use xlink:href="#path-1"></use>
                </mask>
                <g id="dcn-a"></g>
                <path d="M31.7205505,48 C28.1413152,37.0944264 25.5151824,29.1283648 23.8421523,24.1018154 C23.7652208,24.1004967 23.6884208,24.099178 23.6114893,24.0978594 C21.8473688,29.0575956 19.1624498,36.619176 15.5567322,46.7826005 L20.2758636,48 L6,48 L6.93477819,41.7236322 C7.14401234,41.3804698 7.43536917,40.8541465 7.46868165,40.8014637 C11.0505337,35.1415516 14.2675858,29.2846285 16.6903365,23.0268264 C19.2603749,16.388321 21.3162213,9.57601318 23.2767255,2.73535384 C23.4516295,2.12546373 23.6595419,1.52493627 23.8520679,0.920057143 C24.0581392,1.15768352 24.1338871,1.3779033 24.1967474,1.60168351 C25.426731,5.99025495 26.6166049,10.3906945 27.8924844,14.7658154 C30.216605,22.735266 33.4862598,30.2956615 37.8183583,37.3812 C38.3641995,38.2740351 39.3235403,39.8136351 40.6963806,42 C40.7574792,41.8943211 40.818168,41.7888544 40.878447,41.6836 L41.25,48 L31.7205505,48 Z M23.9272494,0.072750535 L24,0 L24.1125153,0.073134922 C24.0508407,0.0727817336 23.9890852,0.0726532834 23.9272494,0.072750535 Z" id="Shape" fill="#FFFFFF" fill-rule="nonzero" mask="url(#mask-2)"></path>
            </g>
        </g>
    </g>
</svg>