<?xml version="1.0" encoding="UTF-8"?>
<svg width="48px" height="48px" viewBox="0 0 48 48" version="1.1" xmlns="http://www.w3.org/2000/svg" xmlns:xlink="http://www.w3.org/1999/xlink">
    <!-- Generator: Sketch 49.1 (51147) - http://www.bohemiancoding.com/sketch -->
    <title>dcr</title>
    <desc>Created with Sketch.</desc>
    <defs></defs>
    <g id="48px" stroke="none" stroke-width="1" fill="none" fill-rule="evenodd">
        <g id="dcr" fill-rule="nonzero">
            <circle id="Oval" fill="#2ED6A1" cx="24" cy="24" r="24"></circle>
            <path d="M22.2840582,26.4287878 L28.9138237,26.4287878 C31.3812421,26.4287878 33.38148,24.4173253 33.38148,21.9360606 C33.38148,19.4547959 31.3812421,17.4433333 28.9138237,17.4433333 L26.8044487,17.4433333 L22.2840582,13.5 L28.9138237,13.5 C32.9258454,13.500888 36.3759432,16.3576274 37.1467498,20.3170023 C37.9175563,24.2763774 35.7933937,28.2305211 32.0778862,29.7527272 L37.3049175,34.3154545 L31.3185113,34.3154545 L22.2840582,26.4287878 Z M25.5198394,21.3887878 L18.8900738,21.3887878 C16.4226554,21.3887878 14.4224175,23.4002503 14.4224175,25.8815151 C14.4224175,28.3627799 16.4226554,30.3742423 18.8900738,30.3742423 L20.9994487,30.3742423 L25.51773,34.3175757 L18.8900738,34.3175757 C14.8780521,34.3166878 11.4279544,31.4599483 10.6571477,27.5005734 C9.8863411,23.5411984 12.0105038,19.5870546 15.7260113,18.0648484 L10.5031988,13.5 L16.489605,13.5 L25.5198394,21.3887878 Z" id="Shape" fill="#FFFFFF"></path>
        </g>
    </g>
</svg>