<?xml version="1.0" encoding="UTF-8"?>
<svg width="48px" height="48px" viewBox="0 0 48 48" version="1.1" xmlns="http://www.w3.org/2000/svg" xmlns:xlink="http://www.w3.org/1999/xlink">
    <!-- Generator: Sketch 49.1 (51147) - http://www.bohemiancoding.com/sketch -->
    <title>dent</title>
    <desc>Created with Sketch.</desc>
    <defs></defs>
    <g id="48px" stroke="none" stroke-width="1" fill="none" fill-rule="evenodd">
        <g id="dent" fill-rule="nonzero">
            <circle id="Oval" fill="#666666" cx="24" cy="24" r="24"></circle>
            <path d="M37.6234575,31.7241036 C36.9950195,32.7931195 35.6030576,33.1594063 34.5144702,32.5422669 L27.3470109,28.4784024 L27.3470109,25.8976972 L29.6229899,24.6072789 L36.7904492,28.6708804 C37.8790365,29.2881514 38.2518954,30.6550876 37.6234575,31.7241036 Z M26.275962,37.2131473 C26.275962,38.4475578 25.2569928,39.4482072 23.999983,39.4482072 C22.7431071,39.4482072 21.7240041,38.4475578 21.7240041,37.2131473 L21.7240041,29.0858127 L23.999983,27.7952629 L26.275962,29.0858127 L26.275962,37.2131473 Z M13.4856297,32.5422669 C12.3970423,33.1594063 11.0050804,32.7931196 10.3765085,31.7241036 C9.74807058,30.6550877 10.1210634,29.2881515 11.2096507,28.6708804 L18.3769762,24.6072789 L20.6529552,25.8976973 L20.6529552,28.4784024 L13.4856297,32.5422669 Z M11.2096507,19.3291195 C10.1210634,18.7118485 9.74807058,17.3449123 10.3765085,16.2758964 C11.0050804,15.2068804 12.3970423,14.8405936 13.4856297,15.4577331 L20.6529552,19.5215976 L20.6529552,22.1023027 L18.3769762,23.3927211 L11.2096507,19.3291195 Z M21.7240041,10.7868526 C21.7240041,9.55244223 22.7431071,8.55179283 23.999983,8.55179283 C25.2569928,8.55179283 26.275962,9.55244223 26.275962,10.7868526 L26.275962,18.9141873 L23.999983,20.2046056 L21.7240041,18.9141873 L21.7240041,10.7868526 Z M27.3470109,23.3168605 L28.551941,24 L27.3470109,24.6831394 L27.3470109,23.3168605 Z M25.0710319,20.8118844 L26.275962,20.1287449 L26.275962,21.4950238 L25.0710319,20.8118844 Z M21.7240041,21.4950238 L21.7240041,20.1287449 L22.9289341,20.8118844 L21.7240041,21.4950238 Z M20.6529552,24.6831394 L19.4480251,24 L20.6529552,23.3168605 L20.6529552,24.6831394 Z M22.9289341,27.1881156 L21.7240041,27.871255 L21.7240041,26.5049761 L22.9289341,27.1881156 Z M26.275962,26.5049761 L26.275962,27.871255 L25.0710319,27.1881156 L26.275962,26.5049761 Z M23.999983,26.5808367 L21.7240041,25.2902868 L21.7240041,22.7095817 L23.999983,21.4191633 L26.275962,22.7095817 L26.275962,25.2902868 L23.999983,26.5808367 Z M34.5144702,15.4577331 C35.6030576,14.8405936 36.9950195,15.2068805 37.6234575,16.2758964 C38.2518954,17.3449124 37.8790365,18.7118486 36.7904492,19.3291196 L29.6229899,23.3927211 L27.3470109,22.1023027 L27.3470109,19.5215976 L34.5144702,15.4577331 Z M37.3259736,27.7601593 L30.6940387,24 L37.3259736,20.2398406 C38.9267901,19.3322749 39.4753011,17.3221674 38.5509858,15.75 C37.6268044,14.1778327 35.5797622,13.6393147 33.9789457,14.547012 L27.3470109,18.3070398 L27.3470109,10.7868526 C27.3470109,8.97158964 25.8484795,7.5 23.999983,7.5 C22.1514864,7.5 20.6529552,8.97158964 20.6529552,10.7868526 L20.6529552,18.3070398 L14.0211541,14.547012 C12.4203376,13.6393147 10.3731615,14.1778327 9.44898018,15.75 C8.52466496,17.3221674 9.07330977,19.3322749 10.6741263,20.2398406 L17.3059272,24 L10.6741263,27.7601593 C9.07330977,28.6677251 8.52466496,30.6779642 9.44898018,32.25 C10.3731615,33.8220358 12.4203376,34.3608168 14.0211541,33.452988 L20.6529552,29.6929602 L20.6529552,37.2131473 C20.6529552,39.0284103 22.1514864,40.5 23.999983,40.5 C25.8484795,40.5 27.3470109,39.0284103 27.3470109,37.2131473 L27.3470109,29.6929602 L33.9789457,33.452988 C35.5797622,34.3608168 37.6268044,33.8220358 38.5509858,32.25 C39.4753011,30.6779641 38.9267901,28.667725 37.3259736,27.7601593 Z" id="Shape" fill="#FFFFFF"></path>
        </g>
    </g>
</svg>