<?xml version="1.0" encoding="UTF-8"?>
<svg width="48px" height="48px" viewBox="0 0 48 48" version="1.1" xmlns="http://www.w3.org/2000/svg" xmlns:xlink="http://www.w3.org/1999/xlink">
    <!-- Generator: Sketch 49.1 (51147) - http://www.bohemiancoding.com/sketch -->
    <title>dgb</title>
    <desc>Created with Sketch.</desc>
    <defs></defs>
    <g id="48px" stroke="none" stroke-width="1" fill="none" fill-rule="evenodd">
        <g id="dgb" fill-rule="nonzero">
            <circle id="Oval" fill="#006AD2" cx="24" cy="24" r="24"></circle>
            <path d="M18.5520822,37.4998521 C18.7968259,36.8443341 19.024633,36.2342806 19.2702414,35.5764246 C18.8203747,35.6210056 18.412977,35.6613261 17.9957631,35.7026337 C17.8404333,36.1131636 17.6886127,36.5151204 17.5360801,36.9167653 C17.5008334,37.0096165 17.4711814,37.1061568 17.4246435,37.1929807 C17.3241418,37.3805016 17.1696766,37.4972541 16.954483,37.4977737 C16.010653,37.4999559 15.066823,37.4981893 14.122942,37.4967345 C14.1000037,37.4966824 14.0770653,37.4839005 14.0276791,37.4691961 C14.226597,36.9327168 14.4239382,36.4006021 14.6311974,35.8417285 C13.5314271,35.8122676 12.4615631,35.7935103 11.3976499,35.6717698 C11.4151461,35.4720385 17.4901525,20.1545043 17.7311835,19.6929504 C17.7916573,19.6887936 17.8626595,19.6797007 17.9336109,19.6797007 C19.5691524,19.6788694 21.2046429,19.6790253 22.8401844,19.6791811 C22.8889603,19.6791811 22.9379395,19.6783498 22.9865628,19.681935 C23.4824589,19.7185143 23.7577702,20.1384489 23.5847914,20.6159544 C23.3562724,21.2467917 23.1139191,21.872433 22.8777708,22.5004123 C21.8485957,25.2372099 20.8194715,27.9740593 19.7908051,30.7110646 C19.7591187,30.7952905 19.7325183,30.8814909 19.6939656,30.9950739 C19.7804803,30.9998022 19.8485833,31.0093626 19.916127,31.006401 C24.5598502,30.8038119 27.9681058,28.5873343 30.1701894,24.4215535 C30.6516409,23.51076 30.9882399,22.5399534 31.1752054,21.5194737 C31.2838957,20.9264629 31.3184812,20.3323608 31.1704753,19.7395059 C31.0087878,19.0920417 30.6530142,18.5794636 30.1224309,18.1957446 C29.4216661,17.6889342 28.6313859,17.4730434 27.779767,17.468419 C27.6821136,17.4678475 27.5844603,17.4678994 27.4868068,17.4678994 C22.1897214,17.4678994 16.8926359,17.4678994 11.5955505,17.4678994 L11.25,17.4678994 C11.2856028,17.3783217 11.3023361,17.3178931 11.3317338,17.2647907 C12.0245134,16.0136641 12.718717,14.7633687 13.4124628,13.5128135 C13.6459155,13.0920995 13.9967556,12.8856654 14.4724089,12.8860291 C17.3040009,12.8881075 20.1356436,12.8870164 22.9672864,12.8870164 L23.2702662,12.8870164 C23.572483,12.0876753 23.8704276,11.2996614 24.172441,10.5009438 L24.4291881,10.5009438 C25.2347266,10.5009438 26.0403162,10.5008399 26.845804,10.5011517 C26.9109063,10.5011517 26.9770257,10.4963195 27.0407547,10.5064515 C27.2306701,10.5364839 27.3403267,10.6850874 27.3119971,10.8807139 C27.3002991,10.9616145 27.2693755,11.0406445 27.2404864,11.117856 C27.0550467,11.6144824 26.8672165,12.1102256 26.6815225,12.6067482 C26.6504463,12.689831 26.6256261,12.775304 26.5922103,12.8770921 L27.7998063,12.8770921 C27.8285428,12.8114676 27.8606362,12.7461549 27.8862193,12.6782441 C28.1350828,12.0196606 28.382268,11.3604017 28.6311823,10.7018183 C28.7062026,10.5034379 28.7079318,10.5016193 28.9084773,10.5014115 C29.7547048,10.5004242 30.6009324,10.4992292 31.4471599,10.5018791 C31.8050697,10.5030741 31.9314597,10.691998 31.8045612,11.0377348 C31.6019304,11.5899057 31.3927894,12.1395306 31.1868526,12.6904026 C31.1582178,12.7670425 31.1324313,12.8448255 31.0956078,12.9498351 C31.1791218,12.9646954 31.246411,12.9800234 31.314514,12.9883889 C32.4910339,13.1330954 33.6369352,13.3992826 34.7253126,13.8901416 C35.5521621,14.2630012 36.3033301,14.7510024 36.9213948,15.4336429 C37.7574501,16.3569588 38.1732399,17.4599497 38.2391559,18.7062442 C38.3029357,19.9118547 38.0813337,21.0766251 37.680904,22.2010752 C36.7331577,24.8623239 35.3863548,27.2817024 33.4358812,29.3203234 C32.0928928,30.7240024 30.5418826,31.8400351 28.8405777,32.742879 C27.004389,33.7173228 25.0640875,34.4010025 23.0541064,34.8845872 C22.8744649,34.9278174 22.7797105,35.0070552 22.7167953,35.1838206 C22.4973804,35.800369 22.2625036,36.4112019 22.0314924,37.0233858 C21.8896407,37.3993629 21.7464666,37.4992804 21.354429,37.4995923 C20.5081506,37.5003196 19.661923,37.4998521 18.8156955,37.4998521 L18.5520822,37.4998521 Z" id="Shape" fill="#FFFFFF"></path>
        </g>
    </g>
</svg>