<?xml version="1.0" encoding="UTF-8"?>
<svg width="48px" height="48px" viewBox="0 0 48 48" version="1.1" xmlns="http://www.w3.org/2000/svg" xmlns:xlink="http://www.w3.org/1999/xlink">
    <!-- Generator: Sketch 49.1 (51147) - http://www.bohemiancoding.com/sketch -->
    <title>dgd</title>
    <desc>Created with Sketch.</desc>
    <defs></defs>
    <g id="48px" stroke="none" stroke-width="1" fill="none" fill-rule="evenodd">
        <g id="dgd" fill-rule="nonzero">
            <circle id="Oval" fill="#F4D029" cx="24" cy="24" r="24"></circle>
            <path d="M18.75,16.5 L18.75,21 L8.25,21 L8.25,16.5 L18.75,16.5 Z M20.25,16.5 L23.25,16.5 L23.25,31.5 L8.25,31.5 L8.25,22.5 L20.25,22.5 L20.25,16.5 Z M11.25,25.5 L11.25,28.5 L20.25,28.5 L20.25,25.5 L11.25,25.5 Z M39.75,19.5 L27.75,19.5 L27.75,28.5 L36.75,28.5 L36.75,25.5 L30.75,25.5 L30.75,22.5 L39.75,22.5 L39.75,31.5 L24.75,31.5 L24.75,16.5 L39.75,16.5 L39.75,19.5 Z" id="Shape" fill="#FFFFFF"></path>
        </g>
    </g>
</svg>