<?xml version="1.0" encoding="UTF-8"?>
<svg width="48px" height="48px" viewBox="0 0 48 48" version="1.1" xmlns="http://www.w3.org/2000/svg" xmlns:xlink="http://www.w3.org/1999/xlink">
    <!-- Generator: Sketch 49.1 (51147) - http://www.bohemiancoding.com/sketch -->
    <title>doge</title>
    <desc>Created with Sketch.</desc>
    <defs></defs>
    <g id="48px" stroke="none" stroke-width="1" fill="none" fill-rule="evenodd">
        <g id="doge" fill-rule="nonzero">
            <circle id="Oval" fill="#C3A634" cx="24" cy="24" r="24"></circle>
            <path d="M19.8716814,21.9159664 L26.3429203,21.9159664 L26.3429203,25.3445378 L19.8716814,25.3445378 L19.8716814,32.5714286 L23.9535397,32.5714286 C25.5685922,32.5714286 26.8904816,32.3529434 27.9192478,31.9159663 C28.948014,31.4789893 29.7555281,30.8739534 30.3418141,30.1008403 C30.9281002,29.3277273 31.3263264,28.4201733 31.5365045,27.3781512 C31.7466825,26.3361292 31.8517699,25.21009 31.8517699,24 C31.8517699,22.7899099 31.7466825,21.6638708 31.5365045,20.6218488 C31.3263264,19.5798267 30.9281002,18.6722727 30.3418141,17.8991597 C29.7555281,17.1260466 28.948014,16.5210107 27.9192478,16.0840336 C26.8904816,15.6470566 25.5685922,15.4285714 23.9535397,15.4285714 L19.8716814,15.4285714 L19.8716814,21.9159664 Z M15.7234514,25.3445378 L13.5,25.3445378 L13.5,21.9159664 L15.7234514,21.9159664 L15.7234514,12 L25.5464603,12 C27.3606285,12 28.9314093,12.3137224 30.2588496,12.9411765 C31.5862898,13.5686306 32.6703498,14.4257649 33.511062,15.5126051 C34.3517741,16.5994452 34.9767678,17.8711411 35.386062,19.3277311 C35.7953561,20.784321 36,22.3417284 36,24 C36,25.6582716 35.7953561,27.215679 35.386062,28.6722688 C34.9767678,30.1288589 34.3517741,31.4005548 33.511062,32.487395 C32.6703498,33.5742351 31.5862898,34.4313695 30.2588496,35.0588235 C28.9314093,35.6862777 27.3606285,36 25.5464603,36 L15.7234514,36 L15.7234514,25.3445378 Z" id="Shape" fill="#FFFFFF"></path>
        </g>
    </g>
</svg>