<?xml version="1.0" encoding="UTF-8"?>
<svg width="48px" height="48px" viewBox="0 0 48 48" version="1.1" xmlns="http://www.w3.org/2000/svg" xmlns:xlink="http://www.w3.org/1999/xlink">
    <!-- Generator: Sketch 49.1 (51147) - http://www.bohemiancoding.com/sketch -->
    <title>edg</title>
    <desc>Created with Sketch.</desc>
    <defs></defs>
    <g id="48px" stroke="none" stroke-width="1" fill="none" fill-rule="evenodd">
        <g id="edg" fill-rule="nonzero">
            <circle id="Oval" fill="#2B1544" cx="24" cy="24" r="24"></circle>
            <path d="M37.4851974,18.7526236 C37.4851974,22.077961 37.4851974,25.4047975 37.4851974,28.7376312 C37.4851974,29.1814093 37.5074013,29.6341828 37.4067433,30.0704647 C37.1817434,31.0749625 36.6503289,32.0119939 35.9042763,32.7106447 C35.5504933,33.0509745 35.1078948,33.2713642 34.6875,33.5217391 C31.8276317,35.1859071 28.9751645,36.8545726 26.1167763,38.5232383 C25.2434211,38.9895052 24.2116776,39.0689655 23.2421052,38.9490255 C22.7373355,38.8815592 22.244408,38.7331335 21.8018092,38.4782608 C18.7924342,36.7241379 15.7815789,34.9640179 12.7722039,33.209895 C12.0379934,32.8005997 11.4888158,32.1259371 11.0847039,31.3988005 C10.7546053,30.7691154 10.5133224,30.0764617 10.5133224,29.3553223 C10.5133224,25.7631184 10.5133224,22.1694153 10.5133224,18.5757121 C10.5695724,17.5262368 11.034375,16.5322339 11.6960526,15.7376311 C11.9639803,15.4032984 12.2896382,15.113943 12.6537829,14.892054 C15.4514802,13.2623688 18.2476974,11.6281859 21.0453948,9.99250375 C21.5057567,9.73763118 21.9424342,9.4257871 22.441283,9.25487256 C23.2702302,8.988006 24.1613487,8.94752623 25.0421052,9.10794603 C25.4284539,9.21589206 25.8207237,9.32983507 26.1685855,9.53373313 C29.2120066,11.3208396 32.2613487,13.0929535 35.3047698,14.8815592 C36.1174343,15.3628186 36.7125,16.1634183 37.0988487,17.0209894 C37.3445724,17.5607196 37.4851974,18.155922 37.4851974,18.7526236 Z M23.9097039,15.0389805 C23.2539474,15.988006 22.5256579,16.8905547 21.6789474,17.6791603 C21.2407895,18.0944527 20.8203948,18.5427286 20.5702302,19.0989505 C20.3689144,19.491754 20.2342106,19.9400299 20.2904605,20.3883058 C20.3585526,20.9955022 20.7893092,21.5292354 21.3503289,21.7451274 C21.9217106,21.9730135 22.5671052,21.922039 23.1325657,21.7001499 C23.2347039,21.6551724 23.3457237,21.6386806 23.4582237,21.6551724 C23.3472039,22.365817 22.9149671,22.9670164 22.5730263,23.5802098 C22.577467,23.6026986 22.5833881,23.6596701 22.5893092,23.6821588 C22.8972039,24.011994 23.2228618,24.3238381 23.5307567,24.6476761 C23.6092106,24.7211394 23.6817433,24.8230884 23.7883224,24.8575711 C24.1465461,24.5802099 24.4277961,24.215892 24.7578948,23.910045 C24.8304276,23.826087 24.9814144,23.7346327 24.9029605,23.6041978 C24.5832237,23.0029984 24.2294407,22.395802 24.1287829,21.7031484 C24.1894737,21.5622189 24.3582237,21.6806596 24.4588816,21.7151424 C24.9917763,21.976012 25.6356907,22.0164918 26.1907894,21.8005996 C26.9486842,21.5112444 27.419408,20.6251873 27.2506579,19.8245877 C27.121875,19.1034483 26.739967,18.4452774 26.2248355,17.94003 C25.4284539,17.1229386 24.6661183,16.2488755 24.1228618,15.2383807 C24.0784539,15.1409295 24.0103619,15.0734632 23.9097039,15.0389805 Z M18.4608552,24.8035981 C17.559375,25.2923538 16.9583881,26.2518741 16.811842,27.269865 C16.6046052,28.7001499 17.4394737,30.1934032 18.7347039,30.7781109 C19.5532895,31.1304348 20.5050987,31.1244378 21.3296052,30.8005996 C21.7559211,30.6296851 22.1200658,30.3523239 22.4338816,30.0224887 C22.5523026,29.8965517 22.7254934,29.784108 22.7254934,29.5907046 C22.7092105,29.3973013 22.5360198,29.2893553 22.4235198,29.1589206 C22.2769737,29.0284857 22.160033,28.8575712 21.9912829,28.7556222 C21.721875,28.6371814 21.5590461,28.9325337 21.3858552,29.0794602 C20.7034539,29.772114 19.4748356,29.778111 18.7746711,29.1019491 C18.3217105,28.6866567 18.1026316,28.0284858 18.2092105,27.4212894 C18.2921052,26.8470765 18.6340461,26.3028486 19.1447369,26.0299849 C19.4748356,25.8650674 19.8449013,25.7751124 20.2090461,25.7916042 C20.7241776,25.8245877 21.1949013,26.0974512 21.5427631,26.4722638 C22.7314144,27.6536731 23.8741776,28.8800599 25.0569079,30.065967 C25.6845394,30.6851574 26.5534539,31.0824588 27.4386513,31.047976 C28.1121711,31.0644678 28.7620066,30.7931034 29.3111842,30.4122939 C30.1194079,29.850075 30.6123355,28.8740629 30.6626644,27.8860569 C30.7692433,26.3238381 29.636842,24.7466266 28.1121711,24.4452774 C27.138158,24.2473763 26.0383224,24.4512744 25.2878289,25.143928 C24.7549342,25.6311844 24.2679276,26.1769116 23.7409539,26.6761618 C23.1962171,26.2278861 22.7654606,25.6611694 22.2325657,25.2008995 C21.9972039,24.9910045 21.7455592,24.8035981 21.4539474,24.6896552 C21.3991776,24.6551724 21.3814145,24.6386806 21.3088816,24.6101949 C20.4,24.2188905 19.3134868,24.2863567 18.4608552,24.8035981 Z M26.0161183,26.3823088 C26.4039474,25.9955022 26.953125,25.7691154 27.5008224,25.8140929 C28.0944079,25.8305847 28.6717106,26.1484258 28.9855263,26.6596701 C29.4784539,27.4092954 29.3333881,28.4872563 28.6998355,29.1064468 C28.05,29.7376312 26.9338816,29.8170915 26.233717,29.2203898 C25.7126644,28.7781109 25.2759869,28.2488755 24.7771381,27.7841079 C24.7726974,27.7511244 24.7667763,27.6881559 24.7608552,27.6596701 C25.1753289,27.227886 25.6016448,26.814093 26.0161183,26.3823088 Z" id="Shape" fill="#FFFFFF"></path>
        </g>
    </g>
</svg>