<?xml version="1.0" encoding="UTF-8"?>
<svg width="48px" height="48px" viewBox="0 0 48 48" version="1.1" xmlns="http://www.w3.org/2000/svg" xmlns:xlink="http://www.w3.org/1999/xlink">
    <!-- Generator: Sketch 49.1 (51147) - http://www.bohemiancoding.com/sketch -->
    <title>edoge</title>
    <desc>Created with Sketch.</desc>
    <defs></defs>
    <g id="48px" stroke="none" stroke-width="1" fill="none" fill-rule="evenodd">
        <g id="edoge" fill-rule="nonzero">
            <circle id="Oval" fill="#0FACF3" cx="24" cy="24" r="24"></circle>
            <path d="M14.207244,13.5234717 L22.3547452,13.5234717 C25.5850345,13.5234717 27.1912407,13.4215981 29.6008209,13.6423242 C32.0104011,13.8970082 34.4199813,14.8817863 35.980141,16.7664478 C37.8176626,18.9567301 38.3550511,21.9110646 38.2337053,24.6616516 C38.1123595,27.3952599 37.1762637,30.2646994 35.0267101,32.1323821 C33.119848,33.8472543 30.4502413,34.4754748 27.9193153,34.4924538 C22.9961443,34.5094327 18.0903084,34.4924538 13.1671374,34.4924538 C12.629749,34.4584959 12.0230202,34.5094327 11.6069776,34.1358961 C10.878903,33.405802 11.3122807,31.8437403 12.473733,31.9116559 C15.2126803,31.8267613 17.9689626,31.9116559 20.7079099,31.8607192 C20.6559046,29.5515843 20.6905747,27.2424495 20.6905747,24.9502935 C18.5756914,24.9333145 16.4781432,24.9502935 14.3632599,24.9502935 C13.895212,24.9333145 13.3751587,24.9333145 13.0111214,24.6276937 C12.5777437,24.2371783 12.5777437,23.5749999 12.7684299,23.065632 C13.0111214,22.5053272 13.6698556,22.4034535 14.2245791,22.4034535 C16.3741326,22.3864746 18.5410212,22.4034535 20.6905747,22.4034535 C20.725245,20.2980658 20.6559046,18.1926781 20.725245,16.1042695 C18.3156648,16.0872906 15.9060846,16.1042695 13.4965045,16.1042695 C12.9591161,16.0872906 12.3523873,16.0872906 11.9363446,15.713754 C11.5029669,15.1534492 11.5896425,14.3554394 11.9536798,13.7951346 C12.6470841,13.4555559 13.4444992,13.5234717 14.207244,13.5234717 Z M23.7068838,22.4034535 C24.6949851,22.4204325 25.6830863,22.3355379 26.6711876,22.4713693 C27.8499749,22.6411587 27.8499749,24.7125885 26.6538524,24.8823778 C25.6830863,25.0351882 24.6776499,24.9333145 23.6895488,24.9502935 C23.7068838,26.9538076 23.6895488,28.9403427 23.6895488,30.9438568 C23.7068838,31.2834355 23.7242189,31.7928034 24.1575966,31.8267613 C25.336384,31.9286349 26.3633538,31.894677 27.6939589,31.894677 C29.6701614,31.9795717 31.7503745,31.3683301 33.1371832,29.9251209 C34.5586621,28.4139958 35.0787154,26.3086081 35.1133857,24.305094 C35.165391,22.0808538 34.7493483,19.6358875 33.1198481,17.9719521 C31.6463639,16.477806 29.4274698,15.968438 27.3645918,16.0872906 C26.1886485,16.0872906 25.1803681,16.0533327 24.0882563,16.1552062 C23.741554,16.2570798 23.7242189,16.6815533 23.7068838,16.9871741 L23.7068838,22.4034535 Z" id="Shape" fill="#FFFFFF"></path>
        </g>
    </g>
</svg>