<?xml version="1.0" encoding="UTF-8"?>
<svg width="48px" height="48px" viewBox="0 0 48 48" version="1.1" xmlns="http://www.w3.org/2000/svg" xmlns:xlink="http://www.w3.org/1999/xlink">
    <!-- Generator: Sketch 49.1 (51147) - http://www.bohemiancoding.com/sketch -->
    <title>elf</title>
    <desc>Created with Sketch.</desc>
    <defs></defs>
    <g id="48px" stroke="none" stroke-width="1" fill="none" fill-rule="evenodd">
        <g id="elf" fill-rule="nonzero">
            <circle id="Oval" fill="#2B5EBB" cx="24" cy="24" r="24"></circle>
            <path d="M38.9999992,23.9431865 C38.9985,27.4477494 36.2850964,30.1800533 32.816733,30.1695543 C29.4205671,30.1591721 26.6647215,27.3516254 26.6822518,23.9200886 C26.7000129,20.4907685 29.4865366,17.6951205 32.8650568,17.7172851 C36.3128913,17.7397997 39.0016138,20.4682539 38.9999992,23.9431865 Z M13.6351367,35.878602 C11.1094928,35.8781354 9.09545927,33.842731 9.10353246,31.2968426 C9.11149034,28.7378886 11.1116841,26.6704041 13.6277555,26.7287319 C14.3499612,26.7455303 15.0770108,27.0157042 15.7816862,27.2357165 C16.7838014,27.5485863 17.7626195,27.9369324 18.7603521,28.2647342 C19.3806048,28.4685312 19.9726013,28.3255116 20.5195031,27.9859277 C21.3156362,27.4915419 21.991248,26.8934493 22.4199351,26.0174837 C22.8563495,25.1258861 23.8467008,24.7952844 24.7259879,25.1735981 C25.5420734,25.524731 25.9666086,26.4137622 25.7304097,27.2773625 C25.4652627,28.2475859 24.6668229,28.7698522 23.6697822,28.5955691 C22.7871506,28.4413505 21.9099393,28.1565945 21.0131217,28.4822966 C19.4089763,29.0648739 18.7030323,30.3949793 18.1758522,31.9116168 C17.8878695,32.7398705 17.5808571,33.61152 17.0659022,34.2973374 C16.2378221,35.400198 15.0189992,35.8840848 13.6351367,35.878602 Z M13.5386619,12.1235047 C15.5901782,12.1236213 17.1874038,13.3240059 17.8835445,15.299216 C18.1586102,16.0795242 18.5739188,16.8092041 18.9270638,17.5611651 C19.800815,19.4218196 21.995573,19.6033355 23.3886618,19.0951842 C24.6215553,18.6454775 25.8090081,19.4371014 25.8376103,20.7148286 C25.8574473,21.6014099 25.4014266,22.2460479 24.5708094,22.5056062 C23.8377626,22.7346009 23.0082986,22.4240642 22.5588519,21.7536453 C22.3977338,21.5133351 22.2478029,21.2636924 22.0688084,21.0376142 C20.8449108,19.4922794 19.4872287,19.0871351 17.6437704,19.7803017 C17.0022968,20.0214285 16.4014199,20.3809607 15.7977749,20.7155285 C13.4566613,22.0136703 10.5879062,21.0978084 9.44727792,18.6775578 C8.01255438,15.6332006 10.2036217,12.1232714 13.5386619,12.1235047 Z M27.8349207,35.9845485 C27.8163524,37.6628704 26.4458685,39.0297224 24.8116215,38.9995086 C23.231465,38.9704614 21.9118422,37.6088589 21.8727449,36.0792727 C21.8283423,34.3478725 23.0999871,32.9399578 24.8691719,32.9230429 C26.5609694,32.9068278 27.8536044,34.3019103 27.8349207,35.9845485 Z M21.8887644,12.030262 C21.8883032,10.3315253 23.2188824,8.9843882 24.8818469,9.00013668 C26.4993708,9.01541855 27.851517,10.3990688 27.8390612,12.0264123 C27.8260287,13.738681 26.5452728,15.111249 24.8592419,15.0791688 C22.9417409,15.0427724 21.8109158,13.4969709 21.8887644,12.030262 Z" id="Shape" fill="#FFFFFF"></path>
        </g>
    </g>
</svg>