<?xml version="1.0" encoding="UTF-8"?>
<svg width="48px" height="48px" viewBox="0 0 48 48" version="1.1" xmlns="http://www.w3.org/2000/svg" xmlns:xlink="http://www.w3.org/1999/xlink">
    <!-- Generator: Sketch 49.1 (51147) - http://www.bohemiancoding.com/sketch -->
    <title>ella</title>
    <desc>Created with Sketch.</desc>
    <defs></defs>
    <g id="48px" stroke="none" stroke-width="1" fill="none" fill-rule="evenodd">
        <g id="ella" fill-rule="nonzero">
            <circle id="Oval" fill="#396A28" cx="24" cy="24" r="24"></circle>
            <path d="M27.1089207,19.8182231 L24,16.7093024 L20.8699059,19.8393965 L17.6240613,16.5935519 L24,7.5 L30.4193484,16.5077952 L27.1089207,19.8182231 Z M19.7845793,20.9247231 L16.7093023,24 L19.8182231,27.1089207 L16.5837457,30.3433978 L7.5,24 L16.4850138,17.6251578 L19.7845793,20.9247231 Z M28.1606035,27.1300941 L31.2906976,24 L28.1942473,20.9035497 L31.5322699,17.5655271 L40.5,24 L31.4334443,30.4029348 L28.1606035,27.1300941 Z M20.9035497,28.1942473 L24,31.2906976 L27.0752769,28.2154207 L30.3487406,31.4888844 L24,40.5 L17.6944001,31.4033969 L20.9035497,28.1942473 Z M24,18.7923588 L29.2076412,24 L24,29.2076412 L18.7923588,24 L24,18.7923588 Z" id="Shape" fill="#FFFFFF"></path>
        </g>
    </g>
</svg>