<?xml version="1.0" encoding="UTF-8"?>
<svg width="48px" height="48px" viewBox="0 0 48 48" version="1.1" xmlns="http://www.w3.org/2000/svg" xmlns:xlink="http://www.w3.org/1999/xlink">
    <!-- Generator: Sketch 49.1 (51147) - http://www.bohemiancoding.com/sketch -->
    <title>eng</title>
    <desc>Created with Sketch.</desc>
    <defs></defs>
    <g id="48px" stroke="none" stroke-width="1" fill="none" fill-rule="evenodd">
        <g id="eng" fill-rule="nonzero">
            <circle id="Oval" fill="#2F2F2F" cx="24" cy="24" r="24"></circle>
            <path d="M37.7235599,15.4428501 C37.8941453,15.5338803 38.2856826,15.744999 38.2473794,16.2091911 L38.2238073,31.8340701 C38.2555375,32.1213369 38.0829028,32.4103545 37.8001531,32.5426467 C36.653676,33.2106537 35.482673,33.8948625 34.3501276,34.5566241 C33.4558943,35.0791293 32.5312065,35.6194302 31.6211079,36.1502715 L24.3546511,40.3926114 C24.2622184,40.462919 24.1512012,40.5 24.0327477,40.5 C23.9021408,40.5 23.7606177,40.4543216 23.6232833,40.3678907 L18.6106272,37.4755847 C15.8262535,35.8692501 12.9471017,34.2082481 10.1092429,32.5758602 C9.87058303,32.4606452 9.73101895,32.1908997 9.75209082,31.8853014 L9.76151194,27.7581374 C9.77094595,24.0429933 9.77574028,20.2708559 9.78037996,16.6229097 L9.78039285,16.6151877 L9.78115324,16.607505 C9.78329265,16.5857634 9.78241627,16.5602588 9.78148833,16.5332646 C9.78093415,16.5172458 9.78043152,16.5015537 9.78037996,16.4863973 L9.78035419,16.4852082 C9.77552119,16.2845421 9.76548144,15.8683412 10.155369,15.6806756 C11.7452576,14.732196 13.3725601,13.7673841 14.9464805,12.8342308 C15.8005679,12.3278358 16.6837432,11.80422 17.5520976,11.2884568 C19.5341808,10.11429 21.5540903,8.91570298 23.5074846,7.75658808 L23.5225894,7.74763794 C23.647938,7.67581471 23.774511,7.61640408 23.920867,7.56071723 L24.0748528,7.5 L24.2187473,7.58580375 C25.6386561,8.40796224 27.0805905,9.24768131 28.4750586,10.0597529 C29.3280504,10.5565053 30.2100789,11.0701649 31.0783172,11.5747045 C31.9256642,12.0674456 32.787278,12.5692152 33.6205125,13.0544565 C34.9314147,13.8178838 36.2869481,14.6073122 37.6222473,15.3821199 L37.6248378,15.3836094 L37.6273767,15.3852165 C37.6616717,15.4069581 37.6918167,15.4244664 37.7235599,15.4428501 Z M24.5699451,38.9476278 L29.0133513,36.3520612 C30.0078276,35.7719484 31.0015821,35.1919009 31.994937,34.6120756 C33.6662778,33.6365104 35.393604,32.6282674 37.093672,31.6377679 L37.1076813,22.8649981 L37.1166771,17.0669934 L31.3405105,20.4443578 C31.3431139,21.0276586 31.3420957,21.6186553 31.3411162,22.1910723 C31.3406007,22.4971147 31.3400724,22.8031443 31.3400724,23.1091867 C31.33435,25.0880821 31.3373529,26.6727664 31.3494934,28.0967532 L31.3494934,28.2112495 L31.2829398,28.3040697 C31.1984848,28.4257002 31.0834465,28.4960469 31.0066986,28.5427183 L30.967764,28.5673998 L30.9653152,28.568824 C30.3422194,28.9323826 29.7103855,29.299482 29.0993529,29.6545086 C28.4252464,30.0461719 27.7281864,30.4511755 27.0446202,30.850404 L24.5788764,32.2834716 L24.5699451,38.9476278 Z M18.2763513,20.1133988 C18.8701656,20.4544448 19.4697537,20.7979733 20.0517883,21.1314411 C20.7104292,21.5087973 21.3914824,21.8989973 22.0613616,22.283997 L24.0179007,23.4069324 L29.6832048,20.0951196 L24.0089823,16.7470227 L18.2763513,20.1133988 Z M17.6902956,21.089369 L17.7976138,27.6717064 L23.4491149,30.9651618 L23.4580591,24.3963736 L17.6902956,21.089369 Z M10.9101286,17.1979137 L10.8825096,31.7092515 L23.4442174,38.9544351 L23.4486897,32.2784934 L20.9880366,30.8457134 C20.4738702,30.5459817 19.9512619,30.242082 19.4458722,29.9481908 C18.6552454,29.4884019 17.8377471,29.0129993 17.0355726,28.5437375 C16.8028413,28.4337488 16.6581477,28.1667734 16.6734715,27.8748942 L16.5523503,20.4367274 L10.9101286,17.1979137 Z M36.551487,16.0779834 C35.8151058,15.6484812 35.0707468,15.2152292 34.3486455,14.7949254 C33.5510334,14.330681 32.7262791,13.8506269 31.9150572,13.3772625 C29.5993813,12.0327687 26.8535299,10.4367694 24.0189834,8.7781191 C20.8715163,10.6386636 18.0565594,12.3060027 15.4154359,13.8741194 L11.4767492,16.2094263 L17.1433678,19.4559228 L23.6446515,15.638329 C23.7508873,15.5677863 23.8757075,15.5305224 24.0060051,15.5305224 C24.1457367,15.5305224 24.2799265,15.5731563 24.394591,15.6538774 L30.8082879,19.4362324 L36.551487,16.0779834 Z M24.5791986,30.9694866 C26.2672164,29.9849712 28.0841271,28.9285674 30.2664252,27.6627825 L30.2664252,21.0750096 L24.5836578,24.3956287 L24.5791986,30.9694866 Z M32.2690995,29.7799608 C32.212547,29.7968028 32.1574508,29.8046683 32.0960008,29.8046683 C31.9278253,29.8046683 31.775515,29.7426706 31.6658255,29.6298075 C31.4871849,29.4803467 31.4020211,29.2222429 31.4485467,28.9686732 C31.4971473,28.7100337 31.6732232,28.5065584 31.9085321,28.4362509 C31.971722,28.415254 32.0373347,28.4046052 32.1035919,28.4046052 C32.286872,28.4046052 32.46684,28.4880702 32.5973309,28.6335982 L32.600076,28.6367601 C32.7850832,28.8545686 32.829972,29.1497011 32.7158876,29.3918775 C32.6528781,29.5743036 32.4791351,29.7255544 32.2690995,29.7799608 Z M35.3651628,31.8910347 C35.1964074,31.7714949 35.0954943,31.5445141 35.107403,31.3091973 C35.119131,31.0715155 35.2433325,30.8585676 35.4398487,30.7391191 C35.5396404,30.6743253 35.6543822,30.6401058 35.7718948,30.6401058 C35.900053,30.6401058 36.025956,30.680388 36.1360966,30.7566274 C36.3654643,30.9103347 36.483789,31.1781202 36.4394157,31.4415679 C36.4222617,31.6667977 36.257579,31.8850767 36.0266518,31.9871214 C35.9406889,32.0244768 35.8535274,32.0432133 35.7666882,32.0432133 C35.6200099,32.0432133 35.4778425,31.9892511 35.3651628,31.8910347 Z M15.5827414,28.4122396 C15.7689858,28.4122396 15.947304,28.4974032 16.0722274,28.6459363 C16.2552885,28.8564148 16.3000999,29.1470526 16.1873686,29.38902 C16.1153119,29.5790242 15.931774,29.7323787 15.7170987,29.7813759 C15.6691812,29.793318 15.6148066,29.7998772 15.5637445,29.7998772 C15.4090756,29.7998772 15.2602837,29.7429621 15.1441114,29.6394672 C14.9552121,29.4894315 14.8679475,29.2255395 14.9216904,28.9652277 C14.9755623,28.710325 15.1576567,28.5096721 15.3972703,28.4404098 C15.4577665,28.4217255 15.5201572,28.4122396 15.5827414,28.4122396 Z M33.5154974,30.7760565 C33.3273455,30.6292087 33.2325156,30.3681261 33.2738732,30.1105711 C33.3153983,29.8579551 33.4833804,29.6504163 33.7126062,29.5677484 C33.7822272,29.5406498 33.8558048,29.5269043 33.9313542,29.5269043 C34.0961787,29.5269043 34.2555903,29.5916982 34.3803848,29.7093565 C34.5713333,29.8852758 34.6502852,30.1419947 34.5881135,30.382172 C34.5570147,30.5975632 34.3885041,30.7966221 34.1649749,30.8804659 C34.0895156,30.9097075 34.0115304,30.9239362 33.9266243,30.9239362 C33.7809771,30.9239362 33.6350076,30.8714374 33.5154974,30.7760565 Z M14.1584854,29.6907325 C14.3572698,29.8567608 14.4514681,30.118915 14.400277,30.3619146 C14.3767693,30.5696493 14.2282223,30.7650497 14.0191662,30.8619333 L14.0168592,30.8629787 C13.9157143,30.9078339 13.8255499,30.9287262 13.7331172,30.9287262 C13.6190713,30.9287262 13.5005404,30.8936835 13.3989831,30.8300002 C13.1778251,30.7003997 13.0504015,30.4379449 13.0742056,30.1604383 C13.0982417,29.8862768 13.2639684,29.6619483 13.5072293,29.5734138 C13.5817477,29.5417943 13.6597974,29.5257494 13.7392905,29.5257494 C13.8905827,29.5257494 14.0354953,29.5827951 14.1584854,29.6907325 Z M23.92491,9.24947524 C24.1177659,9.24947524 24.3031081,9.33354123 24.4338568,9.48021898 C24.5940159,9.64999725 24.6535971,9.88509193 24.5938354,10.1109098 C24.5412783,10.3699674 24.3263323,10.5682554 24.0445492,10.6168736 L24.0411597,10.6174616 L24.0377572,10.6178797 C23.9958583,10.6231975 23.9526837,10.628659 23.9100888,10.628659 C23.6690833,10.628659 23.4446905,10.5083744 23.3234016,10.3144373 C23.195295,10.1262361 23.1803577,9.87844138 23.2835905,9.65066361 L23.2850082,9.64761925 C23.3871069,9.43451448 23.5885849,9.28630801 23.8118823,9.25958824 C23.8488837,9.25288545 23.8868646,9.24947524 23.92491,9.24947524 Z M12.223272,30.7355064 C12.4407311,30.8579862 12.573529,31.0812693 12.5715443,31.3200093 C12.5927321,31.5503872 12.4664685,31.7952813 12.2546929,31.9324602 C12.1412786,32.0050674 12.0148345,32.0432197 11.8883388,32.0432197 C11.7780434,32.0432197 11.6725036,32.0150759 11.5827001,31.9617801 C11.3675479,31.8499883 11.2288345,31.6108431 11.2288345,31.3507142 C11.2288345,31.0905069 11.361787,30.8552946 11.5759726,30.7360683 C11.6733413,30.6780687 11.7841265,30.6474292 11.8965872,30.6474292 C12.0085967,30.6474292 12.12156,30.6778858 12.223272,30.7355064 Z M24.2851887,13.8071514 C24.5046712,13.9493084 24.6246456,14.1845991 24.6070405,14.4373066 C24.5939592,14.68305 24.4419067,14.8955015 24.2000248,15.0058691 L24.1985298,15.0065225 C24.1001557,15.0501624 23.9999259,15.0722961 23.9006496,15.0722961 C23.741122,15.0722961 23.5939927,15.0222928 23.4746757,14.9276436 C23.294566,14.8043146 23.1902892,14.5704742 23.2085773,14.3294868 C23.2267623,14.089819 23.3537992,13.8909038 23.5573135,13.7830841 C23.6591286,13.7237388 23.7765124,13.6923937 23.8971183,13.6923937 C24.033744,13.6923937 24.1679337,13.7320748 24.2851887,13.8071514 Z M23.4310008,12.670928 C23.2761645,12.5431958 23.191078,12.3288105 23.2086315,12.109408 L23.209018,12.10524 C23.2329768,11.8806111 23.3550261,11.6837864 23.5359993,11.5774039 C23.6429181,11.5056068 23.7695814,11.4676765 23.9027401,11.4676765 C24.0228046,11.4676765 24.143694,11.4990216 24.2523397,11.5583277 L24.2538219,11.5591508 C24.482442,11.6872358 24.6174952,11.9216249 24.6073911,12.1719414 C24.6111673,12.4316261 24.4495905,12.6725482 24.194331,12.7868748 C24.0954543,12.830737 23.9952243,12.8528706 23.8959352,12.8528706 C23.7174108,12.8528706 23.5568134,12.7899844 23.4310008,12.670928 Z" id="Shape" fill="#FFFFFF"></path>
        </g>
    </g>
</svg>