<?xml version="1.0" encoding="UTF-8"?>
<svg width="48px" height="48px" viewBox="0 0 48 48" version="1.1" xmlns="http://www.w3.org/2000/svg" xmlns:xlink="http://www.w3.org/1999/xlink">
    <!-- Generator: Sketch 49.1 (51147) - http://www.bohemiancoding.com/sketch -->
    <title>ethos</title>
    <desc>Created with Sketch.</desc>
    <defs></defs>
    <g id="48px" stroke="none" stroke-width="1" fill="none" fill-rule="evenodd">
        <g id="ethos" fill-rule="nonzero">
            <circle id="Oval" fill="#00FFBA" cx="24" cy="24" r="24"></circle>
            <g id="Group" transform="translate(9.000000, 9.000000)" fill="#FFFFFF">
                <path d="M7.30648546,7.35626614 C6.45779949,8.22376701 6.33425028,9.57037366 7.01508492,10.5786713 C7.2943811,10.9922017 7.6872047,11.316233 8.1463037,11.5117882 C8.46186999,11.6450953 8.80114037,11.7131941 9.1437063,11.711988 C10.9562937,11.711988 12.4254246,13.1821678 12.4254246,14.9952048 C12.4254246,16.8082417 10.9568931,18.277972 9.1437063,18.277972 C5.44941986,18.2800068 2.11809651,16.0552452 0.70459398,12.6420697 C-0.70890855,9.22889422 0.0741010459,5.30025892 2.68816184,2.68981018 C2.70139623,2.67656805 2.71471554,2.66346271 2.72811799,2.65049415 C4.87329912,0.528617793 7.93004439,-0.396599118 10.8938305,0.181876951 C12.4289035,0.481494729 13.8353947,1.16427162 15.0000158,2.13819234 C12.9514117,3.8509423 11.7256182,6.4061563 11.7274226,9.1467033 C11.7274226,10.9598901 13.197003,12.4294705 15.0091409,12.4294705 C15.0233868,12.4294705 15.0376115,12.4293797 15.0518145,12.4291986 C15.031242,12.4295791 15.0106233,12.4297702 14.98996,12.4297702 C13.1778222,12.4297702 11.7082418,10.9601898 11.7082418,9.147003 C11.710314,8.63662575 11.5583356,8.13749955 11.2721778,7.71488511 C10.9928689,7.30136632 10.6000491,6.97733812 10.140959,6.78176823 C9.50280416,6.51488187 8.78430873,6.51488187 8.14615385,6.78176823 C7.84121961,6.91115637 7.56416233,7.09825272 7.33021978,7.33276723 C7.32233835,7.34064865 7.3144268,7.34848162 7.30648546,7.35626614 Z M29.2657343,17.2982517 C30.691868,20.6784475 29.9588852,24.5837952 27.4041459,27.2168331 L27.4033967,27.2168331 C24.8146256,29.8852302 20.8659107,30.7164433 17.4210885,29.3181306 C13.9762662,27.919818 11.7240745,24.5715501 11.7275724,20.8537462 C11.7275724,19.0407093 13.1971528,17.5706793 15.0092907,17.5706793 C16.8214285,17.5706793 18.291009,19.0405594 18.291009,20.8537462 C18.2893921,21.3640566 18.4413306,21.8630515 18.727073,22.2858642 C19.0063945,22.6993713 19.3992107,23.0233963 19.8582916,23.218981 C20.5024553,23.4883377 21.2281901,23.4856351 21.8703297,23.2114885 C22.1801385,23.077044 22.4605596,22.8831216 22.6957043,22.6407093 C22.9221676,22.4077015 23.1025109,22.1339581 23.2272228,21.8339161 C23.5534155,21.0394803 23.4622667,20.1347356 22.9841658,19.4213286 C22.7048633,19.0078041 22.3120416,18.6837744 21.8529471,18.4882117 C21.5373747,18.3549244 21.1981083,18.2868265 20.8555445,18.288012 C19.0434066,18.288012 17.5738261,16.8181318 17.5738261,15.004945 C17.5738261,13.1917582 19.0423576,11.7221778 20.8555445,11.7221778 C24.5253964,11.7198031 27.839297,13.9169657 29.2657343,17.2982517 Z" id="Shape"></path>
                <path d="M14.9904096,17.5705294 C16.802997,17.5705294 18.2725775,19.0405594 18.2722778,20.8535964 C18.2747226,24.5771626 16.0149696,27.9288728 12.562197,29.3229004 C9.10942437,30.7169282 5.15601296,29.8737306 2.57247752,27.1922577 C0.0285640512,24.5559324 -0.693177813,20.6543197 0.739300887,17.2824195 C2.17177959,13.9105192 5.4810407,11.7213907 9.1446054,11.7221778 C10.9567433,11.7221778 12.4263237,13.1920579 12.4263237,15.0052447 C12.4263237,16.8184315 10.9577922,18.288012 9.1446054,18.288012 C8.63441885,18.286437 8.13556553,18.4384322 7.71293706,18.7242258 C7.29940586,19.0037662 6.97547144,19.3968587 6.78011988,19.8561937 C6.5163855,20.4869463 6.51320664,21.1964802 6.77127872,21.8295705 C6.89474127,22.1286079 7.07366141,22.4015896 7.29860141,22.6341159 L7.30039961,22.6360639 C7.97271164,23.3348548 8.98229351,23.5935166 9.90779222,23.3040958 C10.1450227,23.2303314 10.3700729,23.121972 10.5756743,22.9825174 C10.989272,22.7032444 11.3132361,22.310272 11.5084915,21.850999 C11.6415456,21.5354073 11.7096343,21.1962379 11.7086913,20.8537463 C11.7086913,19.0405594 13.1772228,17.5705294 14.9904096,17.5705294 Z M28.9795204,4.97742258 C30.4306644,7.80846813 30.3043116,11.1906028 28.6459785,13.9054819 C26.9876452,16.6203609 24.0362397,18.2768647 20.8549451,18.2782717 C19.0428072,18.2782717 17.5732268,16.8080919 17.5732268,14.9950549 C17.5732268,13.182018 19.0417583,11.7122877 20.8549451,11.7122877 C21.1140338,11.7128028 21.3717045,11.6740511 21.6191808,11.5973526 C21.8563833,11.5235169 22.0814233,11.4151624 22.287063,11.2757742 C22.7005735,10.9964054 23.024514,10.6034616 23.2198801,10.1442557 C23.5122645,9.44543783 23.4829524,8.65346431 23.1397103,7.97817183 C22.9588363,7.62684594 22.6999854,7.32155557 22.382967,7.08566433 C21.7257372,6.59640025 20.8739214,6.45154313 20.0919081,6.69605394 C19.854792,6.76980312 19.6298455,6.87811068 19.4243256,7.01748252 C19.0107222,7.29674914 18.6867566,7.68972345 18.4915085,8.14900099 C18.3582015,8.46468787 18.2899569,8.8040254 18.2908591,9.1467033 C18.2908591,10.9598901 16.8212787,12.4294705 15.0091408,12.4294705 C13.197003,12.4294705 11.7274226,10.9598901 11.7274226,9.1467033 C11.72515,5.69496531 13.6702866,2.53723177 16.7540564,0.986469264 C19.8378262,-0.564293244 23.5326134,-0.242757985 26.3021478,1.81738261 C26.3045454,1.81903096 26.3064934,1.82097901 26.3087412,1.82277723 C27.4278652,2.65695625 28.3414102,3.7360087 28.9795204,4.97742258 Z" id="Shape" opacity="0.7"></path>
            </g>
        </g>
    </g>
</svg>