<?xml version="1.0" encoding="UTF-8"?>
<svg width="48px" height="48px" viewBox="0 0 48 48" version="1.1" xmlns="http://www.w3.org/2000/svg" xmlns:xlink="http://www.w3.org/1999/xlink">
    <!-- Generator: Sketch 49.1 (51147) - http://www.bohemiancoding.com/sketch -->
    <title>etn</title>
    <desc>Created with Sketch.</desc>
    <defs></defs>
    <g id="48px" stroke="none" stroke-width="1" fill="none" fill-rule="evenodd">
        <g id="etn" fill-rule="nonzero">
            <circle id="Oval" fill="#23BEE2" cx="24" cy="24" r="24"></circle>
            <path d="M29.818065,20.2032684 L34.676655,15.086207 C36.7674634,17.5827497 37.9109197,20.7360186 37.906035,23.9917541 C37.906035,31.668006 31.68009,37.8908396 24,37.8908396 C21.6562078,37.8942104 19.3499374,37.3026948 17.29737,36.1717392 L29.65455,29.8026237 L31.668705,28.7636432 L29.804205,27.4754723 L28.4715,26.5545728 L32.356425,24.5712744 L34.28808,23.5849026 L32.55822,22.2766118 L29.818065,20.2032684 Z M18.181935,28.5052175 L13.65186,33.2756222 C11.440035,30.8143927 10.093965,27.5604048 10.093965,23.9917541 C10.093965,16.3155023 16.31991,10.0926687 24,10.0926687 C26.6022474,10.0889888 29.1528126,10.8186804 31.359,12.198006 L18.34545,18.906027 L16.331295,19.9450075 L18.195795,21.2331785 L19.5285,22.154078 L15.643575,24.137871 L13.71192,25.124243 L15.44178,26.4325338 L18.181935,28.5052175 Z M12.80442,34.167991 L11.866725,35.1553522 C9.157425,32.2160269 7.5,28.293958 7.5,23.991754 C7.5,14.8982009 14.9019,7.5 24,7.5 C27.74022,7.5 31.194,8.75106447 33.964185,10.8555772 L32.611185,11.5528486 C30.083838,9.7961368 27.0784078,8.85608901 24,8.85941529 C15.651825,8.85941529 8.860095,15.6477511 8.860095,23.991754 C8.860095,27.9064018 10.3545,31.4790105 12.80442,34.167991 Z M35.526405,14.1921889 L36.46773,13.2008696 C38.9787,16.0951724 40.5,19.8688156 40.5,23.991754 C40.5,33.0853074 33.0981,40.4835082 24,40.4835082 C20.6472584,40.4871166 17.3738947,39.463957 14.620575,37.551769 L16.006575,36.8371813 C18.4032887,38.3346891 21.1735184,39.1272493 24,39.1240929 C32.348175,39.1240929 39.139905,32.3357571 39.139905,23.991754 C39.139905,20.2568665 37.778325,16.8343329 35.526405,14.1921889 Z M16.26249,25.3485307 L22.17477,22.3295502 L18.969645,20.1148725 L36.71292,10.9678861 L27.78444,20.37 L31.73751,23.3599549 L25.82523,26.3789355 L29.030355,28.5936132 L11.28708,37.7405997 L20.21556,28.3384857 L16.26249,25.3485307 Z" id="Shape" fill="#FFFFFF"></path>
        </g>
    </g>
</svg>