<?xml version="1.0" encoding="UTF-8"?>
<svg width="48px" height="48px" viewBox="0 0 48 48" version="1.1" xmlns="http://www.w3.org/2000/svg" xmlns:xlink="http://www.w3.org/1999/xlink">
    <!-- Generator: Sketch 49.1 (51147) - http://www.bohemiancoding.com/sketch -->
    <title>etp</title>
    <desc>Created with Sketch.</desc>
    <defs></defs>
    <g id="48px" stroke="none" stroke-width="1" fill="none" fill-rule="evenodd">
        <g id="etp" fill-rule="nonzero">
            <circle id="Oval" fill="#00A5FF" cx="24" cy="24" r="24"></circle>
            <path d="M27.1199439,18.8613614 C27.114859,20.1999407 27.1069138,21.5382018 27.1053249,22.876463 C27.1027824,25.10308 27.1002401,27.3300153 27.1104097,29.5563143 C27.111681,29.8248574 27.0373144,29.985856 26.8002314,30.1290366 C25.8862219,30.6791682 24.9868316,31.2534815 24.0191128,31.8583398 L24.0191128,31.3708895 C24.0191128,27.9250103 24.0152992,24.4788127 24.0261046,21.0329334 C24.0270581,20.745936 23.9507847,20.5849374 23.6924085,20.4446204 C22.8902667,20.0093514 22.1056042,19.5425828 21.3133145,19.0894958 C21.2259179,19.0395416 21.1331185,18.9991329 20.999958,18.9326334 L20.999958,19.4057656 C20.999958,22.4940117 20.9945553,25.5822578 21.0085387,28.6701857 C21.00981,28.9807284 20.9103367,29.1414087 20.6481469,29.2868166 C19.8622132,29.7233583 19.0915343,30.1878997 18.3141813,30.6400321 C18.2039026,30.7039862 18.0885392,30.7590312 17.9143816,30.8503485 L17.9143816,30.3692617 C17.9143816,27.2679705 17.9067543,24.1666791 17.9245514,21.0653877 C17.926776,20.7052091 17.8050564,20.5267106 17.5060013,20.360303 C16.6285393,19.8725345 15.7691925,19.3526298 14.8593146,18.8199981 C15.8677123,18.240594 16.8354309,17.6764625 17.8158618,17.1349217 C17.9054831,17.0852858 18.0923529,17.1505125 18.2054918,17.2138301 C19.0588002,17.6933259 19.9089307,18.1791854 20.7507983,18.6784083 C20.9545117,18.7989983 21.1035627,18.8129981 21.315857,18.683181 C22.0941633,18.206867 22.8969407,17.7706436 23.6707978,17.2876476 C23.9504668,17.1132855 24.1522736,17.1419217 24.4170057,17.3003748 C25.313218,17.8371429 26.2237317,18.3500475 27.1285246,18.8718612 L27.1199439,18.8613614 Z M27.1286201,18.8719248 C27.1956771,18.8028799 27.2516109,18.7137898 27.331698,18.6673357 C28.1767436,18.175749 29.0202002,17.6803443 29.879547,17.2148482 C30.0181103,17.1400762 30.2669522,17.1442125 30.4067867,17.2196209 C31.2794814,17.6892533 32.1397817,18.1821126 32.9915012,18.6880173 C33.1078181,18.7570623 33.2250884,18.9403333 33.2254062,19.0714231 C33.2384363,22.3162132 33.2365295,25.5610033 33.2314446,28.8057934 C33.2311268,28.9123835 33.2041133,29.0752911 33.1335603,29.117609 C32.1610746,29.6966949 31.1787369,30.2595537 30.1369697,30.8621848 L30.1369697,30.3690072 C30.1369697,27.2432161 30.1341093,24.1177431 30.1420545,20.991952 C30.1426901,20.7262725 30.0791289,20.5671829 29.830287,20.4294114 C28.9178666,19.9231885 28.0219721,19.3864204 27.1200393,18.8611068 C27.1200393,18.8614249 27.1286201,18.8719248 27.1286201,18.8719248 Z M10.4089213,28.1819081 C9.216514,28.187317 8.25928297,27.2470978 8.25006661,26.0621991 C8.24085024,24.8753911 9.1891827,23.9189448 10.380001,23.9128995 C11.5768576,23.906854 12.5312283,24.8458005 12.5369488,26.033881 C12.5426693,27.2254617 11.6003752,28.1768171 10.4089213,28.1819081 Z M13.2811229,34.6119888 C12.1656246,34.6189887 11.2560644,33.7303146 11.2408097,32.6173242 C11.225555,31.517061 12.1265344,30.594978 13.2394903,30.5711147 C14.3270217,30.5482058 15.2674091,31.472516 15.2785322,32.5765973 C15.2896554,33.6857694 14.3880404,34.6046706 13.2811229,34.6119888 Z M11.6500164,17.0990947 C12.7292849,17.1019584 13.5978481,17.9680417 13.5978481,19.041578 C13.5975303,20.1316595 12.7089453,21.0091972 11.6179181,20.9967883 C10.5370606,20.9840611 9.69996017,20.1233868 9.70472724,19.0285326 C9.70949433,17.9381329 10.5580358,17.0962311 11.6500164,17.0990947 Z M37.9334128,24.4569857 C36.9281932,24.4633493 36.106983,23.658038 36.0964954,22.6567286 C36.0860079,21.6391918 36.9161166,20.8049263 37.9324594,20.8116081 C38.9364079,20.818608 39.7531687,21.6382372 39.7499907,22.6357287 C39.7471305,23.6414927 38.9392681,24.4509402 37.9334128,24.4569857 Z M14.3129111,12.9256354 C14.3160892,11.9889162 15.0422754,11.2621952 15.970904,11.2669679 C16.8963543,11.2714224 17.630168,12.0140524 17.623494,12.9389989 C17.6165022,13.8690363 16.8753792,14.6072118 15.9578739,14.5979846 C15.0235248,14.5884392 14.3097331,13.8626727 14.3129111,12.9256354 Z M36.9545393,31.3633805 C36.0189191,31.3694259 35.2930506,30.6519321 35.2882836,29.7155312 C35.2831988,28.7867664 36.0103383,28.0409547 36.9310217,28.0304547 C37.8431243,28.020273 38.5940994,28.7683121 38.5985486,29.6913495 C38.6029979,30.6315686 37.8895239,31.357335 36.9545393,31.3633805 Z M23.9791329,10.2810901 C23.9638783,10.989993 23.4035867,11.5251702 22.7002825,11.5032159 C21.9953892,11.4812615 21.4668783,10.9164937 21.4900781,10.209818 C21.5123244,9.53114202 22.0754763,8.99151033 22.7527205,9.00010116 C23.450622,9.00901018 23.9947055,9.5769598 23.9791329,10.2810901 Z M32.6356222,36.5341085 C31.9418521,36.528063 31.4034892,35.984295 31.4085741,35.2951193 C31.4133412,34.5878072 31.9679122,34.0475391 32.6813863,34.0551753 C33.3716604,34.0628117 33.910659,34.6094433 33.9093879,35.3008464 C33.9077988,36.0068858 33.3570414,36.5404721 32.6356222,36.5341085 Z M26.2161678,38.9999963 C25.5421019,38.9987235 25.0371084,38.4909098 25.0402864,37.8176428 C25.0434645,37.1558304 25.5687975,36.6375167 26.2330116,36.6410166 C26.885149,36.6445166 27.4285969,37.1905119 27.4203341,37.8341882 C27.412071,38.4995006 26.893412,39.0015872 26.2161678,38.9999963 Z M30.1568007,12.4147989 C29.5745805,12.4125717 29.1000964,11.9292576 29.1042279,11.3431718 C29.1086772,10.7574041 29.5882461,10.2807719 30.1698307,10.2849082 C30.745377,10.2887264 31.23448,10.7822221 31.2325732,11.3565353 C31.2303486,11.9276667 30.7326648,12.4170262 30.1568007,12.4147989 Z M20.3509032,36.8392422 C20.3410512,37.3620103 19.9269502,37.7616433 19.4047954,37.7520979 C18.8797803,37.7428707 18.4850655,37.3305107 18.4977777,36.8042425 C18.5104899,36.2833833 18.9309469,35.8742051 19.4413431,35.8856595 C19.9555528,35.8974321 20.3607552,36.321883 20.3509032,36.8392422 Z M36.3456234,15.8695554 C36.354522,16.3251877 36.0173301,16.6853665 35.5676349,16.7000028 C35.1306519,16.7140026 34.7569123,16.3560511 34.7457891,15.9121914 C34.7343481,15.4597407 35.0734468,15.1005166 35.5253667,15.0868348 C35.9741085,15.0731532 36.3364071,15.4186956 36.3456234,15.8695554 Z" id="Shape" fill="#FFFFFF"></path>
        </g>
    </g>
</svg>