<?xml version="1.0" encoding="UTF-8"?>
<svg width="48px" height="48px" viewBox="0 0 48 48" version="1.1" xmlns="http://www.w3.org/2000/svg" xmlns:xlink="http://www.w3.org/1999/xlink">
    <!-- Generator: Sketch 49.1 (51147) - http://www.bohemiancoding.com/sketch -->
    <title>eur</title>
    <desc>Created with Sketch.</desc>
    <defs></defs>
    <g id="48px" stroke="none" stroke-width="1" fill="none" fill-rule="evenodd">
        <g id="eur" fill-rule="nonzero">
            <circle id="Oval" fill="#0F8FF8" cx="24" cy="24" r="24"></circle>
            <path d="M12,28.5057877 L13.2164119,25.5019293 L14.5004023,25.5019293 C14.4666129,24.9694507 14.4497184,24.4543432 14.4497184,23.9565916 C14.4497184,23.2852056 14.4778758,22.6601314 14.5341915,22.0813504 L12,22.0813504 L13.2164119,19.077492 L15.1255028,19.077492 C16.9050772,13.3591354 20.9146913,10.5 27.154465,10.5 C29.2043545,10.5 31.1528467,10.7662353 33,11.2987138 L33,15.0839229 C31.265478,14.3083563 29.4239839,13.9205788 27.4754626,13.9205788 C23.7361036,13.9205788 21.3314614,15.6395326 20.2614642,19.077492 L31.395012,19.077492 L30.1786002,22.0813504 L19.5349961,22.0813504 C19.4786804,22.4517703 19.4505229,22.9495146 19.4505229,23.574598 C19.4505229,24.2922865 19.4730489,24.9347238 19.5181014,25.5019293 L28.7932422,25.5019293 L27.5937249,28.5057877 L20.1600966,28.5057877 C20.9597787,30.5893995 21.9340248,32.0392242 23.082864,32.8553055 C24.2317032,33.6713867 25.870464,34.0794212 27.9991955,34.0794212 C29.519718,34.0794212 31.1866362,33.709007 33,32.9681671 L33,36.5276527 C31.2767412,37.1758875 29.2268823,37.5 26.8503621,37.5 C20.5993251,37.5 16.6460261,34.5019593 14.9903459,28.5057877 L12,28.5057877 Z" id="Shape" fill="#FFFFFF"></path>
        </g>
    </g>
</svg>