<?xml version="1.0" encoding="UTF-8"?>
<svg width="48px" height="48px" viewBox="0 0 48 48" version="1.1" xmlns="http://www.w3.org/2000/svg" xmlns:xlink="http://www.w3.org/1999/xlink">
    <!-- Generator: Sketch 49.1 (51147) - http://www.bohemiancoding.com/sketch -->
    <title>evx</title>
    <desc>Created with Sketch.</desc>
    <defs></defs>
    <g id="48px" stroke="none" stroke-width="1" fill="none" fill-rule="evenodd">
        <g id="evx" fill-rule="nonzero">
            <circle id="Oval" fill="#044AAC" cx="24" cy="24" r="24"></circle>
            <path d="M15.1227735,25.8156129 L11.195337,29.7430494 L9.35117718,31.587304 C8.9436925,30.8037234 8.59756287,29.9835384 8.31847806,29.1331026 C7.78809366,27.5167245 7.5,25.7914817 7.5,23.9999526 C7.5,14.9018638 14.9018638,7.5 23.9999526,7.5 C33.0980414,7.5 40.5,14.9018638 40.5,23.9999526 C40.5,33.0980414 33.0980414,40.5 23.9999526,40.5 C20.4809995,40.5 17.2162857,39.391911 14.5349664,37.5074484 C13.8575006,37.0313068 13.2168289,36.5063277 12.6193048,35.9363044 L14.3628499,34.1926644 L26.9879398,21.5676588 C27.0858567,20.3177928 28.1341947,19.330768 29.4086881,19.330768 C30.66523,19.330768 31.7019424,20.2901836 31.8247351,21.5150031 L37.6352793,27.3255472 C37.8953982,26.2589937 38.0344189,25.1454994 38.0344189,23.9999526 C38.0344189,16.2613473 31.7385579,9.965581 23.9999526,9.965581 C16.2613473,9.965581 9.965581,16.2613473 9.965581,23.9999526 C9.965581,25.0766529 10.0878169,26.1252834 10.3185384,27.1330422 L14.0501901,23.4013906 C14.2334262,22.2426162 15.2391886,21.3538246 16.4485986,21.3538246 C17.6416224,21.3538246 18.6364797,22.2186949 18.8391078,23.3544402 L21.2123287,25.727661 L19.4688784,27.4710165 L17.7978814,25.8000721 C17.411736,26.0591136 16.9474942,26.2103554 16.4485986,26.2103554 C15.9597645,26.2103554 15.5042005,26.0651523 15.1227735,25.8156129 Z M28.1859394,23.8564754 L16.3090469,35.7333681 C18.5193453,37.1870178 21.1623534,38.034419 23.9999526,38.034419 C29.6297275,38.034419 34.4950775,34.701807 36.7290835,29.906252 L30.6614994,23.8385889 C30.2955128,24.0599219 29.8667041,24.1873937 29.4086881,24.1873937 C28.9631547,24.1873937 28.5452583,24.0667752 28.1859394,23.8564754 Z M29.453154,20.6813754 C28.8518228,20.6813754 28.3626086,21.1705703 28.3626086,21.7719641 C28.3626086,22.3732715 28.8518228,22.8624663 29.453154,22.8624663 C30.0544852,22.8624663 30.5436994,22.3732715 30.5436994,21.7719641 C30.5436994,21.1705703 30.0544852,20.6813754 29.453154,20.6813754 Z M16.4614386,22.6728062 C15.8601075,22.6728062 15.3708931,23.162001 15.3708931,23.763395 C15.3708931,24.3647022 15.8601075,24.8538971 16.4614386,24.8538971 C17.0627698,24.8538971 17.551984,24.3647022 17.551984,23.763395 C17.551984,23.162001 17.0627698,22.6728062 16.4614386,22.6728062 Z" id="Shape" fill="#FFFFFF"></path>
        </g>
    </g>
</svg>