<?xml version="1.0" encoding="UTF-8"?>
<svg width="48px" height="48px" viewBox="0 0 48 48" version="1.1" xmlns="http://www.w3.org/2000/svg" xmlns:xlink="http://www.w3.org/1999/xlink">
    <!-- Generator: Sketch 49.1 (51147) - http://www.bohemiancoding.com/sketch -->
    <title>exmo</title>
    <desc>Created with Sketch.</desc>
    <defs></defs>
    <g id="48px" stroke="none" stroke-width="1" fill="none" fill-rule="evenodd">
        <g id="exmo" fill-rule="nonzero">
            <circle id="Oval" fill="#347FFB" cx="24" cy="24" r="24"></circle>
            <path d="M29.5486047,19.5825 L25.247093,31.2075 L25.2202326,31.27875 L24.4297674,29.69625 L22.7797674,30.44625 L27.1081395,18.75 L28.7581395,18 L29.5486047,19.5825 Z M40.3196511,19.85625 L36.0181395,31.5 L35.2276744,29.91375 L33.5776744,30.66375 L33.6774418,30.39 L37.9789534,18.75 L39.6289534,18 L40.4155813,19.5825 L40.3196511,19.85625 Z M31.1103489,29.925 L33.642907,23.08125 L31.9890697,23.83125 L31.2024418,22.245 L28.6622092,29.08875 L29.4488371,30.675 L31.1103489,29.925 Z M17.4038371,23.175 L9.83686047,23.175 L11.1261628,24.375 L9.83686047,25.59375 L17.3961628,25.59375 L18.6816279,24.375 L17.4038371,23.175 Z M8.78930232,28.24875 L21.0223255,28.24875 L19.7368605,29.46 L21.0223255,30.6675 L8.78930232,30.6675 L7.5,29.46 L8.78930232,28.24875 Z M12.542093,18.0975 L24.7674419,18.0975 L23.485814,19.30875 L24.7674419,20.51625 L12.542093,20.51625 L11.2527907,19.30875 L12.542093,18.0975 Z" id="Shape" fill="#FFFFFF"></path>
        </g>
    </g>
</svg>