<?xml version="1.0" encoding="UTF-8"?>
<svg width="48px" height="48px" viewBox="0 0 48 48" version="1.1" xmlns="http://www.w3.org/2000/svg" xmlns:xlink="http://www.w3.org/1999/xlink">
    <!-- Generator: Sketch 49.1 (51147) - http://www.bohemiancoding.com/sketch -->
    <title>exp</title>
    <desc>Created with Sketch.</desc>
    <defs></defs>
    <g id="48px" stroke="none" stroke-width="1" fill="none" fill-rule="evenodd">
        <g id="exp" fill-rule="nonzero">
            <circle id="Oval" fill="#FFAA5C" cx="24" cy="24" r="24"></circle>
            <path d="M11.25,17.5048095 L17.6968851,21.2269203 C17.3148291,22.0902023 17.1024589,23.046437 17.1024589,24.0526316 C17.1024589,25.0262472 17.3012994,25.9530858 17.6603091,26.7941969 L11.25,30.4951905 L11.25,17.5048095 Z M12.1056123,16.2667467 L23.25,9.45820434 L23.25,17.1458589 C21.2835099,17.3600346 19.5648419,18.4066986 18.448482,19.9288043 L12.1056123,16.2667467 Z M36.75,30.4951905 L30.3396909,26.7941969 C30.6987006,25.9530858 30.8975411,25.0262472 30.8975411,24.0526316 C30.8975411,23.046437 30.6851709,22.0902023 30.3031149,21.2269203 L36.75,17.5048095 L36.75,30.4951905 Z M36.061995,31.8300215 L24.75,38.5541796 L24.75,30.9594042 C26.7483069,30.7417634 28.4907076,29.6644776 29.6052299,28.1022065 L36.061995,31.8300215 Z M11.9380049,31.8300215 L18.3947701,28.1022065 C19.5092923,29.6644776 21.2516931,30.7417634 23.25,30.9594042 L23.25,38.5541796 L11.9380049,31.8300215 Z M35.8943877,16.2667467 L29.551518,19.9288043 C28.4351581,18.4066986 26.7164901,17.3600346 24.75,17.1458589 L24.75,9.45820434 L35.8943877,16.2667467 Z" id="Shape" fill="#FFFFFF"></path>
        </g>
    </g>
</svg>