<?xml version="1.0" encoding="UTF-8"?>
<svg width="48px" height="48px" viewBox="0 0 48 48" version="1.1" xmlns="http://www.w3.org/2000/svg" xmlns:xlink="http://www.w3.org/1999/xlink">
    <!-- Generator: Sketch 49.1 (51147) - http://www.bohemiancoding.com/sketch -->
    <title>fair</title>
    <desc>Created with Sketch.</desc>
    <defs></defs>
    <g id="48px" stroke="none" stroke-width="1" fill="none" fill-rule="evenodd">
        <g id="fair" fill-rule="nonzero">
            <circle id="Oval" fill="#C99705" cx="24" cy="24" r="24"></circle>
            <path d="M12,36.380319 C12.0216025,36.2928111 12.0423242,36.2050232 12.0649335,36.1177553 C12.2966889,35.2226787 12.9065518,34.6706348 13.8147814,34.4205494 C14.7377763,34.1664243 15.6178177,34.263731 16.4182024,34.8059762 C16.6801176,34.9833516 16.8773089,35.2090406 17.0056657,35.4923214 C17.040817,35.5698308 17.1125878,35.6323022 17.1675379,35.7016526 C17.2274799,35.633382 17.3134705,35.5740302 17.3431269,35.495361 C17.5401504,34.9729131 17.7600349,34.4551046 17.9081067,33.9196184 C18.7120149,31.0118594 19.4974246,28.0993811 20.2879939,25.1882625 C20.3191603,25.0736384 20.338162,24.9560546 20.3677345,24.8167938 C20.1569524,24.8167938 19.9627812,24.8193935 19.7687358,24.8163138 C19.1055588,24.8059553 18.4397391,24.8252327 17.7799176,24.7742796 C16.8814615,24.7048493 16.2699628,24.1522055 16.2535197,23.3014028 C16.239132,22.5577053 16.6789429,21.9858642 17.5195965,21.8401242 C18.1086958,21.7380183 18.7259832,21.777053 19.3309383,21.7667744 C19.9103059,21.7569357 20.4900091,21.7676943 21.0694186,21.7601354 C21.1235718,21.7594154 21.2116599,21.7009035 21.2250409,21.65399 C21.3723157,21.1374212 21.5083068,20.6179329 21.6455983,20.0988444 C21.6536521,20.0684486 21.646647,20.0344533 21.646647,19.9827005 C20.98972,19.9827005 20.3398399,20.0019779 19.6919314,19.9765413 C19.1827825,19.9565441 18.6897412,19.8403601 18.2636469,19.5465206 C17.734741,19.1817309 17.5889763,18.6613626 17.6749251,18.0858021 C17.7619645,17.5030424 18.1352061,17.1138161 18.7324429,16.9501986 C18.9426798,16.8926066 19.1694016,16.8685299 19.3889506,16.8668102 C20.3255781,16.8595311 21.2625412,16.8578514 22.199001,16.8740492 C22.425597,16.8779687 22.5253462,16.8040188 22.6161607,16.6152048 C22.9282441,15.9664143 23.232861,15.3116247 23.5951545,14.6881506 C24.2551855,13.5523073 25.0288501,12.4861743 25.9895971,11.5597421 C27.2540799,10.3404302 28.7432712,9.47750924 30.5280606,9.16067292 C31.7120478,8.95046191 32.9071927,8.89950894 34.0704163,9.29889386 C34.7697514,9.53898075 35.2895547,9.98439932 35.6157322,10.6238311 C35.8221519,11.0283753 36.021063,11.43 35.9982021,11.9060943 C35.9333944,13.2549083 34.7862364,14.1133099 33.7465879,14.1483051 C32.9486781,14.1751414 32.2624303,13.9584113 31.7309658,13.3811309 C31.2318841,12.8389656 31.1704741,12.2066129 31.3706437,11.5341856 C31.3856607,11.4836726 31.4056692,11.4344793 31.4234127,11.3846862 L31.3828503,11.3322534 C31.2810876,11.3984843 31.1659438,11.4518769 31.0797015,11.5331057 C30.6194625,11.9669659 30.2588887,12.4722162 29.9559498,13.0146214 C29.3259106,14.1425459 28.870831,15.3367011 28.4957017,16.5603725 C28.4842084,16.5977273 28.4863477,16.6388417 28.4792587,16.7045925 C28.8051006,16.7045925 29.12335,16.7089119 29.4414318,16.7035527 C29.9027614,16.6957938 30.3617839,16.6986333 30.8002527,16.8632507 C31.3365831,17.0646629 31.7463183,17.3931776 31.8541632,17.9545401 C31.9641474,18.5270612 31.8511011,18.9755193 31.3173714,19.4121392 C30.8820907,19.76825 30.3723126,19.8417599 29.8398414,19.8597575 C29.12809,19.8837542 28.4156676,19.8898733 27.7035387,19.9019916 C27.6091167,19.9035914 27.5344935,19.9010717 27.5063473,20.0221751 C27.3922104,20.5129073 27.2653216,21.0008801 27.1445571,21.4902126 C27.1386007,21.5142092 27.1461511,21.5412855 27.1481646,21.5831597 C27.6480852,21.5831597 28.1441047,21.5689217 28.6388239,21.5869992 C29.1727213,21.6065165 29.6645043,21.7454174 30.0526369,22.1302443 C30.5266345,22.6002195 30.5934975,23.2760463 30.1967238,23.8054932 C30.0674022,23.9781095 29.9135418,24.1338879 29.7731461,24.2991051 C29.4818683,24.6416979 29.0765376,24.7598016 28.6440253,24.7768793 C27.9047149,24.8060753 27.1640623,24.8140341 26.4240808,24.8103147 C26.2237015,24.8093549 26.1437931,24.8687867 26.0990779,25.0463621 C25.8365755,26.0880585 25.5835113,27.1324344 25.2931143,28.1671317 C24.7092165,30.2476448 24.056568,32.305961 22.9892766,34.2206169 C22.471948,35.1487689 21.8385951,35.996052 21.0671116,36.7457886 C19.9525462,37.8289193 18.6337425,38.5713768 17.0554564,38.8447392 C15.9782236,39.0312734 14.8918045,39.0958245 13.8295466,38.7739089 C12.9293708,38.5011065 12.307595,37.9409039 12.0675342,37.0426677 C12.0442537,36.9553598 12.0224834,36.8677319 12,36.7802639 L12,36.380319 Z" id="Shape" fill="#FFFFFF"></path>
        </g>
    </g>
</svg>