<?xml version="1.0" encoding="UTF-8"?>
<svg width="48px" height="48px" viewBox="0 0 48 48" version="1.1" xmlns="http://www.w3.org/2000/svg" xmlns:xlink="http://www.w3.org/1999/xlink">
    <!-- Generator: Sketch 49.1 (51147) - http://www.bohemiancoding.com/sketch -->
    <title>fct</title>
    <desc>Created with Sketch.</desc>
    <defs></defs>
    <g id="48px" stroke="none" stroke-width="1" fill="none" fill-rule="evenodd">
        <g id="fct" fill-rule="nonzero">
            <circle id="Oval" fill="#417BA4" cx="24" cy="24" r="24"></circle>
            <path d="M11.5288761,15.9489054 C11.4799447,16.2830977 11.4934995,16.5131898 11.6694915,16.6891467 C11.4425658,17.0861877 11.266277,17.3819748 11.095428,17.7120731 C11.2662817,17.3827005 11.4425688,17.0930097 11.6694915,16.7526934 C12.1779661,17.3881601 13.7669492,17.3881601 15.9279661,16.6891467 C16.1822034,16.6256001 16.1822034,17.1975201 16.1822034,17.1975201 C16.1822034,17.5152534 16.1186441,17.9600801 13.3855932,18.3413601 C12.6228814,18.4684535 11.5423729,18.4049067 11.0338983,17.8329867 C10.9067797,17.6423468 10.8432203,17.3881601 10.8432203,17.0704268 C10.8432203,17.00688 10.8432203,16.9433334 10.9067797,16.8162401 C10.9090677,16.8124274 10.911365,16.8086146 10.9136711,16.8048019 C10.9317796,16.7027035 10.9828389,16.6006051 11.0338983,16.4985068 C11.0974576,16.3078667 11.2245763,16.1807735 11.3516949,15.9901334 C11.2881356,16.1172267 11.161017,16.3714134 11.0338983,16.4985068 C11.0974576,16.3078667 11.2245763,16.1172267 11.3516949,15.9901334 L11.5288761,15.9489054 Z M11.910054,15.1321398 C12.0034539,14.9944932 12.1038514,14.8568466 12.2415254,14.7192 L12.0508475,14.9733867 C12.0396739,14.984558 12.0285004,14.9960975 12.0173323,15.0079784 C12.0849685,14.9130365 12.1589564,14.8182631 12.2415254,14.7192 L12.0508475,14.9733867 C12.0037819,15.0204429 11.9567163,15.0740325 11.910054,15.1321398 Z M11.910054,15.1321398 C11.8309759,15.2486799 11.756914,15.36522 11.6694915,15.4817601 C11.6616177,15.4896322 11.653744,15.497992 11.6458702,15.506779 C11.5922483,15.5905128 11.5404219,15.6751629 11.4911422,15.7569738 L11.910054,15.1321398 Z M13.2622227,13.6099267 C13.4516513,13.4498978 13.6410799,13.2725765 13.8305085,13.1305334 C13.6398305,13.38472 13.5127119,13.6389067 13.4491525,13.8930934 C13.3855932,14.0837334 13.3855932,14.2743734 13.5127119,14.4014667 C13.5010344,14.4131418 13.4894428,14.4248169 13.4779308,14.4364951 C13.8969119,14.903468 15.2709343,14.7646985 17.0084747,14.0201867 C17.5805085,13.766 18.1525424,13.5118134 18.661017,13.19408 C18.8516949,13.1305334 19.1059322,13.4482667 19.1694915,13.5118134 C19.2330508,13.57536 19.2966102,13.766 19.1694915,13.8930934 C18.5338983,14.2743734 17.8347457,14.6556534 17.0720339,14.90984 C14.8872358,15.8459956 13.131584,15.9853241 12.6480235,15.3880238 C12.6396859,15.398043 12.6313059,15.4081059 12.6228814,15.4182133 C12.559322,15.2275734 12.4957627,15.10048 12.559322,14.8462934 C12.559322,14.7827467 12.559322,14.7192 12.6228814,14.6556534 C12.676092,14.5847199 12.739202,14.5137865 12.8094489,14.4428531 C12.7213138,14.5302102 12.6373263,14.6217141 12.559322,14.7192 C12.559322,14.6556534 12.6228814,14.52856 12.6228814,14.4650134 C12.75,14.2108267 12.8771186,14.0201867 13.0677966,13.766 C13.1116888,13.7330874 13.155581,13.6982808 13.1994733,13.6622341 C13.392679,13.3909768 13.6751531,13.1587645 13.9576271,12.8763467 C14.4661017,12.43152 14.4661017,12.43152 14.720339,12.24088 C14.7863287,12.1749035 14.8370932,12.1317601 14.8963436,12.0903776 C14.8763354,12.1073922 14.855046,12.1255577 14.8323118,12.144993 C15.011316,12.0103245 15.1984984,11.8770509 15.3926106,11.7459522 C15.4012542,11.7416235 15.4102032,11.7371499 15.4194915,11.7325067 C15.4547419,11.7073328 15.4871994,11.6841535 15.5171802,11.6627474 C16.3863769,11.0885448 17.385319,10.5599078 18.4067796,10.14384 C18.5717233,10.0522229 18.7366671,9.97117269 18.9016107,9.89916603 C18.8039291,9.93689235 18.7252806,9.97176921 18.6339229,10.0117306 C18.5810531,10.0325822 18.5335323,10.0531147 18.4814172,10.0773046 C18.3941255,10.1139311 18.2894648,10.156051 18.1525424,10.2073867 C17.8983051,10.2709333 17.8983051,10.2709333 17.3898305,10.52512 C17.1355932,10.6522133 17.1355932,10.6522133 16.6906779,10.9064 C16.5,11.0334933 16.5,11.0334933 16.0550847,11.28768 C15.879514,11.4047038 15.8656036,11.4139755 15.5171802,11.6627474 C19.6787052,9.61460607 19.3865891,9.70355325 19.0944729,9.81900266 C18.7605195,9.92085672 18.4024635,10.0503181 18.0254238,10.2073867 C16.5520941,10.8386879 15.1658878,11.7313071 14.2995662,12.560738 C14.1693776,12.6646384 14.107933,12.7260707 13.9576271,12.8763467 C14.0392213,12.7995675 14.1240774,12.7227883 14.2119766,12.6461459 C14.0679694,12.7892294 13.94006,12.9300745 13.8305085,13.0669867 C13.6308128,13.2666426 13.4311172,13.4270925 13.2622227,13.6099267 Z M9.65082957,28.3554795 C9.66693723,28.4091392 9.68304489,28.4605134 9.69915253,28.5088268 C9.76271187,28.6994669 9.82627119,28.8265602 9.95338983,28.9536536 C9.84212775,28.6199337 9.73086568,28.286214 9.6196036,27.9098847 C9.61360971,28.3233693 9.7377921,28.6842099 9.95338983,28.9536536 C9.82627119,28.5723735 9.69915253,28.1910935 9.63559322,27.7462668 C10.779661,29.3349335 15.1016949,28.9536536 20.6313559,26.6024268 C27.6864406,23.6157335 34.1059322,18.5320001 34.9957627,15.2275734 C35.1864406,14.4014667 35.0593221,13.8295467 34.6144068,13.38472 C34.9322034,13.7024534 35.25,14.0837334 35.5677966,14.4014667 C35.9491525,14.8462934 36.0127119,15.4182134 35.8220338,16.1807735 C34.9322034,19.5487467 28.3855932,24.6960269 21.1398304,27.7462668 C14.8478377,30.4839037 10.1044748,30.6054108 9.65082957,28.3554795 C9.53981857,27.9856677 9.4288076,27.5073135 9.31779661,27.1743468 C9.38135593,27.3649867 9.44491525,27.5556268 9.57203389,27.7462668 C9.58499446,27.7916198 9.59795502,27.8363121 9.61091557,27.8804112 C9.6067947,27.9633909 9.61065354,28.0423813 9.6196117,28.1188227 C9.6149194,28.0481603 9.61399403,27.9754664 9.61690468,27.9007476 C9.61490832,27.8939828 9.61291194,27.8872039 9.61091557,27.8804112 C9.614062,27.8170535 9.62186051,27.7513701 9.63559322,27.6827202 C9.62186051,27.7513701 9.614062,27.8170535 9.61091557,27.8804112 L9.65082957,28.3554795 Z M19.9708213,9.5436987 C19.9976805,9.53302505 20.0268414,9.521363 20.0593221,9.50837334 C21.9661017,9 23.1737288,9.25418667 22.9194915,10.33448 C22.8559322,10.71576 22.6016949,11.09704 22.2203389,11.47832 C21.9025423,11.6054134 21.2033898,11.47832 21.0762712,11.3512267 C21.3940678,10.9699467 21.5847457,10.6522133 21.6483051,10.3980267 C21.8458248,9.55873527 20.9307946,9.33314216 19.4397091,9.72124734 C19.4176458,9.72917264 19.3959522,9.73720176 19.3735703,9.74568726 L19.9708213,9.5436987 Z M19.8552432,9.58879275 C19.9299315,9.56624679 20.0177042,9.53992023 20.1228813,9.50837334 C20.0721947,9.5196348 20.021508,9.53139518 19.9708214,9.5436987 L19.8552432,9.58879275 Z M9.3174991,26.1115061 C9.31769472,26.1269671 9.31779661,26.1423347 9.31779661,26.1576002 C9.13800115,25.9778405 9.0712284,25.7415807 9.06419223,25.4488209 C9.04805868,25.3280676 9.04417257,25.2006294 9.05295026,25.0665466 C9.05928366,25.1844341 9.06355932,25.2961492 9.06355932,25.39504 C9.06355932,25.4067418 9.06364553,25.4183575 9.06382113,25.4298869 C9.04705146,25.3070395 9.04217911,25.1803803 9.05221033,25.0529148 C9.03393177,24.719505 9,24.339145 9,24.0605601 C9,24.4418402 9.12711864,24.6960269 9.25423729,24.9502134 C9.25423729,25.1408535 9.27012713,25.3473801 9.28601696,25.5539069 C9.25423729,25.3473801 9.25423729,25.1408535 9.25423729,24.9502134 C13.5127119,29.4620268 32.6440678,17.7694401 32.8347457,12.8128 C32.8983051,11.9231467 32.3898304,11.6054134 32.1355932,11.4147734 L32.6440678,11.7325067 L33.279661,12.1773334 C33.7881355,12.62216 33.9788136,13.2576267 33.7881355,14.0837334 C32.9618644,17.2610667 26.7330508,22.1541601 19.9322034,25.0137601 C14.5455915,27.3369341 10.3875776,27.6420987 9.3174991,26.1115061 Z M9.28601696,21.2645067 L9.38135594,20.8832268 C9.25423729,21.3916001 9.31779661,21.8364267 9.5720339,22.0906134 C9.5703922,22.0955376 9.56876111,22.1004723 9.56714063,22.1054172 C9.69164036,22.2541912 9.86276296,22.3630424 10.0805085,22.4718934 C10.2711864,22.7260801 10.1440678,23.3615467 10.1440678,23.3615467 C10.0805085,23.5521868 10.0169492,23.8063734 9.88983051,23.7428268 C9.25423729,23.4250935 9,22.9167201 9.06355932,22.1541601 C9,22.5989868 9.12711864,22.9802667 9.31779661,23.2344534 C9.31979859,23.2224439 9.32180057,23.2103715 9.32380252,23.1982399 C9.16619114,22.9124686 9.07020165,22.6160464 9.12711864,22.2177067 L9.15247914,22.0528963 C9.13899438,22.1078331 9.12711864,22.16277 9.12711864,22.2177067 L9.25423729,21.3280534 L9.38135594,20.81968 C9.38135594,20.7561335 9.38135594,20.7561335 9.38135594,20.6925867 C9.34957628,20.8832268 9.31779661,21.0738668 9.28601696,21.2645067 Z M10.2192186,19.7046192 C10.098497,19.9836936 9.99658618,20.2428203 9.95338983,20.5019468 C9.76271187,20.2477601 9.69915253,19.9300267 9.76271187,19.5487467 C9.76271187,19.4216533 9.76271187,19.3581067 9.82627119,19.2310134 C9.95338983,18.8497334 10.0805085,18.5320001 10.2711864,18.15072 C10.1440678,18.5955468 10.2076271,18.9768267 10.3983051,19.2945601 C10.3846703,19.3263681 10.3710356,19.3578513 10.3574473,19.3890327 C11.1540076,20.4333659 14.0574028,20.1688706 17.7711864,18.5955468 C22.5381355,16.4985067 26.9237288,13.0669867 27.4957628,10.9064 C27.6864407,10.0802933 27.4322034,9.57192 26.7330509,9.31773333 C26.8601696,9.25418667 26.8601696,9.25418667 27.2415254,9.38128001 C27.4957628,9.44482667 27.6864407,9.50837334 27.8135594,9.50837334 C28.6398305,9.82610667 28.9576271,10.3980267 28.7033898,11.28768 C28.0677966,13.7024534 23.3008475,17.4517068 18.088983,19.67584 C13.9576271,21.3916001 10.779661,21.7093335 9.95338983,20.5019468 L10.2192186,19.7046192 Z M20.0262348,38.0190105 C19.2629316,38.0450277 18.6299256,37.9656233 18.1525424,37.7866403 C17.7711864,37.5960002 17.2627119,37.4053602 16.9449153,37.2147202 C17.7207304,37.5363356 18.7373728,37.6157637 19.9084707,37.500164 C19.9094424,37.4267387 19.9173532,37.3525027 19.9322034,37.2782669 C19.9190292,37.357296 19.9113163,37.4308648 19.9090649,37.5001053 C26.60541,36.8387579 38.3508413,29.8016923 39,25.2044001 L38.9364406,25.39504 C38.8728813,25.7763201 38.8093221,26.2211467 38.8093221,26.5388802 C38.8093221,26.6024268 38.8093221,26.6659734 38.7457627,26.7295201 C37.9830508,29.4620268 32.5805085,33.7196535 26.6694915,36.2615202 C24.0072735,37.3960103 21.7046635,37.961234 20.0291634,38.0189101 C20.0559483,38.070529 20.0871876,38.1203381 20.1228813,38.1679202 C20.0858787,38.1185932 20.0536632,38.0692662 20.0262348,38.0190105 Z M20.7706179,35.4060668 C20.808718,35.3523773 20.8471557,35.2985754 20.8855932,35.2447736 C20.8473581,35.2982921 20.810043,35.3518105 20.7736481,35.4052183 C21.737738,35.1352253 22.7759226,34.7849238 23.8728813,34.3551202 C24.5720338,34.1644802 24.8262712,34.6093068 24.8262712,34.6093068 C24.8898304,34.6728535 24.8898304,34.9270403 24.5084747,35.1176802 C22.9121441,35.7422069 21.44213,36.189926 20.150541,36.4608374 C20.1411771,36.4792666 20.1319572,36.4975587 20.1228813,36.5157069 C20.1287271,36.4981731 20.1349761,36.4805049 20.1416099,36.4627084 C17.889235,36.9340238 16.1805295,36.866961 15.292373,36.2615202 C14.9745763,36.0073335 14.529661,35.6896002 14.2118644,35.4354135 C15.2349849,36.3121994 17.6025354,36.292877 20.7706179,35.4060668 Z M12.8135593,34.0373868 C12.559322,33.7196535 12.2415254,33.4019202 12.0508475,33.0841869 C12.3050847,33.4019202 12.6864407,33.8467468 12.940678,34.1644801 C12.940678,34.1009335 12.8771186,34.0373868 12.8135593,34.0373868 Z M22.9194915,9.06354666 C23.3008474,9.06354666 23.8093221,9 24.1906779,9 C25.5254238,9 26.161017,9.50837334 25.9067796,10.52512 C25.588983,11.7325067 23.8728813,13.4482667 21.6483051,14.9733867 C21.2033898,15.1640267 20.7584747,14.5921067 20.8855932,14.33792 C20.8855932,14.2743734 20.9491526,14.2743734 20.9491526,14.2743734 C22.9194915,12.9398934 24.3813559,11.47832 24.6991526,10.3980267 C24.9533898,9.38128001 24.1271187,8.93645334 22.6652543,9.06354666 L22.9194915,9.06354666 Z M30.5466102,10.52512 C31.3093221,10.9064 31.6271187,11.5418667 31.3728813,12.4950667 C30.6101696,15.3546667 25.0169491,19.7393868 18.9152543,22.3448001 C17.7711864,22.8531735 16.6271187,23.2344534 15.6101696,23.5521868 C15.0381355,23.6157335 14.9745763,22.8531735 15.2288136,22.4718934 C15.292373,22.3448001 15.3559322,22.3448001 15.4194915,22.2812535 C16.3728813,22.0270668 17.3898305,21.6457867 18.4703389,21.2009601 C24.2542372,18.72264 29.529661,14.52856 30.2288136,11.8596 C30.4830508,10.9064 30.1016949,10.2709333 29.2754238,9.9532 C29.6567796,10.14384 30.1652543,10.33448 30.5466102,10.52512 Z M37.1567796,16.8162401 L37.3474577,17.1339734 C37.5381355,17.6423468 37.5381355,17.6423468 37.5381355,17.8965334 L37.5381355,17.9600801 C37.3474577,17.8965334 36.9661017,17.1339734 36.9025423,16.8162401 C36.9025423,16.43496 36.838983,16.1807735 36.6483051,15.9265868 L37.1567796,16.8162401 Z M38.4915254,20.1842135 C38.5550847,20.5019468 38.5550847,20.8832268 38.4279662,21.3280534 C37.6652543,24.1241069 32.8983051,28.2546402 27.1144068,31.2413336 C26.4788136,31.4955201 26.0974577,31.0506935 26.2245762,30.6058668 C26.2881356,30.4152269 26.4152543,30.2881335 26.542373,30.2245869 C32.3898305,27.1743468 37.2838983,22.9802667 38.0466102,20.1206667 C38.1737288,19.6122934 38.1737288,19.1674668 38.0466102,18.7861867 C38.2372881,19.2945601 38.4279662,19.8029334 38.4915254,20.1842135 Z M38.9364406,22.8531735 L38.9364406,23.3615467 C38.9364406,23.6157335 38.9364406,23.8063734 38.8728813,24.1241069 C38.4279661,25.8398668 36.3305085,28.0640001 33.4703389,30.2245869 C33.0254238,30.5423202 32.7711864,30.0974936 32.8347457,29.7797601 C32.8983051,29.5255736 33.088983,29.3349335 33.1525423,29.2713868 C36.1398304,27.0472534 38.3008474,24.7595734 38.7457627,22.9802667 C38.8093221,22.6625334 38.8728813,22.3448001 38.8093221,22.0270668 L38.9364406,22.8531735 Z M12.6228814,15.4182133 C12.559322,15.2275734 12.4957627,15.10048 12.559322,14.8462934 C12.4957627,15.10048 12.559322,15.2275734 12.6228814,15.4182133 Z M11.0338983,17.8329867 C10.9067797,17.6423468 10.8432203,17.38816 10.8432203,17.0704267 C10.8432203,17.38816 10.8432203,17.5788 11.0338983,17.8329867 Z M9.95338983,20.5019467 C9.76271187,20.2477601 9.69915253,19.9300267 9.76271187,19.5487467 C9.69915253,19.9300267 9.76271187,20.2477601 9.95338983,20.5019467 Z M33.9152543,22.7260801 C34.042373,23.10736 33.9152543,23.3615467 33.7881355,23.5521868 C30.9915253,26.0940534 26.8601695,28.6359201 22.5381355,30.4787734 C16.1186441,33.1477335 11.2881356,33.3383734 10.8432203,31.0506935 C10.779661,30.8600535 10.8432203,30.9871469 10.9067797,30.9236001 C10.9067797,30.9871469 10.9067797,31.3048802 11.161017,31.6861602 C11.0974576,31.5590669 11.0338983,31.4955201 10.970339,31.3684269 C10.9067797,31.3048802 10.9067797,31.2413336 10.8432203,31.1777868 C10.7161017,30.9871469 10.6525424,30.7329602 10.5254237,30.5423202 C11.7330508,32.1309868 16.1822034,31.8132535 21.9025423,29.3349335 C26.2245762,27.4920801 30.3559321,24.8866668 33.1525423,22.4083467 C33.661017,22.1541601 33.8516949,22.53544 33.9152543,22.7260801 Z M17.8347457,34.3551202 C17.8983051,34.4822136 17.9618645,34.7364001 17.707627,34.7999469 C15.4194915,35.1812268 13.7669492,34.9905868 13.0042373,34.1644801 C12.75,33.8467469 12.3686441,33.4019202 12.1144068,33.0841869 C12.8135593,33.9738402 14.529661,34.2280269 17.0084746,33.8467469 C17.4533898,33.8467469 17.7711864,34.2280269 17.8347457,34.3551202 Z M37.8559322,29.7162135 C38.0466102,29.3349335 38.2372881,28.7630135 38.3644068,28.3817335 C37.6016949,30.8600535 32.707627,34.6728535 27.3686441,36.9605336 C24.0635593,38.3585603 21.3305085,38.8669335 19.8686441,38.4221069 C20.25,38.5492002 20.8220339,38.6762936 21.2669492,38.7398403 C25.3347457,39.3753069 35.6313559,34.2915735 37.8559322,29.7162135 Z M34.5508474,34.2915735 C34.5508474,34.3551202 34.4237288,34.5457602 34.1694915,34.7364001 C32.7711864,35.8802401 30.8644068,37.0240802 28.8940678,37.8501869 C27.2415253,38.5492002 25.779661,38.9304803 24.6991525,38.9940268 C24.2542372,38.9940268 23.6186441,38.9940268 23.1101695,38.9940268 C24.3813559,39.0575736 26.2245762,38.612747 28.4491526,37.7230935 C30.6737288,36.7698936 32.8347457,35.4989602 34.4237288,34.1644802 C34.4872881,34.1644802 34.4872881,34.1009335 34.5508474,34.1009335 C34.5508474,34.1009335 34.5508474,34.1644802 34.6144068,34.1644802 C34.6144068,34.1644802 34.6144068,34.2280269 34.5508474,34.2915735 Z M9.76271187,19.2945601 C9.76271187,19.2310134 9.82627119,19.10392 9.82627119,19.0403734 C9.95338983,18.6590934 10.2076271,18.0871734 10.3347458,17.7058934 C10.3347458,17.8965334 10.2711864,18.0236268 10.2076271,18.2142668 C10.0169492,18.5320001 9.88983051,18.9132801 9.76271187,19.2945601 Z" id="Shape" fill="#FFFFFF"></path>
        </g>
    </g>
</svg>