<?xml version="1.0" encoding="UTF-8"?>
<svg width="48px" height="48px" viewBox="0 0 48 48" version="1.1" xmlns="http://www.w3.org/2000/svg" xmlns:xlink="http://www.w3.org/1999/xlink">
    <!-- Generator: Sketch 49.1 (51147) - http://www.bohemiancoding.com/sketch -->
    <title>fil</title>
    <desc>Created with Sketch.</desc>
    <defs></defs>
    <g id="48px" stroke="none" stroke-width="1" fill="none" fill-rule="evenodd">
        <g id="fil" fill-rule="nonzero">
            <circle id="Oval" fill="#42C1CA" cx="24" cy="24" r="24"></circle>
            <path d="M23.8981389,19.3612751 C24.4556996,17.017689 25.1290158,14.910529 25.842073,13.5341958 C26.104814,12.8770002 27.1692123,11.3042471 28.3378265,10.2641677 C30.2834505,8.53254097 32.4660032,8.0923686 34.7379392,9.51834896 L34.5385847,9.83596947 L34.7379743,9.51837107 C35.8974354,10.2462859 36.3630458,10.9948113 36.1594814,11.7001912 C36.0080301,12.2249912 35.4342762,12.6436713 35.1272745,12.6015622 C34.6771479,12.6455655 34.2244124,12.5558274 33.7925391,12.2386982 C33.4592568,11.9939654 33.1829886,11.6360833 32.979965,11.1568855 C32.6628524,10.4078512 32.2453692,10.1519013 31.733528,10.2111817 C31.3633412,10.254056 30.9326988,10.4915388 30.7966158,10.6504962 C30.7303537,10.72425 30.4950069,10.9823328 30.443762,11.0393074 C30.1232796,11.3956232 29.9231123,11.6532119 29.7187215,11.9930879 C29.0033188,13.1827131 28.3456094,15.3610854 27.4318839,19.8784647 L33.4863443,20.7646814 L33.1531284,23.1903146 L27.0085317,22.2906131 L26.7458066,23.8857845 C26.7345039,23.958455 26.712319,24.0939321 26.6793725,24.2843699 C26.6433773,24.4924287 26.6028348,24.7174496 26.5577775,24.9572048 L32.7623732,25.8660443 L32.4067911,28.2880484 L26.0584209,27.3588734 C25.3248147,30.4753773 24.3589367,33.8155383 23.6757476,35.1343578 C23.4121784,35.7924311 22.3484889,37.3639071 21.1799384,38.4038973 C19.2342405,40.1355356 17.051745,40.5758037 14.7799203,39.1499567 C13.6202981,38.4218739 13.1546576,37.6732401 13.3582955,36.9677979 C13.5097942,36.4429764 14.083627,36.0242978 14.3906133,36.0664107 C14.84074,36.0223946 15.2935102,36.1122218 15.7253859,36.4296039 C16.0584905,36.6744 16.3346244,37.0323044 16.5375416,37.5113747 C16.8548034,38.2603043 17.2723602,38.5162502 17.7841455,38.4569714 C18.154317,38.4140954 18.5848869,38.176572 18.7209613,38.0174303 C20.0827251,36.5021706 21.1604643,33.5828913 22.524302,26.8419569 L16.4694688,25.9546443 L16.8026945,23.5294679 L22.9473461,24.4287573 L23.2103414,22.8342078 C23.2216012,22.7615069 23.2437207,22.6259873 23.2766028,22.4354834 C23.3125344,22.2273117 23.3530359,22.0021497 23.3980814,21.7622232 L17.2174494,20.8574076 L17.5730172,18.434973 L23.8981389,19.3612751 Z" id="Shape" fill="#FFFFFF"></path>
        </g>
    </g>
</svg>