<?xml version="1.0" encoding="UTF-8"?>
<svg width="48px" height="48px" viewBox="0 0 48 48" version="1.1" xmlns="http://www.w3.org/2000/svg" xmlns:xlink="http://www.w3.org/1999/xlink">
    <!-- Generator: Sketch 49.1 (51147) - http://www.bohemiancoding.com/sketch -->
    <title>fldc</title>
    <desc>Created with Sketch.</desc>
    <defs></defs>
    <g id="48px" stroke="none" stroke-width="1" fill="none" fill-rule="evenodd">
        <g id="fldc" fill-rule="nonzero">
            <circle id="Oval" fill="#C40E09" cx="24" cy="24" r="24"></circle>
            <path d="M33.3007803,10.7100597 C33.4351948,10.8162379 33.5570136,10.9037366 33.6694435,11.0029715 C33.9665551,11.2652218 34.264483,11.5267962 34.5527308,11.7996152 C34.7832474,12.0178704 35.0006431,12.2515485 35.2215961,12.4808025 C35.2400818,12.4999736 35.2548936,12.5415109 35.2484791,12.5660277 C35.1121984,13.0879477 34.9097895,13.5792063 34.6365285,14.0387588 C34.397673,14.4404909 34.1204466,14.8097183 33.7998345,15.1407879 C33.3649261,15.5898946 32.8765435,15.9661883 32.3425009,16.2739698 C32.1107598,16.4075529 31.8717876,16.5277407 31.6335736,16.64842 C30.873213,17.0336847 30.0631102,17.2500966 29.2379041,17.4029736 C28.6752292,17.5072469 28.1075391,17.5831938 27.5408988,17.6611684 C26.7977409,17.7634142 26.0521921,17.8458743 25.309909,17.9535887 C24.2156989,18.1123644 23.1413739,18.3617112 22.1256549,18.8342288 C21.0066612,19.3547969 20.0749731,20.1146348 19.441971,21.2387228 C19.0198335,21.9882992 18.8489725,22.8054044 18.8560869,23.6730794 C18.8696158,25.3338959 19.438647,26.7696365 20.4199606,28.0456184 C21.0201901,28.8260405 21.7041589,29.5179807 22.4234662,30.1728693 C22.9217038,30.6264617 23.4303214,31.067519 23.9262849,31.5238764 C24.5606281,32.1075494 25.1974789,32.6908536 25.7402104,33.3730854 C26.0268255,33.7333416 26.3089501,34.1018931 26.5532872,34.494224 C26.9700015,35.1631836 27.3014601,35.8808697 27.5193808,36.6512147 C27.6380505,37.0704588 27.7116432,37.498674 27.744649,37.9357989 C27.7942746,38.5935753 27.730537,39.2385096 27.5723302,39.8750259 C27.5078928,40.1341425 27.5057352,40.1382594 27.2489772,40.1855726 C26.887545,40.2521183 26.5265209,40.3219206 26.1636892,40.3792496 C25.8982423,40.421094 25.6303462,40.4461025 25.3632666,40.4767025 C25.269847,40.4874554 25.1758444,40.4926169 25.0820749,40.4995602 C25.0634727,40.500912 25.0446372,40.4987615 25.0259182,40.4982699 C25.027551,40.4781771 25.024752,40.4561796 25.0316331,40.4383604 C25.1137396,40.2241605 25.203427,40.0129101 25.2793524,39.796314 C25.442749,39.3308627 25.5660838,38.8549655 25.618975,38.3592215 C25.7134441,37.4724368 25.5625267,36.6368978 25.1640649,35.8513757 C24.8929616,35.3170437 24.5290801,34.8581057 24.1229791,34.4319795 C23.5594876,33.8406873 22.9386733,33.3210408 22.3159929,32.8032378 C21.2764233,31.9385736 20.2710842,31.0337853 19.3529834,30.0250923 C18.7982391,29.4156737 18.2858894,28.7702478 17.8343031,28.0721014 C17.3496527,27.3227094 16.9485668,26.5288922 16.6837031,25.6631834 C16.2691464,24.3085511 16.2599328,22.9523824 16.6461486,21.5862597 C16.864011,20.8158532 17.1603644,20.0906709 17.6154495,19.4424799 C18.2193527,18.5823627 18.9976742,17.942344 19.8895335,17.4458011 C20.7907232,16.9440354 21.7506937,16.6137033 22.7381886,16.3658311 C23.5338294,16.1661326 24.3385673,16.0148532 25.1508276,15.9163557 C26.0652546,15.8055076 26.981606,15.7125402 27.8968494,15.6090657 C28.6425149,15.5247621 29.3852645,15.4214719 30.1067877,15.1936311 C30.761891,14.9868048 31.35798,14.6653208 31.8726624,14.1848153 C32.3085037,13.7779832 32.6326731,13.2886909 32.8654056,12.7275071 C33.0800605,12.2100727 33.1842684,11.6639431 33.2609517,11.1100099 C33.2780377,10.9868112 33.2859102,10.8621993 33.3007803,10.7100597 Z M22.7110666,29.9495879 C23.0381517,29.8849468 23.3505999,29.8294614 23.6603073,29.7608265 C24.4583973,29.5839243 25.2466905,29.371998 25.9851249,28.9937382 C26.7108468,28.6219916 27.3510215,28.1260017 27.8889129,27.4926806 C28.4307114,26.8547511 28.872734,26.1516277 29.1028423,25.317072 C29.2495613,24.7849519 29.2956879,24.2407272 29.2517772,23.6947206 C29.160282,22.5566842 28.7720835,21.5284516 28.1523771,20.5949682 C27.681897,19.8862533 27.1270944,19.2558816 26.5326381,18.6625617 C26.4259228,18.5560762 26.3165835,18.4525402 26.2089936,18.3470379 C26.1944733,18.332844 26.183102,18.3150861 26.1604761,18.2866368 C26.3594445,18.2562825 26.5451757,18.2278947 26.7308486,18.1995681 C27.1421396,18.1369549 27.5534306,18.0745875 27.9646049,18.0117287 C28.1807178,17.9787323 28.3965392,17.9429094 28.6131186,17.9141527 C28.638252,17.9108961 28.6739988,17.9393456 28.6943505,17.9630022 C29.0784669,18.4094667 29.4717389,18.8478206 29.8411019,19.3074345 C30.3217286,19.9055472 30.7261968,20.5596369 31.0554395,21.2641121 C31.3488773,21.892026 31.5633573,22.5471603 31.6676817,23.2391619 C31.7408078,23.723723 31.7741636,24.2130151 31.7228471,24.7013858 C31.5788106,26.0712567 31.1728262,27.3397422 30.3707709,28.446134 C29.8719501,29.1341417 29.2590081,29.6913315 28.5673419,30.1547551 C27.7560729,30.698304 26.8814162,31.0954276 25.96454,31.3904286 C25.5708599,31.5171297 25.1714651,31.6241681 24.7737029,31.7360607 C24.7417467,31.7450933 24.6917714,31.7350161 24.667046,31.7128958 C24.0271046,31.1423108 23.3894373,30.5690222 22.7515951,29.9959179 C22.740457,29.9859637 22.7315932,29.9732444 22.7110666,29.9495879 Z M25.8835296,15.4020427 C25.5461813,15.4540258 25.2323335,15.5020149 24.9186024,15.5508028 C24.5537878,15.6075172 24.1890318,15.6650304 23.8242756,15.722052 C23.6949344,15.7423291 23.5658849,15.7671532 23.4358439,15.7794424 C23.3929245,15.7834978 23.3359514,15.7678906 23.3044617,15.7385809 C22.8862313,15.3495066 22.4899854,14.93653 22.1321687,14.4850882 C21.9363491,14.2379535 21.73913,13.9897128 21.5671028,13.7243287 C20.9806355,12.8197248 20.5240343,11.852139 20.3305473,10.7641811 C20.1628937,9.82148082 20.2024307,8.89063957 20.4775578,7.97350074 C20.4951687,7.91469718 20.5123715,7.88292973 20.5836315,7.87064059 C20.9843093,7.80145272 21.3817797,7.71075882 21.7830407,7.64624082 C22.1142662,7.59302883 22.449282,7.56574692 22.7827233,7.52752768 C22.8664044,7.5178807 22.9502604,7.51044577 23.0541765,7.5 C23.0298594,7.55462524 23.0153391,7.58866617 22.9996526,7.62215409 C22.7219598,8.21338483 22.5065466,8.82802639 22.412369,9.48199321 C22.2819782,10.3873959 22.4158679,11.2496637 22.8201611,12.0641268 C23.1517364,12.7319803 23.604314,13.2980798 24.1164305,13.8182178 C24.6505898,14.3605992 25.2297093,14.845959 25.8101702,15.3300898 C25.8308135,15.3472945 25.8488909,15.3678789 25.8835296,15.4020427 Z M21.1233657,32.333731 C20.8951233,32.3576948 20.6897403,32.3784634 20.4844739,32.401014 C20.214595,32.4305694 19.94355,32.4523827 19.6753041,32.4941043 C19.2591731,32.5588682 18.8418174,32.6219728 18.4304681,32.7132198 C16.9263081,33.0466857 15.7540734,33.8447427 15.1168728,35.3793496 C14.8843152,35.9394888 14.7071562,36.5171401 14.5956009,37.117096 C14.5904109,37.1449311 14.5817804,37.1720286 14.5694761,37.2199563 C14.483754,37.1538406 14.4040966,37.0997683 14.3323117,37.0358649 C14.0338589,36.770235 13.7344148,36.5056497 13.4419101,36.2328307 C13.2298209,36.035037 13.0298028,35.8228648 12.8206292,35.6215687 C12.7504188,35.5539784 12.7358402,35.4860808 12.7624315,35.3912701 C13.0587267,34.3329289 13.6076395,33.4436865 14.3803627,32.7052318 C14.8804081,32.2273684 15.4473401,31.8541471 16.0453536,31.5279318 C16.8942936,31.0648153 17.8025976,30.7964818 18.732653,30.5959231 C18.8403596,30.5726965 18.9505736,30.5607147 19.0567058,30.5317737 C19.1221344,30.5138931 19.1654036,30.5316508 19.2126965,30.5754001 C19.5003029,30.8411529 19.7897169,31.1047551 20.0783145,31.3692789 C20.3993349,31.6634811 20.7201804,31.957806 21.0409092,32.2523154 C21.0635934,32.2730841 21.0848199,32.2955731 21.1233657,32.333731 Z M27.6132552,25.7671434 C27.5393709,25.7483411 27.4645536,25.7329796 27.3917774,25.7102446 C25.6658481,25.1713657 23.940152,24.6314421 22.2143394,24.0920102 C21.5510721,23.8846923 20.887455,23.6787262 20.2243044,23.4708554 C19.9698791,23.3910373 19.839663,23.1822449 19.8580322,22.9690896 C19.8850899,22.6559007 19.9905222,22.4347575 20.2861176,22.3768143 C20.3634425,22.3616371 20.4519636,22.3746022 20.5288802,22.3981974 C21.090039,22.5705526 21.6492735,22.7500356 22.2096743,22.9251559 C23.5297941,23.3375181 24.8502056,23.7489586 26.1706169,24.1603992 C26.6969621,24.3243365 27.2236572,24.4869218 27.7500606,24.6504903 C28.0004623,24.7283421 28.1537708,24.9589479 28.1211731,25.2071886 C28.0774956,25.540163 27.8778857,25.7572506 27.6132552,25.7671434 Z M16.6797435,35.5115071 C16.7268615,35.5228131 16.7840096,35.5331359 16.8392333,35.5503408 C19.2419004,36.30004 21.6443925,37.0502308 24.046768,37.8006675 C24.2944291,37.8780276 24.4403316,38.0855913 24.4189302,38.3273802 C24.3900063,38.6549474 24.2197284,38.8730796 23.962912,38.8952001 C23.8860538,38.9018363 23.8037722,38.8855532 23.7288384,38.8622652 C21.7417191,38.2436912 19.7552413,37.6226592 17.768647,37.0023032 C17.3551401,36.8731443 16.9411083,36.745706 16.5278346,36.6158097 C16.2975513,36.5433651 16.1437764,36.3479063 16.1612124,36.1225233 C16.1843632,35.824143 16.2939942,35.5980227 16.5599076,35.529818 C16.5952461,35.5207239 16.632159,35.5185734 16.6797435,35.5115072 Z M31.8717935,11.8656141 C31.8488177,11.9309924 31.8195438,12.0686308 31.7554565,12.1849475 C31.651307,12.3738317 31.4361272,12.4435111 31.2241545,12.3775184 C30.0653904,12.0165248 28.9071512,11.653995 27.7486787,11.2923255 C26.5049505,10.9039886 25.2614556,10.5147913 24.0169111,10.1290965 C23.8042971,10.0632267 23.6482479,9.93892203 23.6241642,9.69946806 C23.5969896,9.42879965 23.7210825,9.06676146 24.0750506,9.02645306 C24.1393129,9.01914102 24.2093484,9.03425667 24.2725029,9.0539193 C26.6812347,9.80429447 29.0895,10.5562672 31.4977071,11.3086086 C31.7373789,11.3834495 31.8719683,11.5605361 31.8717935,11.8656141 Z M21.4994464,21.5595186 C21.5157162,21.2495864 21.6492559,21.0152938 21.8918436,20.9664444 C21.9835137,20.9479493 22.0885962,20.9574734 22.1791,20.9850626 C22.9082041,21.2073117 23.6351505,21.4371801 24.3629718,21.6641607 C25.2789734,21.9498218 26.1953247,22.2344384 27.1112095,22.5205911 C27.3704169,22.6015151 27.5187102,22.838327 27.4768987,23.0983653 C27.4214418,23.4436287 27.2160004,23.6537732 26.937258,23.6223744 C26.7938629,23.6061526 26.6542585,23.5487009 26.514304,23.5050744 C25.3231755,23.1338195 24.1323969,22.7613354 22.9415016,22.3893431 C22.5821103,22.2771432 22.2223692,22.1661722 21.8633862,22.0526205 C21.6287293,21.9783941 21.4986883,21.7998942 21.4994464,21.5595186 Z M21.001582,24.3958347 C21.097509,24.4197371 21.1694689,24.4338081 21.2393295,24.4556214 C22.7494375,24.9266028 24.2592539,25.3984444 25.7691868,25.8701019 C25.8946794,25.9093042 26.0205799,25.9467248 26.1458974,25.9867258 C26.4220158,26.074839 26.5568968,26.3332797 26.48587,26.6278504 C26.4297717,26.8603611 26.3185078,27.0387994 26.0784861,27.0798453 C26.003319,27.0926874 25.9189381,27.0826102 25.8451122,27.0600597 C25.2687916,26.8843249 24.6940455,26.7028758 24.118833,26.5233929 C23.0507476,26.1901727 21.9828955,25.8562152 20.9142855,25.5248998 C20.7167748,25.4636383 20.5661489,25.3462156 20.5329098,25.1280834 C20.4960551,24.8865402 20.5586264,24.6625705 20.7519966,24.5090176 C20.8261142,24.450214 20.926823,24.4284624 21.0015821,24.3958347 Z M16.8267248,38.1746753 C16.8481845,37.8504878 16.9893051,37.5978228 17.2817515,37.5664241 C17.3439729,37.5596651 17.4115591,37.5671615 17.4716812,37.585841 C19.1343396,38.102538 20.7965897,38.6208942 22.4583149,39.1409093 C22.724928,39.2243526 22.8553188,39.4886307 22.7876158,39.7719569 C22.7305261,40.0107963 22.6094073,40.1797107 22.3719513,40.233107 C22.3289154,40.2427539 22.2791731,40.2481613 22.2381783,40.235442 C20.6842762,39.7519871 19.1310156,39.2661971 17.5776384,38.7807144 C17.4401332,38.7377025 17.3018116,38.6971484 17.1650062,38.6516171 C16.9583985,38.5829207 16.8274828,38.3960028 16.8267247,38.1746753 Z M18.3217993,34.0954966 C18.3670512,34.1066182 18.4271733,34.1179243 18.4853711,34.1361121 C20.1263364,34.6474635 21.7671851,35.1593677 23.4079172,35.6715793 C23.6482887,35.7466045 23.7978651,35.956626 23.7792627,36.1904884 C23.7536628,36.5122183 23.5895663,36.7326855 23.3371235,36.7629783 C23.2551336,36.7728711 23.1655628,36.7562806 23.0852057,36.7312723 C21.7576799,36.3189715 20.4310871,35.9032297 19.104261,35.4884097 C18.787556,35.3894206 18.470151,35.2928893 18.1542039,35.1913195 C17.9229293,35.1169702 17.7836747,34.9255054 17.8029767,34.6891851 C17.8281684,34.3804818 17.9478878,34.1785711 18.2058704,34.1107965 C18.2381766,34.1022556 18.2724071,34.1017641 18.3217994,34.0954966 Z M29.7560212,13.7518933 C29.5936158,13.7042729 29.435409,13.6605235 29.2786017,13.6115513 C27.7377037,13.1297554 26.1969808,12.6470378 24.6561996,12.1646274 C24.3472501,12.0679118 24.2232156,11.8209 24.3070716,11.4924727 C24.360196,11.2844789 24.4679608,11.1349815 24.6697867,11.0885285 C24.7553338,11.0688044 24.8551096,11.0718152 24.9391407,11.0977453 C26.3064951,11.5190787 27.6724501,11.9456349 29.0385216,12.3713308 C29.3306181,12.4623319 29.6220732,12.5553608 29.9142862,12.6458703 C30.1382716,12.7151811 30.2862733,12.9381676 30.2541421,13.1861625 C30.2284839,13.3847551 30.1720356,13.5752983 29.9827473,13.6737344 C29.9135281,13.7096801 29.8349205,13.7254102 29.7560212,13.7518933 Z M31.2295953,9.70250348 C31.2019542,9.90189485 31.1477218,10.1194127 30.9189547,10.2292776 C30.7983024,10.2872824 30.6753175,10.2787415 30.5520409,10.240215 C29.3696013,9.87049608 28.1871033,9.50077718 27.0047218,9.13081248 C26.5429306,8.98629215 26.0811978,8.84152602 25.6196398,8.69626833 C25.3288845,8.60483709 25.2033337,8.35309397 25.2820581,8.04334608 C25.3359405,7.83117401 25.4382238,7.66735971 25.650313,7.62182844 C25.7386593,7.60284171 25.8408843,7.6123658 25.9283559,7.63927902 C26.8616184,7.92623054 27.7930732,8.21944953 28.7252278,8.51051792 C29.4374208,8.73295143 30.149847,8.95446326 30.8620399,9.17695821 C31.0951807,9.24983285 31.2308199,9.43238808 31.2295953,9.70250348 Z" id="Shape" fill="#FFFFFF"></path>
        </g>
    </g>
</svg>