<?xml version="1.0" encoding="UTF-8"?>
<svg width="48px" height="48px" viewBox="0 0 48 48" version="1.1" xmlns="http://www.w3.org/2000/svg" xmlns:xlink="http://www.w3.org/1999/xlink">
    <!-- Generator: Sketch 49.1 (51147) - http://www.bohemiancoding.com/sketch -->
    <title>flo</title>
    <desc>Created with Sketch.</desc>
    <defs></defs>
    <g id="48px" stroke="none" stroke-width="1" fill="none" fill-rule="evenodd">
        <g id="flo" fill-rule="nonzero">
            <circle id="Oval" fill="#2080A2" cx="24" cy="24" r="24"></circle>
            <path d="M23.9704468,30.4453236 C22.2529745,32.4056563 22.2106132,35.0950411 23.9898831,36.8861106 C25.6711741,35.2653775 25.6731676,32.246344 23.9704468,30.4453236 M23.9714436,12.1572734 C19.9140384,16.8502092 20.0675353,22.3964859 23.968852,27.0054243 C27.9411361,22.3020497 27.9506052,16.7821137 23.9714436,12.1572734 M26.8395457,25.6954139 C30.2135901,22.2438075 34.3317961,21.4556355 39,22.2033209 C37.4952306,25.652976 35.3734828,28.4089929 31.6231714,29.8497312 C32.451258,29.2005795 33.2060847,28.669278 33.8887479,28.0602227 C35.0270181,27.0444476 35.8349707,25.8149224 36.2382493,24.3372096 C36.3656319,23.8702965 36.2003734,23.7396661 35.7716781,23.670595 C34.2009249,23.4176268 32.7282504,23.7476659 31.3191675,24.3900861 C28.9473391,25.4713228 27.0184594,27.1331278 25.2076927,28.9415626 C25.1757973,28.9735617 25.1617434,29.0227311 25.1057269,29.1259476 C28.6530036,29.2596997 31.3544518,30.6765363 32.9556054,33.9487332 C30.8762188,34.4097928 28.9742511,34.3125274 27.2095335,33.1784143 C28.5385786,33.5863048 29.8657299,33.8840521 31.3189681,33.1943163 C31.1407521,32.8942275 31.035198,32.5418475 30.7959819,32.3466337 C30.1392337,31.8110397 29.4679333,31.268519 28.7260642,30.8623845 C27.5775276,30.2336224 26.2951296,29.94007 24.876478,29.6490541 C26.7916029,33.0043705 26.3107783,36.0511107 23.9694501,39 C22.8803188,37.6274548 22.118515,36.1926675 21.9100978,34.4974 C21.7007838,32.7963766 22.1790168,31.2514462 22.9994286,29.7729529 C21.1836781,29.4810591 17.2677094,31.5821683 16.6618945,33.2027062 C18.0668908,33.9135147 19.4384965,33.5893291 20.8505697,33.0637834 C19.835695,34.1088261 16.9120747,34.5366184 15.0060202,33.9077587 C16.5880365,30.6837556 19.2763279,29.262724 22.9030443,29.1264352 C22.6368166,28.8572724 22.4388652,28.6485957 22.231744,28.4489917 C20.722888,26.995083 19.1192425,25.6577563 17.2343188,24.6862726 C15.6940657,23.8924422 14.0791573,23.3936275 12.304273,23.6596684 C12.0938624,23.6911797 11.8865418,23.7423003 11.5922062,23.8016155 C12.1323364,26.5768513 13.9928401,28.2973864 16.2925048,29.7485634 C13.8758235,29.4554988 9.79459638,25.2298665 9,22.1972722 C13.6637185,21.4408066 17.8059459,22.2685872 21.1658365,25.7949231 C18.3855466,19.6046652 19.8645006,14.1257036 23.9689518,9 C28.0420057,14.0863877 29.536708,19.5261309 26.8395457,25.6954138" id="Shape" fill="#FFFFFF"></path>
        </g>
    </g>
</svg>