<?xml version="1.0" encoding="UTF-8"?>
<svg width="48px" height="48px" viewBox="0 0 48 48" version="1.1" xmlns="http://www.w3.org/2000/svg" xmlns:xlink="http://www.w3.org/1999/xlink">
    <!-- Generator: Sketch 49.1 (51147) - http://www.bohemiancoding.com/sketch -->
    <title>fun</title>
    <desc>Created with Sketch.</desc>
    <defs></defs>
    <g id="48px" stroke="none" stroke-width="1" fill="none" fill-rule="evenodd">
        <g id="fun" fill-rule="nonzero">
            <circle id="Oval" fill="#F1385B" cx="24" cy="24" r="24"></circle>
            <path d="M9.36645896,24.047619 C9.3670674,24.951718 9.45034736,25.8538592 9.61525407,26.7427248 L7.78063757,27.0859788 C7.96713081,28.0881051 8.24639003,29.0706367 8.61479414,30.0208334 L10.3543802,29.3429234 C10.6811612,30.1849333 11.0850034,30.9948249 11.5607395,31.7622354 L9.97557803,32.7495039 C10.5123357,33.6148288 11.1274614,34.428781 11.8131642,35.1810516 L13.1911064,33.9198083 C13.799543,34.5873222 14.4677741,35.1975158 15.1874067,35.7427248 L14.0625493,37.235119 C14.8739355,37.8496076 15.740265,38.3876109 16.6504805,38.842262 L17.4826572,37.1678241 C18.2897751,37.5703709 19.1324426,37.8969487 19.9998104,38.1433531 L19.4916612,39.9449404 C20.4700908,40.2223529 21.4720971,40.4081694 22.4847918,40.5 L22.6539,38.6374008 C23.0977056,38.6779101 23.5499253,38.6984127 23.9981855,38.6984127 C24.4509002,38.6984127 24.9077396,38.677414 25.3558347,38.6362434 L25.5267576,40.4986773 C26.5394465,40.4057497 27.5413437,40.218826 28.5195584,39.9403108 L28.0089344,38.140873 C28.875884,37.8935244 29.7180527,37.5660615 30.5246028,37.1626985 L31.3582644,38.8363095 C32.2679277,38.3809257 33.1336482,37.8422592 33.9443807,37.2271825 L32.8183683,35.7357804 C33.5376711,35.1899907 34.2055161,34.5792432 34.8135138,33.9112102 L36.1926108,35.1714616 C36.8777258,34.4184784 37.4921895,33.603861 38.0282172,32.7379299 L36.4423959,31.7519841 C36.9175388,30.9839125 37.3207185,30.1734112 37.6467755,29.3308531 L39.3870213,30.0066138 C39.7545752,29.0560606 40.0329507,28.0732521 40.2185382,27.0709326 L38.3872214,26.7294973 C38.5523873,25.8406548 38.6359433,24.9385152 38.6368413,24.0343916 L38.6368413,24.0077712 L40.5,24.0046296 C40.4981205,22.9858977 40.402799,21.9694959 40.2152385,20.968254 L38.3801271,21.312996 C38.2135044,20.4251524 37.9649618,19.5547366 37.6377014,18.7129629 L39.3766274,18.0338955 C39.0073961,17.0841986 38.5510197,16.1708911 38.0133687,15.3057209 L36.4295271,16.2944775 C35.9524452,15.5271999 35.4060333,14.8054718 34.7971805,14.1383929 L36.1739678,12.8758267 C35.4876584,12.12411 34.7338686,11.4371937 33.9221079,10.8237434 L32.7985703,12.3171296 C32.0781665,11.7729926 31.3092213,11.2966033 30.5015051,10.8940146 L31.332197,9.21874999 C30.420942,8.76503557 29.4694967,8.39737596 28.4901912,8.12053572 L27.9830319,9.92080026 C27.1153184,9.6756561 26.226836,9.51148656 25.3289424,9.43039021 L25.4968956,7.56746031 C25.0033749,7.5233686 24.5038599,7.50088184 23.9983505,7.5 C23.4778826,7.5 22.963464,7.52386464 22.4550948,7.57159392 L22.6276676,9.43402778 C21.7299873,9.51757171 20.8419456,9.68417691 19.9748979,9.93171297 L19.4627892,8.13277116 C18.4846596,8.41258085 17.5346534,8.78306239 16.625073,9.23941798 L17.4600545,10.9122024 C16.6537749,11.3169042 15.8864351,11.7952285 15.1677737,12.3411045 L14.0404415,10.8506944 C13.230262,11.4662342 12.4782398,12.1550875 11.7938612,12.9085648 L13.1741131,14.1678241 C12.5669793,14.8365515 12.0224442,15.559775 11.5473758,16.328373 L9.96056454,15.3439153 C9.42501441,16.2106003 8.97090129,17.1252387 8.60407022,18.0760582 L10.3449761,18.7503307 C10.0202907,19.5930108 9.77439926,20.4640905 9.61046955,21.3523479 L7.77535809,21.0130621 C7.59188972,22.0096577 7.49972031,23.0209764 7.50000065,24.0343916 L7.50000065,24.0492725 L9.36645896,24.047619 Z M25.6668286,35.6302909 L25.5678385,34.9340278 C26.6046635,34.7856735 27.6147724,34.4884775 28.5670736,34.0515873 L28.8592593,34.6911375 C27.8454172,35.1559074 26.770071,35.4719267 25.6663336,35.6294643 L25.6668286,35.6302909 Z M35.6875964,24.0335648 C35.6884713,25.1505882 35.5301379,26.2620104 35.2173933,27.3341601 L34.5439307,27.1357473 C34.8378582,26.1281573 34.9866911,25.0836613 34.9859216,24.0338955 L34.9859216,24.0157077 L35.6877614,24.013889 L35.6877614,24.0329034 L35.6875964,24.0335648 Z M33.8232828,17.6856812 C34.4284557,18.6237337 34.8959589,19.644086 35.2114539,20.7154431 L34.5383212,20.9138558 C34.2418614,19.9069866 33.8025273,18.9480516 33.2337967,18.0664683 L33.8232828,17.6856812 Z M33.2436957,29.9859458 L33.8338418,30.3662367 C33.2305805,31.30535 32.4969599,32.1535902 31.6550697,32.8854166 L31.1959206,32.3546627 C31.9872226,31.6664873 32.6767326,30.8689125 33.2436957,29.9859458 Z M28.8406161,13.3688823 C29.8547505,13.8323207 30.7975491,14.4387114 31.6403862,15.1696428 L31.1812371,15.7017197 C30.3889547,15.0146727 29.502713,14.4446955 28.5494203,14.0090939 L28.8406161,13.3688823 Z M27.0713331,21.1453373 L28.7064846,21.1453373 L30.8329569,24.2885251 L30.8329569,21.1453373 L32.4992902,21.1453373 L32.4992902,26.8331681 L30.8408761,26.8331681 L28.7211681,23.707176 L28.7211681,26.8331681 L27.0713331,26.8331681 L27.0713331,21.1453373 Z M23.9983505,12.3201058 C24.5497104,12.3201541 25.1003927,12.3588286 25.6463706,12.4358466 L25.5482055,13.1322751 C24.5106843,12.9860714 23.4577619,12.9874073 22.4206133,13.1362434 L22.3207983,12.4399802 C22.8764367,12.3601899 23.437037,12.3201306 23.9983505,12.3201058 Z M20.6204784,21.1453372 L22.3693034,21.1453372 L22.3693034,24.6107803 C22.3693034,24.9206349 22.4565797,25.162533 22.6279975,25.3368055 C22.7994155,25.5110781 23.0379816,25.5982143 23.3422112,25.5982143 C23.643801,25.5982143 23.883852,25.5124008 24.0554348,25.3407738 C24.2270177,25.1691468 24.3161087,24.9257605 24.3161087,24.6109458 L24.3161087,21.1453372 L26.0649419,21.1453372 L26.0649338,24.5300927 C26.0657046,24.8538261 26.0114753,25.1753283 25.9045698,25.4808201 C25.801616,25.7756845 25.6330329,26.0431908 25.4115992,26.2630621 C25.1886515,26.4863867 24.9543749,26.643243 24.7087695,26.7336309 C24.3684635,26.8600639 23.9597444,26.9233356 23.4826121,26.9234457 C23.1806991,26.9218071 22.8791417,26.9024286 22.5794924,26.8654101 C22.253375,26.8266093 21.9807123,26.7497796 21.7615043,26.6349207 C21.5422962,26.5200618 21.3418412,26.3567571 21.1601394,26.1450066 C20.9786576,25.9333664 20.8519502,25.7151124 20.7848019,25.4905753 C20.6765727,25.1291335 20.6198184,24.8090278 20.6198184,24.5302579 L20.6198184,21.1453372 L20.6204784,21.1453372 Z M22.4394215,34.9350198 L22.3404314,35.6314483 C21.2366208,35.4745203 20.1611103,35.1591143 19.1470107,34.6949405 L19.4385366,34.0550595 C20.3914917,34.4912385 21.402161,34.7876007 22.4394215,34.9350198 Z M19.1295225,13.3817791 L19.4222032,14.021164 C18.4700949,14.459142 17.5853567,15.0312885 16.7948409,15.720238 L16.3343721,15.1893187 C17.1753693,14.4563795 18.1166094,13.8477078 19.1295225,13.3817791 Z M15.5059899,21.1453373 L19.8285576,21.1453373 L19.8285576,22.3688823 L17.2713133,22.3688823 L17.2713133,23.3609457 L19.4655939,23.3609457 L19.4655939,24.5018188 L17.2713133,24.5018188 L17.2713133,26.8331681 L15.5059899,26.8331681 L15.5059899,21.1453373 Z M16.8093595,32.3606151 L16.3498805,32.8921957 C15.5074191,32.1610673 14.7731318,31.3134393 14.1691286,30.3748347 L14.7589446,29.9937169 C15.3268466,30.8762231 16.017248,31.6731885 16.8093595,32.3606151 Z M14.1584047,17.7111442 L14.7488806,18.0914352 C14.1823819,18.9744543 13.7454915,19.9345056 13.4516154,20.9421297 L12.7771628,20.7440476 C13.0899185,19.6717266 13.5548679,18.6500334 14.1577447,17.7103174 L14.1584047,17.7111442 Z M13.0122643,24.0438162 C13.0122963,25.0936472 13.1619631,26.1380913 13.4567298,27.1455027 L12.7834322,27.3439153 C12.4698078,26.2722843 12.31053,25.1612512 12.3104245,24.0444775 L13.0122643,24.0438162 Z" id="Shape" fill="#FFFFFF"></path>
        </g>
    </g>
</svg>