<?xml version="1.0" encoding="UTF-8"?>
<svg width="48px" height="48px" viewBox="0 0 48 48" version="1.1" xmlns="http://www.w3.org/2000/svg" xmlns:xlink="http://www.w3.org/1999/xlink">
    <!-- Generator: Sketch 49.1 (51147) - http://www.bohemiancoding.com/sketch -->
    <title>game</title>
    <desc>Created with Sketch.</desc>
    <defs></defs>
    <g id="48px" stroke="none" stroke-width="1" fill="none" fill-rule="evenodd">
        <g id="game" fill-rule="nonzero">
            <circle id="Oval" fill="#98C01F" cx="24" cy="24" r="24"></circle>
            <path d="M23.25,8.25 C31.5342713,8.25 38.25,14.9657288 38.25,23.25 L38.25,38.25 L23.25,38.25 C14.9657288,38.25 8.25,31.5342713 8.25,23.25 C8.25,14.9657288 14.9657288,8.25 23.25,8.25 Z M31.8046875,30.7264295 L31.8046875,34.6171875 L34.6757812,34.6171875 L34.6757812,24.65625 L24.7148438,24.65625 L24.7148438,27.5273438 L30.6201311,27.5273442 C29.140416,30.0678453 26.3872931,31.7753907 23.2353516,31.7753907 C18.5188182,31.7753907 14.6953125,27.9518849 14.6953125,23.2353516 C14.6953125,18.5188182 18.5188182,14.6953125 23.2353516,14.6953125 C27.3129512,14.6953125 30.7230861,17.5530681 31.5721773,21.375 L34.4658999,21.375 C33.577927,15.9739284 28.8878264,11.8535156 23.2353516,11.8535156 C16.9493372,11.8535156 11.8535156,16.9493372 11.8535156,23.2353516 C11.8535156,29.521366 16.9493372,34.6171875 23.2353516,34.6171875 C26.6527516,34.6171875 29.7183823,33.111083 31.8046875,30.7264295 Z" id="Shape" fill="#FFFFFF"></path>
        </g>
    </g>
</svg>