<?xml version="1.0" encoding="UTF-8"?>
<svg width="48px" height="48px" viewBox="0 0 48 48" version="1.1" xmlns="http://www.w3.org/2000/svg" xmlns:xlink="http://www.w3.org/1999/xlink">
    <!-- Generator: Sketch 49.1 (51147) - http://www.bohemiancoding.com/sketch -->
    <title>gbx</title>
    <desc>Created with Sketch.</desc>
    <defs></defs>
    <g id="48px" stroke="none" stroke-width="1" fill="none" fill-rule="evenodd">
        <g id="gbx" fill-rule="nonzero">
            <circle id="Oval" fill="#1666AF" cx="24" cy="24" r="24"></circle>
            <path d="M23.5478546,16.5092064 L23.5478546,19.6000917 L16.4971505,19.6000917 C15.5833055,19.6000917 14.4568181,19.9195397 13.6188443,20.5144233 C12.5792621,21.2524302 11.9995577,22.3569231 11.9995577,24.0046032 C11.9995577,25.6522833 12.5792621,26.756776 13.6188443,27.4947831 C14.4568181,28.0896667 15.5833055,28.4091147 16.4971505,28.4091147 L19.4984519,28.4091147 L19.4984519,31.5 L16.4971505,31.5 C15.0060077,31.5 13.2868351,31.012479 11.9171084,30.0401001 C10.0758101,28.7329491 9,26.6832414 9,24.0046032 C9,21.325965 10.0758101,19.2762573 11.9171084,17.9691063 C13.2868351,16.9967272 15.0060077,16.5092064 16.4971505,16.5092064 L23.5478546,16.5092064 Z M16.0489605,25.7818622 L16.0489605,22.690977 L23.5498277,22.690977 L23.5498277,31.5 L20.55027,31.5 L20.55027,25.7818622 L16.0489605,25.7818622 Z M28.4971248,19.5908853 L28.4971248,16.5 L39,16.5 L39,31.5 L25.4975672,31.5 L25.4975672,19.6000917 L28.4971248,19.6000917 L28.4971248,28.4091147 L36.0004424,28.4091147 L36.0004424,19.5908853 L28.4971248,19.5908853 Z" id="Shape" fill="#FFFFFF"></path>
        </g>
    </g>
</svg>