<?xml version="1.0" encoding="UTF-8"?>
<svg width="48px" height="48px" viewBox="0 0 48 48" version="1.1" xmlns="http://www.w3.org/2000/svg" xmlns:xlink="http://www.w3.org/1999/xlink">
    <!-- Generator: Sketch 49.1 (51147) - http://www.bohemiancoding.com/sketch -->
    <title>gno</title>
    <desc>Created with Sketch.</desc>
    <defs></defs>
    <g id="48px" stroke="none" stroke-width="1" fill="none" fill-rule="evenodd">
        <g id="gno" fill-rule="nonzero">
            <circle id="Oval" fill="#00A6C4" cx="24" cy="24" r="24"></circle>
            <path d="M37.1658095,15.75 L37.4650316,16.2466555 C38.9611419,18.7575251 39.75,21.6270903 39.75,24.5518395 C39.722798,33.353679 32.6774787,40.5 24.0000392,40.5 L23.9728371,40.5 C15.2953976,40.5 8.2228762,33.298495 8.25007821,24.4966555 C8.25007821,21.5443145 9.06613836,18.6747492 10.5622486,16.1914716 L10.8342687,15.7224081 L12.2759749,17.1847826 C12.0039549,17.5986623 11.7591369,18.0401339 11.5959248,18.5367893 C10.4534406,21.7098662 12.0855609,25.2140468 15.2409935,26.3729097 C17.1179319,27.0351171 19.1036783,26.7316053 20.6541926,25.6831104 L24.0000392,29.104515 L27.8355218,25.2140468 C28.1891478,25.4623746 28.597178,25.6555184 29.03241,25.8210702 C32.1062366,26.9247492 35.4792852,25.2968228 36.5673654,22.2065217 C37.2202136,20.3854515 36.9209915,18.4816053 35.9689214,16.9640468 L37.1658095,15.75 Z M14.0441053,18.9782608 L18.5596381,23.5309365 C18.015598,23.9724081 17.3355478,24.2207358 16.6010937,24.2207358 C14.8329634,24.2207358 13.3912572,22.7583612 13.3912572,20.9648829 C13.3912572,20.2198997 13.6360752,19.5301003 14.0441053,18.9782608 Z M29.7940662,23.2550168 L34.255195,18.7299332 C34.6088211,19.2541806 34.7992351,19.888796 34.7992351,20.5510034 C34.7992351,22.3444816 33.3575287,23.8068562 31.5893985,23.8068562 C30.9093483,23.8068562 30.3109042,23.6137124 29.7940662,23.2550168 Z M24.0544431,26.6764214 L11.0518847,13.4322743 L11.5687228,12.8804348 C14.7785594,9.43143813 19.1580822,7.5 23.864029,7.5 L23.8912311,7.5 C28.6515819,7.5 33.2215188,9.56939799 36.4041534,13.1563545 L36.8937894,13.708194 L24.0544431,26.6764214 Z M13.1736411,13.4322742 L24.0544431,24.4966556 L34.7992352,13.65301 C31.9158225,10.7282609 27.9987339,9.04515049 23.9184331,9.04515049 L23.8912311,9.04515049 C19.8381324,9.04515049 16.0570536,10.590301 13.1736411,13.4322742 Z" id="Shape" fill="#FFFFFF"></path>
        </g>
    </g>
</svg>