<?xml version="1.0" encoding="UTF-8"?>
<svg width="48px" height="48px" viewBox="0 0 48 48" version="1.1" xmlns="http://www.w3.org/2000/svg" xmlns:xlink="http://www.w3.org/1999/xlink">
    <!-- Generator: Sketch 49.1 (51147) - http://www.bohemiancoding.com/sketch -->
    <title>gnt</title>
    <desc>Created with Sketch.</desc>
    <defs></defs>
    <g id="48px" stroke="none" stroke-width="1" fill="none" fill-rule="evenodd">
        <g id="gnt" fill-rule="nonzero">
            <circle id="Oval" fill="#001D57" cx="24" cy="24" r="24"></circle>
            <path d="M30.7483679,7.93176173 L32.5531972,9.7387468 L29.1372059,13.2488202 C29.8565193,14.343888 30.2450494,15.6345783 30.2450494,16.9659909 C30.2450494,18.7494487 29.577711,20.4090017 28.3573436,21.6629272 C27.4462976,22.6177876 26.2944915,23.2497954 25.0321782,23.5013959 L25.0321782,26.5599559 C26.281089,26.8128331 27.4334902,27.4478924 28.3521943,28.3918992 C29.577711,29.6511684 30.2450494,31.3107213 30.2450494,33.0941791 C30.2450494,34.877637 29.577711,36.5371899 28.3521943,37.7964592 C27.1275197,39.0548636 25.4845803,39.75 23.7475248,39.75 C21.9980956,39.75 20.3722396,39.0597031 19.1428551,37.7964592 C17.9220522,36.5420334 17.25,34.8649554 17.25,33.0941791 C17.25,31.323403 17.9220522,29.6463249 19.1377059,28.3972426 C20.0487519,27.4423824 21.200558,26.8103746 22.4628712,26.5587741 L22.4628712,23.5002141 C21.2139606,23.2473369 20.0615593,22.6122777 19.1428551,21.6682708 C17.9220522,20.4138451 17.25,18.736767 17.25,16.9659909 C17.25,15.1952146 17.9220522,13.5181366 19.1428551,12.2637108 C20.3675299,11.0053065 22.0104691,10.31017 23.7475248,10.31017 C25.0384042,10.31017 26.2784056,10.7027492 27.3409653,11.4330096 L30.7483679,7.93176173 Z M23.7475248,29.0174951 C22.6798869,29.0174951 21.6963681,29.4328715 20.9625198,30.2032611 C20.2166269,30.9696969 19.8002121,32.0001103 19.8002121,33.0941791 C19.8002121,34.181973 20.2123253,35.1974208 20.9625198,35.9850974 C21.7045498,36.7475642 22.6966007,37.1708632 23.7475248,37.1708632 C24.8151625,37.1708632 25.7986814,36.755487 26.5325298,35.9850974 C27.2784225,35.2186614 27.6948374,34.1882481 27.6948374,33.0941791 C27.6948374,32.0063854 27.2827242,30.9909377 26.5269404,30.1974557 C25.7986814,29.4328715 24.8151625,29.0174951 23.7475248,29.0174951 Z M26.5269404,19.882335 C27.2784225,19.1100938 27.6948374,18.0796805 27.6948374,16.9856115 C27.6948374,15.8744669 27.2860869,14.8525914 26.5325298,14.0946934 C25.7904996,13.3322265 24.7984489,12.9089274 23.7475248,12.9089274 C22.6798869,12.9089274 21.6963681,13.3243038 20.9625198,14.0946934 C20.2166269,14.8611293 19.8002121,15.8915427 19.8002121,16.9856115 C19.8002121,18.0734052 20.2123253,19.088853 20.9625198,19.8765296 C21.7045498,20.6389965 22.6966007,21.0622956 23.7475248,21.0622956 C24.8151625,21.0622956 25.7986814,20.6469192 26.5269404,19.882335 Z" id="Shape" fill="#FFFFFF"></path>
        </g>
    </g>
</svg>