<?xml version="1.0" encoding="UTF-8"?>
<svg width="48px" height="48px" viewBox="0 0 48 48" version="1.1" xmlns="http://www.w3.org/2000/svg" xmlns:xlink="http://www.w3.org/1999/xlink">
    <!-- Generator: Sketch 49.1 (51147) - http://www.bohemiancoding.com/sketch -->
    <title>grc</title>
    <desc>Created with Sketch.</desc>
    <defs></defs>
    <g id="48px" stroke="none" stroke-width="1" fill="none" fill-rule="evenodd">
        <g id="grc" fill-rule="nonzero">
            <circle id="Oval" fill="#5411B3" cx="24" cy="24" r="24"></circle>
            <path d="M24.0748914,9 C24.8281656,9.45675 25.5756041,9.92397375 26.335881,10.3685175 C29.9369066,12.4739775 33.5405777,14.57487 37.1468166,16.671195 C37.3841357,16.8090863 37.4891007,16.9626487 37.4887116,17.2562287 C37.4817866,22.2562238 37.4836541,27.2562188 37.499994,32.256135 C37.5010835,32.5823962 37.3523894,32.7180825 37.1165487,32.85558 C32.8295541,35.35605 28.544427,37.8599062 24.2595334,40.3639987 C24.1940178,40.40235 24.1362831,40.4544037 24.0748914,40.5 L23.9192723,40.5 C22.6248327,39.7321875 21.3338946,38.9581537 20.0351756,38.1979012 C16.9743039,36.4060237 13.911409,34.61769 10.8436122,32.8380187 C10.5839618,32.6874487 10.4992272,32.5164037 10.5000053,32.215815 C10.5129217,27.25551 10.5176681,22.295205 10.5068525,17.3349 C10.5060744,16.9788712 10.6280798,16.8001087 10.9178425,16.63182 C15.1647651,14.1648187 19.4059297,11.68758 23.6471722,9.2105775 C23.7452124,9.15332625 23.8289354,9.0707175 23.9192722,9 L24.0748914,9 Z M36.825152,24.7436213 L36.8286534,24.7436213 C36.8286534,22.3945088 36.821028,20.0453175 36.8372903,17.6963625 C36.8396246,17.3589188 36.7366047,17.1705488 36.4448967,17.0234438 C36.0514139,16.824915 35.6786283,16.5844125 35.2972059,16.3613925 C31.6397685,14.22333 27.9819419,12.0859763 24.3265274,9.94444875 C24.123678,9.82553625 23.9591886,9.76962375 23.7249819,9.90727875 C19.6347677,12.3102563 15.5398071,14.704965 11.4416564,17.093925 C11.2337493,17.2152 11.1601415,17.3485238 11.1605305,17.5898138 C11.1686227,22.3404863 11.1715795,27.0912375 11.1609974,31.84191 C11.1602971,32.1517125 11.2666627,32.3070863 11.5188434,32.45364 C15.5849367,34.8175575 19.6472951,37.1879325 23.704907,39.5668125 C23.929232,39.698325 24.0845397,39.6910013 24.3025622,39.56319 C28.370834,37.177695 32.4426851,34.798185 36.519516,32.427495 C36.7567574,32.289525 36.8316879,32.1368288 36.8306765,31.86963 C36.8211836,29.4942938 36.825152,27.1189575 36.825152,24.7436213 Z M28.0626615,34.0275612 C27.9706128,33.9640887 27.7853482,33.9369987 27.6954004,33.9877925 C26.7339079,34.5299075 25.7828419,35.0908437 24.8297529,35.6481575 C24.7888251,35.6721762 24.7566118,35.7114725 24.6994996,35.7621087 C25.3846905,36.1936587 26.0507401,36.6132387 26.7801268,37.0726662 C26.1523594,37.4435 25.5474681,37.7251887 25.0310461,38.124215 C24.3121638,38.6797175 23.6870419,38.6832612 22.969171,38.1239 C22.470801,37.735505 21.8838058,37.46366 21.3375049,37.1378712 C21.3188307,37.1267675 21.3120613,37.09511 21.2697328,37.019195 C22.1687443,36.4790487 27.4608046,33.3364512 29.1239836,32.183315 C30.6465607,31.1275925 31.8952483,29.75561 32.5696236,27.9706625 C32.8529281,27.2207262 32.9783571,26.40905 33.1657224,25.623125 C33.191244,25.5161825 33.1594198,25.39538 33.1531173,25.2596937 C33.0157834,25.2521337 32.9019481,25.2404 32.7881905,25.2403212 C29.9355372,25.2389825 27.0829615,25.2368562 24.2303082,25.2440225 C24.0916515,25.2444162 23.8817214,25.2843425 23.8254651,25.3790787 C23.2064124,26.42165 22.6112472,27.47879 21.9711859,28.599245 L28.2600643,28.599245 C28.2745369,28.63232 28.2890094,28.665395 28.303482,28.6983912 C28.0429756,28.9193637 27.8045673,29.1762462 27.5186172,29.3553237 C25.8344296,30.4099437 19.7745447,34.2367212 18.4501485,35.1291162 C18.2434086,35.268425 18.108798,35.27315 17.9033809,35.1521112 C16.0571161,34.0631562 14.2071942,32.9806587 12.3518257,31.9077687 C12.1404172,31.7855487 12.0779361,31.64498 12.0783252,31.4086512 C12.0856393,26.9729 12.086962,22.5373062 12.0802704,18.1016337 C12.0798814,17.862155 12.1471866,17.7223737 12.3531485,17.6033037 C14.2204997,16.5241925 16.0855944,15.4409075 17.9429082,14.3443136 C18.1731465,14.2083124 18.3104803,14.2250861 18.515742,14.3904611 C18.9811209,14.7654686 19.4718655,15.1092125 19.9633107,15.4494912 C20.0496015,15.5092625 20.2202377,15.545015 20.2995256,15.4991037 C21.2979777,14.9213149 22.2867036,14.3265161 23.330752,13.7046274 C22.6513191,13.2742586 22.001376,12.8625536 21.2866176,12.4098986 C21.7171377,12.1544336 22.0909348,11.9314136 22.4660545,11.7105199 C22.8914394,11.4599374 23.3109106,11.1975424 23.7482781,10.9704274 C23.8743295,10.9049074 24.0872164,10.8806524 24.2024523,10.9445186 C24.9976659,11.3850461 25.7778621,11.8535299 26.5615597,12.3153199 C26.5913608,12.3328811 26.6077009,12.3738311 26.6638015,12.4484074 C26.0036653,12.8554661 21.0145954,15.8386737 19.2259875,17.0181912 C17.8492254,17.9261 16.7117277,19.115225 15.8713846,20.57084 C14.0785751,23.6765037 14.5793573,27.93302 17.0372829,30.5290925 C17.9023694,31.4428287 18.8424642,32.2600962 19.89904,32.9360075 C20.0074287,33.0053075 20.2050649,33.0572825 20.2992922,33.0042837 C21.2845945,32.4513012 22.2573694,31.875245 23.2327897,31.3042287 C23.2527868,31.292495 23.2636024,31.26446 23.284144,31.2366612 C22.5438642,30.7562862 21.7938579,30.2925275 21.0678171,29.7928587 C20.153944,29.1638825 19.3034079,28.4574162 18.6647472,27.5269062 C17.3770771,25.6509237 17.5143331,23.2592862 18.9873456,21.5341887 C20.0562153,20.2823787 21.4064442,19.403765 22.7875636,18.56933 C24.5560966,17.50085 29.0686611,14.7225499 29.5285932,14.3609299 C29.6938606,14.2309924 29.8031832,14.1950824 29.9998857,14.3111599 C31.8911244,15.4269687 33.7918558,16.52624 35.6814606,17.644805 C35.7952959,17.712215 35.9027509,17.9041287 35.9031399,18.0383975 C35.9158228,22.5133662 35.9170678,26.9884137 35.907186,31.4633825 C35.9068747,31.6004075 35.806267,31.79807 35.6932876,31.8649287 C33.7811181,32.9961725 31.8595336,34.111115 29.939661,35.2289712 C29.8957765,35.2544862 29.8476901,35.2727562 29.8148545,35.2881125 C29.2238911,34.8594762 28.6501236,34.43336 28.0626615,34.0275612 Z M32.1750514,20.6595124 C31.1783112,18.8781087 29.6919154,17.5920424 28.0302927,16.4911962 C27.9159127,16.4154387 27.6590634,16.4644999 27.5162829,16.5438012 C26.7221588,16.9848012 25.9426627,17.4527337 25.1586539,17.9123187 C25.0059915,18.0017787 24.85543,18.0949399 24.6643297,18.2103087 C24.7790988,18.2903974 24.8481937,18.3406399 24.9192337,18.3878899 C25.7626114,18.9486687 26.6292541,19.4770812 27.4442313,20.0772349 C28.5901324,20.9211199 29.560962,21.9263637 30.0157588,23.3411862 C30.0421362,23.4230862 30.1760465,23.5227049 30.2610922,23.5238862 C31.1913831,23.5369587 32.1219075,23.5320762 33.0843337,23.5320762 C33.0305673,22.6618099 32.6649402,21.5350549 32.1750514,20.6595124 Z" id="Shape" fill="#FFFFFF"></path>
        </g>
    </g>
</svg>