<?xml version="1.0" encoding="UTF-8"?>
<svg width="48px" height="48px" viewBox="0 0 48 48" version="1.1" xmlns="http://www.w3.org/2000/svg" xmlns:xlink="http://www.w3.org/1999/xlink">
    <!-- Generator: Sketch 49.1 (51147) - http://www.bohemiancoding.com/sketch -->
    <title>grs</title>
    <desc>Created with Sketch.</desc>
    <defs></defs>
    <g id="48px" stroke="none" stroke-width="1" fill="none" fill-rule="evenodd">
        <g id="grs" fill-rule="nonzero">
            <circle id="Oval" fill="#377E96" cx="24" cy="24" r="24"></circle>
            <path d="M35.436822,45.1049607 C35.4798409,45.074094 35.5222494,45.0429966 35.5640359,45.0116691 C35.2162221,44.3749287 34.6518676,44.0396976 34.0165227,43.8885462 C33.111493,43.6727289 32.1902031,43.4731771 31.2657405,43.4073211 C29.2129653,43.2605335 27.1530514,43.2252252 25.09869,43.1006542 C22.8087511,42.9614044 20.521985,42.7674067 18.2324427,42.6174454 C18.0329554,42.6043536 17.746614,42.6793342 17.6319981,42.8205676 C17.03195,43.5564889 16.4525248,44.3118496 15.9115695,45.0922039 C15.6478338,45.4734547 15.4840401,45.9241321 15.278604,46.3359307 C15.3302421,46.3667308 15.3827418,46.3970872 15.4360833,46.4270013 C14.5291762,46.0804867 13.6486756,45.6805435 12.7984312,45.2310216 C12.9534686,45.2608578 13.1585284,45.2375005 13.2345936,45.1611147 C14.1737303,44.2204843 15.0823291,43.2489096 15.9964804,42.2896332 C15.3127508,41.7429489 14.6456782,41.2597401 14.0384915,40.7106754 C13.4709642,40.1969191 13.2349902,39.5173324 13.2833748,38.7393586 C13.3583312,37.5432385 13.8822331,36.5244537 14.6524203,35.670309 C15.5630022,34.6610455 16.5846306,33.7513596 17.5590642,32.799621 C17.6776461,32.6841745 17.8033667,32.5766626 17.9152065,32.4747048 C17.8775299,32.4088488 17.8731674,32.389806 17.8616661,32.3826649 C17.7668801,32.3263303 17.6713006,32.2715826 17.5757213,32.2164381 C14.4453978,30.4109514 12.8840037,27.6672147 12.8423613,24.0859957 C12.8070643,21.0217068 14.1118615,18.5386171 16.4208369,16.5780118 C18.6699265,14.6685837 21.32156,13.997725 24.228997,14.0639778 C26.3813175,14.1127747 28.3932433,14.5892391 30.2671542,15.658011 C30.3718552,15.7175194 30.636384,15.6476962 30.7319634,15.5473252 C31.6191462,14.6189934 32.5182268,13.6989926 33.3479032,12.7206735 C34.3794466,11.5047174 35.2531452,10.184423 35.6148397,8.59197666 C35.8968186,7.35023349 35.7766504,6.18347097 34.87638,5.21427654 C33.5549259,3.79123094 31.2808507,3.98205473 30.1216039,5.60346186 C29.8935618,5.9224272 29.7607026,6.30883545 29.5386094,6.63375164 C29.4561177,6.7551489 29.2451292,6.78926708 29.0924401,6.86345428 C29.0559534,6.73015535 28.9718754,6.59011211 28.9913085,6.46554107 C29.0428657,6.12277235 29.108304,5.7760364 29.2221267,5.45032675 C29.7924301,3.81582776 30.8501487,2.70063924 32.6253075,2.45110044 C33.2039394,2.36937549 33.8035908,2.43800858 34.406415,2.43800858 C34.3774636,2.39754282 34.3647726,2.36382137 34.3413735,2.35152296 C34.2299304,2.29161777 34.1161075,2.23488638 34.0006984,2.18212221 C32.8492437,1.65753308 31.6830366,1.22717603 30.5029416,0.891432855 C32.7773943,1.53017681 34.9151312,2.49567717 36.8623047,3.73408662 C36.8738133,3.86364075 36.8676138,3.89816955 36.882,3.91588131 C38.2062303,5.54958687 38.0360911,7.28286992 37.2024487,9.04511373 C36.4957165,10.5383793 35.4625869,11.8027357 34.3485519,13.0048066 C33.3285097,14.1065065 32.3025189,15.2026522 31.2753381,16.3051457 C31.3165839,16.3317261 31.3407762,16.3618771 31.3653651,16.3618771 C32.9354842,16.3638607 34.506,16.3852837 36.0753259,16.3535458 C36.8942944,16.3372803 37.6216494,16.0659218 38.1265147,15.341902 C38.2236805,15.2026522 38.4842433,15.177262 38.6698497,15.0995043 C38.7051466,15.1483012 38.7404436,15.1967014 38.7753439,15.2451016 C38.3390896,16.4979531 37.9103706,17.7535816 37.4523035,18.9981018 C37.4134371,19.1036301 37.1806359,19.1885289 37.0342924,19.1944797 C36.4798529,19.2174897 35.9242233,19.2040011 35.3693871,19.2040011 C34.7269034,19.2043978 34.0844196,19.2040011 33.3768943,19.2040011 C33.4792159,19.4079168 33.5402914,19.5316944 33.6029535,19.6550752 C34.6816915,21.7707993 34.9696194,24.011491 34.4235082,26.3001864 C33.6184207,29.6759029 31.4101803,31.8554994 28.1981583,32.990524 C25.5770628,33.9164757 22.8857699,33.8827542 20.1924939,33.2400628 C19.9549337,33.1837282 19.5853072,33.1345345 19.4580003,33.2622794 C18.8793683,33.8410983 18.2670258,34.4250747 17.8502046,35.1177531 C16.9899903,36.5463528 17.4889067,37.5397474 19.1280333,37.884103 C19.1435005,37.8876735 19.1593643,37.8888637 19.1752281,37.8900538 C20.7830238,38.0138314 22.3888365,38.1669666 23.998615,38.2554358 C26.2750698,38.3804035 28.5554904,38.4303906 30.8307552,38.5668634 C32.2093191,38.6493817 33.5700361,38.892573 34.8125679,39.5499432 C36.4112419,40.3945665 37.5439168,41.6406736 38.0400571,43.4592522 C38.1573994,43.37721 38.2744369,43.2935944 38.3911252,43.2084205 C37.4568334,43.9095214 36.4697188,44.5440484 35.436822,45.1049607 Z M28.16251,47.6403261 C26.8105423,47.8767358 25.4196661,48 24,48 C23.9172412,48 23.8345804,47.9995811 23.7520194,47.9987454 C25.2199063,47.9852941 26.7199579,47.8638088 28.16251,47.6403261 Z M47.9998821,24.0760362 C47.9999607,24.0507 48,24.0253547 48,24 C48,21.9303374 47.7380227,19.9218627 47.24542,18.0059281 C47.5235244,19.1263703 47.7280522,20.2903946 47.8573669,21.499044 C47.9509743,22.3741227 47.9972632,23.2335347 47.9998821,24.0760362 Z M42.4212986,8.61546802 C41.0321062,6.95384775 39.4222946,5.48302587 37.6368989,4.24803768 C39.4626996,5.56814635 41.0610438,7.02169815 42.4212986,8.61546802 Z M12.4570912,45.0470032 C11.2693855,44.3942376 10.1429057,43.6438624 9.08845488,42.8066806 C10.1582643,43.6188852 11.3249367,44.3140054 12.4570912,45.0470032 Z M4.53754703e-05,24.0471744 C0.00142153213,23.3273491 0.0340949961,22.6038059 0.097387985,21.876645 C0.145847297,21.3202758 0.211630749,20.770488 0.294809928,20.2273863 C0.100762845,21.4564039 0,22.7164348 0,24 C0,24.0157284 1.51297434e-05,24.0314532 4.53754703e-05,24.0471744 Z M4.37469826,10.1817777 C4.56808165,9.91191756 4.76794879,9.64473915 4.97431531,9.38026538 C5.77906707,8.34899636 6.6339748,7.40013927 7.53882753,6.5348078 C6.36669483,7.6399646 5.30579511,8.86181121 4.37469826,10.1817777 Z M16.6996797,1.130478 C17.9563501,0.741076833 19.267695,0.447839192 20.6334678,0.252064524 C21.7855956,0.086772783 22.9278963,0.00287539689 24.0596913,7.26516694e-05 C24.0397998,2.42265168e-05 24.0199027,0 24,0 C21.4545651,0 19.0016833,0.396267588 16.6996797,1.130478 Z M29.3494336,24.9844941 C29.3188959,24.9765595 29.288358,24.9694187 29.2578202,24.9614841 C29.2066594,24.2354809 29.1773115,23.5070974 29.100372,22.7838712 C28.9226976,21.1089064 28.4471803,19.5291553 27.5250972,18.1025392 C26.1612073,15.9907824 23.8807867,15.1394146 21.6927727,15.9848314 C19.8973876,16.6783034 18.9451633,18.1029358 18.5152545,19.9195308 C18.1087447,21.6385318 18.1400757,23.3805428 18.3486847,25.115016 C18.5473786,26.7649872 19.0181368,28.3356138 19.9687747,29.7320788 C21.188304,31.5232836 22.8908859,32.3068116 25.0087026,31.9537281 C27.0166626,31.6192905 28.281007,30.3200224 28.7961838,28.3863943 C29.0908537,27.2819174 29.1721557,26.1203122 29.3494336,24.9844941 Z" id="Shape" fill="#FFFFFF"></path>
        </g>
    </g>
</svg>