<?xml version="1.0" encoding="utf-8"?>
<!-- Generator: Adobe Illustrator 23.0.1, SVG Export Plug-In . SVG Version: 6.00 Build 0)  -->
<svg version="1.1" id="Capa_1" xmlns="http://www.w3.org/2000/svg" xmlns:xlink="http://www.w3.org/1999/xlink" x="0px" y="0px"
	 viewBox="0 0 48 48" style="enable-background:new 0 0 48 48;" xml:space="preserve">
<style type="text/css">
	.st0{fill:#F6AE2D;}
	.st1{fill:#FFFFFF;}
</style>
<title>usd</title>
<desc>Created with Sketch.</desc>
<g>
	<g>
		<g id="usd">
			<circle id="Oval" class="st0" cx="24" cy="24" r="24"/>
		</g>
	</g>
	<g>
		<path class="st1" d="M20.5,19.7c-0.4-1.6-1.3-2.7-2.7-3.3c-0.8-0.3-1.7-0.5-2.6-0.5c-1.9,0-3.4,0.7-4.6,2.1
			c-1.2,1.4-1.8,3.5-1.8,6.3c0,2.8,0.6,4.8,1.9,6c1.3,1.2,2.8,1.8,4.4,1.8c1.6,0,2.9-0.5,4-1.4c1-0.9,1.7-2.1,1.9-3.6h-5.3v-3.8h9.6
			v12.4h-3.2l-0.5-2.9c-0.9,1.1-1.8,1.9-2.5,2.3c-1.3,0.8-2.8,1.2-4.7,1.2c-3.1,0-5.6-1.1-7.5-3.2c-2-2.1-3-5-3-8.7
			c0-3.7,1-6.7,3.1-9c2.1-2.2,4.8-3.4,8.1-3.4c2.9,0,5.3,0.7,7.1,2.2c1.8,1.5,2.8,3.3,3.1,5.6H20.5z"/>
		<path class="st1" d="M33,30.1c0.1,0.8,0.3,1.4,0.6,1.7c0.6,0.6,1.6,0.9,3.1,0.9c0.9,0,1.6-0.1,2.1-0.4c0.5-0.3,0.8-0.7,0.8-1.2
			c0-0.5-0.2-0.9-0.6-1.1c-0.4-0.3-2-0.7-4.7-1.3c-1.9-0.5-3.3-1.1-4.1-1.8c-0.8-0.7-1.2-1.7-1.2-3.1c0-1.6,0.6-2.9,1.9-4.1
			c1.2-1.1,3-1.7,5.2-1.7c2.1,0,3.9,0.4,5.2,1.3c1.3,0.8,2.1,2.3,2.3,4.4h-4.5c-0.1-0.6-0.2-1-0.5-1.4c-0.5-0.6-1.3-0.9-2.5-0.9
			c-1,0-1.7,0.2-2.1,0.5c-0.4,0.3-0.6,0.7-0.6,1.1c0,0.5,0.2,0.9,0.7,1.1c0.4,0.2,2,0.7,4.6,1.2c1.8,0.4,3.1,1,4,1.9
			c0.9,0.9,1.3,1.9,1.3,3.2c0,1.7-0.6,3.1-1.9,4.1s-3.2,1.6-5.8,1.6c-2.7,0-4.7-0.6-5.9-1.7s-1.9-2.6-1.9-4.3H33z"/>
	</g>
</g>
</svg>
