<?xml version="1.0" encoding="UTF-8"?>
<svg width="48px" height="48px" viewBox="0 0 48 48" version="1.1" xmlns="http://www.w3.org/2000/svg" xmlns:xlink="http://www.w3.org/1999/xlink">
    <!-- Generator: Sketch 49.1 (51147) - http://www.bohemiancoding.com/sketch -->
    <title>gup</title>
    <desc>Created with Sketch.</desc>
    <defs></defs>
    <g id="48px" stroke="none" stroke-width="1" fill="none" fill-rule="evenodd">
        <g id="gup" fill-rule="nonzero">
            <circle id="Oval" fill="#37DCD8" cx="24" cy="24" r="24"></circle>
            <path d="M23.9844266,19.0177611 L19.8085656,14.8126565 C21.0622554,12.7741668 22.4632056,10.8313674 24.0000648,9 C25.5342899,10.8232256 26.9331993,12.7577029 28.1854577,14.7877564 L23.9844266,19.0177611 Z M32.5623819,23.2342659 C33.7416552,26.5365195 35.4702036,29.8389231 33.8223785,33.0111267 C32.769816,35.0145567 31.1430705,36.6526668 29.1536891,37.7124319 C23.7257252,40.5918351 17.0057436,38.4771327 14.1461769,33.0111267 C12.4822666,29.8389231 14.4208144,26.2764192 15.6000878,22.9740156 C16.6835955,20.5401129 17.7778266,18.2958103 19.0192062,16.1389579 L23.9844266,21.1389135 L28.9766045,16.111658 C30.2891753,18.3825105 31.4239169,20.7199631 32.5623819,23.2342659 Z" id="Shape" fill="#FFFFFF"></path>
        </g>
    </g>
</svg>