<?xml version="1.0" encoding="UTF-8"?>
<svg width="48px" height="48px" viewBox="0 0 48 48" version="1.1" xmlns="http://www.w3.org/2000/svg" xmlns:xlink="http://www.w3.org/1999/xlink">
    <!-- Generator: Sketch 49.1 (51147) - http://www.bohemiancoding.com/sketch -->
    <title>gxs</title>
    <desc>Created with Sketch.</desc>
    <defs></defs>
    <g id="48px" stroke="none" stroke-width="1" fill="none" fill-rule="evenodd">
        <g id="gxs" fill-rule="nonzero">
            <circle id="Oval" fill="#35A5F3" cx="24" cy="24" r="24"></circle>
            <path d="M10.5311445,10.5412233 C12.4347945,8.54982332 15.9137445,8.47077332 17.8820445,10.4057733 C19.9375445,12.4150733 21.9712445,14.4433233 23.9831445,16.4905233 C26.1257445,14.4550233 28.1288445,12.2840733 30.2801445,10.2572733 C32.3268945,8.40957331 35.8064445,8.63232332 37.6223445,10.7027733 C39.4862445,12.6553233 39.4556445,16.0624233 37.5221445,17.9581233 C35.5319445,19.9849233 33.5157945,21.9811233 31.5081945,23.9903733 C33.5592945,26.1044733 35.6975445,28.1356233 37.7312445,30.2753733 C39.5558445,32.2759233 39.3812445,35.6830233 37.4046945,37.5220233 C35.4581445,39.4870233 31.9698945,39.4919733 30.0276945,37.5176733 C28.0070445,35.5345233 26.0300445,33.5033733 24.0224445,31.5115233 C21.8798445,33.5732733 19.8374445,35.7353733 17.6730945,37.7753733 C15.5997945,39.6148233 12.1032945,39.3398733 10.3178445,37.2298233 C8.5197945,35.2819233 8.5628445,31.9621233 10.4397945,30.0748233 C12.1947945,28.2664233 13.9889445,26.4929733 15.7874445,24.7238733 C16.5408945,25.4752233 17.2941945,26.2309233 18.0476445,26.9821233 C16.2839445,28.8035733 14.4287445,30.5464233 12.6912945,32.3941233 C11.5197945,33.5953233 12.5519445,35.8318233 14.1980445,35.8055733 C15.1952445,35.8928733 15.8832945,35.0674233 16.5321945,34.4426733 C18.2523945,32.6911233 19.9985445,30.9700233 21.7187445,29.2184733 C17.9687445,25.4357733 14.1587445,21.7054233 10.4267445,17.9051733 C8.4801945,15.9439233 8.5410945,12.4451733 10.5317445,10.5401733 L10.5311445,10.5412233 Z M12.7091445,15.6251733 C14.6943945,17.6960733 16.7547945,19.6922733 18.7748445,21.7277733 C19.7503445,20.7405733 20.7316445,19.7592233 21.7187445,18.7837233 C19.7633445,16.8137733 17.8167945,14.8306233 15.8352945,12.8869233 C15.2037945,12.2054733 14.1237945,11.9521233 13.3002945,12.4414233 C12.1550445,12.9964233 11.7935445,14.6996733 12.7080945,15.6257733 L12.7091445,15.6251733 Z M32.1180945,12.9394233 C28.3904445,16.5994233 24.7367445,20.3389233 21.0264945,24.0167733 C22.0280445,24.9865233 23.0253945,25.9606233 24.0008445,26.9567733 C24.7499445,26.2186233 25.4945445,25.4717733 26.2391445,24.7246233 C26.9925945,25.4759733 27.7415445,26.2316733 28.4993445,26.9785233 C27.7634445,27.7298733 27.0230445,28.4723733 26.2740945,29.2150233 C28.2860445,31.2374733 30.2586945,33.2992233 32.3360445,35.2561233 C33.3899445,36.3661233 35.4366945,35.6929233 35.7410445,34.2296733 C36.0675945,33.1946733 35.3229945,32.2990233 34.6218945,31.6481733 C31.3165946,28.3589733 28.0185446,25.0625233 24.7277445,21.7588233 C25.4811445,21.0075232 26.2316445,20.2533233 26.9792445,19.4962233 C27.7281945,20.2432233 28.4772945,20.9900733 29.2442445,21.7238733 C31.2168945,19.6796733 33.3072945,17.7488733 35.2494945,15.6740733 C36.2292945,14.7218733 35.8373445,12.9004233 34.5875445,12.3848733 C33.7466445,11.9521233 32.7231945,12.2578233 32.1179445,12.9392733 L32.1180945,12.9394233 Z" id="Shape" fill="#FFFFFF"></path>
        </g>
    </g>
</svg>