<?xml version="1.0" encoding="UTF-8"?>
<svg width="48px" height="48px" viewBox="0 0 48 48" version="1.1" xmlns="http://www.w3.org/2000/svg" xmlns:xlink="http://www.w3.org/1999/xlink">
    <!-- Generator: Sketch 49.1 (51147) - http://www.bohemiancoding.com/sketch -->
    <title>hsr</title>
    <desc>Created with Sketch.</desc>
    <defs></defs>
    <g id="48px" stroke="none" stroke-width="1" fill="none" fill-rule="evenodd">
        <g id="hsr" fill-rule="nonzero">
            <circle id="Oval" fill="#56428E" cx="24" cy="24" r="24"></circle>
            <path d="M16.1240981,11.25 L22.6554907,11.25 C21.8700868,12.4951172 21.3879544,13.8700586 21.4179846,15.3600489 C23.3615293,15.3799707 25.3100241,15.3799707 27.2535687,15.3600489 C27.2784839,13.8800195 26.8808319,12.4650684 26.0307477,11.25 L32.6068555,11.25 C32.1545883,12.1999414 31.3840344,13.0799902 31.4586148,14.1949512 C31.4287497,19.1799024 31.4685149,24.17 31.4536647,29.1549511 C32.099808,29.1549511 32.7510663,29.1549511 33.4021594,29.1599316 C33.8793419,28.2149708 34.3019089,27.250752 34.6396658,26.2500098 C36.5931105,26.2998144 38.5566203,26.1950586 40.5,26.4550391 C38.5764204,28.1151953 37.5722253,30.4751075 36.3197041,32.6250098 C31.3490542,32.6349706 26.3784044,32.6100684 21.4028044,32.6399511 C21.1691634,34.455 22.2875389,35.7049317 23.5849404,36.75 L15.1890384,36.75 C15.9196622,35.7849511 17.3909745,35.1650489 17.2370288,33.7499316 C17.2865289,28.9300001 17.2370288,24.1044238 17.2518787,19.2800097 L21.5122001,19.2800097 L21.5122001,22.2500293 L27.1638083,22.2500293 L27.1638083,18.8450489 L15.3634443,18.8450489 C14.3844394,20.5650815 13.4068645,22.2833985 12.4307197,24 C13.4049945,25.7200326 14.3839994,27.4383497 15.3677343,29.1549511 L16.8197417,29.1549511 L16.8197417,32.6246778 L12.3812194,32.6246778 C10.7607463,29.7449708 9.08070791,26.899961 7.5,24 L7.5,23.9950196 C9.08565794,21.100039 10.7706463,18.2550292 12.3812194,15.3749902 C14.0365077,15.3749902 15.691631,15.3749902 17.3469192,15.3600489 C17.3568194,13.885 16.9542172,12.4750293 16.1240981,11.25 Z M21.512365,25.7499706 L21.512365,29.1549511 L27.1639733,29.1549511 L27.1639733,25.7499706 L21.512365,25.7499706 Z M31.885967,15.3749902 L36.309144,15.3749902 C37.5220651,17.3250097 38.3571344,19.5751856 40.106803,21.1357324 C40.1416182,21.2507812 40.2058035,21.4856934 40.2409486,21.6005761 C38.3719843,21.8456152 36.4789299,21.6555273 34.5942905,21.7499902 C34.3556993,20.7100683 33.8834668,19.7549805 33.3615693,18.8400684 C32.9888325,18.8400684 32.2530938,18.8450489 31.885307,18.8450489 L31.885967,15.3749902 Z M27.3179191,33.0599707 C28.6252206,33.0649512 29.9374722,33.0599707 31.2449387,33.0549903 C31.2150737,34.7249414 32.3834443,35.7600489 33.5315202,36.75 L25.0762179,36.75 C26.1597783,35.7207031 27.4273146,34.7450293 27.3179191,33.0599707 Z" id="Shape" fill="#FFFFFF"></path>
        </g>
    </g>
</svg>