<?xml version="1.0" encoding="UTF-8"?>
<svg width="48px" height="48px" viewBox="0 0 48 48" version="1.1" xmlns="http://www.w3.org/2000/svg" xmlns:xlink="http://www.w3.org/1999/xlink">
    <!-- Generator: Sketch 49.1 (51147) - http://www.bohemiancoding.com/sketch -->
    <title>hush</title>
    <desc>Created with Sketch.</desc>
    <defs></defs>
    <g id="48px" stroke="none" stroke-width="1" fill="none" fill-rule="evenodd">
        <g id="hush" fill-rule="nonzero">
            <circle id="Oval" fill="#292929" cx="24" cy="24" r="24"></circle>
            <path d="M22.5103716,27.9855204 C22.5103716,27.2966022 22.513374,26.607633 22.5084201,25.9188171 C22.507069,25.7271727 22.5628624,25.5802335 22.741351,25.5019614 C22.9054285,25.4299222 23.0791636,25.4804518 23.2231254,25.6484919 C23.652459,26.1496996 24.0785401,26.6538198 24.5058222,27.1568158 C24.6556386,27.3331837 24.8077066,27.5076613 24.9529696,27.6878101 C24.9851446,27.7276614 25.0093633,27.7877962 25.0096135,27.8386833 C25.0131663,28.565869 25.0140171,29.2930546 25.011415,30.0202404 C25.0090131,30.6959259 24.5033703,31.2533854 23.854416,31.301667 C23.2017588,31.3503061 22.6263117,30.8812858 22.5222309,30.2123445 C22.5093708,30.1297806 22.510972,30.0444577 22.5108219,29.9603611 C22.5100213,29.3020978 22.5103716,28.6438347 22.5103716,27.9855204 Z M22.5149251,14.4710966 C22.5134239,14.4416168 22.5105719,14.4121881 22.5105719,14.3827082 C22.5103716,13.0164187 22.5087204,11.650078 22.5112724,10.2837884 C22.5124232,9.65311462 22.9434081,9.12288676 23.5288631,9.01993734 C24.2971601,8.88474916 24.9948021,9.45263148 25.0030085,10.2511409 C25.0174197,11.6478811 25.0102142,13.0448256 25.0118153,14.4416679 C25.0118654,14.4551049 25.0095135,14.4685931 25.0053102,14.5142178 C24.7138338,14.0155134 24.311321,13.7675663 23.7627948,13.7687414 C23.2194227,13.7699165 22.8144579,14.0076964 22.5149252,14.4710966 Z M22.5103716,33.3896244 C22.8163595,33.8550681 23.2249269,34.092286 23.7724523,34.0906 C24.3172756,34.0889652 24.7150848,33.8399961 25.0120655,33.3777711 L25.0120655,33.4855743 C25.0120655,34.6069821 25.0133165,35.7283389 25.0112649,36.8496957 C25.0106144,37.1900164 25.0212227,37.5322785 24.990849,37.8703 C24.930402,38.5414894 24.3546548,39.0278808 23.6863854,38.9987586 C23.0477391,38.9708627 22.515926,38.4152934 22.5127736,37.7501838 C22.5063686,36.4106662 22.5105218,35.0711997 22.5103716,33.7316821 C22.5103716,33.6176459 22.5103716,33.5036607 22.5103716,33.3896244 Z M25.0120655,20.1511458 C25.0120655,20.9816386 25.0121156,21.8120802 25.0120655,22.642573 C25.0120155,22.8793311 24.9367571,23.0088481 24.7579181,23.0808361 C24.5665193,23.157831 24.362811,23.1069949 24.2182988,22.9388017 C23.8549664,22.5159682 23.4937857,22.0911421 23.1317045,21.6671847 C22.944509,21.448002 22.7552118,21.2306587 22.5717194,21.0082573 C22.5389939,20.9685081 22.5130737,20.9082201 22.5129236,20.8573329 C22.5096711,19.7857903 22.5067688,18.7141456 22.512123,17.6426031 C22.5154256,16.9751944 22.9945979,16.4565643 23.6617163,16.3806423 C24.2536763,16.3132527 24.8419833,16.7549388 24.9793401,17.3755476 C25.0022079,17.479008 25.0103142,17.5877818 25.0106645,17.6941543 C25.0131663,18.5131515 25.0120655,19.3321486 25.0120655,20.1511458 Z M27.6096339,15.0861874 C27.609734,13.9760197 27.6082829,12.8658008 27.6102344,11.7556331 C27.6113352,11.1518334 27.9555027,10.6611504 28.4893676,10.4920886 C29.3003978,10.2352515 30.108926,10.8482476 30.1139298,11.7298319 C30.1186335,12.560529 30.1150307,13.3912772 30.1150307,14.2219743 C30.1150307,15.6192765 30.1160315,17.0165785 30.1144803,18.4138808 C30.1138799,19.0333143 29.7417407,19.5341646 29.1740996,19.6882566 C28.4341746,19.8890975 27.679188,19.3450238 27.6176402,18.5657247 C27.6116355,18.4895472 27.6100343,18.4128078 27.6099842,18.3363237 C27.6094838,17.252928 27.6096339,16.1695322 27.6096339,15.0861874 Z M20.0423039,31.1390937 C20.0426042,32.4212866 20.0440052,33.7035306 20.0419536,34.9857747 C20.0409528,35.6241633 19.6172235,36.1386549 19.0028462,36.2566764 C18.2826366,36.3949812 17.5655793,35.8090125 17.5436624,35.0609304 C17.5373574,34.8468057 17.5417608,34.6323236 17.5417608,34.4179436 C17.5417109,32.0410635 17.5410603,29.6641325 17.5422612,27.2872526 C17.5425615,26.6901459 17.9270102,26.1846974 18.4840431,26.0396486 C19.266401,25.8358956 20.0372,26.4333599 20.0408027,27.2579261 C20.0465072,28.5516146 20.0423039,29.8453541 20.0423039,31.1390937 Z M20.0426541,16.9691656 C20.0426042,18.7186927 20.0436048,20.4682198 20.0420036,22.2176959 C20.0415033,22.836261 19.6435941,23.3424247 19.0591899,23.4777151 C18.2998499,23.653521 17.5503675,23.0568231 17.5435122,22.2619923 C17.5369571,21.5040495 17.5417608,20.7460045 17.5417109,19.9880106 C17.5417109,17.2354547 17.5412105,14.4829498 17.5421612,11.730445 C17.5423613,11.1116244 17.943473,10.5963153 18.5202713,10.4659808 C19.2970748,10.2904814 20.0379504,10.8850846 20.0410529,11.6976442 C20.0461068,13.0451832 20.0425541,14.3927733 20.0426541,15.7403123 L20.0426541,16.9691656 Z M27.6096339,29.2480431 C27.609684,27.3492777 27.6096339,25.4505633 27.609734,23.5517978 C27.609734,22.983609 27.8520222,22.5601113 28.3594665,22.3245282 C29.1714975,21.9475751 30.0833061,22.5483603 30.1142301,23.4684165 C30.1151808,23.4951883 30.1149807,23.5220115 30.1149807,23.5487834 C30.1149807,27.3462633 30.1152309,31.1437431 30.1147305,34.9412741 C30.1146804,35.5684736 29.7554513,36.066667 29.1905624,36.2284229 C28.448786,36.4407591 27.6807893,35.898014 27.6181406,35.1161603 C27.6116855,35.036202 27.6100343,34.9556307 27.6099842,34.8753659 C27.6095339,32.9995917 27.6096339,31.1238174 27.6096339,29.2480431 Z M35.2496705,23.4493082 C35.2496705,26.4195651 35.2500207,29.3897711 35.2493703,32.3600279 C35.2492701,32.9931542 34.8429044,33.5067773 34.2434886,33.6373671 C33.505115,33.7982544 32.770494,33.2090159 32.749728,32.4390665 C32.7486771,32.4007989 32.748627,32.3625314 32.748627,32.3242638 C32.748627,26.4029093 32.7485269,20.4815547 32.7487272,14.5602002 C32.7487272,13.9831725 33.0385524,13.5223269 33.5280327,13.3182163 C34.3528236,12.9743192 35.2485195,13.594928 35.24907,14.5156484 C35.2507214,17.493518 35.2496704,20.4714387 35.2496704,23.4493082 Z M15.2511309,23.4360244 C15.251081,26.4104197 15.2515313,29.384815 15.2507307,32.3592105 C15.2505305,32.9899353 14.8615282,33.4945152 14.2726707,33.6348636 C13.5214369,33.8139906 12.7710539,33.223117 12.750688,32.4363586 C12.7500375,32.4095866 12.7500375,32.3827636 12.7500375,32.3559916 C12.7500375,26.4149158 12.7498874,20.4737889 12.7501877,14.5326619 C12.7502377,13.9187972 13.1171228,13.4202972 13.6807607,13.2640082 C14.4564635,13.048964 15.2420739,13.6454575 15.248679,14.4669582 C15.2566853,15.4507256 15.2510309,16.4345439 15.251081,17.4183624 C15.251181,19.4242666 15.2511309,21.43012 15.2511309,23.4360244 Z" id="Shape" fill="#FFFFFF"></path>
        </g>
    </g>
</svg>