<?xml version="1.0" encoding="UTF-8"?>
<svg width="48px" height="48px" viewBox="0 0 48 48" version="1.1" xmlns="http://www.w3.org/2000/svg" xmlns:xlink="http://www.w3.org/1999/xlink">
    <!-- Generator: Sketch 49.1 (51147) - http://www.bohemiancoding.com/sketch -->
    <title>icx</title>
    <desc>Created with Sketch.</desc>
    <defs></defs>
    <g id="48px" stroke="none" stroke-width="1" fill="none" fill-rule="evenodd">
        <g id="icx" fill-rule="nonzero">
            <circle id="Oval" fill="#1FC5C9" cx="24" cy="24" r="24"></circle>
            <path d="M16.9441589,33.7074916 L20.1900612,30.4615892 C21.3066486,31.1213824 22.6091088,31.5 24,31.5 C28.1421356,31.5 31.5,28.1421356 31.5,24 C31.5,22.6091088 31.1213824,21.3066486 30.4615892,20.1900612 L33.7074916,16.9441589 C35.1493566,18.9244796 36,21.3629005 36,24 C36,30.627417 30.627417,36 24,36 C21.3629005,36 18.9244796,35.1493566 16.9441589,33.7074916 Z M14.2925084,31.0558411 C12.8506434,29.0755204 12,26.6370995 12,24 C12,17.372583 17.372583,12 24,12 C26.6370995,12 29.0755205,12.8506434 31.0558411,14.2925084 L27.8099388,17.5384108 C26.6933514,16.8786176 25.3908912,16.5 24,16.5 C19.8578644,16.5 16.5,19.8578645 16.5,24 C16.5,25.3908912 16.8786175,26.6933514 17.5384108,27.8099388 L14.2925084,31.0558411 Z M36,15 C34.3431457,15 33,13.6568543 33,12 C33,10.3431457 34.3431457,9 36,9 C37.6568543,9 39,10.3431457 39,12 C39,13.6568543 37.6568543,15 36,15 Z M12,39 C10.3431457,39 9,37.6568543 9,36 C9,34.3431457 10.3431457,33 12,33 C13.6568543,33 15,34.3431457 15,36 C15,37.6568543 13.6568543,39 12,39 Z" id="Shape" fill="#FFFFFF"></path>
        </g>
    </g>
</svg>