<?xml version="1.0" encoding="UTF-8"?>
<svg width="48px" height="48px" viewBox="0 0 48 48" version="1.1" xmlns="http://www.w3.org/2000/svg" xmlns:xlink="http://www.w3.org/1999/xlink">
    <!-- Generator: Sketch 49.1 (51147) - http://www.bohemiancoding.com/sketch -->
    <title>ins</title>
    <desc>Created with Sketch.</desc>
    <defs></defs>
    <g id="48px" stroke="none" stroke-width="1" fill="none" fill-rule="evenodd">
        <g id="ins" fill-rule="nonzero">
            <circle id="Oval" fill="#B2A3F6" cx="24" cy="24" r="24"></circle>
            <g id="Group" transform="translate(7.500000, 7.500000)" fill="#FFFFFF">
                <path d="M12.6683333,10.9306849 C11.529246,10.9306849 10.6058333,10.0290294 10.6058333,8.91678083 C10.6058333,7.8045323 11.529246,6.90287672 12.6683333,6.90287672 C13.8074206,6.90287672 14.7308333,7.8045323 14.7308333,8.91678083 C14.7308333,10.0290294 13.8074206,10.9306849 12.6683333,10.9306849 Z M18.5602083,8.62972602 C17.4211211,8.62972602 16.4977083,7.72807044 16.4977083,6.61582192 C16.4977083,5.50357339 17.4211211,4.60191781 18.5602083,4.60191781 C19.6992957,4.60191781 20.6227083,5.50357339 20.6227083,6.61582192 C20.6227083,7.72807044 19.6992957,8.62972602 18.5602083,8.62972602 Z M20.9183334,22.4377398 C19.779246,22.4377398 18.8558334,21.5360841 18.8558334,20.4238356 C18.8558334,19.3115871 19.779246,18.4099315 20.9183334,18.4099315 C22.0574207,18.4099315 22.9808334,19.3115871 22.9808334,20.4238356 C22.9808334,21.5360841 22.0574207,22.4377398 20.9183334,22.4377398 Z M1.17791667,19.560411 C0.52737126,19.560411 1.22124533e-15,19.0453237 1.22124533e-15,18.4099315 C1.22124533e-15,17.7745392 0.52737126,17.2594521 1.17791667,17.2594521 C1.82846208,17.2594521 2.35583334,17.7745392 2.35583334,18.4099315 C2.35583334,19.0453237 1.82846208,19.560411 1.17791667,19.560411 Z M4.41833334,27.0419178 C3.92979146,27.0419178 3.53375,26.6553493 3.53375,26.1784932 C3.53375,25.7016369 3.92979146,25.3150684 4.41833334,25.3150684 C4.90687523,25.3150684 5.30291667,25.7016369 5.30291667,26.1784932 C5.30291667,26.6553493 4.90687523,27.0419178 4.41833334,27.0419178 Z M13.84625,32.794315 C13.3577081,32.794315 12.9616667,32.4077467 12.9616667,31.9308904 C12.9616667,31.4540341 13.3577081,31.0674657 13.84625,31.0674657 C14.3347919,31.0674657 14.7308333,31.4540341 14.7308333,31.9308904 C14.7308333,32.4077467 14.3347919,32.794315 13.84625,32.794315 Z M29.1683334,27.6160273 C28.6797915,27.6160273 28.28375,27.229459 28.28375,26.7526027 C28.28375,26.2757464 28.6797915,25.8891781 29.1683334,25.8891781 C29.6568752,25.8891781 30.0529167,26.2757464 30.0529167,26.7526027 C30.0529167,27.229459 29.6568752,27.6160273 29.1683334,27.6160273 Z M19.7404167,25.8914383 C19.2518748,25.8914383 18.8558334,25.5048699 18.8558334,25.0280137 C18.8558334,24.5511574 19.2518748,24.164589 19.7404167,24.164589 C20.2289586,24.164589 20.625,24.5511574 20.625,25.0280137 C20.625,25.5048699 20.2289586,25.8914383 19.7404167,25.8914383 Z M25.0433334,21.8636301 C24.5547915,21.8636301 24.15875,21.4770618 24.15875,21.0002055 C24.15875,20.5233492 24.5547915,20.1367807 25.0433334,20.1367807 C25.5318752,20.1367807 25.9279167,20.5233492 25.9279167,21.0002055 C25.9279167,21.4770618 25.5318752,21.8636301 25.0433334,21.8636301 Z M18.8558334,32.7943151 C18.2052879,32.7943151 17.6779167,32.2792278 17.6779167,31.6438356 C17.6779167,31.0084434 18.2052879,30.4933561 18.8558334,30.4933561 C19.5063787,30.4933561 20.03375,31.0084434 20.03375,31.6438356 C20.03375,32.2792278 19.5063787,32.7943151 18.8558334,32.7943151 Z M24.15875,18.4099315 C23.5082046,18.4099315 22.9808334,17.8948443 22.9808334,17.2594521 C22.9808334,16.6240597 23.5082046,16.1089726 24.15875,16.1089726 C24.8092955,16.1089726 25.3366667,16.6240597 25.3366667,17.2594521 C25.3366667,17.8948443 24.8092955,18.4099315 24.15875,18.4099315 Z M25.9279167,29.9169862 C25.2773712,29.9169862 24.75,29.4018991 24.75,28.7665068 C24.75,28.1311146 25.2773712,27.6160273 25.9279167,27.6160273 C26.5784621,27.6160273 27.1058334,28.1311146 27.1058334,28.7665068 C27.1058334,29.4018991 26.5784621,29.9169862 25.9279167,29.9169862 Z M2.64916666,24.164589 C1.83535207,24.164589 1.175625,23.5209831 1.175625,22.7270548 C1.175625,21.9331266 1.83535207,21.2895205 2.64916666,21.2895205 C3.46298125,21.2895205 4.12270833,21.9331266 4.12270833,22.7270548 C4.12270833,23.5209831 3.46298125,24.164589 2.64916666,24.164589 Z M16.7933334,29.9169862 C15.654246,29.9169862 14.7308333,29.0153307 14.7308333,27.9030822 C14.7308333,26.7908337 15.654246,25.8891781 16.7933334,25.8891781 C17.9324206,25.8891781 18.8558334,26.7908337 18.8558334,27.9030822 C18.8558334,29.0153307 17.9324206,29.9169862 16.7933334,29.9169862 Z M5.59624999,20.1367807 C4.4571627,20.1367807 3.53374999,19.2351252 3.53374999,18.1228767 C3.53374999,17.0106282 4.4571627,16.1089726 5.59624999,16.1089726 C6.73533729,16.1089726 7.65874999,17.0106282 7.65874999,18.1228767 C7.65874999,19.2351252 6.73533729,20.1367807 5.59624999,20.1367807 Z M16.7933334,24.7386987 C15.9795187,24.7386987 15.3197916,24.0950927 15.3197916,23.3011644 C15.3197916,22.5072361 15.9795187,21.8636301 16.7933334,21.8636301 C17.6071479,21.8636301 18.266875,22.5072361 18.266875,23.3011644 C18.266875,24.0950927 17.6071479,24.7386987 16.7933334,24.7386987 Z M9.72125,12.0834247 C9.23270811,12.0834247 8.83666667,11.6968563 8.83666667,11.22 C8.83666667,10.7431437 9.23270811,10.3565753 9.72125,10.3565753 C10.2097919,10.3565753 10.6058333,10.7431437 10.6058333,11.22 C10.6058333,11.6968563 10.2097919,12.0834247 9.72125,12.0834247 Z M15.3197916,15.5348629 C14.3439735,15.5348629 13.5529167,14.7617262 13.5529167,13.8080137 C13.5529167,12.8543011 14.3439735,12.0811644 15.3197916,12.0811644 C16.2956098,12.0811644 17.0866666,12.8543011 17.0866666,13.8080137 C17.0866666,14.7617262 16.2956098,15.5348629 15.3197916,15.5348629 Z M19.4447916,17.2594521 C18.7942463,17.2594521 18.266875,16.7443649 18.266875,16.1089726 C18.266875,15.4735803 18.7942463,14.9584932 19.4447916,14.9584932 C20.0953371,14.9584932 20.6227083,15.4735803 20.6227083,16.1089726 C20.6227083,16.7443649 20.0953371,17.2594521 19.4447916,17.2594521 Z M21.5072916,2.87732877 C21.0187498,2.87732877 20.6227083,2.49076038 20.6227083,2.01390411 C20.6227083,1.53704784 21.0187498,1.15047945 21.5072916,1.15047945 C21.9958335,1.15047945 22.3918751,1.53704784 22.3918751,2.01390411 C22.3918751,2.49076038 21.9958335,2.87732877 21.5072916,2.87732877 Z M17.3822916,2.87506849 C16.5684771,2.87506849 15.9087499,2.23146249 15.9087499,1.43753424 C15.9087499,0.643606005 16.5684771,-2.22044605e-15 17.3822916,-2.22044605e-15 C18.1961062,-2.22044605e-15 18.8558334,0.643606005 18.8558334,1.43753424 C18.8558334,2.23146249 18.1961062,2.87506849 17.3822916,2.87506849 Z M18.266875,12.0811644 C17.6163295,12.0811644 17.0889583,11.5660772 17.0889583,10.9306849 C17.0889583,10.2952927 17.6163295,9.78020548 18.266875,9.78020548 C18.9174204,9.78020548 19.4447916,10.2952927 19.4447916,10.9306849 C19.4447916,11.5660772 18.9174204,12.0811644 18.266875,12.0811644 Z M7.06979166,24.7409589 C6.09397354,24.7409589 5.30291667,23.9678221 5.30291667,23.0141095 C5.30291667,22.0603971 6.09397354,21.2872602 7.06979166,21.2872602 C8.04560979,21.2872602 8.83666666,22.0603971 8.83666666,23.0141095 C8.83666666,23.9678221 8.04560979,24.7409589 7.06979166,24.7409589 Z M24.15875,26.4655479 C23.1829319,26.4655479 22.3918751,25.6924111 22.3918751,24.7386987 C22.3918751,23.7849861 23.1829319,23.0118493 24.15875,23.0118493 C25.1345681,23.0118493 25.925625,23.7849861 25.925625,24.7386987 C25.925625,25.6924111 25.1345681,26.4655479 24.15875,26.4655479 Z M21.8029167,30.4933561 C20.8270986,30.4933561 20.0360416,29.7202194 20.0360416,28.7665068 C20.0360416,27.8127943 20.8270986,27.0396576 21.8029167,27.0396576 C22.7787348,27.0396576 23.5697916,27.8127943 23.5697916,28.7665068 C23.5697916,29.7202194 22.7787348,30.4933561 21.8029167,30.4933561 Z M7.95437501,30.4933562 C6.81528771,30.4933562 5.89187501,29.5917006 5.89187501,28.4794521 C5.89187501,27.3672036 6.81528771,26.4655479 7.95437501,26.4655479 C9.0934623,26.4655479 10.016875,27.3672036 10.016875,28.4794521 C10.016875,29.5917006 9.0934623,30.4933562 7.95437501,30.4933562 Z M1.76687501,15.534863 C0.79105689,15.534863 1.88737914e-15,14.7617262 1.88737914e-15,13.8080137 C1.88737914e-15,12.8543012 0.79105689,12.0811644 1.76687501,12.0811644 C2.74269312,12.0811644 3.53375,12.8543012 3.53375,13.8080137 C3.53375,14.7617262 2.74269312,15.534863 1.76687501,15.534863 Z" id="Shape"></path>
                <path d="M10.6058333,18.4099315 C9.30347687,18.4099315 8.24770833,17.379757 8.24770833,16.1089726 C8.24770833,14.8381881 9.30347687,13.8080137 10.6058333,13.8080137 C11.9081898,13.8080137 12.9639583,14.8381881 12.9639583,16.1089726 C12.9639583,17.379757 11.9081898,18.4099315 10.6058333,18.4099315 Z M22.9808334,14.9584932 C21.6784769,14.9584932 20.6227083,13.9283188 20.6227083,12.6575342 C20.6227083,11.3867497 21.6784769,10.3565753 22.9808334,10.3565753 C24.2831898,10.3565753 25.3389584,11.3867497 25.3389584,12.6575342 C25.3389584,13.9283188 24.2831898,14.9584932 22.9808334,14.9584932 Z M29.4616667,24.7409589 C28.4858486,24.7409589 27.6947916,23.9678221 27.6947916,23.0141095 C27.6947916,22.0603971 28.4858486,21.2872602 29.4616667,21.2872602 C30.4374848,21.2872602 31.2285417,22.0603971 31.2285417,23.0141095 C31.2285417,23.9678221 30.4374848,24.7409589 29.4616667,24.7409589 Z M31.2308334,17.8358218 C30.2550152,17.8358218 29.4639584,17.0626851 29.4639584,16.1089726 C29.4639584,15.15526 30.2550152,14.3821233 31.2308334,14.3821233 C32.2066515,14.3821233 32.9977083,15.15526 32.9977083,16.1089726 C32.9977083,17.0626851 32.2066515,17.8358218 31.2308334,17.8358218 Z M24.4543751,9.78020548 C23.6405604,9.78020548 22.9808334,9.13659948 22.9808334,8.34267123 C22.9808334,7.54874299 23.6405604,6.90513699 24.4543751,6.90513699 C25.2681895,6.90513699 25.9279167,7.54874299 25.9279167,8.34267123 C25.9279167,9.13659948 25.2681895,9.78020548 24.4543751,9.78020548 Z M24.7477083,5.17828767 C24.097163,5.17828767 23.5697916,4.66320048 23.5697916,4.02780822 C23.5697916,3.39241596 24.097163,2.87732877 24.7477083,2.87732877 C25.3982538,2.87732877 25.925625,3.39241596 25.925625,4.02780822 C25.925625,4.66320048 25.3982538,5.17828767 24.7477083,5.17828767 Z M27.3991667,6.32876712 C26.9106248,6.32876712 26.5145834,5.94219873 26.5145834,5.46534246 C26.5145834,4.98848619 26.9106248,4.60191781 27.3991667,4.60191781 C27.8877086,4.60191781 28.28375,4.98848619 28.28375,5.46534246 C28.28375,5.94219873 27.8877086,6.32876712 27.3991667,6.32876712 Z M32.1154167,13.2339041 C31.6268748,13.2339041 31.2308334,12.8473357 31.2308334,12.3704794 C31.2308334,11.8936232 31.6268748,11.5070548 32.1154167,11.5070548 C32.6039586,11.5070548 33,11.8936232 33,12.3704794 C33,12.8473357 32.6039586,13.2339041 32.1154167,13.2339041 Z M6.77416667,5.75465754 C6.28562478,5.75465754 5.88958334,5.36808915 5.88958334,4.89123288 C5.88958334,4.41437661 6.28562478,4.02780822 6.77416667,4.02780822 C7.26270855,4.02780822 7.65875,4.41437661 7.65875,4.89123288 C7.65875,5.36808915 7.26270855,5.75465754 6.77416667,5.75465754 Z M5.59625,13.2339041 C5.10770811,13.2339041 4.71166667,12.8473357 4.71166667,12.3704794 C4.71166667,11.8936232 5.10770811,11.5070548 5.59625,11.5070548 C6.08479188,11.5070548 6.48083334,11.8936232 6.48083334,12.3704794 C6.48083334,12.8473357 6.08479188,13.2339041 5.59625,13.2339041 Z M7.95437501,14.3843836 C7.46583312,14.3843836 7.06979166,13.9978152 7.06979166,13.5209589 C7.06979166,13.0441026 7.46583312,12.6575342 7.95437501,12.6575342 C8.44291689,12.6575342 8.83895833,13.0441026 8.83895833,13.5209589 C8.83895833,13.9978152 8.44291689,14.3843836 7.95437501,14.3843836 Z M10.8991667,3.45143835 C10.4106248,3.45143835 10.0145833,3.06486997 10.0145833,2.5880137 C10.0145833,2.11115743 10.4106248,1.72458904 10.8991667,1.72458904 C11.3877086,1.72458904 11.78375,2.11115743 11.78375,2.5880137 C11.78375,3.06486997 11.3877086,3.45143835 10.8991667,3.45143835 Z M32.1154167,20.7131506 C31.6268748,20.7131506 31.2308334,20.3265823 31.2308334,19.849726 C31.2308334,19.3728697 31.6268748,18.9863013 32.1154167,18.9863013 C32.6039586,18.9863013 33,19.3728697 33,19.849726 C33,20.3265823 32.6039586,20.7131506 32.1154167,20.7131506 Z M29.1683334,11.5070548 C28.029246,11.5070548 27.1058334,10.6053992 27.1058334,9.49315068 C27.1058334,8.38090216 28.029246,7.47924657 29.1683334,7.47924657 C30.3074207,7.47924657 31.2308334,8.38090216 31.2308334,9.49315068 C31.2308334,10.6053992 30.3074207,11.5070548 29.1683334,11.5070548 Z M27.3991666,16.1089726 C26.5853522,16.1089726 25.925625,15.4653666 25.925625,14.6714383 C25.925625,13.8775101 26.5853522,13.2339041 27.3991666,13.2339041 C28.2129813,13.2339041 28.8727083,13.8775101 28.8727083,14.6714383 C28.8727083,15.4653666 28.2129813,16.1089726 27.3991666,16.1089726 Z M7.36541667,9.78020548 C6.55160208,9.78020548 5.89187501,9.13659948 5.89187501,8.34267123 C5.89187501,7.54874299 6.55160208,6.90513699 7.36541667,6.90513699 C8.17923126,6.90513699 8.83895834,7.54874299 8.83895834,8.34267123 C8.83895834,9.13659948 8.17923126,9.78020548 7.36541667,9.78020548 Z M13.84625,5.75239726 C13.0324354,5.75239726 12.3727083,5.10879126 12.3727083,4.31486301 C12.3727083,3.52093477 13.0324354,2.87732877 13.84625,2.87732877 C14.6600646,2.87732877 15.3197916,3.52093477 15.3197916,4.31486301 C15.3197916,5.10879126 14.6600646,5.75239726 13.84625,5.75239726 Z M10.016875,6.32876712 C9.3663296,6.32876712 8.83895834,5.81367993 8.83895834,5.17828767 C8.83895834,4.54289541 9.3663296,4.02780822 10.016875,4.02780822 C10.6674204,4.02780822 11.1947917,4.54289541 11.1947917,5.17828767 C11.1947917,5.81367993 10.6674204,6.32876712 10.016875,6.32876712 Z M3.53375,10.9306849 C2.88320459,10.9306849 2.35583334,10.4155977 2.35583334,9.78020548 C2.35583334,9.14481322 2.88320459,8.62972602 3.53375,8.62972602 C4.18429541,8.62972602 4.71166667,9.14481322 4.71166667,9.78020548 C4.71166667,10.4155977 4.18429541,10.9306849 3.53375,10.9306849 Z M28.28375,20.1367807 C27.6332046,20.1367807 27.1058334,19.6216936 27.1058334,18.9863013 C27.1058334,18.3509091 27.6332046,17.8358218 28.28375,17.8358218 C28.9342955,17.8358218 29.4616667,18.3509091 29.4616667,18.9863013 C29.4616667,19.6216936 28.9342955,20.1367807 28.28375,20.1367807 Z M15.6154167,20.7131506 C14.4763294,20.7131506 13.5529167,19.8114951 13.5529167,18.6992466 C13.5529167,17.5869981 14.4763294,16.6853424 15.6154167,16.6853424 C16.754504,16.6853424 17.6779167,17.5869981 17.6779167,18.6992466 C17.6779167,19.8114951 16.754504,20.7131506 15.6154167,20.7131506 Z M11.78375,21.8636301 C11.1332046,21.8636301 10.6058333,21.348543 10.6058333,20.7131506 C10.6058333,20.0777584 11.1332046,19.5626712 11.78375,19.5626712 C12.4342954,19.5626712 12.9616667,20.0777584 12.9616667,20.7131506 C12.9616667,21.348543 12.4342954,21.8636301 11.78375,21.8636301 Z M12.3727083,26.4655479 C11.3968902,26.4655479 10.6058333,25.6924111 10.6058333,24.7386987 C10.6058333,23.7849861 11.3968902,23.0118493 12.3727083,23.0118493 C13.3485264,23.0118493 14.1395833,23.7849861 14.1395833,24.7386987 C14.1395833,25.6924111 13.3485264,26.4655479 12.3727083,26.4655479 Z M12.3727083,29.9169862 C11.7221629,29.9169862 11.1947917,29.4018991 11.1947917,28.7665068 C11.1947917,28.1311146 11.7221629,27.6160273 12.3727083,27.6160273 C13.0232537,27.6160273 13.550625,28.1311146 13.550625,28.7665068 C13.550625,29.4018991 13.0232537,29.9169862 12.3727083,29.9169862 Z" id="Shape" opacity="0.5"></path>
            </g>
        </g>
    </g>
</svg>