<?xml version="1.0" encoding="UTF-8"?>
<svg width="48px" height="48px" viewBox="0 0 48 48" version="1.1" xmlns="http://www.w3.org/2000/svg" xmlns:xlink="http://www.w3.org/1999/xlink">
    <!-- Generator: Sketch 49.1 (51147) - http://www.bohemiancoding.com/sketch -->
    <title>iost</title>
    <desc>Created with Sketch.</desc>
    <defs></defs>
    <g id="48px" stroke="none" stroke-width="1" fill="none" fill-rule="evenodd">
        <g id="iost" fill-rule="nonzero">
            <circle id="Oval" fill="#1C1C1C" cx="24" cy="24" r="24"></circle>
            <path d="M36.75,16.5 L36.75,31.5 L24,39 L11.25,31.5 L11.25,16.5 L24,9 L36.75,16.5 Z M23.5973442,24.6111017 L22.4122706,25.3111001 L24.6272721,26.604303 L25.8040511,25.9092041 L28.9524465,27.7612578 L24.256122,30.5231699 L14.5132883,24.8434686 L14.47419,27.6071126 L24.262355,33.2931645 L33.666337,27.7612578 L28.1564776,24.5196745 L29.2669326,23.8637518 L27.0519311,22.5705489 L25.9499034,23.2214937 L24.403657,22.3117995 L25.7571552,21.5123162 L23.5427203,20.2191132 L22.1973668,21.0137858 L19.5660304,19.465707 L24.2617884,16.7037949 L30.7532333,20.4973829 L33.1314275,19.0904472 L24.2566885,13.9338003 L14.85044,19.465707 L19.8445816,22.4035269 L18.9030598,22.9596644 L21.1174948,24.2528673 L22.0510047,23.7014623 L23.5973442,24.6111017 Z" id="Shape" fill="#FFFFFF"></path>
        </g>
    </g>
</svg>