<?xml version="1.0" encoding="UTF-8"?>
<svg width="48px" height="48px" viewBox="0 0 48 48" version="1.1" xmlns="http://www.w3.org/2000/svg" xmlns:xlink="http://www.w3.org/1999/xlink">
    <!-- Generator: Sketch 49.1 (51147) - http://www.bohemiancoding.com/sketch -->
    <title>kcs</title>
    <desc>Created with Sketch.</desc>
    <defs></defs>
    <g id="48px" stroke="none" stroke-width="1" fill="none" fill-rule="evenodd">
        <g id="kcs" fill-rule="nonzero">
            <circle id="Oval" fill="#0093DD" cx="24" cy="24" r="24"></circle>
            <path d="M20.3113536,24.0000081 L28.0708927,31.99609 L32.9683266,26.9502361 C33.8332141,26.0588088 35.2363335,26.0590449 36.1012195,26.9502361 C36.966184,27.8414274 36.9663363,29.2867833 36.1012195,30.1778938 L29.6373613,36.8377443 C28.7762937,37.7247622 27.3576613,37.7167324 26.5046901,36.8377443 L17.1805744,27.229722 L17.1804217,32.9416965 C17.1804217,34.1956618 16.1822748,35.2243113 14.9649078,35.2243113 C13.7417327,35.2243113 12.75,34.2021973 12.75,32.9419402 L12.75,15.0585024 C12.75,13.7983167 13.7417283,12.7761312 14.9649078,12.7761312 C16.188312,12.7761312 17.1804217,13.7986396 17.1804217,15.0585024 L17.1804217,20.7704769 L26.5046851,11.1622261 C27.3576534,10.2833171 28.7762842,10.2752082 29.6373564,11.1622261 L36.1012146,17.8220764 C36.9663312,18.7131885 36.9661789,20.1586237 36.1012146,21.0497343 C35.236327,21.9408463 33.8332077,21.9411615 32.9683215,21.0497343 L28.0708876,16.0039564 L20.3113486,24.0001146 L20.3113536,24.0000081 Z M28.0742484,21.7152609 C29.2985706,21.7152609 30.2915954,22.7383983 30.2915954,23.9997643 C30.2915954,25.2614457 29.2985676,26.2845876 28.0742484,26.2845876 C26.8497738,26.2845876 25.8567388,25.2614502 25.8567388,23.9997643 C25.8567388,22.7383983 26.8497665,21.7152609 28.0742484,21.7152609 Z" id="Shape" fill="#FFFFFF"></path>
        </g>
    </g>
</svg>