<?xml version="1.0" encoding="UTF-8"?>
<svg width="48px" height="48px" viewBox="0 0 48 48" version="1.1" xmlns="http://www.w3.org/2000/svg" xmlns:xlink="http://www.w3.org/1999/xlink">
    <!-- Generator: Sketch 49.1 (51147) - http://www.bohemiancoding.com/sketch -->
    <title>kin</title>
    <desc>Created with Sketch.</desc>
    <defs></defs>
    <g id="48px" stroke="none" stroke-width="1" fill="none" fill-rule="evenodd">
        <g id="kin" fill-rule="nonzero">
            <circle id="Oval" fill="#005FFF" cx="24" cy="24" r="24"></circle>
            <path d="M20.5522388,27.0109489 L20.5522388,19.7846715 L22.2396717,19.7846715 C22.6031642,19.7846715 22.8977015,20.0756496 22.8977015,20.4347957 L22.8977015,21.0591461 C22.8977015,21.7362482 23.487515,22.3189271 24.1723881,22.3189271 C24.8575074,22.3189271 25.3778732,21.7362482 25.3781195,21.0591461 L25.3778732,20.4591242 C25.3778732,20.0864891 25.6837388,19.7846715 26.0605299,19.7846715 L27.9402986,19.7846715 L27.9402986,21.61027 C27.9402986,21.9829052 27.6346791,22.2849634 27.2578881,22.2849634 L27.2576418,22.2849634 L26.620791,22.2849634 C25.9356717,22.2849634 25.3805822,22.8336789 25.3781195,23.510781 C25.3781195,24.1878832 26.0149701,24.7365986 26.7000896,24.7365986 L27.2630597,24.7365986 C27.6371418,24.7365986 27.9402986,25.0362482 27.9402986,25.405511 L27.9402986,27.0109489 L29.4533732,27.0109489 C29.9776791,27.0109489 30.4029851,27.4269415 30.4029851,27.9397663 L30.4029851,28.4911314 C30.4029851,29.0039562 29.9776791,29.4197081 29.4533732,29.4197081 L28.8899105,29.4197081 C28.3656045,29.4197081 27.9402986,29.0039562 27.9402986,28.4911314 L27.9402986,27.2518248 L26.0551119,27.2518248 C25.6812761,27.2518248 25.3781195,26.9521752 25.3778732,26.5826715 L25.3781195,25.9645839 C25.3781195,25.2877227 24.7998806,24.7163649 24.1150074,24.7139562 C23.4298881,24.7139562 22.8977015,25.3127737 22.8977015,26.0260072 L22.8977015,26.5882117 C22.8977015,26.9545839 22.5970074,27.2518248 22.2258806,27.2518248 L20.5522388,27.2518248 L20.5522388,28.4911314 C20.5522388,29.0039562 20.1269328,29.4197081 19.6026269,29.4197081 L19.0391642,29.4197081 C18.5148582,29.4197081 18.0895523,29.0039562 18.0895523,28.4911314 L18.0895523,27.9397663 C18.0895523,27.4269415 18.5148582,27.0109489 19.0391642,27.0109489 L20.5522388,27.0109489 Z M29.4533732,19.5437956 L27.9402986,19.5437956 L27.9402986,18.0638539 C27.9402986,17.5510291 28.3656045,17.1350365 28.8899105,17.1350365 L29.4533732,17.1350365 C29.9776791,17.1350365 30.4029851,17.5510291 30.4029851,18.0638539 L30.4029851,18.615219 C30.4029851,19.1280438 29.9776791,19.5437956 29.4533732,19.5437956 Z M20.5522388,19.5437956 L19.0391642,19.5437956 C18.5148582,19.5437956 18.0895523,19.1280438 18.0895523,18.615219 L18.0895523,18.0638539 C18.0895523,17.5510291 18.5148582,17.1350365 19.0391642,17.1350365 L19.6026269,17.1350365 C20.1269328,17.1350365 20.5522388,17.5510291 20.5522388,18.0638539 L20.5522388,19.5437956 Z M23.9645373,17.3759124 C23.4402314,17.3759124 23.0149254,16.9599197 23.0149254,16.4470948 L23.0149254,15.89573 C23.0149254,15.3829052 23.4402314,14.9671533 23.9645373,14.9671533 L24.528,14.9671533 C25.052306,14.9671533 25.4776119,15.3829052 25.4776119,15.89573 L25.4776119,16.4470949 C25.4776119,16.9599197 25.052306,17.3759124 24.528,17.3759124 L23.9645373,17.3759124 Z M23.9645373,32.069343 C23.4402314,32.069343 23.0149254,31.6535913 23.0149254,31.1407663 L23.0149254,30.5894014 C23.0149254,30.0765766 23.4402314,29.6605839 23.9645373,29.6605839 L24.528,29.6605839 C25.052306,29.6605839 25.4776119,30.0765766 25.4776119,30.5894014 L25.4776119,31.1407663 C25.4776119,31.6535913 25.052306,32.069343 24.528,32.069343 L23.9645373,32.069343 Z M31.352597,24.6021898 C30.8280449,24.6021898 30.4029851,24.186438 30.4029851,23.6736132 L30.4029851,23.1222481 C30.4029851,22.6094234 30.8280449,22.1934306 31.352597,22.1934306 L31.9160597,22.1934306 C32.4403656,22.1934306 32.8656717,22.6094234 32.8656717,23.1222481 L32.8656717,23.6736132 C32.8656717,24.186438 32.4403656,24.6021898 31.9160597,24.6021898 L31.352597,24.6021898 Z M16.330209,24.6021898 C15.8056568,24.6021898 15.380597,24.186438 15.380597,23.6736132 L15.380597,23.1222481 C15.380597,22.6094234 15.8056568,22.1934306 16.330209,22.1934306 L16.8936717,22.1934306 C17.4179777,22.1934306 17.8432836,22.6094234 17.8432836,23.1222481 L17.8432836,23.6736132 C17.8432836,24.186438 17.4179777,24.6021898 16.8936717,24.6021898 L16.330209,24.6021898 Z M27.9799477,32.133657 C28.4195373,31.9556496 28.9236492,32.1599124 29.1056418,32.5898758 C29.2881268,33.0200803 29.0790448,33.5129124 28.6394551,33.6911605 C28.1998656,33.8691679 27.6957537,33.665146 27.513515,33.2349415 C27.3315224,32.8047372 27.5403582,32.3119052 27.9799477,32.133657 Z M20.0993508,13.3453358 C20.5389404,13.1673285 21.0432986,13.3715912 21.225291,13.8015547 C21.4072836,14.2317591 21.1984478,14.7245912 20.7588582,14.9028394 C20.3190224,15.0808467 19.8149105,14.8768248 19.6329179,14.4466204 C19.4509254,14.0164161 19.6597613,13.5235839 20.0993508,13.3453358 Z M32.9314254,19.9867663 C32.7494328,19.556562 32.9582687,19.0637299 33.3978582,18.8854818 C33.8376941,18.7074744 34.3413135,18.9117372 34.5237986,19.3417008 C34.705791,19.7719051 34.4969552,20.2649781 34.0573656,20.4429853 C33.6175299,20.6209927 33.1134179,20.4169708 32.9314254,19.9867663 Z M13.9687388,27.6947957 C13.7867463,27.2648321 13.9955821,26.7717591 14.4351716,26.5937519 C14.8750075,26.4152628 15.3786269,26.6197664 15.5611119,27.04973 C15.7431045,27.4796934 15.5342687,27.9730073 15.0946791,28.1510147 C14.6548433,28.3290219 14.1507314,28.125 13.9687388,27.6947957 Z M13.9687388,19.3417008 C14.1512239,18.9117372 14.6548433,18.7074744 15.0946791,18.8854818 C15.5342687,19.06373 15.7431045,19.5568029 15.5611119,19.9867664 C15.3786269,20.4169709 14.8750075,20.6209927 14.4351716,20.4429854 C13.9955821,20.2649781 13.7867463,19.7719052 13.9687388,19.3417008 Z M27.7336791,14.9028394 C27.2940896,14.7245912 27.0852537,14.2317591 27.2672463,13.8015548 C27.4492388,13.3715912 27.9533508,13.1673285 28.3931865,13.3453358 C28.8327761,13.5235839 29.0416119,14.0164161 28.8596195,14.4466204 C28.6776269,14.8768248 28.1732687,15.0808467 27.7336791,14.9028394 Z M32.9314254,27.0497299 C33.1139105,26.6197663 33.6177761,26.4152628 34.0573656,26.5937518 C34.4969552,26.7717591 34.705791,27.264832 34.5237986,27.6947956 C34.341806,28.125 33.8376941,28.3290219 33.3978582,28.1510146 C32.9582687,27.9730072 32.7494328,27.4796934 32.9314254,27.0497299 Z M19.6068135,33.9320366 C19.167224,33.7537883 18.9581418,33.2609562 19.1406269,32.8307519 C19.3226195,32.4007883 19.8267314,32.1965256 20.2663209,32.3745329 C20.7059105,32.552781 20.9147463,33.0456132 20.7327537,33.4758176 C20.550515,33.9060219 20.0464031,34.1100438 19.6068135,33.9320366 Z M32.2711791,31.4878686 C32.4637613,31.2997446 32.775291,31.2997446 32.9676269,31.4878686 C33.1599627,31.6759928 33.1599627,31.9809416 32.9676269,32.1690657 C32.775291,32.3571899 32.4637613,32.3571899 32.2711791,32.1690657 C32.0788433,31.9809416 32.0788433,31.6759928 32.2711791,31.4878686 Z M15.5249105,14.8674307 C15.7172463,14.6793066 16.0290224,14.6793066 16.2213582,14.8674307 C16.4136941,15.0555548 16.4136941,15.3605037 16.2213582,15.5486277 C16.0290224,15.7367519 15.7172463,15.7367519 15.5249105,15.5486277 C15.3325746,15.3605037 15.3325746,15.0555548 15.5249105,14.8674307 Z M32.2711791,15.5486277 C32.0788433,15.3605037 32.0788433,15.0555548 32.2711791,14.8674307 C32.4637613,14.6793066 32.775291,14.6793066 32.9676269,14.8674307 C33.1599627,15.0555548 33.1599627,15.3605037 32.9676269,15.5486277 C32.775291,15.7367519 32.4637613,15.7367519 32.2711791,15.5486277 Z M15.5249105,32.1690657 C15.3325746,31.9809416 15.3325746,31.6759928 15.5249105,31.4878686 C15.7172463,31.2997446 16.0290224,31.2997446 16.2213582,31.4878686 C16.4136941,31.6759928 16.4136941,31.9809416 16.2213582,32.1690657 C16.0290224,32.3571899 15.7172463,32.3571899 15.5249105,32.1690657 Z M35.8208955,23.3980511 C35.8208955,23.1318833 36.0415523,22.9160585 36.3131865,22.9160585 C36.5853135,22.9160585 36.8059701,23.1318833 36.8059701,23.3980511 C36.8059701,23.6637372 36.5853135,23.879562 36.3131865,23.879562 C36.0415523,23.879562 35.8208955,23.6637372 35.8208955,23.3980511 Z M11.9328358,23.3980511 C11.9328358,23.1318833 12.1532463,22.9160585 12.4253731,22.9160585 C12.6972537,22.9160585 12.9179105,23.1318833 12.9179105,23.3980511 C12.9179105,23.6637372 12.6972537,23.879562 12.4253731,23.879562 C12.1532463,23.879562 11.9328358,23.6637372 11.9328358,23.3980511 Z M24.246515,12.3175182 C23.9743881,12.3175182 23.7537314,12.1019343 23.7537314,11.8357664 C23.7537314,11.5695985 23.9743881,11.3540146 24.246515,11.3540146 C24.5181492,11.3540146 24.738806,11.5695985 24.738806,11.8357664 C24.738806,12.1019343 24.5181492,12.3175182 24.246515,12.3175182 Z M24.246515,35.6824818 C23.9743881,35.6824818 23.7537314,35.466657 23.7537314,35.20073 C23.7537314,34.934562 23.9743881,34.7189781 24.246515,34.7189781 C24.5181492,34.7189781 24.738806,34.934562 24.738806,35.20073 C24.738806,35.466657 24.5181492,35.6824818 24.246515,35.6824818 Z M39.5149254,23.3978102 C39.5149254,23.1321242 39.7358283,22.9160585 40.0074627,22.9160585 C40.279097,22.9160585 40.5,23.1321242 40.5,23.3978102 C40.5,23.6634963 40.279097,23.879562 40.0074627,23.879562 C39.7358283,23.879562 39.5149254,23.6634963 39.5149254,23.3978102 Z M7.86940299,23.1569343 C8.07331344,23.1569343 8.23880597,23.3188029 8.23880597,23.5182482 C8.23880597,23.7176934 8.07331344,23.879562 7.86940299,23.879562 C7.66573881,23.879562 7.5,23.7176934 7.5,23.5182482 C7.5,23.3188029 7.66573881,23.1569343 7.86940299,23.1569343 Z M23.5074627,7.98175182 C23.5074627,7.7160657 23.7283656,7.5 24,7.5 C24.2716344,7.5 24.4925373,7.7160657 24.4925373,7.98175182 C24.4925373,8.24743796 24.2716344,8.46350366 24,8.46350366 C23.7283656,8.46350366 23.5074627,8.24743796 23.5074627,7.98175182 Z M38.0954328,29.1388467 C38.2537836,28.7717519 38.6879552,28.5988029 39.063515,28.7541679 C39.4388283,28.9092919 39.6151568,29.3337153 39.456806,29.701051 C39.3378582,29.9766132 39.063515,30.1423358 38.7751344,30.1423358 C38.6795822,30.1423358 38.582306,30.1240291 38.488724,30.085489 C38.1136568,29.9306058 37.9370822,29.5057008 38.0954328,29.1388467 Z M30.1017986,36.9249197 C30.223209,36.9752628 30.3170373,37.0684818 30.3665373,37.1874744 C30.4160373,37.3067081 30.4150523,37.4375037 30.3640746,37.5557738 C30.3128508,37.6745256 30.2175449,37.7662992 30.0956418,37.8147153 C29.9734926,37.8633723 29.840015,37.862168 29.719097,37.8120657 C29.5979328,37.7622044 29.5038582,37.6689853 29.4543582,37.5497519 C29.4048582,37.4305182 29.4058433,37.2997227 29.4568209,37.1814525 C29.5080449,37.0629416 29.6033508,36.9709271 29.7252537,36.922511 C29.785097,36.8989052 29.8478955,36.8868614 29.9106941,36.8868614 C29.975709,36.8868614 30.0404777,36.8996277 30.1017986,36.9249197 Z M9.6615,16.932219 C9.78266418,16.982562 9.87673881,17.0755401 9.92623881,17.1947738 C9.97573881,17.3137664 9.97475373,17.4448029 9.92377613,17.563073 C9.87255224,17.6815839 9.77724627,17.7733577 9.65534328,17.8217738 C9.53344031,17.8704306 9.39971642,17.8694672 9.27879851,17.8193649 C9.15738806,17.7695037 9.0635597,17.6762847 9.0140597,17.5570511 C8.9645597,17.4380585 8.96554478,17.3070219 9.0165224,17.1887519 C9.0675,17.0702409 9.16280597,16.9782263 9.28495523,16.9298102 C9.34479851,16.9062044 9.40759701,16.8941606 9.46990299,16.8941606 C9.53516418,16.8941606 9.59993283,16.9069271 9.6615,16.932219 Z M8.2873209,29.3060147 C8.41956717,28.9996205 8.78059701,28.8562992 9.09385074,28.9854087 C9.40710449,29.1147591 9.55363433,29.4678832 9.42163433,29.7742773 C9.28938806,30.0806715 8.92835822,30.2239928 8.61510449,30.0948832 C8.30185074,29.9655328 8.1553209,29.6121679 8.2873209,29.3060147 Z M29.794209,9.37955475 C29.4809552,9.25020438 29.3344254,8.89708029 29.4664254,8.59068614 C29.5986717,8.28429197 29.9597015,8.14097081 30.2729552,8.27008029 C30.586209,8.39943066 30.7327388,8.75255475 30.6007388,9.05894891 C30.4684926,9.36534306 30.1072164,9.50866424 29.794209,9.37955475 Z M39.0066269,16.6800219 C39.0514478,16.6621971 39.0987314,16.6532847 39.1457687,16.6532847 C39.1945299,16.6532847 39.2430449,16.6626789 39.2893433,16.681949 C39.4767537,16.759511 39.5649179,16.9717227 39.4858656,17.1552701 C39.4474478,17.2441533 39.3757836,17.3128029 39.2844179,17.3491752 C39.1932986,17.3855475 39.0928209,17.3848248 39.0019478,17.3472482 C38.9110746,17.3099124 38.8406418,17.2398176 38.8034552,17.1506934 C38.7662687,17.0613285 38.7670074,16.9630511 38.8054254,16.874168 C38.843597,16.7852847 38.9152613,16.7163942 39.0066269,16.6800219 Z M17.379806,8.9250219 C17.4391568,8.78724087 17.5763283,8.70437957 17.7206418,8.70437957 C17.7684179,8.70437957 17.8169328,8.71353285 17.863724,8.7330438 C18.0513806,8.81036496 18.139791,9.02233577 18.0604926,9.20588321 C18.0220746,9.29476643 17.9504105,9.36389781 17.8590449,9.40027008 C17.7679254,9.43640147 17.6674478,9.43616058 17.5763283,9.39834306 C17.3886717,9.32078102 17.3005074,9.10856934 17.379806,8.9250219 Z M17.4743732,37.3686132 C17.5223955,37.3686132 17.5709105,37.3777664 17.6177015,37.3972773 C17.8053582,37.4745986 17.8935224,37.6870511 17.814224,37.8703577 C17.7351717,38.0539052 17.5179627,38.1403796 17.330306,38.0628176 C17.1426492,37.9852554 17.0542388,37.7728029 17.1335373,37.5894963 C17.1931344,37.4514744 17.330306,37.3686132 17.4743732,37.3686132 Z M34.9380224,34.8189416 C34.7454404,35.0070657 34.4331717,35.0068248 34.2410822,34.8189416 C34.0489926,34.6308176 34.0489926,34.3253868 34.2410822,34.1377446 C34.3341717,34.0464525 34.4577986,33.9963504 34.5895523,33.9963504 C34.7210597,33.9963504 34.8449328,34.0464525 34.9380224,34.1377446 C35.1301119,34.3253868 35.1301119,34.6308176 34.9380224,34.8189416 Z M11.9025448,12.0472555 C12.1906791,11.7651898 12.6598209,11.7651898 12.9482015,12.0472555 C13.2360896,12.3290803 13.2360896,12.7879489 12.9482015,13.0695329 C12.8038881,13.2104453 12.6147537,13.2810219 12.4253731,13.2810219 C12.2359925,13.2810219 12.0468582,13.2104453 11.9025448,13.0695329 C11.6146567,12.7879489 11.6146567,12.3290803 11.9025448,12.0472555 Z M35.1904478,12.1823869 C35.2623582,12.1118102 35.3569254,12.0766423 35.4517388,12.0766423 C35.546306,12.0766423 35.6408732,12.1118102 35.7130299,12.1823869 C35.8568508,12.3232993 35.8568508,12.5526131 35.7127836,12.6935255 C35.5689627,12.834438 35.3342687,12.8346788 35.1904478,12.6932847 C35.1205074,12.6253577 35.0820896,12.5345474 35.0820896,12.4379562 C35.0820896,12.341365 35.1205074,12.2507956 35.1904478,12.1823869 Z M12.0409478,34.1023358 C12.1108881,34.0339271 12.2034851,33.9963504 12.3022388,33.9963504 C12.4009925,33.9963504 12.4938358,34.0339271 12.5635299,34.1023358 C12.707597,34.2430073 12.707597,34.472562 12.5635299,34.6132337 C12.419709,34.7541461 12.1850149,34.7543868 12.0407015,34.6132337 C11.8968806,34.472562 11.8968806,34.2430073 12.0409478,34.1023358 Z M24.1233806,40.5 C23.7830373,40.5 23.5074627,40.2304599 23.5074627,39.898051 C23.5074627,39.5654015 23.7830373,39.2956205 24.1233806,39.2956205 C24.4632314,39.2956205 24.738806,39.5654015 24.738806,39.898051 C24.738806,40.2304599 24.4632314,40.5 24.1233806,40.5 Z" id="Shape" fill="#FFFFFF"></path>
        </g>
    </g>
</svg>