<?xml version="1.0" encoding="UTF-8"?>
<svg width="48px" height="48px" viewBox="0 0 48 48" version="1.1" xmlns="http://www.w3.org/2000/svg" xmlns:xlink="http://www.w3.org/1999/xlink">
    <!-- Generator: Sketch 49.1 (51147) - http://www.bohemiancoding.com/sketch -->
    <title>kmd</title>
    <desc>Created with Sketch.</desc>
    <defs></defs>
    <g id="48px" stroke="none" stroke-width="1" fill="none" fill-rule="evenodd">
        <g id="kmd" fill-rule="nonzero">
            <circle id="Oval" fill="#326464" cx="24" cy="24" r="24"></circle>
            <path d="M24,7.5 L35.2228223,12.309781 C35.5581039,12.4534731 35.8239617,12.7224958 35.9636761,13.0594543 L40.5,24 L35.9658822,35.0685816 C35.8249696,35.4125739 35.5528834,35.6862986 35.2097433,35.8292736 L24,40.5 L12.7902567,35.8292736 C12.4471165,35.6862986 12.1750303,35.4125739 12.0341178,35.0685816 L7.5,24 L12.0363238,13.0594543 C12.1760383,12.7224958 12.4418962,12.4534731 12.7771778,12.309781 L24,7.5 Z M24,14.2118644 L17.1483051,17.1483051 L14.2118644,24 L17.1483051,30.8516949 L24,33.7881356 L30.8516949,30.8516949 L33.7881356,24 L30.8516949,17.1483051 L24,14.2118644 Z M24,17.1483051 L28.8940678,19.1059322 L30.8516949,24 L28.8940678,28.8940678 L24,30.8516949 L19.1059322,28.8940678 L17.1483051,24 L19.1059322,19.1059322 L24,17.1483051 Z" id="Shape" fill="#FFFFFF"></path>
        </g>
    </g>
</svg>