<?xml version="1.0" encoding="UTF-8"?>
<svg width="48px" height="48px" viewBox="0 0 48 48" version="1.1" xmlns="http://www.w3.org/2000/svg" xmlns:xlink="http://www.w3.org/1999/xlink">
    <!-- Generator: Sketch 49.1 (51147) - http://www.bohemiancoding.com/sketch -->
    <title>knc</title>
    <desc>Created with Sketch.</desc>
    <defs></defs>
    <g id="48px" stroke="none" stroke-width="1" fill="none" fill-rule="evenodd">
        <g id="knc" fill-rule="nonzero">
            <circle id="Oval" fill="#188C92" cx="24" cy="24" r="24"></circle>
            <path d="M32.7544955,31.5463657 C32.6618307,31.6801674 32.6078167,31.8409115 32.6078167,32.0138037 C32.6078167,32.1469386 32.6398454,32.27287 32.6968878,32.3848426 L23.8072823,39.3419112 C23.6958627,39.2537851 23.5614859,39.1915861 23.4140952,39.1648892 L23.1424708,22.040282 C23.2396168,22.0197918 23.3307288,21.9837777 23.412861,21.9350762 L32.7544955,31.5463657 Z M33.0031848,31.3084437 L23.6686563,21.7044652 C23.7703773,21.5666739 23.8301888,21.3981919 23.8301888,21.2162577 C23.8300929,21.1392997 23.8193097,21.0647539 23.7991915,20.9939223 L33.2874247,16.3747147 C33.4078183,16.5210195 33.5775457,16.6279663 33.7724058,16.672251 L33.3003287,31.1887818 C33.1926228,31.2108877 33.0922447,31.2520557 33.0031848,31.3084437 Z M22.8943168,39.2236082 L17.8674599,32.4692364 C18.01244,32.3187282 18.1010781,32.1171847 18.1010781,31.8957056 C18.1005327,31.4571486 17.7529148,31.0969196 17.3084928,31.0560153 L15.739628,16.8550117 C16.1199822,16.7630466 16.4016173,16.4315996 16.4016173,16.0368097 C16.401366,15.8348469 16.3275092,15.6494955 16.2044889,15.5042924 L22.511358,8.73413853 C22.5930324,8.78030517 22.683165,8.81409095 22.7789757,8.83281903 L22.7789757,20.3895737 C22.3791223,20.4677327 22.0781671,20.8081512 22.0781671,21.2162577 C22.0781671,21.6288195 22.3857296,21.9722076 22.792107,22.0454076 L23.0637287,39.1698408 C23.0048204,39.1822658 22.9481307,39.200399 22.8943168,39.2236082 Z M23.1293801,20.3897603 L23.1293801,8.83281903 C23.2853802,8.80232577 23.4263269,8.73191351 23.540221,8.63313678 L33.1798822,15.4954371 C33.1275851,15.6035451 33.0983827,15.7241022 33.0983827,15.851227 C33.0983827,15.928219 33.1090941,16.002802 33.1291602,16.0736694 L23.6407598,20.6929583 C23.5149111,20.5401154 23.3352709,20.4302094 23.1293801,20.3897603 Z M22.954178,7.5 C23.2444623,7.5 23.4797844,7.72660434 23.4797844,8.00613497 C23.4797844,8.28566559 23.2444623,8.51226994 22.954178,8.51226994 C22.6638934,8.51226994 22.4285715,8.28566559 22.4285715,8.00613497 C22.4285715,7.72660434 22.6638934,7.5 22.954178,7.5 Z M15.5256064,15.5306748 C15.815891,15.5306748 16.0512129,15.7572792 16.0512129,16.0368097 C16.0512129,16.3163404 15.815891,16.5429448 15.5256064,16.5429448 C15.2353221,16.5429448 15,16.3163404 15,16.0368097 C15,15.7572792 15.2353221,15.5306748 15.5256064,15.5306748 Z M17.2250675,31.3895706 C17.5153518,31.3895706 17.7506739,31.6161749 17.7506739,31.8957056 C17.7506739,32.1752361 17.5153518,32.4018405 17.2250675,32.4018405 C16.9347829,32.4018405 16.6994609,32.1752361 16.6994609,31.8957056 C16.6994609,31.6161749 16.9347829,31.3895706 17.2250675,31.3895706 Z M33.9743935,15.3450919 C34.2646779,15.3450919 34.5,15.5716963 34.5,15.851227 C34.5,16.1307576 34.2646779,16.357362 33.9743935,16.357362 C33.684109,16.357362 33.4487871,16.1307576 33.4487871,15.851227 C33.4487871,15.5716963 33.684109,15.3450919 33.9743935,15.3450919 Z M22.954178,20.7101228 C23.2444623,20.7101228 23.4797844,20.936727 23.4797844,21.2162577 C23.4797844,21.4957883 23.2444623,21.7223926 22.954178,21.7223926 C22.6638934,21.7223926 22.4285715,21.4957883 22.4285715,21.2162577 C22.4285715,20.936727 22.6638934,20.7101228 22.954178,20.7101228 Z M23.2520215,39.4877301 C23.542306,39.4877301 23.777628,39.7143344 23.777628,39.993865 C23.777628,40.2733956 23.542306,40.5 23.2520215,40.5 C22.9617372,40.5 22.7264151,40.2733956 22.7264151,39.993865 C22.7264151,39.7143344 22.9617372,39.4877301 23.2520215,39.4877301 Z M33.4838276,31.5076688 C33.7741119,31.5076688 34.009434,31.734273 34.009434,32.0138037 C34.009434,32.2933343 33.7741119,32.5199387 33.4838276,32.5199387 C33.193543,32.5199387 32.9582209,32.2933343 32.9582209,32.0138037 C32.9582209,31.734273 33.193543,31.5076688 33.4838276,31.5076688 Z" id="Shape" fill="#FFFFFF"></path>
        </g>
    </g>
</svg>