<?xml version="1.0" encoding="UTF-8"?>
<svg width="48px" height="48px" viewBox="0 0 48 48" version="1.1" xmlns="http://www.w3.org/2000/svg" xmlns:xlink="http://www.w3.org/1999/xlink">
    <!-- Generator: Sketch 49.1 (51147) - http://www.bohemiancoding.com/sketch -->
    <title>krb</title>
    <desc>Created with Sketch.</desc>
    <defs></defs>
    <g id="48px" stroke="none" stroke-width="1" fill="none" fill-rule="evenodd">
        <g id="krb" fill-rule="nonzero">
            <circle id="Oval" fill="#00AEEF" cx="24" cy="24" r="24"></circle>
            <path d="M23.6413044,22.0597352 C23.9965218,21.9972741 24.3121739,21.8648394 24.5882608,21.6622164 C24.8643479,21.4595934 25.125,21.1168087 25.3695653,20.6493163 L30.8073914,10.1689455 C31.0202173,9.81821889 31.2808695,9.53789521 31.5808695,9.31960334 C31.8806521,9.10925325 32.2358696,9 32.6304348,9 L36.0791304,9 L29.3080436,21.3273734 C29.0080435,21.8339307 28.6686957,22.2469038 28.2897826,22.5662925 C27.9030435,22.8856812 27.4769565,23.1273691 27.0113043,23.2909271 C27.7373913,23.4778811 28.3450001,23.7818154 28.8421738,24.2102427 C29.3315217,24.6311575 29.7971739,25.2235721 30.2313044,25.9868424 L36.75,39 L32.9539131,39 C32.1884783,39 31.5726087,38.5870271 31.1071738,37.7688081 L25.7643479,26.7428148 C25.4880435,26.2519264 25.1882609,25.9014146 24.8645652,25.6910645 C24.5408695,25.4807143 24.1306521,25.3560067 23.6413044,25.3246689 L23.6413044,30.9195519 L20.6582609,30.9195519 L20.6582609,25.3010582 L18.4643478,25.3010582 L18.4643478,39 L14.25,39 L14.25,9 L18.4643478,9 L18.4643478,22.1065274 L20.6582609,22.1065274 L20.6582609,15.6234519 L23.6413044,15.6234519 L23.6413044,22.0597352 Z" id="Shape" fill="#FFFFFF"></path>
        </g>
    </g>
</svg>