<?xml version="1.0" encoding="UTF-8"?>
<svg width="48px" height="48px" viewBox="0 0 48 48" version="1.1" xmlns="http://www.w3.org/2000/svg" xmlns:xlink="http://www.w3.org/1999/xlink">
    <!-- Generator: Sketch 49.1 (51147) - http://www.bohemiancoding.com/sketch -->
    <title>link</title>
    <desc>Created with Sketch.</desc>
    <defs></defs>
    <g id="48px" stroke="none" stroke-width="1" fill="none" fill-rule="evenodd">
        <g id="link" fill-rule="nonzero">
            <circle id="Oval" fill="#01A6FB" cx="24" cy="24" r="24"></circle>
            <path d="M22.5,27.9270799 L22.5,31.5 C22.5,32.3284271 23.171573,33 24,33 C24.8284271,33 25.5,32.3284271 25.5,31.5 L25.5,27.9270799 C25.9603121,27.5150895 26.25,26.9163748 26.25,26.25 C26.25,25.0073594 25.2426406,24 24,24 C22.7573594,24 21.75,25.0073594 21.75,26.25 C21.75,26.9163748 22.039688,27.5150895 22.5,27.9270799 Z M15,21.0000001 C15,20.0303284 15,19.0303284 15,18 C15,13.0294372 19.0294373,9 24,9 C28.9705627,9 33,13.0294372 33,18 L33,20.999921 C33.8284271,21 34.5,21.671573 34.5,22.5 L34.5,34.5 C34.5,35.3284271 33.8284271,36 33,36 L15,36 C14.1715729,36 13.5,35.3284271 13.5,34.5 L13.5,22.5 C13.5,21.671573 14.1715729,21 15,21 L15,21.0000001 Z M33,21 L24,21 L18.75,21 C18.75,21.088225 18.75,20.1382251 18.75,18.15 C18.75,15.1676624 21.1005051,12.75 24,12.75 C26.8994949,12.75 29.25,15.1676624 29.25,18.15 L29.25,21 L24,21 L33,21 Z" id="Shape" fill="#FFFFFF"></path>
        </g>
    </g>
</svg>