<?xml version="1.0" encoding="UTF-8"?>
<svg width="48px" height="48px" viewBox="0 0 48 48" version="1.1" xmlns="http://www.w3.org/2000/svg" xmlns:xlink="http://www.w3.org/1999/xlink">
    <!-- Generator: Sketch 49.1 (51147) - http://www.bohemiancoding.com/sketch -->
    <title>lsk</title>
    <desc>Created with Sketch.</desc>
    <defs></defs>
    <g id="48px" stroke="none" stroke-width="1" fill="none" fill-rule="evenodd">
        <g id="lsk" fill-rule="nonzero">
            <circle id="Oval" fill="#0288D1" cx="24" cy="24" r="24"></circle>
            <path d="M20.1241064,19.6499148 C20.2544288,19.5401605 20.3600454,19.5891342 20.3600454,19.7592583 L20.3600454,30.9778098 C20.3600454,31.1480368 20.2217967,31.2858199 20.0512247,31.2858199 L18.2269176,31.2858199 C18.0564485,31.2858199 17.9180969,31.1480368 17.9180969,30.9779125 C17.9181998,29.4938169 17.9184057,23.2965498 17.9203616,21.8125567 C17.9206704,21.6424326 18.0269046,21.4156344 18.1573299,21.3059827 L20.1241064,19.6499148 Z M16.4336469,29.1935686 C16.5777633,29.1935686 16.716012,29.3315571 16.716012,29.5015788 L16.716012,30.9778714 C16.716012,31.1479957 16.5777633,31.2858816 16.4071913,31.2858816 L8.5013801,31.2858816 L8.50590947,31.2809535 C8.36066078,31.256826 8.25,31.1320818 8.25,30.9799248 L8.25,18.7371369 C8.25,18.5671153 8.35499906,18.3393931 8.4844979,18.2287149 L10.4374803,16.5595051 C10.5669792,16.4488267 10.6719782,16.496979 10.6719782,16.6671033 L10.6719782,24.0943576 L10.6719782,28.8855583 C10.6719782,29.0914119 10.818771,29.1935686 10.980799,29.1935686 L16.4336469,29.1935686 Z M28.9831546,25.3541706 C29.4268271,25.6683409 29.75603,26.0305609 29.9707634,26.440933 C30.1854968,26.8515106 30.2928635,27.3421708 30.2928635,27.913119 C30.2928635,29.0695945 29.8703966,29.9564584 29.0260808,30.573916 C28.181456,31.1913738 26.8689678,31.5 25.2945996,31.5 C23.6088499,31.5 22.3254939,31.0575948 21.5686771,30.6385983 C21.4196198,30.5559489 21.3762819,30.3621078 21.4654281,30.217035 L22.1727306,29.0657956 C22.2617739,28.9207228 22.4555074,28.8690799 22.6084767,28.9444396 C23.2094418,29.239924 24.0909192,29.5727803 25.3804517,29.5727803 C26.9334084,29.5727803 27.8130327,29.1053236 27.8130327,28.1701021 C27.8130327,27.8703055 27.7270776,27.6205093 27.5553733,27.4206108 C27.3835661,27.2209174 27.1007892,27.0137293 26.7072486,26.7995596 C26.3135022,26.5854925 25.766066,26.3428831 25.064837,26.0715262 C23.6976875,25.5433915 22.7727693,25.0151541 22.2897737,24.4869166 C21.806572,23.9587819 21.5649714,23.2734592 21.5649714,22.4311542 C21.5649714,21.4176981 21.9746736,20.6307321 22.7942838,20.0702563 C23.6136882,19.5099858 24.7282222,19.2297991 26.138195,19.2297991 C27.3529928,19.2297991 28.5106588,19.4437636 29.611502,19.8709737 C29.7704417,19.9326784 29.828397,20.1067041 29.7431625,20.2540357 L29.0032279,21.5321752 C28.9178905,21.6795067 28.7197305,21.7496304 28.5590408,21.6927511 C27.5911965,21.3500385 26.7554247,21.1784769 26.0523428,21.1784769 C24.7212223,21.1784769 24.0556107,21.5569187 24.0556107,22.3133916 C24.0556107,22.6846465 24.229065,22.9986115 24.5762825,23.2555947 C24.923397,23.5125778 25.6802138,23.8658655 26.8468356,24.315663 C27.8272386,24.6940021 28.5392763,25.0401028 28.9831546,25.3541706 Z M41.1798654,19.7155414 L36.8846835,24.2985273 C36.7635228,24.4182406 36.7399496,24.6311784 36.8322868,24.7741977 L40.8552948,31.0123275 C40.9475294,31.1553469 40.884118,31.2858405 40.7135461,31.2858405 L38.6770791,31.2858405 C38.5065072,31.2858405 38.2931119,31.1555523 38.2004658,31.0127382 L35.1367581,26.1315985 C35.0441118,25.9888872 34.8696281,25.9689691 34.7471292,26.0873476 L33.9088868,26.8964904 C33.7863879,27.0148689 33.6870506,27.2486487 33.6870506,27.4186702 L33.6870506,30.9633538 C33.6870506,31.1334781 33.5488017,31.2848139 33.3782298,31.2858405 L31.548055,31.2858405 C31.377483,31.2870726 31.2392343,31.1501107 31.2392343,30.9799864 L31.2392343,18.7371985 C31.2392343,18.5670742 31.3442334,18.3394548 31.4737322,18.2287764 L33.4268175,16.5595668 C33.5562135,16.4488884 33.6612125,16.4970406 33.6612125,16.6671649 L33.6612125,24.0943167 C33.6612125,24.2645436 33.7631234,24.309205 33.8888135,24.1942146 L38.3780378,19.7070199 C38.5038308,19.5920295 38.7439904,19.4989077 38.9144594,19.4989077 L41.0906163,19.4989077 C41.2611882,19.4989077 41.301129,19.5958282 41.1798654,19.7155414 Z" id="Shape" fill="#FFFFFF"></path>
        </g>
    </g>
</svg>