<?xml version="1.0" encoding="UTF-8"?>
<svg width="48px" height="48px" viewBox="0 0 48 48" version="1.1" xmlns="http://www.w3.org/2000/svg" xmlns:xlink="http://www.w3.org/1999/xlink">
    <!-- Generator: Sketch 49.1 (51147) - http://www.bohemiancoding.com/sketch -->
    <title>mana</title>
    <desc>Created with Sketch.</desc>
    <defs></defs>
    <g id="48px" stroke="none" stroke-width="1" fill="none" fill-rule="evenodd">
        <g id="mana" fill-rule="nonzero">
            <circle id="Oval" fill="#BFB5AF" cx="24" cy="24" r="24"></circle>
            <path d="M24,7.5 C33.0915,7.5 40.5,14.9085 40.5,24 C40.5,33.0915 33.0915,40.5 24,40.5 C14.9085,40.5 7.5,33.0915 7.5,24 C7.5,14.9085 14.9085,7.5 24,7.5 Z M37.2825,22.3335 L39.18,24.4785 L39.18,24 C39.18,15.6345 32.3655,8.82 24,8.82 C15.7005,8.82 8.919,15.519 8.82,23.802 L9.5955,23.7855 L12.12,19.3635 L15.585,19.3635 L17.004,24.0165 L19.8255,23.2905 L21.294,24.099 L23.1255,21.789 L24.429,22.548 L25.749,23.0265 L26.5575,22.614 L26.64,22.5315 C24.2805,21.855 22.5315,19.677 22.5315,17.103 C22.5315,14.001 25.0725,11.493 28.1745,11.493 C31.2765,11.493 33.801,14.0175 33.801,17.1195 C33.8014022,18.0331215 33.5806134,18.9332597 33.1575,19.743 L33.8175,19.743 L35.8635,22.581 L37.2825,22.3335 Z M24,39.18 C25.8369902,39.1820262 27.6592422,38.8522321 29.379,38.2065 C28.323,37.893 27.003,37.629 25.716,37.365 C25.0065,37.2165 24.264,37.068 23.571,36.9195 C22.944,36.771 22.3335,36.6555 21.789,36.5565 C19.8585,36.1935 18.588,35.946 18.39,34.9725 C18.225,34.164 18.8685,33.3885 20.733,32.1015 C21.624,31.5075 21.723,31.161 21.7065,31.095 C21.7065,31.062 21.4095,30.27 17.0205,29.7915 C16.8555,29.775 16.674,29.7585 16.509,29.742 C16.476,30.435 15.717,30.93 14.6775,30.93 C13.605,30.93 12.8295,30.402 12.8295,29.676 C12.8295,29.643 12.8295,29.61 12.8625,29.511 C12.7585567,29.497701 12.6537651,29.4921856 12.549,29.4945 C12.3675,29.544 12.153,29.5605 11.9385,29.5605 C11.6821042,29.5633414 11.4265887,29.5300132 11.1795,29.4615 C10.7175,29.4615 10.2555,29.445 9.8265,29.445 C12.021,35.1375 17.5485,39.18 24,39.18 Z M31.062,37.431 C35.253,35.22 38.2725,31.128 38.9985,26.31 L36.771,23.7855 L35.253,24.0495 L33.108,21.096 L32.8605,21.096 L31.8705,21.888 L30.633,20.2215 L28.5705,22.416 C28.62,22.383 28.686,22.3665 28.7355,22.35 C29.478,22.119 30.0555,21.7725 30.2535,21.096 C30.435,21.7065 30.9795,22.053 31.6065,22.284 C31.689,22.317 31.7715,22.3335 31.854,22.3665 L31.8705,22.3665 C33.1245,22.845 33.999,23.835 34.0815,25.0065 C34.263,25.254 34.527,25.452 34.824,25.6005 C35.022,25.6665 35.2365,25.7325 35.418,25.8315 C35.451,25.8315 35.4675,25.848 35.484,25.848 L35.4675,25.848 C36.54,26.3925 37.266,27.3495 37.266,28.455 C37.266,28.8675 37.0185,29.6925 35.1375,30.006 C34.5391489,30.1042354 34.0995069,30.6206404 34.098,31.227 L34.098,32.745 C34.098,33.1245 33.768,33.438 33.372,33.405 C33.0255,33.372 32.778,33.0585 32.778,32.712 L32.778,31.227 C32.7764931,30.6206404 32.336851,30.1042354 31.7385,30.006 C31.425,29.9565 31.161,29.8905 30.93,29.808 L30.93,32.3985 C30.93,32.8935 30.567,34.065 27.102,34.065 C23.6535,34.065 23.274,32.8935 23.274,32.3985 C23.274,31.029 24.3795,29.874 25.914,29.4615 C26.508,29.2305 26.97,28.9005 27.135,28.323 C27.3495,29.0325 28.026,29.379 28.752,29.61 L28.7355,29.61 C29.0655,29.7255 29.3625,29.8905 29.6265,30.072 L29.6265,27.927 C29.6249931,27.3206404 29.185351,26.8042354 28.587,26.706 C26.706,26.3925 26.4585,25.551 26.4585,25.155 C26.4585,24.759 26.5575,24.3795 26.7225,24.033 L25.8645,24.4785 L23.8845,23.7525 L23.4555,23.505 L19.7925,28.1415 L18.753,27.3165 L20.469,25.155 L19.6605,24.7095 L16.1295,25.617 L14.628,20.6835 L12.8955,20.6835 L10.3875,25.0725 L8.8695,25.122 C8.95145132,26.1318556 9.12823025,27.1317615 9.3975,28.1085 L10.1565,28.1085 C10.2225,27.828 10.47,27.0855 11.328,24.5775 L11.955,22.746 L12.5325,24.6105 C13.044,26.0955 13.341,26.9535 13.506,27.4815 C13.6545,27.0525 13.8195,26.5575 14.034,25.947 L14.661,24.1155 L15.288,25.947 C15.6675,27.069 15.9315,27.8445 16.113,28.389 C16.476,28.422 16.8225,28.455 17.1525,28.488 C20.8155,28.884 22.614,29.577 22.9605,30.7155 C23.34,31.9365 21.9375,32.8935 21.4755,33.207 C20.1885,34.0815 19.8255,34.5105 19.71,34.692 C20.0565,34.89 21.129,35.1045 22.02,35.2695 C22.581,35.3685 23.208,35.484 23.8515,35.6325 C24.5445,35.781 25.2705,35.9295 25.9635,36.0615 C27.9435,36.4575 29.8245,36.8205 31.062,37.431 Z M29.61,32.2995 C29.544,31.3755 28.422,30.6165 27.102,30.6165 C25.782,30.6165 24.66,31.3755 24.594,32.2995 C24.825,32.4645 25.683,32.7285 27.102,32.7285 C28.521,32.7285 29.379,32.4645 29.61,32.2995 Z M33.4545,26.673 C32.1345,26.673 31.0125,27.432 30.9465,28.356 C31.1775,28.521 32.052,28.785 33.4545,28.785 C34.857,28.785 35.7315,28.521 35.9625,28.356 C35.8965,27.432 34.7745,26.673 33.4545,26.673 Z M32.778,25.056 C32.712,24.132 31.59,23.373 30.27,23.373 C28.95,23.373 27.828,24.132 27.762,25.056 C27.993,25.221 28.8675,25.485 30.27,25.485 C31.6725,25.485 32.547,25.221 32.778,25.056 Z M31.7715,19.4625 C32.2321563,18.7677442 32.478845,17.9530977 32.481,17.1195 C32.481,14.7435 30.5505,12.813 28.1745,12.813 C25.7985,12.813 23.868,14.7435 23.868,17.1195 C23.868,19.347 25.551,21.1785 27.7125,21.4095 L30.7815,18.126 L31.7715,19.4625 Z M14.2485,29.544 C14.5389807,29.632005 14.8490193,29.632005 15.1395,29.544 L14.694,28.2075 L14.2485,29.544 Z M11.526,28.1415 C11.8065,28.1415 12.087,28.158 12.384,28.158 C12.3015,27.861 12.1365,27.3825 11.955,26.8545 C11.7735,27.366 11.625,27.8445 11.526,28.1415 Z M17.862,19.281 C15.75,19.281 14.034,17.565 14.034,15.453 C14.034,13.341 15.75,11.625 17.862,11.625 C19.974,11.625 21.69,13.341 21.69,15.453 C21.69,17.565 19.9575,19.281 17.862,19.281 Z M17.862,12.945 C16.4768698,12.945 15.354,14.0678699 15.354,15.453 C15.354,16.8381301 16.4768698,17.961 17.862,17.961 C19.2471302,17.961 20.37,16.8381301 20.37,15.453 C20.37,14.067 19.2315,12.945 17.862,12.945 Z" id="Shape" fill="#FFFFFF"></path>
        </g>
    </g>
</svg>