<?xml version="1.0" encoding="UTF-8"?>
<svg width="48px" height="48px" viewBox="0 0 48 48" version="1.1" xmlns="http://www.w3.org/2000/svg" xmlns:xlink="http://www.w3.org/1999/xlink">
    <!-- Generator: Sketch 49.1 (51147) - http://www.bohemiancoding.com/sketch -->
    <title>mcap</title>
    <desc>Created with Sketch.</desc>
    <defs></defs>
    <g id="48px" stroke="none" stroke-width="1" fill="none" fill-rule="evenodd">
        <g id="mcap" fill-rule="nonzero">
            <circle id="Oval" fill="#033B4A" cx="24" cy="24" r="24"></circle>
            <path d="M23.2979534,10.5957679 C24.1329276,10.351748 25.020417,10.6012171 25.7414514,11.0374226 C28.9633587,12.8708944 32.186751,14.7056953 35.4378183,16.4899909 C36.6867023,17.1510775 37.5174917,18.50887 37.4995367,19.9087945 C37.4967017,24.5503557 37.4860367,29.193246 37.4926517,33.8348071 C37.5438167,34.1579076 37.3237668,34.5259309 36.9581871,34.4919064 C35.5167933,34.5014758 34.0753995,34.4960266 32.6340057,34.4946975 C32.3183759,34.5410826 32.0165162,34.2765948 32.0497262,33.9576145 C31.9112163,30.004519 31.9638662,26.0471704 32.0040962,22.0927459 C32.0027462,21.5965987 31.9085163,21.0745344 31.5887015,20.6750116 C31.2647018,20.2497046 30.7537272,20.0329311 30.2955377,19.7808037 C29.5450733,19.3868632 28.8388889,18.912513 28.0622345,18.5689447 C27.7687446,18.4517194 27.3852101,18.3249247 27.1081902,18.5484768 C26.8007955,18.8388817 26.8036305,19.2954222 26.7717705,19.6853755 C26.7191205,21.623845 26.7053505,23.5649727 26.7551655,25.5046383 C26.7538155,25.9654318 26.7686655,26.4997237 26.4187458,26.8555195 C26.0601861,27.2071953 25.5173516,27.2126445 25.0466069,27.2208849 C24.1950276,27.2113155 23.3435834,27.2426818 22.493354,27.2004169 C22.1333093,27.1622722 21.7013097,27.1404753 21.4673549,26.8269442 C21.25689,26.5162044 21.26661,26.1235929 21.24852,25.7664679 C21.244335,23.7285829 21.27066,21.6892359 21.24987,19.6513509 C21.22773,19.2924982 21.233265,18.8865958 20.9785203,18.6003111 C20.7348455,18.3495129 20.3440208,18.4325806 20.0508011,18.5389074 C19.4125215,18.7870474 18.842012,19.1686275 18.2369426,19.4836204 C17.631873,19.831176 16.9825236,20.1283593 16.4646639,20.6027095 C16.1271642,20.9094621 16.0368494,21.3783631 16.0257794,21.8104485 C16.0188944,25.8140491 16.0299644,29.8176498 15.9952694,33.8212504 C16.0298294,34.1252121 15.8498745,34.4946975 15.4968498,34.4877862 C14.012526,34.5054631 12.5268522,34.4960266 11.0425284,34.4919064 C10.7448537,34.5204817 10.4706689,34.2601141 10.5025289,33.9643929 C10.5607138,29.0966215 10.5246689,24.2273883 10.5288539,19.3596169 C10.4899739,18.3416713 11.0562984,17.3461872 11.9645777,16.8530968 C15.34646,14.9579555 18.7349571,13.0741114 22.1041494,11.1561098 C22.484849,10.9393362 22.8697337,10.7127273 23.2979534,10.5957679 Z" id="Shape" fill="#FFFFFF"></path>
        </g>
    </g>
</svg>