<?xml version="1.0" encoding="UTF-8"?>
<svg width="48px" height="48px" viewBox="0 0 48 48" version="1.1" xmlns="http://www.w3.org/2000/svg" xmlns:xlink="http://www.w3.org/1999/xlink">
    <!-- Generator: Sketch 49.1 (51147) - http://www.bohemiancoding.com/sketch -->
    <title>mco</title>
    <desc>Created with Sketch.</desc>
    <defs></defs>
    <g id="48px" stroke="none" stroke-width="1" fill="none" fill-rule="evenodd">
        <g id="mco" fill-rule="nonzero">
            <circle id="Oval" fill="#103F68" cx="24" cy="24" r="24"></circle>
            <path d="M23.9704493,7.52773551 L38.25,15.75198 L38.25,32.250495 L23.9868663,40.5 L23.8715685,40.4717974 L9.75,32.250495 L9.75,15.75198 L23.8715328,7.52773551 L23.9704493,7.52773551 Z M23.9233044,9.23342741 L11.25,16.6142378 L11.25,31.3881765 L23.9218116,38.7670819 L25.4704492,37.8713306 L36.75,31.385241 L36.75,16.617114 L25.4704492,10.0914453 L23.9233044,9.23342741 Z M13.2139977,25.150403 L16.9654579,22.3432019 L20.2815379,24.4623393 L20.2815379,28.2724305 L22.7903917,30.6900588 L22.7892424,31.8241265 L20.3718318,34.0899517 L18.3287298,34.0899517 L13.2139977,25.150403 Z M25.0682575,31.8269316 L25.0633323,30.6856037 L27.5636491,28.2729255 L27.5636491,24.4623393 L30.8441043,22.3172964 L34.588341,25.150403 L29.4990554,34.0640463 L27.4833697,34.0640463 L25.0682575,31.8269316 Z M21.5119959,24.4623393 L20.2913883,21.2649053 L27.5487098,21.2649053 L26.3527275,24.4623393 L26.7058582,28.0349907 L23.9052736,28.0410959 L21.1380156,28.0460459 L21.5119959,24.4623393 Z M23.9052736,20.3900579 L17.0084706,20.3867577 L18.2906423,14.6561931 L29.4870708,14.6561931 L30.8381941,20.3941828 L23.9052736,20.3900579 Z" id="Shape" fill="#FFFFFF"></path>
        </g>
    </g>
</svg>