<?xml version="1.0" encoding="UTF-8"?>
<svg width="48px" height="48px" viewBox="0 0 48 48" version="1.1" xmlns="http://www.w3.org/2000/svg" xmlns:xlink="http://www.w3.org/1999/xlink">
    <!-- Generator: Sketch 49.1 (51147) - http://www.bohemiancoding.com/sketch -->
    <title>med</title>
    <desc>Created with Sketch.</desc>
    <defs></defs>
    <g id="48px" stroke="none" stroke-width="1" fill="none" fill-rule="evenodd">
        <g id="med" fill-rule="nonzero">
            <circle id="Oval" fill="#00B0FF" cx="24" cy="24" r="24"></circle>
            <path d="M23.7612665,24.0076374 L10.5,16.5028641 L10.5038505,31.505728 L14.9223474,34.007001 L14.9223474,24.021003 L23.762229,29.0235489 L23.762229,24.0200484 L23.7593412,24.0190936 L23.762229,24.018139 L23.7612665,24.0076374 Z M31.3054407,13.2693483 L27.4000286,15.4765784 L23.762229,13.4383274 L20.1148032,15.5004454 L16.2084283,13.2722123 L23.7699301,9 L31.3054407,13.2693483 Z M24,24.3398676 L37.5,16.6852088 L37.497112,31.9849797 L32.9996792,34.5368508 L32.9996792,24.3532332 L24,29.4550662 L24,24.3522785 L24.002888,24.3513238 L24,24.3503691 L24,24.3398676 Z M23.4320451,34.4308809 L26.96588,32.3057535 L30.75,34.5998599 L23.4233814,39 L16.1256417,34.6036787 L19.9087992,32.3296206 L23.4320451,34.4308809 Z" id="Shape" fill="#FFFFFF"></path>
        </g>
    </g>
</svg>