<?xml version="1.0" encoding="UTF-8"?>
<svg width="48px" height="48px" viewBox="0 0 48 48" version="1.1" xmlns="http://www.w3.org/2000/svg" xmlns:xlink="http://www.w3.org/1999/xlink">
    <!-- Generator: Sketch 49.1 (51147) - http://www.bohemiancoding.com/sketch -->
    <title>miota</title>
    <desc>Created with Sketch.</desc>
    <defs></defs>
    <g id="48px" stroke="none" stroke-width="1" fill="none" fill-rule="evenodd">
        <g id="miota" fill-rule="nonzero">
            <circle id="Oval" fill="#242424" cx="24" cy="24" r="24"></circle>
            <path d="M33.3849375,10.1551678 C33.3849375,11.207178 32.529839,12.0594041 31.4752173,12.0594041 C30.4189604,12.0594041 29.5629273,11.207178 29.5629273,10.1551678 C29.5629273,9.1026918 30.4189604,8.25 31.4752173,8.25 C32.529839,8.25 33.3849375,9.1026918 33.3849375,10.1551678 Z M32.0081354,16.7906561 C31.1140712,16.7906561 30.389289,16.0683086 30.389289,15.1772478 C30.389289,14.2861869 31.1140712,13.5638393 32.0081354,13.5638393 C32.9021995,13.5638393 33.6269817,14.2861869 33.6269817,15.1772478 C33.6269817,16.0683086 32.9021995,16.7906561 32.0081354,16.7906561 Z M31.506057,20.7700398 C30.7503153,20.7700398 30.1376657,20.1594481 30.1376657,19.4062452 C30.1376657,18.6530422 30.7503153,18.0424506 31.506057,18.0424506 C32.2617987,18.0424506 32.8744484,18.6530422 32.8744484,19.4062452 C32.8744484,20.1594481 32.2617987,20.7700398 31.506057,20.7700398 Z M31.4254535,22.8288876 C31.4254535,23.4720156 30.9014136,23.994528 30.2563515,23.994528 C29.6103549,23.994528 29.0863151,23.4720156 29.0863151,22.8288876 C29.0863151,22.1859926 29.6103549,21.663713 30.2563515,21.663713 C30.9014136,21.663713 31.4254535,22.1859926 31.4254535,22.8288876 Z M29.5741418,25.4151378 C29.5741418,25.9681533 29.1250982,26.4156885 28.5711531,26.4156885 C28.0158063,26.4156885 27.5658284,25.9681533 27.5658284,25.4151378 C27.5658284,24.8623549 28.0158063,24.4134228 28.5711531,24.4134228 C29.1250982,24.4134228 29.5741418,24.8623549 29.5741418,25.4151378 Z M27.5492403,27.2490539 C27.5492403,27.7247637 27.1632779,28.1091968 26.6864319,28.1091968 C26.2102868,28.1091968 25.8250253,27.7247637 25.8250253,27.2490539 C25.8250253,26.7745083 26.2100532,26.3900751 26.6864319,26.3900751 C27.1630442,26.3898423 27.5492403,26.7745083 27.5492403,27.2490539 Z M37.8592522,16.1361184 C37.6550566,17.0069726 36.7808001,17.5478799 35.9065437,17.344603 C35.0332216,17.1406276 34.490491,16.2697737 34.6956213,15.3989196 C34.9005178,14.5280656 35.7740734,13.9878568 36.6473955,14.1915993 C37.5214183,14.3958076 38.063448,15.2661958 37.8592522,16.1361184 Z M37.0826546,20.3404339 C36.909065,21.0776328 36.1693813,21.5356461 35.4282958,21.361941 C34.6893132,21.1900987 34.2302234,20.4517356 34.4038131,19.7150025 C34.5764682,18.9780364 35.31732,18.5195574 36.0556019,18.6927969 C36.7962199,18.8660363 37.255777,19.6032351 37.0826546,20.3404339 Z M35.6376315,23.6957832 C35.4916106,24.3186534 34.8657065,24.7056479 34.2398024,24.5594189 C33.6150665,24.4134228 33.2265339,23.7907855 33.3727886,23.166751 C33.5183423,22.5434152 34.1454144,22.1568864 34.7706177,22.3024169 C35.3958209,22.4479473 35.7850542,23.0717488 35.6376315,23.6957832 Z M33.7739372,26.2489687 C33.6477752,26.7824251 33.1143899,27.111906 32.5793693,26.9875647 C32.0450495,26.8620594 31.7128226,26.3300001 31.8385175,25.7974752 C31.9623432,25.2649503 32.4973638,24.9333738 33.0321509,25.0588793 C33.5664707,25.1834534 33.8984639,25.7166768 33.7739372,26.2489687 Z M31.7385224,28.0314253 C31.6308173,28.4882744 31.1724284,28.7735141 30.7133385,28.6654722 C30.2544824,28.5588276 29.9696832,28.1008143 30.0766874,27.6425681 C30.1836915,27.1861847 30.6434822,26.9011779 31.102572,27.0092198 C31.562129,27.1160973 31.8459938,27.5731791 31.7385224,28.0314253 Z M29.7063783,29.1586457 C29.6138594,29.5516943 29.2190189,29.7947883 28.8253464,29.7035116 C28.430973,29.6108377 28.1861252,29.2182549 28.2781767,28.8249735 C28.3706957,28.4323908 28.7650689,28.1883654 29.1585078,28.279642 C29.5533483,28.3723158 29.7981962,28.7651314 29.7063783,29.1586457 Z M40.3614669,21.8739753 C40.0287729,22.5597145 39.2010095,22.8461184 38.5138934,22.5143091 C37.8258428,22.1827326 37.5384735,21.3579826 37.8718685,20.6720104 C38.2038617,19.9876683 39.0302234,19.7005659 39.7187412,20.0316766 C40.4060909,20.3639517 40.6946283,21.1887016 40.3614669,21.8739753 Z M38.920182,25.1964929 C38.6358499,25.7804773 37.9340149,26.024037 37.3482958,25.7413587 C36.762343,25.4598447 36.5186634,24.7580388 36.8004253,24.1747528 C37.0847572,23.5916999 37.7879941,23.3486058 38.3730123,23.6291885 C38.9591988,23.9123325 39.2040466,24.6139054 38.920182,25.1964929 Z M37.1081206,27.7182439 C36.86374,28.2223612 36.2551248,28.4321578 35.7493083,28.1885982 C35.2444263,27.9452713 35.0329881,27.3398647 35.2778359,26.8350489 C35.5222165,26.3316301 36.1308318,26.1202035 36.6357138,26.3649274 C37.1419975,26.60872 37.3529685,27.2145922 37.1081206,27.7182439 Z M35.0902282,29.4988376 C34.8773881,29.9363602 34.3505446,30.118215 33.9113137,29.9077199 C33.4723164,29.6962932 33.2886804,29.1686582 33.5003524,28.7311356 C33.7136598,28.2940787 34.2416715,28.1112924 34.6795006,28.3222533 C35.1184978,28.5341456 35.3026011,29.0608493 35.0902282,29.4988376 Z M33.0573832,30.5971848 C32.876551,30.9709068 32.425872,31.1269155 32.0506566,30.9459921 C31.6756749,30.766 31.5186732,30.3154378 31.7002063,29.9421814 C31.8817396,29.5691578 32.332185,29.4124507 32.7074004,29.5933741 C33.083083,29.7738319 33.2389165,30.2225313 33.0573832,30.5971848 Z M31.1481304,31.1502003 C30.9941659,31.4680387 30.6105399,31.6012282 30.2920974,31.447548 C29.9745895,31.2943336 29.8404838,30.9124618 29.9944483,30.5953219 C30.1484128,30.278182 30.532039,30.1449927 30.8502478,30.2984398 C31.1684566,30.4521201 31.3020949,30.8342247 31.1481304,31.1502003 Z M32.7020268,38.4344051 C31.7873517,37.9109613 31.472881,36.745088 31.9999581,35.8339512 C32.5277362,34.9230473 33.6947355,34.6096329 34.6101114,35.1349395 C35.5240857,35.6602461 35.8399581,36.8247222 35.3128809,37.7356262 C34.7851029,38.6472288 33.6167019,38.960643 32.7020268,38.4344051 Z M28.2162639,36.1361887 C27.4422362,35.6921463 27.1740249,34.7064979 27.6219003,33.9339061 C28.067673,33.1624785 29.0564099,32.897031 29.8325403,33.3413063 C30.6061008,33.7855815 30.8719757,34.7728599 30.4255022,35.5442874 C29.9797295,36.3164136 28.9907589,36.5818611 28.2162639,36.1361887 Z M24.9140883,33.3762336 C24.2587462,32.9990187 24.0335236,32.1663519 24.4110753,31.5125129 C24.7888607,30.8603037 25.6255021,30.6358377 26.2801432,31.0118882 C26.9345507,31.3884045 27.1609414,32.2215371 26.7826888,32.8737462 C26.4060717,33.5280509 25.5696638,33.7513527 24.9140883,33.3762336 Z M22.6613942,30.4155629 C22.1025429,30.0935331 21.9100289,29.3814819 22.2322095,28.8231108 C22.5553247,28.2661368 23.2690749,28.0740366 23.8297953,28.3958336 C24.3886466,28.7173976 24.5809269,29.4294488 24.2578118,29.9875869 C23.9360985,30.5450267 23.2209464,30.7366611 22.6613942,30.4155629 Z M21.3380942,27.5268423 C20.8572764,27.250218 20.6920976,26.6387576 20.9689532,26.1593222 C21.2462762,25.6796538 21.8609658,25.5164269 22.3413164,25.7923526 C22.8204986,26.0680454 22.9861448,26.6802045 22.7097563,27.15801 C22.4329007,27.6383768 21.8179773,27.8025351 21.3380942,27.5268423 Z M20.7542441,24.860958 C20.341881,24.6243837 20.1995982,24.0993099 20.4379043,23.6871678 C20.6757432,23.275957 21.2025867,23.1353164 21.615417,23.3718907 C22.027313,23.6089306 22.1693621,24.13447 21.9317568,24.5461465 C21.693918,24.9564259 21.1663735,25.097765 20.7542441,24.860958 Z M26.3785029,39.75 C25.481213,39.75 24.7538157,39.0250462 24.7538157,38.1307704 C24.7538157,37.2364945 25.481213,36.5115408 26.3785029,36.5115408 C27.2757929,36.5115408 28.0031901,37.2364945 28.0031901,38.1307704 C28.0031901,39.0250462 27.2757929,39.75 26.3785029,39.75 Z M22.0016132,36.543441 C21.4469673,36.0248871 21.4186977,35.1579915 21.9378314,34.6052088 C22.4576658,34.0521931 23.3279505,34.024717 23.8825964,34.5414082 C24.4367751,35.0601951 24.465512,35.9268577 23.9463783,36.4798734 C23.4270111,37.0326561 22.5571937,37.0601322 22.0016132,36.543441 Z M19.8049912,33.6211903 C19.3365561,33.1825035 19.3124917,32.4487972 19.7514891,31.98147 C20.1914209,31.5139099 20.9271328,31.4899264 21.3960352,31.9281477 C21.8654049,32.3656704 21.8892355,33.0996093 21.4495372,33.5669365 C21.0110073,34.0342638 20.2745944,34.0580145 19.8049912,33.6211903 Z M18.5167362,30.735264 C18.1155874,30.3622404 18.0952614,29.7349461 18.4704768,29.3353779 C18.8468602,28.9365081 19.4741662,28.915086 19.8750813,29.289041 C20.2762299,29.6636945 20.2965561,30.2902902 19.9215742,30.6900913 C19.546359,31.0889611 18.9176512,31.1101503 18.5167362,30.735264 Z M17.9819492,28.0894047 C17.6380407,27.7683063 17.6209854,27.2299602 17.9424651,26.8869741 C18.2648793,26.5432895 18.80504,26.5255931 19.1498829,26.8464585 C19.494726,27.1680225 19.5113139,27.7063686 19.189367,28.0498203 C18.8667192,28.3930394 18.3272594,28.4107358 17.9819492,28.0894047 Z M18.0176951,25.7699991 C17.721915,25.4947721 17.7064953,25.0321017 17.9835846,24.7375482 C18.2604402,24.4427618 18.7244364,24.4276266 19.0202163,24.7042507 C19.3152954,24.9799436 19.3311825,25.4419154 19.053626,25.7367018 C18.7770039,26.0312553 18.3125405,26.047089 18.0176951,25.7699991 Z M19.0304963,38.6097401 C18.6024797,37.9798845 18.764855,37.1218371 19.3968334,36.6943271 C20.0290457,36.264954 20.8895178,36.4286466 21.3189361,37.0582695 C21.7485882,37.6876595 21.5852784,38.5454739 20.9532997,38.972984 C20.3210876,39.4021241 19.4617836,39.2388972 19.0304963,38.6097401 Z M16.8612093,35.7056516 C16.4951057,35.1696339 16.6350521,34.4398863 17.1726428,34.0757109 C17.7095325,33.7117685 18.4422071,33.8500806 18.8078435,34.384934 C19.1737136,34.9209516 19.0340007,35.651165 18.4968774,36.0151074 C17.9585858,36.3797484 17.2275467,36.2414364 16.8612093,35.7056516 Z M15.5741225,32.8809645 C15.2580164,32.418527 15.3788049,31.7886714 15.8425673,31.47386 C16.3072643,31.1585829 16.9401774,31.2782672 17.255349,31.7418689 C17.5721561,32.2050048 17.4513675,32.8350933 16.9873715,33.1503704 C16.5224408,33.4635518 15.8892941,33.3452646 15.5741225,32.8809645 Z M15.0341955,30.2509388 C14.7606107,29.8488092 14.8643439,29.3023134 15.2671281,29.0284833 C15.6708467,28.7548862 16.2189509,28.8587367 16.4937039,29.2608663 C16.7686905,29.6625302 16.6642563,30.2108888 16.2598367,30.4833218 C15.8570526,30.7571519 15.3089484,30.6519042 15.0341955,30.2509388 Z M15.0935384,27.947134 C14.859204,27.6036823 14.9475174,27.1365879 15.2930613,26.902575 C15.6372035,26.6692606 16.1061059,26.7589074 16.3404404,27.100962 C16.5754755,27.4453452 16.4864612,27.9140695 16.1409173,28.1455212 C15.7963079,28.3797669 15.3278727,28.2908187 15.0935384,27.947134 Z M15.5657116,26.0214756 C15.3671232,25.7290178 15.4432877,25.3329422 15.7341614,25.1333909 C16.0271377,24.9359352 16.4259501,25.0116109 16.6247722,25.3033704 C16.8238279,25.5941984 16.7481307,25.9923696 16.4558551,26.1898253 C16.161477,26.3884452 15.7640664,26.3130023 15.5657116,26.0214756 Z M8.45624474,23.7090556 C9.37045255,23.1835161 10.53862,23.4962319 11.0661644,24.4073688 C11.5941761,25.3182728 11.2790045,26.4832146 10.3657312,27.0092198 C9.45082246,27.5340606 8.28335595,27.221112 7.75651245,26.3116052 C7.22779988,25.3993041 7.54320507,24.2341293 8.45624474,23.7090556 Z M12.7008979,20.9931088 C13.4742247,20.5469707 14.4652979,20.8114869 14.9115379,21.583613 C15.3573107,22.3555063 15.0923702,23.3413875 14.3178752,23.7865943 C13.5438475,24.2308695 12.5537088,23.9661205 12.1074688,23.19609 C11.6607616,22.4234982 11.9273374,21.4373841 12.7008979,20.9931088 Z M16.7521024,19.5280249 C17.4065098,19.1522073 18.2445531,19.3759748 18.6216377,20.0277183 C18.9991893,20.6813244 18.7742003,21.515854 18.1204938,21.8921374 C17.464451,22.2677223 16.6292112,22.0434891 16.250725,21.3910471 C15.8731733,20.7393038 16.0981623,19.9047741 16.7521024,19.5280249 Z M20.4519224,19.0693131 C21.0112409,18.7475163 21.7256921,18.938918 22.0481063,19.4965905 C22.3716886,20.0547287 22.1789411,20.7663143 21.6207906,21.0881111 C21.0607712,21.4101408 20.3456192,21.2192049 20.022504,20.6601353 C19.7000898,20.103394 19.8921365,19.3913429 20.4519224,19.0693131 Z M23.6230296,19.3752764 C24.1047819,19.0993506 24.7173689,19.263509 24.9946918,19.7427114 C25.2722484,20.2209826 25.1068359,20.8338403 24.6269528,21.1090674 C24.1468359,21.3861573 23.5321463,21.2219989 23.2559915,20.7427965 C22.9779675,20.2638268 23.1429128,19.6519005 23.6230296,19.3752764 Z M26.229912,20.2072446 C26.642976,19.9709031 27.1702868,20.1117766 27.407892,20.5225216 C27.6464319,20.9339652 27.5046164,21.4595046 27.0917859,21.6965446 C26.6791892,21.932886 26.1523457,21.7934097 25.9140396,21.3817332 C25.6764344,20.9702896 25.8182498,20.444983 26.229912,20.2072446 Z M11.42082,16.8581823 C12.2794231,16.6004187 13.1861546,17.0849769 13.4450205,17.9409285 C13.7045873,18.7968803 13.2181624,19.7005659 12.3595593,19.9583293 C11.5016572,20.2163256 10.594692,19.7320005 10.3358261,18.8765145 C10.075792,18.020097 10.5617497,17.1168771 11.42082,16.8581823 Z M15.462212,15.4291901 C16.1897468,15.2103123 16.9560645,15.6210573 17.1766145,16.3452167 C17.39623,17.0705402 16.9838669,17.8356809 16.2572667,18.0552572 C15.5294985,18.2732036 14.7627134,17.8629242 14.5419297,17.1382992 C14.3232488,16.4139071 14.7342101,15.6478349 15.462212,15.4291901 Z M19.1005863,15.0000499 C19.714575,14.813771 20.3643098,15.1607154 20.5498148,15.7740389 C20.7355533,16.3878279 20.3879067,17.0339829 19.7718153,17.2195633 C19.1578265,17.404678 18.5076245,17.0577336 18.3223532,16.4455744 C18.1359137,15.8320182 18.484962,15.1853974 19.1005863,15.0000499 Z M22.252302,15.3346535 C22.7765756,15.1765493 23.3305205,15.4720341 23.4903258,15.996875 C23.6484957,16.5203189 23.3513139,17.0731016 22.8258722,17.2316715 C22.3001969,17.3890772 21.7446164,17.0926608 21.5871474,16.5689842 C21.4285103,16.044609 21.7256921,15.4918263 22.252302,15.3346535 Z M24.8171304,16.199919 C25.2678093,16.0644012 25.7437208,16.3177405 25.8810972,16.767837 C26.0170719,17.2183991 25.7610096,17.6929447 25.3098633,17.8289283 C24.8580162,17.9649119 24.382572,17.7097098 24.2458965,17.2596134 C24.1092208,16.810914 24.3648159,16.3356699 24.8171304,16.199919 Z M26.8116594,17.3928027 C27.2006592,17.2752142 27.6078824,17.4945576 27.7256336,17.8801549 C27.8424503,18.2676151 27.6233021,18.6744018 27.2354706,18.791059 C26.847639,18.9074833 26.4397149,18.6888384 26.3221973,18.3025425 C26.2056141,17.915548 26.4247623,17.5080628 26.8116594,17.3928027 Z M15.1570868,11.8323767 C15.9189654,11.7771915 16.582251,12.3469722 16.6373884,13.1072231 C16.6920586,13.8663098 16.1187221,14.5266686 15.3573107,14.5825522 C14.5956654,14.6377374 13.9323799,14.0663268 13.8777097,13.307473 C13.8232731,12.5469892 14.3956752,11.8866304 15.1570868,11.8323767 Z M18.7662567,11.4155776 C19.4141225,11.3690078 19.9788146,11.8547302 20.0253077,12.5004195 C20.0720343,13.1475059 19.5853758,13.7086712 18.9354074,13.7554738 C18.2877753,13.8032078 17.7240177,13.3163212 17.6775247,12.6715633 C17.6298635,12.0244768 18.1174566,11.4630787 18.7662567,11.4155776 Z M21.8626013,11.7208422 C22.4223872,11.6803265 22.9099802,12.1001526 22.9501652,12.6587566 C22.9905837,13.2168948 22.5698099,13.7016858 22.0100241,13.7429 C21.4493037,13.7822514 20.9626451,13.3628909 20.921292,12.8049855 C20.8808734,12.2456831 21.3016473,11.761125 21.8626013,11.7208422 Z M24.4176171,12.573534 C24.9035748,12.5383738 25.3264513,12.9030148 25.3619636,13.3875729 C25.396775,13.8723638 25.0311385,14.2938199 24.545181,14.3287472 C24.0582888,14.3641402 23.6356458,13.999732 23.6006009,13.5158725 C23.5650885,13.0301502 23.9309586,12.6096255 24.4176171,12.573534 Z M26.3876147,13.7785258 C26.8034822,13.748954 27.1651469,14.0593413 27.1952856,14.4742776 C27.2251907,14.8882825 26.9128227,15.2480337 26.4974223,15.278537 C26.0815548,15.3085743 25.7198901,14.9974886 25.6904523,14.5832508 C25.6598463,14.169013 25.9722143,13.8094947 26.3876147,13.7785258 Z M27.8228252,15.1516344 C28.1760789,15.1274181 28.4830734,15.3905372 28.5083058,15.7421386 C28.5333045,16.0935072 28.2685979,16.3997033 27.9160449,16.4253165 C27.5639592,16.4509299 27.2569649,16.1859482 27.2310315,15.8343467 C27.2055654,15.4832109 27.4707394,15.1777134 27.8228252,15.1516344 Z" id="Shape" fill="#FFFFFF"></path>
        </g>
    </g>
</svg>