<?xml version="1.0" encoding="UTF-8"?>
<svg width="48px" height="48px" viewBox="0 0 48 48" version="1.1" xmlns="http://www.w3.org/2000/svg" xmlns:xlink="http://www.w3.org/1999/xlink">
    <!-- Generator: Sketch 49.1 (51147) - http://www.bohemiancoding.com/sketch -->
    <title>mln</title>
    <desc>Created with Sketch.</desc>
    <defs></defs>
    <g id="48px" stroke="none" stroke-width="1" fill="none" fill-rule="evenodd">
        <g id="mln" fill-rule="nonzero">
            <circle id="Oval" fill="#0B1529" cx="24" cy="24" r="24"></circle>
            <path d="M12.9408299,30.185577 L20.8480176,34.8233009 L20.8480176,37.4170235 L10.5,31.3286468 L10.5,15.4428822 L24,7.5 L37.5,15.4428822 L37.5,31.3286468 L27.1519824,37.4170235 L27.1519824,34.8233009 L35.0586582,30.1858771 L33.0178263,29.0076022 L33.2854474,28.5440688 L35.2995594,29.706917 L35.2995594,17.9288224 L25.0704846,23.9920914 L25.0704846,38.6416969 L25.0704846,41.3330404 L24,42 L22.9295154,41.3330404 L22.9295154,38.6416969 L22.9295154,23.9920914 L12.7004405,17.9288224 L12.7004405,29.7063213 L14.7135207,28.5440688 L14.9811419,29.0076022 L12.9408299,30.185577 Z M23.7026432,10.2210682 L13.7709251,16.0492092 L24,22.112478 L34.2290749,16.0492092 L24.2378855,10.1861691 L24.2378855,12.5931459 L23.7026432,12.5931459 L23.7026432,10.2210682 Z M23.7026432,14.1089631 L24.2378855,14.1089631 L24.2378855,16.5949034 L23.7026432,16.5949034 L23.7026432,14.1089631 Z M23.7026432,18.1107205 L24.2378855,18.1107205 L24.2378855,20.5966608 L23.9702643,20.7179262 L23.7026432,20.5966608 L23.7026432,18.1107205 Z M32.0431126,27.7861602 L31.7754915,28.2496937 L29.622604,27.0067236 L29.8902252,26.5431901 L32.0431126,27.7861602 Z M28.6448733,25.7852816 L28.3772522,26.248815 L26.2243647,25.0058448 L26.2531564,24.7134454 L26.4919858,24.5423114 L28.6448733,25.7852816 Z M15.9558555,27.7861602 L18.1087428,26.5431901 L18.3763639,27.0067236 L16.2234767,28.2496937 L15.9558555,27.7861602 Z M19.3540948,25.7852816 L21.5069821,24.5423114 L21.7458117,24.7134454 L21.7746033,25.0058448 L19.621716,26.248815 L19.3540948,25.7852816 Z" id="Shape" fill="#FFFFFF"></path>
        </g>
    </g>
</svg>