<?xml version="1.0" encoding="UTF-8"?>
<svg width="48px" height="48px" viewBox="0 0 48 48" version="1.1" xmlns="http://www.w3.org/2000/svg" xmlns:xlink="http://www.w3.org/1999/xlink">
    <!-- Generator: Sketch 49.1 (51147) - http://www.bohemiancoding.com/sketch -->
    <title>mnx</title>
    <desc>Created with Sketch.</desc>
    <defs></defs>
    <g id="48px" stroke="none" stroke-width="1" fill="none" fill-rule="evenodd">
        <g id="mnx" fill-rule="nonzero">
            <circle id="Oval" fill="#00ADEF" cx="24" cy="24" r="24"></circle>
            <path d="M22.2941157,40.4786431 C13.9804062,39.6071014 7.5,32.561931 7.5,24 C7.5,15.438069 13.9804062,8.39289856 22.2941157,7.52135692 L22.2941157,12.5758339 C16.7517078,13.4167211 12.5038921,18.2112528 12.5038921,24 C12.5038921,29.7887472 16.7517078,34.5832789 22.2941157,35.4241662 L22.2941157,40.4786431 Z M25.5575235,7.5 C33.4013007,8.2177956 39.6612386,14.4253342 40.4786879,22.2558584 L35.4348099,22.2558584 C34.6706805,17.1981822 30.6348942,13.2162933 25.5575235,12.5449502 L25.5575235,7.5 Z M40.5,25.5261238 C39.7770746,33.4591935 33.4739579,39.7755555 25.5575235,40.5 L25.5575235,35.4550498 C30.7076304,34.7740894 34.7860963,30.6870529 35.4656289,25.5261238 L40.5,25.5261238 Z" id="Shape" fill="#FFFFFF"></path>
        </g>
    </g>
</svg>