<?xml version="1.0" encoding="UTF-8"?>
<svg width="48px" height="48px" viewBox="0 0 48 48" version="1.1" xmlns="http://www.w3.org/2000/svg" xmlns:xlink="http://www.w3.org/1999/xlink">
    <!-- Generator: Sketch 49.1 (51147) - http://www.bohemiancoding.com/sketch -->
    <title>mona</title>
    <desc>Created with Sketch.</desc>
    <defs></defs>
    <g id="48px" stroke="none" stroke-width="1" fill="none" fill-rule="evenodd">
        <g id="mona" fill-rule="nonzero">
            <circle id="Oval" fill="#F0DBB0" cx="24" cy="24" r="24"></circle>
            <path d="M35.2942065,20.1203589 L33.1586903,10.5 L28.9632242,17.1205272 C25.7017632,16.3330903 22.299748,16.3330903 19.0382871,17.1205272 L14.8518892,10.5 L12.7088161,20.1203589 C10.4040302,21.9632642 9,24.371004 9,27.0134604 C9,32.802636 15.7133502,37.4969713 23.9954659,37.4969713 C32.2775819,37.4969713 38.990932,32.802636 38.990932,27.0134604 C38.9894206,24.371004 37.5959697,21.9632642 35.2942065,20.1203589 Z M15.6649874,24.526977 L14.665995,24.526977 L17.1052896,21.7118901 L18.8826196,21.7118901 L15.6649874,24.526977 Z M23.9198992,31.4019069 L19.7712846,24.0938866 L20.7959697,23.5093662 L21.7209067,25.1372406 L26.2534005,25.1372406 L27.2191435,23.5017948 L28.2332493,24.1044869 L23.9198992,31.4019069 Z M32.3395466,24.526977 L29.120403,21.7118901 L30.9083124,21.7118901 L33.3460957,24.526977 L32.3395466,24.526977 Z M23.9395465,29.048682 L22.3904281,26.3199102 L25.552141,26.3199102 L23.9395465,29.048682 Z" id="Shape" fill="#FFFFFF"></path>
        </g>
    </g>
</svg>