<?xml version="1.0" encoding="UTF-8"?>
<svg width="48px" height="48px" viewBox="0 0 48 48" version="1.1" xmlns="http://www.w3.org/2000/svg" xmlns:xlink="http://www.w3.org/1999/xlink">
    <!-- Generator: Sketch 49.1 (51147) - http://www.bohemiancoding.com/sketch -->
    <title>music</title>
    <desc>Created with Sketch.</desc>
    <defs></defs>
    <g id="48px" stroke="none" stroke-width="1" fill="none" fill-rule="evenodd">
        <g id="music" fill-rule="nonzero">
            <circle id="Oval" fill="#FFFFFF" cx="24" cy="24" r="24"></circle>
            <path d="M27.9757576,0.339393939 C26.6666667,0.121212121 25.3575757,0 24,0 C10.7393939,0 0,10.7393939 0,24 C0,29.0909091 1.6,33.7939394 4.29090909,37.6969696 C5.93939394,35.2727273 9.74545455,33.6 14.1575758,33.6 C17.1878788,33.6 19.9272727,34.4 21.8909091,35.6848485 L27.9757576,0.339393939 Z M40.7272728,6.81212121 C44.8727272,15.9757577 41.2363637,20.8727273 41.2363637,20.8727273 C38.4242424,12.4121212 30.2787879,11.1757576 30.2787879,11.1757576 C30.2787879,11.1757576 24.9212121,40.0484849 24.9212121,40.4121211 C24.9212121,43.5393939 21.6,46.1818182 17.0909091,46.9818181 C19.2727272,47.6363637 21.6,48 24,48 C37.260606,48 48,37.260606 48,24 C48,17.260606 45.2121212,11.1757576 40.7272728,6.81212121 Z" id="Shape" fill="#FBBF02"></path>
        </g>
    </g>
</svg>