<?xml version="1.0" encoding="UTF-8"?>
<svg width="48px" height="48px" viewBox="0 0 48 48" version="1.1" xmlns="http://www.w3.org/2000/svg" xmlns:xlink="http://www.w3.org/1999/xlink">
    <!-- Generator: Sketch 49.1 (51147) - http://www.bohemiancoding.com/sketch -->
    <title>nas</title>
    <desc>Created with Sketch.</desc>
    <defs></defs>
    <g id="48px" stroke="none" stroke-width="1" fill="none" fill-rule="evenodd">
        <g id="nas" fill-rule="nonzero">
            <circle id="Oval" fill="#222222" cx="24" cy="24" r="24"></circle>
            <path d="M19.096066,27.9825429 C20.6892951,31.2145462 22.2282639,34.3368715 23.8145034,37.5550732 C24.6390757,35.118787 25.4310919,32.7787453 26.2378229,30.3954579 C23.8792479,29.5984525 21.5513898,28.8121204 19.096066,27.9825429 M10.4650025,23.8293183 C12.8997258,24.6555834 15.2391717,25.4496446 17.6120934,26.254931 C18.4180884,23.8771644 19.2104725,21.5400669 20.0379877,19.0995483 C16.8035232,20.6976076 13.6808899,22.2404601 10.4650025,23.8293183 M19.5121228,26.8644165 C19.6239543,26.9255124 19.671225,26.9606608 19.7241978,26.9788791 C22.0275927,27.7622668 24.3297002,28.5504391 26.6397168,29.3143203 C26.8253054,29.3757841 27.092928,29.3238895 27.2777808,29.233534 C29.919061,27.9451861 32.5527999,26.6415642 35.1876424,25.3403346 C35.937354,24.9700794 36.6843066,24.5954077 37.5017055,24.1881639 C37.3223707,24.1189711 37.228013,24.0788541 37.131448,24.0459138 C34.899787,23.2895776 32.6703333,22.5269845 30.4324185,21.7897867 C30.218872,21.7193058 29.9179575,21.7366039 29.7165507,21.8345044 C26.9089948,23.2005102 24.1113716,24.5874948 21.311541,25.9698787 C20.7288406,26.2576914 20.1476119,26.5484484 19.5121228,26.8644165 M29.2603964,20.7673525 C27.5641648,17.3272188 25.8918446,13.9358511 24.1755642,10.4552321 C22.4215776,15.6310749 20.708608,20.6863822 18.9566447,25.8552321 C22.4482479,24.1311166 25.8320663,22.460184 29.2603964,20.7673525 M7.5,24.0035884 C9.14049985,23.190757 10.689401,22.4211711 12.2405093,21.6558177 C14.8773751,20.354404 17.5138729,19.0524382 20.155705,17.7609619 C20.4376746,17.6231284 20.5997196,17.4424174 20.7010668,17.1404349 C21.7336675,14.0615391 22.780983,10.9874278 23.8251716,7.91239648 C23.8636135,7.79903806 23.9103325,7.68825595 23.9822505,7.5 C24.0878281,7.70426599 24.164896,7.84762024 24.236814,7.99355082 C26.2551124,12.0875199 28.2686287,16.1840652 30.3032975,20.2699372 C30.4013339,20.4668424 30.6643582,20.6322793 30.8861815,20.708833 C33.9400239,21.7618152 37.0003038,22.7965788 40.0589283,23.8363111 C40.1740704,23.8753242 40.288293,23.9172814 40.5,23.992179 C40.2172947,24.1357173 40.0090824,24.2439231 39.7988467,24.3477123 C35.8569753,26.2933918 31.9174948,28.2438561 27.9690017,30.1755499 C27.5797991,30.3658302 27.3669885,30.6115014 27.2295904,31.0229778 C26.2113364,34.0740861 25.1675157,37.1165454 24.1310525,40.1613969 C24.1027266,40.2445755 24.0677793,40.3255458 24.000092,40.5 C23.7339407,39.9672522 23.5042082,39.5132664 23.279258,39.0570723 C21.4439729,35.3335425 19.6066646,31.6113007 17.7803922,27.8833542 C17.6284634,27.5734588 17.4382766,27.3879631 17.1005753,27.2747887 C14.0373524,26.2495942 10.9803833,25.2047094 7.9221266,24.1646089 C7.80919164,24.1263321 7.69901568,24.0797742 7.5,24.0035884" id="Shape" fill="#FFFFFF"></path>
        </g>
    </g>
</svg>