<?xml version="1.0" encoding="UTF-8"?>
<svg width="48px" height="48px" viewBox="0 0 48 48" version="1.1" xmlns="http://www.w3.org/2000/svg" xmlns:xlink="http://www.w3.org/1999/xlink">
    <!-- Generator: Sketch 49.1 (51147) - http://www.bohemiancoding.com/sketch -->
    <title>ndz</title>
    <desc>Created with Sketch.</desc>
    <defs></defs>
    <g id="48px" stroke="none" stroke-width="1" fill="none" fill-rule="evenodd">
        <g id="ndz" fill-rule="nonzero">
            <circle id="Oval" fill="#622FBA" cx="24" cy="24" r="24"></circle>
            <path d="M27.8793103,26.063541 C27.7485403,26.1041034 27.6217783,26.1537414 27.4997647,26.2117167 L21.9861919,20.4793249 C22.2307233,20.0579523 22.3706896,19.5686559 22.3706896,19.0467492 C22.3706896,17.7334176 21.4843776,16.6265839 20.2758621,16.2889632 L20.2758621,12.2788005 L18.8002389,11.4544928 L22.2083236,9.48112365 C23.3162158,8.83962544 24.6837842,8.83962544 25.7916763,9.48112365 L32.5695711,13.4056998 L29.8905754,14.9551102 C29.5364266,14.7992199 29.1447268,14.7126548 28.7327586,14.7126548 C27.1473205,14.7126548 25.862069,15.9947313 25.862069,17.5762528 C25.862069,18.861315 26.7106361,19.9486734 27.8793103,20.3111734 L27.8793103,26.063541 Z M29.5862068,26.063541 L29.5862068,20.3111734 C30.7548813,19.9486734 31.6034482,18.861315 31.6034482,17.5762529 C31.6034482,17.0578464 31.465353,16.5716142 31.2238563,16.1521641 L34.2701032,14.390352 L35.7227109,15.2314493 C36.822897,15.8684855 37.5,17.0415177 37.5,18.3104747 L37.5,29.6895254 C37.5,30.9584823 36.822897,32.1315146 35.7227109,32.7685508 L29.5862068,36.321745 L29.5862068,31.5333823 C30.7548813,31.1708821 31.6034482,30.0835239 31.6034482,28.7984617 C31.6034482,27.5133996 30.7548813,26.4260412 29.5862068,26.063541 Z M26.2457495,27.3672951 C26.0017235,27.7883493 25.8620689,28.2771367 25.8620689,28.7984617 C25.8620689,30.0835239 26.7106361,31.1708821 27.8793103,31.5333823 L27.8793103,37.3100823 L25.7916763,38.5188763 C24.6837841,39.1603746 23.3162158,39.1603746 22.2083236,38.5188763 L14.9122214,34.2942445 L17.6536401,32.152174 C18.1527625,32.5708043 18.7968592,32.822978 19.5,32.822978 C21.085438,32.822978 22.3706896,31.5409014 22.3706896,29.9593798 C22.3706896,28.6460482 21.4843776,27.5392146 20.2758621,27.2015939 L20.2758621,21.8045352 C20.4336535,21.7604533 20.5859523,21.7032582 20.7315025,21.6342024 L26.2457495,27.3672951 Z M18.5689655,27.2497468 C17.4405083,27.6354816 16.6293104,28.702932 16.6293104,29.9593798 C16.6293104,30.2196674 16.6641236,30.4718439 16.7293587,30.7115289 L13.3223541,33.3736704 L12.2772891,32.7685507 C11.1771031,32.1315145 10.5,30.9584823 10.5,29.6895253 L10.5,18.3104746 C10.5,17.0415177 11.1771031,15.8684854 12.2772891,15.2314492 L17.084865,12.4477386 L18.5689655,13.2767819 L18.5689655,16.3371162 C17.4405083,16.722851 16.6293104,17.7903014 16.6293104,19.0467492 C16.6293104,20.303197 17.4405083,21.3706474 18.5689655,21.7563822 L18.5689655,27.2497468 Z M19.5,20.2850619 C18.8144052,20.2850619 18.2586207,19.7306504 18.2586207,19.0467492 C18.2586207,18.3628481 18.8144052,17.8084365 19.5,17.8084365 C20.1855948,17.8084365 20.7413793,18.3628481 20.7413793,19.0467492 C20.7413793,19.7306504 20.1855948,20.2850619 19.5,20.2850619 Z M19.5,31.1976925 C18.8144052,31.1976925 18.2586207,30.6432811 18.2586207,29.9593798 C18.2586207,29.2754787 18.8144052,28.7210671 19.5,28.7210671 C20.1855948,28.7210671 20.7413793,29.2754787 20.7413793,29.9593798 C20.7413793,30.6432811 20.1855948,31.1976925 19.5,31.1976925 Z M28.7327586,18.8145656 C28.0471638,18.8145656 27.4913793,18.2601542 27.4913793,17.5762529 C27.4913793,16.8923517 28.0471638,16.3379402 28.7327586,16.3379402 C29.4183536,16.3379402 29.9741379,16.8923517 29.9741379,17.5762529 C29.9741379,18.2601542 29.4183535,18.8145656 28.7327586,18.8145656 Z M28.7327586,30.0367744 C28.0471638,30.0367744 27.4913793,29.4823629 27.4913793,28.7984618 C27.4913793,28.1145604 28.0471638,27.560149 28.7327586,27.560149 C29.4183536,27.560149 29.9741379,28.1145604 29.9741379,28.7984618 C29.9741379,29.4823629 29.4183535,30.0367744 28.7327586,30.0367744 Z" id="Shape" fill="#FFFFFF"></path>
        </g>
    </g>
</svg>