<?xml version="1.0" encoding="UTF-8"?>
<svg width="48px" height="48px" viewBox="0 0 48 48" version="1.1" xmlns="http://www.w3.org/2000/svg" xmlns:xlink="http://www.w3.org/1999/xlink">
    <!-- Generator: Sketch 49.1 (51147) - http://www.bohemiancoding.com/sketch -->
    <title>nebl</title>
    <desc>Created with Sketch.</desc>
    <defs></defs>
    <g id="48px" stroke="none" stroke-width="1" fill="none" fill-rule="evenodd">
        <g id="nebl" fill-rule="nonzero">
            <circle id="Oval" fill="#50479E" cx="24" cy="24" r="24"></circle>
            <path d="M30.5391995,20.4913558 L30.5391995,27.5938077 L30.5393472,27.6643847 L24.0791502,31.2157263 L24.0791502,24.0426285 L30.5391995,20.4913558 Z M38.25,18.6514138 L38.25,29.3481858 C38.2488223,30.1080641 38.0395521,30.8526285 37.6455933,31.4986097 C37.254813,32.1427132 36.6896134,32.6909568 35.9894922,33.0757671 L31.1713678,35.7244616 L31.1713678,28.6631762 L31.7802046,28.3283958 L31.7802046,19.8111457 L37.6820673,16.5666863 C38.0475466,17.1946994 38.25,17.9091073 38.25,18.6514138 Z M12.0102124,33.0759171 C11.3349436,32.705149 10.7863672,32.1801987 10.3980012,31.5652567 C9.98183939,30.9067443 9.75,30.1432891 9.75,29.3483358 L9.75,24.0509469 L9.75,22.5 L16.3853316,27.6819337 L16.3853316,27.9709666 L16.3969974,28.2674992 L16.9119171,28.5721314 L23.5360371,32.2138426 L24.0826942,32.5143499 L24.0826942,38.9990692 C23.2660029,39.0153552 22.4589527,38.8176637 21.7393446,38.425053 L12.0102124,33.0759171 Z M11.7339249,15.089573 L18.75,11.25 L23.5200004,15.8699999 L16.3853316,19.8040962 L16.3853316,20.403161 L9.76476684,24.0423974 L9.75,18.6514139 C9.75125007,17.8899681 9.96141958,17.1439468 10.3569171,16.4970903 C10.7052109,15.9281716 11.176013,15.446901 11.7339249,15.089573 Z M35.9894922,14.9235327 C36.7129197,15.3216093 37.2908939,15.8941257 37.6820673,16.5665362 L31.7802046,19.8109958 L31.7802046,19.7565489 L31.1712203,19.4219186 L24.6708574,15.8483784 L31.1712203,12.2749882 L35.9894922,14.9235327 Z M9.76491451,24.0425473 L16.3853316,20.4033109 L16.3853316,27.6817838 L9.76491451,24.0425473 Z M24.082842,15.5704448 L24.082842,9.00083039 C24.8432824,9.01210338 25.5899077,9.20892348 26.2597695,9.5746967 L31.1707771,12.2745382 L24.6705622,15.8480784 L24.082842,15.5704448 Z M23.5361736,15.8711771 L16.9238783,12.2364404 L22.028184,9.43040516 C22.6731408,9.13425955 23.3748711,8.98752519 24.0825467,9.00083039 L24.0825467,15.5711946 L23.5361736,15.8711771 Z M24.124189,32.5371486 L24.6708574,32.2371663 L31.0936942,35.767809 L26.2602125,38.424753 C25.5902188,38.7906536 24.8434556,38.9876244 24.082842,38.9990693 L24.082842,32.5145 L24.124189,32.5371486 Z M31.1712203,28.6633261 L31.1712203,35.7244615 L31.0936943,35.767209 L24.6708574,32.2365663 L31.1712203,28.6633261 Z" id="Shape" fill="#FFFFFF"></path>
        </g>
    </g>
</svg>