<?xml version="1.0" encoding="UTF-8"?>
<svg width="48px" height="48px" viewBox="0 0 48 48" version="1.1" xmlns="http://www.w3.org/2000/svg" xmlns:xlink="http://www.w3.org/1999/xlink">
    <!-- Generator: Sketch 49.1 (51147) - http://www.bohemiancoding.com/sketch -->
    <title>ngc</title>
    <desc>Created with Sketch.</desc>
    <defs></defs>
    <g id="48px" stroke="none" stroke-width="1" fill="none" fill-rule="evenodd">
        <g id="ngc" fill-rule="nonzero">
            <circle id="Oval" fill="#F80000" cx="24" cy="24" r="24"></circle>
            <path d="M30.75,25.2626262 L20.7059472,39 L21.0759912,27.8383839 L18.75,27.8383839 L19.7015418,18.040404 L30.3270925,16.5757576 L26.8381057,25.4646465 L30.75,25.2626262 Z M22.5033039,35.0101009 L22.5033039,32.3838384 C22.5033039,32.1885863 22.3376297,32.0303031 22.1332599,32.0303031 C21.9288902,32.0303031 21.7632159,32.1885863 21.7632159,32.3838384 L21.7632159,35.0101009 C21.7632159,35.2053532 21.9288902,35.3636364 22.1332599,35.3636364 C22.3376297,35.3636364 22.5033039,35.2053532 22.5033039,35.0101009 Z M19.7544053,27.0808081 L21.8689428,27.0808081 L21.7727313,31.121212 C21.7704612,31.2274452 21.8129766,31.3300924 21.8907191,31.4060761 C21.9684615,31.4820598 22.0749068,31.5250036 22.1861233,31.5252525 L22.204097,31.5252525 C22.4291444,31.5252975 22.6128845,31.3533462 22.617489,31.1383839 L22.7147577,26.3737374 L20.6002203,26.3737374 L21.3085903,18.5444445 C21.3168942,18.45384 21.2849856,18.3640691 21.2206487,18.297032 C21.1563117,18.2299949 21.0654625,18.1918558 20.9702643,18.1919192 L20.91,18.1919192 C20.7345111,18.1922313 20.5880237,18.3199377 20.571674,18.4868687 L19.7544053,27.0808081 Z M19.7544053,17.1818182 L23.6662995,13.949495 C23.8777533,10.7171717 21.7632159,10.2121212 21.7632159,10.2121212 L22.0803965,9 C25.5693833,10.010101 25.0407489,13.8484848 25.0407489,13.8484848 L30.1156387,15.9696969 L19.7544053,17.1818182 Z" id="Shape" fill="#FFFFFF"></path>
        </g>
    </g>
</svg>