<?xml version="1.0" encoding="UTF-8"?>
<svg width="48px" height="48px" viewBox="0 0 48 48" version="1.1" xmlns="http://www.w3.org/2000/svg" xmlns:xlink="http://www.w3.org/1999/xlink">
    <!-- Generator: Sketch 49.1 (51147) - http://www.bohemiancoding.com/sketch -->
    <title>nlc2</title>
    <desc>Created with Sketch.</desc>
    <defs></defs>
    <g id="48px" stroke="none" stroke-width="1" fill="none" fill-rule="evenodd">
        <g id="nlc2" fill-rule="nonzero">
            <circle id="Oval" fill="#F28F01" cx="24" cy="24" r="24"></circle>
            <path d="M27.2271009,20.5779816 L24.3129256,14.8539177 C24.9191233,13.5332315 25.2222222,12.785809 25.2222222,12.6116505 C25.2222222,11.9927184 24.8148148,11.5388349 24,11.25 L32.9222221,11.25 C31.8222222,11.7451456 30.8444445,12.9830097 29.9888889,14.9635922 L27.2271009,20.5779816 Z M22.8529609,29.4700921 L21.4944444,32.2317961 L29.5000001,32.2317961 C33.1259259,32.2317961 35.55,31.5509709 36.7722222,30.1893204 L32.4944445,36.75 C19.7018519,36.75 12.4092593,36.75 10.6166667,36.75 C12.9796296,36.2961165 15.362963,33.4490292 17.7666666,28.2087378 C18.5756804,26.597445 19.3188534,25.1106789 19.9961862,23.7484398 L22.8529609,29.4700921 Z M7.5,30.375 C9.27222222,29.3228156 15.75,18.117728 15.75,14.9635922 C15.75,14.2208738 15.3022123,13.5194175 14.4066371,12.8592233 L21.3722221,12.8592233 L27.4222222,24.7427184 L33.2888889,12.8592233 L40.5,12.8592233 C37.4444445,13.663835 31.3944444,28.0790282 31.3944444,29.7560679 C31.3944444,30.0861651 31.4556536,30.2924757 31.5780716,30.375 L25.2222222,30.375 L19.7833333,19.4817962 L14.4066371,30.375 L7.5,30.375 Z" id="Shape" fill="#FFFFFF"></path>
        </g>
    </g>
</svg>