<?xml version="1.0" encoding="UTF-8"?>
<svg width="48px" height="48px" viewBox="0 0 48 48" version="1.1" xmlns="http://www.w3.org/2000/svg" xmlns:xlink="http://www.w3.org/1999/xlink">
    <!-- Generator: Sketch 49.1 (51147) - http://www.bohemiancoding.com/sketch -->
    <title>nlg</title>
    <desc>Created with Sketch.</desc>
    <defs></defs>
    <g id="48px" stroke="none" stroke-width="1" fill="none" fill-rule="evenodd">
        <g id="nlg" fill-rule="nonzero">
            <circle id="Oval" fill="#2AB0FD" cx="24" cy="24" r="24"></circle>
            <path d="M38.272836,22.2064327 C38.5194897,22.2028846 38.6762382,22.2353364 38.7767928,22.3270644 C38.8801642,22.421362 38.9241493,22.5783037 38.9453728,22.8231774 C39.6448753,30.890692 33.5427901,38.1845313 25.448289,38.9333734 C17.1030108,39.7054422 9.85867888,33.6818733 9.06554848,25.3114417 C8.2956747,17.1861618 14.3991633,9.81210013 22.5470944,9.07088868 C27.1606902,8.65120242 31.1451546,10.099622 34.4983492,13.2940235 C34.5327663,13.3267885 34.5252147,13.4649436 34.4867544,13.5041009 C33.7327191,14.271183 32.9733042,15.0330106 32.2056022,15.7863709 C32.1633661,15.8277705 32.0069856,15.8220475 31.9588015,15.7779034 C28.4981119,12.6076658 24.489021,11.6681911 20.104182,13.2657432 C15.6685863,14.8817696 13.132213,18.2254039 12.6319955,22.9367337 C11.955382,29.309539 16.7662579,34.9270095 23.1835101,35.411389 C29.0013367,35.8504866 34.2724327,31.732608 35.2362786,25.9852155 C35.2459689,25.9273831 35.1155848,25.7844421 35.0502927,25.7843083 C31.458417,25.7743684 27.8664747,25.7775478 24.274599,25.7637591 C24.1808374,25.7634244 24.0084513,25.5912325 24.00658,25.4965857 C23.986999,24.4929865 23.9879347,23.4886848 24.0060454,22.4850187 C24.0076494,22.3954588 24.1685743,22.2324037 24.256221,22.2319017 C26.650749,22.2179791 35.9956267,22.2390639 38.272836,22.2064327 Z" id="Shape" fill="#FFFFFF"></path>
        </g>
    </g>
</svg>