<?xml version="1.0" encoding="UTF-8"?>
<svg width="48px" height="48px" viewBox="0 0 48 48" version="1.1" xmlns="http://www.w3.org/2000/svg" xmlns:xlink="http://www.w3.org/1999/xlink">
    <!-- Generator: Sketch 49.1 (51147) - http://www.bohemiancoding.com/sketch -->
    <title>nmc</title>
    <desc>Created with Sketch.</desc>
    <defs></defs>
    <g id="48px" stroke="none" stroke-width="1" fill="none" fill-rule="evenodd">
        <g id="nmc" fill-rule="nonzero">
            <circle id="Oval" fill="#186C9D" cx="24" cy="24" r="24"></circle>
            <path d="M28.8919609,35.25 L28.8932313,35.2474265 C29.1125714,35.2512867 29.3429208,35.2289832 29.5800451,35.1732243 C30.8935449,34.8648347 32.0050656,33.7166304 32.2697133,32.4779252 L37.5,12.8336383 L33.3418544,12.8134794 L29.9128662,25.6654752 L20.6434196,12.770159 L20.6374914,12.774877 L20.6421492,12.7615807 L19.108886,12.75 L19.1071922,12.7521446 C18.8882755,12.7482843 18.6575026,12.770159 18.4199548,12.82506 C17.1068786,13.1338785 15.9966282,14.2816539 15.7311336,15.5186435 L10.5,35.1672195 L14.6598394,35.1852339 L18.0871338,22.3340958 L27.3582743,35.2311277 L27.3608149,35.229841 L28.8919609,35.25 Z M19.0021798,18.9083553 L19.7262562,16.1928972 L28.9986669,29.0920737 L28.2737437,31.8083895 L19.0021798,18.9083553 Z" id="Shape" fill="#FFFFFF"></path>
        </g>
    </g>
</svg>