<?xml version="1.0" encoding="UTF-8"?>
<svg width="48px" height="48px" viewBox="0 0 48 48" version="1.1" xmlns="http://www.w3.org/2000/svg" xmlns:xlink="http://www.w3.org/1999/xlink">
    <!-- Generator: Sketch 49.1 (51147) - http://www.bohemiancoding.com/sketch -->
    <title>nxs</title>
    <desc>Created with Sketch.</desc>
    <defs></defs>
    <g id="48px" stroke="none" stroke-width="1" fill="none" fill-rule="evenodd">
        <g id="nxs" fill-rule="nonzero">
            <circle id="Oval" fill="#4099CD" cx="24" cy="24" r="24"></circle>
            <path d="M3.006788,35.640246 C3.91553228,32.993961 5.66422232,30.1291505 8.09965967,27.2998394 C7.72311924,26.7984707 7.5,26.1752915 7.5,25.5 C7.5,23.8431458 8.84314575,22.5 10.5,22.5 C11.1668801,22.5 11.782938,22.7175956 12.2810478,23.0856608 C14.1266532,21.4545948 16.189998,19.881891 18.43838,18.4217747 C28.8391323,11.6674471 39.8303273,9.51029306 45.1916994,12.72437 C46.6996011,15.5524551 47.6579434,18.7179173 47.9241765,22.0782066 C46.192913,27.746147 40.4749026,34.5163535 32.3266754,39.8078742 C26.7054027,43.4583713 20.9116585,45.7660086 15.9274588,46.6085828 C10.4060013,44.6369282 5.81831874,40.7000237 3.006788,35.640246 Z M8.63141474,27.847142 C5.11643978,31.9099071 3.70759559,36.0884914 5.41196993,38.7129978 C7.98670482,42.6777418 16.6911224,41.5945533 24.8538308,36.2936286 C33.0165391,30.9927037 37.5464867,23.4813951 34.9717518,19.5166511 C32.3970168,15.551907 23.6925993,16.6350954 15.5298909,21.9360203 C14.6248072,22.5237885 13.7643862,23.1387323 12.953361,23.7730034 C13.2977341,24.2613213 13.5,24.8570399 13.5,25.5 C13.5,27.1568543 12.1568543,28.5 10.5,28.5 C9.79349033,28.5 9.14402255,28.2557747 8.63141474,27.847142 Z" id="Shape" fill="#FFFFFF"></path>
        </g>
    </g>
</svg>