<?xml version="1.0" encoding="UTF-8"?>
<svg width="48px" height="48px" viewBox="0 0 48 48" version="1.1" xmlns="http://www.w3.org/2000/svg" xmlns:xlink="http://www.w3.org/1999/xlink">
    <!-- Generator: Sketch 49.1 (51147) - http://www.bohemiancoding.com/sketch -->
    <title>nxt</title>
    <desc>Created with Sketch.</desc>
    <defs></defs>
    <g id="48px" stroke="none" stroke-width="1" fill="none" fill-rule="evenodd">
        <g id="nxt" fill-rule="nonzero">
            <circle id="Oval" fill="#008FBB" cx="24" cy="24" r="24"></circle>
            <path d="M39.123303,25.2500183 C38.3631161,25.2500183 37.7463249,24.6904654 37.7463249,23.9997309 C37.7463249,23.9997309 37.7463249,22.7496716 37.7463249,22.7496716 C37.7463249,22.7496716 30.827761,22.7496716 30.827761,22.7496716 C30.0675741,22.7496716 29.4513851,22.1901096 29.4513851,21.5000502 C29.4513851,20.8095984 30.0675741,20.25 30.827761,20.25 C30.827761,20.25 39.123303,20.25 39.123303,20.25 C39.8837709,20.25 40.5,20.8095984 40.5,21.5000502 C40.5,21.5000502 40.5,23.9997309 40.5,23.9997309 C40.5,24.6904654 39.8837709,25.2500183 39.123303,25.2500183 Z M32.2995967,25.2500183 C32.2995967,25.2500183 33.5806131,25.2500183 33.5806131,25.2500183 C33.5806131,25.2500183 35.05272,25.2500183 35.05272,25.2500183 C35.8125756,25.2500183 36.4288248,25.8096258 36.4288248,26.4996852 C36.4288248,27.1903741 35.8125756,27.75 35.05272,27.75 C35.05272,27.75 33.5806131,27.75 33.5806131,27.75 C33.5806131,27.75 32.2995967,27.75 32.2995967,27.75 C32.2995967,27.75 30.827761,27.75 30.827761,27.75 C30.5987413,27.75 30.3833016,27.6992171 30.1935559,27.6094754 C30.1935559,27.6094754 22.1657956,22.7496716 22.1657956,22.7496716 C22.1657956,22.7496716 19.8520333,22.7496716 19.8520333,22.7496716 C19.0917862,22.7496716 18.475557,22.1901096 18.475557,21.5000502 C18.475557,20.8095984 19.0917862,20.25 19.8520333,20.25 C19.8520333,20.25 22.6050561,20.25 22.6050561,20.25 C22.9015731,20.25 23.176792,20.3352071 23.4016062,20.4802753 C23.4016062,20.4802753 31.2495975,25.2500183 31.2495975,25.2500183 C31.2495975,25.2500183 32.2995967,25.2500183 32.2995967,25.2500183 Z M22.6051766,25.2500183 C23.3650723,25.2500183 23.981442,25.8096258 23.981442,26.4996852 C23.981442,27.1903741 23.3650723,27.75 22.6051766,27.75 C22.6051766,27.75 19.8518226,27.75 19.8518226,27.75 C19.6234453,27.75 19.4073632,27.6992171 19.2177881,27.6094754 C19.2177881,27.6094754 11.1899175,22.7496716 11.1899175,22.7496716 C11.1899175,22.7496716 8.87658664,22.7496716 8.87658664,22.7496716 C8.11623916,22.7496716 7.5,22.1901096 7.5,21.5000502 C7.5,20.8095984 8.11623916,20.25 8.87658664,20.25 C8.87658664,20.25 11.629509,20.25 11.629509,20.25 C11.9260261,20.25 12.2012852,20.3352071 12.4263904,20.4802753 C12.4263904,20.4802753 20.2740303,25.2500183 20.2740303,25.2500183 C20.2740303,25.2500183 22.6051766,25.2500183 22.6051766,25.2500183 Z M8.87658664,25.2498996 C8.87658664,25.2498996 11.629509,25.2498996 11.629509,25.2498996 C12.3898565,25.2498996 13.0060455,25.809498 13.0060455,26.4999498 C13.0060455,27.1902648 12.3898565,27.7498813 11.629509,27.7498813 C11.629509,27.7498813 8.87658664,27.7498813 8.87658664,27.7498813 C8.11623916,27.7498813 7.5,27.1902648 7.5,26.4999498 C7.5,25.809498 8.11623916,25.2498996 8.87658664,25.2498996 Z" id="Shape" fill="#FFFFFF"></path>
        </g>
    </g>
</svg>