<?xml version="1.0" encoding="UTF-8"?>
<svg width="48px" height="48px" viewBox="0 0 48 48" version="1.1" xmlns="http://www.w3.org/2000/svg" xmlns:xlink="http://www.w3.org/1999/xlink">
    <!-- Generator: Sketch 49.1 (51147) - http://www.bohemiancoding.com/sketch -->
    <title>omg</title>
    <desc>Created with Sketch.</desc>
    <defs></defs>
    <g id="48px" stroke="none" stroke-width="1" fill="none" fill-rule="evenodd">
        <g id="omg" fill-rule="nonzero">
            <circle id="Oval" fill="#1A53F0" cx="24" cy="24" r="24"></circle>
            <path d="M17.7843678,25.9349616 C14.1798829,25.9349616 11.2579337,28.8596592 11.2579337,32.4674808 C11.2579337,36.0753024 14.1802696,39 17.7847545,39 C21.3896262,39 24.3115754,36.0753024 24.3115754,32.4674808 C24.3115754,28.8596592 21.3896262,25.9349616 17.7847545,25.9349616 L17.7843678,25.9349616 Z M17.7843678,37.0239573 C15.2715534,37.0239573 13.2343871,34.9850055 13.2343871,32.4697965 C13.2343871,29.9545875 15.2715534,27.9156355 17.7843678,27.9156355 C20.2975689,27.9156355 22.3347353,29.9545875 22.3347353,32.4697965 C22.3304814,34.9830757 20.2956354,37.0197119 17.7843678,37.0239573 Z M31.7231791,12.0000013 C28.1186941,12.0000013 25.1963583,14.9246988 25.1963583,18.5325206 C25.1963583,22.1403422 28.1186941,25.0650398 31.7231791,25.0650398 C35.3280508,25.0650398 38.25,22.1403422 38.25,18.5325206 C38.25,14.9246988 35.3280508,12.0000013 31.7231791,12.0000013 Z M31.7231791,23.088997 C29.2103647,23.088997 27.1731984,21.0500451 27.1731984,18.5348361 C27.1731984,16.0196271 29.2103647,13.9806753 31.7231791,13.9806753 C34.2363802,13.9806753 36.2735466,16.0196271 36.2735466,18.5348361 C36.2692927,21.0481155 34.2344467,23.0847516 31.7231791,23.088997 Z M17.7843678,12.0000013 C14.6771865,11.9980715 11.998862,14.1883142 11.3809061,17.2365144 C10.7633369,20.2843285 12.377447,23.3460369 15.2398435,24.556363 C18.10224,25.7663032 21.4205627,24.7898602 23.1727267,22.2213907 C24.9252775,19.6529212 24.6267406,16.2044952 22.4588677,13.9760439 L24.3096418,13.9760439 L24.3096418,12.0000013 L17.7843678,12.0000013 Z M22.3347353,18.5325206 C22.3347353,21.0477295 20.2975689,23.0866813 17.7843678,23.0866813 C15.2715534,23.0866813 13.2343871,21.0477295 13.2343871,18.5325206 C13.2343871,16.0173114 15.2715534,13.9783596 17.7843678,13.9783596 C20.2964088,13.9814472 22.3328018,16.0180833 22.3370555,18.5325206 L22.3347353,18.5325206 Z" id="Shape" fill="#FFFFFF"></path>
        </g>
    </g>
</svg>