<?xml version="1.0" encoding="UTF-8"?>
<svg width="48px" height="48px" viewBox="0 0 48 48" version="1.1" xmlns="http://www.w3.org/2000/svg" xmlns:xlink="http://www.w3.org/1999/xlink">
    <!-- Generator: Sketch 49.1 (51147) - http://www.bohemiancoding.com/sketch -->
    <title>omni</title>
    <desc>Created with Sketch.</desc>
    <defs></defs>
    <g id="48px" stroke="none" stroke-width="1" fill="none" fill-rule="evenodd">
        <g id="omni" fill-rule="nonzero">
            <circle id="Oval" fill="#1C347A" cx="24" cy="24" r="24"></circle>
            <path d="M15.0968877,10.3314842 C13.1854654,11.5793425 11.555685,13.2125995 10.3118997,15.1266795 L10.3118997,10.3314842 L15.0968877,10.3314842 Z M37.6037005,14.9982273 C36.3706891,13.1390146 34.7711835,11.5510257 32.9031123,10.3314842 L37.6037005,10.3314842 L37.6037005,14.9982273 Z M32.9720343,37.6232731 C34.8107235,36.4095368 36.3860041,34.8377584 37.6038328,33.0017727 L37.6038328,37.6232731 L32.9720343,37.6232731 Z M10.3118997,32.8734528 C11.5406379,34.7642218 13.1462055,36.3811902 15.0282303,37.6232731 L10.3118997,37.6232731 L10.3118997,32.8734528 Z M39,24.0000662 C39,32.2711429 32.2709081,39 24,39 C15.7290919,39 9,32.2711429 9,24.0000662 C9,15.7289892 15.7289596,9 24,9 C32.2710404,9 39,15.7289892 39,24.0000662 Z M24,34.9379478 C30.0311406,34.9379478 34.9379658,30.031101 34.9379658,24.0000662 C34.9379658,17.9687667 30.0311406,13.0619199 24,13.0619199 C17.9687271,13.0619199 13.0620342,17.9687667 13.0620342,24.0000662 C13.0620342,30.031101 17.9687271,34.9379478 24,34.9379478 Z" id="Shape" fill="#FFFFFF"></path>
        </g>
    </g>
</svg>