<?xml version="1.0" encoding="UTF-8"?>
<svg width="48px" height="48px" viewBox="0 0 48 48" version="1.1" xmlns="http://www.w3.org/2000/svg" xmlns:xlink="http://www.w3.org/1999/xlink">
    <!-- Generator: Sketch 49.1 (51147) - http://www.bohemiancoding.com/sketch -->
    <title>ost</title>
    <desc>Created with Sketch.</desc>
    <defs></defs>
    <g id="48px" stroke="none" stroke-width="1" fill="none" fill-rule="evenodd">
        <g id="ost" fill-rule="nonzero">
            <circle id="Oval" fill="#BBDFD0" cx="24" cy="24" r="24"></circle>
            <path d="M34.6231631,35.9972504 C31.9700058,33.4067058 28.6979434,32.33513 25.0785616,32.1115953 C21.9995463,31.9213805 19.0546737,32.4380013 16.3007029,33.8484377 C15.2777194,34.3724988 14.3537343,35.0335599 13.5470623,35.848281 C13.4932732,35.9026281 13.4325542,35.9503435 13.3766201,36 C6.33453342,30.2608829 5.38596369,19.6796988 11.8124452,12.7591795 C18.2938708,5.77994583 29.5724293,5.73837678 36.113419,12.6865549 C42.6100245,19.5878264 41.7058391,30.2113881 34.6231631,35.9972504 Z M18.0288852,23.6931342 C18.0307002,26.9342264 20.6843524,29.5432101 23.9852893,29.548386 C27.3035509,29.5542089 29.9895426,26.9395641 29.9930076,23.7002511 C29.9963076,20.4720988 27.2910111,17.8272072 23.9932092,17.835618 C20.6987071,17.8428966 18.0274002,20.466923 18.0288852,23.6931342 Z" id="Shape" fill="#FFFFFF"></path>
        </g>
    </g>
</svg>