<?xml version="1.0" encoding="UTF-8"?>
<svg width="48px" height="48px" viewBox="0 0 48 48" version="1.1" xmlns="http://www.w3.org/2000/svg" xmlns:xlink="http://www.w3.org/1999/xlink">
    <!-- Generator: Sketch 49.1 (51147) - http://www.bohemiancoding.com/sketch -->
    <title>ox</title>
    <desc>Created with Sketch.</desc>
    <defs></defs>
    <g id="48px" stroke="none" stroke-width="1" fill="none" fill-rule="evenodd">
        <g id="ox" fill-rule="nonzero">
            <circle id="Oval" fill="#4392CD" cx="24" cy="24" r="24"></circle>
            <path d="M25.2875536,38.25 L22.7124464,38.25 C20.781116,38.25 20.2339056,36.4586852 20.2339056,35.090772 C20.2339056,33.7228588 20.3304721,33.104041 20.3304721,32.4852231 C20.3304721,31.5107423 19.8384462,29.0754392 18.946352,28.0557902 C17.2081545,26.0690591 16.1137339,24.2882307 16.1137339,21.7047648 C14.6008584,20.9231001 11.9291845,20.2065743 10.8991416,19.0340772 C9.86909871,17.8615802 9,16.2005429 9,13.8229795 C9,13.2150181 9.12875536,12.3573583 9.38626609,11.25 C9.97967715,13.101119 10.8916943,14.3713241 12.1223176,15.0606152 C13.9248927,16.0702655 15.9557601,16.8193607 17.6909871,16.8193607 L30.3090129,16.8193607 C32.0442399,16.8193607 34.0751073,16.0702655 35.8776824,15.0606152 C37.1083057,14.3713241 38.0203228,13.101119 38.6137339,11.25 C38.8712446,12.3573583 39,13.2150181 39,13.8229795 C39,16.2005429 38.1309014,17.8615802 37.1008584,19.0340772 C36.0708154,20.2065743 33.3991416,20.9231001 31.886266,21.7047648 C31.886266,24.2882307 30.7918455,26.0690591 29.053648,28.0557902 C28.1615538,29.0754392 27.6695278,31.5107423 27.6695278,32.4852231 C27.6695278,33.1040411 27.7660944,33.7228589 27.7660944,35.090772 C27.7660944,36.4586851 27.218884,38.25 25.2875536,38.25 Z" id="Shape" fill="#FFFFFF"></path>
        </g>
    </g>
</svg>