<?xml version="1.0" encoding="UTF-8"?>
<svg width="48px" height="48px" viewBox="0 0 48 48" version="1.1" xmlns="http://www.w3.org/2000/svg" xmlns:xlink="http://www.w3.org/1999/xlink">
    <!-- Generator: Sketch 49.1 (51147) - http://www.bohemiancoding.com/sketch -->
    <title>pac</title>
    <desc>Created with Sketch.</desc>
    <defs></defs>
    <g id="48px" stroke="none" stroke-width="1" fill="none" fill-rule="evenodd">
        <g id="pac" fill-rule="nonzero">
            <circle id="Oval" fill="#F8E42C" cx="24" cy="24" r="24"></circle>
            <path d="M13.5129298,28.7975531 C13.5129298,25.7197202 13.5119848,22.6418871 13.5134023,19.5641703 C13.5139929,18.2313255 13.8553742,16.9691073 14.3696907,15.7495208 C14.9992971,14.2567206 15.9255154,12.9603507 17.1476371,11.8795778 C18.3287692,10.8352799 19.6701972,10.0555994 21.1869226,9.5665566 C22.4111706,9.17172137 23.6663671,8.96030621 24.9469606,9.00619028 C25.685124,9.03267525 26.4222241,9.18566084 27.1518825,9.32284836 C28.1876028,9.51765233 29.1714663,9.87171464 30.1076071,10.353323 C31.1231281,10.8755882 32.0567884,11.5108791 32.8625193,12.3134435 C33.9999451,13.4467217 34.8531624,14.7657432 35.4501663,16.2453009 C35.5621488,16.5230447 35.6787382,16.7991621 35.7807982,17.0805069 C35.8980964,17.4041348 35.8012339,17.5445748 35.45938,17.5452717 C34.189654,17.5477112 32.9191011,17.5723376 31.6507926,17.532494 C31.0366606,17.513211 30.4133148,17.3888013 29.8780902,17.0623856 C29.6267202,16.9090515 29.4267345,16.6649948 29.225922,16.4425442 C28.6081279,15.7581167 27.8700828,15.2398011 27.0065887,14.9093197 C25.9976829,14.5231966 24.9601906,14.4294537 23.8851346,14.6300658 C22.6031236,14.869476 21.5229883,15.4443627 20.6589037,16.3985187 C19.9118811,17.2231541 19.401699,18.1688303 19.2697533,19.2818963 C19.2210858,19.6924134 19.1792695,20.1067638 19.1789152,20.519372 C19.174899,24.7778772 19.1619052,29.0367311 19.1917908,33.2951202 C19.203367,34.9565879 18.5856912,36.3220742 17.3999522,37.4569787 C16.6991163,38.1274667 15.8552312,38.5779437 14.9013714,38.8068993 C14.531522,38.8956471 14.1530493,38.9568647 13.7750492,38.9994962 C13.6966142,39.0084407 13.5693935,38.8964603 13.5242698,38.8101518 C13.4799729,38.7252372 13.5098585,38.6019891 13.5098585,38.4955847 C13.5095042,35.2629075 13.5096223,32.0302304 13.5096223,28.7975531 L13.5129298,28.7975531 Z M20.2720678,23.5443975 C20.9197475,24.3078153 21.624009,24.8998939 22.4838411,25.2954262 C23.447387,25.738701 24.4688142,25.9469798 25.5197726,25.8104892 C27.1845087,25.5943114 28.5620829,24.8448331 29.5780763,23.4989781 C29.8804764,23.0983349 30.3253353,22.8963288 30.8051592,22.8203588 C31.2960869,22.74253 31.7985908,22.714535 32.2964877,22.7076815 C33.4183212,22.6922319 34.540391,22.7016409 35.6622243,22.7044289 C36.0317195,22.7053581 36.0505014,22.7255704 35.9426532,23.0551226 C35.4233756,24.6400392 34.6409153,26.0856774 33.586295,27.391805 C32.4616265,28.7847055 31.1218524,29.9179838 29.4410513,30.5939314 C28.6864685,30.8972308 27.8815646,31.146515 27.0773693,31.2467629 C26.0216859,31.3781423 24.9419049,31.3928949 23.8766534,31.3527029 C23.1702657,31.3258693 22.4688392,31.1253734 21.7694208,30.9821454 C21.3772458,30.9019935 20.9936937,30.7810688 20.606598,30.6772197 C20.3905473,30.6192547 20.2461986,30.5215624 20.2470254,30.259849 C20.2542311,28.0919143 20.2511598,25.924212 20.2518686,23.7563935 C20.2519866,23.7093478 20.2604916,23.6624184 20.2720679,23.5443975 Z" id="Shape" fill="#FFFFFF"></path>
        </g>
    </g>
</svg>