<?xml version="1.0" encoding="UTF-8"?>
<svg width="48px" height="48px" viewBox="0 0 48 48" version="1.1" xmlns="http://www.w3.org/2000/svg" xmlns:xlink="http://www.w3.org/1999/xlink">
    <!-- Generator: Sketch 49.1 (51147) - http://www.bohemiancoding.com/sketch -->
    <title>part</title>
    <desc>Created with Sketch.</desc>
    <defs></defs>
    <g id="48px" stroke="none" stroke-width="1" fill="none" fill-rule="evenodd">
        <g id="part" fill-rule="nonzero">
            <circle id="Oval" fill="#03E8B0" cx="24" cy="24" r="24"></circle>
            <path d="M23.1353494,9.2597959 C24.1026935,8.83890276 24.7923891,9.73093824 25.3887853,10.3271785 C26.4529679,11.2320352 27.4673478,12.193879 28.4274663,13.2084817 C28.9782628,13.8092219 28.7552142,14.908554 28.0062689,15.2430486 C27.4304224,15.5571435 26.727077,15.3204472 26.2856297,14.8830544 C25.127037,13.7730725 24.0185439,12.6071414 22.8145014,11.5465087 C22.0679562,10.9366186 22.2205052,9.61154019 23.1353494,9.25934592 M33.6873333,12.3366958 C34.3429792,11.9839016 35.3920726,12.2706969 35.5743214,13.0512842 C35.8519698,13.7454729 35.4058725,14.4326117 34.9164256,14.8947542 C33.8443822,15.952987 32.8014388,17.0407693 31.7593954,18.1287016 C31.3792977,18.5885941 30.7101519,18.711442 30.1730053,18.4633461 C29.3969101,18.1423513 29.1875115,16.9771704 29.7725079,16.38768 C31.0881496,15.0495517 32.2489923,13.5497261 33.6874833,12.3366958 M12.7351646,12.5529923 C13.4181104,12.141099 14.2624551,12.4140946 14.7678019,12.9740355 C15.9041948,14.1209168 17.0762874,15.2293987 18.2251302,16.3582804 C18.9853254,17.0614689 18.4550789,18.5498947 17.3944355,18.5545446 C16.506741,18.6911925 16.035594,17.8125067 15.4414476,17.3323645 C14.4001542,16.4698786 13.4460102,15.5098942 12.5013161,14.54211 C11.9664195,13.9913189 12.1263185,12.9809354 12.7357646,12.5529923 M13.6167091,19.332882 C14.7615019,18.8912892 15.8791449,20.3342656 15.1651494,21.3285996 C14.3206547,22.4301816 13.2213116,23.3154672 12.3001674,24.3557002 C11.7561208,24.9154911 11.248674,25.7757271 10.3426796,25.6665289 C9.28203629,25.6255795 8.74938962,24.1515535 9.52098479,23.4362152 C10.9140261,22.102587 12.0201191,20.4160144 13.6180591,19.332732 M36.8307136,22.5234801 C37.6182087,22.0091385 38.8063512,22.5939789 38.831551,23.5434634 C38.9475003,24.4354991 38.0622058,24.9066412 37.575009,25.5052815 C36.7170142,26.5384647 35.7750202,27.5012991 34.8027262,28.427534 C34.0926307,29.0987732 32.7655891,28.6276308 32.6380899,27.6560965 C32.4718909,26.6523129 33.4141849,26.0287731 34.0083313,25.3870834 C34.9915752,24.4743483 35.8222699,23.3979658 36.8305636,22.5239301 M16.6028904,29.5810152 C17.3678856,29.1235227 18.5285783,29.6674139 18.5467283,30.5958987 C18.6878774,31.4925842 17.8024329,31.9683764 17.3176359,32.5668666 C16.4617413,33.6018498 15.5080473,34.5513344 14.5453533,35.4891191 C13.9194072,36.1218089 12.5856156,35.8167138 12.4080167,34.9087785 C12.1051686,34.0326428 12.8496139,33.3248043 13.4163104,32.7746133 C14.5158035,31.7459301 15.4712974,30.5696492 16.6028904,29.5817652 M30.1959552,29.5468158 C30.6194025,29.4013182 31.1559492,29.3899184 31.5136969,29.6948634 C32.8384886,30.9534929 34.2472798,32.123174 35.4924221,33.4659521 C35.8770197,33.8551958 35.9112194,34.5082851 35.656371,34.9770275 C35.2963733,35.8191138 34.0629309,35.8395134 33.4642846,35.2432731 C32.2557423,34.1032917 31.0942995,32.9060112 29.8793072,31.7702297 C29.1443118,31.199039 29.3171108,29.8766604 30.1958052,29.5466658 M19.9966191,32.7648635 C20.6266152,32.423469 21.3668606,32.7467138 21.8198577,33.226856 C22.9624005,34.3602375 24.1049433,35.4936191 25.2909859,36.5815514 C26.070981,37.3234392 25.5435843,38.8279148 24.4442412,38.8391646 C23.5566968,38.944163 23.0942497,38.0630772 22.4981535,37.5806852 C21.46316,36.7225491 20.501966,35.7780144 19.5731718,34.8057303 C19.0132253,34.2070901 19.2407739,33.0944081 19.9964691,32.7642635 M17.9701319,10.4044273 C17.9701925,10.9308132 17.6531408,11.4053986 17.1668304,11.6068658 C16.6805199,11.808333 16.1207318,11.6970021 15.748517,11.3247911 C15.3763023,10.95258 15.2649702,10.3927974 15.4664394,9.90649188 C15.6679086,9.42018633 16.1424989,9.10313779 16.66889,9.10319845 C17.387546,9.10319845 17.9701319,9.68577844 17.9701319,10.4044273 M21.763308,13.865321 C21.763308,14.5839503 21.1807527,15.1665222 20.4621162,15.1665498 C19.7434797,15.1665774 19.1608796,14.5840503 19.1608244,13.865421 C19.1607692,13.1467917 19.7432798,12.564175 20.4619163,12.5640921 C20.8070531,12.5640524 21.1380675,12.7011282 21.3821301,12.9451602 C21.6261927,13.1891923 21.763308,13.5201876 21.763308,13.865321 M11.6028217,17.0446692 C11.6029431,17.571055 11.2859461,18.0456771 10.7996589,18.2472003 C10.3133717,18.4487236 9.75357068,18.3374572 9.38131301,17.9652891 C9.00905535,17.5931209 8.8976588,17.0333512 9.09907193,16.5470225 C9.30048507,16.0606936 9.77503872,15.7435903 10.3014299,15.7435903 C10.6465407,15.7435506 10.9775324,15.8806059 11.2215908,16.1246055 C11.4656491,16.3686051 11.602782,16.6995619 11.6028217,17.0446692 M32.2606923,10.301229 C32.2606921,10.8275815 31.9435899,11.3020947 31.4572753,11.5034649 C30.970961,11.7048352 30.4112266,11.5933976 30.0391213,11.2211244 C29.667016,10.8488511 29.5558355,10.289071 29.757432,9.80285437 C29.9590285,9.31663774 30.4336926,8.99975743 30.9600504,9.00000013 C31.3051734,8.99996035 31.6361724,9.13704093 31.8802113,9.38107729 C32.1242501,9.62511366 32.2613321,9.95610944 32.2612923,10.301229 M39,16.7182746 C39,17.4369234 38.4174143,18.0195034 37.6987581,18.0195034 C36.9801021,18.0195034 36.3975164,17.4369234 36.3975164,16.7182746 C36.3975164,15.9996256 36.9801021,15.4170457 37.6987581,15.4170457 C38.4174143,15.4170457 39,15.9996256 39,16.7182746 M35.4435223,20.4571137 C35.4436051,21.1757625 34.8610865,21.7584097 34.1424304,21.7584925 C33.4237744,21.7585754 32.8411215,21.1760625 32.8410385,20.4574137 C32.8409557,19.7387649 33.4234745,19.1561178 34.1421304,19.1560348 C34.4872413,19.1559951 34.8182329,19.2930503 35.0622913,19.5370498 C35.3063496,19.7810496 35.4434824,20.1120063 35.4435223,20.4571137 M38.994,30.9660927 C38.994,31.684722 38.4114447,32.2672939 37.6928082,32.2673215 C36.9741717,32.2673492 36.3915715,31.684822 36.3915164,30.9661927 C36.3914611,30.2475634 36.9739718,29.6649468 37.6926083,29.6648638 C38.037745,29.6648241 38.3687595,29.8018999 38.6128221,30.0459319 C38.8568847,30.2899639 38.994,30.6209593 38.994,30.9660927 M28.8450636,34.1395911 C28.8451243,34.6659633 28.5280888,35.1405393 28.0417968,35.3420153 C27.5555049,35.5434912 26.9957284,35.4321879 26.6235018,35.0600079 C26.2512753,34.6878279 26.1399063,34.1280699 26.3413282,33.6417596 C26.54275,33.1554492 27.0172942,32.8383623 27.5436718,32.8383623 C27.8888086,32.8383225 28.2198231,32.9753982 28.4638857,33.2194304 C28.7079483,33.4634624 28.8450636,33.7944578 28.8450636,34.1395911 M32.5890402,37.6982832 C32.5891616,38.2246691 32.2721646,38.6992911 31.7858773,38.9008143 C31.2995901,39.1023375 30.7397892,38.9910711 30.3675315,38.6189031 C29.9952738,38.246735 29.8838772,37.6869651 30.0852904,37.2006363 C30.2867035,36.7143077 30.7612572,36.3972043 31.2876483,36.3972043 C31.6327591,36.3971646 31.9637509,36.5342198 32.2078092,36.7782194 C32.4518674,37.0222189 32.5890005,37.3531758 32.5890402,37.6982832 M18.3379295,37.6982832 C18.3379902,38.224669 18.0209385,38.6992545 17.534628,38.9007217 C17.0483177,39.1021888 16.4885295,38.9908579 16.1163147,38.6186469 C15.7440999,38.2464358 15.6327679,37.6866532 15.8342371,37.2003477 C16.0357063,36.7140421 16.5102965,36.3969937 17.0366877,36.3970543 C17.7553437,36.3970543 18.3379295,36.9796344 18.3379295,37.6982832 M15.1640994,27.5068489 C15.1641602,28.0332349 14.8471084,28.5078204 14.360798,28.7092875 C13.8744875,28.9107548 13.3146993,28.7994239 12.9424846,28.4272128 C12.5702698,28.0550017 12.4589378,27.4952192 12.660407,27.0089136 C12.8618762,26.522608 13.3364664,26.2055595 13.8628576,26.2056202 C14.5815136,26.2056202 15.1640994,26.7882001 15.1640994,27.5068489 M11.6028217,31.2885875 C11.6028824,31.8149596 11.2858469,32.2895356 10.7995549,32.4910116 C10.3132629,32.6924877 9.7534865,32.5811842 9.38125994,32.2090042 C9.00903338,31.8368244 8.89766432,31.2770664 9.09908627,30.790756 C9.3005082,30.3044457 9.77505237,29.9873586 10.3014299,29.9873586 C10.6465667,29.9873188 10.9775812,30.1243947 11.2216438,30.3684267 C11.4657064,30.6124587 11.6028217,30.9434541 11.6028217,31.2885875" id="Shape" fill="#FFFFFF"></path>
        </g>
    </g>
</svg>