<?xml version="1.0" encoding="UTF-8"?>
<svg width="48px" height="48px" viewBox="0 0 48 48" version="1.1" xmlns="http://www.w3.org/2000/svg" xmlns:xlink="http://www.w3.org/1999/xlink">
    <!-- Generator: Sketch 49.1 (51147) - http://www.bohemiancoding.com/sketch -->
    <title>pasl</title>
    <desc>Created with Sketch.</desc>
    <defs></defs>
    <g id="48px" stroke="none" stroke-width="1" fill="none" fill-rule="evenodd">
        <g id="pasl" fill-rule="nonzero">
            <circle id="Oval" fill="#00ACFF" cx="24" cy="24" r="24"></circle>
            <path d="M22.6212006,30.2338341 C23.0126583,30.0713611 23.460992,30.2587236 23.6225822,30.6523198 C23.7841722,31.0459159 23.5978277,31.4966988 23.2063701,31.6591716 L18.0971531,33.7797301 L17.4188892,37.5 L13.9037592,37.5 L14.2888288,35.3603587 L12.2154162,36.2209197 C11.8239585,36.3833925 11.3756247,36.19603 11.2140347,35.8024339 C11.0524446,35.4088378 11.2387891,34.9580548 11.6302467,34.795582 L14.6132911,33.5574823 L14.8396896,32.2994979 L10.8095965,33.9721707 C10.4181388,34.1346435 9.96980506,33.947281 9.808215,33.553685 C9.64662492,33.1600889 9.83296941,32.7093058 10.2244271,32.5468331 L15.1641519,30.4966215 L18.7602272,10.5150117 L28.9207473,10.5150117 C35.1402491,10.3008451 38.25,12.3782609 38.25,16.747259 C38.25,22.2903249 34.1970359,26.5775048 27.322947,26.5775048 L19.4102321,26.5775048 L18.984823,28.9108685 L21.215381,27.985085 C21.6068385,27.8226122 22.0551723,28.0099746 22.2167623,28.4035707 C22.3783526,28.7971668 22.192008,29.2479498 21.8005503,29.4104226 L18.6557841,30.7156443 L18.426192,31.9749543 L22.6212006,30.2338341 Z M21.764702,13.6632603 L20.0076348,23.3007561 L27.8341542,23.3007561 C32.6518074,23.3007561 34.4798472,20.0240076 34.4798472,17.6467586 C34.4798472,15.2695096 33.3296311,13.6632603 29.4955774,13.6632603 L21.764702,13.6632603 Z" id="Shape" fill="#FFFFFF"></path>
        </g>
    </g>
</svg>