<?xml version="1.0" encoding="UTF-8"?>
<svg width="48px" height="48px" viewBox="0 0 48 48" version="1.1" xmlns="http://www.w3.org/2000/svg" xmlns:xlink="http://www.w3.org/1999/xlink">
    <!-- Generator: Sketch 49.1 (51147) - http://www.bohemiancoding.com/sketch -->
    <title>pay</title>
    <desc>Created with Sketch.</desc>
    <defs></defs>
    <g id="48px" stroke="none" stroke-width="1" fill="none" fill-rule="evenodd">
        <g id="pay" fill-rule="nonzero">
            <circle id="Oval" fill="#302C2C" cx="24" cy="24" r="24"></circle>
            <path d="M40.3652491,23.5435805 C40.2896791,23.3719929 40.167249,23.2287793 40.042674,23.0926174 C37.189822,19.8641859 31.3836331,13.5 31.3836331,13.5 L24.008128,21.5662941 L16.5367579,13.5762238 C16.5367579,13.5762238 10.662754,19.9948072 7.78581208,23.2601755 C7.41142683,23.6295421 7.41142683,24.294402 7.74720205,24.6886169 C9.24259807,26.3920682 16.5885681,34.4927805 16.5885681,34.4927805 L23.998888,26.3714172 L31.356243,34.5 L40.2320941,24.6810615 C40.2320941,24.6810615 40.4193691,24.4866405 40.4589693,24.3555153 C40.5464193,24.0863814 40.4842143,23.7915597 40.3652491,23.5435805 M11.8766599,24.4423164 C11.6375747,24.1592473 11.7177648,23.7129854 11.9410099,23.4455304 C12.8801905,22.3762143 16.6382331,18.3444103 16.6382331,18.3444103 L21.8723667,23.9032092 L16.6288281,29.6381287 C16.6288281,29.6381287 13.4200709,26.212086 11.8766599,24.4423164 M35.8590961,24.6320365 C35.763726,24.8319982 35.4743158,25.1639244 35.4743158,25.1639244 L31.4087131,29.5810447 L26.1617095,24.0004197 L31.327533,18.3390378 C31.327533,18.3390378 34.3036401,21.4217374 35.667036,23.0780107 C35.782536,23.2235746 35.9186611,23.3602404 35.9772361,23.5419015 C36.1026363,23.900355 36.0236013,24.3002782 35.8590961,24.6318687" id="Shape" fill="#FFFFFF"></path>
        </g>
    </g>
</svg>