<?xml version="1.0" encoding="utf-8"?>
<!-- Generator: Adobe Illustrator 23.0.1, SVG Export Plug-In . SVG Version: 6.00 Build 0)  -->
<svg version="1.1" id="Capa_1" xmlns="http://www.w3.org/2000/svg" xmlns:xlink="http://www.w3.org/1999/xlink" x="0px" y="0px"
	 width="48px" height="48px" viewBox="0 0 48 48" style="enable-background:new 0 0 48 48;" xml:space="preserve">
<style type="text/css">
	.st0{fill:#33658A;}
	.st1{fill:#FFFFFF;}
</style>
<title>usd</title>
<desc>Created with Sketch.</desc>
<g>
	<g>
		<g id="usd_2_">
			<circle id="Oval_2_" class="st0" cx="24" cy="24" r="24"/>
		</g>
	</g>
	<g>
		<path class="st1" d="M13.1,28.5c0.1,1.1,0.4,1.8,0.9,2.4c0.8,0.9,2.2,1.4,4.1,1.4c1.2,0,2.1-0.1,2.8-0.4c1.4-0.5,2.1-1.4,2.1-2.7
			c0-0.8-0.3-1.3-1-1.8c-0.7-0.4-1.7-0.8-3.2-1.1l-2.5-0.5c-2.5-0.5-4.1-1.1-5.1-1.8c-1.6-1.1-2.3-2.7-2.3-5c0-2.1,0.8-3.8,2.3-5.1
			s3.7-2,6.7-2c2.5,0,4.6,0.6,6.3,1.9c1.7,1.3,2.6,3.2,2.7,5.6h-4.6c-0.1-1.4-0.7-2.4-1.9-3c-0.8-0.4-1.7-0.6-2.9-0.6
			c-1.3,0-2.3,0.3-3,0.8c-0.8,0.5-1.1,1.2-1.1,2.1c0,0.8,0.4,1.4,1.1,1.8c0.5,0.3,1.5,0.6,3.1,1l4,1c1.8,0.4,3.1,1,4,1.7
			c1.4,1.1,2.1,2.7,2.1,4.7c0,2.1-0.8,3.9-2.4,5.2c-1.6,1.4-3.9,2.1-6.9,2.1c-3,0-5.4-0.7-7.2-2.1c-1.7-1.4-2.6-3.3-2.6-5.6H13.1z"
			/>
		<path class="st1" d="M35.7,11.8h3.7l-9,23.7h-3.7L35.7,11.8z"/>
	</g>
</g>
</svg>
