<?xml version="1.0" encoding="UTF-8"?>
<svg width="48px" height="48px" viewBox="0 0 48 48" version="1.1" xmlns="http://www.w3.org/2000/svg" xmlns:xlink="http://www.w3.org/1999/xlink">
    <!-- Generator: Sketch 49.1 (51147) - http://www.bohemiancoding.com/sketch -->
    <title>pink</title>
    <desc>Created with Sketch.</desc>
    <defs></defs>
    <g id="48px" stroke="none" stroke-width="1" fill="none" fill-rule="evenodd">
        <g id="pink" fill-rule="nonzero">
            <circle id="Oval" fill="#ED79AA" cx="24" cy="24" r="24"></circle>
            <g id="Group" transform="translate(9.750000, 9.000000)" fill="#FFFFFF">
                <path d="M25.4277619,4.39339828 L22.622905,7.21798243 C20.6452225,5.22639046 17.9130798,3.99456522 14.8952381,3.99456522 C9.02231662,3.99456522 4.23138684,8.65970419 3.97726742,14.5108648 L3.96666666,14.5108696 L3.96666666,25.1922746 C1.50485196,22.516627 2.66453526e-15,18.9352881 2.66453526e-15,15 C2.66453526e-15,6.71572875 6.66882525,0 14.8952381,0 C19.0084444,0 22.732254,1.6789322 25.4277619,4.39339828 Z M25.427762,25.6066017 C22.7854049,28.2675432 19.1548991,29.933386 15.1380952,29.9980465 L15.1380952,26.002771 C18.0594913,25.9386274 20.6984108,24.7200474 22.6229051,22.7820175 L25.427762,25.6066017 Z" id="Shape" opacity="0.5"></path>
                <path d="M7.77142857,28.1765028 L7.77142857,14.5108696 L7.78235988,14.5108696 C7.99247901,10.6033261 11.2054079,7.5 15.1380953,7.5 C19.206593,7.5 22.5047619,10.8213658 22.5047619,14.9184783 C22.5047619,19.0155906 19.206593,22.3369564 15.1380953,22.3369564 C13.7795628,22.3369564 12.5069214,21.9666267 11.4142857,21.3207438 L11.4142857,29.5881795 C10.1269682,29.277806 8.90460828,28.799116 7.77142857,28.1765028 Z M15.1380953,18.6684783 C17.1946985,18.6684783 18.8619048,16.989546 18.8619048,14.9184783 C18.8619048,12.8474105 17.1946985,11.1684783 15.1380953,11.1684783 C13.081492,11.1684783 11.4142857,12.8474105 11.4142857,14.9184783 C11.4142857,16.989546 13.081492,18.6684783 15.1380953,18.6684783 Z" id="Shape"></path>
            </g>
        </g>
    </g>
</svg>