<?xml version="1.0" encoding="UTF-8"?>
<svg width="48px" height="48px" viewBox="0 0 48 48" version="1.1" xmlns="http://www.w3.org/2000/svg" xmlns:xlink="http://www.w3.org/1999/xlink">
    <!-- Generator: Sketch 49.1 (51147) - http://www.bohemiancoding.com/sketch -->
    <title>pirl</title>
    <desc>Created with Sketch.</desc>
    <defs></defs>
    <g id="48px" stroke="none" stroke-width="1" fill="none" fill-rule="evenodd">
        <g id="pirl" fill-rule="nonzero">
            <circle id="Oval" fill="#96B73D" cx="24" cy="24" r="24"></circle>
            <path d="M17.3913393,24.1580631 C17.5201091,24.5444339 17.7109167,24.9082457 17.9572317,25.2345893 L14.2164947,21.4576743 C13.8273175,21.0656702 13.60868,20.5339985 13.60868,19.9796207 C13.60868,19.425243 13.8273175,18.8935712 14.2164947,18.501567 L18.9345011,13.7822991 C19.0317185,13.7101433 19.1251983,13.6330131 19.2145722,13.5512125 C19.2595667,13.5101191 19.3052309,13.4698052 19.3515443,13.4302863 L23.1713216,9.60773529 C23.9824578,8.79566791 25.2929667,8.79768118 26.10164,9.61223697 L38.6154557,22.2169589 C39.2038571,23.0524872 39.1081862,24.1936616 38.3890152,24.9179706 C37.6772577,25.6325117 36.5686346,25.7540928 35.7208908,25.2105803 L24.6655307,14.0508997 L24.6521231,14.0358941 L24.6163693,13.9968795 L18.7021017,19.9120953 L18.6127173,19.9886241 C18.609453,19.9919121 18.6056339,19.9955793 18.6012897,19.9996371 L24.4450493,25.8903348 C24.9692985,26.4183926 25.1740412,27.1880535 24.9821526,27.9093938 C24.790264,28.630734 24.2308966,29.1941649 23.5147587,29.3874474 C22.7986209,29.5807299 22.0345108,29.3745 21.5102614,28.8464423 L18.5158842,25.8303123 C18.4726816,25.7927984 18.4294792,25.7402787 18.3743589,25.6877589 L18.2373028,25.5497073 C18.1371414,25.4367648 18.0436246,25.3180176 17.9572317,25.1940741 L18.02427,25.2736038 L17.978088,25.2150819 C17.7267123,24.8956985 17.5289595,24.5386074 17.3913393,24.1580631 Z M29.6095463,28.0176975 L23.7582791,22.1239239 C23.369102,21.7319197 23.1504644,21.2002479 23.1504644,20.6458702 C23.1504644,20.0914926 23.369102,19.5598207 23.7582791,19.1678166 C24.1482458,18.7766071 24.6765272,18.5574601 25.226907,18.5585857 C25.7772869,18.5597115 26.3046806,18.7810175 26.6930667,19.1738188 L29.6874441,22.1899486 C29.7306465,22.2274627 29.7738491,22.2799824 29.8289694,22.332502 L29.9660255,22.4705538 C30.0434877,22.5575941 30.115625,22.6492975 30.1820378,22.7451567 C30.1928357,22.7583686 30.2035404,22.7716483 30.2141516,22.7849946 C30.1687608,22.7203674 30.1253208,22.6607745 30.0852047,22.6071049 L34.0017309,26.5475811 C34.812321,27.3644023 34.812321,28.6883677 34.0017309,29.505189 L29.2792554,34.2274579 C29.1808197,34.2979002 29.0860271,34.3733697 28.9952495,34.4535705 L25.0588221,38.3900173 C24.2489168,39.2033275 22.9384089,39.2033275 22.1285036,38.3900173 L9.41208335,25.5692145 C8.76996275,24.6994638 8.89017045,23.4804234 9.68959916,22.7548944 C10.4890278,22.0293654 11.7052161,22.035547 12.4973348,22.7691657 L23.5735514,33.9528552 L23.6118713,33.9984712 L29.5146342,28.0961612 L29.6010392,28.0256347 C29.603585,28.0231987 29.6064243,28.0205545 29.6095463,28.0176975 Z" id="Shape" fill="#FFFFFF"></path>
        </g>
    </g>
</svg>