<?xml version="1.0" encoding="UTF-8"?>
<svg width="48px" height="48px" viewBox="0 0 48 48" version="1.1" xmlns="http://www.w3.org/2000/svg" xmlns:xlink="http://www.w3.org/1999/xlink">
    <!-- Generator: Sketch 49.1 (51147) - http://www.bohemiancoding.com/sketch -->
    <title>plr</title>
    <desc>Created with Sketch.</desc>
    <defs></defs>
    <g id="48px" stroke="none" stroke-width="1" fill="none" fill-rule="evenodd">
        <g id="plr" fill-rule="nonzero">
            <circle id="Oval" fill="#00BFFF" cx="24" cy="24" r="24"></circle>
            <path d="M12.614623,31.3536585 L12.468393,31.3536585 L12.468393,37.5 L9,37.5 L9,16.6875 L12.3907083,16.6875 L12.3907083,17.6478658 L12.5232293,17.6478658 C13.7067784,16.5137194 15.2147753,16.4817073 16.0601676,16.4817073 C19.6062453,16.4817073 21.9322163,19.8612805 21.9322163,24.375 L21.9322163,24.9603658 C21.9322163,29.6570123 19.2406703,32.4557926 16.0007616,32.4557926 C14.4836253,32.4603658 13.3594821,32.1128049 12.614623,31.3536585 Z M18.7105865,25.2393293 L18.7105865,24.214939 C18.7105865,21.2743902 17.591013,19.3079268 15.5940594,19.3079268 C13.4371668,19.3079268 12.2810358,21.5945123 12.2810358,24.214939 L12.2810358,25.234756 C12.2810358,27.7317074 13.418888,29.6432926 15.6534654,29.6432926 C17.4127952,29.6387194 18.7105865,28.2667683 18.7105865,25.2393293 Z M23.6092917,10.5 L27.0822545,10.5 L27.0822545,32.3643292 L23.6092917,32.3643292 L23.6092917,10.5 Z M37.0030464,20.1128049 C35.0563595,20.1128049 33.1233816,21.6585366 33.1233816,23.6112806 L33.1233816,32.3780488 L29.6686977,32.3780488 L29.6686977,16.8338415 L32.8674791,16.8338415 L32.8674791,17.7896341 L33,17.7896341 C33.7768468,16.9710366 35.677837,16.5868902 37.2406702,16.609756 C37.3960396,16.609756 37.2680883,16.6143292 37.4188881,16.6143292 L37.4371668,20.1128049 L37.0030464,20.1128049 Z M35.5453161,28.6417683 L39,28.6417683 L39,32.3643292 L35.5453161,32.3643292 L35.5453161,28.6417683 Z" id="Shape" fill="#FFFFFF"></path>
        </g>
    </g>
</svg>