<?xml version="1.0" encoding="UTF-8"?>
<svg width="48px" height="48px" viewBox="0 0 48 48" version="1.1" xmlns="http://www.w3.org/2000/svg" xmlns:xlink="http://www.w3.org/1999/xlink">
    <!-- Generator: Sketch 49.1 (51147) - http://www.bohemiancoding.com/sketch -->
    <title>poe</title>
    <desc>Created with Sketch.</desc>
    <defs></defs>
    <g id="48px" stroke="none" stroke-width="1" fill="none" fill-rule="evenodd">
        <g id="poe" fill-rule="nonzero">
            <circle id="Oval" fill="#DCD6CC" cx="24" cy="24" r="24"></circle>
            <path d="M37.1377303,11.5984163 C35.930165,10.4091252 34.3152279,9.75 32.6129971,9.75 C30.8962173,9.75 29.2958293,10.4091252 28.0882638,11.5984163 L13.3064985,26.1564857 C13.1610087,26.2997738 13.0737149,26.5147059 13.0882638,26.7296381 L13.0882638,34.2236049 L9,38.25 L11.2550922,38.25 L14.2812803,35.2696078 L21.8467508,35.2696078 C22.0649855,35.2696078 22.2686712,35.183635 22.414161,35.026018 L37.1231814,20.5395927 L37.1377303,20.5252639 C38.3307468,19.3359729 39,17.7598039 39,16.0833333 C39,14.3782051 38.3452959,12.8020362 37.1377303,11.5984163 Z M28.5392823,13.2892157 L29.1648885,12.6730769 C30.0814743,11.7703619 31.3035888,11.2688537 32.6129971,11.2688537 C33.9078564,11.2688537 35.1299709,11.7703619 36.0611058,12.6730769 C36.0756547,12.6874057 36.0902037,12.7160633 36.1193017,12.7303921 C37.0067895,13.6331071 37.4869059,14.8080694 37.4869059,16.0690045 C37.4869059,17.3442684 36.9776916,18.5478884 36.0611058,19.4649321 L35.4209505,20.0953996 L29.7032008,20.0953996 L33.456838,16.3985671 C33.7623666,16.097662 33.7623666,15.6391402 33.4859359,15.3239065 C33.471387,15.3095776 33.471387,15.2952489 33.456838,15.28092 C33.1513095,14.9800151 32.642095,14.9800151 32.3365665,15.28092 L28.5538312,19.0064103 L28.5538312,13.2892157 L28.5392823,13.2892157 Z M15.8234724,33.7507542 L18.9078564,30.7130468 L24.6256062,30.7130468 L21.5412222,33.7507542 L15.8234724,33.7507542 Z M24.8001941,24.8955505 L28.4519885,21.2990196 L34.1697381,21.2990196 L30.5179439,24.8955505 L24.8001941,24.8955505 Z M29.2667313,26.127828 L25.8622697,29.4807692 L20.1445198,29.4807692 L23.5489817,26.127828 L29.2667313,26.127828 Z M23.6362755,18.1180241 L27.3026188,14.5071644 L27.3026188,20.2100301 L23.6362755,23.8352187 L23.6362755,18.1180241 Z M18.9806013,22.7032428 L22.3850629,19.3503016 L22.3850629,25.0531674 L18.9806013,28.4061085 L18.9806013,22.7032428 Z M14.6159069,27.0018854 L17.7439378,23.9355204 L17.7439378,29.6383862 L14.6159069,32.7047511 L14.6159069,27.0018854 Z" id="Shape" fill="#FFFFFF"></path>
        </g>
    </g>
</svg>