<?xml version="1.0" encoding="UTF-8"?>
<svg width="48px" height="48px" viewBox="0 0 48 48" version="1.1" xmlns="http://www.w3.org/2000/svg" xmlns:xlink="http://www.w3.org/1999/xlink">
    <!-- Generator: Sketch 49.1 (51147) - http://www.bohemiancoding.com/sketch -->
    <title>pot</title>
    <desc>Created with Sketch.</desc>
    <defs></defs>
    <g id="48px" stroke="none" stroke-width="1" fill="none" fill-rule="evenodd">
        <g id="pot" fill-rule="nonzero">
            <circle id="Oval" fill="#105B2F" cx="24" cy="24" r="24"></circle>
            <path d="M18.048848,27.2711019 C17.8506285,28.2833812 17.6575154,29.2668771 17.4656078,30.2504422 C17.1096638,32.0759434 16.7532944,33.9012367 16.4008965,35.7272929 C16.3692665,35.8911857 16.3275659,36.0029908 16.1177867,35.999939 C14.7947873,35.9805881 13.4717171,35.9706005 12.1486468,35.9556886 C12.1163786,35.9553418 12.084394,35.933494 12,35.9023523 C12.9914517,30.9504027 13.9835416,25.995193 14.9852765,20.9916409 L12.470124,20.9916409 C12.4759394,20.8820554 12.4717551,20.8155411 12.4839532,20.7520092 C12.6383445,19.9463472 12.8051467,19.142766 12.9446449,18.3346765 C12.9834378,18.109818 13.0847814,18.0525976 13.2938515,18.0544704 C13.9081544,18.059811 14.5231665,18.0369228 15.1366892,18.058077 C15.429515,18.0682032 15.5425604,17.9826156 15.5979483,17.6948494 C15.9404885,15.9142227 16.3065029,14.1378268 16.6578371,12.3586566 C16.6997504,12.1462825 16.7452805,12.0014631 17.022504,12.0022261 C20.0347299,12.0110345 23.0473104,11.9819042 26.0589689,12.0211608 C27.8172708,12.0440489 29.5796151,12.1328271 31.3084146,12.4896044 C31.9052004,12.6127147 32.5093619,12.7708509 33.0619649,13.0166555 C34.6492095,13.7226501 35.603925,14.9430726 35.8697304,16.6338808 C36.2825517,19.2601197 35.7254097,21.672528 34.038098,23.776224 C32.7958758,25.3250565 31.0874301,26.193418 29.1814034,26.7206079 C27.6690495,27.1389057 26.118612,27.2695761 24.554487,27.2729052 C22.522224,27.2771361 20.4899609,27.2721423 18.4577687,27.2711019 C18.3303266,27.2710326 18.2028846,27.2711019 18.048848,27.2711019 Z M18.8824333,23.1624061 C19.0509375,23.1624061 19.1785214,23.1624061 19.306105,23.1624061 C21.4557396,23.162961 23.6055161,23.1677467 25.7550797,23.1606723 C26.2145658,23.1591464 26.6769595,23.1397954 27.1326159,23.0852107 C28.8668763,22.877553 30.1864005,22.0460899 31.0286381,20.5336704 C31.4033755,19.8607596 31.4986911,19.1355528 31.3721001,18.3837126 C31.1961494,17.3386963 30.570783,16.6555204 29.5105397,16.463607 C28.736172,16.3234345 27.9442163,16.2219639 27.158147,16.2080923 C24.9501458,16.1691825 22.7410809,16.1843719 20.5324415,16.1793781 C20.4524445,16.1791701 20.3723766,16.1915157 20.2659977,16.2001161 C20.146215,16.8119226 20.02856,17.4133254 19.8997704,18.0712549 L26.0349981,18.0712549 C25.8420976,19.0678595 25.6589841,20.0138325 25.4721827,20.9786017 L19.3170977,20.9786017 C19.1721385,21.7067214 19.0314347,22.4139645 18.8824333,23.1624061 Z" id="Shape" fill="#FFFFFF"></path>
        </g>
    </g>
</svg>