<?xml version="1.0" encoding="UTF-8"?>
<svg width="48px" height="48px" viewBox="0 0 48 48" version="1.1" xmlns="http://www.w3.org/2000/svg" xmlns:xlink="http://www.w3.org/1999/xlink">
    <!-- Generator: Sketch 49.1 (51147) - http://www.bohemiancoding.com/sketch -->
    <title>powr</title>
    <desc>Created with Sketch.</desc>
    <defs></defs>
    <g id="48px" stroke="none" stroke-width="1" fill="none" fill-rule="evenodd">
        <g id="powr" fill-rule="nonzero">
            <circle id="Oval" fill="#05BCA9" cx="24" cy="24" r="24"></circle>
            <path d="M41.9927473,23.93168 C42.0238185,24.0729335 41.9528574,24.2169627 41.8220101,24.2780286 L41.7079801,24.3310758 L38.2481152,27.7998059 L39.5888898,32.8165677 C39.6328815,32.9811579 39.5355664,33.1501686 39.371392,33.1942718 L34.5586522,34.4870397 L33.2316187,39.4523991 C33.1949076,39.5902601 33.0705207,39.6811394 32.9347512,39.6811394 C32.9083971,39.6811394 32.8815304,39.6776441 32.8548687,39.6704477 L27.7698721,38.304483 L24.1738276,41.9096348 C24.1137363,41.9698782 24.0349818,42 23.9563299,42 C23.8775754,42 23.7988209,41.9698782 23.7388321,41.9096348 L20.1860616,38.3479694 L15.2628808,39.6704477 C15.2362192,39.6776441 15.2094549,39.6811394 15.1831009,39.6811394 C15.047229,39.6811394 14.9229445,39.5902601 14.8861309,39.4523991 L13.5589948,34.4870397 L8.74635753,33.1942718 C8.66750049,33.173094 8.60033358,33.1214862 8.55952071,33.0506538 C8.51870784,32.9797187 8.50773553,32.8956245 8.52875724,32.8165677 L9.82625787,27.9620316 L6.09013696,24.2163459 C6.03240418,24.1584669 6,24.0801297 6,23.9982974 C6,23.9164649 6.03240418,23.8380249 6.09013696,23.7802488 L9.72371296,20.1374705 L8.42621235,15.2828316 C8.40519064,15.2037749 8.41616295,15.1196807 8.45697582,15.0488483 C8.49778869,14.9780159 8.5649556,14.9263052 8.64381262,14.9051274 L13.6774342,13.5529385 L14.9886758,8.64700005 C15.0098001,8.56794332 15.0613801,8.50060631 15.1320336,8.45969007 C15.2027895,8.41877384 15.2867737,8.40777375 15.3654258,8.42884869 L20.126893,9.70794356 L23.7388321,6.08685705 C23.8542976,5.97099625 24.0585672,5.97109906 24.1738276,6.08685705 L27.8290405,9.7513271 L32.7523237,8.42884869 C32.8310782,8.40767094 32.9151651,8.41877384 32.9858185,8.45969007 C33.056472,8.50060631 33.1079496,8.56794332 33.1290738,8.64700005 L33.1638364,8.77715069 C33.1713223,8.79668355 33.1766545,8.81693607 33.1800385,8.8379082 L34.4403154,13.5529385 L39.473937,14.9051274 C39.6381114,14.9492306 39.7354264,15.1183442 39.6914347,15.2828316 L38.35066,20.2995933 L41.73618,23.6936873 C41.8611822,23.7117809 41.9647525,23.8050246 41.9927473,23.93168 Z M38.0642522,27.1118374 L40.0826434,25.0883344 L37.806762,26.1487639 L38.0642522,27.1118374 Z M38.8010373,32.2516564 L37.7458503,28.3034457 L35.6498325,30.404566 L35.6497301,30.4050801 L38.8010373,32.2516564 Z M35.4846327,31.0227301 L34.7425152,33.799174 L38.500273,32.7897357 L35.4846327,31.0227301 Z M32.7891375,38.7251593 L33.8725243,34.6713683 L30.9125658,35.4665619 L32.7891375,38.7251593 Z M29.0331228,37.0381359 L28.2722397,37.800946 L31.2549631,38.6022051 L29.0331228,37.0381359 Z M24.2639646,40.9470753 L27.0837442,38.1201543 L24.2639646,37.36269 L24.2639646,40.9470753 Z M23.6486952,37.4177932 L20.872292,38.1636406 L23.6486952,40.9470753 L23.6486952,37.4177932 Z M15.8658449,38.8699083 L19.6837966,37.8443295 L17.6378208,35.7931722 L15.8658449,38.8699083 Z M14.2452253,34.6713683 L15.0928614,37.8426847 L15.3474804,34.9675484 L14.2452253,34.6713683 Z M9.61183648,32.7882964 L13.3751318,33.799174 L12.626554,30.9984682 L9.61183648,32.7882964 Z M12.3209702,30.4630618 L10.3286253,28.4655685 L9.31835298,32.2456936 L12.3209702,30.4630618 Z M7.10163987,24.3581134 L10.0101209,27.2739603 L10.7894621,24.3581134 L7.10163987,24.3581134 Z M10.2203379,21.9952524 L9.90757597,20.8254388 L7.45603505,23.2831885 L10.2203379,21.9952524 Z M9.21293682,15.8430138 L10.2260804,19.6337278 L12.2508295,17.6039538 L9.21293682,15.8430138 Z M12.7205877,17.133006 L13.4935711,14.2409069 L9.51975117,15.3084298 L12.7012067,17.1524361 L12.7205877,17.133006 Z M15.3779362,9.57378354 L14.3636646,13.368507 L17.1346329,12.6242017 L15.3779362,9.57378354 Z M18.8914321,10.9464306 L19.6245257,10.2115833 L16.75091,9.43962354 L18.8914321,10.9464306 Z M23.6486952,7.04951934 L20.8131236,9.89227221 L23.6486952,10.6539515 L23.6486952,7.04951934 Z M24.2639646,10.7090548 L27.1429126,9.93575854 L24.2639646,7.04951934 L24.2639646,10.7090548 Z M32.357526,9.17356522 L28.3315105,10.2550696 L30.4889527,12.4179757 L32.357526,9.17356522 Z M32.8117998,13.1154021 L33.7541875,13.3686098 L33.0295027,10.6576525 L32.8117998,13.1154021 Z M38.5864108,15.3052429 L34.6241784,14.2409069 L35.3909067,17.1096693 L38.5864108,15.3052429 Z M35.7004897,17.642814 L37.8483952,19.7959536 L38.907889,15.8317053 L35.7004897,17.642814 Z M40.8622923,23.6898835 L38.1667971,20.9874589 L37.4444709,23.6898835 L40.8622923,23.6898835 Z M37.3144438,24.3067111 L37.6450486,25.5438616 L40.3004488,24.3067111 L37.3144438,24.3067111 Z M36.8499154,25.9143694 L37.0787956,25.8076582 L36.9786093,25.4330383 L36.8499154,25.9143694 Z M36.6423646,26.6912638 L35.9683369,29.2130607 L37.5619873,27.6154773 L37.2404064,26.4125605 L36.6423646,26.6912638 Z M34.7798416,31.2768631 L31.3565852,34.7086864 L34.0563873,33.9835027 L34.7798416,31.2768631 Z M30.4799287,34.7153686 L35.0982435,30.0853578 L35.9148085,27.0302106 L28.1401618,30.652428 L30.4799287,34.7153686 Z M30.3479535,35.7197697 L29.4746811,36.5953564 L31.791273,38.226043 L30.3479535,35.7197697 Z M28.7111319,36.0579968 L28.9635973,36.2355404 L29.2980988,35.9001916 L28.7111319,36.0579968 Z M27.9361999,36.2660733 L25.2473701,36.9883785 L27.5860092,37.6166173 L28.5219364,36.6784225 L27.9361999,36.2660733 Z M22.8703794,36.9883785 L18.5394981,35.8250415 L20.3699246,37.6600009 L22.8703794,36.9883785 Z M16.0344286,34.1858221 L16.0061263,34.5059557 L16.4809092,34.6334334 L16.0344286,34.1858221 Z M15.4671502,33.6170043 L13.4130734,31.5578281 L14.0613623,33.9835027 L15.4027521,34.3438329 L15.4671502,33.6170043 Z M12.2244755,29.4939229 L11.1391402,25.433244 L10.5124883,27.7777029 L12.2244755,29.4939229 Z M10.6869172,23.7412858 L10.3819487,22.6001547 L7.93266374,23.7412858 L10.6869172,23.7412858 Z M11.38412,22.1332162 L10.9484067,22.3362553 L11.1391402,23.0499249 L11.38412,22.1332162 Z M11.5917734,21.3563218 L12.4020832,18.3245113 L10.4099435,20.3216962 L10.7866934,21.731353 L11.5917734,21.3563218 Z M13.5906812,16.2606061 L16.3782618,13.4659658 L14.1798016,14.0565782 L13.5906812,16.2606061 Z M17.615466,12.2256283 L18.4497712,11.38921 L16.2367498,9.83141188 L17.615466,12.2256283 Z M19.3562682,12.027421 L18.9609576,11.7490261 L18.4370557,12.2743576 L19.3562682,12.027421 Z M20.1313026,11.8192417 L22.8702768,11.0834691 L20.3107561,10.395912 L19.4026185,11.3062467 L20.1313026,11.8192417 Z M25.2475752,11.0834691 L29.4006438,12.1991047 L27.6452802,10.4393983 L25.2475752,11.0834691 Z M32.1118284,14.0449613 L32.1532564,13.5772004 L31.4592325,13.3907128 L32.1118284,14.0449613 Z M32.6791068,14.6137792 L34.6021312,16.5416739 L33.9380505,14.0565782 L32.7566307,13.7392204 L32.6791068,14.6137792 Z M35.7906267,18.6053734 L36.9786093,23.0500276 L37.6645321,20.483922 L35.7906267,18.6053734 Z M27.1285564,28.8960114 L27.8312965,30.1161991 L36.122462,26.2532134 L36.6427748,24.3067111 L31.8206008,24.3067111 L31.5770566,27.0570426 C31.5652641,27.1903801 31.4689744,27.3008952 31.3387423,27.3305029 C31.3159774,27.3356431 31.2932124,27.3381103 31.2706525,27.3381103 C31.1635956,27.3381103 31.0621788,27.2819791 31.0059841,27.1868848 L29.5089312,24.6535738 L27.1285564,28.8960114 Z M25.9530841,30.991272 L27.2711964,30.37722 L26.7780579,29.5208577 L25.9530841,30.991272 Z M20.7234993,30.435099 L28.0546394,35.5956844 L29.978792,35.0788857 L27.5800615,30.9134488 L25.3465311,31.9541398 C25.3048979,31.9734672 25.260701,31.9828224 25.2169143,31.9828224 C25.13293,31.9828224 25.0506891,31.9484856 24.991008,31.8839242 C24.9003582,31.785643 24.8832333,31.6398661 24.9487595,31.5231829 L26.3491126,29.0272929 L21.5028406,29.0816764 L20.7234993,30.435099 Z M20.4146341,30.9714306 L18.0612287,35.0580163 L24.0588749,36.6691701 L27.2797075,35.8039666 L20.4146341,30.9714306 Z M20.787795,29.0896953 L18.8432361,29.1115926 L20.2179529,30.0792924 L20.787795,29.0896953 Z M16.9048298,24.3581134 L16.1053898,33.3847687 L17.5058454,34.7886684 L19.9090878,30.6155211 L17.7081666,29.0663586 C17.5988536,28.9894608 17.5515805,28.8505717 17.5911628,28.7226828 C17.6306426,28.5947938 17.747954,28.5069987 17.8815701,28.5055594 L20.8574231,28.4720452 L18.4264937,24.3581134 L16.9048298,24.3581134 Z M16.2872019,24.3581134 L11.4888183,24.3581134 L13.0945689,30.36622 L15.5381114,32.815848 L16.2872019,24.3581134 Z M18.0619464,23.7412858 L17.1031517,22.1187207 L16.9594863,23.7412858 L18.0619464,23.7412858 Z M20.2357958,18.0092095 L12.1117786,21.7942695 L11.5913633,23.7412858 L16.3418583,23.7412858 L16.5747378,21.1106188 C16.586633,20.9772813 16.6829226,20.8667662 16.8131547,20.8371586 C16.9436943,20.8075509 17.0779255,20.8655326 17.1459129,20.9807766 L18.650144,23.5264242 L21.0005757,19.3372395 L20.2357958,18.0092095 Z M19.9269306,17.4728779 L17.4835932,13.2302348 L13.2721767,17.4522142 L12.3193295,21.0172722 L19.9269306,17.4728779 Z M27.4378318,17.7161136 L20.0129658,12.4896305 L18.0683043,13.0119807 L20.4870307,17.2119598 L22.8866841,16.0939599 C23.0077896,16.0376229 23.1513523,16.0658941 23.2421046,16.1641753 C23.3328568,16.2623538 23.3499819,16.4081307 23.2844557,16.5248139 L21.8800008,19.0279003 L26.7136597,18.9735168 L27.4378318,17.7161136 Z M27.746697,17.1798849 L30.1338397,13.0347005 L24.0588749,11.4027802 L20.7878976,12.2814512 L27.746697,17.1798849 Z M27.4287053,18.9654979 L29.1846841,18.9457594 L27.9433782,18.0719203 L27.4287053,18.9654979 Z M31.2029729,24.3067111 L30.0191946,24.3067111 L31.0486428,26.0489407 L31.2029729,24.3067111 Z M21.3511767,18.712393 L22.2801309,17.056725 L20.795896,17.7481887 L21.3511767,18.712393 Z M26.694894,28.4109792 L29.1469476,24.0407556 L26.5284636,19.6094659 C26.5252848,19.6041202 26.5241568,19.5981574 26.5213881,19.5926061 L21.5316557,19.6487374 L19.01223,24.1391395 L21.5678541,28.4640264 L26.6659764,28.4068671 C26.6757181,28.4070726 26.6851522,28.4099512 26.694894,28.4109792 Z M32.6082483,15.4149354 L31.8752572,23.6898835 L36.5126452,23.6898835 L34.9206357,17.7330763 L32.6082483,15.4149354 Z M31.2576294,23.6898835 L32.0409699,14.8461176 L30.620928,13.4225823 L28.2521409,17.5356916 L30.3197536,18.9910963 C30.4290666,19.0679941 30.4763397,19.2068832 30.4367574,19.3347721 C30.3972777,19.4626611 30.2799663,19.5503533 30.1463502,19.5518955 L27.2289479,19.5846901 L29.6546475,23.6898835 L31.2576294,23.6898835 Z M32.2085281,12.953382 L32.4479706,10.2499294 L31.0676136,12.6469215 L32.2085281,12.953382 Z M15.9508547,35.1295684 L15.7039265,37.9176292 L17.1274548,35.4455898 L15.9508547,35.1295684 Z" id="Shape" fill="#FFFFFF"></path>
        </g>
    </g>
</svg>