<?xml version="1.0" encoding="UTF-8"?>
<svg width="48px" height="48px" viewBox="0 0 48 48" version="1.1" xmlns="http://www.w3.org/2000/svg" xmlns:xlink="http://www.w3.org/1999/xlink">
    <!-- Generator: Sketch 49.1 (51147) - http://www.bohemiancoding.com/sketch -->
    <title>ppt</title>
    <desc>Created with Sketch.</desc>
    <defs></defs>
    <g id="48px" stroke="none" stroke-width="1" fill="none" fill-rule="evenodd">
        <g id="ppt" fill-rule="nonzero">
            <circle id="Oval" fill="#152743" cx="24" cy="24" r="24"></circle>
            <path d="M24.0732,12.47376 C22.0995552,12.47376 20.4996,11.3737774 20.4996,10.01688 C20.4996,8.65998264 22.0995552,7.56 24.0732,7.56 C26.0468448,7.56 27.6468,8.65998264 27.6468,10.01688 C27.6468,11.3737774 26.0468448,12.47376 24.0732,12.47376 Z M22.224,39.9012 L22.224,13.656 L30.192,13.656 C30.48792,13.656 30.696,13.87656 30.696,14.17128 L30.696,28.73376 C30.696,29.02848 30.48672,29.28 30.192,29.28 L25.8,29.28 L25.8,39.9012 C25.8,40.19616 25.57392,40.464 25.2792,40.464 L22.77768,40.464 C22.48296,40.464 22.224,40.19592 22.224,39.9012 Z M20.88,29.28 L17.86416,29.28 C17.56944,29.28 17.304,29.02848 17.304,28.73376 L17.304,14.17128 C17.304,13.87656 17.5692,13.656 17.86416,13.656 L20.88,13.656 L20.88,29.28 Z" id="Shape" fill="#FFFFFF"></path>
        </g>
    </g>
</svg>