<?xml version="1.0" encoding="UTF-8"?>
<svg width="48px" height="48px" viewBox="0 0 48 48" version="1.1" xmlns="http://www.w3.org/2000/svg" xmlns:xlink="http://www.w3.org/1999/xlink">
    <!-- Generator: Sketch 49.1 (51147) - http://www.bohemiancoding.com/sketch -->
    <title>pura</title>
    <desc>Created with Sketch.</desc>
    <defs></defs>
    <g id="48px" stroke="none" stroke-width="1" fill="none" fill-rule="evenodd">
        <g id="pura" fill-rule="nonzero">
            <circle id="Oval" fill="#333333" cx="24" cy="24" r="24"></circle>
            <path d="M16.7878695,12 L28.4346774,12 C31.6554944,12.1899503 35.2007149,13.5137376 36.6242843,16.59 C38.405062,20.5072425 37.5201405,26.0142029 33.5078218,28.2494852 C29.8088368,30.3654653 25.3842297,29.5299504 21.3223662,29.7035049 C21.2124766,31.7055148 21.7731294,34.0330398 20.37737,35.7257971 C19.8163122,36.5342524 17.2440327,37.5 17.2440327,37.5 C17.2440327,37.5 17.0069736,35.3272347 16.920034,30.4359801 C16.8650892,29.085 17.0848683,27.5712624 18.2446487,26.6924255 C19.6022031,25.5259305 21.5259453,25.8894354 23.1748287,25.8297177 C25.6646236,25.7646681 28.280913,26.1444354 30.6443484,25.1840199 C34.1124843,23.76799 34.2389788,17.9789702 30.743303,16.5196184 C27.1762125,15.1361134 23.2353084,16.394851 19.5692632,15.629851 C17.90364,15.1630398 17.155473,13.5245348 16.7878695,12 Z M10.5,18.6462624 C13.5449127,18.7005149 16.5954952,18.5377575 19.6348729,18.7222425 C21.8444091,18.8904653 23.2953833,20.8924752 23.5262322,22.9379404 C20.4593146,22.9216781 17.3868621,23.0356482 14.3192695,22.8999504 C12.4346772,22.7914454 11.0441828,21.2614453 10.5,19.5740199 L10.5,18.6462624 Z" id="Shape" fill="#FFFFFF"></path>
        </g>
    </g>
</svg>