<?xml version="1.0" encoding="UTF-8"?>
<svg width="48px" height="48px" viewBox="0 0 48 48" version="1.1" xmlns="http://www.w3.org/2000/svg" xmlns:xlink="http://www.w3.org/1999/xlink">
    <!-- Generator: Sketch 49.1 (51147) - http://www.bohemiancoding.com/sketch -->
    <title>qash</title>
    <desc>Created with Sketch.</desc>
    <defs></defs>
    <g id="48px" stroke="none" stroke-width="1" fill="none" fill-rule="evenodd">
        <g id="qash" fill-rule="nonzero">
            <circle id="Oval" fill="#1347E8" cx="24" cy="24" r="24"></circle>
            <path d="M24,7.5 C14.88738,7.5 7.5,14.88738 7.5,24 C7.5,33.11262 14.88738,40.5 24,40.5 C33.11262,40.5 40.5,33.112785 40.5,24 C40.5,14.887215 33.112785,7.5 24,7.5 Z M39.660975,23.32548 L38.324475,23.338515 L38.31903,22.779165 L39.65553,22.766295 L39.660975,23.32548 Z M39.31761,20.440785 L37.993815,20.62443 L37.916925,20.070525 L39.240555,19.88688 L39.31761,20.440785 Z M38.177625,16.9281 L38.408625,17.43729 L37.192245,17.990205 L36.961245,17.48118 L38.177625,16.9281 Z M36.511125,14.384295 L36.88023,14.80455 L35.87637,15.686475 L35.507265,15.26622 L36.511125,14.384295 Z M34.553565,12.29589 L34.976955,12.66087 L34.10493,13.67298 L33.681375,13.308 L34.553565,12.29589 Z M32.220795,10.407465 L32.690055,10.71189 L31.96257,11.832735 L31.49364,11.52831 L32.220795,10.407465 Z M29.56776,9.097695 L30.108465,9.239925 L29.7684,10.53204 L29.22753,10.389645 L29.56776,9.097695 Z M26.64858,8.38011 L27.20595,8.42664 L27.094575,9.75819 L26.53737,9.711 L26.64858,8.38011 Z M23.627265,8.028 L24.18645,8.028 L24.18645,9.3645 L23.627265,9.3645 L23.627265,8.028 Z M21.14682,8.38011 L21.25803,9.71166 L20.7,9.758355 L20.58879,8.426805 L21.14682,8.38011 Z M18.22764,9.097695 L18.567705,10.389645 L18.027,10.532205 L17.686935,9.24009 L18.22764,9.097695 Z M15.57444,10.407465 L16.301595,11.52831 L15.8325,11.832735 L15.10518,10.71189 L15.57444,10.407465 Z M13.242,12.29589 L14.11419,13.308 L13.690635,13.67298 L12.818445,12.66087 L13.242,12.29589 Z M11.28444,14.38413 L12.288135,15.26622 L11.91903,15.686475 L10.9155,14.80455 L11.28444,14.38413 Z M9.61794,16.927935 L10.834155,17.481015 L10.603155,17.99004 L9.386775,17.437125 L9.61794,16.927935 Z M8.554845,19.886715 L9.87831,20.07036 L9.80142,20.624265 L8.477955,20.440785 L8.554845,19.886715 Z M8.13987,22.766295 L9.47637,22.779165 L9.47109,23.338515 L8.13459,23.32548 L8.13987,22.766295 Z M8.26296,25.904925 L9.5922,25.769955 L9.64863,26.326335 L8.31939,26.461305 L8.26296,25.904925 Z M8.86851,28.74606 L10.1697,28.442295 L10.296915,28.986795 L8.995725,29.290725 L8.86851,28.74606 Z M10.3248,32.14011 L10.04793,31.654185 L11.208705,30.99204 L11.485575,31.47813 L10.3248,32.14011 Z M12.216855,34.52073 L11.810955,34.136445 L12.730005,33.16608 L13.13607,33.55086 L12.216855,34.52073 Z M14.356905,36.42153 L13.902,36.09681 L14.6775,35.00913 L15.132735,35.33418 L14.356905,36.42153 Z M16.8522,38.08803 L16.3572,37.82832 L16.979085,36.645765 L17.474085,36.905805 L16.8522,38.08803 Z M19.614135,39.14997 L19.062705,39.057735 L19.283145,37.740045 L19.83474,37.83228 L19.614135,39.14997 Z M22.027425,39.6024 L22.016535,38.2659 L22.575885,38.261115 L22.586775,39.597615 L22.027425,39.6024 Z M10.1103,24 C10.1103,16.34103 16.34103,10.1103 24,10.1103 C31.65897,10.1103 37.8897,16.34103 37.8897,24 C37.8897,31.65897 31.658805,37.8897 24,37.8897 C16.341195,37.8897 10.1103,31.658805 10.1103,24 Z M25.089,39.72219 L25.071015,39.723675 L24.948915,38.39328 L25.505955,38.342295 L25.524105,38.340645 L25.646205,39.671205 L25.089,39.72219 Z M28.06593,39.09519 L27.833445,37.779315 L28.38405,37.681965 L28.616535,38.99784 L28.06593,39.09519 Z M30.90723,38.113935 L30.45051,36.85812 L30.976035,36.666885 L31.432425,37.9227 L30.90723,38.113935 Z M33.429585,36.567225 L32.602935,35.517495 L33.042165,35.170995 L33.869145,36.220725 L33.429585,36.567225 Z M35.579865,34.473375 L34.61874,33.545415 L35.007315,33.143145 L35.968275,34.07127 L35.579865,34.473375 Z M37.338105,32.21502 L36.25785,31.428465 L36.587025,30.97653 L37.667445,31.763085 L37.338105,32.21502 Z M38.765355,29.529645 L37.503435,29.09025 L37.68741,28.56225 L38.94933,29.001975 L38.765355,29.529645 Z M39.55356,26.48622 L38.218875,26.42418 L38.244615,25.86582 L39.579465,25.92753 L39.55356,26.48622 Z M29.30343,31.09797 L29.301945,31.098465 C29.52585,31.339365 29.53212,31.703685 29.31135,31.921815 C29.09058,32.139945 28.726425,32.12955 28.488,31.90251 L28.488,31.9035 L28.071705,31.482255 L27.12279,30.521955 C26.51691,30.816315 25.84074,30.94815 25.148895,30.922905 L22.541895,30.922905 C20.18091,31.009035 18.000105,29.8311 18.17583,25.99716 C18.182925,25.83645 18.166425,23.771805 18.166425,23.60895 C18.166425,23.446095 18.171705,22.220475 18.171705,22.060095 C18.16626,18.23556 19.100655,16.500915 21.678615,15.88728 C21.97017,15.817815 23.56473,15.78168 23.86965,15.78168 L24.006435,15.78168 C24.311685,15.78168 25.719465,15.817815 26.011185,15.88728 C28.58898,16.501575 29.52354,18.236055 29.51826,22.06092 C29.518095,22.2213 29.52354,23.446095 29.52354,23.609775 C29.52354,23.773455 29.506545,25.836615 29.514135,25.997985 C29.61,28.0689 29.016495,28.967985 28.078635,29.858985 L28.887135,30.67689 L29.30343,31.09797 Z M25.315875,29.706195 C25.6133541,29.7070766 25.9093623,29.6644403 26.1945,29.57964 L25.6599,29.03877 L25.243605,28.617525 C25.0197,28.376955 25.01343,28.012635 25.2342,27.794505 C25.45497,27.576375 25.819455,27.58677 26.05755,27.813315 L26.47401,28.234395 L27.221955,28.991415 C27.25908,28.956765 27.296205,28.920795 27.33234,28.883175 C28.03161,28.150575 28.36524,27.538095 28.29726,26.053095 C28.292475,25.949805 28.29198,25.94634 28.302705,24.084315 C28.304355,23.831865 28.305345,23.649705 28.305345,23.609115 C28.305345,23.536845 28.30419,23.07105 28.303035,22.561695 C28.301385,21.922485 28.2999,22.14804 28.2999,22.058445 C28.302375,20.36373 28.110645,18.891435 27.698145,18.225825 C27.45345,17.831145 27.03039,17.38647 25.74999,17.07792 C25.497705,17.039805 24.39402,17.000535 24.00792,17.000535 L23.870145,17.000535 C23.48388,17.000535 22.194075,17.039805 21.941625,17.07792 C20.661225,17.38647 20.238165,17.831145 19.99347,18.225825 C19.58064,18.891435 19.38924,20.363895 19.391715,22.058445 C19.391715,22.14804 19.3899,21.922485 19.38858,22.561695 C19.38726,23.070885 19.38627,23.536845 19.38627,23.609115 C19.38627,23.64954 19.38726,23.831865 19.388745,24.084315 C19.399305,25.94634 19.398975,25.949805 19.39419,26.053095 C19.326045,27.53793 19.65984,28.15107 20.359275,28.883175 C21.009045,29.563305 21.813915,29.706195 22.374915,29.706195 C22.41534,29.706195 22.456425,29.70537 22.497015,29.703885 L22.51929,29.702895 L25.1715,29.702895 L25.193775,29.703885 C25.234695,29.706195 25.275285,29.706195 25.315875,29.706195 Z" id="Shape" fill="#FFFFFF"></path>
        </g>
    </g>
</svg>