<?xml version="1.0" encoding="UTF-8"?>
<svg width="48px" height="48px" viewBox="0 0 48 48" version="1.1" xmlns="http://www.w3.org/2000/svg" xmlns:xlink="http://www.w3.org/1999/xlink">
    <!-- Generator: Sketch 49.1 (51147) - http://www.bohemiancoding.com/sketch -->
    <title>qiwi</title>
    <desc>Created with Sketch.</desc>
    <defs></defs>
    <g id="48px" stroke="none" stroke-width="1" fill="none" fill-rule="evenodd">
        <g id="qiwi" fill-rule="nonzero">
            <circle id="Oval" fill="#FF8C00" cx="24" cy="24" r="24"></circle>
            <path d="M33.8850993,29.1675024 C33.9614535,29.7690317 33.7903965,30.0016872 33.5998069,30.0016872 C33.4092174,30.0016872 33.1422736,29.7690317 32.8569813,29.3037206 C32.5710969,28.8378066 32.4568615,28.3146329 32.6095699,28.0427996 C32.7042729,27.8680065 32.9138029,27.7908564 33.161806,27.8878967 C33.6566286,28.0819773 33.8472181,28.8378066 33.8850993,29.1675024 Z M31.2192133,30.4862859 C31.8093306,30.9907749 31.9809796,31.5724139 31.6761547,31.9991499 C31.5045058,32.212518 31.2192133,32.3481333 30.8954479,32.3481333 C30.5716825,32.3481333 30.2289765,32.2318056 30.0005058,32.0184375 C29.4672102,31.5531263 29.3150937,30.7768041 29.6572078,30.3506706 C29.7909756,30.1758776 30.0005058,30.07944 30.2668576,30.07944 C30.5716825,30.07944 30.9143884,30.2150553 31.2192133,30.4862859 Z M10.5,22.3415322 C10.5,14.972498 16.3656592,9 23.6015508,9 C30.8380342,9 36.7036936,14.9731007 36.7036936,22.3415322 C36.7036936,24.8428811 36.0182815,27.18993 34.8569875,29.1873927 C34.8185145,29.2452552 34.7232198,29.2259678 34.7042791,29.148215 C34.2473377,25.8711465 32.2858045,24.0671616 29.429329,23.5247004 C29.1813259,23.4855227 29.1434448,23.3306198 29.4672102,23.2920447 C30.3432118,23.2142921 31.58086,23.2335795 32.2283908,23.3499074 C32.266272,23.0202114 32.2858045,22.671228 32.2858045,22.3222446 C32.2858045,17.4545594 28.400619,13.4982089 23.6204914,13.4982089 C18.8409556,13.4982089 14.9557703,17.4545594 14.9557703,22.3222446 C14.9557703,27.18993 18.8409556,31.1462804 23.6210833,31.1462804 L24.020611,31.1462804 C23.8848786,30.3589587 23.827372,29.5597163 23.8489621,28.7606565 C23.8684945,28.2175926 23.9827299,28.1398398 24.2112006,28.566576 C25.4109676,30.6803666 27.1250896,32.580789 30.4763877,33.337221 C33.2186278,33.9580377 35.960868,34.675292 38.9126382,38.4954243 C39.17899,38.8251203 38.7794623,39.1741037 38.4746374,38.9028731 C35.4660454,36.1875533 32.7238053,35.295506 30.2289765,35.295506 C27.4293226,35.3153963 25.525203,35.6836671 23.6015508,35.6836671 C16.3650675,35.6836671 10.5,29.7105665 10.5,22.3415322 Z" id="Shape" fill="#FFFFFF"></path>
        </g>
    </g>
</svg>