<?xml version="1.0" encoding="UTF-8"?>
<svg width="48px" height="48px" viewBox="0 0 48 48" version="1.1" xmlns="http://www.w3.org/2000/svg" xmlns:xlink="http://www.w3.org/1999/xlink">
    <!-- Generator: Sketch 49.1 (51147) - http://www.bohemiancoding.com/sketch -->
    <title>qlc</title>
    <desc>Created with Sketch.</desc>
    <defs></defs>
    <g id="48px" stroke="none" stroke-width="1" fill="none" fill-rule="evenodd">
        <g id="qlc" fill-rule="nonzero">
            <circle id="Oval" fill="#610089" cx="24" cy="24" r="24"></circle>
            <path d="M24.7349317,7.50418747 C32.4289107,7.91817224 38.6585933,13.2584586 40.1865296,20.8062738 C40.3881525,21.802254 40.4418668,22.8335127 40.4971379,23.8522971 C40.5461813,24.7525776 39.9596064,25.3591314 39.1486383,25.357962 C38.3546019,25.3564027 37.8326397,24.7820086 37.8127889,23.88855 C37.6677993,17.3070891 33.2233364,11.8794839 26.8068217,10.5083056 C25.8471664,10.3032623 24.8448901,10.2999489 23.8640217,10.189436 C23.1163041,10.1050408 22.6217829,9.53103654 22.6429962,8.80247016 C22.6642093,8.07975102 23.2031032,7.5435589 23.9568538,7.50633147 C24.2154996,7.49346753 24.4755076,7.50418747 24.7349317,7.50418747 Z M23.2973367,40.5 C15.9133821,40.2779997 9.27130666,34.6812144 7.87103907,27.4314136 C7.65696063,26.3229714 7.57716775,25.1839285 7.50321339,24.0544363 C7.45786768,23.3634871 7.8969231,22.867836 8.53662838,22.7031385 C9.06948907,22.5663132 9.68720268,22.7920167 9.95635765,23.2974133 C10.0933679,23.5548868 10.1570075,23.879214 10.1620676,24.1746946 C10.2714422,30.4797759 14.537247,35.9067963 20.6558034,37.4163594 C21.7610319,37.6890357 22.9246455,37.733085 24.0643213,37.8533433 C24.7151197,37.9221457 25.2370819,38.3645871 25.3246594,38.9980384 C25.4075662,39.5983552 25.0294258,40.268839 24.4539441,40.4119015 C24.0839776,40.5037032 23.6838456,40.474662 23.2973367,40.5 Z M23.9762182,17.995251 C27.2414983,17.9851158 29.9832592,20.6625681 30.0054456,23.883229 C30.0132301,24.9940101 28.9971361,25.6925607 28.0553856,25.2136716 C27.5472412,24.9550285 27.3277135,24.5246715 27.3063057,23.9493028 C27.245196,22.3033042 26.1113587,21.0245122 24.5049921,20.7512512 C22.7767951,20.4573298 21.0968632,21.6304815 20.761344,23.3657481 C20.4186238,25.1390217 21.5279394,26.8657123 23.2563309,27.2379868 C23.492401,27.2888578 23.7356719,27.3186787 23.9768022,27.3315427 C24.7794016,27.3738378 25.3435956,27.9269868 25.3375626,28.6806964 C25.3315294,29.4466851 24.7270497,30.0130879 23.9081023,30.0204945 C21.3348796,30.0434937 18.9082032,28.1661391 18.2058313,25.6087503 C17.1570415,21.7918654 20.0251087,18.0077251 23.9762182,17.995251 Z M35.3080906,23.6315052 C35.277925,23.8870297 35.2886289,24.2055096 35.1965752,24.4904652 C35.000596,25.0968241 34.3558308,25.4478536 33.7268293,25.3449421 C33.0699978,25.2375479 32.6038906,24.6992116 32.5968844,23.9644083 C32.5863752,22.8464155 32.405187,21.7596081 31.9458915,20.7456963 C30.4263237,17.3924977 27.826633,15.5936911 24.1392293,15.4190535 C23.2379591,15.3763687 22.6381502,14.8471933 22.6457403,14.0408586 C22.6529411,13.2335493 23.2556693,12.7071026 24.1703679,12.7090517 C29.6770492,12.7207462 34.4860295,16.9798774 35.1843144,22.4657601 C35.2314116,22.8353058 35.2635234,23.2066056 35.3080907,23.6315052 Z M12.7165683,24.3228247 C12.6400839,23.7121777 12.7971396,23.1106914 13.4938676,22.789093 C14.4116802,22.365363 15.3734763,23.0225929 15.3919648,24.1006294 C15.4094803,25.1338372 15.5873601,26.1292327 15.9584943,27.0916889 C17.2211677,30.3682884 20.2686717,32.5226074 23.7711895,32.6147989 C24.9344139,32.6452046 25.611291,33.4877922 25.2413245,34.4449857 C25.0334739,34.9831269 24.5774868,35.2973187 23.9527669,35.2916664 C20.6503152,35.2626252 17.8651546,34.024764 15.6373765,31.5983533 C13.7673042,29.5619538 12.7696986,27.0078783 12.7165683,24.3228247 Z M30.0182707,28.551979 C29.9618319,29.222268 29.7327679,29.6475574 29.2285159,29.8832013 C28.7275725,30.1170909 28.2192334,30.0806431 27.8187121,29.7101229 C27.0929862,29.0390544 26.3923659,28.3377751 25.7170458,27.6154458 C25.2511332,27.1170658 25.2964789,26.332171 25.7540229,25.8413925 C26.2189624,25.342038 27.0495867,25.2397113 27.5581203,25.704762 C28.3112872,26.3931772 29.0241684,27.1281756 29.7183663,27.8766226 C29.9007222,28.0736746 29.9513226,28.3933239 30.0182707,28.551979 Z" id="Shape" fill="#FFFFFF"></path>
        </g>
    </g>
</svg>