<?xml version="1.0" encoding="UTF-8"?>
<svg width="48px" height="48px" viewBox="0 0 48 48" version="1.1" xmlns="http://www.w3.org/2000/svg" xmlns:xlink="http://www.w3.org/1999/xlink">
    <!-- Generator: Sketch 49.1 (51147) - http://www.bohemiancoding.com/sketch -->
    <title>qnt</title>
    <desc>Created with Sketch.</desc>
    <defs></defs>
    <g id="48px" stroke="none" stroke-width="1" fill="none" fill-rule="evenodd">
        <g id="qnt" fill-rule="nonzero">
            <circle id="Oval-3" fill="#01449C" cx="24" cy="24" r="24"></circle>
            <path d="M26.8003862,10.3331249 L33.390096,14.2627683 C34.0545922,13.1683715 35.257704,12.437247 36.631579,12.437247 C38.7244474,12.437247 40.4210526,14.1338521 40.4210526,16.2267206 C40.4210526,18.3195892 38.7244474,20.0161944 36.631579,20.0161944 C34.5387104,20.0161944 32.8421052,18.3195892 32.8421052,16.2267206 C32.8421052,15.7160006 32.9431382,15.228878 33.1263074,14.7842493 L26.4752256,10.8180079 C25.869632,11.5685187 24.9422956,12.048583 23.902834,12.048583 C22.078282,12.048583 20.5991902,10.5694913 20.5991902,8.74493928 C20.5991902,6.92038722 22.078282,5.44129554 23.902834,5.44129554 C25.727386,5.44129554 27.2064778,6.92038722 27.2064778,8.74493928 C27.2064778,9.32058968 27.0592464,9.86185236 26.8003862,10.3331249 Z M22.8047756,29.5478056 C23.0658562,29.3010756 23.4180956,29.1497976 23.805668,29.1497976 C24.6106174,29.1497976 25.2631578,29.802338 25.2631578,30.6072874 C25.2631578,31.4122368 24.6106174,32.0647774 23.805668,32.0647774 C23.0007186,32.0647774 22.3481782,31.4122368 22.3481782,30.6072874 C22.3481782,30.4009386 22.3910602,30.2046052 22.4683988,30.0267128 L19.2134325,28.1422586 C18.8926123,28.520833 18.41364,28.7611336 17.8785425,28.7611336 C17.3752134,28.7611336 16.9215431,28.548519 16.6024442,28.2082024 L13.7870684,29.9453492 C13.9195351,30.3028572 13.9919028,30.689536 13.9919028,31.0931174 C13.9919028,32.9176694 12.5128112,34.3967612 10.6882591,34.3967612 C8.86370706,34.3967612 7.38461538,32.9176694 7.38461538,31.0931174 C7.38461538,29.2685654 8.86370706,27.7894736 10.6882591,27.7894736 C10.7207595,27.7894736 10.7531503,27.789943 10.7854251,27.7908752 L10.7854251,19.9965064 C8.87514162,19.8018882 7.38461538,18.1883699 7.38461538,16.2267206 C7.38461538,14.1338521 9.08122054,12.437247 11.1740891,12.437247 C13.2669576,12.437247 14.9635628,14.1338521 14.9635628,16.2267206 C14.9635628,18.2544145 13.3709813,19.910141 11.3684211,20.0112976 L11.3684211,27.8595644 C12.2902243,28.0524842 13.070827,28.6296298 13.5350408,29.415813 L16.2797321,27.72228 C16.1832011,27.5052732 16.1295547,27.2649744 16.1295547,27.0121458 C16.1295547,26.0462064 16.9126032,25.2631578 17.8785425,25.2631578 C18.8444818,25.2631578 19.6275304,26.0462064 19.6275304,27.0121458 C19.6275304,27.2337894 19.5863016,27.4458038 19.5110949,27.6409378 L22.8047756,29.5478056 Z M19.3712234,19.8858668 C19.4115314,20.0193974 19.4331984,20.1610146 19.4331984,20.3076924 C19.4331984,21.1126418 18.7806579,21.7651822 17.9757085,21.7651822 C17.1707591,21.7651822 16.5182186,21.1126418 16.5182186,20.3076924 C16.5182186,19.5027429 17.1707591,18.8502024 17.9757085,18.8502024 C18.4239373,18.8502024 18.8249084,19.0525369 19.0922687,19.3708527 L22.2970726,17.2125153 C22.2049208,16.9996772 22.1538462,16.7649125 22.1538462,16.5182186 C22.1538462,15.5522793 22.9368946,14.7692308 23.902834,14.7692308 C24.8687734,14.7692308 25.6518218,15.5522793 25.6518218,16.5182186 C25.6518218,16.7589028 25.6032054,16.988232 25.5152568,17.1969217 L28.4557686,19.0024992 C28.8300626,18.553181 29.3937806,18.2672065 30.0242914,18.2672065 C31.1512208,18.2672065 32.0647774,19.1807631 32.0647774,20.3076924 C32.0647774,21.3690764 31.2543998,22.2411868 30.2186234,22.3390446 L30.2186234,24.306931 C31.5841264,24.4523804 32.6477732,25.608049 32.6477732,27.0121458 C32.6477732,27.4314186 32.5529322,27.82854 32.383533,28.1832268 L34.0154434,29.2079148 C34.6122378,28.3505804 35.6049646,27.7894736 36.728745,27.7894736 C38.553297,27.7894736 40.0323886,29.2685654 40.0323886,31.0931174 C40.0323886,32.9176694 38.553297,34.3967612 36.728745,34.3967612 C35.5823222,34.3967612 34.5722872,33.8128158 33.9798542,32.9261394 L27.3823372,37.0586502 C27.6427366,37.5725216 27.7894736,38.15374 27.7894736,38.7692308 C27.7894736,40.8620992 26.0928686,42.5587044 24,42.5587044 C21.9071314,42.5587044 20.2105264,40.8620992 20.2105264,38.7692308 C20.2105264,36.6763622 21.9071314,34.979757 24,34.979757 C25.2686646,34.979757 26.3917184,35.6031912 27.0795122,36.5604102 L33.69963,32.4137432 C33.5230504,32.009291 33.4251012,31.5626428 33.4251012,31.0931174 C33.4251012,30.6009854 33.5327096,30.1339866 33.7256804,29.714367 L32.0772748,28.6793216 C31.5795442,29.3203132 30.8015048,29.7327936 29.9271256,29.7327936 C28.4245532,29.7327936 27.2064778,28.514718 27.2064778,27.0121458 C27.2064778,25.608049 28.2701246,24.4523804 29.6356276,24.306931 L29.6356276,22.3112072 C28.6945868,22.1297284 27.9838056,21.3017162 27.9838056,20.3076924 C27.9838056,20.0204174 28.0431716,19.7470083 28.1503046,19.4990637 L25.2022844,17.6888758 C24.8821704,18.0439802 24.4185708,18.2672065 23.902834,18.2672065 C23.3931956,18.2672065 22.9344688,18.0492282 22.6147996,17.7014176 L19.3712234,19.8858668 Z" id="Combined-Shape" fill="#FFFFFF"></path>
        </g>
    </g>
</svg>