<?xml version="1.0" encoding="UTF-8"?>
<svg width="48px" height="48px" viewBox="0 0 48 48" version="1.1" xmlns="http://www.w3.org/2000/svg" xmlns:xlink="http://www.w3.org/1999/xlink">
    <!-- Generator: Sketch 49.1 (51147) - http://www.bohemiancoding.com/sketch -->
    <title>qsp</title>
    <desc>Created with Sketch.</desc>
    <defs></defs>
    <g id="48px" stroke="none" stroke-width="1" fill="none" fill-rule="evenodd">
        <g id="qsp" fill-rule="nonzero">
            <circle id="Oval" fill="#454545" cx="24" cy="24" r="24"></circle>
            <path d="M17.25,24 C17.25,20.277962 20.277962,17.25 24,17.25 C27.7220381,17.25 30.75,20.277962 30.75,24 C30.75,24.9797283 30.5355163,25.908587 30.1583967,26.7496467 L25.7046195,22.2953805 L22.295625,25.704375 L26.7496467,30.1583967 C25.8852612,30.5478681 24.9480771,30.7495091 24,30.75 C20.2777175,30.75 17.25,27.7220381 17.25,24 M34.9699138,24 C34.9699138,21.7981035 34.314931,19.7519224 33.1981551,18.0336983 L37.5,13.7316207 L34.2683793,10.5 L29.9663018,14.8018448 C28.2480776,13.685069 26.2018965,13.0300862 24,13.0300862 C21.7981035,13.0300862 19.7519224,13.685069 18.0336983,14.8018448 L13.7316207,10.5 L10.5,13.7316207 L14.8018448,18.0336983 C13.685069,19.7519225 13.0300862,21.7981035 13.0300862,24 C13.0300862,26.2018965 13.6853017,28.2480776 14.8020776,29.9663018 L10.5,34.2683793 L13.7316207,37.5 L18.0336983,33.1979225 C19.7521551,34.314931 21.7981035,34.9699138 24,34.9699138 C26.2018965,34.9699138 28.2480776,34.314931 29.9663018,33.1979225 L34.2683793,37.5 L37.5,34.2683793 L33.1979225,29.9663018 C34.314931,28.2478449 34.9699138,26.2018965 34.9699138,24" id="Shape" fill="#FFFFFF"></path>
        </g>
    </g>
</svg>