<?xml version="1.0" encoding="UTF-8"?>
<svg width="48px" height="48px" viewBox="0 0 48 48" version="1.1" xmlns="http://www.w3.org/2000/svg" xmlns:xlink="http://www.w3.org/1999/xlink">
    <!-- Generator: Sketch 49.1 (51147) - http://www.bohemiancoding.com/sketch -->
    <title>qtum</title>
    <desc>Created with Sketch.</desc>
    <defs></defs>
    <g id="48px" stroke="none" stroke-width="1" fill="none" fill-rule="evenodd">
        <g id="qtum" fill-rule="nonzero">
            <circle id="Oval" fill="#2E9AD0" cx="24" cy="24" r="24"></circle>
            <path d="M37.9695855,35.4541933 L35.0105,32.8207137 L29.0223762,37.3119085 C29.0917851,37.4638809 29.130531,37.6332789 29.130531,37.8118812 C29.130531,38.4680612 28.6075362,39 27.9623893,39 C27.392105,39 26.9172685,38.5843501 26.814748,38.0346534 L20.3489688,38.0346534 C20.2464483,38.5843501 19.7716117,39 19.2013275,39 C18.5561806,39 18.0331859,38.4680612 18.0331859,37.8118812 C18.0331859,37.6347073 18.0713144,37.4665913 18.1396811,37.3155583 L12.8203991,33.3552987 C12.6143187,33.5408361 12.3433213,33.6534654 12.0464602,33.6534654 C11.4013134,33.6534654 10.8783186,33.1215264 10.8783186,32.4653466 C10.8783186,32.0156025 11.1240056,31.6242233 11.4863168,31.4224786 L9.53180557,25.1825663 C9.49440528,25.1862394 9.45648922,25.1881188 9.41814159,25.1881188 C8.7729948,25.1881188 8.25,24.65618 8.25,24 C8.25,23.3438201 8.7729948,22.8118812 9.41814159,22.8118812 C9.46980933,22.8118812 9.52069359,22.8152929 9.5705885,22.8219072 L11.4915873,16.5804383 C11.1263903,16.379565 10.8783186,15.9865749 10.8783186,15.5346534 C10.8783186,14.8784736 11.4013134,14.3465347 12.0464602,14.3465347 C12.3490834,14.3465347 12.6248291,14.4635786 12.8323256,14.6555872 L18.1914004,10.785573 C18.0908109,10.6100515 18.0331859,10.4059298 18.0331859,10.1881188 C18.0331859,9.53193891 18.5561806,9 19.2013275,9 C19.7716117,9 20.2464483,9.41564985 20.3489688,9.96534654 L26.814748,9.96534654 C26.9172685,9.41564985 27.392105,9 27.9623893,9 C28.6075362,9 29.130531,9.53193891 29.130531,10.1881188 C29.130531,10.3942457 29.0789226,10.5881125 28.988131,10.7570817 L34.3137281,14.6722719 C34.5231114,14.4703805 34.8059643,14.3465347 35.1172566,14.3465347 C35.7624035,14.3465347 36.2853983,14.8784736 36.2853983,15.5346534 C36.2853983,15.951874 36.0739602,16.3188661 35.7541235,16.5308283 L37.667663,22.814482 C37.6934148,22.8127572 37.7193944,22.8118812 37.7455752,22.8118812 C38.3907221,22.8118812 38.9137169,23.3438201 38.9137169,24 C38.9137169,24.65618 38.3907221,25.1881188 37.7455752,25.1881188 C37.7325569,25.1881188 37.7195881,25.1879022 37.7066726,25.1874723 L35.4607534,32.4320558 L38.3369352,34.991754 C38.6460489,34.7134779 39.0525228,34.5445545 39.4977876,34.5445545 C40.4655078,34.5445545 41.25,35.3424629 41.25,36.3267327 C41.25,37.3110025 40.4655078,38.1089109 39.4977876,38.1089109 C38.5300674,38.1089109 37.7455752,37.3110025 37.7455752,36.3267327 C37.7455752,36.0097486 37.8269397,35.7120932 37.9695855,35.4541933 Z M28.0616437,36.6279909 L30.2918922,31.6051282 C30.1123581,31.4565063 29.9770653,31.2547201 29.9092069,31.0233589 L24.7333269,31.7754156 C24.6954825,32.0011296 24.5950431,32.2051365 24.4508199,32.3683037 L27.5227498,36.7107808 C27.6584553,36.6546721 27.8068734,36.6237624 27.9623893,36.6237624 C27.9958208,36.6237624 28.0289241,36.6251908 28.0616437,36.6279909 Z M28.6511934,36.8521923 L34.4545037,32.4996108 L31.9533735,31.4093663 C31.7397287,31.6903548 31.4050191,31.8712872 31.0287611,31.8712872 C30.9584714,31.8712872 30.8896316,31.8649728 30.8227602,31.8528714 L28.6145786,36.826036 C28.626954,36.8345222 28.639161,36.843243 28.6511934,36.8521923 Z M27.0538224,37.065054 L23.9640345,32.6973328 C23.8442861,32.7394816 23.715701,32.7623763 23.5818584,32.7623763 C23.4480159,32.7623763 23.3194308,32.7394816 23.1996824,32.6973328 L20.1098945,37.065054 C20.1978374,37.1755954 20.2666751,37.3025074 20.3112987,37.440594 L26.8524182,37.440594 C26.8970418,37.3025074 26.9658794,37.1755954 27.0538224,37.065054 Z M37.1461758,25.0199916 C36.8054882,24.8124338 36.5774337,24.4333049 36.5774337,24 C36.5774337,23.5809107 36.79077,23.2125008 37.1130127,23.0009862 L35.3038449,17.0600673 L34.8993396,22.8714179 C35.3651346,23.0276644 35.7013275,23.4738998 35.7013275,24 C35.7013275,24.522836 35.3692935,24.9667952 34.9079946,25.1256404 L35.3066148,30.9537999 L37.1461758,25.0199916 Z M33.765745,23.1042407 L31.3882831,18.4476159 C31.2750249,18.4848399 31.154202,18.5049506 31.028761,18.5049506 C30.9465597,18.5049506 30.8663413,18.4963148 30.7889352,18.4798865 L28.701536,23.0799306 C28.9633938,23.2978125 29.130531,23.6290539 29.130531,24 C29.130531,24.3773354 28.9575865,24.7135866 28.687921,24.9312268 L30.8395792,29.5105508 C30.9011562,29.5003518 30.9643498,29.4950495 31.028761,29.4950495 C31.1237874,29.4950495 31.2161635,29.5065902 31.3046085,29.5283688 L33.7327573,24.8653599 C33.5063877,24.6486707 33.3650442,24.3411239 33.3650442,24 C33.3650442,23.6425949 33.5202018,23.3220485 33.765745,23.1042407 Z M34.3255051,25.1693977 C34.2981823,25.1644111 34.2711892,25.1584584 34.2445612,25.1515752 L31.8192022,29.8083588 C32.0513943,30.0255084 32.1969027,30.3370551 32.1969027,30.6831682 C32.1969027,30.7444338 32.1923434,30.8046162 32.1835515,30.8633836 L34.7927378,32.0007298 L34.3255051,25.1693977 Z M34.3165364,22.8322761 L34.7460848,16.6615394 C34.5188268,16.5841367 34.322721,16.4376081 34.181905,16.2465044 L32.1746754,17.0849928 C32.1892573,17.1599759 32.1969027,17.2374957 32.1969027,17.3168317 C32.1969027,17.630209 32.0776173,17.9152496 31.8827092,18.1275436 L34.2879461,22.838108 C34.297434,22.8360464 34.3069646,22.8341017 34.3165364,22.8322761 Z M28.1544563,25.1721359 C28.0919685,25.1826495 28.0278069,25.1881188 27.9623893,25.1881188 C27.8550939,25.1881188 27.751177,25.1734056 27.6524827,25.1458547 L24.4686073,30.8008053 C24.5624709,30.9120272 24.636456,31.0411095 24.6849589,31.182353 L29.8879801,30.4263526 C29.9469075,30.1543414 30.0974809,29.9173041 30.3050901,29.7504429 L28.1544563,25.1721359 Z M28.1712954,22.8308265 L30.2653392,18.2161396 C30.058377,18.0342275 29.9148689,17.7796535 29.8731392,17.4913977 L24.6605506,16.7340072 C24.6025362,16.8755723 24.5183685,17.0032743 24.4141855,17.1108708 L27.622518,22.8629529 C27.7300632,22.8297411 27.8441757,22.8118812 27.9623893,22.8118812 C28.0336974,22.8118812 28.1035132,22.8183798 28.1712954,22.8308265 Z M27.1468001,24.8505854 C26.9292979,24.6348041 26.7942479,24.3334431 26.7942479,24 C26.7942479,23.6784501 26.9198358,23.3867344 27.1238436,23.1728282 L23.913329,17.4168339 C23.8082487,17.448403 23.696999,17.4653466 23.5818583,17.4653466 C23.5070862,17.4653466 23.4339549,17.4582012 23.3630884,17.4445452 L20.0521728,23.1859215 C20.248917,23.3985641 20.369469,23.6849631 20.369469,24 C20.369469,24.3272477 20.2393908,24.6235944 20.0289547,24.8384694 L23.2821983,30.4255938 C23.3778294,30.3998529 23.4782693,30.3861385 23.5818583,30.3861385 C23.7245853,30.3861385 23.8613335,30.4121734 23.9877631,30.4598289 L27.1468001,24.8505854 Z M10.0808878,24.9785204 L11.9439449,30.9264591 L12.383702,25.1615455 C11.8570967,25.0463316 11.4623894,24.5700486 11.4623894,24 C11.4623894,23.4229326 11.8668763,22.941954 12.4032132,22.8343635 L11.9488431,17.0832801 L10.1138061,23.0454526 C10.4005025,23.2619574 10.5862832,23.6089119 10.5862832,24 C10.5862832,24.4058619 10.3862012,24.7641929 10.0808878,24.9785204 Z M15.9138787,29.5162979 C15.9854648,29.5023508 16.0593718,29.4950494 16.1349558,29.4950494 C16.2386025,29.4950494 16.3390965,29.5087791 16.4347755,29.5345476 L18.491133,24.9433958 C18.2127052,24.7262364 18.0331858,24.3844413 18.0331858,24 C18.0331858,23.6285689 18.2007603,23.2969463 18.4632086,23.0790765 L16.375033,18.479833 C16.2975492,18.496296 16.2172462,18.5049506 16.1349558,18.5049506 C16.0674228,18.5049506 16.0012286,18.4991217 15.9368323,18.4879318 L13.4196621,23.1239671 C13.6526167,23.341169 13.7986726,23.6532363 13.7986726,24 C13.7986726,24.3374006 13.6603977,24.6419531 13.4383413,24.8582322 L15.9138787,29.5162979 Z M16.3992,31.8407608 C16.3142893,31.8607319 16.2258345,31.8712872 16.1349558,31.8712872 C15.7694061,31.8712872 15.4430736,31.7005069 15.2288767,31.4331121 L13.2053587,32.3151651 C13.2114585,32.3643522 13.2146018,32.414476 13.2146018,32.4653466 C13.2146018,32.6047191 13.1910075,32.7384866 13.14766,32.8627425 L18.5093403,36.8545681 C18.5251194,36.842749 18.5412012,36.8313238 18.5575717,36.820307 L16.3992,31.8407608 Z M14.9849924,30.8931041 C14.9730474,30.82496 14.9668142,30.7548045 14.9668142,30.6831682 C14.9668142,30.317043 15.1296354,29.9895969 15.3856482,29.7716508 L12.9652695,25.2173738 L12.4960576,31.3684182 C12.6937136,31.4523231 12.8638553,31.589883 12.9888915,31.7632059 L14.9849924,30.8931041 Z M17.279445,30.4441193 L22.4777448,31.1853155 C22.5388698,31.0057832 22.6411293,30.8457877 22.773057,30.7169916 L19.5265636,25.1414598 C19.4233211,25.1718381 19.3141935,25.1881188 19.2013275,25.1881188 C19.14281,25.1881188 19.0852974,25.1837424 19.029089,25.1752938 L16.9453869,29.8274967 C17.1121809,29.9909597 17.2313007,30.2044004 17.279445,30.4441193 Z M17.2495807,31.0397295 C17.1863556,31.2443939 17.0701449,31.4251877 16.9173015,31.5654783 L19.1120897,36.6271774 C19.1415441,36.6249144 19.1713035,36.6237624 19.2013275,36.6237624 C19.3568434,36.6237624 19.5052616,36.6546721 19.6409669,36.7107809 L22.712897,32.3683037 C22.5693322,32.2058816 22.4691525,32.0029917 22.4309123,31.7785062 L17.2495807,31.0397295 Z M14.9948506,17.0569165 L12.9986696,16.2230355 C12.873403,16.4019661 12.7006028,16.5440827 12.4990103,16.6303234 L12.9791004,22.7069512 L15.403687,18.2433984 C15.1373082,18.0256348 14.9668142,17.6914843 14.9668142,17.3168317 C14.9668142,17.227551 14.9764962,17.1405702 14.9948506,17.0569165 Z M16.4203803,16.1644342 L18.4829381,11.3036063 L13.1529104,15.1526442 C13.1929093,15.2725315 13.2146018,15.4010158 13.2146018,15.5346534 C13.2146018,15.5797284 13.2121339,15.6242172 13.2073281,15.6679875 L15.2626572,16.526577 C15.4766004,16.2824491 15.7881264,16.1287128 16.1349558,16.1287128 C16.2334175,16.1287128 16.3290339,16.1411031 16.4203803,16.1644342 Z M17.2929856,17.4738567 C17.2546302,17.7693202 17.109528,18.0305461 16.8983777,18.2161396 L18.9924215,22.8308265 C19.0602036,22.8183798 19.1300193,22.8118812 19.2013275,22.8118812 C19.3262689,22.8118812 19.4466293,22.831832 19.5594964,22.868772 L22.8333821,17.1894522 C22.6893883,17.0670987 22.5748054,16.9101354 22.501993,16.7311338 L17.2929856,17.4738567 Z M16.9349173,16.4510251 C17.0601486,16.5707702 17.1593965,16.7183052 17.2231405,16.8839472 L22.4211112,16.1427979 C22.4458515,15.9193461 22.5315283,15.7146565 22.6608403,15.5463267 L19.6752274,11.2743983 C19.530393,11.3398609 19.3700368,11.3762376 19.2013275,11.3762376 C19.1639497,11.3762376 19.126982,11.3744521 19.0905023,11.3709603 L16.9349173,16.4510251 Z M30.9184836,16.1339379 C30.9547856,16.1304806 30.9915703,16.1287128 31.028761,16.1287128 C31.3861162,16.1287128 31.7059927,16.2919221 31.920267,16.5490519 L33.9599304,15.6970065 C33.9527991,15.6439248 33.9491151,15.5897267 33.9491151,15.5346534 C33.9491151,15.4099648 33.9679995,15.2897624 34.0030182,15.1768434 L28.7113878,11.2866241 L30.9184836,16.1339379 Z M29.9344513,16.9002158 C30.0191103,16.6702777 30.1718178,16.4741433 30.3676393,16.337173 L28.1046075,11.367521 C28.0579926,11.3732756 28.0105311,11.3762376 27.9623893,11.3762376 C27.7936799,11.3762376 27.6333239,11.3398609 27.4884894,11.2743983 L24.5028765,15.5463267 C24.6327845,15.7154324 24.718654,15.9212334 24.7429437,16.1458884 L29.9344513,16.9002158 Z M27.0304007,10.9045107 C26.9536083,10.8013232 26.8930001,10.6849856 26.8524182,10.5594059 L20.3112987,10.5594059 C20.2707168,10.6849856 20.2101084,10.8013232 20.1333162,10.9045107 L23.1240802,15.1838096 C23.2646572,15.1228464 23.4193842,15.0891088 23.5818583,15.0891088 C23.7443327,15.0891088 23.8990596,15.1228464 24.0396366,15.1838096 L27.0304007,10.9045107 Z" id="Shape" fill="#FFFFFF"></path>
        </g>
    </g>
</svg>