<?xml version="1.0" encoding="UTF-8"?>
<svg width="48px" height="48px" viewBox="0 0 48 48" version="1.1" xmlns="http://www.w3.org/2000/svg" xmlns:xlink="http://www.w3.org/1999/xlink">
    <!-- Generator: Sketch 49.1 (51147) - http://www.bohemiancoding.com/sketch -->
    <title>rads</title>
    <desc>Created with Sketch.</desc>
    <defs></defs>
    <g id="48px" stroke="none" stroke-width="1" fill="none" fill-rule="evenodd">
        <g id="rads" fill-rule="nonzero">
            <circle id="Oval" fill="#9D4BEF" cx="24" cy="24" r="24"></circle>
            <path d="M17.20416,11.49216 C20.35896,11.49216 22.91616,14.0496 22.91616,17.20416 C22.91616,20.35872 20.35872,22.91616 17.20416,22.91616 C14.0496,22.91616 11.49216,20.35872 11.49216,17.20416 C11.49216,14.0496 14.0496,11.49216 17.20416,11.49216 Z M22.91616,30.79584 C22.91616,33.95064 20.35872,36.50784 17.20416,36.50784 C14.0496,36.50784 11.49216,33.9504 11.49216,30.79584 C11.49216,27.64128 14.0496,25.08384 17.20416,25.08384 C21.5556,25.08384 25.08336,21.55584 25.08336,17.20464 C25.08336,14.04984 27.6408,11.49264 30.79536,11.49264 C33.94992,11.49264 36.50736,14.05008 36.50736,17.20464 C36.50736,20.3592 33.94992,22.91664 30.79536,22.91664 C26.44416,22.91664 22.91664,26.44416 22.91664,30.79584 L22.91616,30.79584 Z M30.79536,36.50784 C27.64056,36.50784 25.08336,33.9504 25.08336,30.79584 C25.08336,27.64128 27.6408,25.08384 30.79536,25.08384 C33.94992,25.08384 36.50736,27.64128 36.50736,30.79584 C36.50736,33.9504 33.9504,36.50784 30.79584,36.50784 L30.79536,36.50784 Z M30.79584,32.51784 C31.7468744,32.51784 32.51784,31.7468743 32.51784,30.79584 C32.51784,29.8448056 31.7468744,29.07384 30.79584,29.07384 C29.8448056,29.07384 29.07384,29.8448056 29.07384,30.79584 C29.07384,31.7468743 29.8448056,32.51784 30.79584,32.51784 Z M17.20416,32.51784 C18.1551943,32.51784 18.92616,31.7468743 18.92616,30.79584 C18.92616,29.8448056 18.1551943,29.07384 17.20416,29.07384 C16.2531256,29.07384 15.48216,29.8448056 15.48216,30.79584 C15.48216,31.7468743 16.2531256,32.51784 17.20416,32.51784 Z M30.79584,18.92616 C31.7468744,18.92616 32.51784,18.1551943 32.51784,17.20416 C32.51784,16.2531257 31.7468744,15.48216 30.79584,15.48216 C29.8448056,15.48216 29.07384,16.2531257 29.07384,17.20416 C29.07384,18.1551943 29.8448056,18.92616 30.79584,18.92616 Z M17.20416,18.92616 C18.1551943,18.92616 18.92616,18.1551943 18.92616,17.20416 C18.92616,16.2531257 18.1551943,15.48216 17.20416,15.48216 C16.2531256,15.48216 15.48216,16.2531257 15.48216,17.20416 C15.48216,18.1551943 16.2531256,18.92616 17.20416,18.92616 Z" id="Shape" fill="#FFFFFF"></path>
        </g>
    </g>
</svg>