<?xml version="1.0" encoding="UTF-8"?>
<svg width="48px" height="48px" viewBox="0 0 48 48" version="1.1" xmlns="http://www.w3.org/2000/svg" xmlns:xlink="http://www.w3.org/1999/xlink">
    <!-- Generator: Sketch 49.1 (51147) - http://www.bohemiancoding.com/sketch -->
    <title>rcn</title>
    <desc>Created with Sketch.</desc>
    <defs></defs>
    <g id="48px" stroke="none" stroke-width="1" fill="none" fill-rule="evenodd">
        <g id="rcn" fill-rule="nonzero">
            <circle id="Oval" fill="#3555F9" cx="24" cy="24" r="24"></circle>
            <path d="M21.5390808,9.94059772 C22.8143582,9.7031869 24.1208202,9.73079281 25.4111123,9.79444879 C26.8987433,9.96885318 28.3891791,10.2816119 29.7576809,10.8957621 C32.4875892,12.0251686 34.8281,14.0209133 36.3916303,16.4916421 C36.9811718,17.3506729 37.3766744,18.3141192 37.775147,19.2684717 C38.1435897,18.6803034 38.4739177,18.0695634 38.7941808,17.4549259 C38.9322849,17.1652263 39.2216933,16.940644 39.5589512,16.9554213 C40.0123683,16.9081665 40.4578656,17.2725645 40.4959805,17.7199427 C40.5329402,18.0804433 40.3067267,18.3917405 40.1575676,18.7030377 C39.6901254,19.649758 39.085074,20.5217799 38.4597277,21.3726915 C38.3442285,21.4967556 38.3927382,21.6672627 38.4065982,21.8169842 C39.1023989,25.9229571 37.777952,30.2936218 34.9559742,33.3859707 C33.351359,35.1866878 31.2740216,36.5668209 28.9906005,37.3914257 C26.3537516,38.3134629 23.4497693,38.5213192 20.7218408,37.8761529 C16.7686299,37.020045 13.2699912,34.4135601 11.2809283,30.9538902 C10.8464859,30.2535121 10.5691226,29.4751878 10.2257597,28.7314523 C9.85137701,29.3077662 9.53276396,29.9155833 9.21266591,30.5214517 C9.06236295,30.8258401 8.75882211,31.0285036 8.41588575,31.0534338 C7.84432923,31.0544082 7.3257374,30.4387965 7.55591099,29.8910628 C8.047773,28.7590581 8.72129889,27.7129566 9.4753443,26.7347331 C9.63753831,26.5643885 9.61443846,26.3248667 9.58440864,26.113113 C9.31216029,24.3133703 9.37914989,22.4593899 9.82563717,20.6921246 C10.9806301,15.7068224 15.1193,11.5414156 20.1380744,10.2450746 C20.6025465,10.1348134 21.0670187,10.0195181 21.5395758,9.94059773 L21.5390808,9.94059772 Z M17.9972124,12.9559748 C15.3377586,14.3538081 13.1982166,16.6921909 12.0859584,19.4527816 C11.4452673,21.1214776 11.1179093,22.9153746 11.2180637,24.7005024 C11.4997381,24.4886284 11.7679775,24.2599924 12.0212788,24.015876 C13.5138597,22.6842969 15.2616941,21.6526477 17.088563,20.8299918 C20.4830872,19.2873087 24.2201494,18.6223311 27.9351019,18.4428927 C26.6787996,17.1405433 25.3173928,15.9396864 24.0620805,14.6374994 C24.4580781,14.2031123 24.8859204,13.7992541 25.3160728,13.3983189 C25.8026548,13.8396887 26.2531021,14.3174333 26.7306093,14.7685463 C28.2741748,16.3063578 29.8669101,17.7977263 31.386551,19.3571353 C29.7667557,20.9737048 28.1040609,22.5478912 26.4844308,24.1638111 C26.3479926,24.291952 26.2047954,24.4129359 26.0554334,24.5262604 C25.6470609,24.1154196 25.1725237,23.7549189 24.8461557,23.2742514 C25.8422547,22.2300984 26.9746428,21.3148813 27.9316369,20.2341913 C26.2187823,20.2578999 24.5140128,20.5001823 22.837293,20.8321027 C21.4828162,21.0756843 20.1808091,21.5324809 18.881112,21.9688167 C16.1561536,22.988449 13.6435489,24.615736 11.7285706,26.7899449 C11.6143913,26.9023171 11.6303962,27.0687646 11.661581,27.210529 C11.8877946,28.1817699 12.314317,29.091141 12.7835742,29.9688465 C14.3281297,32.755744 16.9969885,34.9081929 20.0653098,35.8797585 C21.8591788,36.4318767 23.7731673,36.6441174 25.6401309,36.3851091 C28.237875,36.0603336 30.7221,34.9281666 32.6484631,33.182499 C35.4463512,30.7168042 37.0161516,26.9596401 36.7734381,23.2703541 C36.4790799,23.4998079 36.2149165,23.7619015 35.9385432,24.0101923 C34.0678806,25.6214953 31.9089234,26.8761814 29.5718919,27.710196 C26.5411903,28.8339189 23.313975,29.4172155 20.0814796,29.5078278 C20.363793,29.8762854 20.7121059,30.1866084 21.0404539,30.5146315 C22.0075129,31.4564802 22.9625273,32.410995 23.9444362,33.3369297 C23.5660935,33.783171 23.1255462,34.1712775 22.7080988,34.5791955 C22.2906513,34.239318 21.9273236,33.8422801 21.5399058,33.4708995 C20.0773548,32.0532549 18.6317985,30.6190468 17.1743623,29.1975049 C16.9763637,29.0092975 16.7819948,28.8162186 16.6198008,28.5976447 C17.2504269,27.9188641 17.9762575,27.3347556 18.6218986,26.6707524 C19.7320119,25.5989936 20.8122603,24.4947573 21.9354084,23.4356648 C22.3548358,23.8434203 22.7963732,24.2346121 23.1707559,24.6860499 C22.1716871,25.7204596 21.1082685,26.693649 20.0964947,27.7162044 C21.2056179,27.7714161 22.3018712,27.5793115 23.4009296,27.4758705 C24.1977096,27.3920785 24.9786499,27.2108538 25.7623952,27.0483037 C29.7906806,26.1192837 33.7128717,24.2052199 36.4157202,21.0539244 C35.3796917,16.5785194 31.5746497,12.8949171 27.0459224,11.8530376 C24.0297407,11.0862429 20.7411458,11.522741 17.9972124,12.9559748 Z" id="Shape" fill="#FFFFFF"></path>
        </g>
    </g>
</svg>