<?xml version="1.0" encoding="UTF-8"?>
<svg width="48px" height="48px" viewBox="0 0 48 48" version="1.1" xmlns="http://www.w3.org/2000/svg" xmlns:xlink="http://www.w3.org/1999/xlink">
    <!-- Generator: Sketch 49.1 (51147) - http://www.bohemiancoding.com/sketch -->
    <title>rdd</title>
    <desc>Created with Sketch.</desc>
    <defs></defs>
    <g id="48px" stroke="none" stroke-width="1" fill="none" fill-rule="evenodd">
        <g id="rdd" fill-rule="nonzero">
            <circle id="Oval" fill="#E30613" cx="24" cy="24" r="24"></circle>
            <g id="Group" transform="translate(7.500000, 7.500000)" fill="#FFFFFF">
                <path d="M15.5421504,33 C6.95845777,33 0,26.111092 0,17.6131933 C0,9.11529477 6.95845777,2.2263868 15.5421504,2.2263868 C24.1258431,2.2263868 31.0843008,9.11529477 31.0843008,17.6131933 C31.0843008,26.111092 24.1258431,33 15.5421504,33 Z M18.2236294,6.63446777 C21.8471328,8.1174063 24.4521504,10.9083059 26.2995507,14.6712294 L27.695679,13.7006896 C26.1283039,9.93364318 23.2347652,6.97205397 18.5804493,5.05125937 L18.2236294,6.63446777 Z" id="Shape" opacity="0.75"></path>
                <path d="M32.9878395,6.48224887 C32.9878395,2.90254872 30.0559869,0 26.4401465,0 C22.8243058,0 19.8924532,2.90254872 19.8924532,6.48224887 C19.892534,6.8232217 19.9196031,7.16366404 19.9734124,7.50044977 C22.1531449,8.77031484 23.9047602,10.5914993 25.3040535,12.8652174 C25.6794193,12.9307335 26.0598248,12.9638414 26.4409792,12.9641679 C30.0559869,12.9644977 32.9878395,10.0622789 32.9878395,6.48224887 Z" id="Shape"></path>
            </g>
        </g>
    </g>
</svg>