<?xml version="1.0" encoding="UTF-8"?>
<svg width="48px" height="48px" viewBox="0 0 48 48" version="1.1" xmlns="http://www.w3.org/2000/svg" xmlns:xlink="http://www.w3.org/1999/xlink">
    <!-- Generator: Sketch 49.1 (51147) - http://www.bohemiancoding.com/sketch -->
    <title>rdn</title>
    <desc>Created with Sketch.</desc>
    <defs></defs>
    <g id="48px" stroke="none" stroke-width="1" fill="none" fill-rule="evenodd">
        <g id="rdn" fill-rule="nonzero">
            <circle id="Oval" fill="#2A2A2A" cx="24" cy="24" r="24"></circle>
            <path d="M15,9.00856492 L27.1671333,9.00856492 C27.3132332,8.96491496 27.3891156,9.09856488 27.4845277,9.17356485 C28.6376727,10.2474143 29.6518739,11.4667637 30.5535185,12.7599131 C31.8122132,14.5771622 32.8290977,16.5699111 33.5114435,18.6772601 C34.2350848,20.903409 34.5775248,23.2584078 34.4852434,25.5996066 C32.4179807,25.5991066 30.350718,25.5991066 28.2834552,25.5996066 C28.3184894,25.2888067 28.3211728,24.975457 28.3171476,24.6633072 C28.251999,22.4559083 27.5717403,20.2926093 26.4992484,18.3756102 C25.3513213,16.3215113 23.7489939,14.5495622 21.9287094,13.0782129 C19.9459262,11.4750137 17.7132824,10.2096143 15.3876117,9.18541483 C15.2591036,9.12601487 15.124483,9.07801489 15,9.00856492 Z M19.5022597,19.9989094 C21.5833374,23.7638076 23.6610358,27.5307057 25.7353551,31.2996039 C26.2346289,32.2080034 26.7397168,33.113403 27.2348163,34.0240525 C24.6539182,35.6781017 22.0813687,37.3452008 19.5007689,39 C19.5025579,32.6663031 19.5030549,26.3326063 19.5022597,19.9989094 Z" id="Shape" fill="#FFFFFF"></path>
        </g>
    </g>
</svg>