<?xml version="1.0" encoding="UTF-8"?>
<svg width="48px" height="48px" viewBox="0 0 48 48" version="1.1" xmlns="http://www.w3.org/2000/svg" xmlns:xlink="http://www.w3.org/1999/xlink">
    <!-- Generator: Sketch 49.1 (51147) - http://www.bohemiancoding.com/sketch -->
    <title>rep</title>
    <desc>Created with Sketch.</desc>
    <defs></defs>
    <g id="48px" stroke="none" stroke-width="1" fill="none" fill-rule="evenodd">
        <g id="rep" fill-rule="nonzero">
            <circle id="Oval" fill="#602A52" cx="24" cy="24" r="24"></circle>
            <path d="M30.8736735,24.4674069 C30.5077197,23.4336825 29.8764764,22.5102289 29.0409897,21.7863514 C28.9396648,21.6983719 28.8359836,21.6138655 28.7299459,21.5328319 L28.7175748,21.5224132 C28.6138936,21.4436949 28.5072669,21.3678705 28.3976947,21.2949403 L28.3764871,21.2810488 C28.2692714,21.2104338 28.1602883,21.1427128 28.0495378,21.077886 L28.021261,21.0605215 C27.9116889,20.9968522 27.7997602,20.9389712 27.6854752,20.8868781 L27.6518967,20.8695138 C27.5340771,20.8139478 27.4162575,20.7612759 27.2984379,20.7114981 L27.2595574,20.6958702 C27.1570543,20.6541959 27.0545512,20.6125214 26.9485137,20.5760562 C26.6603341,20.4732413 26.3650296,20.3908392 26.0648667,20.3294825 C25.8305307,20.7561444 25.5280099,21.143082 25.1688486,21.4755295 C26.0126941,21.5433831 26.8268794,21.8128212 27.5405571,22.2603981 L27.5812048,22.2847082 C27.6483621,22.328119 27.7137519,22.3732663 27.7791418,22.4201502 L27.8692738,22.4826618 C27.9275944,22.5260727 27.9841479,22.57122 28.0460032,22.6163673 L28.1467389,22.6979797 C28.1997577,22.743127 28.249242,22.7882744 28.3004935,22.8351581 L28.4029966,22.9323984 C28.4507134,22.9792822 28.4966631,23.0261659 28.5426127,23.0730496 L28.6433485,23.1824451 C28.6857636,23.2299077 28.7275896,23.2785278 28.7688264,23.3283055 L28.8660276,23.4498561 C28.904908,23.4984762 28.9420212,23.5488328 28.9791343,23.5991895 C29.0162476,23.649546 29.0409897,23.6877477 29.0710337,23.7311585 C29.1010777,23.7745694 29.1399582,23.8318717 29.1717694,23.8839648 C29.2035807,23.9360578 29.2300902,23.9794687 29.2583668,24.0280888 C29.2866435,24.0767091 29.3184549,24.1305386 29.3467315,24.1808952 C29.3750082,24.2312517 29.3997504,24.2868177 29.4262597,24.3406471 C29.4527692,24.3944766 29.4775113,24.4396239 29.500486,24.4917169 C29.5234609,24.54381 29.5552722,24.623686 29.5817817,24.691407 C29.7244143,25.0470856 29.8252147,25.4176132 29.8822216,25.7957796 L30.0448127,26.4017954 C30.113737,26.6535784 30.7517302,28.8848973 32.2291879,29.6367737 C33.9222556,30.5049912 36.1649515,31.5781079 37.0468312,32.001798 L25.3985968,38.8433517 L25.3985968,34.1549774 C25.3985968,33.4152561 26.8990294,32.5487751 27.5918086,32.2448989 L27.6324564,32.2223253 C27.7756072,32.1528679 27.9169908,32.0764647 28.0530724,31.9948522 L28.1113931,31.9635964 C28.4128735,31.7835709 28.6989414,31.5797352 28.9667634,31.3541077 L29.0392224,31.2898597 L29.1205179,31.2169294 C29.205348,31.1405263 29.2878217,31.0623867 29.3679391,30.9825108 L29.4103542,30.9425727 C29.4987189,30.8540145 29.5870836,30.7689292 29.6648445,30.6664795 L29.7390708,30.5813943 C29.8050498,30.5038335 29.8686723,30.4245363 29.9299386,30.3435027 L29.9829573,30.2757817 C30.0571837,30.176805 30.1278754,30.0743553 30.1968,29.9719056 L30.2197747,29.9406498 C30.3134413,29.7965257 30.3965041,29.6506651 30.4831016,29.4995953 C30.1557738,29.1041517 29.8758762,28.6729917 29.6489388,28.2146335 C29.5552674,28.4746882 29.4400054,28.7267406 29.3043165,28.9682463 C29.2465849,29.0724324 29.1876751,29.1743033 29.1275871,29.2738588 L29.0993105,29.3137968 C29.042757,29.3983033 28.9838472,29.4810733 28.922581,29.562107 L28.8695622,29.6315643 C28.808296,29.7102828 28.7440843,29.7866859 28.6769271,29.8607737 L28.6415812,29.9024482 C28.2092337,30.3752712 27.6907652,30.7645471 27.112872,31.0502317 L27.0032998,31.1057976 C26.7081616,31.2360303 24.1031705,32.3907594 24.1031705,34.1480316 L24.1031705,38.8364059 L12.4178229,31.9844337 C13.1706901,31.5260149 15.3656691,30.2479988 17.1718435,29.6853939 C17.8787611,29.4683395 19.3791937,30.3938593 20.229262,31.0745418 L20.2805136,31.1196891 C20.3918532,31.2238752 20.5102618,31.3245883 20.6339724,31.4200923 L20.6763875,31.4565574 C20.9464196,31.6721683 21.2336451,31.8661153 21.5352923,32.0365268 L21.7385312,32.1459222 L21.7791789,32.1667593 C21.9752487,32.2665339 22.1763949,32.3563676 22.3818261,32.4359069 L22.4701908,32.4706354 L22.5320461,32.4949455 C22.8274362,32.601873 23.1304698,32.687191 23.4386679,32.7502015 C23.6801342,32.3185422 23.9924256,31.9289805 24.3629627,31.5972087 C23.8694099,31.5609097 23.3837349,31.4550615 22.9208508,31.282914 L22.8413226,31.2533946 L22.6893352,31.190883 L22.6115743,31.1578906 L22.4631216,31.0884333 C22.1183823,30.9217186 21.7935637,30.7178841 21.4946445,30.480681 L21.0298463,30.0656732 C20.6035656,29.6985673 20.141208,29.3739955 19.6495896,29.0967425 C18.4937794,28.4507886 17.5288369,28.24068 16.7883408,28.4698894 C15.2437259,28.947409 13.5029413,29.8746652 12.4407977,30.4858903 L24.1084723,9.91087294 L24.1084723,18.9212337 C24.1084723,19.2407378 23.6277684,20.0742265 22.0248327,20.782692 L21.9134933,20.8417308 C21.7579713,20.9163975 21.6059841,20.99801 21.4575314,21.0848317 L21.4274874,21.1004596 C21.1243437,21.2791959 20.8365033,21.4818698 20.5668153,21.7064754 C20.3971044,21.8481363 20.2348899,21.9982451 20.0808095,22.156212 L20.0649037,22.1718399 C19.9134123,22.3278199 19.7700769,22.4912552 19.6354514,22.6615146 L19.6177784,22.6840883 C19.5529776,22.7674371 19.4899441,22.8519436 19.428678,22.9376077 L19.4074704,22.9688635 C19.3520952,23.0487396 19.2978982,23.130352 19.2448794,23.2137009 L19.2272064,23.2397473 C19.1741875,23.3242539 19.1235252,23.4104968 19.0752192,23.4984762 L19.0416405,23.5609879 C18.9974581,23.6443368 18.9532758,23.7346314 18.9108608,23.8127709 L18.8914206,23.852709 C18.8525401,23.9325849 18.8171943,24.0124609 18.7818483,24.0940734 L18.7447352,24.1826316 C18.7093893,24.2677168 18.6775781,24.356275 18.6457667,24.4378875 L18.6157227,24.5281821 C18.593337,24.5918514 18.5727186,24.6566782 18.5538675,24.7226628 C18.5432637,24.7591279 18.5308926,24.7938567 18.5220561,24.8303219 C18.4984922,24.9136707 18.4766956,24.9975984 18.4566663,25.0821048 C18.4460625,25.1220429 18.437226,25.1637172 18.4283895,25.2053917 C18.4195531,25.2470662 18.4036475,25.3234693 18.3930436,25.3790352 C18.3824398,25.4346012 18.3736035,25.4832213 18.364767,25.5370507 C18.3559305,25.5908803 18.3435594,25.6794385 18.3347231,25.7506323 C18.3258865,25.8218262 18.3241192,25.8426633 18.3188173,25.8895471 C18.3135154,25.9364309 18.3064463,26.0163069 18.3029117,26.0805549 C18.2993771,26.144803 18.3029117,26.2073147 18.2923079,26.2715628 C18.2817042,26.335811 18.2923079,26.3497023 18.2923079,26.3896404 L18.2923079,26.5337644 C18.2925653,26.8493922 18.3167855,27.1645614 18.364767,27.4766487 C18.8680164,27.6000332 19.3545071,27.7819047 19.8139481,28.0184163 C19.6726522,27.5645557 19.5970953,27.0934096 19.5895017,26.6188498 L19.5895017,26.5337644 C19.5895017,26.4191598 19.5895017,26.3062915 19.6018728,26.1864775 L19.6018728,26.0979193 C19.6018728,25.9989424 19.621313,25.8999657 19.6354514,25.8027253 L19.6354514,25.761051 C19.6513569,25.6516555 19.6725645,25.5439965 19.6973066,25.438074 L19.7167468,25.3564615 C19.7379543,25.2673246 19.7621074,25.1787664 19.7892058,25.0907871 L19.8068789,25.0334847 C19.8386901,24.9304561 19.8746251,24.8291641 19.9146837,24.7296085 L19.9429605,24.6618876 C19.9771281,24.5785387 20.0130632,24.4957687 20.0507653,24.4135774 L20.0790422,24.3510657 C20.1261699,24.2538253 20.1762432,24.1583215 20.229262,24.064554 L20.2575388,24.0176703 C20.3046666,23.9366367 20.3541508,23.8567606 20.4059915,23.7780423 L20.4431046,23.7224763 C20.5049599,23.6321817 20.5685826,23.5488328 20.6357397,23.4550653 L20.6481108,23.4394374 C20.7117333,23.3578249 20.7788905,23.2779491 20.847815,23.1998094 L20.8866954,23.1546621 C21.2024675,22.8067971 21.5651783,22.5029999 21.9647448,22.2517159 L22.5179077,21.99646 C22.8130458,21.8662273 25.4056661,20.6785059 25.4056661,18.9212337 L25.4056661,9.91087294 L37.1634726,30.6404331 C36.1137,30.1351305 34.2704125,29.2426029 32.8300678,28.5098274 C32.0065089,28.0896102 31.4462767,26.6101675 31.3013586,26.0788185 L31.1423022,25.4571748 C31.0835119,25.1232451 30.9972201,24.7945575 30.8842773,24.4743526 L30.8736735,24.4674069 Z M38.8388673,30.9929293 L25.8757662,8.1536008 C25.6466529,7.75008067 25.2132077,7.5 24.7429308,7.5 C24.2726541,7.5 23.8392087,7.75008067 23.6100954,8.1536008 L10.6629,30.9946657 C10.3238563,31.5930024 10.5305846,32.3477724 11.1294656,32.6981085 L24.0837301,40.3193214 C24.4940745,40.5602262 25.0059255,40.5602262 25.4162698,40.3193214 L38.3705344,32.7050542 C38.9694154,32.3547181 39.1761437,31.599948 38.8371,31.0016115 L38.8388673,30.9929293 Z" id="Shape" fill="#FFFFFF"></path>
        </g>
    </g>
</svg>