<?xml version="1.0" encoding="UTF-8"?>
<svg width="48px" height="48px" viewBox="0 0 48 48" version="1.1" xmlns="http://www.w3.org/2000/svg" xmlns:xlink="http://www.w3.org/1999/xlink">
    <!-- Generator: Sketch 49.1 (51147) - http://www.bohemiancoding.com/sketch -->
    <title>req</title>
    <desc>Created with Sketch.</desc>
    <defs></defs>
    <g id="48px" stroke="none" stroke-width="1" fill="none" fill-rule="evenodd">
        <g id="req" fill-rule="nonzero">
            <circle id="Oval" fill="#6CFCCD" cx="24" cy="24" r="24"></circle>
            <path d="M15,9 L24.9106891,9 C26.2637224,9.01109994 27.271615,9.08609957 27.9343669,9.22499887 C30.1486719,9.62339688 32.154057,10.9900401 33.3179511,12.8783806 C34.6944357,15.0650697 34.8746023,17.9167055 33.8277093,20.2667436 C32.8794643,22.4300328 30.896256,24.1233744 28.5782559,24.7367213 C27.106488,25.1534193 25.5617664,24.99832 24.0511509,25.0266699 C25.7766169,27.8299891 28.3591569,32.0388681 31.798771,37.6533067 L29.654055,39 C25.1612092,31.6810366 21.7935633,26.191014 19.5511168,22.5299323 C21.9405412,22.5182323 24.3299655,22.5482322 26.7175545,22.5149325 C29.4740415,22.4415828 31.8838071,20.0516448 31.9416195,17.3483583 C32.121939,15.01332 30.5772174,12.6850316 28.3184061,11.9165854 C27.6941959,11.6776866 26.7125074,11.5671372 25.3733409,11.5849371 L15,11.5832871 L15,9 Z" id="Shape" fill="#FFFFFF"></path>
        </g>
    </g>
</svg>