<?xml version="1.0" encoding="UTF-8"?>
<svg width="48px" height="48px" viewBox="0 0 48 48" version="1.1" xmlns="http://www.w3.org/2000/svg" xmlns:xlink="http://www.w3.org/1999/xlink">
    <!-- Generator: Sketch 49.1 (51147) - http://www.bohemiancoding.com/sketch -->
    <title>rhoc</title>
    <desc>Created with Sketch.</desc>
    <defs></defs>
    <g id="48px" stroke="none" stroke-width="1" fill="none" fill-rule="evenodd">
        <g id="rhoc" fill-rule="nonzero">
            <circle id="Oval" fill="#CC1E46" cx="24" cy="24" r="24"></circle>
            <path d="M17.7245304,13.8607285 C20.2217304,11.9887045 23.2402104,10.8130523 26.3530104,10.5587795 C26.6710104,10.495691 27.0170904,10.6971903 27.0053304,11.0474151 C27.0362904,11.8862757 27.0156504,12.7287345 27.0156504,13.5683147 C27.0362904,13.8285846 26.8980504,14.1670553 26.5975704,14.1744916 C23.8296504,14.4805786 21.1985304,15.6123327 18.9118104,17.1751512 C18.6958104,17.2967705 18.7438104,17.5764707 18.7606104,17.7815681 C18.9214104,19.2546716 18.8124504,20.7380898 18.8566104,22.2155111 C26.3177304,22.2361409 33.7817304,22.2126326 41.2457304,22.2272652 C41.6004504,22.1963207 41.9760504,22.3992593 41.9479704,22.7981798 C41.9846904,25.3087644 41.9551704,27.8207885 41.9626104,30.3328125 C41.9683704,31.6984496 41.6770104,33.1111034 40.8509304,34.2265457 C39.5462904,35.9805486 37.2523704,37.0329024 35.0702904,36.6442967 C33.5261304,36.4132922 32.1902904,35.4552113 31.2542904,34.2397391 C28.7232504,36.145826 25.6505304,37.3169204 22.4878104,37.5611183 C22.1659704,37.5654361 21.9238104,37.2490344 21.9739704,36.9400688 C21.9842904,36.0613881 21.9547704,35.179829 21.9871704,34.3013882 C22.0622904,33.8350613 22.6366104,33.9262158 22.9766904,33.8482547 C25.5931704,33.4406985 28.0951704,32.3442067 30.2311704,30.7902638 C30.1118904,29.1583596 30.0907704,27.5218979 30.1147704,25.8854361 C22.6277304,25.8374601 15.1370904,25.8820778 7.64909043,25.8614481 C7.31765043,25.8983897 7.00109043,25.6525127 7.03205043,25.3022877 C7.02661042,22.6568904 7.02757043,20.0119728 7.03493043,17.3675351 C7.05125043,15.9843867 7.48709043,14.5866056 8.40293043,13.5311333 C9.61037043,12.1580598 11.4314904,11.279619 13.2794904,11.3885246 C15.0506904,11.4590493 16.6733304,12.4655861 17.7245304,13.8607285 Z M10.0505304,17.8228275 C10.0476504,19.3731723 10.0447704,20.9242368 10.0534104,22.4765006 C11.9038104,22.4738619 13.7518104,22.501928 15.6014904,22.4609084 C15.6043704,20.9496641 15.6235704,19.4384196 15.5926104,17.9271753 C15.5645304,16.47782 14.2541304,15.1973402 12.7994904,15.2254062 C11.3786904,15.1680749 10.0858104,16.4101737 10.0505304,17.8228275 Z M33.6130104,25.7571003 C33.5998104,27.2316431 33.6101304,28.705946 33.6046104,30.1790493 C33.5953186,30.7678815 33.774327,31.3443045 34.1155704,31.8243867 C34.8252504,32.839799 36.2417304,33.2828574 37.4004504,32.835481 C38.4694104,32.4396791 39.1747704,31.319679 39.1630104,30.1939219 C39.1630104,28.7162607 39.1716504,27.2388395 39.1570104,25.7614182 C37.3090104,25.7467854 35.4610104,25.7542218 33.6130104,25.7571003 Z" id="Shape" fill="#FFFFFF"></path>
        </g>
    </g>
</svg>