<?xml version="1.0" encoding="UTF-8"?>
<svg width="48px" height="48px" viewBox="0 0 48 48" version="1.1" xmlns="http://www.w3.org/2000/svg" xmlns:xlink="http://www.w3.org/1999/xlink">
    <!-- Generator: Sketch 49.1 (51147) - http://www.bohemiancoding.com/sketch -->
    <title>ric</title>
    <desc>Created with Sketch.</desc>
    <defs></defs>
    <g id="48px" stroke="none" stroke-width="1" fill="none" fill-rule="evenodd">
        <g id="ric" fill-rule="nonzero">
            <circle id="Oval" fill="#60E4DD" cx="24" cy="24" r="24"></circle>
            <path d="M15.2165121,30.0362902 C15.6657108,29.3536913 16.0915275,28.7145374 16.4939624,28.1169355 L11.8986014,28.1169355 C11.8213588,28.1169355 11.7587413,28.0543179 11.7587413,27.9770754 L11.7587413,27.0229246 C11.7587413,26.945682 11.8213588,26.8830645 11.8986014,26.8830645 L17.3316263,26.8830645 C20.2364162,22.6397092 21.6888113,20.8922226 21.6888113,20.7137097 C21.6888113,20.4395161 21.6286467,20.3024193 20.6398602,20.3024193 C18.6818183,20.3024193 15.465035,18.9058129 15.465035,15.092742 C15.465035,13.0189175 18.8202231,10.5 20.7797203,10.5 C21.6888113,10.5 21.8276502,10.8856472 21.4090909,10.9112903 C20.2902097,10.9798387 17.8426573,13.2153931 17.8426573,15.3669355 C17.8426573,16.8064516 19.1203834,19.2741936 21.9685314,19.2741936 C25.3299552,19.2741936 28.2030977,13.9274194 35.1853148,13.9274194 C39.381119,13.9274194 40.5,17.2088386 40.5,18.1088709 C40.5,19.0089033 39.1899039,19.4798386 37.4230769,19.4798386 C35.65625,19.4798386 35.5907589,16.3266129 32.0384616,16.3266129 C26.4619522,16.3266129 21.7118818,22.36551 19.4305209,26.8830645 L23.3671329,26.8830645 C23.4443756,26.8830645 23.506993,26.945682 23.506993,27.0229246 L23.506993,27.9770754 C23.506993,28.0543179 23.4443755,28.1169355 23.3671329,28.1169355 L18.8511574,28.1169355 C18.5399544,28.8365802 18.3071847,29.4893889 18.1613358,30.0362902 L22.1083916,30.0362902 C22.1856342,30.0362902 22.2482517,30.0989079 22.2482517,30.1761504 L22.2482517,31.1303011 C22.2482517,31.2075438 22.1856342,31.2701613 22.1083916,31.2701613 L17.985354,31.2701613 C18.0580372,33.019897 19.5256962,34.5965098 22.3883346,36 C17.1667409,36 13.506993,36 11.4090909,36 C12.4955291,34.2504027 13.4958501,32.6782506 14.4100539,31.2701613 L10.6398601,31.2701613 C10.5626175,31.2701613 10.5,31.2075438 10.5,31.1303011 L10.5,30.1761504 C10.5,30.0989079 10.5626175,30.0362902 10.6398601,30.0362902 L15.2165121,30.0362902 Z" id="Shape" fill="#FFFFFF"></path>
        </g>
    </g>
</svg>