<?xml version="1.0" encoding="UTF-8"?>
<svg width="48px" height="48px" viewBox="0 0 48 48" version="1.1" xmlns="http://www.w3.org/2000/svg" xmlns:xlink="http://www.w3.org/1999/xlink">
    <!-- Generator: Sketch 49.1 (51147) - http://www.bohemiancoding.com/sketch -->
    <title>rise</title>
    <desc>Created with Sketch.</desc>
    <defs></defs>
    <g id="48px" stroke="none" stroke-width="1" fill="none" fill-rule="evenodd">
        <g id="rise" fill-rule="nonzero">
            <circle id="Oval" fill="#F49352" cx="24" cy="24" r="24"></circle>
            <path d="M18.9078598,13.7325856 C17.6216364,13.7325856 16.5789462,12.6731602 16.5789462,11.3662928 C16.5789462,10.0594254 17.6216364,9 18.9078598,9 C20.1940834,9 21.2367736,10.0594254 21.2367736,11.3662928 C21.2367736,12.6731602 20.1940834,13.7325856 18.9078598,13.7325856 Z M29.1708694,38.9997796 C27.8846458,38.9997796 26.8419558,37.9403542 26.8419558,36.6334869 C26.8419558,35.3266194 27.8846458,34.2671941 29.1708694,34.2671941 C30.4570929,34.2671941 31.4997831,35.3266194 31.4997831,36.6334869 C31.4997831,37.9403542 30.4570929,38.9997796 29.1708694,38.9997796 Z M19.8630147,21.3169034 C18.9451968,22.0300289 17.632188,21.8521512 16.9303273,20.9196024 C16.2284665,19.9870536 16.4035344,18.652971 17.3213523,17.9398453 L28.0580391,9.59766066 C28.975857,8.88453512 30.2888658,9.0624128 30.9907264,9.9949616 C31.6925872,10.9275104 31.5175194,12.2615931 30.5997015,12.9747186 L19.8630147,21.3169034 Z M19.9419609,29.8195148 C19.024143,30.5326403 17.7111342,30.3547626 17.0092735,29.4222138 C16.3074127,28.489665 16.4824806,27.1555823 17.4002985,26.4424568 L28.1369853,18.100272 C29.0548032,17.3871465 30.367812,17.5650242 31.0696727,18.497573 C31.7715334,19.4301218 31.5964656,20.7642043 30.6786477,21.47733 L19.9419609,29.8195148 Z M19.9419609,38.5627659 C19.024143,39.2758916 17.7111342,39.0980139 17.0092735,38.1654651 C16.3074127,37.2329162 16.4824806,35.8988336 17.4002985,35.1857081 L28.1369853,26.8435233 C29.0548032,26.1303978 30.367812,26.3082755 31.0696727,27.2408243 C31.7715334,28.1733731 31.5964656,29.5074557 30.6786477,30.2205813 L19.9419609,38.5627659 Z" id="Shape" fill="#FFFFFF"></path>
        </g>
    </g>
</svg>