<?xml version="1.0" encoding="UTF-8"?>
<svg width="48px" height="48px" viewBox="0 0 48 48" version="1.1" xmlns="http://www.w3.org/2000/svg" xmlns:xlink="http://www.w3.org/1999/xlink">
    <!-- Generator: Sketch 49.1 (51147) - http://www.bohemiancoding.com/sketch -->
    <title>rlc</title>
    <desc>Created with Sketch.</desc>
    <defs></defs>
    <g id="48px" stroke="none" stroke-width="1" fill="none" fill-rule="evenodd">
        <g id="rlc" fill-rule="nonzero">
            <circle id="Oval" fill="#FFD800" cx="24" cy="24" r="24"></circle>
            <path d="M35.525148,19.3287364 C35.6094675,19.2430228 35.7781065,19.2430228 35.9467455,19.2430228 C38.4763314,19.2430228 40.5,21.3858633 40.5,23.9572717 C40.5,26.357253 38.7292899,28.2429526 36.4526626,28.6715208 L35.9467455,28.6715208 C35.1035503,28.6715208 34.260355,28.4143798 33.5014792,27.9858118 C33.2485207,27.8143845 32.9955621,27.7286709 32.6582839,27.7286709 C32.3210059,27.7286709 31.9837278,27.8143845 31.7307693,27.9858118 C31.1405325,28.3286662 30.887574,28.9286616 30.887574,29.6143705 L30.887574,30.3857931 C30.7189348,32.5286335 29.0325444,34.3286194 26.8402366,34.5857604 L26.3343195,34.5857604 C25.4911242,34.5857604 24.647929,34.3286194 23.8890532,33.9000514 C23.5517751,33.7286242 23.2988166,33.6429105 22.9615384,33.6429105 C22.6242603,33.6429105 22.2869823,33.7286242 22.0340236,33.9000514 C21.443787,34.2429058 21.1908283,34.8429012 21.1908283,35.5286101 L21.1908283,36.3000327 C21.0221893,38.5285867 19.2514792,40.2428592 17.0591716,40.5 L16.637574,40.5 C14.1079882,40.5 12.0843195,38.3571595 12.0843195,35.7857509 C12.1686391,33.3857697 13.8550296,31.4143564 16.1316568,31.1572156 L16.637574,31.1572156 C17.4807693,31.1572156 18.3239644,31.4143564 19.0828402,31.8429246 C19.3357987,32.0143518 19.5887574,32.1000654 19.9260356,32.1000654 C20.2633135,32.1000654 20.6005917,32.0143518 20.8535503,31.8429246 C21.443787,31.5000702 21.6967455,30.9000748 21.6967455,30.2143659 C21.5281065,27.7286709 23.2988166,25.5001168 25.7440828,25.242976 L26.25,25.242976 C27.0931953,25.242976 27.9363906,25.5001168 28.6952662,25.928685 C29.0325444,26.1001122 29.2855029,26.1858258 29.622781,26.1858258 C29.9600592,26.1858258 30.2973373,26.1001122 30.5502958,25.928685 C31.1405325,25.5858304 31.3934911,24.9858352 31.3934911,24.3001263 C31.224852,21.8144313 33.0798816,19.5858772 35.525148,19.3287364 Z M25.8284024,13.4145825 C25.9970413,13.3288689 26.081361,13.3288689 26.3343195,13.3288689 C28.8639054,13.3288689 30.887574,15.4717094 30.887574,18.0431178 C30.8032545,20.4430992 29.1168639,22.4145123 26.8402366,22.6716533 L26.3343195,22.6716533 C25.4911242,22.6716533 24.6479291,22.4145123 23.8890532,21.9859443 C23.6360946,21.8145171 23.3831361,21.7288033 23.0458579,21.7288033 C22.70858,21.7288033 22.3713018,21.8145171 22.1183432,21.9859443 C21.5281065,22.3287987 21.275148,22.9287941 21.275148,23.614503 L21.275148,24.3859255 C21.1065088,26.6136225 19.3357988,28.3278948 17.1434912,28.5858929 L16.7218935,28.5858929 C14.1923077,28.5858929 12.1686391,26.4430524 12.1686391,23.8716438 C12.1686391,21.5573762 13.8550296,19.6716767 16.1316568,19.3288221 L16.637574,19.3288221 C17.4807693,19.3288221 18.3239644,19.5859629 19.0828403,20.0145311 C19.3357988,20.1859583 19.5887574,20.2716719 19.9260356,20.2716719 C20.2633135,20.2716719 20.6005917,20.1859583 20.8535503,20.0145311 C21.443787,19.6716767 21.6967455,19.0716813 21.6967455,18.3859724 C21.5281065,15.9002774 23.3831361,13.6717233 25.8284024,13.4145825 Z M16.5532545,7.5 C19.0676627,7.5 21.1065089,9.57255528 21.1065089,12.1285354 C21.1065089,14.6845154 19.0676627,16.7570708 16.5532545,16.7570708 C14.0388462,16.7570708 12,14.6845154 12,12.1285354 C12,9.57255528 14.0388462,7.5 16.5532545,7.5 Z" id="Shape" fill="#FFFFFF"></path>
        </g>
    </g>
</svg>