<?xml version="1.0" encoding="UTF-8"?>
<svg width="48px" height="48px" viewBox="0 0 48 48" version="1.1" xmlns="http://www.w3.org/2000/svg" xmlns:xlink="http://www.w3.org/1999/xlink">
    <!-- Generator: Sketch 49.1 (51147) - http://www.bohemiancoding.com/sketch -->
    <title>rpx</title>
    <desc>Created with Sketch.</desc>
    <defs></defs>
    <g id="48px" stroke="none" stroke-width="1" fill="none" fill-rule="evenodd">
        <g id="rpx" fill-rule="nonzero">
            <circle id="Oval" fill="#8D181B" cx="24" cy="24" r="24"></circle>
            <path d="M38.5441176,23.5973059 C39.6243216,23.5973059 40.5,24.4536728 40.5,25.5100547 C40.5,26.5664365 39.6243216,27.4228033 38.5441176,27.4228033 C37.718385,27.4228033 37.0121654,26.922392 36.7252523,26.2147515 L31.1466513,26.2147515 L29.0872733,29.8765006 C28.7490624,30.4778682 27.8207984,30.2997174 27.7400766,29.6179489 L27.2770998,25.7076915 L25.5673448,38.387399 C25.4535884,39.2310267 24.1920426,39.1913427 24.1339602,38.3423095 L22.731569,17.8425345 L21.2459118,31.4239302 C21.1572263,32.2346644 19.9660541,32.2751909 19.8199707,31.4724438 L18.2489681,22.8395821 L17.5226027,25.6809687 C17.4424071,25.9946765 17.1541841,26.2147515 16.8235295,26.2147515 L9.72058824,26.2147515 C9.32261834,26.2147515 9,25.8992479 9,25.5100547 C9,25.1208614 9.32261834,24.8053578 9.72058824,24.8053578 L16.2609111,24.8053578 L17.6685738,19.2988815 C17.857059,18.5615674 18.9409223,18.5980745 19.0770882,19.3463235 L20.3515706,26.3497686 L22.1805588,9.62975177 C22.274261,8.77315706 23.5572372,8.79810944 23.6160399,9.65767019 L25.0874304,31.16606 L26.6091258,19.881021 C26.7201414,19.0577189 27.9416643,19.0671776 28.0393352,19.8920957 L28.9121043,27.2634194 L30.0891974,25.1704481 C30.2158419,24.9452632 30.4577961,24.8053578 30.7205883,24.8053578 L36.7252523,24.8053578 C37.0121654,24.0977172 37.718385,23.5973059 38.5441176,23.5973059 Z" id="Shape" fill="#FFFFFF"></path>
        </g>
    </g>
</svg>