<?xml version="1.0" encoding="UTF-8"?>
<svg width="48px" height="48px" viewBox="0 0 48 48" version="1.1" xmlns="http://www.w3.org/2000/svg" xmlns:xlink="http://www.w3.org/1999/xlink">
    <!-- Generator: Sketch 49.1 (51147) - http://www.bohemiancoding.com/sketch -->
    <title>rub</title>
    <desc>Created with Sketch.</desc>
    <defs></defs>
    <g id="48px" stroke="none" stroke-width="1" fill="none" fill-rule="evenodd">
        <g id="rub" fill-rule="nonzero">
            <circle id="Oval" fill="#64D1FF" cx="24" cy="24" r="24"></circle>
            <path d="M15.75,22.8572454 L18.3959628,22.8572454 L18.3959628,10.5 L25.2158385,10.5 C26.4829255,10.5 27.6381936,10.6484921 28.681677,10.9454806 C29.7251605,11.2424692 30.6195615,11.6944015 31.3649068,12.3012912 C32.1102522,12.9081809 32.6940972,13.6764659 33.1164597,14.6061693 C33.538822,15.5358726 33.75,16.646335 33.75,17.9375896 C33.75,19.2288444 33.5263998,20.352219 33.0791925,21.3077475 C32.6319853,22.263276 32.0232958,23.0573856 31.2531055,23.6901004 C30.4829154,24.3228151 29.5760922,24.794116 28.5326087,25.1040172 C27.4891253,25.4139183 26.3587017,25.5688665 25.1413044,25.5688665 L21.3773292,25.5688665 L21.3773292,29.4813486 L27.3773292,29.4813486 L27.3773292,32.0380202 L21.3773292,32.0380202 L21.3773292,37.5 L18.3959628,37.5 L18.3959628,32.0380202 L15.75,32.0380202 L15.75,29.4813486 L18.3959628,29.4813486 L18.3959628,25.5688665 L15.75,25.5688665 L15.75,22.8572454 Z M25.2158385,22.8572454 C26.9301328,22.8572454 28.2779454,22.4505061 29.2593168,21.6370158 C30.2406882,20.8235253 30.7313664,19.5903957 30.7313664,17.9375896 C30.7313664,16.2847837 30.2406882,15.0839349 29.2593168,14.3350072 C28.2779454,13.5860795 26.9301328,13.2116212 25.2158385,13.2116212 L21.3773292,13.2116212 L21.3773292,22.8572454 L25.2158385,22.8572454 Z" id="Shape" fill="#FFFFFF"></path>
        </g>
    </g>
</svg>