<?xml version="1.0" encoding="UTF-8"?>
<svg width="48px" height="48px" viewBox="0 0 48 48" version="1.1" xmlns="http://www.w3.org/2000/svg" xmlns:xlink="http://www.w3.org/1999/xlink">
    <!-- Generator: Sketch 49.1 (51147) - http://www.bohemiancoding.com/sketch -->
    <title>san</title>
    <desc>Created with Sketch.</desc>
    <defs></defs>
    <g id="48px" stroke="none" stroke-width="1" fill="none" fill-rule="evenodd">
        <g id="san" fill-rule="nonzero">
            <circle id="Oval" fill="#2B77B3" cx="24" cy="24" r="24"></circle>
            <path d="M40.4995246,24.0585222 C40.4290718,33.2205722 33.0038073,40.5679985 23.8845405,40.4995253 C14.7575189,40.4298971 7.4269615,32.9710985 7.50054921,23.8285182 C7.57430193,14.7756955 15.0203558,7.43981875 24.0739547,7.5003722 C33.1961913,7.56224561 40.5681625,14.9936549 40.4995246,24.0585222 Z M8.69461714,24.0057236 C8.71111662,32.4355223 15.5305198,39.2420925 23.9767726,39.2595821 C32.433255,39.2769066 39.3321858,32.4239726 39.3023217,23.9849342 C39.2713027,15.1959398 31.9909038,8.56459488 23.609494,8.70847119 C15.5067606,8.84772762 8.67762267,15.7354758 8.69412216,24.0055586 L8.69461714,24.0057236 Z M28.022117,16.8424325 C27.7883193,17.5885433 27.570196,18.2844954 27.410316,18.7944974 C26.2741613,18.6080521 25.220009,18.3844829 24.1544721,18.2793805 C23.5218817,18.2168472 22.8656971,18.3823379 22.6200198,19.0952846 C22.3679076,19.8258858 22.3378785,20.6043359 22.9430797,21.1674664 C23.5631304,21.7449516 24.2933978,22.2026499 24.9735066,22.7154567 C25.5991673,23.1871795 26.2871958,23.5981841 26.8333289,24.149105 C28.313828,25.6424815 28.5769947,27.454465 27.9684936,29.4073549 C27.6076499,30.5651302 26.7511614,31.2965565 25.6536156,31.7413851 C23.9734726,32.4221575 21.1119666,32.0878761 19.5065664,31.0068238 C19.7477889,30.3050968 19.9969312,29.5802705 20.2099396,28.9608763 C21.2342277,29.2304795 22.1700788,29.5548612 23.1334837,29.7076473 C24.0516803,29.8525135 25.0131054,29.7119372 25.4838358,28.7747611 C25.9578662,27.8306555 25.8082158,26.834411 25.0655738,26.0764205 C24.4922166,25.4913455 23.773499,25.0451969 23.1032898,24.5584595 C22.6556586,24.2337477 22.1558892,23.9788293 21.7209627,23.639433 C19.9741619,22.277228 19.4036095,20.0007813 20.2888071,17.9711685 C20.7144939,16.9958786 21.4835351,16.3639448 22.4939637,16.1232159 C24.3760602,15.6762423 26.2022235,15.8791872 28.022117,16.8424325 Z M15.9029133,23.7277058 C15.8974685,24.7774087 15.0553347,25.626972 14.0158669,25.6315919 C12.9669945,25.6365417 12.0689274,24.7219702 12.0936766,23.6754021 C12.1180958,22.6492934 13.0075832,21.7944504 14.0340164,21.809795 C15.0838788,21.8256345 15.9085232,22.6718977 15.9029133,23.7277058 Z M34.041625,21.8619336 C35.0885177,21.8607786 35.8677883,22.6332888 35.8816479,23.6861268 C35.8956724,24.769159 35.0322543,25.6474314 33.9677074,25.6320869 C32.9247747,25.6170723 32.0897356,24.7642091 32.0902307,23.7145061 C32.0907256,22.6171193 32.885011,21.8629236 34.041625,21.8619336 Z" id="Shape" fill="#FFFFFF"></path>
        </g>
    </g>
</svg>