<?xml version="1.0" encoding="UTF-8"?>
<svg width="48px" height="48px" viewBox="0 0 48 48" version="1.1" xmlns="http://www.w3.org/2000/svg" xmlns:xlink="http://www.w3.org/1999/xlink">
    <!-- Generator: Sketch 49.1 (51147) - http://www.bohemiancoding.com/sketch -->
    <title>sbd</title>
    <desc>Created with Sketch.</desc>
    <defs></defs>
    <g id="48px" stroke="none" stroke-width="1" fill="none" fill-rule="evenodd">
        <g id="sbd" fill-rule="nonzero">
            <circle id="Oval" fill="#4BA2F2" cx="24" cy="24" r="24"></circle>
            <path d="M14.8047667,12.3434043 C15.1290333,12.3982979 14.3221667,14.5474468 14.7724667,17.0036171 C15.1606999,19.1080851 20.0323,27.2585106 19.8315333,30.053617 C19.6757334,31.8089361 15.6756,35.9259575 15.2550666,35.6514894 C14.7946333,35.5244681 16.4698,32.7268085 15.8485,30.3957447 C15.1264999,27.6778724 10.8388333,20.6514894 10.8439,17.55 C10.8439,15.280851 14.5153333,12.1965957 14.8047667,12.3434043 Z M23.9684667,9.13468084 C24.3788667,9.20425531 23.3522334,11.9470213 23.9260333,15.0714894 C24.4206666,17.7593617 30.6355666,28.1514894 30.3784333,31.714468 C30.1776666,33.9561702 25.0793334,39.2017021 24.5397333,38.8531915 C23.9557999,38.693617 26.0907666,35.1255319 25.2991,32.1529788 C24.3788667,28.6902127 18.9113,19.7291488 18.9163667,15.7742553 C18.9163667,12.8770213 23.5998666,8.94765957 23.9684667,9.13468085 Z M33.4260333,12.3434043 C33.7503,12.3982979 32.9440667,14.5474468 33.3937334,17.0036171 C33.7826,19.1080851 38.6535666,27.2585106 38.4534333,30.053617 C38.3001666,31.8089361 34.2994001,35.9259575 33.8763333,35.6514894 C33.4165333,35.5244681 35.0910666,32.7268085 34.4704,30.3957447 C33.7477667,27.6778724 29.4607333,20.6514894 29.4651666,17.55 C29.4651666,15.280851 33.1391334,12.1965957 33.4260333,12.3434043 Z" id="Shape" fill="#FFFFFF"></path>
        </g>
    </g>
</svg>