<?xml version="1.0" encoding="UTF-8"?>
<svg width="48px" height="48px" viewBox="0 0 48 48" version="1.1" xmlns="http://www.w3.org/2000/svg" xmlns:xlink="http://www.w3.org/1999/xlink">
    <!-- Generator: Sketch 49.1 (51147) - http://www.bohemiancoding.com/sketch -->
    <title>sberbank</title>
    <desc>Created with Sketch.</desc>
    <defs></defs>
    <g id="48px" stroke="none" stroke-width="1" fill="none" fill-rule="evenodd">
        <g id="sberbank" fill-rule="nonzero">
            <circle id="Oval" fill="#48B254" cx="24" cy="24" r="24"></circle>
            <path d="M34.0214725,11.0517241 L35.4386505,12.3390805 L17.5417185,22.5574713 L8.8766881,17.5689655 L9.68650402,15.95977 L17.5417185,20.4252873 L34.0214725,11.0517241 Z M30.4177917,9 L32.3208591,9.96551724 L17.5417185,18.4137932 L10.6582831,14.5114943 L11.8325162,13.1034483 L17.5417185,16.362069 L30.4177917,9 Z M36.6938652,13.6666667 L37.7466258,15.0747126 L17.5417185,26.6206896 L7.78343659,21.0689655 L8.22883536,19.2988506 L17.5417185,24.6091955 L36.6938652,13.6666667 Z M39.6092025,18.8563218 C40.2027975,20.5194253 40.5,22.2621838 40.5,24.0862069 C40.5,25.9102299 40.2027975,27.6803448 39.6092025,29.3965516 L39.2042944,30.4827586 C38.373826,32.431876 37.1784228,34.2066007 35.6815953,35.7126436 C34.1711844,37.1963083 32.3829234,38.3716887 30.4177917,39.1724137 C28.339804,40.0574712 26.1937919,40.5 23.9797551,40.5 C21.7389945,40.5 19.5929823,40.0574712 17.5417185,39.1724137 C15.6248843,38.3678161 13.88378,37.2148276 12.3184058,35.7126436 C10.7797555,34.183908 9.60552243,32.4411495 8.79570651,30.4827586 C7.93973154,28.4574729 7.49922493,26.2828095 7.50000102,24.0862069 L7.50000102,22.9999999 L17.5417185,28.6724137 L38.718405,16.6034482 L39.6092025,18.8563218 Z" id="Shape" fill="#FFFFFF"></path>
        </g>
    </g>
</svg>