<?xml version="1.0" encoding="UTF-8"?>
<svg width="48px" height="48px" viewBox="0 0 48 48" version="1.1" xmlns="http://www.w3.org/2000/svg" xmlns:xlink="http://www.w3.org/1999/xlink">
    <!-- Generator: Sketch 49.1 (51147) - http://www.bohemiancoding.com/sketch -->
    <title>sc</title>
    <desc>Created with Sketch.</desc>
    <defs></defs>
    <g id="48px" stroke="none" stroke-width="1" fill="none" fill-rule="evenodd">
        <g id="sc" fill-rule="nonzero">
            <circle id="Oval" fill="#00CBA0" cx="24" cy="24" r="24"></circle>
            <path d="M33.2832715,21.0115428 C30.7022469,19.3893521 27.4678815,19.2229374 24.7485961,20.5036266 C24.74719,20.5015172 24.7457839,20.4998765 24.744378,20.497767 C23.3003728,21.1491278 21.5632077,20.9184912 20.3291715,19.8119513 C20.2731642,19.7620269 20.2183285,19.7116338 20.1641959,19.6574906 L14.686959,14.1791689 C14.6864903,14.1787001 14.6815692,14.1763562 14.6825065,14.1747155 C14.3157639,13.7640699 14.1634427,13.2366997 14.220856,12.722924 C14.2196843,12.7219864 14.2175752,12.7222208 14.2166379,12.721752 C14.2374942,12.609012 14.2494456,12.4936937 14.2496799,12.3746253 C14.2494456,11.339339 13.4100384,10.5 12.3747228,10.5 C11.3394071,10.5 10.5,11.3395734 10.5,12.375094 C10.5,13.4101459 11.3391728,14.2501881 12.3744885,14.2501881 C12.493299,14.2501881 12.6090631,14.2377656 12.7217808,14.2166708 C12.7222495,14.2180771 12.7229525,14.2190146 12.7234212,14.2201866 C13.2373296,14.1627618 13.775375,14.3050346 14.1854706,14.6718498 C14.1873453,14.6709123 14.1894544,14.6758344 14.1899231,14.6763032 L19.6929375,20.1804074 C19.7379309,20.2254096 19.7747223,20.2769747 19.8169035,20.3240864 C20.9241616,21.5593046 21.1503,23.3017358 20.4974278,24.7462613 C20.4993025,24.7476677 20.4997713,24.7495427 20.501646,24.7509491 C19.2207417,27.4705385 19.3864203,30.7067165 21.0085242,33.2884866 C21.3560509,33.8430456 21.7684899,34.3676031 22.2500593,34.8497367 C23.7852229,36.3849699 25.8228123,37.2941562 27.832515,37.4725245 C28.3588435,37.5184643 35.8596093,37.4929161 35.8596093,37.4929161 C36.2661898,37.4929161 36.6840186,37.2913436 36.9717886,37.0039854 C37.2593242,36.7166271 37.4999917,36.2593386 37.4999917,35.8522089 C37.4999917,35.8522089 37.499523,28.9490502 37.4999917,28.5862196 C37.5009291,28.2236232 37.4219563,27.7028159 37.4153949,27.6282809 C37.2372961,25.6179456 36.3807822,23.7890258 34.8456186,22.2535581 C34.3638148,21.7721279 33.8372521,21.3593727 33.2832715,21.0115428 Z M33.7639035,27.0948165 C33.97481,28.1310403 33.9848865,28.5866883 33.9848865,28.6558323 L33.9848865,32.3364075 C33.9848865,32.7437716 33.8037414,33.2207487 33.5162058,33.5083413 C33.2286702,33.7959339 32.7513189,33.9771148 32.344504,33.9771148 L28.7698764,33.9771148 C28.7009804,33.9771148 27.8618076,33.9672705 27.0903593,33.7544473 C26.2268149,33.5163105 25.4131853,33.0487089 24.7357074,32.3710968 C22.6339088,30.2695851 22.6341432,26.8440228 24.7354731,24.7420423 C26.8372716,22.6402963 30.2712951,22.6388899 32.3728593,24.7406359 C33.0503373,25.4180137 33.5848675,26.2172725 33.7639035,27.0948165 Z" id="Shape" fill="#FFFFFF"></path>
        </g>
    </g>
</svg>