<?xml version="1.0" encoding="UTF-8"?>
<svg width="48px" height="48px" viewBox="0 0 48 48" version="1.1" xmlns="http://www.w3.org/2000/svg" xmlns:xlink="http://www.w3.org/1999/xlink">
    <!-- Generator: Sketch 49.1 (51147) - http://www.bohemiancoding.com/sketch -->
    <title>sky</title>
    <desc>Created with Sketch.</desc>
    <defs></defs>
    <g id="48px" stroke="none" stroke-width="1" fill="none" fill-rule="evenodd">
        <g id="sky" fill-rule="nonzero">
            <circle id="Oval" fill="#0072FF" cx="24" cy="24" r="24"></circle>
            <path d="M36.0405405,19.2044693 L28.8222239,35.25 L25.938594,35.25 L33.5358493,18.3592179 C34.4277413,18.5064246 35.2688,18.7913408 36.0405405,19.2044693 Z M23.4107969,9.77849162 L12.3060496,34.4664804 C9.47325304,33.1226257 7.5,30.1784916 7.5,26.7499999 C7.5,22.0536313 11.19234,18.2500001 15.7488447,18.2500001 C15.7488447,13.7578212 19.1315642,10.0918994 23.4107969,9.77849162 Z M32.2511553,18.2500001 L24.6030667,35.25 L21.4791345,35.25 L31.0819913,13.9050279 C31.8213835,15.1776537 32.2511553,16.6592179 32.2511553,18.2500001 Z M35.0931942,34.7229051 L39.9916678,23.8391061 C40.315152,24.750838 40.5,25.7290503 40.5,26.7547486 C40.5,30.4111733 38.2494748,33.526257 35.0931942,34.7229051 Z M37.2559166,20.0022346 C37.9398543,20.5435754 38.5452318,21.1846368 39.0350792,21.9206704 L33.0552444,35.2072626 C32.7918358,35.2357542 32.519185,35.25 32.2511553,35.25 L30.3980535,35.25 L37.2559166,20.0022346 Z M24.0300378,9.75 C25.1992018,9.75474861 26.3082901,10.0111732 27.315712,10.4717877 L16.1693741,35.25 L15.7488447,35.25 C14.7136956,35.25 13.7247584,35.0458101 12.8143817,34.6849163 L24.0300378,9.75 Z M30.4304019,12.9268156 L20.388531,35.25 L17.0196752,35.25 L28.0088924,10.8231844 C28.9423751,11.3597765 29.764949,12.0768156 30.4304019,12.9268156 Z" id="Shape" fill="#FFFFFF"></path>
        </g>
    </g>
</svg>