<?xml version="1.0" encoding="UTF-8"?>
<svg width="48px" height="48px" viewBox="0 0 48 48" version="1.1" xmlns="http://www.w3.org/2000/svg" xmlns:xlink="http://www.w3.org/1999/xlink">
    <!-- Generator: Sketch 49.1 (51147) - http://www.bohemiancoding.com/sketch -->
    <title>sngls</title>
    <desc>Created with Sketch.</desc>
    <defs></defs>
    <g id="48px" stroke="none" stroke-width="1" fill="none" fill-rule="evenodd">
        <g id="sngls" fill-rule="nonzero">
            <circle id="Oval" fill="#B30D23" cx="24" cy="24" r="24"></circle>
            <path d="M25.3689957,31.8503817 L23.971179,34.4553435 L22.5733624,31.8503817 C14.128821,31.1954199 7.5,24.8988549 7.5,24.8988549 C7.5,24.8839695 13.9414847,18.7809161 22.2131004,17.9770992 L23.3082969,16.1015267 L23.971179,15 L25.0951965,16.8755726 L25.7292576,17.9770992 C34.0008733,18.7660305 40.4423581,24.8988549 40.4423581,24.8988549 C40.4423581,24.8988549 33.8135371,31.1954199 25.3689957,31.8503817 Z M8.8978166,24.8988549 C8.88340611,24.8988549 15.2672489,29.2603053 21.6799127,30.1832061 L18.5528385,24.3332061 L19.4030568,22.8595421 L20.1812228,24.3183206 L20.1668123,24.3332061 L23.2074236,30.3171756 C23.4524018,30.332061 23.69738,30.332061 23.9423582,30.332061 C24.1873362,30.332061 24.4179039,30.332061 24.6628821,30.3171756 L26.8965066,25.8664122 L28.5248909,22.829771 L29.3751092,24.3034351 L26.248035,30.1683206 C32.6606987,29.2603053 39.0445415,25.0030535 39.0445415,24.8839695 C39.0445415,24.7797709 32.9633189,20.7160305 26.7091702,19.6740458 L27.6602621,21.326336 L26.8676856,22.919084 L24.806987,19.4656488 C24.5331878,19.4507634 24.2449782,19.4358779 23.971179,19.4358779 C23.69738,19.4358779 23.4091703,19.4507634 23.1209607,19.4656488 L21.0170306,22.919084 L20.2388646,21.4007634 L21.2331878,19.6889313 C14.9790393,20.7458016 8.8978166,24.8988549 8.8978166,24.8988549 Z" id="Shape" fill="#FFFFFF"></path>
        </g>
    </g>
</svg>