<?xml version="1.0" encoding="UTF-8"?>
<svg width="48px" height="48px" viewBox="0 0 48 48" version="1.1" xmlns="http://www.w3.org/2000/svg" xmlns:xlink="http://www.w3.org/1999/xlink">
    <!-- Generator: Sketch 49.1 (51147) - http://www.bohemiancoding.com/sketch -->
    <title>sphtx</title>
    <desc>Created with Sketch.</desc>
    <defs></defs>
    <g id="48px" stroke="none" stroke-width="1" fill="none" fill-rule="evenodd">
        <g id="sphtx" fill-rule="nonzero">
            <circle id="Oval" fill="#00B098" cx="24" cy="24" r="24"></circle>
            <path d="M9,18.5864363 L9,18.0525171 L21.6261661,18.0525171 L21.6261661,18.5864363 L9,18.5864363 Z M9,17.0345628 L9,16.5 L21.6261661,16.5 L21.6261661,17.0345628 L9,17.0345628 Z M14.3257881,32.9945289 L14.3257881,19.6549182 L14.8314683,19.6549182 L14.8314683,32.9945289 L14.3257881,32.9945289 Z M15.7950025,32.9945289 L15.7950025,19.6549182 L16.3006827,19.6549182 L16.3006827,32.9945289 L15.7950025,32.9945289 Z M38.6422768,31.9021026 L32.9454535,25.8832023 L33.3027805,25.5056936 L38.9999086,31.5242719 L38.6422768,31.9021026 Z M24.7787781,16.5000644 L30.475906,22.5189647 L30.1182744,22.8964736 L24.4211464,16.877895 L24.7787781,16.5000644 Z M37.6034389,32.9999034 L31.9066156,26.9810031 L32.2639428,26.6031724 L37.9610707,32.6220728 L37.6034389,32.9999034 Z M23.7399402,17.5977042 L29.4367637,23.6166045 L29.0791318,23.9941134 L23.3820039,17.9755349 L23.7399402,17.5977042 Z M31.8726498,24.749839 L32.2302816,24.3720084 L38.6423683,17.5977687 L39,17.9755993 L32.5879132,24.749839 L32.2302816,25.1276697 L31.5488318,25.8476077 L31.1912,26.2254384 L24.7791132,33 L24.4211769,32.6221693 L30.8335683,25.8476077 L31.1912,25.4697771 L31.8726498,24.749839 Z M31.1911086,23.2744007 L37.6035,16.500161 L37.9611316,16.8779916 L31.5487402,23.6522314 L31.1911086,24.0300621 L30.5099632,24.7496781 L30.1520269,25.1278306 L23.7399402,31.9020704 L23.3823085,31.5242397 L29.7943953,24.7496781 L30.1520269,24.3721694 L30.8334768,23.6522314 L31.1911086,23.2744007 Z" id="Shape" fill="#FFFFFF"></path>
        </g>
    </g>
</svg>