<?xml version="1.0" encoding="UTF-8"?>
<svg width="48px" height="48px" viewBox="0 0 48 48" version="1.1" xmlns="http://www.w3.org/2000/svg" xmlns:xlink="http://www.w3.org/1999/xlink">
    <!-- Generator: Sketch 49.1 (51147) - http://www.bohemiancoding.com/sketch -->
    <title>srn</title>
    <desc>Created with Sketch.</desc>
    <defs></defs>
    <g id="48px" stroke="none" stroke-width="1" fill="none" fill-rule="evenodd">
        <g id="srn" fill-rule="nonzero">
            <circle id="Oval" fill="#1C1C1C" cx="24" cy="24" r="24"></circle>
            <path d="M23.5729311,20.1492279 C24.0318509,20.3363493 24.4907706,20.2427886 24.8579063,20.1492279 C25.1332581,21.0848346 25.5921779,21.9268806 26.0510975,22.3011234 C25.7757456,24.6401401 24.9496902,25.4821861 24.0318509,25.4821861 C22.7468757,25.4821861 22.1043882,22.7689267 22.1043882,22.3011234 C22.3797399,22.114002 23.2057955,21.5526379 23.5729311,20.1492279 Z M22.1961725,28.3825669 C22.746876,27.9147636 23.1140118,27.1662781 23.5729316,25.9499895 C23.9400672,26.1371107 24.4907709,26.0435502 24.8579067,25.9499895 C25.1332584,27.2598388 25.4086103,28.1018848 26.0510979,28.4761276 C25.86753,29.9730982 24.9496907,31.0022656 24.1236351,31.0022656 C22.9304439,31.0022656 22.3797404,29.1310522 22.1961725,28.3825669 Z M14.8534574,31.2829477 C15.2205932,30.8151444 15.2205932,30.0666589 15.0370253,28.6632489 C15.3123771,28.7568096 15.587729,28.7568096 15.7712969,28.6632489 C16.3220004,29.9730982 16.7809202,30.8151444 17.5151916,31.2829477 C17.6069756,31.9378723 17.5151916,32.6863578 17.2398398,32.7799183 C16.2302165,33.2477217 15.3123771,32.031433 14.8534574,31.2829477 Z M10.998532,28.7568096 C11.1820999,28.7568096 11.2738838,28.7568096 11.4574517,28.8503703 C12.0999393,30.5344623 13.2013465,31.470069 13.2013465,31.470069 C13.5684823,32.2185544 13.7520501,32.9670397 13.4766983,32.9670397 C12.6506429,33.0606004 12.0081553,32.4992364 11.3656677,31.2829477 C11.4574517,31.0022656 11.3656677,30.8151444 10.998532,28.7568096 Z M8.52036567,28.7568096 C9.43820505,32.6863578 11.1820999,32.4992364 11.0903159,32.312115 C10.7231802,31.6571904 10.3560444,31.3765083 9.98890868,31.0958263 C9.16285325,30.2537803 8.52036567,28.4761276 8.52036567,28.7568096 Z M19.7180061,31.2829477 C20.3604938,30.8151444 20.4522776,29.785977 20.5440615,28.4761276 C20.9111973,28.5696882 21.3701171,28.5696882 21.6454688,28.4761276 C21.8290367,29.3181736 22.1043885,30.5344623 22.9304439,31.0958263 C22.83866,32.1249938 22.5633083,32.6863578 21.9208206,32.7799183 C21.461901,32.9670397 20.1769259,32.9670397 19.7180061,31.2829477 Z M11.8245874,28.3825669 C12.1917232,27.9147636 12.2835071,27.1662781 12.3752911,26.1371107 C12.6506429,26.2306714 13.0177786,26.2306714 13.2013465,26.1371107 C13.4766983,27.3533995 13.935618,28.1018848 14.4863216,28.4761276 C14.6698895,30.4409016 14.4863216,31.0958263 14.1191859,31.0958263 C13.2931305,31.0958263 12.1917232,29.3181736 11.8245874,28.3825669 Z M8.97928536,28.3825669 C8.97928536,28.1954455 9.0710693,26.9791569 9.16285325,26.1371107 L9.52998899,26.1371107 C9.98890868,27.9147636 10.6313963,28.4761276 10.6313963,28.4761276 C11.0903159,30.628023 11.0903159,31.189387 10.7231802,31.0022656 C9.89712474,30.7215837 9.25463718,29.1310522 8.97928536,28.3825669 Z M16.3220004,28.3825669 C16.7809202,28.0083243 17.0562719,27.3533995 17.2398398,26.1371107 C17.6987595,26.3242321 18.1576791,26.2306714 18.433031,26.1371107 C18.7083828,27.3533995 19.1673026,28.1018848 19.8097901,28.4761276 C19.8097901,29.5052949 19.7180061,31.189387 18.433031,30.9087049 C17.3316237,30.628023 16.4137844,28.7568096 16.3220004,28.3825669 Z M15.495945,28.1018848 C14.3945377,28.1018848 13.7520501,26.3242321 13.7520501,25.7628681 C14.3027538,25.201504 14.5781056,24.1723368 14.8534574,22.394684 C15.0370253,22.4882446 15.3123771,22.4882446 15.587729,22.394684 C15.6795129,24.359458 16.2302165,25.201504 16.6891362,25.6693074 C16.5055683,27.2598388 16.0466486,28.1018848 15.495945,28.1018848 Z M9.80534081,25.7628681 C9.98890868,25.3886254 9.98890868,25.2950647 10.5396123,22.394684 L10.998532,22.394684 C10.998532,24.359458 11.5492356,25.2950647 11.8245874,25.6693074 C11.7328035,26.6984748 11.9163714,28.1018848 11.0903159,28.1018848 C10.7231802,28.1018848 10.2642605,27.6340815 9.80534081,25.7628681 Z M7.96966205,22.4882446 C8.24501387,22.5818053 8.06144598,25.0143828 8.42858174,25.8564288 C8.42858174,25.8564288 8.42858174,28.1954455 8.24501387,28.0083243 C6.8682548,26.3242322 7.78609418,22.3946839 7.96966205,22.4882446 Z M18.9837347,25.7628681 C19.6262222,25.2950648 19.993358,24.2658973 20.5440615,22.394684 C20.9111973,22.4882446 21.3701171,22.4882446 21.6454688,22.394684 C21.8290367,23.798094 22.1961725,24.8272614 22.9304439,25.5757468 C22.746876,27.0727174 22.0126046,28.1018848 21.0947652,28.1018848 C19.6262222,28.1018848 19.0755186,26.0435502 18.9837347,25.7628681 Z M11.4574517,22.114002 C12.1917232,21.8333201 12.6506429,20.2427886 12.7424268,20.0556672 C12.9259947,20.2427886 13.2931305,20.2427886 13.4766983,20.0556672 C13.4766983,21.271956 13.8438341,21.83332 14.1191859,22.0204413 C13.8438341,23.6109728 13.4766983,25.4821862 12.6506429,25.4821862 C11.9163714,25.4821862 11.5492356,23.798094 11.4574517,22.114002 Z M9.16285325,25.5757469 C8.52036567,25.5757469 8.3367978,23.1431694 8.52036567,22.114002 C8.52036567,22.114002 9.0710693,21.271956 9.43820505,20.0556672 C9.52998899,20.0556672 9.71355687,20.1492279 9.80534081,20.0556672 C9.71355687,21.271956 9.89712474,21.83332 10.0806926,22.114002 C10.0806926,22.114002 9.62177294,25.5757469 9.16285325,25.5757469 Z M16.1384325,22.114002 C16.5055683,21.9268806 17.2398398,20.8977134 17.6069756,19.9621067 C17.9741114,20.1492279 18.341247,20.1492279 18.8001668,20.0556672 C18.9837347,21.0848346 19.2590864,21.7397593 19.901574,22.114002 C19.6262222,23.798094 19.0755186,25.4821862 17.8823274,25.4821862 C16.7809202,25.4821862 16.2302165,23.2367301 16.1384325,22.114002 Z M16.9644879,19.5878639 C16.4137844,21.0848346 15.8630806,21.9268806 15.1288092,21.9268806 C14.2109698,21.9268806 14.1191859,19.9621067 14.1191859,19.7749853 C14.8534574,19.2136212 15.404161,18.0908933 15.8630806,17.1552866 L16.5055683,17.1552866 C16.3220004,18.5586966 16.6891362,19.2136212 16.9644879,19.5878639 Z M12.467075,17.2488471 C12.0081553,18.5586966 12.1917232,19.2136212 12.3752911,19.6814246 C11.6410196,21.552638 11.2738838,22.0204413 10.7231802,22.0204413 C10.1724766,21.9268806 10.1724766,20.8041527 10.3560444,19.868546 C10.9067481,19.4943033 12.0999393,17.3424078 12.0999393,17.2488471 L12.467075,17.2488471 Z M9.80534081,17.3424078 C10.0806926,17.2488471 9.0710693,18.6522572 9.16285325,19.3071819 C9.25463718,20.2427886 8.15322992,21.8333201 8.06144598,21.7397593 C7.69431023,21.6461987 8.42858174,18.2780145 9.80534081,17.3424078 Z M22.83866,19.5878639 C22.5633083,20.6170313 22.1961725,21.9268806 20.6358455,21.9268806 C19.8097901,21.8333201 19.3508703,20.710592 19.1673026,19.7749853 C20.0851419,19.1200605 20.5440615,17.9973326 20.8194134,17.1552866 C21.0947652,17.2488471 21.5536848,17.2488471 21.8290367,17.1552866 C22.0126046,18.5586966 22.4715243,19.2136212 22.83866,19.5878639 Z M10.3560444,17.0617259 C10.5396123,16.9681652 11.7328035,15.3776337 12.3752911,15.3776337 C12.7424268,15.4711944 11.7328035,16.4068011 11.8245874,16.8746045 C11.5492356,17.3424078 10.2642605,19.6814246 9.80534081,19.6814246 C9.43820505,19.6814246 9.43820505,18.4651359 10.3560444,17.0617259 Z M32.9348932,28.6632489 C32.8431093,30.066659 32.8431093,30.8151444 33.118461,31.2829478 C32.7513253,32.0314331 31.741702,33.1541612 30.7320787,32.7799184 C30.3649429,32.6863578 30.3649429,31.9378724 30.4567269,31.2829478 C31.2827823,30.8151444 31.833486,29.8795377 32.2006216,28.6632489 C32.3841895,28.7568096 32.6595414,28.7568096 32.9348932,28.6632489 Z M36.6062507,28.6632489 C36.6980346,28.7568096 36.8816025,28.7568096 37.0651704,28.5696882 C36.6980346,30.628023 36.6062507,30.8151444 36.6980346,31.0958264 C36.0555471,32.312115 35.4130595,32.7799184 34.5870041,32.7799184 C34.2198683,32.7799184 34.4034362,32.1249938 34.8623559,31.2829478 C34.8623559,31.2829478 35.9637632,30.3473411 36.6062507,28.6632489 Z M38.0747937,31.0958264 C37.7076579,31.470069 37.3405222,31.6571904 37.0651704,32.312115 C36.9733864,32.4992364 38.7172813,32.6863578 39.6351207,28.7568096 C39.4515528,28.4761277 38.9008491,30.2537804 38.0747937,31.0958264 Z M27.5196408,28.6632489 C27.5196408,29.785977 27.7949927,30.8151444 28.3456964,31.470069 C27.8867766,33.0606005 26.6018014,33.0606005 26.1428819,32.9670397 C25.5003942,32.7799184 25.3168263,32.2185544 25.1332584,31.2829478 C25.86753,30.628023 26.2346656,29.5052949 26.4182335,28.6632489 C26.7853693,28.7568096 27.1525051,28.7568096 27.5196408,28.6632489 Z M35.7801952,26.0435502 C35.7801952,27.1662782 35.8719792,27.9147636 36.3308989,28.2890063 C35.9637631,29.224613 34.7705719,31.0022657 34.0363005,31.0022657 C33.6691647,31.0022657 33.4855968,30.3473411 33.6691647,28.382567 C34.2198682,28.0083243 34.678788,27.0727175 34.9541398,26.0435502 C35.1377077,26.1371107 35.4130594,26.2306715 35.7801952,26.0435502 Z M39.084417,26.2306715 C39.084417,26.9791569 39.084417,28.1954456 39.2679849,28.4761277 C38.9008491,29.224613 38.2583616,30.8151444 37.5240902,31.0958264 C37.0651704,31.1893871 37.1569544,30.628023 37.6158741,28.5696882 C37.6158741,28.5696882 38.2583616,27.9147636 38.7172814,26.2306715 L39.084417,26.2306715 Z M30.9156465,26.0435502 C31.0992144,27.3533996 31.2827823,28.0083243 31.833486,28.2890063 C31.741702,28.7568096 30.7320787,30.628023 29.7224553,30.8151444 C28.4374803,31.0958264 28.3456963,29.3181737 28.3456963,28.382567 C28.9881838,28.0083243 29.4471036,27.1662782 29.7224553,26.0435502 C29.9978071,26.1371107 30.4567269,26.2306715 30.9156465,26.0435502 Z M34.4034362,25.7628681 C34.3116522,26.3242322 33.5773808,28.1018849 32.6595414,28.1018849 C32.1088377,28.1018849 31.6499181,27.1662782 31.4663502,25.6693074 C31.9252698,25.2950648 32.4759735,24.3594581 32.5677575,22.394684 C32.8431093,22.4882447 33.0266772,22.4882447 33.3020289,22.394684 C33.6691647,24.0787761 33.9445165,25.2015041 34.4034361,25.7628681 Z M37.6158741,22.394684 C38.0747937,25.2950648 38.1665776,25.3886255 38.3501455,25.7628681 C37.8912258,27.5405208 37.4323062,28.1018849 37.0651704,28.1018849 C36.239115,28.1018849 36.4226829,26.6049141 36.3308989,25.6693074 C36.6980346,25.2950648 37.1569543,24.3594581 37.1569543,22.394684 C37.3405222,22.4882447 37.4323062,22.394684 37.6158741,22.394684 Z M39.5433368,25.7628681 C40.0022564,25.0143828 39.8186886,22.5818054 40.0022564,22.394684 C40.2776082,22.3011234 41.1036638,26.4177929 39.7269047,27.9147636 C39.5433368,28.1018849 39.5433368,25.7628681 39.5433368,25.7628681 Z M27.7949927,22.394684 C28.0703445,24.2658974 28.5292641,25.2950648 29.3553196,25.7628681 C29.2635357,26.0435502 28.5292641,28.1018849 27.2442891,28.1018849 C26.2346656,28.1954456 25.6839621,26.9791569 25.4086102,25.5757469 C26.0510979,24.8272614 26.5100175,23.798094 26.6935854,22.394684 C26.8771533,22.4882447 27.3360729,22.4882447 27.7949926,22.394684 Z M35.4130595,20.0556672 C35.4130595,20.2427886 35.9637632,21.8333201 36.6062507,22.3011234 C36.6062507,23.8916547 36.1473311,25.6693074 35.4130595,25.6693074 C34.5870041,25.6693074 34.2198683,23.8916547 33.9445166,22.2075627 C34.2198683,21.9268806 34.5870041,21.271956 34.5870041,20.1492279 C34.8623559,20.2427886 35.1377078,20.2427886 35.4130595,20.0556672 Z M39.5433368,22.114002 C39.6351207,23.1431694 39.4515528,25.5757469 38.9926331,25.4821862 C38.5337135,25.4821862 38.0747937,22.0204413 38.0747937,22.0204413 C38.2583616,21.7397594 38.4419295,21.0848346 38.3501456,20.0556672 C38.4419295,20.1492279 38.6254974,20.1492279 38.7172814,20.0556672 C39.084417,21.271956 39.5433368,22.114002 39.5433368,22.114002 Z M30.5485108,20.0556672 C30.9156465,20.8977134 31.5581341,21.9268806 32.1088377,22.2075627 C32.0170537,23.3302907 31.3745662,25.5757469 30.3649429,25.5757469 C28.9881838,25.6693074 28.621048,23.9852154 28.3456963,22.2075627 C28.8963999,21.8333201 29.2635357,21.0848346 29.3553196,20.1492279 C29.7224553,20.2427886 30.181375,20.2427886 30.5485108,20.0556672 Z M32.8431093,21.8333201 C32.2006217,21.9268806 31.6499181,21.0848346 31.0074305,19.5878639 C31.3745663,19.2136212 31.6499181,18.4651359 31.4663502,17.1552866 C31.7417021,17.2488471 31.9252698,17.2488471 32.1088377,17.1552866 C32.6595414,18.1844538 33.210245,19.2136212 33.8527326,19.6814246 C33.8527326,19.9621067 33.7609487,21.8333201 32.8431093,21.8333201 Z M35.7801952,19.5878639 C35.8719792,19.2136212 36.0555471,18.5586966 35.5048434,17.1552866 L35.8719792,17.1552866 C35.8719792,17.2488471 37.1569543,19.4943033 37.6158741,19.7749853 C37.7994418,20.8041527 37.7994418,21.8333201 37.2487383,21.9268806 C36.7898185,21.9268806 36.4226829,21.4590773 35.7801952,19.5878639 Z M38.9008491,19.3071819 C38.992633,18.6522572 38.0747937,17.2488471 38.1665776,17.3424078 C39.6351207,18.2780145 40.1858242,21.6461987 39.9104725,21.7397594 C39.8186886,21.8333201 38.8090651,20.1492279 38.9008491,19.3071819 Z M27.2442891,21.8333201 C25.86753,21.9268806 25.5003942,20.6170313 25.2250423,19.5878639 C25.6839621,19.3071819 26.1428818,18.4651359 26.2346656,17.1552866 C26.5100175,17.2488471 26.9689372,17.2488471 27.2442891,17.1552866 C27.5196408,17.9973326 27.9785605,19.1200605 28.712832,19.6814246 C28.621048,20.8041527 28.1621284,21.7397594 27.2442891,21.8333201 Z M35.7801953,15.3776337 C36.239115,15.3776337 37.6158741,16.9681652 37.7076579,17.0617259 C38.7172814,18.5586966 38.7172814,19.6814246 38.3501456,19.6814246 C37.7994419,19.6814246 36.6062506,17.3424078 36.330899,16.8746045 C36.4226829,16.4068011 35.4130595,15.3776337 35.7801953,15.3776337 Z M15.4041611,15.6583158 C15.2205932,16.2196797 15.1288092,16.7810438 15.4041611,17.0617259 C14.8534574,18.1844538 13.935618,19.7749853 13.1095626,19.6814246 C12.1917232,19.4943033 12.9259947,17.3424078 13.0177786,17.1552866 C13.5684823,16.8746045 14.8534574,15.0969518 15.3123771,15.0969518 C15.587729,15.1905125 15.4041611,15.6583158 15.4041611,15.6583158 Z M19.7180061,15.5647551 C19.7180061,16.1261192 19.8097901,16.7810438 20.2687098,17.0617259 C19.901574,18.1844538 19.1673026,19.6814246 17.9741114,19.5878639 C17.1480558,19.4943033 16.9644879,18.0908933 17.1480558,17.0617259 C17.9741114,16.7810438 18.7083828,15.0033911 19.2590864,15.0033911 C19.7180061,15.0033911 19.7180061,15.4711944 19.7180061,15.5647551 Z M32.7513254,17.0617259 C32.9348933,16.7810438 32.9348933,16.2196797 32.7513254,15.6583158 C32.7513254,15.5647551 32.5677575,15.0969518 32.8431093,15.0969518 C33.3020289,15.0969518 34.5870041,16.8746045 35.1377078,17.1552866 C35.2294917,17.3424078 35.9637632,19.4943033 35.0459238,19.6814246 C34.1280845,19.7749853 33.3020289,18.0908933 32.7513254,17.0617259 Z M27.8867766,17.0617259 C28.2539124,16.7810438 28.3456963,16.1261192 28.4374803,15.5647551 C28.4374803,15.4711944 28.4374803,15.0033911 28.8963999,15.0033911 C29.3553196,14.9098304 30.273159,16.7810438 31.0074305,17.0617259 C31.2827823,18.2780145 31.0992144,19.4943033 30.181375,19.5878639 C28.8963999,19.7749853 28.2539124,18.0908933 27.8867766,17.0617259 Z M24.0318512,15.0033911 C24.9496907,15.0033911 24.9496907,16.7810438 25.6839621,17.1552866 C25.6839621,17.6230899 25.4086103,19.6814246 23.9400672,19.6814246 C22.6550922,19.6814246 22.3797404,17.9973326 22.2879564,17.1552866 C23.3893637,16.6874832 23.0222279,15.0033911 24.0318512,15.0033911 Z" id="Shape" fill="#FFFFFF"></path>
        </g>
    </g>
</svg>