<?xml version="1.0" encoding="UTF-8"?>
<svg width="48px" height="48px" viewBox="0 0 48 48" version="1.1" xmlns="http://www.w3.org/2000/svg" xmlns:xlink="http://www.w3.org/1999/xlink">
    <!-- Generator: Sketch 49.1 (51147) - http://www.bohemiancoding.com/sketch -->
    <title>start</title>
    <desc>Created with Sketch.</desc>
    <defs></defs>
    <g id="48px" stroke="none" stroke-width="1" fill="none" fill-rule="evenodd">
        <g id="start" fill-rule="nonzero">
            <circle id="Oval" fill="#01AEF0" cx="24" cy="24" r="24"></circle>
            <path d="M31.603086,28.3358582 C31.5834201,31.4457981 29.7864198,34.0937567 26.9208312,35.1827291 C26.2489862,35.4381614 25.5501834,35.6243997 24.8537009,35.7991632 C24.4374021,35.9035851 24.2108022,36.1087572 24.1778784,36.5647716 C24.1365579,37.1363387 24.0777812,37.707791 23.9974602,38.2748828 C23.9028872,38.9434131 23.6735252,39.0955709 23.0574738,38.9488064 C21.99905,38.6968166 21.8845901,38.5265283 22.0264497,37.4148356 C22.0386029,37.3200525 22.0518608,37.225499 22.0626881,37.1304864 C22.1665418,36.2189166 22.0376085,36.0885612 21.1671156,36.1320513 C20.7746813,36.1516734 20.6110565,36.3444525 20.5747077,36.7293222 C20.5225599,37.2808082 20.4700806,37.8339006 20.3799267,38.3796491 C20.2880052,38.9371019 20.0553287,39.0751455 19.518162,38.9586749 C18.3725675,38.7104717 18.2867225,38.584362 18.4387466,37.371116 C18.6273405,35.866521 18.6229212,35.882586 17.2340438,35.4645537 C16.6177715,35.2791186 16.0213862,35.0205881 15.420471,34.7827124 C15.0544419,34.6376691 14.9342368,34.3657128 15.0332294,33.9586965 C15.1595109,33.4402584 15.2459084,32.9116077 15.3547338,32.3884649 C15.5403447,31.4960583 15.9726633,31.2253644 16.7977478,31.5499907 C18.2576655,32.1244265 19.7584619,32.4779696 21.3195818,32.515722 C22.7276831,32.5498026 24.1217532,32.4573146 25.4069979,31.7657196 C26.25672,31.308443 26.880726,30.6371586 27.1935024,29.6764761 C27.6584135,28.2481896 27.24101,27.092892 25.9024022,26.5186857 C24.8007797,26.0461475 23.617179,25.7822237 22.5059445,25.3303404 C21.5187819,24.9289467 20.4922877,24.5259467 19.6396931,23.8952835 C17.7252497,22.4792753 17.3903766,20.3836059 17.8119785,18.1480569 C18.2874959,15.6263228 19.8311594,13.9913724 22.1219067,13.1247844 C22.7318814,12.894138 23.0091929,12.573069 23.0184735,11.8873263 C23.0286378,11.1448973 23.1467438,10.4029272 23.2365662,9.66325221 C23.3056179,9.09501288 23.5268042,8.93505213 24.0585572,9.02226173 C25.1871375,9.20723786 25.3210424,9.38521427 25.2106703,10.5571505 C25.1676926,11.0138534 25.1292446,11.4712447 25.0762128,11.9266853 C25.0317989,12.3089158 25.152446,12.485171 25.5523931,12.4969901 C26.4657531,12.5239563 26.5050851,12.5074323 26.6126951,11.5627 C26.6818572,10.9552164 26.7334527,10.345323 26.8152098,9.7397901 C26.9058056,9.067473 27.1235669,8.91382348 27.7418279,9.04085114 C28.7843421,9.25497363 28.9006803,9.41378688 28.7990363,10.4994315 C28.7545118,10.9751828 28.7304266,11.4554093 28.648338,11.9242756 C28.5535439,12.4661225 28.7190468,12.7154731 29.2558821,12.8399763 C30.2779571,13.0770487 31.287879,13.3775775 32.2920558,13.6891223 C33.0464315,13.9230964 33.0761513,14.0085848 32.9316399,14.7934711 C32.845353,15.2630259 32.7596184,15.7334987 32.6494673,16.1973161 C32.4423123,17.0695266 32.007342,17.3297784 31.1756286,17.0499045 C29.753717,16.5713993 28.32606,16.1369579 26.8178615,16.0731572 C25.4980356,16.0172741 24.1958871,16.0362078 23.050403,16.8655022 C21.4371353,18.0335369 21.4274129,20.4060968 23.1430979,21.4044171 C24.2361027,22.0404734 25.4967098,22.3650995 26.6808629,22.8331626 C27.4023146,23.1184298 28.1431008,23.3634198 28.8367109,23.7093894 C30.6928194,24.6353028 31.6245197,26.1859124 31.603086,28.3358582" id="Shape" fill="#FFFFFF"></path>
        </g>
    </g>
</svg>