<?xml version="1.0" encoding="UTF-8"?>
<svg width="48px" height="48px" viewBox="0 0 48 48" version="1.1" xmlns="http://www.w3.org/2000/svg" xmlns:xlink="http://www.w3.org/1999/xlink">
    <!-- Generator: Sketch 49.1 (51147) - http://www.bohemiancoding.com/sketch -->
    <title>storj</title>
    <desc>Created with Sketch.</desc>
    <defs></defs>
    <g id="48px" stroke="none" stroke-width="1" fill="none" fill-rule="evenodd">
        <g id="storj" fill-rule="nonzero">
            <circle id="Oval" fill="#2683FF" cx="24" cy="24" r="24"></circle>
            <path d="M37.4662416,28.4569926 C38.771946,29.2428819 39.2170495,30.9019449 38.4757149,32.255595 C37.7037646,33.6090803 35.9524522,34.0893917 34.5730686,33.3325422 C34.4395038,33.2596127 34.3209105,33.1723284 34.2021489,33.085044 L26.8130263,37.2618236 C26.8308021,37.3970085 26.8406869,37.5330794 26.8426327,37.6693707 C26.8426327,37.8295845 26.8426327,37.9751135 26.8130263,38.1351623 C26.5608684,39.6633812 25.0919929,40.7112885 23.5339624,40.4637903 C21.9759318,40.2162921 20.9075823,38.7755226 21.1599085,37.2474687 L13.7263766,33.0414843 C13.6076151,33.1287687 13.4890217,33.2015331 13.3702601,33.2742977 C13.2516668,33.3323772 13.1329052,33.4051416 12.9993405,33.4488663 C11.530297,34.0309821 9.86847615,33.3318822 9.27500475,31.8916077 C8.68153337,30.4513332 9.39393453,28.8208151 10.8629781,28.2386993 L10.8629781,19.8267305 C10.7279001,19.7835021 10.598445,19.7249139 10.4772553,19.6521617 C10.358662,19.5793973 10.2547036,19.5066327 10.1509134,19.4338683 C9.32398627,18.8274995 8.89311444,17.8319939 9.02274687,16.8273018 C9.1523793,15.8226099 9.82251067,14.9637791 10.7773748,14.5785958 C11.7322389,14.1934124 12.8244778,14.3413195 13.6372213,14.9658657 L21.1449372,10.7016367 C21.1301341,10.5707927 21.1153309,10.4543035 21.1153309,10.3232945 C21.1153309,8.78072069 22.4358384,7.5 24.0086722,7.5 C25.5815059,7.5 26.8717342,8.7515159 26.8719025,10.3086096 C26.8719025,10.4394536 26.8570993,10.5559428 26.8422963,10.6869518 L34.4093929,14.9802206 C34.513183,14.9074562 34.6169733,14.8346917 34.7357349,14.7764471 C36.1159596,14.0199276 37.867104,14.514099 38.6383812,15.8679141 C39.4096585,17.2217294 38.905006,18.9390369 37.5256224,19.6958864 C37.3920576,19.7539659 37.2584929,19.8267305 37.1249283,19.870455 L37.1249283,28.2969438 C37.2427927,28.3414533 37.3569142,28.3949672 37.4662416,28.4569926 Z M37.985529,31.9788921 L37.9858654,31.9788921 C38.6082703,30.9456696 38.2526584,29.635744 37.2288867,29.0391084 C36.4008744,28.5602906 35.3503835,28.6728164 34.6472525,29.3156465 L31.2492587,27.3800454 C32.0950563,25.6772579 31.5311913,23.6398527 29.9435544,22.5774254 C29.8545672,22.2565028 29.7210025,21.951585 29.5726347,21.6460071 L34.7062968,18.793838 C35.2410836,19.2890502 35.9919559,19.4909274 36.709431,19.3323939 C37.896542,19.0705409 38.6234099,17.9063094 38.3564487,16.7419128 C38.0894876,15.5775162 36.9025448,14.8645565 35.7154336,15.1264095 C34.5283227,15.3882627 33.8012867,16.5526592 34.068416,17.7168908 L28.8753731,20.6129496 C27.8664045,19.4341983 24.6615245,18.648309 24.6615245,18.648309 L24.6615245,12.2298556 C25.3174792,12.0376255 25.8306294,11.534294 26.0266095,10.8908903 C26.3529514,9.82846307 25.744677,8.70779123 24.6615245,8.38769355 C23.5783718,8.06759588 22.4349973,8.64971165 22.1086554,9.71213892 C21.7823134,10.7745662 22.3905879,11.8952381 23.4737404,12.2153357 L23.4737404,18.7643031 C23.4737404,18.7643031 21.7242783,19.3318991 21.0414834,19.884645 C20.3154708,19.9012239 19.6037131,20.0857509 18.9641653,20.4232011 L14.0826613,17.6726711 C14.2460005,16.9740662 14.0532232,16.2464214 13.5485707,15.7225502 C12.7177444,14.8493766 11.3526593,14.8058169 10.4624522,15.6207459 C10.0357175,16.0096241 9.78478629,16.5494219 9.76530211,17.1204396 C9.74581792,17.6914574 9.95939109,18.2465042 10.358662,18.6624989 C11.1894883,19.5356726 12.5700494,19.5792323 13.4447805,18.7643031 L17.8520794,21.2384601 C16.2494712,22.8102387 16.0417225,25.2843957 17.3474268,27.0889876 L13.4748914,29.2866066 C12.9251566,28.7917752 12.1685142,28.5881667 11.4562813,28.7627354 C10.272746,29.0403477 9.54266437,30.2063988 9.82550541,31.3673319 C10.1083464,32.5282649 11.297029,33.2445609 12.4806536,32.9673152 C13.6642782,32.6900693 14.394735,31.5242444 14.1122676,30.3632238 L18.2519323,28.0202407 C19.3162905,28.8642122 20.7081667,29.2002024 22.0502839,28.9371392 C22.4642976,29.1248753 22.8906085,29.2853346 23.3263819,29.4174507 L23.3263819,35.5299962 C22.7334153,35.7192498 22.2289309,36.1266318 21.9469983,36.6797079 C21.3831333,37.7856948 21.8282368,39.1536999 22.9707702,39.7067759 C23.0597572,39.7505006 23.1489124,39.7942253 23.2527027,39.823265 C23.267674,39.823265 23.2824772,39.837785 23.2972803,39.837785 C24.5139977,40.2007823 25.8057399,39.5460671 26.1758184,38.3527958 C26.5458971,37.1595243 25.8785781,35.8933236 24.6618607,35.5295012 L24.6618607,29.5334448 C24.6618607,29.5334448 25.7742832,29.4314756 26.2935706,29.2714268 C27.7416482,29.8414159 29.3970323,29.5031702 30.4926164,28.4134329 L33.9646258,30.4072785 C33.742074,31.3240118 34.1575713,32.2699499 34.9883976,32.7502614 C36.0269725,33.3468971 37.3772545,32.9975946 37.985529,31.9788921 Z M11.9755687,29.9414868 L11.9755687,29.9416518 C12.3050452,29.9429562 12.6094718,30.1143558 12.7767888,30.3927585 C12.8509727,30.5382875 12.8955503,30.6838164 12.8955503,30.8438654 C12.8955503,31.3422351 12.4836605,31.7462438 11.9755687,31.7462438 C11.4674769,31.7462438 11.0555871,31.3422351 11.0555871,30.8438654 C11.0555871,30.3454955 11.4674769,29.9414868 11.9755687,29.9414868 Z M24.9730632,10.3087746 C24.9702141,10.8059823 24.5599885,11.2083584 24.0530817,11.211153 C23.5449899,11.211153 23.1331,10.8071444 23.1331,10.3087746 C23.1331,9.81040473 23.5449899,9.40639614 24.0530817,9.40639614 C24.5611734,9.40639614 24.9730632,9.81040473 24.9730632,10.3087746 Z M36.1909846,18.1386276 C35.857456,18.1377254 35.5506891,17.9593856 35.3897646,17.6728361 C35.3125032,17.5397686 35.2715946,17.3893821 35.271003,17.2362492 C35.271003,16.7378793 35.6828928,16.3338708 36.1909846,16.3338708 C36.6990763,16.3338708 37.1109661,16.7378793 37.1109661,17.2362492 C37.1109661,17.7346191 36.6990763,18.1386276 36.1909846,18.1386276 Z M12.405028,16.4066352 C12.8501316,16.6539684 12.9986677,17.2070445 12.7463414,17.6291113 C12.4941833,18.0656982 11.9451214,18.2112271 11.5000178,17.9638939 C11.0549143,17.7165607 10.9065464,17.1780047 11.1587045,16.7414178 C11.4108625,16.304831 11.9599245,16.159137 12.405028,16.4066352 Z M36.5610632,30.1160556 C37.0061667,30.3633888 37.1547027,30.9164647 36.9023764,31.3385317 C36.7235613,31.6150696 36.4274985,31.7896384 36.1011564,31.7896384 C35.7695442,31.794037 35.4611849,31.6230289 35.2940706,31.3420495 C35.1269565,31.0610703 35.1269565,30.7136146 35.2940706,30.4326354 C35.4611849,30.151656 35.7695442,29.9806479 36.1011564,29.9850465 C36.2643274,29.9995663 36.4274985,30.0287712 36.5610632,30.1160556 Z M23.1331,37.6400009 L23.1331,37.6398359 C23.1346644,37.6288287 23.1398643,37.618628 23.1479032,37.6107962 C23.2257592,37.1243396 23.6886973,36.7902738 24.1853388,36.8621609 C24.6819802,36.9340478 25.0268082,37.3850348 24.9580918,37.8728142 C24.8708728,38.3198925 24.4725729,38.6434397 24.008504,38.6441835 C23.9195169,38.6441835 23.8155585,38.6149788 23.7265714,38.585939 C23.3408487,38.44041 23.0885224,38.0475479 23.1331,37.6400009 Z M28.4154664,23.7126171 L28.4149619,23.7131121 C29.3206449,23.9896502 29.9289194,24.8192642 29.9289194,25.7797221 C29.9289194,25.8524865 29.9141163,25.9252511 29.9141163,25.9980155 C29.8993131,26.0560952 29.8993131,26.1143397 29.88451,26.1725843 L29.88451,26.216309 C29.8547355,26.3471529 29.8251292,26.478162 29.7657484,26.6091711 C29.6025774,27.0021982 29.3206449,27.3515007 28.9497252,27.5843141 C28.86057,27.6280386 28.786386,27.6715983 28.697399,27.715323 L28.6528214,27.7298429 C28.5664002,27.7700576 28.4771235,27.8040813 28.3856919,27.8316473 C28.2929823,27.8565576 28.1988366,27.8760072 28.1037594,27.8898918 L28.0295754,27.9044117 C27.9257853,27.9044117 27.83663,27.9189315 27.7328397,27.9189315 C27.2489558,27.9185237 26.7790422,27.7597731 26.3975292,27.4678248 L25.996835,27.6423936 C25.8741114,27.7011467 25.7445981,27.7451352 25.6111122,27.7734026 L25.5963092,27.7734026 C24.6781059,28.0193822 23.6993923,27.9207833 22.8513357,27.4968646 L22.8368689,27.4968646 C22.7477137,27.45314 22.6587267,27.4095803 22.5845427,27.3658556 L22.5549364,27.3513357 C22.4657811,27.2932562 22.3915972,27.2350115 22.3026102,27.1767669 C21.9464937,27.3368159 21.5607709,27.4095803 21.1600768,27.4095803 C21.0414834,27.4095803 20.937525,27.4095803 20.8337349,27.3950604 L20.7743541,27.3805404 L20.5072246,27.3368159 L20.4776184,27.3222959 C20.381943,27.3048807 20.2877092,27.2805599 20.1956857,27.2495314 C19.9583308,27.1769319 19.7357791,27.0604428 19.5132273,26.9294337 C19.0643887,26.6505288 18.7124374,26.2445537 18.5039223,25.7652023 C18.5039223,25.7361624 18.4891191,25.7214776 18.474316,25.6924377 C18.4571046,25.6429524 18.4372843,25.5943773 18.4149352,25.5469088 C18.3973932,25.5141657 18.3824886,25.4801271 18.3703575,25.4451045 C18.3553861,25.4013798 18.3257799,25.3578201 18.3257799,25.3140956 C18.3230485,25.2691632 18.3130552,25.2249422 18.2961737,25.1830865 C18.2813704,25.1393618 18.2813704,25.1246769 18.2665674,25.0665974 C18.2517642,25.0085177 18.2517642,24.9502731 18.236961,24.8920286 C18.236961,24.8484689 18.2221579,24.8192642 18.2221579,24.7902243 C18.2098323,24.6985689 18.2048826,24.6061038 18.2073548,24.5136862 C18.2048771,24.4018953 18.2098218,24.2900646 18.2221579,24.1789038 C18.2221579,24.1353441 18.236961,24.1061393 18.236961,24.0770996 C18.2519323,23.9898152 18.2667355,23.9170506 18.2815387,23.8442862 C18.2963418,23.8152464 18.2963418,23.7715217 18.311145,23.742482 C18.3290704,23.6629475 18.3538885,23.58506 18.3853289,23.5096686 C18.400132,23.4806288 18.400132,23.4659439 18.4149352,23.4369042 C18.4482771,23.3469681 18.4879602,23.2594172 18.5336967,23.174886 L18.5495092,23.1451863 C18.7120072,22.8542934 18.9195877,22.5775904 19.171914,22.359297 C19.6763983,21.9080253 20.3292505,21.6314873 21.011709,21.6024474 C21.0562866,21.5879276 21.100696,21.5879276 21.1600768,21.5879276 C21.3390318,21.5880275 21.5176716,21.6026523 21.6941675,21.6316523 C21.7683513,21.5442029 21.8425353,21.4714385 21.9315223,21.3841541 L22.0057062,21.3113897 C22.0948615,21.2386251 22.1690454,21.1658607 22.2580326,21.107616 L22.3026102,21.0785763 C22.361991,21.0348516 22.4659494,20.9620871 22.5103588,20.9330474 C22.5547683,20.9040075 22.6289521,20.845763 22.6735298,20.8312431 C22.7257773,20.812902 22.77559,20.7884723 22.8218976,20.7584786 C22.9108846,20.7147539 23.0592525,20.6419895 23.1482395,20.6129496 L23.2224235,20.5547051 C23.8156254,20.3235899 24.4600548,20.2483454 25.0919929,20.3364117 L25.1067962,20.3364117 C25.2265956,20.3487278 25.3455205,20.3681784 25.4629126,20.3946563 L25.4777157,20.3946563 C25.5964773,20.4091761 25.7002675,20.4529008 25.8190291,20.4819407 L25.8338322,20.4964605 C25.9524257,20.5401852 26.0563841,20.5837449 26.1601742,20.6274696 L26.1897806,20.6419895 C26.2915713,20.6846333 26.3906613,20.7332303 26.4865163,20.7875184 L26.5013193,20.8020383 C26.5903064,20.845598 26.6942649,20.9183625 26.783252,20.9766071 L26.798055,20.9911269 C26.9020134,21.0493715 26.9910005,21.122136 27.0799876,21.1949004 L27.0947907,21.2094204 C27.1987491,21.2968697 27.2729331,21.3696342 27.3619202,21.4569186 C27.7313091,21.8328666 28.0190514,22.2784502 28.2077178,22.766679 L28.2077178,22.7811989 C28.237324,22.8684833 28.2670986,22.9704525 28.2967048,23.0577369 C28.2967048,23.0867768 28.3115081,23.1159815 28.3115081,23.1450213 C28.3365302,23.2212519 28.3563673,23.2990272 28.3708889,23.3778345 C28.3858602,23.4943238 28.4006633,23.596128 28.4154664,23.7126171 Z" id="Shape" fill="#FFFFFF"></path>
        </g>
    </g>
</svg>