<?xml version="1.0" encoding="UTF-8"?>
<svg width="48px" height="48px" viewBox="0 0 48 48" version="1.1" xmlns="http://www.w3.org/2000/svg" xmlns:xlink="http://www.w3.org/1999/xlink">
    <!-- Generator: Sketch 49.1 (51147) - http://www.bohemiancoding.com/sketch -->
    <title>strat</title>
    <desc>Created with Sketch.</desc>
    <defs></defs>
    <g id="48px" stroke="none" stroke-width="1" fill="none" fill-rule="evenodd">
        <g id="strat" fill-rule="nonzero">
            <circle id="Oval" fill="#1387C9" cx="24" cy="24" r="24"></circle>
            <path d="M24.0793134,27.559957 L38.4699803,19.1836656 L24.0793397,10.6576739 L9.83267202,19.183681 L24.0793134,27.559957 Z M9.07061149,23.1804873 C9.07061149,23.5863724 9.28543068,23.9614794 9.63426639,24.1647141 L24.0743128,32.5776144 L38.7518266,23.894863 C38.9213812,23.7945598 39.114453,23.741676 39.3110914,23.741676 C39.9209638,23.741676 40.4153629,24.2396217 40.4153629,24.853869 L40.4153629,28.793335 C40.4153629,29.1861444 40.2096321,29.5498218 39.8741233,29.7501025 L24.6391279,38.8445745 C24.2942403,39.0504538 23.865655,39.0518932 23.5194118,38.848335 L7.88951424,29.659434 C7.51497579,29.4392407 7.38858287,28.9549375 7.60720771,28.5777123 C7.82583258,28.2004872 8.30668644,28.0731876 8.68122487,28.2933807 L24.0742924,37.3430479 L38.8448791,28.5258031 L38.8448791,25.6742269 L24.6353692,34.0801221 C24.2923638,34.2830332 23.8675092,34.2844537 23.5231737,34.0838407 L8.84789392,25.5338916 C8.01378601,25.0479328 7.50012762,24.1510074 7.50012762,23.1804873 L7.50012762,19.4695338 C7.50012762,19.4198278 7.50391171,19.3710121 7.51120558,19.323363 C7.58102655,18.8672382 7.9724614,18.5179998 8.4448843,18.5179998 C8.61225982,18.5179998 8.77663083,18.5627844 8.92117942,18.6477714 L9.83267202,19.183681 L8.68648747,19.8696223 C8.31366076,20.0927428 7.8318384,19.9692139 7.61030709,19.5937126 C7.55965341,19.5078534 7.52699415,19.4162547 7.51120558,19.323363 C7.45794363,19.0099972 7.59667269,18.6819157 7.88425164,18.5098123 L23.5140618,9.1560549 C23.8602462,8.94887874 24.2909563,8.94792312 24.6380434,9.15356113 L39.9554415,18.2286268 C40.1197555,18.3259776 40.2562485,18.4645134 40.3516363,18.6307518 C40.6567975,19.1625747 40.4761227,19.8428587 39.9480877,20.150209 L24.630679,29.0659237 C24.2873167,29.2657827 23.8639144,29.2648513 23.5214221,29.0634838 L8.12942658,20.0137998 C8.22516337,20.070088 8.33402887,20.0997496 8.4448843,20.0997496 C8.72583066,20.0997496 8.96353153,19.9132654 9.0426178,19.6564939 C9.06081202,19.5974223 9.07061149,19.5346306 9.07061149,19.4695338 L9.07061149,23.1804873 Z" id="Shape" fill="#FFFFFF"></path>
        </g>
    </g>
</svg>