<?xml version="1.0" encoding="UTF-8"?>
<svg width="48px" height="48px" viewBox="0 0 48 48" version="1.1" xmlns="http://www.w3.org/2000/svg" xmlns:xlink="http://www.w3.org/1999/xlink">
    <!-- Generator: Sketch 49.1 (51147) - http://www.bohemiancoding.com/sketch -->
    <title>sub</title>
    <desc>Created with Sketch.</desc>
    <defs></defs>
    <g id="48px" stroke="none" stroke-width="1" fill="none" fill-rule="evenodd">
        <g id="sub" fill-rule="nonzero">
            <circle id="Oval" fill="#E53431" cx="24" cy="24" r="24"></circle>
            <path d="M18.1752,7.9704 C18.239816,7.92078875 18.319348,7.89456006 18.4008,7.896 C18.482088,7.89561839 18.5612863,7.92173697 18.6264,7.9704 L20.5104,9.384 C20.6175796,9.46459911 20.6736187,9.59625545 20.6574076,9.72937533 C20.6411965,9.86249523 20.5551984,9.97685459 20.4318076,10.0293753 C20.3084169,10.0818961 20.1663796,10.0645991 20.0592,9.984 L18.4008,8.7432 L13.0032,12.7896 L36.7056,30.5688 C36.8007827,30.640187 36.8568,30.7522218 36.8568,30.8712 C36.8568,30.9901782 36.8007827,31.102213 36.7056,31.1736 L34.9632,32.4792 C34.8980864,32.527863 34.818888,32.5539816 34.7376,32.5536 C34.5756501,32.5538073 34.4317791,32.4502506 34.380566,32.2966113 C34.3293528,32.1429721 34.3823157,31.9738041 34.512,31.8768 L35.8536,30.8712 L12.1512,13.092 C12.0552282,13.0212745 11.9989974,12.9088127 12,12.7896 C12.0012394,12.6722507 12.0571536,12.5621974 12.1512,12.492 L18.1752,7.9704 Z M24.2016,7.9704 C24.3336762,7.86887601 24.5172456,7.86789435 24.6504,7.968 L36.7032,17.0088 C36.8330684,17.1046845 36.8855637,17.2738365 36.8328,17.4264 C36.7832738,17.5807841 36.6397337,17.6855295 36.4776,17.6856 L30.4512,17.6856 C30.3697325,17.6847234 30.290681,17.6578124 30.2256,17.6088 L22.3176,11.6784 C22.2099916,11.5978009 22.1535564,11.4659158 22.1695532,11.3324247 C22.1855497,11.1989335 22.2715481,11.0841167 22.3951531,11.0312247 C22.5187583,10.9783326 22.6611916,10.9954009 22.7688,11.076 L30.5784,16.932 L35.3472,16.932 L24.4272,8.7432 L16.8672,14.412 C16.7008518,14.5365954 16.4649954,14.5027482 16.3404,14.3364 C16.2158046,14.1700518 16.2496518,13.9341954 16.416,13.8096 L24.2016,7.9704 Z M13.8144,15.7632 C13.8784367,15.7125039 13.9583683,15.6861435 14.04,15.6888 C14.1581598,15.6894402 14.269195,15.7454019 14.34,15.84 C14.4004016,15.919358 14.4265278,16.0195901 14.4125501,16.1183354 C14.3985725,16.2170808 14.3456539,16.3061239 14.2656,16.3656 L13.0032,17.3112 L36.7056,35.0928 C36.8011432,35.1638855 36.8572576,35.2761143 36.8568,35.3952 C36.8572287,35.5136145 36.8010385,35.6251026 36.7056,35.6952 L30.6792,40.2144 C30.6142611,40.2633977 30.5349465,40.2895545 30.4536,40.2888 C30.3723724,40.2888027 30.2932905,40.2627225 30.228,40.2144 L28.4856,38.9064 C28.3779916,38.8253721 28.3217851,38.693091 28.3381531,38.5593855 C28.3545211,38.4256799 28.4409768,38.3108631 28.5649531,38.2581855 C28.6889295,38.2055078 28.8315916,38.2229721 28.9392,38.304 L30.4536,39.4392 L35.8536,35.3904 L12.1488,17.6112 C12.0548397,17.5401168 11.9997351,17.4290189 12,17.3112 C11.9996931,17.1927027 12.0547283,17.080857 12.1488,17.0088 L13.8144,15.7632 Z M12.3768,30.492 L12.3768,30.4944 L18.3984,30.4944 C18.4802412,30.4929975 18.5600137,30.5201541 18.624,30.5712 L26.448,36.4368 C26.6143482,36.5613954 26.6481954,36.7972518 26.5236,36.9636 C26.3990046,37.1299482 26.1631482,37.1637954 25.9968,37.0392 L18.2784,31.248 L13.5072,31.248 L24.4296,39.4392 L31.9728,33.78 C32.1391482,33.6547419 32.3755417,33.6880518 32.5008,33.8544 C32.6260581,34.0207482 32.5927482,34.2571417 32.4264,34.3824 L24.6552,40.2096 C24.5900863,40.258263 24.510888,40.2843816 24.4296,40.284 C24.3482535,40.2847545 24.2689389,40.2585976 24.204,40.2096 L12.1488,31.1712 C12.0208111,31.0718428 11.9689584,30.9028414 12.0192,30.7488 C12.0708589,30.5952694 12.2148116,30.4918941 12.3768,30.492 Z" id="Shape" fill="#FFFFFF"></path>
        </g>
    </g>
</svg>