<?xml version="1.0" encoding="UTF-8"?>
<svg width="48px" height="48px" viewBox="0 0 48 48" version="1.1" xmlns="http://www.w3.org/2000/svg" xmlns:xlink="http://www.w3.org/1999/xlink">
    <!-- Generator: Sketch 49.1 (51147) - http://www.bohemiancoding.com/sketch -->
    <title>sys</title>
    <desc>Created with Sketch.</desc>
    <defs></defs>
    <g id="48px" stroke="none" stroke-width="1" fill="none" fill-rule="evenodd">
        <g id="sys" fill-rule="nonzero">
            <circle id="Oval" fill="#0082C6" cx="24" cy="24" r="24"></circle>
            <path d="M27.06879,22.6539018 C27.0034773,22.6417109 26.9381646,22.6660929 26.8982513,22.7165985 C26.8401956,22.7897446 26.8565237,22.8942391 26.9327219,22.9499695 C33.5002772,27.7166608 24.1514892,38.6311124 6,27.0165475 C21.3902132,41.4994866 42.8200373,25.5013771 27.06879,22.6539018 Z M18.3023736,16.2832199 C4.67378925,20.6423825 20.2871541,30.9263838 21.6423928,25.7312652 C21.6659779,25.6424448 21.6115506,25.5501413 21.51721,25.5275009 C21.4863679,25.5187929 21.4518973,25.5205346 21.4210552,25.5292424 C19.4163181,26.1805916 8.36939979,23.0927787 18.3023736,16.2832199 Z M42,18.902549 C30.2001714,10.4872577 8.0573502,17.4274347 19.4798166,23.3679477 C19.5650859,23.411487 19.6703119,23.3801387 19.715668,23.2982847 C19.7410674,23.2530036 19.7428816,23.1972732 19.7211106,23.1502508 C15.0748374,13.3364747 38.6708662,16.3215345 42,18.902549 Z M32.208537,31.1301482 C38.4459003,28.2931222 33.3732803,18.5873238 25.1221086,20.4612586 C25.027768,20.480416 24.9352416,20.422944 24.915285,20.3341237 C24.900771,20.2731685 24.9243563,20.2104718 24.9751549,20.1704157 C31.3957567,15.3445108 43.4459506,26.6072775 32.208537,31.1301482 Z" id="Shape" fill="#FFFFFF"></path>
        </g>
    </g>
</svg>