<?xml version="1.0" encoding="UTF-8"?>
<svg width="48px" height="48px" viewBox="0 0 48 48" version="1.1" xmlns="http://www.w3.org/2000/svg" xmlns:xlink="http://www.w3.org/1999/xlink">
    <!-- Generator: Sketch 49.1 (51147) - http://www.bohemiancoding.com/sketch -->
    <title>taas</title>
    <desc>Created with Sketch.</desc>
    <defs></defs>
    <g id="48px" stroke="none" stroke-width="1" fill="none" fill-rule="evenodd">
        <g id="taas" fill-rule="nonzero">
            <circle id="Oval" fill="#002342" cx="24" cy="24" r="24"></circle>
            <path d="M6,19.5 L7.94707521,19.5 L7.94707521,21.331441 L6,21.331441 L6,19.5 Z M7.94707521,26.6606987 L13.6128134,26.6606987 L13.6128134,28.5 L6,28.5 L6,23.1628821 L11.7158774,23.1628821 L11.7158774,24.9943231 L7.94707521,24.9943231 L7.94707521,26.6606987 Z M34.3871866,23.1628821 L42,23.1628821 L42,28.5 L36.2841225,28.5 L36.2841225,26.6606987 L40.0529248,26.6606987 L40.0529248,24.9943231 L34.3871866,24.9943231 L34.3871866,23.1628821 Z M40.0847883,21.419759 L34.3856239,21.419759 L34.3856239,19.5883179 L40.0847883,19.5883179 L40.0847883,21.419759 Z M15.4679665,23.1628821 L23.0807799,23.1628821 L23.0807799,26.7393013 L21.183844,26.7393013 L21.183844,28.5 L15.4679665,28.5 L15.4679665,23.1628821 Z M21.1337047,26.6606987 L21.1337047,24.9943232 L17.4150419,24.9943232 L17.4150419,26.6606987 L21.1337047,26.6606987 Z M15.4679665,19.5 L23.0807799,19.5 L23.0807799,21.331441 L15.4679665,21.331441 L15.4679665,19.5 Z M24.9693594,23.1628821 L32.5821727,23.1628821 L32.5821727,26.7393013 L30.6852368,26.7393013 L30.6852368,28.5 L24.9693594,28.5 L24.9693594,23.1628821 Z M30.6267409,26.6606987 L30.6267409,24.9943232 L26.908078,24.9943232 L26.908078,26.6606987 L30.6267409,26.6606987 Z M24.9693594,19.5 L32.5821727,19.5 L32.5821727,21.331441 L24.9693594,21.331441 L24.9693594,19.5 Z" id="Shape" fill="#FFFFFF"></path>
        </g>
    </g>
</svg>