<?xml version="1.0" encoding="UTF-8"?>
<svg width="48px" height="48px" viewBox="0 0 48 48" version="1.1" xmlns="http://www.w3.org/2000/svg" xmlns:xlink="http://www.w3.org/1999/xlink">
    <!-- Generator: Sketch 49.1 (51147) - http://www.bohemiancoding.com/sketch -->
    <title>tau</title>
    <desc>Created with Sketch.</desc>
    <defs></defs>
    <g id="48px" stroke="none" stroke-width="1" fill="none" fill-rule="evenodd">
        <g id="tau" fill-rule="nonzero">
            <circle id="Oval" fill="#7B346E" cx="24" cy="24" r="24"></circle>
            <path d="M12.1411229,20.5174508 L15.3050076,23.6813354 L9,23.6813354 L12.1411229,20.5174508 Z M15.3050076,24.3414264 L12.1411229,27.4825492 L9,24.3414264 L15.3050076,24.3414264 Z M19.5842185,20.0622155 L16.4203338,23.2033385 L16.4203338,16.8983309 L19.5842185,20.0622155 Z M15.7602427,23.2033385 L12.6191199,20.0622155 L15.7602427,16.8983309 L15.7602427,23.2033385 Z M20.0394537,19.5842186 L16.8983309,16.4430956 L23.2033385,16.4430956 L20.0394537,19.5842186 Z M20.0394537,12.6191199 L23.2033385,15.7830045 L16.8983309,15.7830045 L20.0394537,12.6191199 Z M27.4825493,12.1638847 L24.3186647,15.3050076 L24.3186647,9 L27.4825493,12.1638847 Z M23.6585736,15.3050076 L20.5174508,12.1638847 L23.6585736,9 L23.6585736,15.3050076 Z M19.5842186,27.9605463 L16.4203338,31.1016691 L16.4203338,24.7966615 L19.5842186,27.9605463 Z M12.6191199,27.9605463 L15.7602427,24.7966615 L15.7602427,31.1016691 L12.6191199,27.9605463 Z M27.9377845,19.5842186 L24.7966615,16.4430956 L31.1016691,16.4430956 L27.9377845,19.5842186 Z M24.7966615,15.7830045 L27.9377845,12.6191199 L31.1016691,15.7830045 L24.7966615,15.7830045 Z M23.2033385,32.2397573 L20.0394537,35.3808801 L16.8983309,32.2397573 L23.2033385,32.2397573 Z M20.0394537,28.4157815 L23.2033385,31.5796662 L16.8983309,31.5796662 L20.0394537,28.4157815 Z M35.3808801,20.0622154 L32.2169955,23.2033384 L32.2169955,16.8983309 L35.3808801,20.0622154 Z M28.4157814,20.0622154 L31.5569044,16.8983309 L31.5569044,23.2033384 L28.4157814,20.0622154 Z M20.5174508,35.8588771 L23.6585736,32.6949924 L23.6585736,39 L20.5174508,35.8588771 Z M24.3186647,32.6949924 L27.4825493,35.8588771 L24.3186647,39 L24.3186647,32.6949924 Z M27.9377845,35.3808801 L24.7966615,32.2397573 L31.1016691,32.2397573 L27.9377845,35.3808801 Z M27.9377845,28.4157815 L31.1016691,31.5796662 L24.7966615,31.5796662 L27.9377845,28.4157815 Z M32.2169955,24.7966615 L35.3808801,27.9605463 L32.2169955,31.1016691 L32.2169955,24.7966615 Z M28.4157814,27.9605463 L31.5569044,24.7966615 L31.5569044,31.1016691 L28.4157814,27.9605463 Z M35.8361154,27.4825492 L32.6949924,24.3414264 L39,24.3414264 L35.8361154,27.4825492 Z M35.8361154,20.5174508 L39,23.6813354 L32.6949924,23.6813354 L35.8361154,20.5174508 Z" id="Shape" fill="#FFFFFF"></path>
        </g>
    </g>
</svg>