<?xml version="1.0" encoding="UTF-8"?>
<svg width="48px" height="48px" viewBox="0 0 48 48" version="1.1" xmlns="http://www.w3.org/2000/svg" xmlns:xlink="http://www.w3.org/1999/xlink">
    <!-- Generator: Sketch 49.1 (51147) - http://www.bohemiancoding.com/sketch -->
    <title>tkn</title>
    <desc>Created with Sketch.</desc>
    <defs></defs>
    <g id="48px" stroke="none" stroke-width="1" fill="none" fill-rule="evenodd">
        <g id="tkn" fill-rule="nonzero">
            <circle id="Oval" fill="#24DD7B" cx="24" cy="24" r="24"></circle>
            <path d="M19.6376147,11.8691017 L26.2431192,9 L26.1880734,16.5787592 L34.5,16.5787592 L34.5,21.8297567 L26.1330275,21.8297567 L26.1330275,30.9242676 C26.1330275,33.6851013 30.8119266,34.0099053 32.5733945,33.0896274 L34.1697248,37.8534189 C30.2614679,40.1270466 19.5825689,39.5857067 19.5825689,30.9784017 L19.5825689,11.8691017 L19.6376147,11.8691017 Z M13.4724771,23.2372404 C11.8308233,23.2372404 10.5,21.6376239 10.5,19.6643969 C10.5,17.6911698 11.8308233,16.0915533 13.4724771,16.0915533 C15.1141308,16.0915533 16.4449542,17.6911698 16.4449542,19.6643969 C16.4449542,21.6376239 15.1141308,23.2372404 13.4724771,23.2372404 Z" id="Shape" fill="#FFFFFF"></path>
        </g>
    </g>
</svg>