<?xml version="1.0" encoding="UTF-8"?>
<svg width="48px" height="48px" viewBox="0 0 48 48" version="1.1" xmlns="http://www.w3.org/2000/svg" xmlns:xlink="http://www.w3.org/1999/xlink">
    <!-- Generator: Sketch 49.1 (51147) - http://www.bohemiancoding.com/sketch -->
    <title>trx</title>
    <desc>Created with Sketch.</desc>
    <defs></defs>
    <g id="48px" stroke="none" stroke-width="1" fill="none" fill-rule="evenodd">
        <g id="trx" fill-rule="nonzero">
            <circle id="Oval" fill="#000000" cx="24" cy="24" r="24"></circle>
            <path d="M37.1180697,18.3985959 C35.9190008,17.5480011 34.6367594,16.6411686 33.382242,15.741366 C33.354518,15.7202769 33.3267938,15.6991876 33.2921387,15.6780985 C33.153518,15.5726529 32.9941041,15.4601776 32.8000352,15.3969102 L32.7861731,15.3898806 C29.4315524,14.5674046 26.0214833,13.7238396 22.7223107,12.9083934 C19.7281037,12.1702739 16.7408277,11.4321545 13.7466207,10.6940351 C13.6703794,10.672946 13.594138,10.6518569 13.5109656,10.6307677 C13.2406552,10.5534409 12.9287586,10.4690844 12.596069,10.5112627 C12.4990345,10.5253221 12.4158621,10.5604707 12.3396207,10.6096786 L12.2564483,10.6799757 C12.1247586,10.8065104 12.0554483,10.9681938 12.0207931,11.05958 L12,11.1158176 L12,11.4391842 L12.0138621,11.4883922 C13.9060346,16.8661194 15.8467242,22.3211733 17.7181037,27.6004845 C19.1597589,31.6636561 20.6568624,35.8744516 22.1193107,40.0079203 C22.2094142,40.2891087 22.4658624,40.4718811 22.78469,40.5 L22.8540003,40.5 C23.1520349,40.5 23.4154142,40.3523761 23.5471038,40.113366 L29.0364833,31.9940524 C30.3741731,30.0187044 31.7118627,28.0363264 33.0495524,26.0609784 C33.5971041,25.2525618 34.1446559,24.4371156 34.6922076,23.6286991 C35.5932422,22.2930544 36.5220008,20.9152315 37.4438285,19.5725572 L37.4923457,19.50226 L37.4923457,19.4179036 C37.5131388,19.1718637 37.5200699,18.6657247 37.1180697,18.3985959 M30.6860696,21.3581032 C29.3968971,22.0399849 28.0800005,22.7429559 26.7561729,23.4388969 C27.5255178,22.6023616 28.3017936,21.7587966 29.0711385,20.9222613 C30.0345524,19.867805 31.0395524,18.7782001 32.0237592,17.7096845 L32.0445524,17.6885952 C32.1277248,17.5761199 32.2316902,17.4706743 32.3425869,17.3581989 C32.4188283,17.2808721 32.5020006,17.2035453 32.578242,17.1121591 C33.0911387,17.4706743 33.6109662,17.8362192 34.1100008,18.1947344 C34.4704145,18.4548334 34.8377594,18.7149327 35.2120353,18.975032 C33.6872076,19.7623593 32.1623799,20.5707759 30.6860696,21.3581032 M27.373035,21.0206772 C26.381897,22.110282 25.356104,23.2280058 24.3372417,24.3316699 C22.361897,21.8993908 20.3449658,19.431963 18.390414,17.0488919 C17.5032416,15.9663166 16.6091381,14.8767118 15.7219656,13.7941366 L15.7150346,13.7871069 C15.5140346,13.5551266 15.3199656,13.302057 15.1258967,13.0630469 C15.0011381,12.9013637 14.8694484,12.74671 14.7377587,12.5850268 C15.5417588,12.795918 16.3526898,12.9927499 17.1497588,13.182552 C17.8497933,13.351265 18.5775519,13.5270077 19.2914486,13.7097801 C23.3114487,14.7009691 27.3383798,15.692158 31.3583799,16.6833469 C30.0206903,18.1314669 28.6760696,19.6006761 27.373035,21.0206772 M23.8867245,34.7215794 C23.9629659,33.98346 24.0461384,33.2242515 24.1154487,32.4791023 C24.177828,31.8815772 24.2402073,31.2699925 24.3025866,30.6865266 C24.3996212,29.7515754 24.5035866,28.7814756 24.5867591,27.8324649 L24.6075522,27.6637519 C24.6768626,27.0591969 24.7461728,26.4335529 24.7877591,25.8079087 C24.8640005,25.7657306 24.9471729,25.7235523 25.0372763,25.6884037 C25.1412419,25.6391958 25.2452073,25.5970176 25.3491729,25.5337501 C26.9502419,24.6831555 28.551311,23.8325607 30.159311,22.9889956 C31.7603799,22.1454306 33.4030352,21.2737467 35.0318283,20.4090925 C33.5485869,22.5883023 32.0584145,24.788601 30.6167592,26.9326621 C29.376104,28.7674163 28.1007936,30.6584077 26.8324143,32.5212807 C26.3333798,33.2664297 25.8135522,34.0256384 25.3214487,34.756728 C24.7669659,35.5721742 24.1986212,36.4087095 23.6441384,37.2452448 C23.7134487,36.4016799 23.796621,35.5510851 23.8867245,34.7215794 M14.2248621,14.244038 C14.1347587,13.9909685 14.0377242,13.7308693 13.9545518,13.4848295 C15.8259312,15.7765144 17.7111726,18.0822589 19.5478968,20.3177062 C20.4974486,21.4776082 21.4470003,22.6304805 22.3965521,23.7974121 C22.58369,24.0153331 22.770828,24.2473136 22.9510349,24.4722642 C23.18669,24.7604822 23.4223452,25.0627597 23.6787935,25.3509777 C23.595621,26.0750377 23.5263107,26.8061274 23.4500694,27.5090983 C23.4015521,28.001178 23.3530349,28.4932575 23.2975866,28.9923669 L23.2975866,28.9993965 C23.2767935,29.3157334 23.2352073,29.6320704 23.2005521,29.9413776 C23.1520349,30.3701898 23.0411384,31.3402896 23.0411384,31.3402896 L23.0342073,31.3894975 C22.9094487,32.8094986 22.7569659,34.2435592 22.6114142,35.6354417 C22.5490349,36.2118777 22.4935866,36.8023732 22.4312073,37.3928688 C22.3965521,37.2874231 22.3549659,37.1819775 22.3203107,37.0835616 C22.2163452,36.8023732 22.1123796,36.5071254 22.0153452,36.2189075 L21.2737245,34.1310838 C18.9241037,27.5020686 16.574483,20.8800829 14.2248621,14.244038" id="Shape" fill="#FFFFFF"></path>
        </g>
    </g>
</svg>