<?xml version="1.0" encoding="UTF-8"?>
<svg width="48px" height="48px" viewBox="0 0 48 48" version="1.1" xmlns="http://www.w3.org/2000/svg" xmlns:xlink="http://www.w3.org/1999/xlink">
    <!-- Generator: Sketch 52.2 (67145) - http://www.bohemiancoding.com/sketch -->
    <title>tusd-48px</title>
    <desc>Created with Sketch.</desc>
    <g id="Concepts" stroke="none" stroke-width="1" fill="none" fill-rule="evenodd">
        <g id="tusd-48px">
            <g id="usdt-48px" fill="#6DB0FC">
                <circle id="Oval" cx="24" cy="24" r="24"></circle>
            </g>
            <path d="M33.1053159,15 C33.6770093,15.2764242 34.2048598,15.6251515 34.7194916,15.9934545 C36.525428,17.2858788 38.0343327,18.8541818 39.066886,20.8557576 C39.679372,22.0430303 40.0831701,23.3015152 40.2903028,24.6259394 C40.4957009,25.9395152 40.5298542,27.2547879 40.3742206,28.5761212 C40.0753346,31.1142424 39.0599477,33.3335758 37.4369794,35.2689091 C35.8792673,37.1264242 34.0322991,38.6355758 31.8827963,39.7332727 C29.959028,40.7155758 27.905286,41.2233939 25.7483065,41.3429697 C23.1917159,41.4847273 20.7170692,41.0727273 18.2644935,40.3841212 C15.8513944,39.7065455 13.9956935,38.2450303 12.4565832,36.3078182 C11.4734355,35.0704242 10.6987364,33.7012121 10,32.2613939 C10.1720224,32.2609697 10.254086,32.3985455 10.3556486,32.4842424 C12.0120523,33.8807273 13.7645159,35.1313333 15.6884037,36.1258788 C17.3564112,36.9882424 19.1049271,37.6171515 20.9626019,37.8664848 C22.8064,38.1140606 24.6343477,37.9941212 26.4276636,37.4410909 C28.8555364,36.6924848 30.9250093,35.3355152 32.7947065,33.6349091 C34.2104224,32.3472121 35.3786916,30.867697 36.1367028,29.084303 C36.7735925,27.5857576 37.0343776,26.017697 36.9297645,24.3895758 C36.7855551,22.1433939 36.0378318,20.0859394 35.005757,18.1189697 C34.4403439,17.0412727 33.794243,16.014303 33.1053159,15 Z M38.1491221,15.0546581 C38.0178324,15.0887187 37.9532343,14.9848399 37.8698548,14.9175672 C35.6498324,13.1275672 33.2694511,11.6218702 30.5393427,10.7622339 C28.450909,10.1046581 26.3262287,9.89320356 24.146281,10.2416278 C21.3579146,10.6872642 18.9437987,11.9401127 16.7189315,13.6350823 C15.3690698,14.6635066 14.2029539,15.864052 13.3491221,17.3525369 C12.7026623,18.479446 12.2937202,19.6870823 12.1091969,20.9824763 C11.778909,23.3009611 12.209623,25.5135672 12.9603371,27.6856278 C13.534423,29.3467187 14.3155221,30.9095066 15.194595,32.4239308 C15.2241427,32.4748399 15.2529726,32.5261733 15.2962174,32.6019914 C15.034595,32.6456278 14.830453,32.5289611 14.62661,32.4601733 C12.1746324,31.6329611 10.4446586,29.9923551 9.36401557,27.6295672 C8.74847912,26.2838702 8.40012772,24.861446 8.18276697,23.4005975 C7.97228473,21.9858096 7.92604921,20.567446 8.13712959,19.1521127 C8.42088286,17.2495066 9.11543239,15.5069005 10.1992455,13.9229611 C10.9585726,12.8132642 11.899253,11.878052 12.8498623,10.9393248 C14.458595,9.35053689 16.3786548,8.37780962 18.5163146,7.79453689 C19.8719782,7.42465811 21.2537202,7.20629447 22.6558586,7.10932477 C23.6296754,7.04193083 24.6030137,6.99544599 25.5792829,7.00035508 C28.7380716,7.01629447 31.5173464,8.07290053 33.9507221,10.1025369 C35.5809875,11.4624157 36.9038137,13.0904157 38.0573688,14.869749 C38.0945726,14.927143 38.1159857,14.9950823 38.1447558,15.0581127 L38.1491221,15.0546581 Z M24.8112553,17.0062677 C26.6952478,17.0062677 28.5793001,17.0121465 30.4632329,17.0000253 C30.751831,16.9982071 30.7846684,17.0940859 30.7487805,17.3532981 C30.5725712,18.6259041 29.9377151,19.564995 28.8094609,20.1540253 C28.3417824,20.3981465 27.8364815,20.5079647 27.313117,20.5152981 C26.6653413,20.5244496 26.0169076,20.530389 25.3694908,20.5118435 C25.1020665,20.5041465 25.0185076,20.572389 25.0197637,20.8576617 C25.0304104,23.3120253 25.0323843,25.7664496 25.0198833,28.2208132 C25.0110908,29.9472374 23.7279805,31.5928132 22.082702,32.0306314 C21.7832179,32.1103284 21.4824777,32.1682677 21.1712104,32.1749344 C21.0071431,32.1783284 20.9661712,32.1096011 20.9758011,31.9568738 C21.0759282,30.3676011 21.1749188,28.7782677 21.268945,27.1886314 C21.3720029,25.4478435 21.5168702,23.7095405 21.5758459,21.9658435 C21.5888254,21.5839647 21.6338048,21.2025708 21.6788441,20.822692 C21.7064777,20.5893587 21.6412815,20.5105102 21.3944927,20.5120859 C19.699988,20.5231768 18.0053039,20.5100253 16.3107992,20.5254193 C16.0182534,20.5280859 15.9826048,20.4121465 16.0058123,20.170995 C16.17616,18.4000253 17.6448104,17.0196617 19.3985301,17.0096617 C21.2027319,16.9994193 23.0069936,17.0074193 24.8112553,17.0074193 L24.8112553,17.0062677 Z" id="Combined-Shape" fill="#FFFFFF"></path>
        </g>
    </g>
</svg>