<?xml version="1.0" encoding="UTF-8"?>
<svg width="48px" height="48px" viewBox="0 0 48 48" version="1.1" xmlns="http://www.w3.org/2000/svg" xmlns:xlink="http://www.w3.org/1999/xlink">
    <!-- Generator: Sketch 49.1 (51147) - http://www.bohemiancoding.com/sketch -->
    <title>tzc</title>
    <desc>Created with Sketch.</desc>
    <defs></defs>
    <g id="48px" stroke="none" stroke-width="1" fill="none" fill-rule="evenodd">
        <g id="tzc" fill-rule="nonzero">
            <circle id="Oval" fill="#374851" cx="24" cy="24" r="24"></circle>
            <path d="M26.55,23.1 L26.55,34.4972091 C26.8552704,34.4233141 27.1554758,34.3364493 27.45,34.2372307 L27.45,38.6013396 C26.342318,38.8620627 25.1872674,39 24,39 C23.1307485,39 22.2787663,38.9260606 21.45,38.7841282 L21.45,23.1 L16.2,23.1 L16.2,18.9 L31.8,18.9 L31.8,23.1 L26.55,23.1 Z M28.65,38.2653108 L28.65,33.7504747 C32.2872206,32.0127666 34.8,28.2998287 34.8,24 C34.8,18.0353247 29.9646753,13.2 24,13.2 C18.0353247,13.2 13.2,18.0353247 13.2,24 C13.2,28.2998287 15.7127794,32.0127666 19.3499994,33.7504744 L19.35,38.2653108 C13.341937,36.3081949 9,30.6611544 9,24 C9,15.7157287 15.7157287,9 24,9 C32.2842712,9 39,15.7157287 39,24 C39,30.6611544 34.6580629,36.3081949 28.65,38.2653108 Z" id="Shape" fill="#FFFFFF"></path>
        </g>
    </g>
</svg>