<?xml version="1.0" encoding="UTF-8"?>
<svg width="48px" height="48px" viewBox="0 0 48 48" version="1.1" xmlns="http://www.w3.org/2000/svg" xmlns:xlink="http://www.w3.org/1999/xlink">
    <!-- Generator: Sketch 49.1 (51147) - http://www.bohemiancoding.com/sketch -->
    <title>usd</title>
    <desc>Created with Sketch.</desc>
    <defs></defs>
    <g id="48px" stroke="none" stroke-width="1" fill="none" fill-rule="evenodd">
        <g id="usd" fill-rule="nonzero">
            <circle id="Oval" fill="#6CDE07" cx="24" cy="24" r="24"></circle>
            <path d="M33.75,28.7313084 C33.75,32.5864486 30.6212687,35.1448597 26.0009328,35.5303738 L26.0009328,39 L22.8358209,39 L22.8358209,35.4953271 C19.670709,35.1448597 16.7238806,33.9182242 14.25,32.0257009 L16.5783582,28.8364486 C18.6520522,30.4485981 20.6166045,31.5 22.9813433,31.8504673 L22.9813433,24.9813084 C17.669776,23.6495326 15.1958955,21.7219626 15.1958955,17.7616822 C15.1958955,13.9766355 18.2882463,11.3831776 22.8358209,11.0327103 L22.8358209,9 L26.0009328,9 L26.0009328,11.1028037 C28.6567164,11.4182243 30.8395523,12.3294393 32.8404851,13.7663551 L30.8031717,17.0607477 C29.2024254,15.9042055 27.5652986,15.1682242 25.8554105,14.817757 L25.8554105,21.4766355 C31.3852613,22.8084112 33.75,24.9462616 33.75,28.7313084 Z M22.9813433,20.7406542 L22.9813433,14.5724299 C20.6893656,14.7476635 19.4888059,15.974299 19.4888059,17.5163552 C19.4888059,18.9883178 20.1800373,19.9345794 22.9813433,20.7406542 Z M29.4570896,28.9766355 C29.4570896,27.3995327 28.693097,26.453271 25.8554105,25.6471962 L25.8554105,31.9906542 C28.1473881,31.8154206 29.4570896,30.6588784 29.4570896,28.9766355 Z" id="Shape" fill="#FFFFFF"></path>
        </g>
    </g>
</svg>