<?xml version="1.0" encoding="UTF-8"?>
<svg width="48px" height="48px" viewBox="0 0 48 48" version="1.1" xmlns="http://www.w3.org/2000/svg" xmlns:xlink="http://www.w3.org/1999/xlink">
    <!-- Generator: Sketch 49.1 (51147) - http://www.bohemiancoding.com/sketch -->
    <title>usdt</title>
    <desc>Created with Sketch.</desc>
    <defs></defs>
    <g id="48px" stroke="none" stroke-width="1" fill="none" fill-rule="evenodd">
        <g id="usdt" fill-rule="nonzero">
            <circle id="Oval" fill="#26A17B" cx="24" cy="24" r="24"></circle>
            <path d="M26.8836003,26.0751744 L26.8836003,26.0721024 C26.7177123,26.0828544 25.8667683,26.1339264 23.9701923,26.1339264 C22.4549283,26.1339264 21.3885603,26.0909184 21.0130083,26.0713344 L21.0130083,26.0759424 C15.1819683,25.8190464 10.8281763,24.8033664 10.8281763,23.5883904 C10.8281763,22.3757184 15.1819683,21.3592704 21.0130083,21.1000704 L21.0130083,25.0656384 C21.3947043,25.0921344 22.4871843,25.1566464 23.9951523,25.1566464 C25.8057123,25.1566464 26.7138723,25.0813824 26.8836003,25.0656384 L26.8836003,21.1019904 C32.7031203,21.3611904 37.0457763,22.3776384 37.0457763,23.5883904 C37.0457763,24.8025984 32.7031203,25.8159744 26.8836003,26.0751744 M26.8836003,20.6891904 L26.8836003,17.1402624 L35.0036643,17.1402624 L35.0036643,11.7281664 L12.8917923,11.7281664 L12.8917923,17.1402624 L21.0130083,17.1402624 L21.0130083,20.6884224 C14.4132003,20.9913984 9.45000028,22.2985344 9.45000028,23.8644864 C9.45000028,25.4304384 14.4132003,26.7371904 21.0130083,27.0424704 L21.0130083,38.4146304 L26.8836003,38.4146304 L26.8836003,27.0393984 C33.4718883,26.7352704 38.4247203,25.4292864 38.4247203,23.8644864 C38.4247203,22.3000704 33.4718883,20.9937024 26.8836003,20.6891904" id="Shape" fill="#FFFFFF"></path>
        </g>
    </g>
</svg>