<?xml version="1.0" encoding="UTF-8"?>
<svg width="48px" height="48px" viewBox="0 0 48 48" version="1.1" xmlns="http://www.w3.org/2000/svg" xmlns:xlink="http://www.w3.org/1999/xlink">
    <!-- Generator: Sketch 49.1 (51147) - http://www.bohemiancoding.com/sketch -->
    <title>veri</title>
    <desc>Created with Sketch.</desc>
    <defs></defs>
    <g id="48px" stroke="none" stroke-width="1" fill="none" fill-rule="evenodd">
        <g id="veri" fill-rule="nonzero">
            <circle id="Oval" fill="#FF9933" cx="24" cy="24" r="24"></circle>
            <path d="M9,12 C10.6565436,12.0030652 12.3127872,12.0034228 13.9687308,12.0010728 C15.0151583,17.5909471 16.0606357,23.180515 17.1051633,28.7697764 C17.1534647,29.0168301 17.2137661,29.2620448 17.2779678,29.5054206 C17.5247244,28.5309984 17.6787785,27.534507 17.8841339,26.5501231 C18.836759,21.700593 19.7890839,16.8507051 20.741109,12.0004598 C22.3433511,12.0014815 23.9452934,12.0018391 25.5469354,12.0015326 C23.783689,19.8501412 22.0201427,27.6985966 20.2562963,35.5468987 L14.2904892,35.5468987 C12.5253428,27.703603 10.7618464,19.8600009 9,12.0160922 L9,12 Z M27.4708862,19.3973624 C28.5164136,18.0840843 30.1877576,17.4880591 31.7988,17.3841494 C33.3871919,17.2721169 35.102037,17.4164871 36.4489224,18.3650084 C37.6414538,19.1991983 38.295021,20.6082635 38.6059791,22.0111983 C38.982039,23.7683151 39.0018396,25.5757011 38.9998894,27.3660752 C36.0649122,27.367097 33.1302351,27.3674545 30.1958579,27.367148 C30.202758,28.6905413 30.1189058,30.0571538 30.5630675,31.3250672 C30.7772732,31.9494452 31.1771837,32.5696852 31.8139505,32.7977349 C32.4912182,33.0185814 33.3076898,32.8743645 33.8022528,32.3276889 C34.4622701,31.5813165 34.5999737,30.5333301 34.7441276,29.576073 L38.7403827,29.576073 C38.6503803,31.1656776 38.3563727,32.845092 37.3153452,34.0947677 C36.2719178,35.393946 34.5885734,35.925449 32.9952315,35.9899712 C31.2646359,36.055566 29.3849364,35.8204664 28.0049001,34.6544703 C26.7225164,33.5842613 26.1627017,31.8898274 25.9405458,30.2658927 C25.71839,28.3949043 25.7065397,26.5026128 25.8101924,24.622582 C25.9504461,22.7899083 26.2821048,20.849187 27.469686,19.3964428 L27.4708862,19.3973624 Z M30.8825758,21.2662053 C30.200358,22.2470641 30.1835575,23.5094604 30.1945078,24.6653414 C31.7098476,24.666363 33.2258875,24.666363 34.7426274,24.6653414 C34.6725756,23.5669326 34.6803759,22.4049211 34.1849128,21.3983147 C33.5706466,20.1569151 31.6261455,20.1518575 30.8837758,21.2663584 L30.8825758,21.2662053 Z" id="Shape" fill="#FFFFFF"></path>
        </g>
    </g>
</svg>