<?xml version="1.0" encoding="UTF-8"?>
<svg width="48px" height="48px" viewBox="0 0 48 48" version="1.1" xmlns="http://www.w3.org/2000/svg" xmlns:xlink="http://www.w3.org/1999/xlink">
    <!-- Generator: Sketch 49.1 (51147) - http://www.bohemiancoding.com/sketch -->
    <title>vivo</title>
    <desc>Created with Sketch.</desc>
    <defs></defs>
    <g id="48px" stroke="none" stroke-width="1" fill="none" fill-rule="evenodd">
        <g id="vivo" fill-rule="nonzero">
            <circle id="Oval" fill="#408AF1" cx="24" cy="24" r="24"></circle>
            <path d="M34.5731835,15.4151625 C35.2627516,14.2663496 36.7338184,13.9058477 37.8589032,14.6099587 C38.9839881,15.3140699 39.3370441,16.8161613 38.647476,17.9649741 C36.0916227,22.2229971 33.2074786,26.6775372 30.8025114,30.0794396 C27.2916028,35.0457309 26.5313784,36.75 23.9999739,36.75 C21.4685694,36.75 20.898222,35.2458806 17.2877035,30.0662084 C15.1433586,26.9899176 12.4530682,22.8734573 9.38187147,18.0127068 C8.66648581,16.8804735 8.98544988,15.3704517 10.0942976,14.6399785 C11.2031454,13.9095054 12.6819788,14.2351964 13.3973644,15.3674298 C16.4325121,20.1711258 23.287852,30.1818386 24.0195301,31.0746837 C24.7831566,30.1678776 32.077542,19.5728733 34.5731835,15.4151625 Z" id="Shape" fill="#FFFFFF"></path>
        </g>
    </g>
</svg>