<?xml version="1.0" encoding="UTF-8"?>
<svg width="48px" height="48px" viewBox="0 0 48 48" version="1.1" xmlns="http://www.w3.org/2000/svg" xmlns:xlink="http://www.w3.org/1999/xlink">
    <!-- Generator: Sketch 49.1 (51147) - http://www.bohemiancoding.com/sketch -->
    <title>vrc</title>
    <desc>Created with Sketch.</desc>
    <defs></defs>
    <g id="48px" stroke="none" stroke-width="1" fill="none" fill-rule="evenodd">
        <g id="vrc" fill-rule="nonzero">
            <circle id="Oval" fill="#418BCA" cx="24" cy="24" r="24"></circle>
            <path d="M30.397191,12 L37.5,12 L23.9997621,39 L10.5,12 L17.5555854,12 L24.0471046,25.668924 L30.397191,12 Z M23.9997621,19.4383991 C22.8179827,19.4383991 21.8598315,18.4541691 21.8598315,17.2405542 C21.8598315,16.0269393 22.8179827,15.0427093 23.9997621,15.0427093 C25.1814225,15.0427093 26.1400495,16.0269393 26.1400495,17.2405542 C26.1400495,18.4541691 25.1814225,19.4383991 23.9997621,19.4383991 Z M33.6971328,25.4998779 C34.879269,25.4998779 35.8373013,26.4839856 35.8371823,27.6972342 C35.8371823,28.9110933 34.879269,29.8952011 33.6971328,29.8952011 C32.5155913,29.8952011 31.5567264,28.9110933 31.5567264,27.6972342 C31.5567264,26.4839856 32.5154724,25.4998779 33.6971328,25.4998779 Z" id="Shape" fill="#FFFFFF"></path>
        </g>
    </g>
</svg>