<?xml version="1.0" encoding="UTF-8"?>
<svg width="48px" height="48px" viewBox="0 0 48 48" version="1.1" xmlns="http://www.w3.org/2000/svg" xmlns:xlink="http://www.w3.org/1999/xlink">
    <!-- Generator: Sketch 49.1 (51147) - http://www.bohemiancoding.com/sketch -->
    <title>wax</title>
    <desc>Created with Sketch.</desc>
    <defs></defs>
    <g id="48px" stroke="none" stroke-width="1" fill="none" fill-rule="evenodd">
        <g id="wax" fill-rule="nonzero">
            <circle id="Oval" fill="#F89022" cx="24" cy="24" r="24"></circle>
            <path d="M42,28.443351 L38.45382,28.443351 L35.93886,26.2885656 L33.43155,28.4339402 L30.43536,28.4339402 L29.00301,26.6934125 L24.0648,26.6934125 L25.31427,25.150695 L27.74238,25.150695 L25.89297,22.8883319 L19.43529,30.75 L16.43982,30.75 L18.30858,28.466601 L15.18684,28.466601 L13.50114,23.7357609 L11.82714,28.4300652 L8.65887,28.4300652 L6,21.0623692 L8.43045,21.0623692 L10.21794,26.0820827 L12.00012,21.08442 L15.00054,21.08442 L16.77741,26.0701809 L18.55311,21.0831283 L20.9913,21.0831283 L18.30858,28.466601 L18.906,27.7378214 L24.38439,21.0707652 L27.39912,21.0707652 L31.95717,26.633073 L34.14975,24.7470476 L27.21165,18.75 L30.77439,18.75 L42,28.443351 Z M38.48289,23.9848691 L36.8097,22.5514824 L38.47893,21.1287058 L41.85582,21.1313814 L38.48289,23.9848691 Z" id="Shape" fill="#FFFFFF"></path>
        </g>
    </g>
</svg>