<?xml version="1.0" encoding="UTF-8"?>
<svg width="48px" height="48px" viewBox="0 0 48 48" version="1.1" xmlns="http://www.w3.org/2000/svg" xmlns:xlink="http://www.w3.org/1999/xlink">
    <!-- Generator: Sketch 49.1 (51147) - http://www.bohemiancoding.com/sketch -->
    <title>wtc</title>
    <desc>Created with Sketch.</desc>
    <defs></defs>
    <g id="48px" stroke="none" stroke-width="1" fill="none" fill-rule="evenodd">
        <g id="wtc" fill-rule="nonzero">
            <circle id="Oval" fill="#08308F" cx="24" cy="24" r="24"></circle>
            <path d="M38.82192,24.648 C37.44,24.288 36.00504,24.22752 34.58688,24.1512 C34.72704,23.72856 34.87488,23.30736 35.04288,22.89408 C35.088,22.75536 35.21856,22.68192 35.33928,22.61592 C36.006,22.26456 36.66816,21.9036 37.33848,21.55776 C37.50648,21.45528 37.71816,21.38496 37.8156,21.20184 C37.85472,20.91648 37.66104,20.67888 37.5276,20.448 C37.0824,19.75584 36.67728,19.03632 36.18696,18.3756 C36.01704,18.1356 35.67864,18.1404 35.44296,18.26808 C34.51632,18.69576 33.59328,19.13088 32.66616,19.55712 C32.4876,19.6428 32.30088,19.7184 32.14392,19.84176 C31.96896,19.98408 31.88544,20.20176 31.80984,20.40816 C31.3764,21.65424 30.90648,22.88736 30.46272,24.12984 C30.42864,24.22344 30.38208,24.34584 30.26232,24.34584 C29.30232,24.414 28.34808,24.53616 27.39312,24.64872 C26.83984,23.16072 26.28576,21.6735199 25.73088,20.18712 C25.6524,19.92072 25.43376,19.6932 25.14048,19.69848 C24.36936,19.68768 23.59656,19.692 22.82472,19.68984 C22.638,19.70352 22.39488,19.67688 22.28088,19.8612 C22.1052,20.1732 22.03608,20.52936 21.90624,20.86032 C21.23592,22.59672 20.5824,24.34032 19.9332,26.08368 C19.38792,26.22312 18.84984,26.39808 18.29568,26.50344 C17.5812,24.57192 16.86144,22.64232 16.16136,20.70552 C16.04808,20.42808 15.9768,20.12592 15.80256,19.87776 C15.66168,19.69776 15.41856,19.6824 15.20712,19.68384 C14.3328,19.68888 13.45848,19.70208 12.58416,19.70784 C12.35256,19.71432 12.08376,19.69632 11.90448,19.872 C11.80128,20.23944 12.01488,20.58576 12.12888,20.92344 C12.94872,23.17944 13.8012,25.4244 14.6088,27.68496 C13.70112,28.0096 12.80512,28.3649599 11.9208,28.75104 C11.7048,28.85712 11.47056,28.93392 11.27448,29.07648 C10.75752,29.2704 10.28112,29.55792 9.79824,29.82288 C8.94072,30.33336 8.07504,30.88968 7.45272,31.68552 C7.16664,32.06952 6.9204,32.59104 7.12008,33.06888 C7.3008,33.56424 7.78464,33.84672 8.23488,34.06368 C8.90088,34.35768 9.61392,34.53144 10.33056,34.6476 C12.49824,34.95192 14.69712,34.9356 16.8756,34.77624 C17.0136,34.76688 17.15016,34.79448 17.28528,34.82424 C17.40528,35.20704 17.47488,35.63472 17.74992,35.94336 C17.88144,36.10536 18.09984,36.04296 18.26832,35.98992 C18.89232,35.78808 19.52088,35.60784 20.14776,35.41776 C20.64672,35.3124 20.7984,34.7736 20.95608,34.35984 C22.7244,34.1064 24.48408,33.79272 26.22816,33.4056 C29.37216,32.70408 32.4864,31.8216 35.46576,30.58728 C36.64176,30.08112 37.8048,29.5344 38.88024,28.83792 C39.59112,28.36152 40.31304,27.8388 40.76256,27.09432 C41.0328,26.65632 41.06688,26.02032 40.69656,25.62888 C40.21392,25.08408 39.49344,24.85968 38.82192,24.648 Z M14.9088,34.5504 C14.3292,34.5984 13.74696,34.5948 13.16592,34.58952 C12.2328,34.5336 11.29392,34.52568 10.37592,34.32552 C9.66144,34.20216 8.92584,34.03296 8.328,33.60144 C8.05704,33.40464 7.81608,33.10392 7.824,32.75328 C7.82112,32.3436 8.07096,31.98936 8.32512,31.69008 C8.90304,31.04664 9.64032,30.5784 10.3752,30.13464 C11.7879216,29.3540409 13.2662888,28.6986574 14.79336,28.176 C15.53912,30.1827199 16.28,32.1916001 17.016,34.20264 C17.04,34.27152 17.064,34.34136 17.088,34.41096 L16.926,34.43496 C16.25592,34.512 15.582,34.53816 14.9088,34.5504 Z M19.03416,28.42584 C18.8215173,27.9531822 18.6350748,27.4691689 18.47568,26.976 C18.88008,26.85264 19.28688,26.73192 19.70136,26.64336 C19.49976,27.24504 19.28256,27.84192 19.03416,28.42584 Z M21.12216,33.92184 C21.80328,32.05128 22.512,30.19008 23.20056,28.32072 C23.45184,27.69912 23.64936,27.05712 23.91432,26.44056 C24.10632,26.77536 24.22296,27.14352 24.3624,27.5016 C25.0224,29.30688 25.70376,31.10568 26.36016,32.91312 C24.63024,33.32472 22.88232,33.67392 21.1212,33.92088 L21.12216,33.92184 Z M28.84152,28.46232 C28.40208,27.32376 27.95856,26.18568 27.5532,25.0356 C28.4412,24.89544 29.33448,24.7956 30.22848,24.70728 C29.79768,25.9692 29.30592,27.21096 28.84056,28.46136 L28.84152,28.46232 Z M33.9984576,14.6562207 L30.0119488,16.0235756 C30.0129393,16.0447394 30.01344,16.0660313 30.01344,16.08744 C30.01344,16.8294456 29.4119256,17.43096 28.66992,17.43096 C27.9279144,17.43096 27.3264,16.8294456 27.3264,16.08744 C27.3264,15.9388473 27.3505227,15.7958889 27.3950656,15.6622671 L24.7680443,13.8468286 C24.6066027,13.9547517 24.4125302,14.01768 24.20376,14.01768 C24.029256,14.01768 23.8650209,13.9737138 23.7215277,13.8962543 L18.8291781,18.0084945 C18.812132,18.2938926 18.5752805,18.52008 18.2856,18.52008 C18.0067116,18.52008 17.7767892,18.3104319 17.7448337,18.0401368 L12.7648989,14.3278898 C12.6264097,14.4076531 12.4657732,14.45328 12.29448,14.45328 C11.7731674,14.45328 11.35056,14.0306726 11.35056,13.50936 C11.35056,12.9880474 11.7731674,12.56544 12.29448,12.56544 C12.8155185,12.5661011 13.2377389,12.9883215 13.2384,13.50936 C13.2384,13.5841459 13.2297028,13.6569006 13.2132646,13.7266676 L18.1930385,17.4387947 C18.2231217,17.4336435 18.2540475,17.43096 18.2856,17.43096 C18.3062326,17.43096 18.3265974,17.4321075 18.3466338,17.4343421 L23.238885,13.3221846 C23.2053035,13.2212404 23.18712,13.1132637 23.18712,13.00104 C23.18712,12.4395652 23.6422853,11.9844 24.20376,11.9844 C24.7652348,11.9844 25.2204,12.4395652 25.2204,13.00104 C25.2204,13.0797343 25.2114588,13.1563402 25.1945369,13.2298974 L27.8217302,15.0454546 C28.0530258,14.8569491 28.3482732,14.74392 28.66992,14.74392 C29.1240243,14.74392 29.5255094,14.9692106 29.7687008,15.3141177 L33.75522,13.9467593 C33.7298697,13.804869 33.71664,13.6587795 33.71664,13.5096 C33.71664,12.1459427 34.8221026,11.04048 36.18576,11.04048 L36.18576,11.04 C37.5489465,11.0415875 38.6535575,12.1464131 38.65488,13.5096 C38.65488,14.8732573 37.5494173,15.97872 36.18576,15.97872 C35.2359911,15.97872 34.4114706,15.4424673 33.9984576,14.6562207 Z M40.18944,26.5104 C40.07544,26.98248 39.74352,27.36288 39.39744,27.6864 C38.58144,28.44168 37.59288,28.97616 36.6096,29.48016 C35.0696487,30.2299248 33.4755663,30.8629849 31.8408,31.374 C32.0290937,30.9931782 32.1890475,30.5989893 32.31936,30.19464 C33.03384,28.2972 33.73824,26.3952 34.44696,24.4956 C35.63424,24.49416 36.83088,24.5376 37.9944,24.7956 C38.60952,24.93144 39.23688,25.11 39.7464,25.49496 C40.05264,25.72368 40.27992,26.11656 40.18848,26.50944 L40.18944,26.5104 Z M36.18576,12.63816 C35.7044771,12.63816 35.31432,13.028317 35.31432,13.5096 C35.31432,13.8620646 35.5266396,14.1798232 35.8522743,14.3147056 C36.1779092,14.4495879 36.5527311,14.3750312 36.8019612,14.1258011 C37.0511913,13.876571 37.1257479,13.5017492 36.9908657,13.1761143 C36.8559833,12.8504795 36.5382246,12.63816 36.18576,12.63816 Z" id="Shape" fill="#FFFFFF"></path>
        </g>
    </g>
</svg>