<?xml version="1.0" encoding="UTF-8"?>
<svg width="48px" height="48px" viewBox="0 0 48 48" version="1.1" xmlns="http://www.w3.org/2000/svg" xmlns:xlink="http://www.w3.org/1999/xlink">
    <!-- Generator: Sketch 49.1 (51147) - http://www.bohemiancoding.com/sketch -->
    <title>xbc</title>
    <desc>Created with Sketch.</desc>
    <defs></defs>
    <g id="48px" stroke="none" stroke-width="1" fill="none" fill-rule="evenodd">
        <g id="xbc" fill-rule="nonzero">
            <circle id="Oval" fill="#F7931A" cx="24" cy="24" r="24"></circle>
            <path d="M39.764068,26.8748541 L39.764068,30.2498541 L37.514068,30.2498541 L37.514068,26.8748541 L34.139068,26.8748541 L34.139068,24.6248541 L37.514068,24.6248541 L37.514068,21.249854 L39.764068,21.249854 L39.764068,24.6248541 L43.1390681,24.6248541 L43.1390681,26.8748541 L39.764068,26.8748541 Z M29.7793891,20.0974087 C29.974213,22.135277 29.1412177,23.3584234 27.808867,24.0526221 C30.0019609,24.5914923 31.376187,25.9252912 31.1050897,28.9145085 C30.7693137,32.6267994 28.0652686,33.6227217 24.201832,33.8495439 L24.2011153,37.7496078 L21.9031,37.7498541 L21.9040924,33.9019595 C21.3086014,33.9025196 20.6986346,33.8973965 20.0683408,33.8840645 L20.0684155,37.74977 L17.7728649,37.7493873 L17.7718916,33.8423876 C17.2343193,33.8388873 16.6867388,33.8292339 16.1302187,33.8285585 L13.139672,33.8286717 L13.5962669,31.0205112 C13.5962669,31.0205112 15.296156,31.0476171 15.2667522,31.0209619 C15.9170793,31.0198068 16.0892754,30.5418865 16.1301254,30.2421384 L16.130702,24.0770581 C16.2149583,24.0763246 16.2969035,24.0768505 16.3734578,24.0767424 C16.2785819,24.0634417 16.1947898,24.0607081 16.1305583,24.0603514 L16.1303523,19.6595591 C16.0422324,19.182416 15.7392837,18.6294811 14.8084637,18.6291938 C14.8366715,18.5972171 13.1396718,18.6303202 13.1396718,18.6303202 L13.1390679,16.1189588 L16.3085999,16.1200648 L16.3089006,16.1320433 C16.7853242,16.1317213 17.273922,16.1222656 17.7714543,16.1118701 L17.7723015,12.249948 L20.0690845,12.2500161 L20.0687462,16.0361281 C20.6822666,16.0236011 21.2997916,16.011392 21.9039082,16.0113103 L21.903769,12.2501003 L24.2017843,12.249854 L24.2018606,16.1128801 C27.1682137,16.3787972 29.5177149,17.3124247 29.7793891,20.0974087 Z M26.5643353,28.4515053 C26.5645235,25.406161 21.6807847,25.8644827 20.1228973,25.8641047 L20.1223157,31.0406538 C21.6797422,31.0391401 26.5656109,31.371235 26.5643353,28.4515053 Z M25.4955499,21.1481024 C25.4952602,18.3774725 21.4202159,18.7995944 20.1229517,18.7997005 L20.1228218,23.494593 C21.420086,23.4944871 25.4948318,23.8044643 25.4955499,21.1481024 Z" id="Shape" fill="#FFFFFF" transform="translate(28.139068, 24.999854) rotate(14.000000) translate(-28.139068, -24.999854) "></path>
        </g>
    </g>
</svg>