<?xml version="1.0" encoding="UTF-8"?>
<svg width="48px" height="48px" viewBox="0 0 48 48" version="1.1" xmlns="http://www.w3.org/2000/svg" xmlns:xlink="http://www.w3.org/1999/xlink">
    <!-- Generator: Sketch 49.1 (51147) - http://www.bohemiancoding.com/sketch -->
    <title>xcp</title>
    <desc>Created with Sketch.</desc>
    <defs></defs>
    <g id="48px" stroke="none" stroke-width="1" fill="none" fill-rule="evenodd">
        <g id="xcp" fill-rule="nonzero">
            <circle id="Oval" fill="#ED1650" cx="24" cy="24" r="24"></circle>
            <path d="M35.2205734,14.9999693 L29.153604,14.9999693 C28.9057015,14.9999693 28.6679607,15.1004619 28.4928997,15.2792181 L17.4318631,26.5718911 C17.2568022,26.7506473 17.0190613,26.85114 16.7711589,26.85114 L14.743168,26.85114 C14.495668,26.85114 14.258229,26.751057 14.0832686,26.5728132 L12.6487747,25.1122375 C12.4737137,24.934096 12.375418,24.6924424 12.375418,24.4404424 L12.375418,22.3748619 C12.375418,22.1228619 12.4737137,21.8812083 12.6487747,21.7029643 L14.0832686,20.2423888 C14.258229,20.0642473 14.495668,19.9640619 14.743168,19.9640619 L16.7718631,19.9640619 C17.0193631,19.9640619 17.2567015,20.0642473 17.4317625,20.2423888 L18.3126009,21.1392424 C18.67711,21.510379 19.2679911,21.510379 19.6323997,21.1392424 L21.7600948,18.9729643 C22.124604,18.6018277 22.124604,18.0002034 21.7600948,17.6291692 L19.4512015,15.278296 C19.2761406,15.1001547 19.0388022,14.9999693 18.7913022,14.9999693 L12.723729,14.9999693 C12.476229,14.9999693 12.2387899,15.1001547 12.063729,15.278296 L7.77332652,19.6468083 C7.59836616,19.8249498 7.49996982,20.0666034 7.49996982,20.3187058 L7.49996982,26.4965985 C7.49996982,26.7485985 7.59836616,26.9902522 7.77332652,27.168496 L12.063729,31.5370083 C12.2387899,31.7151498 12.476229,31.8153351 12.723729,31.8153351 L18.7905978,31.8153351 C19.0385002,31.8153351 19.2762411,31.7148424 19.4514027,31.5360864 L30.5123387,20.2433107 C30.6873997,20.0645547 30.9252411,19.9640619 31.1731435,19.9640619 L33.2011344,19.9640619 C33.4486344,19.9640619 33.6859728,20.0642473 33.8609332,20.2423888 L35.2954272,21.7028619 C35.4704881,21.8810034 35.5688844,22.1227594 35.5688844,22.3747594 L35.5688844,24.4404424 C35.5688844,24.6924424 35.4704881,24.934096 35.2954272,25.1122375 L33.8609332,26.5728132 C33.6859728,26.751057 33.4486344,26.85114 33.2011344,26.85114 L31.1724393,26.85114 C30.9249393,26.85114 30.6875002,26.751057 30.5125399,26.5728132 L29.6242565,25.6684815 C29.2626649,25.3003156 28.6775185,25.2970375 28.3119027,25.6610034 L25.6878997,28.2731985 C25.5083113,28.4519547 25.4070978,28.6968864 25.4070978,28.9525741 L25.4070978,35.0143009 C25.4070978,35.539096 25.8249301,35.9646277 26.340354,35.9646277 L29.4014058,35.9646277 C29.9168295,35.9646277 30.3347625,35.539096 30.3347625,35.0143009 L30.3347625,32.765457 C30.3347625,32.2406619 30.7524942,31.8153351 31.267918,31.8153351 L35.2205734,31.8153351 C35.4680734,31.8153351 35.7054118,31.7151498 35.8804728,31.5370083 L40.1708752,27.168496 C40.3459363,26.9902522 40.4442319,26.7485985 40.4442319,26.4965985 L40.4442319,20.3187058 C40.4442319,20.0666034 40.3459363,19.8249498 40.1708752,19.6468083 L35.8804728,15.278296 C35.7054118,15.1001547 35.4680734,14.9999693 35.2205734,14.9999693" id="Shape" fill="#FFFFFF"></path>
        </g>
    </g>
</svg>