<?xml version="1.0" encoding="UTF-8"?>
<svg width="48px" height="48px" viewBox="0 0 48 48" version="1.1" xmlns="http://www.w3.org/2000/svg" xmlns:xlink="http://www.w3.org/1999/xlink">
    <!-- Generator: Sketch 49.1 (51147) - http://www.bohemiancoding.com/sketch -->
    <title>xdn</title>
    <desc>Created with Sketch.</desc>
    <defs></defs>
    <g id="48px" stroke="none" stroke-width="1" fill="none" fill-rule="evenodd">
        <g id="xdn" fill-rule="nonzero">
            <circle id="Oval" fill="#4F7AA2" cx="24" cy="24" r="24"></circle>
            <path d="M19.9635193,18 L24.0708154,18 C26.053648,18 29.5944205,19.2042127 29.5944205,24 C29.5944205,28.7957873 26.053648,30 24.0708154,30 L19.9635193,30 L19.9635193,18 Z M22.2296137,27.5696202 L23.9291846,27.5696202 C25.3454936,27.5696202 27.0450644,26.7033228 27.0450644,24 C27.0450644,21.2966772 25.3454936,20.4303798 23.9291846,20.4303798 L22.2296137,20.4303798 L22.2296137,27.5696202 Z M31.1523605,18 L32.0021459,18 L39.6502146,28.5384615 L39.6502146,18 L40.5,18 L40.5,30 L39.6502146,30 L32.0021459,19.6923076 L32.0021459,30 L31.1523605,30 L31.1523605,18 Z M7.5,18 L10.332618,18 L10.332618,21 L7.5,21 L7.5,18 Z M11.748927,18 L14.5815451,18 L14.5815451,21 L11.748927,21 L11.748927,18 Z M15.9978541,18 L18.8304721,18 L18.8304721,21 L15.9978541,21 L15.9978541,18 Z M15.9978541,22.5 L18.8304721,22.5 L18.8304721,25.5 L15.9978541,25.5 L15.9978541,22.5 Z M15.9978541,27 L18.8304721,27 L18.8304721,30 L15.9978541,30 L15.9978541,27 Z M11.748927,22.5 L14.5815451,22.5 L14.5815451,25.5 L11.748927,25.5 L11.748927,22.5 Z" id="Shape" fill="#FFFFFF"></path>
        </g>
    </g>
</svg>