<?xml version="1.0" encoding="UTF-8"?>
<svg width="48px" height="48px" viewBox="0 0 48 48" version="1.1" xmlns="http://www.w3.org/2000/svg" xmlns:xlink="http://www.w3.org/1999/xlink">
    <!-- Generator: Sketch 49.1 (51147) - http://www.bohemiancoding.com/sketch -->
    <title>xem</title>
    <desc>Created with Sketch.</desc>
    <defs></defs>
    <g id="48px" stroke="none" stroke-width="1" fill="none" fill-rule="evenodd">
        <g id="xem" fill-rule="nonzero">
            <circle id="Oval" fill="#67B2E8" cx="24" cy="24" r="24"></circle>
            <path d="M9.21796467,17.9305113 C9.07626207,16.7502234 9.00280808,15.5935128 9,14.4545739 C10.9827305,13.326966 13.0541144,12.439504 15.2279614,11.785778 C18.2794809,10.8679761 21.4109892,10.4426834 24.6212863,10.5061866 C25.4729132,10.5229747 26.7047241,10.6167746 27.6419979,10.7179288 C25.2496544,11.9994374 23.5610017,14.2883951 23.0443656,17.0034638 C22.9550148,17.4734555 22.90517,17.9622123 22.8891298,18.4847097 C22.864516,19.2880334 22.7860916,19.9217867 22.6197094,20.5133657 C21.9520008,22.888569 20.0059158,24.7438338 17.6095453,25.288134 C14.4608439,26.0032568 11.2871178,24.4489844 9.91617545,21.5214219 C9.85175519,21.3838977 9.8027694,21.237156 9.76462009,21.0706128 C9.52646233,20.0285652 9.34402915,18.9816554 9.21796467,17.9305113 Z M34.1365497,30.7711098 C33.7795062,31.3247703 33.4033857,31.8670914 33.0082831,32.398161 C33.0187608,30.8727492 32.6527319,29.4241266 31.9148498,28.0624727 C31.1481371,26.6478635 30.071358,25.5145002 28.6946258,24.6691974 C28.6294722,24.6294126 28.6294722,24.6294126 28.5586032,24.586605 C28.4443176,24.5175645 28.3964084,24.4882518 28.3365249,24.4502028 C26.630621,23.3666763 25.5919915,21.8494581 25.2261789,19.8900092 C24.5647118,16.3476914 26.795178,12.9092708 30.2980062,12.0618258 C31.5278103,11.764236 32.7442049,11.8057962 33.9536104,12.1861587 C34.8825317,12.4784493 35.8207872,12.8614066 36.9654266,13.3971054 C37.6263455,13.7065252 38.2919921,14.0522318 39,14.4532022 C38.9974569,15.2640794 38.9580225,16.0931507 38.8831854,16.948349 C38.7732134,18.2053172 38.5862289,19.4473862 38.3218125,20.6750654 C37.5439083,24.2875955 36.148097,27.651644 34.1365497,30.7711098 Z M29.5820617,36.2803491 C27.8679568,37.9085441 26.0154771,39.3125357 24.0028423,40.5 C23.6887734,40.3280646 23.0895607,39.9542649 22.4759748,39.541465 C20.7238514,38.3617469 19.1115077,37.0163163 17.6393446,35.5049588 C16.1642263,33.9904028 14.8606314,32.3423484 13.7290043,30.5605664 C12.8931414,29.2445226 12.1647836,27.8772632 11.5442918,26.4584783 C11.8364326,26.6293023 12.1373392,26.782977 12.447113,26.919362 C13.326081,27.3063483 14.2354116,27.5465828 15.1748894,27.636692 C17.0934653,27.8206656 18.9004662,27.4322411 20.594854,26.4772296 C21.4025352,26.0220269 22.2555766,25.7358426 23.1542103,25.6231412 C26.4217,25.2134105 29.5415121,27.2002349 30.5067456,30.432231 C31.0089685,32.1138218 30.8625667,33.7642914 30.0821727,35.3918607 C30.0159784,35.5297886 29.9595777,35.6421836 29.8249129,35.906584 C29.7916168,35.9719689 29.7916168,35.9719689 29.7582076,36.0377809 C29.7085612,36.1355006 29.6510988,36.2147666 29.5820617,36.2803491 Z" id="Shape" fill="#FFFFFF"></path>
        </g>
    </g>
</svg>