<?xml version="1.0" encoding="UTF-8"?>
<svg width="48px" height="48px" viewBox="0 0 48 48" version="1.1" xmlns="http://www.w3.org/2000/svg" xmlns:xlink="http://www.w3.org/1999/xlink">
    <!-- Generator: Sketch 49.1 (51147) - http://www.bohemiancoding.com/sketch -->
    <title>xlm</title>
    <desc>Created with Sketch.</desc>
    <defs></defs>
    <g id="48px" stroke="none" stroke-width="1" fill="none" fill-rule="evenodd">
        <g id="xlm" fill-rule="nonzero">
            <circle id="Oval" fill="#14B6E7" cx="24" cy="24" r="24"></circle>
            <path d="M19.1679082,20.2908563 C20.1146886,18.6068738 21.1978234,16.7160279 22.3346428,14.8059907 C25.4887497,9.50661966 33.9192154,8.95667056 34.3776556,9.28723668 L34.3735926,9.29590845 L34.3796676,9.28884972 C34.8386013,9.61928155 37.1708237,17.9131519 33.3484812,22.7321811 C31.9808671,24.4568867 30.6128169,26.1241521 29.386398,27.5943657 C30.7816077,29.7864413 31.7327503,33.491187 28.4487534,38.7106124 C28.293585,38.9570619 27.9976035,39.1575342 27.9766761,38.6474463 C27.9247995,37.4042612 27.4917504,34.9313073 25.1223267,32.6214794 C25.0633749,32.6910812 25.0134348,32.7504351 24.9730363,32.7990198 C24.2446591,33.6745379 23.6391982,33.5569404 22.6378382,32.8361553 C22.6135089,32.8186604 22.5868166,32.7994636 22.5578904,32.7786581 C22.4441305,33.2067813 22.2568998,33.6221469 21.9929188,34.0057721 C21.9634975,34.0491792 21.9297235,34.0879838 21.8985054,34.1293095 C19.6792494,37.254645 16.5486332,38.7911433 14.8412242,37.5588957 C13.1341324,36.3278405 13.4917046,32.7922085 15.6182381,29.5988405 C15.6461701,29.5545537 15.6706911,29.5092606 15.7006986,29.465697 C15.9624057,29.0849256 16.2784215,28.7664672 16.6305656,28.5135252 C16.6299741,28.5130998 16.629384,28.5126756 16.6287954,28.5122522 C15.6280614,27.7918428 15.316144,27.2484435 15.8775342,26.2530932 C15.9005994,26.2122285 15.9273423,26.1643491 15.9576402,26.1097331 C13.0296847,24.6799056 10.6018589,25.1032707 9.4288388,25.4742509 C8.94190292,25.6284626 9.03023616,25.2752149 9.2094537,25.0408143 C12.9179242,20.2054206 16.6350201,19.7563146 19.1679082,20.2908563 Z M17.5996026,29.2107129 C17.4604638,29.3392539 17.3326495,29.4844157 17.2191267,29.6456678 C17.1972768,29.6757069 17.1807694,29.7068306 17.1608413,29.7369773 C15.6624758,31.9334267 15.3986829,34.358228 16.5877879,35.1954234 C17.776153,36.0321987 19.9697925,34.9672574 21.5327946,32.8165799 C21.555711,32.7881531 21.5790886,32.7614951 21.6003523,32.7316124 C21.7030689,32.5857099 21.7894444,32.4332444 21.8598523,32.2764144 C21.2572264,31.842746 20.4415535,31.2556556 19.6338758,30.6743246 C18.9087416,30.1527273 18.1775412,29.6265755 17.5996026,29.2107129 Z M24.9977401,16.055355 C23.9151363,17.6199283 24.283326,19.7814039 25.8208558,20.8841727 C27.3589143,21.9868045 29.4844099,21.6118632 30.5664854,20.0474266 C31.6498869,18.483772 31.2808996,16.3213779 29.7428413,15.2187459 C28.2047829,14.116114 26.0802,14.4902443 24.9977401,16.055355 Z" id="Shape" fill="#FFFFFF"></path>
        </g>
    </g>
</svg>