<?xml version="1.0" encoding="UTF-8"?>
<svg width="48px" height="48px" viewBox="0 0 48 48" version="1.1" xmlns="http://www.w3.org/2000/svg" xmlns:xlink="http://www.w3.org/1999/xlink">
    <!-- Generator: Sketch 49.1 (51147) - http://www.bohemiancoding.com/sketch -->
    <title>xmg</title>
    <desc>Created with Sketch.</desc>
    <defs></defs>
    <g id="48px" stroke="none" stroke-width="1" fill="none" fill-rule="evenodd">
        <g id="xmg" fill-rule="nonzero">
            <circle id="Oval" fill="#004A80" cx="24" cy="24" r="24"></circle>
            <path d="M34.5,29.3101473 L32.2756098,37.5 L13.5,37.5 L13.5,36.1301145 L23.6853658,24.5523732 L13.7048781,11.987725 L13.7048781,10.5 L32.202439,10.5 L32.8463415,16.8780687 L31.6609757,16.8780687 C30.8804839,15.4247062 30.217076,14.3371558 29.6707317,13.6153846 C29.1243875,12.8936134 28.6365875,12.4443544 28.207317,12.2675941 C27.9048765,12.1202939 27.4878075,12.0147303 26.9560975,11.9509002 C26.4243876,11.8870701 25.7878086,11.8551555 25.0463415,11.8551555 L19.792683,11.8551555 L27.6658536,21.6653028 L27.6658536,22.1366611 L17.9341464,33.1841244 L29.0414634,33.1841244 C29.5878077,33.1841244 30.0878027,33.0540111 30.5414634,32.7937807 C30.9951241,32.5335502 31.3878031,32.2070395 31.7195122,31.8142389 C32.0512212,31.4312583 32.3585352,30.9942741 32.6414634,30.5032732 C32.9243916,30.0122725 33.1731696,29.5016392 33.3878049,28.9713585 L34.5,29.3101473 Z" id="Shape" fill="#FFFFFF"></path>
        </g>
    </g>
</svg>