<?xml version="1.0" encoding="UTF-8"?>
<svg width="48px" height="48px" viewBox="0 0 48 48" version="1.1" xmlns="http://www.w3.org/2000/svg" xmlns:xlink="http://www.w3.org/1999/xlink">
    <!-- Generator: Sketch 49.1 (51147) - http://www.bohemiancoding.com/sketch -->
    <title>xmy</title>
    <desc>Created with Sketch.</desc>
    <defs></defs>
    <g id="48px" stroke="none" stroke-width="1" fill="none" fill-rule="evenodd">
        <g id="xmy" fill-rule="nonzero">
            <circle id="Oval" fill="#EC1076" cx="24" cy="24" r="24"></circle>
            <path d="M31.5737704,31.5 C30.6721311,31.5 29.6803278,31.0454546 29.6803278,29.6818182 C29.6803278,29.0106626 30.2044025,26.944793 31.2525516,23.4842094 C31.4666976,22.949282 31.5737704,22.469697 31.5737704,22.0454546 C31.5737704,21.2272728 30.942623,20.4090909 29.7704918,20.4090909 C29.0897717,20.4090909 27.6065574,20.6818182 27.1557376,22.1363637 C26.8551912,23.1060606 26.1639345,25.6818182 25.0819673,29.8636364 C24.6612023,30.9545454 23.9098361,31.5 22.8278688,31.5 C21.204918,31.5 20.9344263,30.3181818 20.9344263,29.5909091 C20.9344263,29.3020061 21.3666003,27.561414 22.2309486,24.3691329 C22.5687861,23.3048625 22.7377049,22.530303 22.7377049,22.0454546 C22.7377049,21.3181818 22.1967213,20.4090909 20.9344263,20.4090909 C19.6721312,20.4090909 18.5,21.3181818 17.9590164,23.3181818 C17.5983606,24.6515151 17.0874317,26.6515152 16.4262296,29.3181818 C16.0655738,30.7727273 15.2540984,31.5 13.9918033,31.5 C12.8497268,31.5 12.2486339,30.8636364 12.1885246,29.5909091 L14.2622951,20.9545455 L9.66393443,20.9545455 C8.44864256,20.9545455 7.5,19.9980629 7.5,18.8181818 C7.5,17.6383008 8.44864256,16.6818182 9.61885247,16.6818182 L17.3278689,16.6818182 C18.409836,16.6818182 19.0710383,17.1969698 19.3114754,18.2272728 C20.3934426,16.8636363 21.8360655,16.5 23.0983607,16.5 C24.3606558,16.5 25.9836066,17.2272728 26.7049181,18.8636364 C27.6967214,17.7727272 29.4098361,16.5 31.8442623,16.5 C34.0983606,16.5 35.9918033,18.0454545 35.9918033,20.7727272 C35.9918033,21.8030303 35.4808743,23.9545455 34.4590164,27.2272728 L38.41487,27.2012511 C39.5715414,27.2012195 40.5,28.1635343 40.5,29.3506098 C40.5,30.5376852 39.5715414,31.5 38.4262295,31.5 L31.5737704,31.5 Z" id="Shape" fill="#FFFFFF"></path>
        </g>
    </g>
</svg>