<?xml version="1.0" encoding="UTF-8"?>
<svg width="48px" height="48px" viewBox="0 0 48 48" version="1.1" xmlns="http://www.w3.org/2000/svg" xmlns:xlink="http://www.w3.org/1999/xlink">
    <!-- Generator: Sketch 49.1 (51147) - http://www.bohemiancoding.com/sketch -->
    <title>xp</title>
    <desc>Created with Sketch.</desc>
    <defs></defs>
    <g id="48px" stroke="none" stroke-width="1" fill="none" fill-rule="evenodd">
        <g id="xp" fill-rule="nonzero">
            <circle id="Oval" fill="#008200" cx="24" cy="24" r="24"></circle>
            <path d="M22.1848059,34.5 L19.4872566,34.5 L17.8653281,28.1257861 L21.8330306,26.0517202 L23.124588,29.7426732 L24.0862407,24.874633 L29.3577561,22.1190694 L29.06703,23.5825785 L32.1132197,23.6114865 C33.2876742,23.5927683 34.1987921,23.1961416 34.8465735,22.4216067 C35.494355,21.6470717 35.8017459,20.6059405 35.7687464,19.2982135 C35.7636164,19.1292384 35.7461343,18.960873 35.7164421,18.7944834 L39.810863,16.6547931 C40.3780155,17.6976962 40.5950976,18.9250679 40.4621093,20.3369079 C40.2427722,22.3945815 39.3535989,24.0411746 37.7945897,25.2766869 C36.2355803,26.5121992 34.2486765,27.1299555 31.8338784,27.1299555 L28.376019,27.1155015 L26.9105085,34.5 L22.1848059,34.5 Z M22.8170775,18.0138013 L25.4420278,18.0138013 L21.3957864,23.7527037 L11.4068184,28.9742526 L15.1073895,23.7404095 L11.5506965,13.5001661 L16.7704025,13.5001661 L18.6145832,20.6828071 L20.1922923,18.0138013 L22.8170775,18.0138013 L20.1921273,18.0138013 L23.01095,13.5 L26.334666,13.5 L34.0235644,13.514454 C35.7701214,13.563077 37.2027973,14.0268234 38.3215926,14.905693 L34.1220681,17.1008734 C34.0188974,17.081995 33.9147143,17.0692357 33.8100573,17.0626617 L30.3686978,17.0337537 L29.9180888,19.2972168 L24.6432734,22.0551063 L25.4418629,18.0138013 L22.8170775,18.0138013 Z M8.67857941,32.9278368 L16.6689288,28.7511294 L13.1478753,34.5 L7.5,34.5 L8.65036479,32.8730113 L8.67857941,32.9278368 Z" id="Shape" fill="#FFFFFF"></path>
        </g>
    </g>
</svg>