<?xml version="1.0" encoding="UTF-8"?>
<svg width="48px" height="48px" viewBox="0 0 48 48" version="1.1" xmlns="http://www.w3.org/2000/svg" xmlns:xlink="http://www.w3.org/1999/xlink">
    <!-- Generator: Sketch 49.1 (51147) - http://www.bohemiancoding.com/sketch -->
    <title>xrp</title>
    <desc>Created with Sketch.</desc>
    <defs></defs>
    <g id="48px" stroke="none" stroke-width="1" fill="none" fill-rule="evenodd">
        <g id="xrp" fill-rule="nonzero">
            <circle id="Oval" fill="#00AAE4" cx="24" cy="24" r="24"></circle>
            <path d="M32.9410886,27.3078243 C31.9057104,26.6953999 30.7397454,26.5178962 29.58483,26.4765792 C28.6158597,26.4419158 27.1701996,25.8058233 27.1701996,24.0000841 C27.1701996,22.6546957 28.2348327,21.571926 29.5853254,21.5236171 C30.7401444,21.4823002 31.9059993,21.3045709 32.9410886,20.6923581 C35.511619,19.1720277 36.6455462,15.9804721 35.6303422,13.1231757 C34.615138,10.2658793 31.7438889,8.56773428 28.8208072,9.09580756 C25.8977256,9.62388085 23.766696,12.2257194 23.7667977,15.2664006 C23.7667977,16.4803527 24.1882668,17.5974898 24.7260531,18.6336141 C25.1783593,19.5050625 25.4071959,21.1224859 23.8559104,22.0399596 C22.7019307,22.722486 21.2617473,22.2903142 20.5423918,21.1109268 C19.9347574,20.1147802 19.2012424,19.1814199 18.1742856,18.5739151 C15.6037984,17.0535867 12.338809,17.6433468 10.4309181,19.9726117 C8.52302729,22.3018767 8.52302729,25.698207 10.4309181,28.0274719 C12.338809,30.3567369 15.6037984,30.946497 18.1742856,29.4261685 C19.2009534,28.8188893 19.9345372,27.886135 20.5417863,26.8905948 C21.0404379,26.0730939 22.2858282,25.031049 23.8558554,25.9603356 C25.0080736,26.6423263 25.364277,28.1365461 24.7255164,29.3673013 C24.1878127,30.4032705 23.7668802,31.5201679 23.7668802,32.7339087 C23.7668848,35.7745143 25.8979297,38.3762206 28.8209499,38.904217 C31.7439699,39.4322134 34.6151186,37.7340729 35.6302786,34.8768403 C36.6454387,32.0196078 35.5115435,28.8281374 32.9410886,27.3078243 Z" id="Shape" fill="#FFFFFF"></path>
        </g>
    </g>
</svg>