<?xml version="1.0" encoding="UTF-8"?>
<svg width="48px" height="48px" viewBox="0 0 48 48" version="1.1" xmlns="http://www.w3.org/2000/svg" xmlns:xlink="http://www.w3.org/1999/xlink">
    <!-- Generator: Sketch 49.1 (51147) - http://www.bohemiancoding.com/sketch -->
    <title>xtz</title>
    <desc>Created with Sketch.</desc>
    <defs></defs>
    <g id="48px" stroke="none" stroke-width="1" fill="none" fill-rule="evenodd">
        <g id="xtz" fill-rule="nonzero">
            <circle id="Oval" fill="#A6E000" cx="24" cy="24" r="24"></circle>
            <path d="M27.2841262,39 C25.0945738,39 23.4993747,38.4846881 22.4977193,37.4536657 C21.4960638,36.4226434 20.995236,35.3115766 20.995236,34.120067 C20.995236,33.6847995 21.0826886,33.3184262 21.2575937,33.0205488 C21.4320937,32.7226713 21.6709688,32.4881129 21.9738137,32.3160766 C22.2762537,32.1444387 22.6491417,32.0584206 23.0916677,32.0584206 C23.5341938,32.0584206 23.9066767,32.1444387 24.2095216,32.3160766 C24.5123665,32.4881129 24.7512415,32.7226713 24.9257418,33.0205488 C25.1006469,33.3184262 25.1880994,33.6847995 25.1880994,34.120067 C25.1880994,34.6473258 25.0597548,35.0766198 24.8034702,35.4087452 C24.5471858,35.7412688 24.2447457,35.9587033 23.8953403,36.0618454 C24.1981852,36.4744135 24.6755304,36.7663176 25.3277806,36.9379555 C25.9796259,37.1215404 26.6318761,37.2131337 27.2841262,37.2131337 C28.192661,37.2131337 29.0133383,36.9726017 29.7473728,36.4915376 C30.4810025,36.0104734 31.0223175,35.3000278 31.3717228,34.3609971 C31.721128,33.4215683 31.8960331,32.3562981 31.8960331,31.1647884 C31.8960331,29.8705349 31.7037186,28.7650433 31.3194942,27.8487117 C30.9466062,26.9208315 30.3935499,26.2334834 29.6599203,25.7870655 C28.9262907,25.3402493 28.1343592,25.1168412 27.2841262,25.1168412 C26.7249969,25.1168412 26.0265912,25.3458246 25.1880994,25.8041893 L23.6507971,26.5600335 L23.6507971,25.8041893 L30.568455,16.7320696 L20.995236,16.7320696 L20.995236,26.1478635 C20.995236,26.9268049 21.1701411,27.5679582 21.5195463,28.0721197 C21.8689516,28.5762813 22.4045985,28.8279639 23.1264868,28.8279639 C23.6856162,28.8279639 24.221263,28.6447772 24.7338321,28.2784039 C25.2459963,27.9116323 25.6885222,27.4652145 26.0614103,26.9379555 C26.1079705,26.8352117 26.1662722,26.7607424 26.2359103,26.7145475 C26.3059534,26.6576002 26.3816646,26.6289276 26.4630441,26.6289276 C26.5913888,26.6289276 26.7424063,26.6918482 26.9173114,26.8176894 C27.0804753,27.0012744 27.1618547,27.2131336 27.1618547,27.4536657 C27.1501134,27.5679582 27.1209626,27.7284457 27.0744021,27.9347298 C26.6784364,28.8052647 26.1310484,29.4695154 25.4326427,29.9278802 C24.7338321,30.3858468 23.9649785,30.6152285 23.1264868,30.6152285 C21.0535377,30.6152285 19.6210976,30.2142088 18.8291661,29.4121699 C18.0372348,28.6105293 17.6412691,27.5221615 17.6412691,26.1478635 L17.6412691,16.7320696 L12.75,16.7320696 L12.75,14.9794512 L17.6412691,14.9794512 L17.6412691,10.9931504 L16.5234152,9.89323404 L16.5234152,9 L19.77252,9 L20.995236,9.61845406 L20.995236,14.9794512 L33.6426547,14.9448051 L34.9005947,16.1821115 L27.1444452,23.811039 C27.6100489,23.6278524 28.0991353,23.5131615 28.6117044,23.4673649 C29.4501962,23.4673649 30.3935499,23.7305961 31.4417658,24.2578551 C32.5013181,24.7731672 33.316732,25.4832146 33.887198,26.3883956 C34.4580687,27.2816295 34.8248835,28.1410138 34.9876424,28.9657521 C35.1625474,29.7904902 35.25,30.523635 35.25,31.1647884 C35.25,32.631078 34.9354139,33.9942257 34.3066463,35.2542312 C33.6778787,36.5142367 32.7227835,37.4536657 31.4417658,38.0721198 C30.1607481,38.6905738 28.7748683,39 27.2841262,39 Z" id="Shape" fill="#FFFFFF"></path>
        </g>
    </g>
</svg>