<?xml version="1.0" encoding="UTF-8"?>
<svg width="48px" height="48px" viewBox="0 0 48 48" version="1.1" xmlns="http://www.w3.org/2000/svg" xmlns:xlink="http://www.w3.org/1999/xlink">
    <!-- Generator: Sketch 49.1 (51147) - http://www.bohemiancoding.com/sketch -->
    <title>xuc</title>
    <desc>Created with Sketch.</desc>
    <defs></defs>
    <g id="48px" stroke="none" stroke-width="1" fill="none" fill-rule="evenodd">
        <g id="xuc" fill-rule="nonzero">
            <circle id="Oval" fill="#25AAE3" cx="24" cy="24" r="24"></circle>
            <path d="M40.5,23.9992781 C40.5,33.1125598 33.1131255,40.5 24.0005415,40.5 C14.8879573,40.5 7.5,33.1129209 7.5,23.9992781 C7.5,14.8856352 14.8879573,7.5 24.0005415,7.5 C33.1131255,7.5 40.5,14.8874401 40.5,24.0007219 L40.5,23.9992781 Z M34.8456932,24.5190882 C34.8554389,24.3310179 34.8456932,24.5190882 34.8456932,24.3292131 C34.8456932,18.9174123 30.8474324,14.1113347 25.6620017,13.3038242 L25.6620017,10.1542803 L22.3029861,11.2011201 L22.3029861,13.3052681 C17.1193602,14.1113347 13.1488925,18.5845894 13.1488925,23.9924195 C13.1488925,29.5287581 17.3052503,34.0875648 22.6653814,34.7405763 L22.6653814,37.8424709 L26.0262018,36.7956311 L26.0262018,34.6261458 C29.8263003,33.8976897 32.9182116,31.1860137 34.1869565,27.6050997 L30.7034127,27.6050997 C29.4148154,30.0023628 26.8953732,31.6332669 23.9835766,31.6332669 C19.9499426,31.6332669 16.6544544,28.5057429 16.3674979,24.5450787 L34.8456932,24.5190882 Z M16.8760788,21.1955523 C17.9925021,18.3611433 20.7516161,16.3519329 23.9835767,16.3519329 C27.2155374,16.3519329 29.9728466,18.3611433 31.0910747,21.1955523 L16.8760788,21.1955523 Z" id="Shape" fill="#FFFFFF"></path>
        </g>
    </g>
</svg>