<?xml version="1.0" encoding="UTF-8"?>
<svg width="48px" height="48px" viewBox="0 0 48 48" version="1.1" xmlns="http://www.w3.org/2000/svg" xmlns:xlink="http://www.w3.org/1999/xlink">
    <!-- Generator: Sketch 49.1 (51147) - http://www.bohemiancoding.com/sketch -->
    <title>xzc</title>
    <desc>Created with Sketch.</desc>
    <defs></defs>
    <g id="48px" stroke="none" stroke-width="1" fill="none" fill-rule="evenodd">
        <g id="xzc" fill-rule="nonzero">
            <circle id="Oval" fill="#23B852" cx="24" cy="24" r="24"></circle>
            <path d="M28.0877862,28.721562 L33.1717557,28.721562 L33.1717557,33.1680815 L17.8969466,33.1680815 L36.8587787,14.1901528 C37.4770992,13.5713073 37.6603053,12.6315789 37.3396947,11.8293718 C36.9961832,11.0271647 36.2175573,10.5 35.3244275,10.5 L12.6755725,10.5 C11.4618321,10.5 10.5,11.4626485 10.5,12.6774194 L10.5,28.721562 L19.9122138,19.3013583 L14.8282443,19.3013583 L14.8282443,14.8319185 L30.0801527,14.8319185 L11.1412214,33.8098471 C10.5229008,34.4286927 10.3396947,35.3684211 10.6603053,36.1706281 C11.0038168,36.9728353 11.7824427,37.5 12.6755725,37.5 L35.3244275,37.5 C36.5152673,37.5 37.5,36.5373515 37.5,35.3225806 L37.5,19.3013583 L28.0877862,28.721562 Z" id="Shape" fill="#FFFFFF"></path>
        </g>
    </g>
</svg>