<?xml version="1.0" encoding="UTF-8"?>
<svg width="48px" height="48px" viewBox="0 0 48 48" version="1.1" xmlns="http://www.w3.org/2000/svg" xmlns:xlink="http://www.w3.org/1999/xlink">
    <!-- Generator: Sketch 49.1 (51147) - http://www.bohemiancoding.com/sketch -->
    <title>zcl</title>
    <desc>Created with Sketch.</desc>
    <defs></defs>
    <g id="48px" stroke="none" stroke-width="1" fill="none" fill-rule="evenodd">
        <g id="zcl" fill-rule="nonzero">
            <circle id="Oval" fill="#C87035" cx="24" cy="24" r="24"></circle>
            <path d="M23.9883693,40.5 C14.8753051,40.4941769 7.5,33.1045535 7.5,23.9796206 C7.5,14.8721573 14.8985528,7.49418025 24.0232407,7.50000345 C33.1188693,7.50582663 40.5116101,14.9012732 40.4999863,24.0029133 C40.4825506,33.0055593 33.2467311,40.4883537 23.9883693,40.5 Z M17.2639974,31.5439395 C17.3104926,31.4565918 17.345364,31.3867135 17.3802354,31.3284816 C18.8564589,28.7255173 20.3346195,26.1244942 21.8147175,23.525412 C23.1107719,21.2485462 24.4029517,18.9697393 25.691257,16.6889913 C25.7285089,16.5986634 25.8210001,16.5440113 25.9179211,16.5550581 C27.4232041,16.5608812 28.9342989,16.5608812 30.4395819,16.5608812 L30.6546223,16.5608812 C28.5623371,20.2527813 26.4874876,23.9155654 24.3952026,27.6016425 C24.4707573,27.6074656 24.5114406,27.6074656 24.5521239,27.6074656 C28.329861,27.6074656 32.1056608,27.6094066 35.8795233,27.6132888 C36.0073851,27.6132888 36.0480684,27.5667033 36.077128,27.4560627 C36.6487354,25.4388573 36.702711,23.309695 36.2340493,21.2660157 C35.6702947,18.7911616 34.4323594,16.7006377 32.6074218,14.9536819 C31.7878113,14.1727005 30.8575524,13.5173118 29.8467678,13.0087377 C27.3360256,11.7276367 24.6916096,11.3200136 21.9193318,11.8091613 C19.1586778,12.2983089 16.8339165,13.6027026 14.9276123,15.6641106 C14.6777004,15.9319771 14.4510362,16.2231364 14.2127482,16.5026494 C14.2185601,16.5201189 14.2301839,16.5317653 14.2359958,16.5492349 L25.0054524,16.5492349 C24.9473334,16.6598754 24.9066501,16.7414001 24.8601549,16.8171015 C24.2034097,17.9817387 23.5408528,19.1405527 22.8899196,20.3051901 C22.8373947,20.4226953 22.7155201,20.4931441 22.5877006,20.4798856 C19.1935492,20.4740625 15.8013351,20.4721213 12.4110582,20.4740625 L12.2076416,20.4740625 C10.4873182,25.8779793 12.9166938,32.656168 19.0075683,35.3697729 C24.9066501,38.001853 31.090515,35.5794076 33.9906547,31.5322932 C28.4170396,31.5439395 22.8414871,31.5478216 17.2639974,31.5439395 Z M36.2282374,34.3914776 C38.3205226,32.0680263 40.1803317,28.2421929 40.0640935,23.6476989 C39.9711031,19.8626278 38.6750487,16.5375885 36.251485,13.5968795 C35.4959376,14.3597169 34.757826,15.0992614 34.0255261,15.8388061 C37.8671941,20.4565929 38.0299275,27.2871903 34.0662094,32.1903132 L36.2282374,34.3914776 Z" id="Shape" fill="#FFFFFF"></path>
        </g>
    </g>
</svg>