<?xml version="1.0" encoding="UTF-8"?>
<svg width="48px" height="48px" viewBox="0 0 48 48" version="1.1" xmlns="http://www.w3.org/2000/svg" xmlns:xlink="http://www.w3.org/1999/xlink">
    <!-- Generator: Sketch 49.1 (51147) - http://www.bohemiancoding.com/sketch -->
    <title>zec</title>
    <desc>Created with Sketch.</desc>
    <defs></defs>
    <g id="48px" stroke="none" stroke-width="1" fill="none" fill-rule="evenodd">
        <g id="zec" fill-rule="nonzero">
            <circle id="Oval" fill="#ECB244" cx="24" cy="24" r="24"></circle>
            <path d="M22.643619,29.7692307 C25.889245,29.7692307 28.9411025,29.7692307 32.0898442,29.7692307 C32.0898442,31.4615385 32.0898442,33.1025641 32.0898442,34.7948718 C30.2005992,34.7948718 28.3113542,34.7948718 26.2767825,34.7948718 C26.3736669,36.2307693 26.4221091,37.5641025 26.5189934,39 C24.8719593,39 23.3218095,39 21.6263331,39 C21.6263331,37.6666666 21.6263331,36.2820513 21.6263331,34.8461538 C19.6402037,34.8461538 17.7994008,34.8461538 15.8132713,34.8461538 C15.8132713,33.2051281 15.6195027,31.5641025 15.9101557,30.025641 C16.0554823,29.2051283 16.9274416,28.4871795 17.4603056,27.7692307 C19.3011084,25.4615385 21.1419112,23.2051283 23.0311564,20.8974359 C23.7577892,20.0256411 24.4844218,19.2051282 25.307939,18.2307693 C22.2076394,18.2307693 19.2526662,18.2307693 16.249251,18.2307693 C16.249251,16.5384615 16.249251,14.8974359 16.249251,13.2051282 C17.9931696,13.2051282 19.7855303,13.2051282 21.6263331,13.2051282 C21.6263331,11.7692308 21.6263331,10.4358974 21.6263331,9 C23.2249251,9 24.7266327,9 26.3252247,9 C26.3252247,10.3333333 26.3252247,11.6666667 26.3252247,13.1025641 C28.2629119,13.1025641 30.152157,13.1025641 32.1867286,13.1025641 C32.1867286,14.7948718 32.3804973,16.4358975 32.0898442,17.974359 C31.9445177,18.7948717 31.0725584,19.5128205 30.4912523,20.2307693 C28.6504494,22.5384615 26.8096465,24.7948717 24.9204015,27.1025641 C24.1937687,28.0256411 23.4671359,28.8461538 22.643619,29.7692307 Z" id="Shape" fill="#FFFFFF"></path>
        </g>
    </g>
</svg>