<?xml version="1.0" encoding="UTF-8"?>
<svg width="48px" height="48px" viewBox="0 0 48 48" version="1.1" xmlns="http://www.w3.org/2000/svg" xmlns:xlink="http://www.w3.org/1999/xlink">
    <!-- Generator: Sketch 49.1 (51147) - http://www.bohemiancoding.com/sketch -->
    <title>zrx</title>
    <desc>Created with Sketch.</desc>
    <defs></defs>
    <g id="48px" stroke="none" stroke-width="1" fill="none" fill-rule="evenodd">
        <g id="zrx" fill-rule="nonzero">
            <circle id="Oval" fill="#302C2C" cx="24" cy="24" r="24"></circle>
            <path d="M23.2436129,40.5 C22.8388584,40.4576189 22.4334807,40.4205924 22.029474,40.3718189 C19.8307041,40.1066151 17.7701622,39.4227057 15.8464358,38.3267736 C15.8175188,38.3103359 15.7914686,38.2889585 15.7358783,38.2503132 C19.0455834,35.7772227 22.3395422,33.3159207 25.6518648,30.8408793 C25.9881077,31.1685548 26.3188247,31.4902113 26.6487524,31.8126981 C27.2029943,32.3543132 27.7620558,32.8911132 28.3068249,33.4421094 C28.440732,33.5774717 28.5382853,33.5753547 28.6968716,33.4950755 C30.3685301,32.6491132 31.7349816,31.458249 32.7889553,29.9099057 C32.8393938,29.8358114 32.8892922,29.761385 32.9487465,29.6733849 C32.9959443,29.7274718 33.0388212,29.7708075 33.0750921,29.8191246 C34.2262035,31.3507812 35.37503,32.8840981 36.5300883,34.4128076 C36.6299682,34.5449736 36.6173379,34.6236339 36.5116413,34.7436378 C33.8364062,37.7816303 30.5134473,39.6543284 26.5077822,40.2947358 C26.0032308,40.3753887 25.490661,40.4058566 24.9819549,40.4614377 C24.9143159,40.4688264 24.8478401,40.486883 24.7808657,40.5 L23.2436129,40.5 Z M24.6977709,7.5 C24.9784234,7.52822641 25.2589512,7.55786415 25.53977,7.58443018 C27.9025689,7.80791698 30.1138032,8.50876227 32.1740958,9.68538868 C32.2030543,9.70186793 32.2289799,9.72353584 32.2790443,9.75881887 C28.9154107,12.1712641 25.5675235,14.5723774 22.2008985,16.9868567 C22.0687363,16.8615396 21.9387762,16.7410792 21.8118904,16.6175472 C21.1029676,15.9274113 20.3921337,15.2391849 19.6890276,14.5431962 C19.576351,14.4316604 19.4907219,14.419249 19.3500842,14.489566 C17.6476806,15.3403434 16.2624081,16.5505924 15.1960948,18.1255849 C15.1574557,18.1826188 15.1187751,18.2396529 15.044073,18.3498189 C13.807,16.7016453 12.5857565,15.074517 11.3428669,13.4185811 C11.7159623,13.0226226 12.0608886,12.6288226 12.4345656,12.2644113 C14.8696155,9.88982263 17.7586536,8.37941887 21.1087843,7.77167925 C21.7537242,7.65466414 22.4127901,7.61585283 23.0652085,7.5396 C23.1390381,7.53096604 23.2118707,7.51340754 23.2851603,7.5 L24.6977709,7.5 Z M9.68894499,15.8015838 C12.2023532,19.0963121 14.6884233,22.3551347 17.1814733,25.6232139 C16.6730166,26.1445725 16.1713322,26.6593725 15.669232,27.1737988 C15.2923558,27.5600026 14.9190943,27.9499008 14.535155,28.3290065 C14.426384,28.4363913 14.4227694,28.5194517 14.4885389,28.6514101 C15.3370608,30.3540857 16.548333,31.7380516 18.1234353,32.8051763 C18.174954,32.8400856 18.2270129,32.8742064 18.2775345,32.9105687 C18.2870904,32.9174178 18.2904143,32.9329422 18.3177939,32.9839989 C16.6977372,34.1987724 15.0727365,35.4172404 13.4261311,36.6518554 C10.5018609,34.1347234 8.60297979,31.0306063 7.84095945,27.2673612 C7.02492753,23.2374177 7.68636168,19.430463 9.68894499,15.8015838 Z M30.9511364,22.3561227 C31.4176719,21.8714584 31.8724494,21.3986661 32.327684,20.9263302 C32.7117063,20.5278396 33.0906599,20.1242019 33.4839888,19.7350924 C33.6063875,19.6139679 33.6045177,19.5229792 33.5328486,19.3785264 C32.6774712,17.6551377 31.4550645,16.254651 29.8575681,15.1808434 C29.801853,15.1433604 29.7479661,15.1032207 29.6541936,15.0365566 C31.3003421,13.8012358 32.9250105,12.5821038 34.5719483,11.3462019 C37.358115,13.7322057 39.2073885,16.6704095 40.0564091,20.2180132 C41.1161579,24.6459075 40.1722016,29.0263566 38.3360571,32.110134 C35.8778238,28.8633075 33.423579,25.6217113 30.9511364,22.3561227 Z" id="Shape" fill="#FFFFFF"></path>
        </g>
    </g>
</svg>