<svg width="73" height="84" viewBox="0 0 73 84" fill="none" xmlns="http://www.w3.org/2000/svg">
<path d="M45.9771 58.9464C46.0152 59.0215 46.0532 59.0965 46.0913 59.1528C46.1293 59.2091 46.1864 59.2842 46.2435 59.3405C46.3006 59.3968 46.3577 59.4531 46.4148 59.4906C46.4909 59.5282 46.548 59.5657 46.6241 59.6032C46.7003 59.6408 46.7764 59.6595 46.8525 59.6783C47.0047 59.7158 47.157 59.7158 47.3283 59.6783C47.4044 59.6595 47.4805 59.6408 47.5566 59.6032C47.6327 59.5657 47.6898 59.5282 47.766 59.4906C47.8421 59.4531 47.8992 59.3968 47.9563 59.3405C48.0133 59.2842 48.0704 59.2279 48.1085 59.1528C48.1466 59.0965 48.1846 59.0215 48.2227 58.9464C48.2607 58.8713 48.2798 58.7963 48.2988 58.7212C48.3178 58.6461 48.3178 58.5711 48.3178 58.496C48.3178 58.4209 48.3178 58.3459 48.2988 58.2708C48.2798 58.1957 48.2607 58.1207 48.2227 58.0456C48.1846 57.9705 48.1466 57.9142 48.1085 57.8392C48.0704 57.7829 48.0133 57.7078 47.9563 57.6515C47.8992 57.5952 47.8421 57.5389 47.766 57.5014C47.7089 57.4638 47.6327 57.4263 47.5566 57.3888C47.4805 57.3512 47.4044 57.3325 47.3283 57.3137C47.2521 57.2949 47.176 57.2949 47.0999 57.2949C47.0238 57.2949 46.9477 57.2949 46.8715 57.3137C46.7954 57.3325 46.7193 57.3512 46.6432 57.3888C46.567 57.4263 46.4909 57.4638 46.4338 57.5014C46.3767 57.5389 46.3006 57.5952 46.2435 57.6515C46.1864 57.7078 46.1293 57.7641 46.0913 57.8204C46.0532 57.8955 46.0152 57.9518 45.9771 58.0268C45.939 58.1019 45.92 58.177 45.901 58.252C45.882 58.3271 45.882 58.4022 45.882 58.4772C45.882 58.5523 45.882 58.6274 45.901 58.7024C45.92 58.815 45.939 58.8901 45.9771 58.9464Z" fill="#F28E2A"/>
<path d="M37.0329 58.9464C37.071 59.0215 37.109 59.0965 37.1471 59.1528C37.1851 59.2091 37.2422 59.2842 37.2993 59.3405C37.3564 59.3968 37.4135 59.4531 37.4706 59.4906C37.5467 59.5282 37.6038 59.5657 37.6799 59.6032C37.756 59.6408 37.8322 59.6595 37.9083 59.6783C38.0605 59.7158 38.2128 59.7158 38.384 59.6783C38.4602 59.6595 38.5363 59.6408 38.6124 59.6032C38.6885 59.5657 38.7646 59.5282 38.8217 59.4906C38.8979 59.4531 38.9549 59.3968 39.012 59.3405C39.0691 59.2842 39.1262 59.2279 39.1643 59.1716C39.2023 59.0965 39.2404 59.0402 39.2785 58.9652C39.3165 58.8901 39.3356 58.815 39.3546 58.74C39.3736 58.6461 39.3736 58.5711 39.3736 58.496C39.3736 58.4209 39.3736 58.3459 39.3546 58.2708C39.3356 58.1957 39.3165 58.1207 39.2785 58.0456C39.2404 57.9705 39.2023 57.9142 39.1643 57.8392C39.1262 57.7829 39.0691 57.7078 39.012 57.6515C38.7837 57.4263 38.4792 57.2949 38.1557 57.2949C38.0796 57.2949 38.0034 57.2949 37.9273 57.3137C37.8512 57.3325 37.7751 57.3512 37.699 57.3888C37.6228 57.4263 37.5467 57.4638 37.4896 57.5014C37.4325 57.5389 37.3564 57.5952 37.2993 57.6515C37.2422 57.7078 37.1851 57.7641 37.1471 57.8204C37.109 57.8955 37.071 57.9518 37.0329 58.0268C36.9948 58.1019 36.9758 58.177 36.9568 58.252C36.9377 58.3271 36.9377 58.4022 36.9377 58.4772C36.9377 58.5523 36.9377 58.6274 36.9568 58.7024C36.9758 58.7775 36.9948 58.8901 37.0329 58.9464Z" fill="#F28E2A"/>
<path d="M28.0887 58.9464C28.1267 59.0215 28.1648 59.0965 28.2029 59.1528C28.2409 59.2091 28.298 59.2842 28.3551 59.3405C28.4122 59.3968 28.4693 59.4531 28.5264 59.4906C28.6025 59.5282 28.6596 59.5657 28.7357 59.6032C28.8118 59.6408 28.8879 59.6595 28.9641 59.6783C29.1163 59.7158 29.2686 59.7158 29.4398 59.6783C29.5159 59.6595 29.5921 59.6408 29.6682 59.6032C29.7443 59.5657 29.8204 59.5282 29.8775 59.4906C29.9536 59.4531 30.0107 59.3968 30.0678 59.3405C30.1249 59.2842 30.182 59.2279 30.2201 59.1716C30.2581 59.0965 30.2962 59.0402 30.3342 58.9652C30.3723 58.8901 30.3913 58.815 30.4104 58.74C30.4294 58.6649 30.4294 58.5898 30.4294 58.5148C30.4294 58.4397 30.4294 58.3647 30.4104 58.2896C30.3913 58.2145 30.3723 58.1394 30.3342 58.0644C30.2962 57.9893 30.2581 57.933 30.2201 57.858C30.182 57.8017 30.1249 57.7266 30.0678 57.6703C29.8395 57.4451 29.535 57.3137 29.2115 57.3137C29.1353 57.3137 29.0592 57.3137 28.9831 57.3325C28.907 57.3513 28.8309 57.37 28.7547 57.4076C28.6786 57.4451 28.6215 57.4826 28.5454 57.5202C28.4883 57.5577 28.4122 57.614 28.3551 57.6703C28.298 57.7266 28.2409 57.7829 28.2029 57.8392C28.1648 57.9143 28.1267 57.9705 28.0887 58.0456C28.0506 58.1207 28.0316 58.1958 28.0126 58.2708C27.9935 58.3459 27.9935 58.4397 27.9935 58.5148C27.9935 58.5898 27.9935 58.6649 28.0126 58.74C28.0316 58.815 28.0506 58.8713 28.0887 58.9464Z" fill="#F28E2A"/>
<path d="M10.2003 58.9464C10.2383 59.0215 10.2764 59.0965 10.3144 59.1528C10.3525 59.2091 10.4096 59.2842 10.4667 59.3405C10.5238 59.3968 10.5809 59.4531 10.6379 59.4906C10.7141 59.5282 10.7712 59.5657 10.8473 59.6032C10.9234 59.6408 10.9995 59.6595 11.0756 59.6783C11.2279 59.7158 11.3801 59.7158 11.5514 59.6783C11.6275 59.6595 11.7036 59.6408 11.7798 59.6032C11.8559 59.5657 11.932 59.5282 11.9891 59.4906C12.0652 59.4531 12.1223 59.3968 12.1794 59.3405C12.2365 59.2842 12.2936 59.2279 12.3316 59.1716C12.3697 59.0965 12.4078 59.0402 12.4458 58.9652C12.4839 58.8901 12.5029 58.815 12.5219 58.74C12.541 58.6649 12.541 58.5898 12.541 58.5148C12.541 58.4397 12.541 58.3647 12.5219 58.2896C12.5029 58.2145 12.4839 58.1394 12.4458 58.0644C12.4078 57.9893 12.3697 57.933 12.3316 57.858C12.2936 57.8017 12.2365 57.7266 12.1794 57.6703C12.1223 57.614 12.0652 57.5765 11.9891 57.5202C11.932 57.4826 11.8559 57.4451 11.7798 57.4076C11.7036 57.37 11.6275 57.3513 11.5514 57.3325C11.4753 57.3137 11.3992 57.3137 11.323 57.3137C10.9995 57.3137 10.695 57.4451 10.4667 57.6703C10.4096 57.7266 10.3525 57.7829 10.3144 57.858C10.2764 57.9142 10.2383 57.9893 10.2003 58.0644C10.1622 58.1394 10.1432 58.2145 10.1241 58.2896C10.1051 58.3647 10.1051 58.4397 10.1051 58.5148C10.1051 58.5898 10.1051 58.6649 10.1241 58.74C10.1432 58.815 10.1622 58.8901 10.2003 58.9464Z" fill="#F28E2A"/>
<path d="M44.5878 11.2789C44.5497 11.2038 44.5117 11.1287 44.4736 11.0724C44.4355 11.0161 44.3784 10.9411 44.3213 10.8848C44.2643 10.8285 44.2072 10.7722 44.1501 10.7346C44.074 10.6971 44.0169 10.6595 43.9407 10.622C43.8646 10.5845 43.7885 10.5657 43.7124 10.5469C43.5601 10.5094 43.4079 10.5094 43.2366 10.5469C43.1605 10.5657 43.0844 10.5845 43.0083 10.622C42.9322 10.6595 42.856 10.6971 42.7989 10.7346C42.7419 10.7722 42.6657 10.8285 42.6086 10.8848C42.5516 10.9411 42.4945 10.9974 42.4564 11.0537C42.4183 11.11 42.3803 11.185 42.3422 11.2601C42.3042 11.3352 42.2851 11.4102 42.2661 11.4853C42.2471 11.5604 42.2471 11.6354 42.2471 11.7105C42.2471 11.7856 42.2471 11.8606 42.2661 11.9357C42.2851 12.0108 42.3042 12.0858 42.3422 12.1609C42.3803 12.236 42.4183 12.2923 42.4564 12.3673C42.4945 12.4424 42.5516 12.4987 42.6086 12.555C42.6657 12.6113 42.7228 12.6488 42.7989 12.7051C42.856 12.7427 42.9322 12.7802 43.0083 12.8177C43.0844 12.8553 43.1605 12.874 43.2366 12.8928C43.3889 12.9303 43.5601 12.9303 43.7124 12.8928C43.7885 12.874 43.8646 12.8553 43.9407 12.8177C44.0169 12.7802 44.074 12.7614 44.1501 12.7051C44.2262 12.6676 44.2833 12.6113 44.3213 12.555C44.3784 12.4987 44.4355 12.4424 44.4736 12.3673C44.5117 12.2923 44.5497 12.236 44.5878 12.1609C44.6258 12.0858 44.6449 12.0108 44.6639 11.9545C44.6829 11.8606 44.6829 11.7856 44.6829 11.7105C44.6829 11.6354 44.6829 11.5604 44.6639 11.4853C44.6449 11.429 44.6258 11.3539 44.5878 11.2789Z" fill="#F28E2A"/>
<path d="M73 58.4959C73 53.4664 68.8514 49.394 63.7703 49.394H9.22967C4.14859 49.394 0 53.4852 0 58.4959C0 63.5254 4.14859 67.5978 9.22967 67.5978H16.2709L14.501 69.0241C13.7969 69.5871 13.4734 70.4879 13.6637 71.3699C13.854 72.2519 14.5201 72.9275 15.4145 73.1528L16.2518 73.3592L14.2536 81.0536C14.0824 81.6916 14.482 82.3297 15.129 82.4986L20.8571 83.9436C21.1616 84.0187 21.5042 83.9812 21.7706 83.8123C22.056 83.6434 22.2464 83.3994 22.3225 83.0804L24.3206 75.386L25.158 75.5924C26.0334 75.8176 26.9659 75.5361 27.5558 74.8605C28.1457 74.1849 28.317 73.2466 27.9745 72.4208L25.9763 67.5978H63.7703C68.8514 67.6166 73 63.5254 73 58.4959ZM23.9591 72.8525C23.5975 72.7587 23.2169 72.815 22.8743 73.0026C22.5508 73.1903 22.3225 73.4906 22.2273 73.8659L20.2862 81.3538L16.8989 80.4906L18.8399 73.0214C18.9351 72.6648 18.878 72.2707 18.6877 71.9517C18.4974 71.6326 18.1929 71.4074 17.8123 71.3136L17.0321 71.1259L16.4802 72.4959L16.0425 72.327L16.366 72.6461L16.0235 72.3082H15.5667V72.1206L16.6705 71.0321L16.0425 70.882L22.5508 65.6648L25.7099 73.3217L23.9591 72.8525ZM55.7967 65.2332H25.0057L24.1874 63.2627C24.0352 62.9061 23.7307 62.6434 23.3691 62.5495C23.0076 62.4557 22.6079 62.5495 22.3034 62.7747L19.2396 65.2332H9.22967C5.46168 65.2332 2.39781 62.2117 2.39781 58.4959C2.39781 54.7801 5.46168 51.7586 9.22967 51.7586H55.7776V65.2332H55.7967ZM58.2135 51.7774H63.7703C67.5383 51.7774 70.6022 54.7989 70.6022 58.5147C70.6022 62.2305 67.5383 65.252 63.7703 65.252H58.2135V51.7774Z" fill="#F28E2A"/>
<path d="M62.6665 61.5549C62.8759 61.7238 63.1423 61.8177 63.4087 61.8177C63.7893 61.8177 64.1319 61.6488 64.3602 61.3673L66.3203 58.9276C66.6629 58.496 66.6629 57.8954 66.3203 57.445L64.3602 55.0053C64.1509 54.7614 63.8654 54.5925 63.561 54.5549C63.5039 54.5549 63.4658 54.5549 63.4278 54.5549C63.1613 54.5549 62.8949 54.6488 62.6856 54.8177C62.4382 55.0053 62.2669 55.3056 62.2289 55.6059C62.1908 55.9249 62.2859 56.2252 62.4762 56.4879L63.8464 58.1957L62.4762 59.9035C62.2859 60.1474 62.1908 60.4665 62.2289 60.7855C62.2669 61.1045 62.4192 61.3485 62.6665 61.5549Z" fill="#F28E2A"/>
<path d="M21.371 58.0456C21.3329 57.9705 21.2949 57.9142 21.2568 57.8392C21.2187 57.7829 21.1617 57.7078 21.1046 57.6515C20.8762 57.4263 20.5717 57.2949 20.2482 57.2949C20.1721 57.2949 20.096 57.2949 20.0198 57.3137C19.9437 57.3325 19.8676 57.3512 19.7915 57.3888C19.7154 57.4263 19.6583 57.4638 19.5821 57.5014C19.5251 57.5389 19.4489 57.5952 19.3918 57.6515C19.3348 57.7078 19.2777 57.7641 19.2396 57.8392C19.2015 57.8955 19.1635 57.9705 19.1254 58.0456C19.0874 58.1207 19.0683 58.1957 19.0493 58.2708C19.0303 58.3459 19.0303 58.4209 19.0303 58.496C19.0303 58.5711 19.0303 58.6461 19.0493 58.7212C19.0683 58.7963 19.0874 58.8713 19.1254 58.9464C19.1635 59.0215 19.2015 59.0965 19.2396 59.1528C19.2777 59.2091 19.3348 59.2842 19.3918 59.3405C19.4489 59.3968 19.506 59.4531 19.5631 59.4906C19.6392 59.5282 19.6963 59.5657 19.7725 59.6032C19.8486 59.6408 19.9247 59.6595 20.0008 59.6783C20.1531 59.7158 20.3053 59.7158 20.4766 59.6783C20.5527 59.6595 20.6288 59.6408 20.7049 59.6032C20.781 59.5657 20.8572 59.5282 20.9143 59.4906C20.9904 59.4531 21.0475 59.3968 21.1046 59.3405C21.1617 59.2842 21.2187 59.2279 21.2568 59.1716C21.2949 59.0965 21.3329 59.0402 21.371 58.9652C21.409 58.8901 21.4281 58.815 21.4471 58.74C21.4661 58.6649 21.4661 58.5898 21.4661 58.5148C21.4661 58.4397 21.4661 58.3646 21.4471 58.2896C21.409 58.1957 21.39 58.1207 21.371 58.0456Z" fill="#F28E2A"/>
<path d="M36.4239 0C23.5594 0 13.0928 10.3217 13.0928 23.008C13.0928 30.1019 16.3469 36.689 22.037 41.0992L22.075 41.1367C22.1131 41.1555 22.1321 41.193 22.1702 41.2118C25.9382 44.0831 30.4293 45.7346 35.1869 45.9785H35.282C35.4343 45.9785 35.5865 45.9973 35.7388 45.9973H35.872C36.2526 45.9973 36.6142 45.9973 36.9948 45.9973H37.128C37.2802 45.9973 37.4325 45.9785 37.6037 45.9785H37.6989C42.5135 45.7346 47.0808 44.0456 50.8868 41.0804C50.9249 41.0429 50.963 41.0241 51.001 40.9866L51.0391 40.949C56.5959 36.5389 59.793 30.008 59.793 23.008C59.793 16.8713 57.3571 11.1099 52.9611 6.75603C48.5651 2.40214 42.6467 0 36.4239 0ZM48.8887 39.5415L48.6984 39.6729C45.7487 41.7936 42.2661 43.1072 38.6504 43.5013C38.5362 43.5201 38.4411 43.5201 38.3269 43.5389C38.2127 43.5576 38.0985 43.5576 37.9653 43.5764C37.756 43.5952 37.5466 43.5952 37.3373 43.6139C37.2612 43.6139 37.2041 43.6139 37.128 43.6139C36.8806 43.6139 36.6522 43.6327 36.4048 43.6327C36.1574 43.6327 35.9291 43.6327 35.6817 43.6139H35.4723C35.282 43.6139 35.0727 43.5952 34.8824 43.5764C34.7682 43.5764 34.654 43.5576 34.5399 43.5389C34.4257 43.5201 34.2925 43.5201 34.1783 43.5013C34.0451 43.4826 33.9119 43.4638 33.7596 43.4638L33.6835 43.445C30.3151 43.0134 27.061 41.756 24.2826 39.8043L24.0923 39.6729V36.4075C24.0923 32.4665 26.0524 28.7319 29.3256 26.4424L29.611 26.2359L29.8965 26.4424C31.7995 27.9062 34.0831 28.6756 36.4809 28.6756C38.8978 28.6756 41.1624 27.9062 43.0654 26.4424L43.3509 26.2359L43.6363 26.4424C46.9095 28.7319 48.8696 32.4665 48.8696 36.4075V39.5415H48.8887ZM52.1428 36.5764L51.3245 37.496L51.3055 36.2761C51.2674 31.7158 49.117 27.5308 45.4252 24.7721L45.0636 24.5094L45.33 24.134C46.586 22.3512 47.233 20.2869 47.233 18.1287C47.233 17.6032 47.195 17.0777 47.1189 16.5523C47.0237 15.8954 46.4147 15.445 45.7487 15.5576C45.0826 15.6515 44.6259 16.252 44.7401 16.9088C44.7972 17.3029 44.8352 17.7158 44.8352 18.1287C44.8352 19.8928 44.2833 21.563 43.2177 22.9705C42.3994 24.0777 41.2956 24.9785 40.0396 25.5603C38.9358 26.067 37.756 26.3298 36.519 26.3298C35.3011 26.3298 34.1022 26.067 32.9984 25.5603C31.7424 24.9785 30.6387 24.0777 29.8204 22.9705C28.7737 21.563 28.2028 19.874 28.2028 18.1287C28.2028 13.6059 31.9327 9.92761 36.519 9.92761C37.147 9.92761 37.775 10.0027 38.384 10.134C38.7075 10.2091 39.031 10.1528 39.2974 9.98391C39.5638 9.81501 39.7541 9.55228 39.8303 9.23324C39.9064 8.91421 39.8493 8.61394 39.678 8.33244C39.5068 8.05094 39.2403 7.88203 38.9168 7.80697C38.1366 7.63807 37.3183 7.54423 36.519 7.54423C30.6006 7.54423 25.7859 12.2922 25.7859 18.1287C25.7859 20.2869 26.452 22.37 27.689 24.134L27.9554 24.5094L27.5938 24.7721C23.8639 27.5684 21.7135 31.8096 21.7135 36.4075V37.6649L20.8761 36.7453C17.4317 32.9544 15.5286 28.0751 15.5286 22.9893C15.5286 11.6166 24.9106 2.36461 36.4429 2.36461C47.9752 2.36461 57.3571 11.6166 57.3571 22.9893C57.3381 28 55.4922 32.823 52.1428 36.5764Z" fill="#F28E2A"/>
</svg>
