<svg width="77" height="77" viewBox="0 0 77 77" fill="none" xmlns="http://www.w3.org/2000/svg">
<g clip-path="url(#clip0)">
<path d="M55.8777 17.3876C56.5603 17.3876 57.1225 17.9498 57.1225 18.6325H59.6122C59.6122 17.0061 58.5682 15.6408 57.1225 15.1388V13.6531C57.1225 12.9704 56.5603 12.4082 55.8777 12.4082C55.195 12.4082 54.6328 12.9704 54.6328 13.6531V15.1188C53.1872 15.6408 52.1431 17.0061 52.1431 18.6124C52.1431 20.6403 53.7895 22.3068 55.8174 22.3268C56.4399 22.3268 57.0021 22.7686 57.0824 23.3709C57.2028 24.1339 56.6005 24.7965 55.8576 24.7965C55.1749 24.7965 54.6127 24.2343 54.6127 23.5516H52.123C52.123 25.178 53.1671 26.5433 54.6127 27.0452V28.5109C54.6127 29.1936 55.1749 29.7558 55.8576 29.7558C56.5403 29.7558 57.1024 29.1936 57.1024 28.5109V27.0452C58.5481 26.5232 59.5921 25.1579 59.5921 23.5516C59.5921 21.5036 57.9457 19.8572 55.9178 19.8171C55.2954 19.8171 54.7332 19.3753 54.6529 18.773C54.5324 18.0502 55.1348 17.3876 55.8777 17.3876Z" fill="#979797"/>
<path d="M55.8778 7.44897C48.3485 7.44897 42.2246 13.5728 42.2246 21.1022C42.2246 28.6315 48.3485 34.7554 55.8778 34.7554C63.4071 34.7554 69.531 28.6315 69.531 21.1022C69.531 13.5728 63.4071 7.44897 55.8778 7.44897ZM55.8778 32.2857C49.7138 32.2857 44.6942 27.2662 44.6942 21.1022C44.6942 14.9382 49.7138 9.9186 55.8778 9.9186C62.0418 9.9186 67.0614 14.9382 67.0614 21.1022C67.0614 27.2662 62.0418 32.2857 55.8778 32.2857Z" fill="#979797"/>
<path d="M73.5867 15.3605C73.2855 14.4168 72.904 13.5133 72.4824 12.67L74.0887 9.45752L67.5632 2.93209L64.3507 4.53835C63.4874 4.09663 62.5838 3.73522 61.6602 3.43405L60.5158 0.020752H51.2798L50.1353 3.43405C49.1917 3.73522 48.2881 4.11671 47.4449 4.53835L44.2323 2.93209L37.7069 9.45752L39.3132 12.67C38.8714 13.5334 38.51 14.4369 38.2089 15.3605L34.7956 16.505V25.741L38.2089 26.8854C38.51 27.8291 38.8915 28.7326 39.3132 29.5759L37.7069 32.7884L39.7147 34.7962H3.73455C1.66649 34.7762 0 36.4426 0 38.4906V73.2661C0 75.3141 1.66649 77.0007 3.73455 77.0007H53.4081C55.4561 77.0007 57.1426 75.3342 57.1426 73.2661V42.2252H60.5158L61.6602 38.8119C62.6039 38.5107 63.5074 38.1292 64.3507 37.7076L67.5632 39.3138L74.0887 32.7884L72.4824 29.5759C72.9241 28.7125 73.2855 27.809 73.5867 26.8854L77 25.741V16.505L73.5867 15.3605ZM3.73455 37.2458H42.1643L44.2123 39.2938L47.4248 37.6875C48.2881 38.1292 49.1917 38.4906 50.1153 38.7918L50.4164 39.7154H2.4897V38.4706C2.4897 37.808 3.03181 37.2458 3.73455 37.2458ZM53.388 74.511H3.73455C3.05189 74.511 2.4897 73.9488 2.4897 73.2661V72.0213H54.6529V73.2661C54.6329 73.9488 54.0707 74.511 53.388 74.511ZM54.6329 49.6742V59.6129V49.6742ZM54.6329 62.0825V69.5316H2.4897V42.2252H54.6529V47.1845L54.6329 62.0825ZM74.5103 23.9339L71.5789 24.9177L71.3982 25.5402C71.0568 26.7449 70.595 27.8692 69.9927 28.9334L69.6714 29.5157L71.0568 32.2865L67.0613 36.282L64.2905 34.8966L63.7082 35.2179C62.6641 35.8001 61.5197 36.282 60.315 36.6234L59.6926 36.8041L58.7087 39.7355H53.0467L52.0628 36.8041L51.4404 36.6234C50.2357 36.282 49.1113 35.8202 48.0472 35.2179L47.4649 34.8966L44.6941 36.282L40.6986 32.2865L42.084 29.5157L41.7627 28.9334C41.1804 27.8893 40.6986 26.7449 40.3572 25.5402L40.1765 24.9177L37.2451 23.9339V18.2719L40.1765 17.288L40.3572 16.6656C40.6986 15.4609 41.1604 14.3365 41.7627 13.2724L42.084 12.6901L40.6986 9.91932L44.6941 5.92375L47.4649 7.30915L48.0472 6.9879C49.0913 6.40563 50.2357 5.92375 51.4404 5.58242L52.0628 5.40172L53.0467 2.4703H58.7087L59.6926 5.40172L60.315 5.58242C61.5197 5.92375 62.6441 6.38555 63.7082 6.9879L64.2905 7.30915L67.0613 5.92375L71.0568 9.91932L69.6714 12.7102L69.9927 13.2925C70.575 14.3365 71.0568 15.481 71.3982 16.6857L71.5789 17.3081L74.5103 18.2919V23.9339Z" fill="#979797"/>
<path d="M12.4084 12.4082C13.0911 12.4082 13.6533 12.9704 13.6533 13.6531V14.8979C13.6533 15.5806 13.0911 16.1428 12.4084 16.1428C11.7258 16.1428 11.1636 15.5806 11.1636 14.8979V13.6531C11.1837 12.9704 11.7258 12.4082 12.4084 12.4082Z" fill="#979797"/>
<path d="M7.14779 14.5968C7.62966 14.1149 8.41271 14.1149 8.89459 14.5968L9.77804 15.4802C10.2599 15.9621 10.2599 16.7451 9.77804 17.227C9.29616 17.7089 8.51311 17.7089 8.03123 17.227L7.14779 16.3436C6.66591 15.8617 6.66591 15.0786 7.14779 14.5968Z" fill="#979797"/>
<path d="M6.20432 18.6326H7.44917C8.13183 18.6326 8.69402 19.1948 8.69402 19.8774C8.69402 20.5601 8.13183 21.1223 7.44917 21.1223H6.20432C5.52166 21.1223 4.95947 20.5601 4.95947 19.8774C4.95947 19.1747 5.52166 18.6326 6.20432 18.6326Z" fill="#979797"/>
<path d="M7.14779 23.3708L8.03123 22.4874C8.51311 22.0055 9.29616 22.0055 9.77804 22.4874C10.2599 22.9693 10.2599 23.7523 9.77804 24.2342L8.89459 25.1176C8.41271 25.5995 7.62966 25.5995 7.14779 25.1176C6.66591 24.6558 6.66591 23.8728 7.14779 23.3708Z" fill="#979797"/>
<path d="M12.4084 23.5918C13.0911 23.5918 13.6533 24.154 13.6533 24.8366V26.0815C13.6533 26.7641 13.0911 27.3263 12.4084 27.3263C11.7258 27.3263 11.1636 26.7641 11.1636 26.0815V24.8366C11.1837 24.154 11.7258 23.5918 12.4084 23.5918Z" fill="#979797"/>
<path d="M15.0587 22.5076C15.5406 22.0258 16.3236 22.0258 16.8055 22.5076L17.6889 23.3911C18.1708 23.873 18.1708 24.656 17.6889 25.1379C17.207 25.6198 16.424 25.6198 15.9421 25.1379L15.0587 24.2545C14.5768 23.7726 14.5768 22.9895 15.0587 22.5076Z" fill="#979797"/>
<path d="M17.3877 18.6326H18.6325C19.3152 18.6326 19.8774 19.1948 19.8774 19.8774C19.8774 20.5601 19.3152 21.1223 18.6325 21.1223H17.3877C16.705 21.1223 16.1428 20.5601 16.1428 19.8774C16.1428 19.1747 16.705 18.6326 17.3877 18.6326Z" fill="#979797"/>
<path d="M15.0587 15.4802L15.9421 14.5968C16.424 14.1149 17.207 14.1149 17.6889 14.5968C18.1708 15.0786 18.1708 15.8617 17.6889 16.3436L16.8055 17.227C16.3236 17.7089 15.5406 17.7089 15.0587 17.227C14.5768 16.7451 14.5768 15.9621 15.0587 15.4802Z" fill="#979797"/>
<path d="M28.5512 8.69385C29.2339 8.69385 29.7961 9.25604 29.7961 9.9387C29.7961 10.6214 29.2339 11.1835 28.5512 11.1835C27.8686 11.1835 27.3064 10.6214 27.3064 9.9387C27.3265 9.25604 27.8686 8.69385 28.5512 8.69385Z" fill="#979797"/>
<path d="M28.5512 13.6531C29.2339 13.6531 29.7961 14.2153 29.7961 14.8979C29.7961 15.5806 29.2339 16.1428 28.5512 16.1428C27.8686 16.1428 27.3064 15.5806 27.3064 14.8979C27.3265 14.2153 27.8686 13.6531 28.5512 13.6531Z" fill="#979797"/>
<path d="M31.041 11.1833C31.7237 11.1833 32.2858 11.7455 32.2858 12.4282C32.2858 13.1109 31.7237 13.6731 31.041 13.6731C30.3583 13.6731 29.7961 13.1109 29.7961 12.4282C29.7961 11.7255 30.3583 11.1833 31.041 11.1833Z" fill="#979797"/>
<path d="M26.0815 11.1833C26.7642 11.1833 27.3264 11.7455 27.3264 12.4282C27.3264 13.1109 26.7642 13.6731 26.0815 13.6731C25.3989 13.6731 24.8367 13.1109 24.8367 12.4282C24.8367 11.7255 25.3989 11.1833 26.0815 11.1833Z" fill="#979797"/>
<path d="M67.0613 55.8777C67.7439 55.8777 68.3061 56.4399 68.3061 57.1225V58.3674C68.3061 59.0501 67.7439 59.6122 67.0613 59.6122C66.3786 59.6122 65.8164 59.0501 65.8164 58.3674V57.1225C65.8164 56.4399 66.3786 55.8777 67.0613 55.8777Z" fill="#979797"/>
<path d="M61.7808 58.066C62.2627 57.5841 63.0458 57.5841 63.5276 58.066L64.4111 58.9494C64.893 59.4313 64.893 60.2144 64.4111 60.6962C63.9292 61.1781 63.1462 61.1781 62.6643 60.6962L61.7808 59.8128C61.299 59.3309 61.299 58.5479 61.7808 58.066Z" fill="#979797"/>
<path d="M60.8371 62.0818H62.082C62.7646 62.0818 63.3268 62.644 63.3268 63.3266C63.3268 64.0093 62.7646 64.5715 62.082 64.5715H60.8371C60.1545 64.5715 59.5923 64.0093 59.5923 63.3266C59.6124 62.644 60.1545 62.0818 60.8371 62.0818Z" fill="#979797"/>
<path d="M61.7808 66.8403L62.6643 65.9569C63.1462 65.475 63.9292 65.475 64.4111 65.9569C64.893 66.4387 64.893 67.2218 64.4111 67.7037L63.5276 68.5871C63.0458 69.069 62.2627 69.069 61.7808 68.5871C61.299 68.1052 61.299 67.3222 61.7808 66.8403Z" fill="#979797"/>
<path d="M67.0613 67.0613C67.7439 67.0613 68.3061 67.6235 68.3061 68.3061V69.551C68.3061 70.2336 67.7439 70.7958 67.0613 70.7958C66.3786 70.7958 65.8164 70.2336 65.8164 69.551V68.3061C65.8164 67.6034 66.3786 67.0613 67.0613 67.0613Z" fill="#979797"/>
<path d="M69.6915 65.9569C70.1734 65.475 70.9564 65.475 71.4383 65.9569L72.3217 66.8403C72.8036 67.3222 72.8036 68.1052 72.3217 68.5871C71.8398 69.069 71.0568 69.069 70.5749 68.5871L69.6915 67.7037C69.2096 67.2419 69.2096 66.4387 69.6915 65.9569Z" fill="#979797"/>
<path d="M72.0205 62.0818H73.2653C73.948 62.0818 74.5102 62.644 74.5102 63.3266C74.5102 64.0093 73.948 64.5715 73.2653 64.5715H72.0205C71.3378 64.5715 70.7756 64.0093 70.7756 63.3266C70.7756 62.644 71.3378 62.0818 72.0205 62.0818Z" fill="#979797"/>
<path d="M69.6915 58.9494L70.5749 58.066C71.0568 57.5841 71.8398 57.5841 72.3217 58.066C72.8036 58.5479 72.8036 59.3309 72.3217 59.8128L71.4383 60.6962C70.9564 61.1781 70.1734 61.1781 69.6915 60.6962C69.2096 60.2144 69.2096 59.4313 69.6915 58.9494Z" fill="#979797"/>
<path d="M68.3061 43.4692C68.9888 43.4692 69.551 44.0314 69.551 44.7141C69.551 45.3967 68.9888 45.9589 68.3061 45.9589C67.6235 45.9589 67.0613 45.3967 67.0613 44.7141C67.0613 44.0113 67.6034 43.4692 68.3061 43.4692Z" fill="#979797"/>
<path d="M68.3061 48.4285C68.9888 48.4285 69.551 48.9907 69.551 49.6733C69.551 50.356 68.9888 50.9182 68.3061 50.9182C67.6235 50.9182 67.0613 50.356 67.0613 49.6733C67.0613 48.9907 67.6034 48.4285 68.3061 48.4285Z" fill="#979797"/>
<path d="M70.7756 45.939C71.4583 45.939 72.0205 46.5012 72.0205 47.1838C72.0205 47.8665 71.4583 48.4287 70.7756 48.4287C70.093 48.4287 69.5308 47.8665 69.5308 47.1838C69.5308 46.5012 70.093 45.939 70.7756 45.939Z" fill="#979797"/>
<path d="M65.8164 45.939C66.499 45.939 67.0612 46.5012 67.0612 47.1838C67.0612 47.8665 66.499 48.4287 65.8164 48.4287C65.1337 48.4287 64.5715 47.8665 64.5715 47.1838C64.5715 46.5012 65.1337 45.939 65.8164 45.939Z" fill="#979797"/>
<path d="M12.609 56.6206H8.63355C8.09144 56.6206 7.62964 56.1788 7.62964 55.6166C7.62964 55.0745 8.07136 54.6328 8.63355 54.6328H12.609C13.1512 54.6328 13.613 55.0745 13.613 55.6166C13.5929 56.1788 13.1512 56.6206 12.609 56.6206Z" fill="#979797"/>
<path d="M30.4787 56.6206H26.5032C25.9611 56.6206 25.4993 56.1788 25.4993 55.6166C25.4993 55.0745 25.941 54.6328 26.5032 54.6328H30.4787C31.0208 54.6328 31.4826 55.0745 31.4826 55.6166C31.4826 56.1788 31.0409 56.6206 30.4787 56.6206Z" fill="#979797"/>
<path d="M19.5561 49.6735C19.014 49.6735 18.5723 49.2318 18.5723 48.6696V44.6941C18.5723 44.152 19.014 43.6902 19.5561 43.6902C20.0982 43.6902 20.5399 44.1319 20.5399 44.6941V48.6696C20.56 49.2318 20.0982 49.6735 19.5561 49.6735Z" fill="#979797"/>
<path d="M19.5561 67.5633C19.014 67.5633 18.5723 67.1216 18.5723 66.5794V62.6039C18.5723 62.0618 19.014 61.6201 19.5561 61.6201C20.0982 61.6201 20.5399 62.0618 20.5399 62.6039V66.5794C20.56 67.1015 20.0982 67.5633 19.5561 67.5633Z" fill="#979797"/>
<path d="M47.3647 53.649H35.4382C34.8961 53.649 34.4543 53.2072 34.4543 52.6651V46.7019C34.4543 46.1598 34.8961 45.698 35.4382 45.698H47.3647C47.9068 45.698 48.3686 46.1397 48.3686 46.7019V52.6651C48.3686 53.2072 47.9269 53.649 47.3647 53.649ZM36.4421 51.6612H46.3808V47.6857H36.4421V51.6612Z" fill="#979797"/>
<path d="M19.5563 59.6124C17.3678 59.6124 15.5808 57.8254 15.5808 55.6369C15.5808 53.4483 17.3678 51.6614 19.5563 51.6614C20.0984 51.6614 20.5401 52.1031 20.5401 52.6452C20.5401 53.1873 20.0984 53.6291 19.5563 53.6291C18.452 53.6291 17.5686 54.5125 17.5686 55.6168C17.5686 56.7211 18.452 57.6045 19.5563 57.6045C20.6606 57.6045 21.544 56.7211 21.544 55.6168C21.544 55.0747 21.9858 54.633 22.5279 54.633C23.07 54.633 23.5318 55.0747 23.5318 55.6168C23.5318 57.8254 21.7448 59.6124 19.5563 59.6124Z" fill="#979797"/>
<path d="M19.5562 63.5878C15.1792 63.5878 11.6052 60.0138 11.6052 55.6368C11.6052 51.2597 15.1792 47.6858 19.5562 47.6858C23.9333 47.6858 27.5072 51.2597 27.5072 55.6368C27.5072 60.0138 23.9333 63.5878 19.5562 63.5878ZM19.5562 49.6735C16.2634 49.6735 13.593 52.3439 13.593 55.6368C13.593 58.9296 16.2634 61.6 19.5562 61.6C22.849 61.6 25.5194 58.9296 25.5194 55.6368C25.5194 52.3439 22.849 49.6735 19.5562 49.6735Z" fill="#979797"/>
<path d="M11.6053 64.5716C11.3443 64.5716 11.1034 64.4712 10.9026 64.2905C10.5211 63.9091 10.5211 63.2666 10.9026 62.8851L13.9344 59.8533C14.3159 59.4718 14.9584 59.4718 15.3399 59.8533C15.7213 60.2347 15.7213 60.8772 15.3399 61.2587L12.308 64.2905C12.1273 64.4712 11.8663 64.5716 11.6053 64.5716Z" fill="#979797"/>
<path d="M24.4754 51.7013C24.2144 51.7013 23.9735 51.6009 23.7727 51.4002C23.3912 51.0187 23.3912 50.3762 23.7727 49.9947L26.8045 46.9629C27.186 46.5814 27.8285 46.5814 28.21 46.9629C28.5915 47.3444 28.5915 47.9869 28.21 48.3683L25.1782 51.4002C24.9774 51.621 24.7364 51.7013 24.4754 51.7013Z" fill="#979797"/>
<path d="M14.6371 51.7015C14.3761 51.7015 14.1352 51.6011 13.9344 51.4004L10.9026 48.3886C10.5211 48.0071 10.5211 47.3646 10.9026 46.9831C11.2841 46.6016 11.9266 46.6016 12.308 46.9831L15.3399 50.015C15.7213 50.3964 15.7213 51.0389 15.3399 51.4204C15.1391 51.6212 14.8981 51.7015 14.6371 51.7015Z" fill="#979797"/>
<path d="M27.5072 64.5716C27.2462 64.5716 27.0053 64.4712 26.8045 64.2905L23.7727 61.2587C23.3912 60.8772 23.3912 60.2347 23.7727 59.8533C24.1542 59.4718 24.7967 59.4718 25.1782 59.8533L28.21 62.8851C28.5915 63.2666 28.5915 63.9091 28.21 64.2905C28.0092 64.4712 27.7683 64.5716 27.5072 64.5716Z" fill="#979797"/>
<path d="M36.4421 57.6245H35.4382C34.8961 57.6245 34.4543 57.1827 34.4543 56.6406C34.4543 56.0985 34.8961 55.6367 35.4382 55.6367H36.4421C36.9842 55.6367 37.4259 56.0784 37.4259 56.6406C37.446 57.1827 37.0043 57.6245 36.4421 57.6245Z" fill="#979797"/>
<path d="M47.3645 57.6245H46.3806C45.8385 57.6245 45.3767 57.1827 45.3767 56.6406C45.3767 56.0985 45.8184 55.6367 46.3806 55.6367H47.3645C47.9066 55.6367 48.3684 56.0784 48.3684 56.6406C48.3684 57.1827 47.9266 57.6245 47.3645 57.6245Z" fill="#979797"/>
<path d="M42.4052 57.6245H40.4174C39.8753 57.6245 39.4336 57.1827 39.4336 56.6406C39.4336 56.0985 39.8753 55.6367 40.4174 55.6367H42.4052C42.9473 55.6367 43.4091 56.0784 43.4091 56.6406C43.4091 57.1827 42.9473 57.6245 42.4052 57.6245Z" fill="#979797"/>
<path d="M36.4421 61.6H35.4382C34.8961 61.6 34.4543 61.1583 34.4543 60.5961C34.4543 60.054 34.8961 59.6123 35.4382 59.6123H36.4421C36.9842 59.6123 37.4259 60.054 37.4259 60.5961C37.446 61.1382 37.0043 61.6 36.4421 61.6Z" fill="#979797"/>
<path d="M47.3645 61.6H46.3806C45.8385 61.6 45.3767 61.1583 45.3767 60.5961C45.3767 60.054 45.8184 59.6123 46.3806 59.6123H47.3645C47.9066 59.6123 48.3684 60.054 48.3684 60.5961C48.3684 61.1382 47.9266 61.6 47.3645 61.6Z" fill="#979797"/>
<path d="M42.4052 61.6H40.4174C39.8753 61.6 39.4336 61.1583 39.4336 60.5961C39.4336 60.054 39.8753 59.6123 40.4174 59.6123H42.4052C42.9473 59.6123 43.4091 60.054 43.4091 60.5961C43.4091 61.1382 42.9473 61.6 42.4052 61.6Z" fill="#979797"/>
<path d="M36.4421 65.5756H35.4382C34.8961 65.5756 34.4543 65.1339 34.4543 64.5918C34.4543 64.0497 34.8961 63.5879 35.4382 63.5879H36.4421C36.9842 63.5879 37.4259 64.0296 37.4259 64.5918C37.446 65.1138 37.0043 65.5756 36.4421 65.5756Z" fill="#979797"/>
<path d="M47.3645 65.5756H46.3806C45.8385 65.5756 45.3767 65.1339 45.3767 64.5918C45.3767 64.0497 45.8184 63.5879 46.3806 63.5879H47.3645C47.9066 63.5879 48.3684 64.0296 48.3684 64.5918C48.3684 65.1138 47.9266 65.5756 47.3645 65.5756Z" fill="#979797"/>
<path d="M42.4052 65.5756H40.4174C39.8753 65.5756 39.4336 65.1339 39.4336 64.5918C39.4336 64.0497 39.8753 63.5879 40.4174 63.5879H42.4052C42.9473 63.5879 43.4091 64.0296 43.4091 64.5918C43.4091 65.1138 42.9473 65.5756 42.4052 65.5756Z" fill="#979797"/>
</g>
<defs>
<clipPath id="clip0">
<rect width="77" height="77" fill="white"/>
</clipPath>
</defs>
</svg>
