<svg width="111" height="111" viewBox="0 0 111 111" fill="none" xmlns="http://www.w3.org/2000/svg">
<g clip-path="url(#clip0)">
<path d="M63.6288 37.2661C63.3367 36.9741 62.9473 36.7988 62.519 36.7988C62.0906 36.7988 61.7012 36.9546 61.4092 37.2661L46.787 51.8883C46.4949 52.1803 46.3197 52.5697 46.3197 52.9981C46.3197 53.4264 46.4755 53.8158 46.787 54.1079C47.0985 54.3999 47.4879 54.5752 47.8968 54.5752C48.3057 54.5752 48.7145 54.4194 49.0066 54.1079L63.6288 39.4857C64.2324 38.8821 64.2324 37.8892 63.6288 37.2661Z" fill="#F28E2A"/>
<path d="M77.9201 61.7207H74.6296V31.7949C74.6296 27.2 70.8913 23.4811 66.3158 23.4811H44.1002C39.5053 23.4811 35.7864 27.2194 35.7864 31.7949V61.7207H32.496C30.2179 61.7207 28.232 63.1031 27.4532 65.2449C26.6743 67.3866 27.2974 69.723 29.0497 71.1833L47.5854 86.74C49.7271 88.5313 52.4335 89.5243 55.2178 89.5243C58.002 89.5243 60.7084 88.5313 62.8501 86.74L68.0487 82.3787C68.7107 81.8141 68.7885 80.8211 68.2434 80.1591C67.6787 79.4971 66.6857 79.3997 66.0238 79.9644L60.8252 84.3257C57.5737 87.0516 52.8619 87.0516 49.5909 84.3257L31.0552 68.769C30.179 68.0291 30.1401 67.0167 30.3932 66.3157C30.6463 65.6148 31.3277 64.8555 32.4765 64.8555H37.3441C38.2007 64.8555 38.9211 64.1545 38.9211 63.2784V31.7949C38.9211 28.9328 41.2381 26.6159 44.1002 26.6159H66.3158C69.1779 26.6159 71.4949 28.9328 71.4949 31.7949V63.2978C71.4949 64.1545 72.1958 64.8749 73.072 64.8749H77.9396C79.0883 64.8749 79.7698 65.6343 80.0229 66.3352C80.276 67.0361 80.2371 68.068 79.3609 68.7884L72.9552 74.1622C72.6242 74.4348 72.4295 74.8048 72.3905 75.2331C72.3516 75.642 72.4879 76.0509 72.7605 76.3819C73.3251 77.0438 74.3181 77.1217 74.9801 76.5766L81.3858 71.2028C83.1381 69.7425 83.7612 67.4061 82.9824 65.2643C82.1841 63.1031 80.2176 61.7207 77.9201 61.7207Z" fill="#F28E2A"/>
<path d="M48.481 41.1212C49.6638 41.1212 50.6227 40.1623 50.6227 38.9795C50.6227 37.7967 49.6638 36.8378 48.481 36.8378C47.2981 36.8378 46.3392 37.7967 46.3392 38.9795C46.3392 40.1623 47.2981 41.1212 48.481 41.1212Z" fill="#F28E2A"/>
<path d="M61.818 54.4389C63.0008 54.4389 63.9597 53.48 63.9597 52.2972C63.9597 51.1143 63.0008 50.1555 61.818 50.1555C60.6352 50.1555 59.6763 51.1143 59.6763 52.2972C59.6763 53.48 60.6352 54.4389 61.818 54.4389Z" fill="#F28E2A"/>
<path d="M55.5097 8.56689C42.9709 8.56689 31.1913 13.4539 22.3324 22.3129C13.4539 31.1913 8.56689 42.9709 8.56689 55.5097C8.56689 68.0486 13.4539 79.8281 22.3129 88.6871C31.1719 97.546 42.9709 102.433 55.4902 102.433C68.0096 102.433 79.8281 97.546 88.6871 88.6871C97.546 79.8281 102.433 68.0291 102.433 55.5097C102.433 42.9903 97.546 31.1913 88.6871 22.3129C79.8281 13.4539 68.0486 8.56689 55.5097 8.56689ZM55.5097 99.3178C31.3471 99.3178 11.7016 79.6529 11.7016 55.5097C11.7016 31.3666 31.3666 11.7016 55.5097 11.7016C79.6529 11.7016 99.3178 31.3666 99.3178 55.5097C99.3178 79.6529 79.6723 99.3178 55.5097 99.3178Z" fill="#F28E2A"/>
<path d="M94.7423 16.2577C84.2673 5.78267 70.3266 0 55.5097 0C40.6929 0 26.7327 5.78267 16.2577 16.2577C5.78267 26.7327 0 40.6734 0 55.5097C0 70.3266 5.78267 84.2673 16.2577 94.7618C26.7327 105.237 40.6734 111.019 55.5097 111.019C67.1724 111.019 78.3289 107.437 87.772 100.681C88.103 100.447 88.3366 100.077 88.395 99.6683C88.4534 99.2594 88.3756 98.8506 88.1224 98.5001C87.6162 97.7992 86.6427 97.6434 85.9418 98.1302C77.0244 104.516 66.491 107.885 55.4903 107.885C26.6159 107.885 3.11524 84.3842 3.11524 55.5097C3.11524 26.6159 26.6159 3.11524 55.5097 3.11524C84.4036 3.11524 107.904 26.6159 107.904 55.5097C107.904 63.5704 106.132 71.3001 102.608 78.4847C102.433 78.8546 102.394 79.2829 102.53 79.6723C102.667 80.0618 102.939 80.3927 103.329 80.568C103.699 80.7432 104.127 80.7822 104.516 80.6459C104.906 80.5096 105.237 80.237 105.412 79.8476C109.131 72.2347 111.019 64.0377 111.019 55.5097C111 40.6734 105.237 26.7327 94.7423 16.2577Z" fill="#F28E2A"/>
<path d="M100.389 85.4745C99.6877 84.9683 98.7142 85.1435 98.2079 85.8444C97.0981 87.402 95.9105 88.9013 94.6449 90.3226C94.3723 90.6341 94.236 91.043 94.2555 91.4519C94.275 91.8607 94.4697 92.2502 94.7812 92.5227C95.0732 92.7759 95.4432 92.9121 95.8131 92.9121C96.2609 92.9121 96.6893 92.7174 96.9813 92.3864C98.3248 90.8872 99.5903 89.2907 100.759 87.6357C101.245 86.9542 101.09 85.9807 100.389 85.4745Z" fill="#F28E2A"/>
</g>
<defs>
<clipPath id="clip0">
<rect width="111" height="111" fill="white"/>
</clipPath>
</defs>
</svg>
