<svg width="68" height="64" viewBox="0 0 68 64" fill="none" xmlns="http://www.w3.org/2000/svg">
<g clip-path="url(#clip0)">
<path d="M9.17975 33.7699H0.997803V63.0028H9.17975V33.7699Z" fill="#BFBFBF"/>
<path d="M23.6312 43.0932H15.4492V63.0028H23.6312V43.0932Z" fill="#BFBFBF"/>
<path d="M38.0826 27.5378H29.9006V63.0029H38.0826V27.5378Z" fill="#BFBFBF"/>
<path d="M52.5507 32.1579H44.3688V62.9862H52.5507V32.1579Z" fill="#BFBFBF"/>
<path d="M67.0023 18.5635H58.8203V63.0029H67.0023V18.5635Z" fill="#BFBFBF"/>
<path d="M62.6286 9.32328C64.888 9.32328 66.7195 7.49289 66.7195 5.23499C66.7195 2.97709 64.888 1.1467 62.6286 1.1467C60.3692 1.1467 58.5376 2.97709 58.5376 5.23499C58.5376 7.49289 60.3692 9.32328 62.6286 9.32328Z" fill="#F28E2A"/>
<path d="M48.4597 23.2501C50.7191 23.2501 52.5507 21.4197 52.5507 19.1618C52.5507 16.9039 50.7191 15.0735 48.4597 15.0735C46.2004 15.0735 44.3688 16.9039 44.3688 19.1618C44.3688 21.4197 46.2004 23.2501 48.4597 23.2501Z" fill="#F28E2A"/>
<path d="M33.9916 18.5635C36.251 18.5635 38.0826 16.7331 38.0826 14.4752C38.0826 12.2173 36.251 10.3869 33.9916 10.3869C31.7322 10.3869 29.9006 12.2173 29.9006 14.4752C29.9006 16.7331 31.7322 18.5635 33.9916 18.5635Z" fill="#F28E2A"/>
<path d="M19.5402 33.853C21.7996 33.853 23.6312 32.0226 23.6312 29.7647C23.6312 27.5068 21.7996 25.6765 19.5402 25.6765C17.2808 25.6765 15.4492 27.5068 15.4492 29.7647C15.4492 32.0226 17.2808 33.853 19.5402 33.853Z" fill="#F28E2A"/>
<path d="M5.08878 24.8123C7.34816 24.8123 9.17975 22.9819 9.17975 20.724C9.17975 18.4661 7.34816 16.6357 5.08878 16.6357C2.8294 16.6357 0.997803 18.4661 0.997803 20.724C0.997803 22.9819 2.8294 24.8123 5.08878 24.8123Z" fill="#F28E2A"/>
<path d="M9.14652 32.7562H0.997828C0.432408 32.7562 -0.0166016 33.2049 -0.0166016 33.7699V62.9862C-0.0166016 63.5513 0.432408 64 0.997828 64H9.14652C9.71194 64 10.161 63.5513 10.161 62.9862V53.7627C10.161 53.1976 9.71194 52.7489 9.14652 52.7489C8.5811 52.7489 8.13209 53.1976 8.13209 53.7627V61.9725H2.01226V34.7671H8.14872V50.389C8.14872 50.954 8.59773 51.4027 9.16315 51.4027C9.72857 51.4027 10.1776 50.954 10.1776 50.389V33.7699C10.161 33.2049 9.71194 32.7562 9.14652 32.7562Z" fill="#1B1B1B"/>
<path d="M23.6147 42.1459H15.466C14.9005 42.1459 14.4515 42.5947 14.4515 43.1597V62.9862C14.4515 63.5513 14.9005 64 15.466 64H23.6147C24.1801 64 24.6291 63.5513 24.6291 62.9862V43.1597C24.6291 42.5947 24.1635 42.1459 23.6147 42.1459ZM22.6002 61.9725H16.4804V44.1568H22.6002V61.9725Z" fill="#1B1B1B"/>
<path d="M38.0661 26.4908H29.9174C29.352 26.4908 28.903 26.9395 28.903 27.5045V62.9862C28.903 63.5513 29.352 64 29.9174 64H38.0661C38.6315 64 39.0805 63.5513 39.0805 62.9862V27.5045C39.0805 26.9395 38.6315 26.4908 38.0661 26.4908ZM37.0683 61.9725H30.9318V28.5183H37.0516V61.9725H37.0683Z" fill="#1B1B1B"/>
<path d="M52.5341 31.194H44.3854C43.82 31.194 43.371 31.6427 43.371 32.2077V62.9862C43.371 63.5513 43.82 64 44.3854 64H52.5341C53.0995 64 53.5485 63.5513 53.5485 62.9862V32.1911C53.5319 31.6427 53.0829 31.194 52.5341 31.194ZM51.5197 61.9725H45.3998V33.2049H51.5197V61.9725Z" fill="#1B1B1B"/>
<path d="M66.9856 17.101H58.8369C58.2715 17.101 57.8225 17.5497 57.8225 18.1148V31.4266C57.8225 31.9917 58.2715 32.4404 58.8369 32.4404C59.4024 32.4404 59.8514 31.9917 59.8514 31.4266V19.1119H65.9712V61.9725H59.8514V34.8003C59.8514 34.2353 59.4024 33.7866 58.8369 33.7866C58.2715 33.7866 57.8225 34.2353 57.8225 34.8003V62.9862C57.8225 63.5513 58.2715 64 58.8369 64H66.9856C67.551 64 68 63.5513 68 62.9862V18.1148C68 17.5497 67.551 17.101 66.9856 17.101Z" fill="#1B1B1B"/>
<path d="M60.0518 9.2729C60.8667 9.83795 61.8479 10.1537 62.9122 10.1537C65.7227 10.1537 68.001 7.8769 68.001 5.06828C68.001 2.25966 65.7227 -0.0171509 62.9122 -0.0171509C60.1017 -0.0171509 57.8234 2.25966 57.8234 5.06828C57.8234 6.08205 58.1228 7.02933 58.6383 7.81043L51.3045 14.9566C50.4896 14.3916 49.5084 14.0758 48.4441 14.0758C46.5483 14.0758 44.9019 15.1228 44.0205 16.6518L39.0315 15.0397C39.0482 14.8569 39.0648 14.6575 39.0648 14.4581C39.0648 11.666 36.7865 9.37262 33.976 9.37262C31.1656 9.37262 28.8873 11.6494 28.8873 14.4581C28.8873 15.5715 29.2531 16.5853 29.8518 17.4329L22.1521 25.7756C21.3871 25.3103 20.4725 25.0444 19.5246 25.0444C18.111 25.0444 16.8305 25.6261 15.8992 26.5733L9.81267 22.6014C10.0455 22.0197 10.1619 21.3882 10.1619 20.7401C10.1619 17.9314 7.88359 15.6546 5.07312 15.6546C2.27928 15.6546 0.000976562 17.9314 0.000976562 20.7234C0.000976562 23.5154 2.27928 25.8089 5.08975 25.8089C6.5033 25.8089 7.78381 25.2272 8.71509 24.2799L14.8183 28.2519C14.5855 28.8335 14.4691 29.4651 14.4691 30.1132C14.4691 32.9218 16.7474 35.1986 19.5578 35.1986C22.3683 35.1986 24.6466 32.9218 24.6466 30.1132C24.6466 28.9997 24.2808 27.986 23.6821 27.1384L31.3818 18.7956C32.1467 19.261 33.0448 19.5269 34.0093 19.5269C35.9051 19.5269 37.5515 18.4799 38.4329 16.9509L43.4219 18.563C43.4052 18.7458 43.3886 18.9452 43.3886 19.1446C43.3886 21.9532 45.6669 24.2301 48.4774 24.2301C51.2878 24.2301 53.5662 21.9532 53.5662 19.1446C53.5662 18.1309 53.2668 17.1836 52.7513 16.4025L60.0518 9.2729ZM5.08975 23.798C3.39349 23.798 2.02983 22.4186 2.02983 20.7401C2.02983 19.0449 3.41012 17.6821 5.08975 17.6821C6.78601 17.6821 8.14967 19.0615 8.14967 20.7401C8.14967 22.4186 6.76938 23.798 5.08975 23.798ZM19.5412 33.1877C17.8449 33.1877 16.4813 31.8084 16.4813 30.1298C16.4813 28.4347 17.8616 27.0719 19.5412 27.0719C21.2375 27.0719 22.6011 28.4513 22.6011 30.1298C22.6011 31.8084 21.2375 33.1877 19.5412 33.1877ZM33.9927 17.5326C32.2964 17.5326 30.9327 16.1532 30.9327 14.4747C30.9327 12.7795 32.313 11.4168 33.9927 11.4168C35.6889 11.4168 37.0526 12.7961 37.0526 14.4747C37.0692 16.1532 35.6889 17.5326 33.9927 17.5326ZM62.9122 2.01037C64.6085 2.01037 65.9721 3.38976 65.9721 5.06828C65.9721 6.76343 64.5918 8.12619 62.9122 8.12619C61.2159 8.12619 59.8523 6.74681 59.8523 5.06828C59.8523 3.38976 61.2326 2.01037 62.9122 2.01037ZM48.4607 22.2192C46.7645 22.2192 45.4008 20.8398 45.4008 19.1612C45.4008 17.4661 46.7811 16.1033 48.4607 16.1033C50.157 16.1033 51.5207 17.4827 51.5207 19.1612C51.5207 20.8564 50.1404 22.2192 48.4607 22.2192Z" fill="#1B1B1B"/>
</g>
<defs>
<clipPath id="clip0">
<rect width="68" height="64" fill="white"/>
</clipPath>
</defs>
</svg>
