<svg width="97" height="109" viewBox="0 0 97 109" fill="none" xmlns="http://www.w3.org/2000/svg">
<g clip-path="url(#clip0)">
<path d="M30.3682 19.7279C30.3247 19.6416 30.2594 19.5768 30.1942 19.5121C30.1289 19.4473 30.0636 19.3826 29.9984 19.3394C29.9114 19.2962 29.8461 19.2531 29.7591 19.2099C29.6721 19.1667 29.5851 19.1452 29.498 19.1236C29.411 19.102 29.3023 19.102 29.2152 19.102C29.1282 19.102 29.0412 19.102 28.9542 19.1236C28.8672 19.1452 28.7802 19.1667 28.6931 19.2099C28.6061 19.2531 28.5191 19.2962 28.4539 19.3394C28.3668 19.3826 28.3016 19.4473 28.2363 19.5121C28.1711 19.5768 28.1058 19.6416 28.0623 19.7063C28.0188 19.7927 27.9753 19.8574 27.9318 19.9438C27.8883 20.0301 27.8665 20.1164 27.8448 20.2028C27.823 20.3107 27.823 20.397 27.823 20.4834C27.823 20.5697 27.823 20.656 27.8448 20.7424V20.764C27.8665 20.8503 27.8883 20.9151 27.9318 21.023C27.9753 21.1093 28.0188 21.1741 28.0623 21.2604C28.1058 21.3467 28.1711 21.4115 28.2363 21.4762C28.3016 21.541 28.3668 21.6058 28.4321 21.6489C28.5191 21.6921 28.5844 21.7353 28.6714 21.7784C28.7584 21.8216 28.8454 21.8432 28.9324 21.8648C29.1065 21.9079 29.3023 21.9079 29.4545 21.8648C29.5415 21.8432 29.6286 21.8216 29.7156 21.7784C29.8026 21.7353 29.8896 21.6921 29.9549 21.6489C30.0419 21.6058 30.1071 21.541 30.1724 21.4762C30.2377 21.4115 30.3029 21.3467 30.3464 21.282C30.3899 21.1957 30.4335 21.1309 30.477 21.0446C30.5205 20.9582 30.5422 20.8719 30.564 20.7856C30.5857 20.6776 30.5857 20.5913 30.5857 20.505C30.5857 20.4186 30.5857 20.3323 30.564 20.2459C30.5422 20.1596 30.5205 20.0733 30.477 19.9869C30.4552 19.879 30.4117 19.8143 30.3682 19.7279Z" fill="#F28E2A"/>
<path d="M88.429 37.9881V9.86395C88.429 9.10851 87.8199 8.50415 87.0585 8.50415H9.94141C9.18003 8.50415 8.57092 9.10851 8.57092 9.86395V37.9881C8.57092 51.5645 12.5954 64.6877 20.2309 75.9546C27.1486 86.1855 36.7203 94.3443 47.9235 99.5893C48.2933 99.762 48.7284 99.762 49.0982 99.5893C60.3014 94.3443 69.873 86.1855 76.7907 75.9546C84.4045 64.6877 88.429 51.5645 88.429 37.9881ZM48.8371 96.6754L48.5108 96.8481L48.1845 96.6754C37.8297 91.6463 28.9759 83.9408 22.5368 74.4437C15.2058 63.6085 11.3336 51.0034 11.3336 37.9881V21.8647H22.7979C23.5593 21.8647 24.1684 21.2604 24.1684 20.5049C24.1684 19.7495 23.5593 19.1451 22.7979 19.1451H11.3336V11.2453H85.688V37.9881C85.688 51.0034 81.8158 63.6085 74.5066 74.4222C68.0457 83.9408 59.1919 91.6247 48.8371 96.6754Z" fill="#F28E2A"/>
<path d="M83.9043 80.6816C92.4753 68.0117 97.0218 53.2481 97.0218 37.9881V1.3598C97.0218 0.604356 96.4127 0 95.6513 0H1.37049C0.609105 0 0 0.604356 0 1.3598V37.9881C0 53.2481 4.52478 68.0117 13.1175 80.6816C21.6885 93.3515 33.7618 103.108 47.9888 108.892C48.3151 109.022 48.7067 109.022 49.033 108.892C63.2599 103.129 75.3115 93.3731 83.9043 80.6816ZM48.7937 106.021L48.4891 106.151L48.1846 106.021C34.6102 100.323 23.1678 90.9341 15.0971 78.8469C7.02647 66.7382 2.76273 52.6222 2.76273 37.9881V2.74119H94.2373V37.9881C94.2373 52.6222 89.9736 66.7382 81.8812 78.8469C73.8105 90.9341 62.368 100.323 48.7937 106.021Z" fill="#F28E2A"/>
<path d="M48.5109 20.6129C33.3921 20.6129 21.1012 32.8079 21.1012 47.7873C21.1012 62.7667 33.3921 74.9618 48.4892 74.9618C63.5863 74.9618 75.8771 62.7667 75.8771 47.7873C75.8989 32.8079 63.608 20.6129 48.5109 20.6129ZM48.5109 71.9616C35.0889 71.9616 24.1685 61.1263 24.1685 47.8089C24.1685 34.4915 35.0889 23.6562 48.5109 23.6562C61.933 23.6562 72.8534 34.4915 72.8534 47.8089C72.8534 61.1263 61.933 71.9616 48.5109 71.9616ZM48.5109 29.6782C38.4389 29.6782 30.2378 37.8154 30.2378 47.8089C30.2378 48.6507 29.5634 49.3198 28.715 49.3198C27.8666 49.3198 27.1922 48.6507 27.1922 47.8089C27.1922 36.1534 36.7421 26.678 48.5109 26.678C49.3593 26.678 50.0337 27.3471 50.0337 28.1889C50.0337 29.0307 49.3376 29.6782 48.5109 29.6782ZM69.8078 47.7873C69.8078 59.4428 60.2579 68.9398 48.4892 68.9398C47.6408 68.9398 46.9664 68.2707 46.9664 67.4289C46.9664 66.5871 47.6408 65.918 48.4892 65.918C58.5612 65.918 66.7623 57.7808 66.7623 47.7873C66.7623 46.9455 67.4367 46.2764 68.2851 46.2764C69.1335 46.298 69.8078 46.9671 69.8078 47.7873ZM46.9882 58.3635H50.0337V61.3853C50.0337 62.2271 50.7081 62.8962 51.5565 62.8962C52.4048 62.8962 53.0792 62.2271 53.0792 61.3853V58.1693C55.7114 57.5002 57.6475 55.1259 57.6475 52.32C57.6475 50.5069 56.8426 48.8881 55.5809 47.7873C56.8426 46.6865 57.6475 45.0677 57.6475 43.2546C57.6475 40.4487 55.7114 38.0744 53.0792 37.4053V34.1893C53.0792 33.3475 52.4048 32.6784 51.5565 32.6784C50.7081 32.6784 50.0337 33.3475 50.0337 34.1893V37.2111H46.9882V34.1893C46.9882 33.3475 46.3138 32.6784 45.4654 32.6784C44.617 32.6784 43.9426 33.3475 43.9426 34.1893V37.2111H42.4199H39.3743C38.526 37.2111 37.8516 37.8802 37.8516 38.722C37.8516 39.5637 38.526 40.2329 39.3743 40.2329H40.8971V47.7873V55.3418H39.3743C38.526 55.3418 37.8516 56.0109 37.8516 56.8527C37.8516 57.6944 38.526 58.3635 39.3743 58.3635H42.4199H43.9426V61.3853C43.9426 62.2271 44.617 62.8962 45.4654 62.8962C46.3138 62.8962 46.9882 62.2271 46.9882 61.3853V58.3635ZM54.5802 52.32C54.5802 53.982 53.2097 55.3418 51.5347 55.3418H43.9209V49.2982H51.5347C53.2315 49.2982 54.5802 50.658 54.5802 52.32ZM54.5802 43.2762C54.5802 44.9382 53.2097 46.298 51.5347 46.298H43.9209V40.2544H51.5347C53.2315 40.2544 54.5802 41.5927 54.5802 43.2762Z" fill="#F28E2A"/>
</g>
<defs>
<clipPath id="clip0">
<rect width="97" height="109" fill="white"/>
</clipPath>
</defs>
</svg>
