<svg width="72" height="72" viewBox="0 0 72 72" fill="none" xmlns="http://www.w3.org/2000/svg">
<g clip-path="url(#clip0)">
<path d="M35.9364 53.7C35.9364 63.3 28.1041 71.0842 18.4447 71.0842C8.78543 71.0842 0.953125 63.3 0.953125 53.7C0.953125 50.5579 1.79514 47.6053 3.25674 45.0631C3.924 43.8947 4.73424 42.821 5.65568 41.8421C6.27528 41.1789 6.94253 40.5789 7.65745 40.0263C10.6283 37.7053 14.3777 36.3316 18.4447 36.3316C28.1041 36.3158 35.9364 44.1 35.9364 53.7Z" fill="#F28E2A"/>
<path d="M30.1535 53.5579C30.1535 59.9526 24.9266 65.1474 18.4924 65.1474C12.0581 65.1474 6.8313 59.9526 6.8313 53.5579C6.8313 47.1632 12.0581 41.9684 18.4924 41.9684C24.9425 41.9684 30.1535 47.1632 30.1535 53.5579Z" fill="#BFBFBF"/>
<path d="M71.0467 18.3789C71.0467 27.9789 63.2144 35.7632 53.5551 35.7632C43.8958 35.7632 36.0635 27.9789 36.0635 18.3789C36.0635 15.2368 36.9055 12.2842 38.3671 9.7421C39.0344 8.57368 39.8446 7.5 40.766 6.52105C41.3856 5.85789 42.0529 5.25789 42.7678 4.70526C45.7387 2.38421 49.488 1.01052 53.5551 1.01052C63.2144 0.994733 71.0467 8.77894 71.0467 18.3789Z" fill="#F28E2A"/>
<path d="M65.2162 18.1895C65.2162 24.5842 59.9894 29.779 53.5551 29.779C47.1209 29.779 41.894 24.5842 41.894 18.1895C41.894 11.7947 47.1209 6.60001 53.5551 6.60001C59.9894 6.60001 65.2162 11.7947 65.2162 18.1895Z" fill="#BFBFBF"/>
<path d="M41.4175 56.8579L53.7776 44.5737L51.1562 41.9684L66.3124 40.7842L65.1209 55.8474L62.2454 53.0053L49.8376 65.1158" fill="#C2D1D9"/>
<path d="M30.9479 15.3947L18.5878 27.6631L21.2092 30.2684L6.05298 31.4526L7.24451 16.3895L10.1042 19.2316L22.4643 6.94736L30.9479 15.3947Z" fill="#BFBFBF"/>
<path d="M18.4448 35.321C14.2665 35.321 10.3425 36.6789 7.06973 39.221C6.32303 39.8053 5.60812 40.4526 4.97264 41.1474C4.00353 42.1737 3.14563 43.3263 2.4466 44.5421C0.842012 47.3053 0 50.4631 0 53.6684C0 63.7737 8.27714 72 18.4448 72C28.6125 72 36.8897 63.7737 36.8897 53.6684C36.8897 43.5474 28.6284 35.321 18.4448 35.321ZM18.4448 70.0895C9.32568 70.0895 1.92233 62.7158 1.92233 53.6684C1.92233 50.7947 2.66902 47.9842 4.09885 45.5053C4.73433 44.4158 5.49691 43.3895 6.35481 42.4579C6.92674 41.8421 7.56222 41.2579 8.24537 40.7368C11.1845 38.4474 14.6955 37.2474 18.4448 37.2474C27.564 37.2474 34.9673 44.621 34.9673 53.6684C34.9673 62.7158 27.564 70.0895 18.4448 70.0895Z" fill="#1B1B1B"/>
<path d="M6.02121 51.2842C5.89411 52.0105 5.83057 52.7526 5.83057 53.479C5.83057 60.3947 11.4863 66.0158 18.4449 66.0158C25.4034 66.0158 31.0592 60.3947 31.0592 53.479C31.0592 46.5632 25.4034 40.9421 18.4449 40.9421C16.3319 40.9421 14.6161 41.3053 13.0274 42.079C12.7891 42.1895 12.6302 42.3947 12.5349 42.6316C12.4555 42.8684 12.4713 43.1368 12.5826 43.3579C12.6938 43.5947 12.9003 43.7526 13.1386 43.8474C13.3769 43.9263 13.647 43.9105 13.8694 43.8C15.2039 43.1526 16.6179 42.8526 18.4449 42.8526C24.3389 42.8526 29.1368 47.6211 29.1368 53.479C29.1368 59.3368 24.3389 64.1053 18.4449 64.1053C12.5508 64.1053 7.7529 59.3368 7.7529 53.479C7.7529 52.8474 7.80056 52.2316 7.91177 51.6158C7.95943 51.3632 7.89588 51.1105 7.7529 50.9053C7.60991 50.7 7.38749 50.5579 7.1333 50.5105C7.06975 50.4947 7.02209 50.4947 6.95854 50.4947C6.7679 50.4947 6.57726 50.5579 6.41839 50.6684C6.21186 50.8105 6.06887 51.0316 6.02121 51.2842Z" fill="#1B1B1B"/>
<path d="M23.0838 57C23.0838 53.9526 19.8269 52.3895 18.4448 52.3895C18.127 52.3895 17.3962 52.2632 16.7607 51.9C16.0617 51.5053 15.7281 50.9842 15.7281 50.2895C15.7281 48.079 17.7457 47.5895 18.4448 47.5895C19.0008 47.5895 19.6204 47.8895 20.1288 48.379C20.4783 48.7263 20.4942 48.9316 20.4942 49.7526C20.4942 50.2737 20.9231 50.7 21.4633 50.7C22.0034 50.7 22.4324 50.2737 22.4324 49.7368C22.4324 48.8526 22.4324 47.9368 21.5109 47.0211C20.9231 46.4368 20.2241 46.0105 19.4774 45.8211L19.1438 45.7263L19.1279 45.379C19.112 44.8579 18.6831 44.4632 18.1747 44.4632C17.6504 44.4632 17.2056 44.8895 17.2056 45.4263V45.8842L16.8878 45.9947C15.744 46.4053 13.8216 47.5263 13.8216 50.3053C13.8216 51.6947 14.5365 52.8474 15.8393 53.5737C16.7448 54.079 17.8093 54.3 18.4606 54.3H18.4924C19.1279 54.3316 21.1932 55.2632 21.1932 57C21.1932 58.9895 19.4774 59.7 17.8569 59.7C16.5542 59.7 15.458 58.3105 15.458 56.6842C15.458 56.1632 15.029 55.7211 14.4889 55.7211C13.9487 55.7211 13.5198 56.1474 13.5198 56.6842C13.5198 58.9737 14.8861 60.9474 16.8402 61.4842L17.1738 61.579L17.1897 61.9263C17.2056 62.4474 17.6345 62.8421 18.1429 62.8421C18.6672 62.8421 19.112 62.4158 19.112 61.879V61.5158L19.4774 61.4211C20.5577 61.1369 23.0838 60.1421 23.0838 57Z" fill="#1B1B1B"/>
<path d="M53.5552 0C49.3769 0 45.4528 1.35789 42.1801 3.9C41.4334 4.48421 40.7185 5.13158 40.083 5.82632C39.1139 6.86842 38.256 8.00526 37.5569 9.22105C35.9682 11.9842 35.1262 15.1263 35.1262 18.3316C35.1262 28.4368 43.4034 36.6632 53.5711 36.6632C63.7387 36.6632 72.0159 28.4368 72.0159 18.3316C72 8.22632 63.7387 0 53.5552 0ZM53.5552 34.7526C44.436 34.7526 37.0327 27.3789 37.0327 18.3316C37.0327 15.4579 37.7794 12.6474 39.2092 10.1684C39.8447 9.06316 40.6072 8.05263 41.4651 7.12105C42.053 6.50526 42.6884 5.92105 43.3557 5.4C46.2948 3.11053 49.8058 1.91053 53.5552 1.91053C62.6743 1.91053 70.0777 9.28421 70.0777 18.3316C70.0777 27.3947 62.6743 34.7526 53.5552 34.7526Z" fill="#1B1B1B"/>
<path d="M53.5552 5.60526C46.5967 5.60526 40.9409 11.2263 40.9409 18.1421C40.9409 25.0579 46.5967 30.6789 53.5552 30.6789C60.5137 30.6789 66.1695 25.0579 66.1695 18.1421C66.1695 11.2263 60.5137 5.60526 53.5552 5.60526ZM53.5552 28.7842C47.6611 28.7842 42.8632 24.0158 42.8632 18.1579C42.8632 12.3 47.6611 7.53157 53.5552 7.53157C59.4493 7.53157 64.2472 12.3 64.2472 18.1579C64.2472 24.0158 59.4493 28.7842 53.5552 28.7842Z" fill="#1B1B1B"/>
<path d="M64.4377 56.479C64.7078 56.7474 65.1049 56.8263 65.4544 56.7C65.804 56.5737 66.0581 56.2421 66.074 55.8789L67.2656 40.8158C67.2814 40.5316 67.1861 40.2632 66.9796 40.0579C66.8048 39.8842 66.5506 39.7737 66.2965 39.7737C66.2647 39.7737 66.2488 39.7737 66.217 39.7737L51.0608 40.9579C50.6954 40.9895 50.3618 41.2263 50.2347 41.5737C50.1076 41.921 50.187 42.3158 50.4571 42.5842L52.3953 44.5105L40.7183 56.1158C40.5436 56.2895 40.4324 56.5421 40.4324 56.7947C40.4324 57.0474 40.5436 57.3 40.7183 57.4737L49.1385 65.7316C49.3132 65.9053 49.5674 66 49.8216 66C50.0758 66 50.3141 65.9053 50.4889 65.7316L52.5383 63.7421C52.9196 63.379 52.9196 62.7632 52.5542 62.3842C52.3794 62.1947 52.1411 62.1 51.871 62.1C51.6168 62.1 51.3785 62.1947 51.1879 62.3684L49.8216 63.7105L42.7678 56.7947L54.4447 45.1895C54.826 44.8105 54.826 44.2105 54.4447 43.8316L53.3009 42.6947L65.2638 41.7632L64.3265 53.6526L62.9284 52.2789C62.7536 52.1053 62.4995 51.9947 62.2453 51.9947C61.9911 51.9947 61.7528 52.0895 61.5621 52.2789L59.4809 54.3474C59.3062 54.5211 59.195 54.7737 59.195 55.0263C59.195 55.2789 59.2903 55.5158 59.4809 55.7053C59.8622 56.0842 60.4659 56.0842 60.8472 55.7053L62.2611 54.3L64.4377 56.479Z" fill="#1B1B1B"/>
<path d="M23.1475 6.25262C22.7662 5.87368 22.1625 5.87368 21.7812 6.25262L10.1043 17.8579L7.92775 15.6789C7.73711 15.4895 7.49881 15.3947 7.24461 15.3947C7.1334 15.3947 7.02219 15.4105 6.91099 15.4579C6.56147 15.5842 6.30728 15.9158 6.29139 16.2789L5.08398 31.3421C5.06809 31.6263 5.16341 31.8947 5.36994 32.1C5.56059 32.2895 5.83067 32.4 6.11663 32.3842L21.2887 31.2C21.6541 31.1684 21.9878 30.9316 22.1149 30.5842C22.242 30.2368 22.1625 29.8421 21.8924 29.5737L19.9542 27.6316L31.6312 16.0263C31.806 15.8526 31.9172 15.6 31.9172 15.3474C31.9172 15.0947 31.8218 14.8579 31.6312 14.6684L23.1475 6.25262ZM17.9048 26.9526C17.73 27.1263 17.6188 27.3789 17.6188 27.6316C17.6188 27.8842 17.7142 28.121 17.9048 28.3105L19.0487 29.4474L7.08574 30.3789L8.02308 18.4895L9.42113 19.8789C9.80242 20.2579 10.4061 20.2579 10.7874 19.8789L22.4644 8.27368L29.5818 15.3474L17.9048 26.9526Z" fill="#1B1B1B"/>
<path d="M9.24637 47.321L9.29403 47.3052C9.80242 47.1789 10.136 46.6737 10.0089 46.1526C9.89774 45.7105 9.50056 45.4105 9.07161 45.4105C8.99218 45.4105 8.92863 45.4263 8.8492 45.4421L8.80154 45.4579C8.54734 45.521 8.34081 45.6632 8.19783 45.8842C8.07073 46.1053 8.02307 46.3579 8.08662 46.6105C8.21372 47.1316 8.70621 47.4474 9.24637 47.321Z" fill="#1B1B1B"/>
<path d="M56.4307 60.1263L56.4783 60.1105C56.9867 59.9842 57.3203 59.4789 57.1932 58.9579C57.0661 58.4526 56.5577 58.121 56.0335 58.2474L55.9858 58.2632C55.4615 58.3895 55.1438 58.8947 55.2709 59.4158C55.3662 59.8421 55.7634 60.1579 56.2082 60.1579C56.2877 60.1579 56.3671 60.1579 56.4307 60.1263Z" fill="#1B1B1B"/>
<path d="M56.0337 17.7H51.7124C50.7592 17.7 49.9966 16.9421 49.9966 15.9947V13.8158C49.9966 12.8684 50.7592 12.1105 51.7124 12.1105H56.0337C56.9869 12.1105 57.7495 12.8684 57.7495 13.8158V15.979C57.7495 16.9263 56.9869 17.7 56.0337 17.7Z" fill="#F28E2A"/>
<path d="M56.0337 23.6684H51.7124C50.7592 23.6684 49.9966 22.9105 49.9966 21.9631V19.8C49.9966 18.8526 50.7592 18.0947 51.7124 18.0947H56.0337C56.9869 18.0947 57.7495 18.8526 57.7495 19.8V21.9631C57.7495 22.9105 56.9869 23.6684 56.0337 23.6684Z" fill="#F28E2A"/>
<path d="M54.8897 18.9316H49.9806C49.4404 18.9316 48.9956 18.4895 48.9956 17.9526V12.1105C48.9956 11.5737 49.4404 11.1316 49.9806 11.1316H54.8897C57.0503 11.1316 58.8138 12.8842 58.8138 15.0316C58.8138 17.179 57.0503 18.9316 54.8897 18.9316ZM50.9656 16.9895H54.8897C55.97 16.9895 56.8438 16.1211 56.8438 15.0474C56.8438 13.9737 55.97 13.1053 54.8897 13.1053H50.9656V16.9895Z" fill="#1B1B1B"/>
<path d="M54.8897 24.7737H49.9806C49.4404 24.7737 48.9956 24.3316 48.9956 23.7947V17.9526C48.9956 17.4158 49.4404 16.9737 49.9806 16.9737H54.8897C57.0503 16.9737 58.8138 18.7263 58.8138 20.8737C58.8138 23.0368 57.0503 24.7737 54.8897 24.7737ZM50.9656 22.8316H54.8897C55.97 22.8316 56.8438 21.9632 56.8438 20.8895C56.8438 19.8158 55.97 18.9474 54.8897 18.9474H50.9656V22.8316Z" fill="#1B1B1B"/>
<path d="M50.9655 13.0895C50.4253 13.0895 49.9805 12.6474 49.9805 12.1105V10.1684C49.9805 9.63159 50.4253 9.18948 50.9655 9.18948C51.5056 9.18948 51.9505 9.63159 51.9505 10.1684V12.1105C51.9505 12.6474 51.5056 13.0895 50.9655 13.0895Z" fill="#1B1B1B"/>
<path d="M54.8898 13.0895C54.3496 13.0895 53.9048 12.6474 53.9048 12.1105V10.1684C53.9048 9.63159 54.3496 9.18948 54.8898 9.18948C55.4299 9.18948 55.8748 9.63159 55.8748 10.1684V12.1105C55.8748 12.6474 55.4299 13.0895 54.8898 13.0895Z" fill="#1B1B1B"/>
<path d="M50.9655 26.7316C50.4253 26.7316 49.9805 26.2895 49.9805 25.7526V23.8105C49.9805 23.2737 50.4253 22.8316 50.9655 22.8316C51.5056 22.8316 51.9505 23.2737 51.9505 23.8105V25.7526C51.9505 26.2895 51.5056 26.7316 50.9655 26.7316Z" fill="#1B1B1B"/>
<path d="M54.8898 26.7316C54.3496 26.7316 53.9048 26.2895 53.9048 25.7526V23.8105C53.9048 23.2737 54.3496 22.8316 54.8898 22.8316C55.4299 22.8316 55.8748 23.2737 55.8748 23.8105V25.7526C55.8748 26.2895 55.4299 26.7316 54.8898 26.7316Z" fill="#1B1B1B"/>
</g>
<defs>
<clipPath id="clip0">
<rect width="72" height="72" fill="white"/>
</clipPath>
</defs>
</svg>
