<svg width="131" height="111" viewBox="0 0 131 111" fill="none" xmlns="http://www.w3.org/2000/svg">
<g clip-path="url(#clip0)">
<path d="M14.878 62.679C15.7932 62.679 16.5515 61.922 16.5515 61.0083C16.5515 60.0946 15.7932 59.3375 14.878 59.3375C13.9629 59.3375 13.2046 60.0946 13.2046 61.0083C13.2046 61.922 13.9629 62.679 14.878 62.679Z" fill="#F28E2A"/>
<path d="M65.4999 75.8622C66.4241 75.8622 67.1733 75.1142 67.1733 74.1914C67.1733 73.2687 66.4241 72.5207 65.4999 72.5207C64.5756 72.5207 63.8264 73.2687 63.8264 74.1914C63.8264 75.1142 64.5756 75.8622 65.4999 75.8622Z" fill="#F28E2A"/>
<path d="M52.8184 74.1915C52.8184 83.5633 63.8527 94.6842 64.3234 95.1541C64.977 95.8067 66.0491 95.8067 66.7028 95.1541C67.1735 94.6842 78.2078 83.5633 78.2078 74.1915C78.2078 67.2214 72.5076 61.5304 65.5261 61.5304C58.5186 61.5304 52.8184 67.1953 52.8184 74.1915ZM65.5 64.8719C70.6511 64.8719 74.8347 69.0487 74.8347 74.1915C74.8347 80.5612 67.984 88.7322 65.8922 91.1078L65.5 91.5515L65.1078 91.1078C63.016 88.7583 56.1653 80.5612 56.1653 74.1915C56.1653 69.0487 60.3489 64.8719 65.5 64.8719Z" fill="#F28E2A"/>
<path d="M16.5515 47.825C16.5515 46.9114 15.7932 46.1543 14.878 46.1543C13.9629 46.1543 13.2046 46.9114 13.2046 47.825V52.2107C13.2046 53.1244 13.9629 53.8815 14.878 53.8815C15.7932 53.8815 16.5515 53.1244 16.5515 52.2107V47.825Z" fill="#F28E2A"/>
<path d="M116.122 62.679C117.037 62.679 117.795 61.922 117.795 61.0083C117.795 60.0946 117.037 59.3375 116.122 59.3375C115.207 59.3375 114.448 60.0946 114.448 61.0083C114.448 61.922 115.181 62.679 116.122 62.679Z" fill="#F28E2A"/>
<path d="M124.907 73.6433C125.832 73.6433 126.581 72.8952 126.581 71.9725C126.581 71.0498 125.832 70.3018 124.907 70.3018C123.983 70.3018 123.234 71.0498 123.234 71.9725C123.234 72.8952 123.983 73.6433 124.907 73.6433Z" fill="#F28E2A"/>
<path d="M117.795 47.825C117.795 46.9114 117.037 46.1543 116.122 46.1543C115.207 46.1543 114.448 46.9114 114.448 47.825V52.2107C114.448 53.1244 115.207 53.8815 116.122 53.8815C117.037 53.8815 117.795 53.1244 117.795 52.2107V47.825Z" fill="#F28E2A"/>
<path d="M126.607 54.4036C126.607 53.4899 125.849 52.7328 124.934 52.7328C124.019 52.7328 123.26 53.4899 123.26 54.4036V63.2011C123.26 64.1148 124.019 64.8719 124.934 64.8719C125.849 64.8719 126.607 64.1148 126.607 63.2011V54.4036Z" fill="#F28E2A"/>
<path d="M43.6405 0H10.6944C4.94188 0 0.130698 4.49012 -4.06033e-05 10.2072C-0.130779 16.0809 4.60196 20.9104 10.4852 20.9104H15.9239L15.2964 21.7458C12.8908 24.9306 12.5247 29.1336 14.3028 32.71C16.0808 36.2864 19.6892 38.5054 23.6898 38.5054H24.7357L24.1081 39.3408C21.7026 42.5256 21.3365 46.7286 23.1145 50.305C24.8926 53.8815 28.501 56.1004 32.5016 56.1004H52.2954C52.7399 56.1004 53.1582 55.9177 53.472 55.6044L55.8253 53.2549C56.2175 52.8634 56.4006 52.3151 56.296 51.7669C56.1914 51.2187 55.8253 50.7749 55.3285 50.54C49.2099 47.7989 44.4249 42.6039 42.1762 36.2864C40.2936 30.9871 40.2936 25.1395 42.1762 19.8401C43.562 15.9243 45.8892 12.4784 48.9223 9.7373C49.8898 8.84972 49.5499 7.25729 48.2948 6.89181C47.7195 6.70908 47.1181 6.86571 46.6736 7.25729C43.2221 10.3899 40.555 14.3318 39.0123 18.7175C36.8682 24.7479 36.8682 31.3786 39.0123 37.409C41.1042 43.3349 45.2093 48.4515 50.5173 51.793L52.06 52.7589H32.6061C28.7624 52.7589 25.4417 49.5741 25.3371 45.8149C25.2848 43.8831 26.0169 42.0557 27.3505 40.6721C28.7101 39.2886 30.5143 38.5315 32.4493 38.5315C33.3121 38.5315 34.0704 37.8528 34.1489 36.9913C34.2012 36.4692 33.992 35.9732 33.6259 35.6077C33.3121 35.3205 32.8676 35.1639 32.4231 35.1639H23.8205C21.8594 35.1639 19.9507 34.3547 18.591 32.9711C16.9698 31.3264 16.2377 29.0553 16.6822 26.758C17.3097 23.3643 20.369 20.9626 23.8467 20.9626H25.8339C26.6968 20.9626 27.4551 20.3622 27.5596 19.5007C27.6904 18.4826 26.9059 17.595 25.8862 17.595H10.4852C7.5305 17.595 4.91573 15.8198 3.84367 13.0527C2.87621 10.5205 3.4776 7.67498 5.2818 5.63876L5.46483 5.45602C6.82451 4.09854 8.60256 3.36759 10.5113 3.36759H43.6666C44.4511 3.36759 45.157 2.81938 45.3139 2.03622C45.497 0.965898 44.6864 0 43.6405 0Z" fill="#F28E2A"/>
<path d="M6.06628 52.7328C5.15111 52.7328 4.39282 53.4899 4.39282 54.4036V63.2011C4.39282 64.1148 5.15111 64.8719 6.06628 64.8719C6.98145 64.8719 7.73973 64.1148 7.73973 63.2011V54.4036C7.76588 53.4899 7.00759 52.7328 6.06628 52.7328Z" fill="#F28E2A"/>
<path d="M46.2029 28.0371C46.2029 38.662 54.8578 47.2768 65.4737 47.2768C76.1158 47.2768 84.7446 38.6359 84.7446 28.0371C84.7446 17.4384 76.0897 8.79749 65.4737 8.79749C54.8839 8.79749 46.229 17.4384 46.2029 28.0371ZM81.4238 28.0371C81.4238 36.8085 74.2855 43.9353 65.4999 43.9353C56.7143 43.9353 49.5759 36.8085 49.5759 28.0371C49.5759 19.2657 56.7404 12.139 65.4999 12.139C74.2855 12.139 81.4238 19.2657 81.4238 28.0371Z" fill="#F28E2A"/>
<path d="M1.67345 111H129.327C130.242 111 131 110.243 131 109.329C131 108.416 130.242 107.658 129.327 107.658H118.161L118.946 106.797C121.038 104.474 122.188 101.472 122.188 98.365C122.188 91.3949 116.488 85.7039 109.507 85.7039C109.271 85.7039 109.036 85.7039 108.801 85.73L108.408 85.7561L108.278 85.3645C106.212 79.5169 100.303 76.0188 94.184 77.063C89.0591 77.9245 84.9277 81.9447 83.8818 87.0353C83.7772 87.5313 83.908 88.0273 84.2218 88.4189C84.5355 88.8104 85.0323 89.0454 85.5291 89.0454C86.3136 89.0454 87.0196 88.4972 87.1764 87.7401C87.987 83.746 91.4124 80.6917 95.4914 80.3262C100.329 79.9085 104.617 83.1717 105.506 87.9228C105.584 88.3666 105.846 88.7843 106.238 89.0193C106.63 89.2803 107.101 89.3586 107.546 89.2542C108.199 89.0976 108.879 89.0454 109.559 89.0454C112.095 89.0454 114.475 90.0374 116.253 91.8648C118.031 93.6921 118.972 96.0677 118.894 98.626C118.763 103.612 114.501 107.685 109.376 107.685H21.6764C16.5776 107.685 12.3156 103.638 12.1587 98.626C12.0802 96.0938 13.0216 93.6921 14.7996 91.8648C16.5776 90.0374 18.9571 89.0454 21.4934 89.0454C21.4934 89.0454 21.4934 89.0454 21.5196 89.0454C22.1994 89.0454 22.8531 89.1237 23.5068 89.2803C23.9513 89.3847 24.422 89.2803 24.8142 89.0454C25.2064 88.7843 25.4679 88.3927 25.5463 87.949C26.4092 83.1717 30.7236 79.9085 35.5609 80.3523C39.6399 80.7178 43.0653 83.7721 43.8759 87.7662C44.0327 88.5233 44.7126 89.0715 45.5232 89.0715C46.02 89.0715 46.5168 88.8365 46.8305 88.445C47.1443 88.0534 47.2751 87.5574 47.1705 87.0614C46.1507 81.9708 41.9932 77.9767 36.8683 77.0891C30.7497 76.0449 24.8142 79.543 22.7747 85.3906L22.6439 85.7822L22.2517 85.7561C22.0164 85.73 21.781 85.73 21.5457 85.73C16.5515 85.73 12.0279 88.6799 9.98842 93.2222C7.9489 97.7907 8.81178 103.116 12.1587 106.823L12.9431 107.685H1.67345C0.758283 107.685 0 108.442 0 109.355C0 110.269 0.758283 111 1.67345 111Z" fill="#F28E2A"/>
<path d="M85.7121 2.01014C85.869 2.7933 86.5488 3.34151 87.3594 3.34151H120.358C122.319 3.34151 124.228 4.15078 125.587 5.53436C127.208 7.179 127.941 9.45017 127.496 11.7474C126.869 15.1411 123.809 17.5428 120.332 17.5428H105.14C104.277 17.5428 103.519 18.1432 103.414 19.0047C103.283 20.0228 104.068 20.9104 105.088 20.9104H107.127C109.088 20.9104 110.997 21.7197 112.357 23.1033C113.978 24.7479 114.71 27.0191 114.265 29.3163C113.638 32.71 110.579 35.1117 107.101 35.1117H98.5768C97.6616 35.1117 96.8772 35.7905 96.8249 36.6781C96.7987 37.2002 96.9818 37.6962 97.374 38.0355C97.6877 38.3227 98.08 38.4532 98.4983 38.4532C102.342 38.4532 105.532 41.5859 105.61 45.4234C105.637 47.3029 104.931 49.1042 103.571 50.4617C102.185 51.8714 100.276 52.6545 98.3414 52.6545H78.8876L80.4303 51.6886C85.7644 48.3471 89.8434 43.2305 91.9353 37.3307C94.0794 31.3004 94.0794 24.6696 91.9353 18.6393C90.3664 14.2274 87.7255 10.2855 84.2478 7.15289C83.8033 6.76131 83.2019 6.60468 82.6267 6.78742C81.3716 7.179 81.0317 8.77143 81.9991 9.6329C85.0584 12.374 87.3594 15.8199 88.7714 19.7618C90.654 25.0612 90.654 30.9088 88.7714 36.2082C86.5488 42.5257 81.7638 47.7206 75.6452 50.4617C75.0177 50.7488 74.5993 51.4015 74.6516 52.1324C74.6778 52.5501 74.8869 52.9417 75.1746 53.2289L77.5017 55.5522C77.8155 55.8655 78.2339 56.0482 78.6784 56.0482H98.4722C102.473 56.0482 106.055 53.8293 107.859 50.2528C109.637 46.6764 109.271 42.4995 106.866 39.2886L106.238 38.4532H107.284C111.285 38.4532 114.867 36.2343 116.671 32.6578C118.449 29.0814 118.083 24.9045 115.677 21.6936L115.05 20.8582H120.306C126.032 20.8582 130.843 16.3681 130.974 10.651C131.105 4.77731 126.372 -0.0521851 120.489 -0.0521851H87.3594C86.3135 2.56598e-05 85.5029 0.965924 85.7121 2.01014Z" fill="#F28E2A"/>
<path d="M6.06628 73.6433C6.9905 73.6433 7.73973 72.8952 7.73973 71.9725C7.73973 71.0498 6.9905 70.3018 6.06628 70.3018C5.14205 70.3018 4.39282 71.0498 4.39282 71.9725C4.39282 72.8952 5.14205 73.6433 6.06628 73.6433Z" fill="#F28E2A"/>
<path d="M71.3046 27.489C72.2459 26.6536 72.8473 25.4528 72.8473 24.0953C72.8473 22.0069 71.4092 20.2317 69.4481 19.7357V17.334C69.4481 16.7075 68.9513 16.2115 68.3238 16.2115C67.6962 16.2115 67.1994 16.7075 67.1994 17.334V19.5791H64.9507V17.334C64.9507 16.7075 64.4539 16.2115 63.8263 16.2115C63.1988 16.2115 62.702 16.7075 62.702 17.334V19.5791H61.5776H59.3289C58.7014 19.5791 58.2046 20.0751 58.2046 20.7016C58.2046 21.3281 58.7014 21.8241 59.3289 21.8241H60.4533V27.4629V33.1017H59.3289C58.7014 33.1017 58.2046 33.5977 58.2046 34.2242C58.2046 34.8507 58.7014 35.3467 59.3289 35.3467H61.5776H62.702V37.5918C62.702 38.2183 63.1988 38.7143 63.8263 38.7143C64.4539 38.7143 64.9507 38.2183 64.9507 37.5918V35.3467H67.1994V37.5918C67.1994 38.2183 67.6962 38.7143 68.3238 38.7143C68.9513 38.7143 69.4481 38.2183 69.4481 37.5918V35.2423C71.383 34.7463 72.8473 32.9711 72.8473 30.8827C72.8473 29.5252 72.2459 28.2983 71.3046 27.489ZM68.3238 33.1278H62.6758V28.6115H68.3238C69.5788 28.6115 70.5725 29.6296 70.5725 30.8566C70.5725 32.1096 69.5788 33.1278 68.3238 33.1278ZM68.3238 26.3665H62.6758V21.8502H68.3238C69.5788 21.8502 70.5725 22.8684 70.5725 24.0953C70.5725 25.3484 69.5788 26.3665 68.3238 26.3665Z" fill="#F28E2A"/>
</g>
<defs>
<clipPath id="clip0">
<rect width="131" height="111" fill="white"/>
</clipPath>
</defs>
</svg>
