<svg width="81" height="77" viewBox="0 0 81 77" fill="none" xmlns="http://www.w3.org/2000/svg">
<path d="M79.8625 57.0002C79.8625 64.5245 73.7479 70.6292 66.2114 70.6292C58.6748 70.6292 52.5603 64.5245 52.5603 57.0002C52.5603 49.4759 58.6748 43.3713 66.2114 43.3713C73.7479 43.3713 79.8625 49.4759 79.8625 57.0002Z" fill="#BFBFBF"/>
<path d="M53.6978 14.7647C53.6978 22.289 47.5833 28.3936 40.0467 28.3936C32.5102 28.3936 26.3956 22.289 26.3956 14.7647C26.3956 7.24038 32.5102 1.13574 40.0467 1.13574C43.6728 1.13574 47.1389 2.57317 49.6985 5.1286C52.258 7.68403 53.6978 11.1445 53.6978 14.7647Z" fill="#BFBFBF"/>
<path d="M42.5707 14.463H37.416C36.3495 14.463 35.4963 13.6112 35.4963 12.5464V9.88453C35.4963 8.81977 36.3495 7.96796 37.416 7.96796H42.5707C43.6372 7.96796 44.4904 8.81977 44.4904 9.88453V12.5464C44.4904 13.5934 43.6372 14.463 42.5707 14.463Z" fill="#F28E2A"/>
<path d="M42.5707 21.4195H37.416C36.3495 21.4195 35.4963 20.5676 35.4963 19.5029V16.841C35.4963 15.7762 36.3495 14.9244 37.416 14.9244H42.5707C43.6372 14.9244 44.4904 15.7762 44.4904 16.841V19.5029C44.4904 20.5676 43.6372 21.4195 42.5707 21.4195Z" fill="#F28E2A"/>
<path d="M28.4397 57.0002C28.4397 64.5245 22.3252 70.6292 14.7887 70.6292C7.25212 70.6292 1.13757 64.5245 1.13757 57.0002C1.13757 49.4759 7.25212 43.3713 14.7887 43.3713C22.3252 43.3713 28.4397 49.4759 28.4397 57.0002Z" fill="#BFBFBF"/>
<path d="M18.2014 53.6995C18.2014 55.5806 16.6728 57.1067 14.7886 57.1067C12.9045 57.1067 11.3759 55.5806 11.3759 53.6995C11.3759 51.8184 12.9045 50.2922 14.7886 50.2922C16.6728 50.2922 18.2014 51.8184 18.2014 53.6995Z" fill="#F28E2A"/>
<path d="M14.7887 60.4075C14.7887 62.2886 13.26 63.8147 11.3759 63.8147C9.49177 63.8147 7.96313 62.2886 7.96313 60.4075C7.96313 58.5264 9.49177 57.0002 11.3759 57.0002C13.26 57.0002 14.7887 58.5264 14.7887 60.4075Z" fill="#F28E2A"/>
<path d="M21.6142 60.4075C21.6142 62.2886 20.0856 63.8147 18.2015 63.8147C16.3173 63.8147 14.7887 62.2886 14.7887 60.4075C14.7887 58.5264 16.3173 57.0002 18.2015 57.0002C20.0856 57.0002 21.6142 58.5264 21.6142 60.4075Z" fill="#F28E2A"/>
<path d="M71.8993 59.2717L66.2114 55.8645L60.5234 59.2717L66.2114 66.0862L71.8993 59.2717Z" fill="#F28E2A"/>
<path d="M71.8993 59.2717L66.2114 57.0002L60.5234 59.2717L66.2114 47.9143L71.8993 59.2717Z" fill="#F28E2A"/>
<path d="M66.2113 71.7649C58.0526 71.7649 51.4226 65.1456 51.4226 57.0002C51.4226 48.8548 58.0526 42.2355 66.2113 42.2355C74.3699 42.2355 81 48.8548 81 57.0002C81 65.1456 74.3522 71.7649 66.2113 71.7649ZM66.2113 44.507C59.3146 44.507 53.6978 50.1148 53.6978 57.0002C53.6978 63.8857 59.3146 69.4934 66.2113 69.4934C73.1079 69.4934 78.7248 63.8857 78.7248 57.0002C78.7248 50.1148 73.1079 44.507 66.2113 44.507Z" fill="#1B1B1B"/>
<path d="M40.0467 29.5294C31.8881 29.5294 25.2581 22.9101 25.2581 14.7647C25.2581 6.61927 31.8881 0 40.0467 0C48.2054 0 54.8354 6.61927 54.8354 14.7647C54.8354 22.9101 48.1876 29.5294 40.0467 29.5294ZM40.0467 2.27149C33.1501 2.27149 27.5332 7.87923 27.5332 14.7647C27.5332 21.6502 33.1501 27.2579 40.0467 27.2579C46.9434 27.2579 52.5602 21.6502 52.5602 14.7647C52.5602 7.87923 46.9434 2.27149 40.0467 2.27149Z" fill="#1B1B1B"/>
<path d="M14.7887 71.7649C6.63002 71.7649 0 65.1456 0 57.0002C0 48.8548 6.63002 42.2355 14.7887 42.2355C22.9473 42.2355 29.5773 48.8548 29.5773 57.0002C29.5773 65.1456 22.9473 71.7649 14.7887 71.7649ZM14.7887 44.507C7.89203 44.507 2.27518 50.1148 2.27518 57.0002C2.27518 63.8857 7.89203 69.4934 14.7887 69.4934C21.6853 69.4934 27.3022 63.8857 27.3022 57.0002C27.3022 50.1148 21.6853 44.507 14.7887 44.507Z" fill="#1B1B1B"/>
<path d="M70.5306 38.3137C69.9085 38.4201 69.3219 38.012 69.2152 37.3909C69.0197 36.3084 68.7886 35.2258 68.4865 34.1788C68.3087 33.5755 68.6642 32.9544 69.2686 32.7769C69.8729 32.6172 70.495 32.9544 70.6728 33.5577C70.9927 34.6757 71.2594 35.8292 71.4549 37.0004C71.5793 37.6216 71.1527 38.2072 70.5306 38.3137ZM68.6642 31.7831C68.1488 31.8718 67.6155 31.5879 67.42 31.091C67.0112 30.0795 66.5312 29.0857 66.0158 28.1274C65.7136 27.5773 65.9091 26.8852 66.4601 26.5835C67.0112 26.2819 67.7044 26.4771 68.0066 27.0272C68.5754 28.0565 69.0731 29.1212 69.5352 30.2215C69.7663 30.8071 69.4996 31.4637 68.9131 31.6944C68.8242 31.7476 68.7531 31.7654 68.6642 31.7831ZM65.3937 25.8205C64.9848 25.8914 64.5405 25.7317 64.2738 25.3591C63.6339 24.4718 62.9407 23.6199 62.212 22.8214C61.7854 22.36 61.8209 21.6324 62.2831 21.2242C62.7452 20.7983 63.474 20.8338 63.8828 21.2952C64.6649 22.1648 65.4292 23.0876 66.1046 24.0459C66.4779 24.5605 66.3535 25.2703 65.838 25.6252C65.7136 25.7317 65.5536 25.785 65.3937 25.8205ZM60.8077 20.7983C60.4878 20.8516 60.1323 20.7628 59.8657 20.5321C59.048 19.8223 58.1593 19.1657 57.2528 18.5623C56.7373 18.2074 56.5951 17.5153 56.9328 16.9829C57.2883 16.4683 57.9815 16.3263 58.5148 16.6635C59.4924 17.3201 60.4522 18.0477 61.341 18.8108C61.8209 19.2189 61.8742 19.9465 61.4654 20.4079C61.2877 20.6209 61.0566 20.7451 60.8077 20.7983Z" fill="#1B1B1B"/>
<path d="M8.37198 38.3136C7.74986 38.2072 7.34104 37.6216 7.44769 37.0004C7.64321 35.847 7.90983 34.6757 8.22978 33.5577C8.40753 32.9544 9.02965 32.6172 9.63399 32.7769C10.2383 32.9543 10.5938 33.5755 10.4161 34.1788C10.1139 35.2258 9.86507 36.3083 9.68732 37.3909C9.58067 38.012 8.9941 38.4201 8.37198 38.3136ZM10.2383 31.7831C10.1495 31.7654 10.0784 31.7476 10.0073 31.7121C9.42069 31.4814 9.15407 30.8071 9.38514 30.2392C9.82952 29.139 10.345 28.0742 10.9138 27.0449C11.216 26.4948 11.9092 26.2996 12.4602 26.6013C13.0112 26.903 13.2067 27.5951 12.9046 28.1452C12.3891 29.1035 11.9092 30.0972 11.5004 31.1088C11.2871 31.5879 10.7538 31.8718 10.2383 31.7831ZM13.5089 25.8204C13.3489 25.785 13.189 25.7317 13.0468 25.6252C12.5313 25.2703 12.4246 24.5605 12.7801 24.0458C13.4734 23.0876 14.2199 22.1648 15.002 21.2952C15.4286 20.8338 16.1396 20.7983 16.6017 21.2242C17.0639 21.6501 17.0994 22.36 16.6728 22.8214C15.9441 23.6199 15.2508 24.4718 14.611 25.3591C14.3799 25.7317 13.9355 25.8914 13.5089 25.8204ZM18.0948 20.7983C17.846 20.7628 17.6149 20.6209 17.4194 20.4257C17.0106 19.9465 17.0639 19.2367 17.5438 18.8285C18.4325 18.0654 19.3924 17.3379 20.37 16.6812C20.8855 16.3263 21.5965 16.4683 21.952 17.0007C22.3075 17.5153 22.1653 18.2252 21.632 18.5801C20.7255 19.1834 19.8545 19.84 19.0191 20.5499C18.7703 20.7628 18.4325 20.8516 18.0948 20.7983Z" fill="#1B1B1B"/>
<path d="M27.4089 72.4215C27.6755 71.8537 28.3509 71.6052 28.9197 71.8714C29.9151 72.3328 30.9461 72.7587 31.977 73.1136C32.5636 73.3266 32.8835 73.9654 32.688 74.5511C32.4747 75.1367 31.8348 75.4561 31.2482 75.2609C30.1462 74.8705 29.0441 74.4268 27.9777 73.93C27.3911 73.6638 27.1422 72.9894 27.4089 72.4215ZM33.8434 74.6398C34.0567 74.1606 34.5899 73.8945 35.1231 74.0187C36.1896 74.2671 37.2739 74.4446 38.3582 74.5688C38.9803 74.6398 39.4424 75.1899 39.3713 75.8288C39.3002 76.4499 38.7492 76.9113 38.1093 76.8403C36.9362 76.7161 35.763 76.5209 34.6254 76.2547C34.0211 76.1127 33.6301 75.5093 33.7723 74.8882C33.79 74.7995 33.8078 74.7108 33.8434 74.6398ZM40.6156 75.3674C40.7933 74.977 41.1844 74.7108 41.6287 74.7108C42.713 74.693 43.815 74.622 44.8993 74.4801C45.5214 74.3913 46.0902 74.835 46.1791 75.4561C46.2502 76.0772 45.8236 76.6451 45.2015 76.7338C44.0283 76.8758 42.8374 76.9645 41.6643 76.9823C41.0422 76.9823 40.5267 76.4854 40.5089 75.8643C40.5089 75.6868 40.5445 75.5271 40.6156 75.3674ZM47.37 74.4978C47.5122 74.1961 47.7788 73.9654 48.1166 73.8767C49.1653 73.6105 50.214 73.2733 51.2272 72.8829C51.8137 72.6522 52.4714 72.9362 52.7025 73.5218C52.9335 74.1074 52.6491 74.764 52.0626 74.9947C50.9605 75.4206 49.8229 75.7933 48.6854 76.0772C48.081 76.2369 47.4589 75.8643 47.2989 75.2609C47.2278 74.9947 47.2634 74.7285 47.37 74.4978Z" fill="#1B1B1B"/>
<path d="M41.1843 15.9004H35.4964C34.8742 15.9004 34.3588 15.3858 34.3588 14.7647V7.95023C34.3588 7.32912 34.8742 6.81448 35.4964 6.81448H41.1843C43.6906 6.81448 45.7347 8.85528 45.7347 11.3575C45.7347 13.8597 43.6906 15.9004 41.1843 15.9004ZM36.6339 13.629H41.1843C42.4463 13.629 43.4595 12.6174 43.4595 11.3575C43.4595 10.0975 42.4463 9.08597 41.1843 9.08597H36.6339V13.629Z" fill="#1B1B1B"/>
<path d="M41.1843 22.7149H35.4964C34.8742 22.7149 34.3588 22.2003 34.3588 21.5792V14.7647C34.3588 14.1436 34.8742 13.6289 35.4964 13.6289H41.1843C43.6906 13.6289 45.7347 15.6697 45.7347 18.1719C45.7347 20.6741 43.6906 22.7149 41.1843 22.7149ZM36.6339 20.4434H41.1843C42.4463 20.4434 43.4595 19.4319 43.4595 18.1719C43.4595 16.912 42.4463 15.9004 41.1843 15.9004H36.6339V20.4434Z" fill="#1B1B1B"/>
<path d="M36.6339 9.08595C36.0118 9.08595 35.4963 8.57131 35.4963 7.9502V5.67871C35.4963 5.0576 36.0118 4.54297 36.6339 4.54297C37.256 4.54297 37.7715 5.0576 37.7715 5.67871V7.9502C37.7715 8.57131 37.256 9.08595 36.6339 9.08595Z" fill="#1B1B1B"/>
<path d="M41.1843 9.08595C40.5622 9.08595 40.0468 8.57131 40.0468 7.9502V5.67871C40.0468 5.0576 40.5622 4.54297 41.1843 4.54297C41.8065 4.54297 42.3219 5.0576 42.3219 5.67871V7.9502C42.3219 8.57131 41.8065 9.08595 41.1843 9.08595Z" fill="#1B1B1B"/>
<path d="M36.6339 24.9864C36.0118 24.9864 35.4963 24.4718 35.4963 23.8507V21.5792C35.4963 20.9581 36.0118 20.4434 36.6339 20.4434C37.256 20.4434 37.7715 20.9581 37.7715 21.5792V23.8507C37.7715 24.4718 37.256 24.9864 36.6339 24.9864Z" fill="#1B1B1B"/>
<path d="M41.1843 24.9864C40.5622 24.9864 40.0468 24.4718 40.0468 23.8507V21.5792C40.0468 20.9581 40.5622 20.4434 41.1843 20.4434C41.8065 20.4434 42.3219 20.9581 42.3219 21.5792V23.8507C42.3219 24.4718 41.8065 24.9864 41.1843 24.9864Z" fill="#1B1B1B"/>
<path d="M14.7886 58.2425C12.2824 58.2425 10.2383 56.2017 10.2383 53.6995C10.2383 51.1973 12.2824 49.1565 14.7886 49.1565C17.2949 49.1565 19.339 51.1973 19.339 53.6995C19.339 56.2194 17.2949 58.2425 14.7886 58.2425ZM14.7886 51.428C13.5266 51.428 12.5135 52.4395 12.5135 53.6995C12.5135 54.9594 13.5266 55.971 14.7886 55.971C16.0507 55.971 17.0638 54.9594 17.0638 53.6995C17.0638 52.4573 16.0507 51.428 14.7886 51.428Z" fill="#1B1B1B"/>
<path d="M11.3759 64.9504C8.86967 64.9504 6.82556 62.9096 6.82556 60.4075C6.82556 57.9053 8.86967 55.8645 11.3759 55.8645C13.8822 55.8645 15.9263 57.9053 15.9263 60.4075C15.9263 62.9096 13.8822 64.9504 11.3759 64.9504ZM11.3759 58.136C10.1139 58.136 9.10074 59.1475 9.10074 60.4075C9.10074 61.6674 10.1139 62.679 11.3759 62.679C12.6379 62.679 13.6511 61.6674 13.6511 60.4075C13.6511 59.1475 12.6379 58.136 11.3759 58.136Z" fill="#1B1B1B"/>
<path d="M18.2015 64.9504C15.6952 64.9504 13.6511 62.9096 13.6511 60.4075C13.6511 57.9053 15.6952 55.8645 18.2015 55.8645C20.7077 55.8645 22.7518 57.9053 22.7518 60.4075C22.7518 62.9096 20.7077 64.9504 18.2015 64.9504ZM18.2015 58.136C16.9395 58.136 15.9263 59.1475 15.9263 60.4075C15.9263 61.6674 16.9395 62.679 18.2015 62.679C19.4635 62.679 20.4767 61.6674 20.4767 60.4075C20.4767 59.1475 19.4635 58.136 18.2015 58.136Z" fill="#1B1B1B"/>
<path d="M71.8992 60.4075C71.757 60.4075 71.6148 60.3897 71.4726 60.3187L66.2113 58.207L60.9322 60.3365C60.4878 60.5139 59.9901 60.3897 59.6702 60.0525C59.3502 59.7154 59.2791 59.2007 59.4924 58.7748L65.1804 47.4174C65.5714 46.6543 66.8334 46.6543 67.2067 47.4174L72.8946 58.7748C73.1079 59.2007 73.0368 59.6976 72.7169 60.0525C72.5036 60.2832 72.2014 60.4075 71.8992 60.4075ZM66.2113 55.8645C66.3535 55.8645 66.4957 55.9 66.6379 55.9532L69.553 57.1067L66.2113 50.4519L62.8874 57.1067L65.8025 55.9532C65.9269 55.9 66.0691 55.8645 66.2113 55.8645Z" fill="#1B1B1B"/>
<path d="M66.2113 67.2219C65.8736 67.2219 65.5537 67.08 65.3404 66.8138L59.6524 59.9993C59.4214 59.7154 59.3325 59.3427 59.4214 58.9878C59.5102 58.6329 59.7591 58.3489 60.0968 58.207L65.7848 55.9355C66.0514 55.829 66.3535 55.829 66.6379 55.9355L72.3259 58.207C72.6636 58.3489 72.9125 58.6329 73.0013 58.9878C73.0902 59.3427 73.0013 59.7154 72.7703 59.9993L67.0823 66.8138C66.869 67.08 66.5491 67.2219 66.2113 67.2219ZM62.3898 59.7509L66.1936 64.3116L69.9974 59.7509L66.1936 58.2247L62.3898 59.7509Z" fill="#1B1B1B"/>
</svg>
