<svg xmlns="http://www.w3.org/2000/svg" width="133" height="113" viewBox="0 0 133 113" fill="none"><path d="M66.5001 35.8516C65.089 35.8516 63.9345 36.9966 63.9345 38.3961C63.9345 39.7955 65.089 40.9405 66.5001 40.9405C67.9112 40.9405 69.0657 39.7955 69.0657 38.3961C69.0657 36.9966 67.9112 35.8516 66.5001 35.8516ZM124.534 51.1439H114.554C109.294 36.2333 101.649 10.0761 87.7945 2.67167C80.8674 -1.01782 74.3251 1.5521 71.8622 6.79371C70.8103 9.03285 68.7322 10.2033 66.5001 10.2033C64.2424 10.2033 62.1899 9.0074 61.138 6.79371C58.752 1.73021 52.3637 -1.09415 45.6932 2.11188C31.6338 8.90563 23.7574 36.106 18.4723 51.1439H8.46654C4.20766 51.1439 0.769775 54.5535 0.769775 58.7773C0.769775 63.0011 4.23332 66.4107 8.46654 66.4107H124.508C128.767 66.4107 132.205 63.0011 132.205 58.7773C132.23 54.5535 128.767 51.1439 124.534 51.1439ZM27.4775 40.9405H56.2121C57.6232 40.9405 58.7777 39.7955 58.7777 38.3961C58.7777 36.9966 57.6232 35.8516 56.2121 35.8516H29.2734C37.0215 14.6561 44.2308 8.49851 47.9509 6.71738C51.9789 4.78358 55.2885 6.41204 56.4943 8.95652C58.3672 12.9768 62.2669 15.2923 66.5001 15.2923C70.7333 15.2923 74.633 12.9513 76.5059 8.95652C77.7374 6.33571 81.0726 4.88536 85.3315 7.14994C89.0516 9.13463 96.2609 15.4958 103.701 35.8516H76.7625C75.3514 35.8516 74.1969 36.9966 74.1969 38.3961C74.1969 39.7955 75.3514 40.9405 76.7625 40.9405H105.497C106.805 44.6555 108.14 48.4722 109.063 51.1184H23.8857C24.835 48.4976 26.1691 44.6809 27.4775 40.9405ZM124.534 61.3218H8.46654C7.05546 61.3218 5.90095 60.1767 5.90095 58.7773C5.90095 57.3778 7.05546 56.2328 8.46654 56.2328H124.508C125.919 56.2328 127.074 57.3778 127.074 58.7773C127.099 60.1767 125.945 61.3218 124.534 61.3218ZM61.3689 76.5886H20.2939C18.8828 76.5886 17.7283 77.7336 17.7283 79.1331V89.3109C17.7283 101.957 28.0933 112.237 40.8442 112.237C50.4908 112.237 59.0342 106.359 62.4465 97.4787C65.0377 96.3083 68.0138 96.3083 70.605 97.4787C73.9916 106.359 82.5607 112.237 92.2073 112.237C104.958 112.237 115.323 101.957 115.323 89.3109V79.1331C115.323 77.7336 114.169 76.5886 112.758 76.5886H71.6313C70.2202 76.5886 69.0657 77.7336 69.0657 79.1331V81.6775H63.9345V79.1331C63.9345 77.7336 62.78 76.5886 61.3689 76.5886ZM40.8186 107.148C30.9154 107.148 22.8338 99.1581 22.8338 89.3109V81.6775H58.7777V89.3109C58.8033 99.1835 50.7731 107.148 40.8186 107.148ZM74.1969 81.703H110.141V89.3364C110.141 99.1581 102.085 107.173 92.156 107.173C82.1758 107.173 74.1712 99.1835 74.1712 89.3364V81.703H74.1969ZM69.0657 86.7919V89.3364C69.0657 90.1506 69.117 90.9649 69.194 91.7536C67.3981 91.4229 65.5765 91.4229 63.8062 91.7536C63.8832 90.9394 63.9345 90.1506 63.9345 89.3364V86.7919H69.0657ZM40.8186 96.9698C36.5597 96.9698 33.1218 93.5348 33.1218 89.3364C33.1218 87.9369 31.9673 86.7919 30.5562 86.7919C29.1452 86.7919 27.9906 87.9369 27.9906 89.3364C27.9906 96.3591 33.7376 102.059 40.8186 102.059C42.2297 102.059 43.3842 100.914 43.3842 99.5143C43.3842 98.1148 42.2297 96.9698 40.8186 96.9698ZM92.1816 102.059C99.2626 102.059 105.01 96.3591 105.01 89.3364C105.01 87.9369 103.855 86.7919 102.444 86.7919C101.033 86.7919 99.8784 87.9369 99.8784 89.3364C99.8784 93.5602 96.4148 96.9698 92.1816 96.9698C90.7705 96.9698 89.616 98.1148 89.616 99.5143C89.616 100.914 90.7449 102.059 92.1816 102.059Z" fill="#F28E2A" stroke="white" stroke-miterlimit="10"></path></svg>