<svg width="72" height="72" viewBox="0 0 72 72" fill="none" xmlns="http://www.w3.org/2000/svg">
<g clip-path="url(#clip0)">
<path d="M14.3905 20.3922H16.8009V19.187H19.2114V20.3922H21.6218V18.9701C23.4778 18.3193 24.4661 16.2945 23.8153 14.4384C23.6466 13.9805 23.4055 13.5466 23.0681 13.185C24.3938 11.7387 24.2974 9.47293 22.8511 8.14718C22.4896 7.80972 22.0798 7.56868 21.5977 7.39995V5.97778H19.1872V7.18301H16.7768V5.97778H14.3664V7.18301H13.1611V9.59345H14.3664V16.8007H13.1611V19.2111H14.3664V20.3922H14.3905ZM16.8009 9.59345H20.3925C21.0433 9.59345 21.5977 10.1237 21.5977 10.7987C21.5977 11.4736 21.0674 12.0039 20.3925 12.0039H16.8009V9.59345ZM16.8009 14.3902H20.3925C21.0433 14.3902 21.5977 14.9205 21.5977 15.5955C21.5977 16.2463 21.0674 16.8007 20.3925 16.8007H16.8009V14.3902Z" fill="#979797"/>
<path d="M18.0061 26.3944C25.2857 26.3944 31.2154 20.4888 31.2154 13.1851C31.2154 5.88149 25.2857 0 18.0061 0C10.7266 0 4.79688 5.90559 4.79688 13.2092C4.79688 20.4888 10.7025 26.3944 18.0061 26.3944ZM18.0061 2.41044C23.9599 2.41044 28.8049 7.25544 28.8049 13.2092C28.8049 19.163 23.9599 24.008 18.0061 24.008C12.0523 24.008 7.20732 19.163 7.20732 13.2092C7.20732 7.23134 12.0282 2.41044 18.0061 2.41044Z" fill="#979797"/>
<path d="M31.1912 50.4024C31.1912 43.1228 25.2856 37.1931 17.9819 37.1931C10.6783 37.1931 4.77271 43.0987 4.77271 50.4024C4.77271 57.706 10.6783 63.6116 17.9819 63.6116C25.2856 63.5875 31.1912 57.6819 31.1912 50.4024ZM18.0061 61.2011C12.0522 61.2011 7.20726 56.3561 7.20726 50.4024C7.20726 44.4486 12.0522 39.6036 18.0061 39.6036C23.9599 39.6036 28.8048 44.4486 28.8048 50.4024C28.8048 56.3561 23.9599 61.2011 18.0061 61.2011Z" fill="#979797"/>
<path d="M26.1051 52.379C26.4667 51.9451 26.4908 51.3184 26.1533 50.8845L18.9461 41.2909C18.5122 40.7606 17.7168 40.6883 17.1865 41.1222C17.1142 41.1704 17.0659 41.2186 17.0177 41.2909L9.81051 50.8845C9.47305 51.3425 9.49715 51.9692 9.85872 52.379L17.0659 60.7673C17.4998 61.2735 18.2471 61.3217 18.7533 60.8879C18.8015 60.8396 18.8497 60.8155 18.8738 60.7673L26.1051 52.379ZM12.3415 51.5594L18.006 44.0147L23.6706 51.5594L18.006 58.164L12.3415 51.5594Z" fill="#979797"/>
<path d="M19.862 50.5229L18.0059 51.463L16.1499 50.5229L15.0652 52.6682L17.4756 53.8735C17.8131 54.0422 18.1988 54.0422 18.5603 53.8735L20.9708 52.6682L19.862 50.5229Z" fill="#979797"/>
<path d="M58.7908 45.6057C51.5112 45.6057 45.5815 51.5113 45.5815 58.815C45.5815 66.1186 51.4871 72.0242 58.7908 72.0242C66.0944 72.0242 72 66.1186 72 58.815C72 51.5113 66.0944 45.6057 58.7908 45.6057ZM58.7908 69.6138C52.837 69.6138 47.992 64.7688 47.992 58.815C47.992 52.8612 52.837 48.0162 58.7908 48.0162C64.7446 48.0162 69.5896 52.8612 69.5896 58.815C69.5896 64.7688 64.7687 69.5897 58.7908 69.6138Z" fill="#979797"/>
<path d="M47.992 38.3985C55.2715 38.3985 61.2012 32.4929 61.2012 25.1892C61.2012 17.8856 55.2956 11.98 47.992 11.98C40.6883 11.98 34.7827 17.8856 34.7827 25.1892C34.8068 32.4929 40.7124 38.3985 47.992 38.3985ZM47.992 14.3904C53.9458 14.3904 58.7908 19.2354 58.7908 25.1892C58.7908 31.143 53.9458 35.988 47.992 35.988C42.0382 35.988 37.1932 31.143 37.1932 25.1892C37.2173 19.2354 42.0382 14.4145 47.992 14.3904Z" fill="#979797"/>
<path d="M63.009 52.8127H58.8148C58.164 52.8127 57.6096 53.343 57.6096 54.018V66.022H60.0201V61.2252H63.009C65.323 61.2252 67.2032 59.345 67.2032 57.031C67.2032 54.717 65.323 52.8127 63.009 52.8127ZM63.009 58.7906H60.0201V55.1991H63.009C63.9973 55.1991 64.8168 55.9945 64.8168 57.0069C64.8168 58.0193 63.9973 58.7906 63.009 58.7906Z" fill="#979797"/>
<path d="M56.4043 52.8127H53.9939V66.022H56.4043V52.8127Z" fill="#979797"/>
<path d="M44.4005 31.191H47.9921C51.2944 31.191 53.9941 28.5154 53.9941 25.189C53.9941 21.8626 51.3185 19.187 47.9921 19.187H44.4005C43.7497 19.187 43.1953 19.7173 43.1953 20.3922V29.9858C43.1953 30.6607 43.7497 31.191 44.4005 31.191ZM45.6058 26.3942H49.1973V23.9838H45.6058V21.5734H48.0162C49.9928 21.5734 51.6078 23.1883 51.6078 25.1649C51.6078 27.1415 49.9928 28.7565 48.0162 28.7565H45.6058V26.3942Z" fill="#979797"/>
<path d="M70.7948 1.20532C71.4456 1.20532 72.0001 1.73562 72.0001 2.41054V8.41255C72.0001 9.06337 71.4698 9.61778 70.7948 9.61778C70.144 9.61778 69.5896 9.08748 69.5896 8.41255V2.41054C69.6137 1.73562 70.144 1.20532 70.7948 1.20532Z" fill="#979797"/>
<path d="M1.20522 0C1.85604 0 2.41045 0.530298 2.41045 1.20522V2.41044C2.41045 3.06127 1.88015 3.61567 1.20522 3.61567C0.554402 3.61567 0 3.08537 0 2.41044V1.20522C0 0.530298 0.530298 0 1.20522 0Z" fill="#979797"/>
<path d="M64.7926 9.59351C65.4435 9.59351 65.9979 10.1238 65.9979 10.7987V19.1871C65.9979 19.8379 65.4676 20.3923 64.7926 20.3923C64.1418 20.3923 63.5874 19.862 63.5874 19.1871V10.7987C63.6115 10.1479 64.1418 9.59351 64.7926 9.59351Z" fill="#979797"/>
<path d="M1.20522 24.0081C1.85604 24.0081 2.41045 24.5384 2.41045 25.2133V26.4185C2.41045 27.0693 1.88015 27.6237 1.20522 27.6237C0.554402 27.6237 0 27.0934 0 26.4185V25.2133C0 24.5384 0.530298 24.0081 1.20522 24.0081Z" fill="#979797"/>
<path d="M4.79678 28.8049C5.4476 28.8049 6.002 29.3352 6.002 30.0102C6.002 30.661 5.4717 31.2154 4.79678 31.2154C4.14596 31.2154 3.59155 30.6851 3.59155 30.0102C3.59155 29.3352 4.14596 28.8049 4.79678 28.8049Z" fill="#979797"/>
<path d="M4.79678 33.6016C5.4476 33.6016 6.002 34.1319 6.002 34.8068V37.2172C6.002 37.8681 5.4717 38.4225 4.79678 38.4225C4.14596 38.4225 3.59155 37.8922 3.59155 37.2172V34.8068C3.59155 34.1319 4.14596 33.6016 4.79678 33.6016Z" fill="#979797"/>
<path d="M21.5976 64.7927C22.2484 64.7927 22.8028 65.323 22.8028 65.9979C22.8028 66.6488 22.2725 67.2032 21.5976 67.2032C20.9467 67.2032 20.3923 66.6729 20.3923 65.9979C20.3923 65.3471 20.9467 64.7927 21.5976 64.7927Z" fill="#979797"/>
<path d="M21.5976 69.6135C22.2484 69.6135 22.8028 70.1438 22.8028 70.8187C22.8028 71.4696 22.2725 72.024 21.5976 72.024C20.9467 72.024 20.3923 71.4937 20.3923 70.8187C20.3923 70.1438 20.9467 69.6135 21.5976 69.6135Z" fill="#979797"/>
<path d="M43.1952 67.2031C43.846 67.2031 44.4004 67.7334 44.4004 68.4083C44.4004 69.0592 43.8701 69.6136 43.1952 69.6136C42.5444 69.6136 41.99 69.0833 41.99 68.4083C41.99 67.7334 42.5444 67.2031 43.1952 67.2031Z" fill="#979797"/>
<path d="M28.8048 25.1892C29.4557 25.1892 30.0101 25.7195 30.0101 26.3944C30.0101 27.0452 29.4798 27.5996 28.8048 27.5996C28.154 27.5996 27.5996 27.0694 27.5996 26.3944C27.5996 25.7436 28.1299 25.1892 28.8048 25.1892Z" fill="#979797"/>
<path d="M28.8048 30.01C29.4557 30.01 30.0101 30.5403 30.0101 31.2152V33.6257C30.0101 34.2765 29.4798 34.8309 28.8048 34.8309C28.154 34.8309 27.5996 34.3006 27.5996 33.6257V31.2152C27.5996 30.5403 28.1299 30.01 28.8048 30.01Z" fill="#979797"/>
<path d="M64.7926 4.79688C65.4435 4.79688 65.9979 5.32717 65.9979 6.0021C65.9979 6.65292 65.4676 7.20732 64.7926 7.20732C64.1418 7.20732 63.5874 6.67702 63.5874 6.0021C63.6115 5.32717 64.1418 4.79688 64.7926 4.79688Z" fill="#979797"/>
<path d="M37.1933 51.6077C37.8441 51.6077 38.3985 52.138 38.3985 52.8129V61.2012C38.3985 61.8521 37.8682 62.4065 37.1933 62.4065C36.5424 62.4065 35.988 61.8762 35.988 61.2012V52.8129C36.0121 52.138 36.5424 51.6077 37.1933 51.6077Z" fill="#979797"/>
<path d="M44.4005 0C45.0513 0 45.6057 0.530298 45.6057 1.20522V7.20723C45.6057 7.85805 45.0755 8.41245 44.4005 8.41245C43.7497 8.41245 43.1953 7.88216 43.1953 7.20723V1.20522C43.1953 0.530298 43.7497 0 44.4005 0Z" fill="#979797"/>
<path d="M37.1933 46.8108C37.8441 46.8108 38.3985 47.3411 38.3985 48.016C38.3985 48.6668 37.8682 49.2212 37.1933 49.2212C36.5424 49.2212 35.988 48.6909 35.988 48.016C36.0121 47.3411 36.5424 46.8108 37.1933 46.8108Z" fill="#979797"/>
<path d="M70.7948 34.8069C71.4456 34.8069 72.0001 35.3372 72.0001 36.0121V44.4005C72.0001 45.0513 71.4698 45.6057 70.7948 45.6057C70.144 45.6057 69.5896 45.0754 69.5896 44.4005V36.0121C69.6137 35.3372 70.144 34.8069 70.7948 34.8069Z" fill="#979797"/>
<path d="M70.7948 30.01C71.4456 30.01 72.0001 30.5403 72.0001 31.2152C72.0001 31.8661 71.4698 32.4205 70.7948 32.4205C70.144 32.4205 69.5896 31.8902 69.5896 31.2152C69.6137 30.5403 70.144 30.01 70.7948 30.01Z" fill="#979797"/>
<path d="M1.20522 61.2012C1.85604 61.2012 2.41045 61.7315 2.41045 62.4064V70.7948C2.41045 71.4456 1.88015 72 1.20522 72C0.554402 72 0 71.4697 0 70.7948V62.4064C0 61.7315 0.530298 61.2012 1.20522 61.2012Z" fill="#979797"/>
<path d="M1.20522 56.4045C1.85604 56.4045 2.41045 56.9348 2.41045 57.6098C2.41045 58.2606 1.88015 58.815 1.20522 58.815C0.554402 58.815 0 58.2847 0 57.6098C0 56.9348 0.530298 56.4045 1.20522 56.4045Z" fill="#979797"/>
</g>
<defs>
<clipPath id="clip0">
<rect width="72" height="72" fill="white"/>
</clipPath>
</defs>
</svg>
