<svg xmlns="http://www.w3.org/2000/svg" width="129" height="124" viewBox="0 0 129 124" fill="none"><path d="M78.3399 44.213C77.4424 44.213 76.7339 44.9467 76.7339 45.8225V48.1893C76.7339 49.0888 77.466 49.7988 78.3399 49.7988C79.2138 49.7988 79.9459 49.0651 79.9459 48.1893V45.8225C79.9459 44.9231 79.2138 44.213 78.3399 44.213Z" fill="#F28E2A"></path><path d="M97.4232 54.0592C96.7855 53.4201 95.7699 53.4201 95.1323 54.0592L82.0008 67.219L81.3867 66.9113C80.4184 66.4379 79.3792 66.1775 78.2928 66.1775C77.2064 66.1775 76.1672 66.4142 75.1989 66.9113L74.5848 67.219L68.4442 61.0651C68.1372 60.7574 67.7121 60.5917 67.3106 60.5917C66.9091 60.5917 66.484 60.7574 66.1769 61.0651C65.8699 61.3728 65.7046 61.7752 65.7046 62.2012C65.7046 62.6272 65.8699 63.0296 66.1769 63.3373L72.3175 69.4911L72.0105 70.1065C71.5382 71.0769 71.2784 72.1184 71.2784 73.2071C71.2784 77.0651 74.4195 80.213 78.2692 80.213C82.1189 80.213 85.2601 77.0651 85.2601 73.2071C85.2601 72.1184 85.0239 71.0769 84.5279 70.1065L84.2209 69.4911L97.3523 56.3314C98.0372 55.716 98.0372 54.6746 97.4232 54.0592ZM78.2928 76.9941C76.2145 76.9941 74.514 75.29 74.514 73.2071C74.514 71.1243 76.2145 69.4201 78.2928 69.4201C80.3712 69.4201 82.0717 71.1243 82.0717 73.2071C82.0717 75.29 80.3712 76.9941 78.2928 76.9941Z" fill="#F28E2A"></path><path d="M76.6631 98.2249V100.592C76.6631 101.491 77.3952 102.201 78.2691 102.201C79.1666 102.201 79.8751 101.467 79.8751 100.592V98.2249C79.8751 97.3255 79.1429 96.6154 78.2691 96.6154C77.3716 96.6154 76.6631 97.3491 76.6631 98.2249Z" fill="#F28E2A"></path><path d="M50.9671 71.574C50.0696 71.574 49.3611 72.3077 49.3611 73.1834C49.3611 74.0829 50.0932 74.7929 50.9671 74.7929H53.3289C54.2263 74.7929 54.9349 74.0592 54.9349 73.1834C54.9349 72.284 54.2027 71.574 53.3289 71.574H50.9671Z" fill="#F28E2A"></path><path d="M118.632 101.325C118.986 101.562 119.435 101.633 119.836 101.562C120.261 101.467 120.616 101.231 120.852 100.852C127.087 91.2426 129.874 79.645 128.74 68.1657C127.583 56.5444 122.411 45.5858 114.144 37.3018C107.319 30.4615 98.7457 25.7515 89.3458 23.6686L88.6137 23.503V15.4793L89.3222 15.2899C92.794 14.4379 95.203 11.3373 95.203 7.76331C95.203 3.47929 91.7312 0 87.4564 0H69.0582C64.7834 0 61.3116 3.47929 61.3116 7.76331C61.3116 11.3373 63.7206 14.4379 67.1924 15.2899L67.9009 15.4793V23.503L67.1688 23.6686C57.7926 25.7751 49.2666 30.4852 42.4647 37.3018C40.9531 38.8166 39.5125 40.4497 38.2135 42.1538L37.9064 42.5562L37.4105 42.5089C37.3632 42.5089 37.316 42.5089 37.2924 42.5089H19.0359C18.1384 42.5089 17.4299 43.2426 17.4299 44.1183C17.4299 45.0177 18.162 45.7278 19.0359 45.7278H35.6391L34.7889 47.1716C32.9703 50.2248 31.4824 53.4674 30.3252 56.8284L30.1126 57.4674H1.60601C0.708532 57.4674 0 58.2012 0 59.0769C0 59.9527 0.732149 60.6864 1.60601 60.6864H29.1679L28.9081 61.8461C28.1996 65.0177 27.7744 68.2603 27.6564 71.503L27.6327 72.426H15.4224C14.5249 72.426 13.8164 73.1598 13.8164 74.0355C13.8164 74.9349 14.5485 75.645 15.4224 75.645H27.7036L27.7508 76.5207C27.9634 79.787 28.483 83.0296 29.3096 86.1775L29.6166 87.3609H11.8325C10.935 87.3609 10.2265 88.0947 10.2265 88.9704C10.2265 89.8698 10.9586 90.5799 11.8325 90.5799H30.6794L30.9156 91.1953C33.4663 97.9408 37.3396 103.953 42.4647 109.089C50.7309 117.373 61.6895 122.58 73.3094 123.716C74.939 123.882 76.6159 123.953 78.2927 123.953C88.1886 123.953 97.7538 121.112 105.949 115.763C106.303 115.527 106.563 115.172 106.658 114.746C106.752 114.32 106.658 113.893 106.421 113.538C106.185 113.183 105.831 112.923 105.406 112.828C104.981 112.734 104.556 112.828 104.201 113.065C96.3367 118.201 87.362 120.686 78.4345 120.686C66.1296 120.686 53.9193 115.953 44.7792 106.793C26.2629 88.2367 26.2629 58.0592 44.7792 39.5266C63.2955 20.9704 93.4081 20.9704 111.901 39.5266C127.654 55.3136 130.299 80.3314 118.183 99.0296C117.947 99.3846 117.876 99.8343 117.947 100.237C118.018 100.71 118.254 101.089 118.632 101.325ZM85.4017 22.9112L84.3389 22.7929C80.3003 22.3195 76.2144 22.3195 72.1994 22.7929L71.1366 22.9112V15.5266H85.4017V22.9112ZM69.0582 12.3077C66.5547 12.3077 64.5236 10.2722 64.5236 7.76331C64.5236 5.25444 66.5547 3.21893 69.0582 3.21893H87.4564C89.9599 3.21893 91.991 5.25444 91.991 7.76331C91.991 10.2722 89.9599 12.3077 87.4564 12.3077H69.0582Z" fill="#F28E2A"></path><path d="M103.257 71.6213C102.359 71.6213 101.651 72.3551 101.651 73.2308C101.651 74.1302 102.383 74.8403 103.257 74.8403H105.618C106.516 74.8403 107.224 74.1066 107.224 73.2308C107.224 72.3314 106.492 71.6213 105.618 71.6213H103.257Z" fill="#F28E2A"></path><path d="M2.73966 90.1538C3.04669 89.8461 3.21201 89.4438 3.21201 89.0177C3.21201 88.5917 3.04669 88.1657 2.73966 87.8816C2.43263 87.5739 2.03112 87.4083 1.60601 87.4083C1.18089 87.4083 0.755767 87.5739 0.472354 87.8816C0.165324 88.1893 0 88.5917 0 89.0177C0 89.4438 0.165324 89.8698 0.472354 90.1538C0.779385 90.4615 1.18089 90.6272 1.60601 90.6272C2.03112 90.6272 2.45624 90.4615 2.73966 90.1538Z" fill="#F28E2A"></path><path d="M114.144 109.136C114.451 108.828 114.617 108.426 114.617 108C114.617 107.574 114.451 107.172 114.144 106.864C113.837 106.556 113.436 106.391 113.011 106.391C112.586 106.391 112.161 106.556 111.877 106.864C111.57 107.172 111.405 107.574 111.405 108C111.405 108.426 111.57 108.852 111.877 109.136C112.184 109.444 112.586 109.609 113.011 109.609C113.436 109.609 113.837 109.444 114.144 109.136Z" fill="#F28E2A"></path><path d="M78.2928 34.4142C56.9424 34.4142 39.5834 51.8106 39.5834 73.2071C39.5834 94.6035 56.9424 112 78.2928 112C99.6432 112 117.002 94.6035 117.002 73.2071C117.002 51.8106 99.6432 34.4142 78.2928 34.4142ZM78.2928 108.781C58.7137 108.781 42.7954 92.8284 42.7954 73.2071C42.7954 53.5858 58.7137 37.6331 78.2928 37.6331C97.8719 37.6331 113.79 53.5858 113.79 73.2071C113.79 92.8284 97.8719 108.781 78.2928 108.781Z" fill="#F28E2A"></path></svg>