<svg id="Capa_1" data-name="Capa 1" xmlns="http://www.w3.org/2000/svg" xmlns:xlink="http://www.w3.org/1999/xlink" viewBox="0 0 137 137"><defs><style>.cls-1,.cls-2{fill:none;}.cls-2{stroke:#c2d1d9;stroke-miterlimit:10;}.cls-3{clip-path:url(#clip-path);}.cls-4{fill:#f28e2a;}</style><clipPath id="clip-path"><rect class="cls-1" x="32.5" y="32.5" width="72" height="72"/></clipPath></defs><title>Pasos</title><circle class="cls-2" cx="68.5" cy="68.5" r="66.82"/><g class="cls-3"><path class="cls-4" d="M46.89,52.89H49.3v-1.2h2.41v1.2h2.41V51.47a3.56,3.56,0,0,0,2.2-4.53,3.63,3.63,0,0,0-.75-1.25,3.58,3.58,0,0,0-.22-5,3.45,3.45,0,0,0-1.25-.75V38.48H51.69v1.2H49.28v-1.2H46.87v1.2H45.66v2.41h1.21V49.3H45.66v2.41h1.21v1.18Zm2.41-10.8h3.59A1.21,1.21,0,0,1,54.1,43.3a1.19,1.19,0,0,1-1.21,1.2H49.3Zm0,4.8h3.59a1.21,1.21,0,1,1,0,2.41H49.3Z"/><path class="cls-4" d="M50.51,58.89A13.2,13.2,0,1,0,37.3,45.71,13.21,13.21,0,0,0,50.51,58.89Zm0-24a10.8,10.8,0,1,1-10.8,10.8A10.81,10.81,0,0,1,50.51,34.91Z"/><path class="cls-4" d="M63.69,82.9A13.21,13.21,0,1,0,50.48,96.11,13.21,13.21,0,0,0,63.69,82.9ZM50.51,93.7A10.8,10.8,0,1,1,61.3,82.9,10.81,10.81,0,0,1,50.51,93.7Z"/><path class="cls-4" d="M58.61,84.88a1.2,1.2,0,0,0,0-1.5l-7.2-9.59a1.26,1.26,0,0,0-1.76-.17.55.55,0,0,0-.17.17l-7.21,9.59a1.2,1.2,0,0,0,0,1.5l7.21,8.39a1.19,1.19,0,0,0,1.68.12s.1-.07.12-.12Zm-13.77-.82,5.67-7.55,5.66,7.55-5.66,6.6Z"/><path class="cls-4" d="M52.36,83,50.51,84,48.65,83l-1.08,2.15L50,86.37a1.21,1.21,0,0,0,1.08,0l2.41-1.2Z"/><path class="cls-4" d="M91.29,78.11a13.21,13.21,0,1,0,13.21,13.2A13.21,13.21,0,0,0,91.29,78.11Zm0,24a10.8,10.8,0,1,1,10.8-10.8A10.81,10.81,0,0,1,91.29,102.11Z"/><path class="cls-4" d="M80.49,70.9A13.21,13.21,0,1,0,67.28,57.69,13.22,13.22,0,0,0,80.49,70.9Zm0-24a10.8,10.8,0,1,1-10.8,10.8A10.81,10.81,0,0,1,80.49,46.89Z"/><path class="cls-4" d="M95.51,85.31h-4.2a1.21,1.21,0,0,0-1.2,1.21v12h2.41V93.73h3a4.21,4.21,0,0,0,0-8.42Zm0,6h-3V87.7h3a1.8,1.8,0,0,1,1.81,1.81A1.78,1.78,0,0,1,95.51,91.29Z"/><path class="cls-4" d="M88.9,85.31H86.49V98.52H88.9Z"/><path class="cls-4" d="M76.9,63.69h3.59a6,6,0,1,0,0-12H76.9a1.2,1.2,0,0,0-1.2,1.2v9.6A1.2,1.2,0,0,0,76.9,63.69Zm1.21-4.8H81.7V56.48H78.11V54.07h2.41a3.6,3.6,0,0,1,0,7.19H78.11Z"/><path class="cls-4" d="M103.29,33.71a1.21,1.21,0,0,1,1.21,1.2v6a1.21,1.21,0,1,1-2.41,0v-6A1.22,1.22,0,0,1,103.29,33.71Z"/><path class="cls-4" d="M33.71,32.5a1.21,1.21,0,0,1,1.2,1.21v1.2a1.21,1.21,0,1,1-2.41,0v-1.2A1.2,1.2,0,0,1,33.71,32.5Z"/><path class="cls-4" d="M97.29,42.09A1.21,1.21,0,0,1,98.5,43.3v8.39a1.21,1.21,0,0,1-2.41,0V43.3A1.24,1.24,0,0,1,97.29,42.09Z"/><path class="cls-4" d="M33.71,56.51a1.2,1.2,0,0,1,1.2,1.2v1.21a1.21,1.21,0,0,1-2.41,0V57.71A1.19,1.19,0,0,1,33.71,56.51Z"/><path class="cls-4" d="M37.3,61.3a1.21,1.21,0,1,1-1.21,1.21A1.21,1.21,0,0,1,37.3,61.3Z"/><path class="cls-4" d="M37.3,66.1a1.21,1.21,0,0,1,1.2,1.21v2.41a1.21,1.21,0,0,1-2.41,0V67.31A1.21,1.21,0,0,1,37.3,66.1Z"/><path class="cls-4" d="M54.1,97.29a1.21,1.21,0,1,1-1.21,1.21A1.23,1.23,0,0,1,54.1,97.29Z"/><path class="cls-4" d="M54.1,102.11a1.21,1.21,0,1,1-1.21,1.21A1.21,1.21,0,0,1,54.1,102.11Z"/><path class="cls-4" d="M75.7,99.7a1.21,1.21,0,1,1-1.21,1.21A1.21,1.21,0,0,1,75.7,99.7Z"/><path class="cls-4" d="M61.3,57.69a1.21,1.21,0,1,1-1.2,1.2A1.21,1.21,0,0,1,61.3,57.69Z"/><path class="cls-4" d="M61.3,62.51a1.21,1.21,0,0,1,1.21,1.21v2.41a1.21,1.21,0,0,1-2.41,0V63.72A1.19,1.19,0,0,1,61.3,62.51Z"/><path class="cls-4" d="M97.29,37.3a1.21,1.21,0,1,1-1.2,1.2A1.21,1.21,0,0,1,97.29,37.3Z"/><path class="cls-4" d="M69.69,84.11a1.21,1.21,0,0,1,1.21,1.2V93.7a1.21,1.21,0,1,1-2.41,0V85.31A1.22,1.22,0,0,1,69.69,84.11Z"/><path class="cls-4" d="M76.9,32.5a1.21,1.21,0,0,1,1.21,1.21v6a1.21,1.21,0,0,1-2.41,0v-6A1.21,1.21,0,0,1,76.9,32.5Z"/><path class="cls-4" d="M69.69,79.31a1.21,1.21,0,1,1-1.2,1.21A1.21,1.21,0,0,1,69.69,79.31Z"/><path class="cls-4" d="M103.29,67.31a1.21,1.21,0,0,1,1.21,1.2V76.9a1.21,1.21,0,1,1-2.41,0V68.51A1.22,1.22,0,0,1,103.29,67.31Z"/><path class="cls-4" d="M103.29,62.51a1.21,1.21,0,1,1-1.2,1.21A1.21,1.21,0,0,1,103.29,62.51Z"/><path class="cls-4" d="M33.71,93.7a1.21,1.21,0,0,1,1.2,1.21v8.38a1.21,1.21,0,1,1-2.41,0V94.91A1.2,1.2,0,0,1,33.71,93.7Z"/><path class="cls-4" d="M33.71,88.9a1.21,1.21,0,1,1-1.21,1.21A1.21,1.21,0,0,1,33.71,88.9Z"/></g></svg>