<svg id="Capa_1" data-name="Capa 1" xmlns="http://www.w3.org/2000/svg" viewBox="0 0 137 137"><defs><style>.cls-1{fill:none;stroke:#c2d1d9;stroke-miterlimit:10;}.cls-2{fill:#f28e2a;}</style></defs><title>Pasos</title><circle class="cls-1" cx="68.5" cy="68.5" r="66.82"/><path class="cls-2" d="M78,87.58a2,2,0,0,0,.11.21l.15.19.17.15a1.39,1.39,0,0,1,.21.11.75.75,0,0,0,.23.07,1,1,0,0,0,.48,0,.75.75,0,0,0,.23-.07,1.39,1.39,0,0,1,.21-.11,1,1,0,0,0,.34-.34,2,2,0,0,0,.11-.21,1,1,0,0,0,.08-.22.9.9,0,0,0,0-.23.82.82,0,0,0,0-.22,1,1,0,0,0-.08-.23l-.11-.2a1.39,1.39,0,0,0-.15-.19.66.66,0,0,0-.19-.15L79.56,86,79.33,86a1.33,1.33,0,0,0-.46,0l-.23.07-.21.12a1.12,1.12,0,0,0-.19.15,1.22,1.22,0,0,0-.15.17l-.11.2a1,1,0,0,0-.08.23.82.82,0,0,0,0,.22.9.9,0,0,0,0,.23A.56.56,0,0,0,78,87.58Z"/><path class="cls-2" d="M69,87.58a2,2,0,0,0,.12.21,1.25,1.25,0,0,0,.15.19c.06,0,.11.11.17.15a2.12,2.12,0,0,1,.21.11.68.68,0,0,0,.23.07.93.93,0,0,0,.47,0,.62.62,0,0,0,.23-.07l.21-.11A1,1,0,0,0,71,88a1.07,1.07,0,0,0,.15-.17c0-.08.08-.13.12-.21a.63.63,0,0,0,.07-.22,1.14,1.14,0,0,0,0-.25.82.82,0,0,0,0-.22.68.68,0,0,0-.07-.23l-.12-.2a.66.66,0,0,0-.15-.19,1.2,1.2,0,0,0-.85-.36.86.86,0,0,0-.23,0L69.7,86l-.21.12a.83.83,0,0,0-.19.15.8.8,0,0,0-.15.17l-.12.2a1,1,0,0,0-.07.23.82.82,0,0,0,0,.22.9.9,0,0,0,0,.23A.84.84,0,0,0,69,87.58Z"/><path class="cls-2" d="M60.09,87.58a2,2,0,0,0,.11.21,1.35,1.35,0,0,0,.16.19,1.22,1.22,0,0,0,.17.15l.21.11a.63.63,0,0,0,.22.07,1,1,0,0,0,.48,0,.68.68,0,0,0,.23-.07l.21-.11a1.39,1.39,0,0,0,.19-.15l.15-.17a2.12,2.12,0,0,0,.11-.21,1,1,0,0,0,.08-.22.9.9,0,0,0,0-.23.82.82,0,0,0,0-.22,1,1,0,0,0-.08-.23c0-.07-.07-.13-.11-.21l-.15-.18a1.22,1.22,0,0,0-.86-.36A.93.93,0,0,0,61,86l-.23.07-.2.12a.66.66,0,0,0-.19.15.85.85,0,0,0-.16.17l-.11.2a1,1,0,0,0-.08.23,1,1,0,0,0,0,.24.9.9,0,0,0,0,.23A.84.84,0,0,0,60.09,87.58Z"/><path class="cls-2" d="M42.2,87.58l.11.21a1.35,1.35,0,0,0,.16.19,1.22,1.22,0,0,0,.17.15l.21.11a.62.62,0,0,0,.23.07.93.93,0,0,0,.47,0,.68.68,0,0,0,.23-.07l.21-.11a1,1,0,0,0,.19-.15l.15-.17c0-.08.08-.13.12-.21a1.87,1.87,0,0,0,.07-.22.9.9,0,0,0,0-.23.82.82,0,0,0,0-.22,2,2,0,0,0-.07-.23c0-.07-.08-.13-.12-.21a1.19,1.19,0,0,0-.15-.18,1,1,0,0,0-.19-.15L43.78,86,43.55,86a.86.86,0,0,0-.23,0,1.18,1.18,0,0,0-.85.36.69.69,0,0,0-.16.18l-.11.21a1,1,0,0,0-.08.23,1.62,1.62,0,0,0,0,.22,1.77,1.77,0,0,0,0,.23A.6.6,0,0,0,42.2,87.58Z"/><path class="cls-2" d="M76.59,39.91a1.76,1.76,0,0,0-.12-.2.83.83,0,0,0-.15-.19,1.14,1.14,0,0,0-.17-.15l-.21-.11a1,1,0,0,0-.23-.08,1.24,1.24,0,0,0-.47,0,.9.9,0,0,0-.23.08l-.21.11a1.25,1.25,0,0,0-.19.15.76.76,0,0,0-.15.17,2,2,0,0,0-.12.21.94.94,0,0,0-.07.22.9.9,0,0,0,0,.23.82.82,0,0,0,0,.22,1,1,0,0,0,.07.23l.12.2a.55.55,0,0,0,.15.19,1.57,1.57,0,0,0,.19.15,1,1,0,0,0,.21.11.9.9,0,0,0,.23.08.94.94,0,0,0,.47,0,1,1,0,0,0,.23-.08.71.71,0,0,0,.21-.11.42.42,0,0,0,.17-.15.55.55,0,0,0,.15-.19l.12-.2a1.28,1.28,0,0,0,.07-.21,1.06,1.06,0,0,0,0-.24.9.9,0,0,0,0-.23A1.28,1.28,0,0,0,76.59,39.91Z"/><path class="cls-2" d="M105,87.13A9.17,9.17,0,0,0,95.77,78H41.23a9.1,9.1,0,1,0,0,18.2h7L46.5,97.66a2.35,2.35,0,0,0,.91,4.13l.84.21-2,7.69a1.18,1.18,0,0,0,.88,1.44l5.73,1.45a1.21,1.21,0,0,0,.91-.13,1.1,1.1,0,0,0,.55-.73l2-7.7.84.21a2.42,2.42,0,0,0,2.4-.73,2.33,2.33,0,0,0,.41-2.44l-2-4.83H95.77A9.16,9.16,0,0,0,105,87.13ZM56,101.49a1.45,1.45,0,0,0-1.09.15,1.37,1.37,0,0,0-.64.86L52.29,110l-3.39-.86,1.94-7.47a1.39,1.39,0,0,0-1-1.71L49,99.76l-.55,1.37L48,101l.33.32-.35-.34h-.45v-.18l1.1-1.09L48,99.52l6.51-5.22L57.71,102ZM87.8,93.87H57l-.82-2a1.21,1.21,0,0,0-.82-.71,1.29,1.29,0,0,0-1.07.22l-3.06,2.46h-10a6.74,6.74,0,1,1,0-13.48H87.78V93.87Zm2.41-13.46h5.56a6.74,6.74,0,1,1,0,13.48H90.21Z"/><path class="cls-2" d="M94.67,90.19a1.17,1.17,0,0,0,.74.26,1.22,1.22,0,0,0,1-.45l2-2.44a1.2,1.2,0,0,0,0-1.48l-2-2.44a1.3,1.3,0,0,0-.8-.45h-.13a1.15,1.15,0,0,0-.74.26,1.17,1.17,0,0,0-.21,1.67l1.37,1.71-1.37,1.71a1.19,1.19,0,0,0-.25.88A1.15,1.15,0,0,0,94.67,90.19Z"/><path class="cls-2" d="M53.37,86.68a2,2,0,0,1-.11-.2,1,1,0,0,0-.16-.19,1.18,1.18,0,0,0-.85-.36A.9.9,0,0,0,52,86l-.23.07-.21.12a1.12,1.12,0,0,0-.19.15.58.58,0,0,0-.15.19,1,1,0,0,0-.11.2,1,1,0,0,0-.08.23.82.82,0,0,0,0,.22.9.9,0,0,0,0,.23,1,1,0,0,0,.08.22,1,1,0,0,0,.11.21,1.25,1.25,0,0,0,.15.19l.17.15a1.39,1.39,0,0,1,.21.11.68.68,0,0,0,.23.07,1,1,0,0,0,.48,0,.63.63,0,0,0,.22-.07l.21-.11A.74.74,0,0,0,53.1,88l.16-.17a2.12,2.12,0,0,1,.11-.21,1,1,0,0,0,.08-.22.9.9,0,0,0,0-.23.82.82,0,0,0,0-.22A1.77,1.77,0,0,1,53.37,86.68Z"/><path class="cls-2" d="M68.42,28.64a23.2,23.2,0,0,0-23.33,23A22.79,22.79,0,0,0,54,69.74l0,0s.05.06.09.08a23.32,23.32,0,0,0,13,4.76h.09l.46,0h1.39l.47,0h.1a23.3,23.3,0,0,0,13.19-4.89,1.09,1.09,0,0,1,.11-.1l0,0A22.76,22.76,0,0,0,85,35.39,23.41,23.41,0,0,0,68.42,28.64ZM80.89,68.18l-.19.13a21.23,21.23,0,0,1-10,3.83l-.32,0-.36,0-.63,0h-.21l-.73,0c-.24,0-.47,0-.72,0h-.21a5.85,5.85,0,0,1-.59,0,2,2,0,0,1-.34,0c-.11,0-.25,0-.36,0a2.72,2.72,0,0,0-.42,0l-.08,0a21.12,21.12,0,0,1-9.4-3.64l-.19-.13V65a12.19,12.19,0,0,1,5.24-10l.28-.21.29.21a10.84,10.84,0,0,0,13.17,0l.28-.21.29.21a12.21,12.21,0,0,1,5.23,10v3.14Zm3.25-3-.82.92V64.91a14.43,14.43,0,0,0-5.88-11.5l-.37-.26.27-.38a10.31,10.31,0,0,0,1.9-6,11.84,11.84,0,0,0-.11-1.57,1.19,1.19,0,0,0-1.37-1,1.17,1.17,0,0,0-1,1.35,8.25,8.25,0,0,1,.1,1.22,8,8,0,0,1-1.62,4.85,8.35,8.35,0,0,1-13.4,0,8.1,8.1,0,0,1-1.62-4.85,8.27,8.27,0,0,1,8.32-8.2,8.84,8.84,0,0,1,1.86.21,1.18,1.18,0,0,0,.92-.15,1.25,1.25,0,0,0,.53-.75,1.14,1.14,0,0,0-.15-.9,1.19,1.19,0,0,0-.76-.53,11.38,11.38,0,0,0-2.4-.26A10.67,10.67,0,0,0,57.79,46.76a10.41,10.41,0,0,0,1.9,6l.27.38-.37.26A14.45,14.45,0,0,0,53.71,65V66.3l-.83-.92a20.39,20.39,0,0,1-5.35-13.75,20.92,20.92,0,0,1,41.83,0A20.48,20.48,0,0,1,84.14,65.21Z"/></svg>