<svg id="Capa_1" data-name="Capa 1" xmlns="http://www.w3.org/2000/svg" viewBox="0 0 137 137"><defs><style>.cls-1{fill:none;stroke:#c2d1d9;stroke-miterlimit:10;}.cls-2{fill:#f28e2a;}</style></defs><title>Pasos</title><circle class="cls-1" cx="68.5" cy="68.5" r="66.82"/><path class="cls-2" d="M111.43,85.77H101.08V45a3.69,3.69,0,0,0-3.69-3.69H39.48A3.7,3.7,0,0,0,35.79,45V56a1.07,1.07,0,1,0,2.13,0V45a1.58,1.58,0,0,1,1.57-1.57h57.9A1.58,1.58,0,0,1,99,45V85.77H96.27V67.84a1.07,1.07,0,1,0-2.13,0V85.77H42.73V48.82a.56.56,0,0,1,.56-.56H93.56a.56.56,0,0,1,.56.56V63.29a1.07,1.07,0,1,0,2.13,0V48.82a2.71,2.71,0,0,0-2.69-2.7H43.29a2.71,2.71,0,0,0-2.69,2.7V85.77H37.92V60.67a1.07,1.07,0,1,0-2.13,0v25.1H25.57a1.07,1.07,0,0,0-1.07,1.07v2.94A3.54,3.54,0,0,0,28,93.31H109a3.54,3.54,0,0,0,3.53-3.53V86.84A1.07,1.07,0,0,0,111.43,85.77Zm-84.8,4V87.9H57.37v3.3H28A1.43,1.43,0,0,1,26.63,89.78Zm32.85,1.4v-3.3H77.37v3.3Zm50.89-1.4a1.4,1.4,0,0,1-1.4,1.4H79.5v-3.3h30.87Z"/><path class="cls-2" d="M53.1,67.78A15.33,15.33,0,1,0,68.43,52.43,15.36,15.36,0,0,0,53.1,67.78Zm28.53,0a13.22,13.22,0,1,1-13.2-13.23A13.24,13.24,0,0,1,81.63,67.78Z"/><path class="cls-2" d="M61.82,60.72a1.06,1.06,0,0,0-.71.77,18.58,18.58,0,0,0-.51,4.36C60.6,72.54,67.65,77.74,68,78a1.13,1.13,0,0,0,.62.21,1,1,0,0,0,.61-.21,23.42,23.42,0,0,0,3.65-3.46c2.43-2.86,3.7-5.84,3.7-8.65a19.11,19.11,0,0,0-.5-4.36,1.13,1.13,0,0,0-.72-.77l-6.43-2a1.34,1.34,0,0,0-.63,0Zm6.76.12,5.54,1.74a17.52,17.52,0,0,1,.32,3.27c0,4.53-4.23,8.52-5.86,9.89-1.62-1.37-5.85-5.36-5.85-9.89a16.71,16.71,0,0,1,.32-3.27Z"/><path class="cls-2" d="M66.83,70.14a1,1,0,0,0,.78.49h.11a1.05,1.05,0,0,0,.75-.32l4-4A1.05,1.05,0,1,0,71,64.79l-3,3.07L67.39,67a1.06,1.06,0,1,0-1.8,1.12Z"/></svg>