<svg id="Capa_1" data-name="Capa 1" xmlns="http://www.w3.org/2000/svg" xmlns:xlink="http://www.w3.org/1999/xlink" viewBox="0 0 137 137"><defs><style>.cls-1,.cls-4{fill:none;}.cls-2{clip-path:url(#clip-path);}.cls-3{fill:#f28e2a;}.cls-4{stroke:#c2d1d9;stroke-miterlimit:10;}</style><clipPath id="clip-path"><rect class="cls-1" x="30" y="28" width="77" height="77"/></clipPath></defs><title>Pasos</title><g class="cls-2"><path class="cls-3" d="M85.88,45.39a1.25,1.25,0,0,1,1.24,1.24h2.49a3.69,3.69,0,0,0-2.49-3.49V41.65a1.25,1.25,0,0,0-2.49,0v1.47a3.71,3.71,0,0,0,1.19,7.21,1.25,1.25,0,0,1,1.26,1,1.24,1.24,0,0,1-1.22,1.43,1.26,1.26,0,0,1-1.25-1.25H82.12a3.72,3.72,0,0,0,2.49,3.5v1.46a1.25,1.25,0,1,0,2.49,0V55.05a3.72,3.72,0,0,0-1.18-7.23,1.26,1.26,0,0,1-1.27-1A1.22,1.22,0,0,1,85.88,45.39Z"/><path class="cls-3" d="M85.88,35.45A13.66,13.66,0,1,0,99.53,49.1,13.67,13.67,0,0,0,85.88,35.45Zm0,24.84A11.19,11.19,0,1,1,97.06,49.1,11.2,11.2,0,0,1,85.88,60.29Z"/><path class="cls-3" d="M103.59,43.36a19,19,0,0,0-1.11-2.69l1.61-3.21-6.53-6.53-3.21,1.61a19.76,19.76,0,0,0-2.69-1.11L90.52,28H81.28l-1.14,3.41a20.35,20.35,0,0,0-2.7,1.11l-3.21-1.61-6.52,6.53,1.6,3.21a18.51,18.51,0,0,0-1.1,2.69L64.8,44.5v9.24l3.41,1.15a19.42,19.42,0,0,0,1.1,2.69l-1.6,3.21,2,2h-36A3.69,3.69,0,0,0,30,66.49v34.78A3.74,3.74,0,0,0,33.73,105H83.41a3.74,3.74,0,0,0,3.73-3.73v-31h3.38l1.14-3.42a18.93,18.93,0,0,0,2.69-1.1l3.21,1.6,6.53-6.52-1.61-3.21a19,19,0,0,0,1.11-2.69L107,53.74V44.5ZM33.73,65.25H72.16l2,2,3.21-1.6a18.63,18.63,0,0,0,2.7,1.1l.3.93H32.49V66.47A1.23,1.23,0,0,1,33.73,65.25Zm49.66,37.26H33.73a1.25,1.25,0,0,1-1.24-1.24V100H84.65v1.25A1.28,1.28,0,0,1,83.39,102.51Zm1.24-24.84v0Zm0,12.41v7.45H32.49V70.23H84.65v5Zm19.88-38.15-2.93,1-.18.62A14.88,14.88,0,0,1,100,56.93l-.32.59,1.39,2.77-4,4L94.29,62.9l-.58.32a16,16,0,0,1-3.4,1.4l-.62.18-1,2.94H83.05l-1-2.94-.62-.18a15.32,15.32,0,0,1-3.39-1.4l-.59-.32-2.77,1.38-4-4,1.38-2.77-.32-.59a15.9,15.9,0,0,1-1.4-3.39l-.18-.62-2.93-1V46.27l2.93-1,.18-.62a15.4,15.4,0,0,1,1.4-3.4l.32-.58L70.7,37.92l4-4,2.77,1.39.59-.32a15.93,15.93,0,0,1,3.39-1.41l.62-.18,1-2.93h5.66l1,2.93.62.18A15.43,15.43,0,0,1,93.71,35l.58.32,2.77-1.39,4,4-1.39,2.79.32.58a16,16,0,0,1,1.41,3.4l.18.62,2.93,1Z"/><path class="cls-3" d="M42.41,40.41a1.25,1.25,0,0,1,1.24,1.24V42.9a1.25,1.25,0,0,1-2.49,0V41.65A1.27,1.27,0,0,1,42.41,40.41Z"/><path class="cls-3" d="M37.15,42.6a1.21,1.21,0,0,1,1.74,0l.89.88A1.24,1.24,0,0,1,38,45.23l-.88-.89A1.23,1.23,0,0,1,37.15,42.6Z"/><path class="cls-3" d="M36.2,46.63h1.25a1.25,1.25,0,0,1,0,2.49H36.2a1.25,1.25,0,0,1,0-2.49Z"/><path class="cls-3" d="M37.15,51.37l.88-.88a1.23,1.23,0,0,1,1.75,1.74l-.89.89a1.23,1.23,0,1,1-1.74-1.75Z"/><path class="cls-3" d="M42.41,51.59a1.25,1.25,0,0,1,1.24,1.25v1.24a1.25,1.25,0,1,1-2.49,0V52.84A1.27,1.27,0,0,1,42.41,51.59Z"/><path class="cls-3" d="M45.06,50.51a1.24,1.24,0,0,1,1.75,0l.88.88a1.24,1.24,0,0,1-1.75,1.75l-.88-.89A1.23,1.23,0,0,1,45.06,50.51Z"/><path class="cls-3" d="M47.39,46.63h1.24a1.25,1.25,0,1,1,0,2.49H47.39a1.25,1.25,0,1,1,0-2.49Z"/><path class="cls-3" d="M45.06,43.48l.88-.88a1.23,1.23,0,1,1,1.75,1.74l-.88.89a1.24,1.24,0,0,1-1.75-1.75Z"/><path class="cls-3" d="M58.55,36.69a1.25,1.25,0,1,1,0,2.49,1.25,1.25,0,0,1-1.24-1.24A1.27,1.27,0,0,1,58.55,36.69Z"/><path class="cls-3" d="M58.55,41.65a1.25,1.25,0,1,1,0,2.49,1.25,1.25,0,0,1-1.24-1.24A1.27,1.27,0,0,1,58.55,41.65Z"/><path class="cls-3" d="M61,39.18a1.25,1.25,0,1,1,0,2.49,1.25,1.25,0,0,1,0-2.49Z"/><path class="cls-3" d="M56.08,39.18a1.25,1.25,0,1,1,0,2.49,1.25,1.25,0,0,1,0-2.49Z"/><path class="cls-3" d="M97.06,83.88a1.25,1.25,0,0,1,1.25,1.24v1.25a1.25,1.25,0,0,1-2.49,0V85.12A1.25,1.25,0,0,1,97.06,83.88Z"/><path class="cls-3" d="M91.78,86.07a1.23,1.23,0,0,1,1.75,0l.88.88a1.24,1.24,0,0,1-1.75,1.75l-.88-.89A1.23,1.23,0,0,1,91.78,86.07Z"/><path class="cls-3" d="M90.84,90.08h1.24a1.25,1.25,0,1,1,0,2.49H90.84a1.25,1.25,0,0,1-1.25-1.24A1.26,1.26,0,0,1,90.84,90.08Z"/><path class="cls-3" d="M91.78,94.84l.88-.88a1.23,1.23,0,1,1,1.75,1.74l-.88.89a1.24,1.24,0,0,1-1.75-1.75Z"/><path class="cls-3" d="M97.06,95.06a1.26,1.26,0,0,1,1.25,1.25v1.24a1.25,1.25,0,1,1-2.49,0V96.31A1.24,1.24,0,0,1,97.06,95.06Z"/><path class="cls-3" d="M99.69,94a1.23,1.23,0,0,1,1.75,0l.88.88a1.24,1.24,0,0,1-1.75,1.75l-.88-.89A1.23,1.23,0,0,1,99.69,94Z"/><path class="cls-3" d="M102,90.08h1.25a1.25,1.25,0,0,1,0,2.49H102a1.25,1.25,0,0,1,0-2.49Z"/><path class="cls-3" d="M99.69,87l.88-.88a1.23,1.23,0,1,1,1.75,1.74l-.88.89A1.24,1.24,0,0,1,99.69,87Z"/><path class="cls-3" d="M98.31,71.47a1.25,1.25,0,1,1-1.25,1.24A1.22,1.22,0,0,1,98.31,71.47Z"/><path class="cls-3" d="M98.31,76.43a1.25,1.25,0,1,1-1.25,1.24A1.25,1.25,0,0,1,98.31,76.43Z"/><path class="cls-3" d="M100.78,73.94a1.25,1.25,0,1,1-1.25,1.24A1.25,1.25,0,0,1,100.78,73.94Z"/><path class="cls-3" d="M95.82,73.94a1.25,1.25,0,1,1-1.25,1.24A1.25,1.25,0,0,1,95.82,73.94Z"/><path class="cls-3" d="M42.61,84.62h-4a1,1,0,0,1-1-1,1,1,0,0,1,1-1h4a1,1,0,0,1,1,1A1,1,0,0,1,42.61,84.62Z"/><path class="cls-3" d="M60.48,84.62h-4a1,1,0,0,1-1-1,1,1,0,0,1,1-1h4a1,1,0,0,1,1,1A1,1,0,0,1,60.48,84.62Z"/><path class="cls-3" d="M49.56,77.67a1,1,0,0,1-1-1v-4a1,1,0,0,1,1-1,1,1,0,0,1,1,1v4A1,1,0,0,1,49.56,77.67Z"/><path class="cls-3" d="M49.56,95.56a1,1,0,0,1-1-1v-4a1,1,0,0,1,2,0v4A1,1,0,0,1,49.56,95.56Z"/><path class="cls-3" d="M77.36,81.65H65.44a1,1,0,0,1-1-1v-6a1,1,0,0,1,1-1H77.36a1,1,0,0,1,1,1v6A1,1,0,0,1,77.36,81.65Zm-10.92-2h9.94v-4H66.44Z"/><path class="cls-3" d="M49.56,87.61a4,4,0,1,1,0-8,1,1,0,0,1,0,2,2,2,0,1,0,2,2,1,1,0,0,1,2,0A4,4,0,0,1,49.56,87.61Z"/><path class="cls-3" d="M49.56,91.59a8,8,0,1,1,7.95-8A8,8,0,0,1,49.56,91.59Zm0-13.92a6,6,0,1,0,6,6A6,6,0,0,0,49.56,77.67Z"/><path class="cls-3" d="M41.61,92.57a1,1,0,0,1-.71-.28,1,1,0,0,1,0-1.4l3-3a1,1,0,0,1,1.41,1.41l-3,3A1,1,0,0,1,41.61,92.57Z"/><path class="cls-3" d="M54.48,79.7a1,1,0,0,1-.71-.3,1,1,0,0,1,0-1.41l3-3a1,1,0,1,1,1.41,1.41l-3,3A.9.9,0,0,1,54.48,79.7Z"/><path class="cls-3" d="M44.64,79.7a1,1,0,0,1-.71-.3l-3-3A1,1,0,0,1,42.31,75l3,3a1,1,0,0,1,0,1.41A1,1,0,0,1,44.64,79.7Z"/><path class="cls-3" d="M57.51,92.57a1.08,1.08,0,0,1-.71-.28l-3-3a1,1,0,0,1,1.41-1.41l3,3a1,1,0,0,1,0,1.4A1,1,0,0,1,57.51,92.57Z"/><path class="cls-3" d="M66.44,85.62h-1a1,1,0,0,1-1-1,1,1,0,0,1,1-1h1a1,1,0,0,1,1,1A1,1,0,0,1,66.44,85.62Z"/><path class="cls-3" d="M77.36,85.62h-1a1,1,0,1,1,0-2h1a1,1,0,0,1,1,1A1,1,0,0,1,77.36,85.62Z"/><path class="cls-3" d="M72.41,85.62h-2a1,1,0,0,1-1-1,1,1,0,0,1,1-1h2a1,1,0,1,1,0,2Z"/><path class="cls-3" d="M66.44,89.6h-1a1,1,0,0,1,0-2h1a1,1,0,0,1,1,1A1,1,0,0,1,66.44,89.6Z"/><path class="cls-3" d="M77.36,89.6h-1a1,1,0,0,1-1-1,1,1,0,0,1,1-1h1a1,1,0,1,1,0,2Z"/><path class="cls-3" d="M72.41,89.6h-2a1,1,0,0,1,0-2h2a1,1,0,0,1,1,1A1,1,0,0,1,72.41,89.6Z"/><path class="cls-3" d="M66.44,93.58h-1a1,1,0,0,1,0-2h1a1,1,0,0,1,0,2Z"/><path class="cls-3" d="M77.36,93.58h-1a1,1,0,1,1,0-2h1a1,1,0,1,1,0,2Z"/><path class="cls-3" d="M72.41,93.58h-2a1,1,0,0,1,0-2h2a1,1,0,0,1,1,1A1,1,0,0,1,72.41,93.58Z"/></g><circle class="cls-4" cx="68.5" cy="68.5" r="66.82"/></svg>