<svg xmlns="http://www.w3.org/2000/svg" width="351" height="351" viewBox="0 0 351 351" fill="none"><path d="M208.77 142.407V173.569C208.729 174.97 207.863 206.544 175.671 228.473C174.723 229.132 173.486 229.256 172.456 228.761C171.426 228.267 170.725 227.236 170.642 226.082C170.56 224.928 171.137 223.815 172.085 223.197C201.639 203.082 202.422 174.682 202.422 173.486V142.407C200.65 142.407 199.249 141.006 199.249 139.233C199.249 137.461 200.65 136.059 202.422 136.059C205.926 136.059 208.77 138.903 208.77 142.407ZM145.292 173.569V142.407H180.205C181.978 142.407 183.379 141.006 183.379 139.233C183.379 137.461 181.978 136.059 180.205 136.059H145.292C141.789 136.059 138.945 138.903 138.945 142.407V173.569C139.852 186.553 144.468 199.001 152.259 209.43C153.289 210.831 155.268 211.161 156.71 210.13C158.112 209.1 158.441 207.121 157.411 205.679C150.404 196.322 146.199 185.193 145.292 173.569ZM195.127 158.812C193.89 157.576 191.87 157.576 190.634 158.812L167.097 182.349L163.388 178.639C162.151 177.443 160.173 177.443 158.936 178.68C157.699 179.917 157.699 181.895 158.895 183.132L164.83 189.067C166.067 190.304 168.087 190.304 169.323 189.067L195.127 163.264C196.363 162.069 196.363 160.049 195.127 158.812ZM279.008 158.276C279.008 164.665 274.268 170.065 267.92 170.848C261.572 171.673 255.637 167.633 254.029 161.409H221.466V173.528C221.466 173.61 221.466 173.816 221.466 174.105L220.847 180.452C217.138 203.618 204.071 224.269 184.739 237.582L176.784 243.106H177.237V258.975C177.237 259.8 176.908 260.624 176.289 261.201L162.44 275.051C163.594 276.988 164.212 279.214 164.253 281.44C164.253 288.447 158.565 294.135 151.558 294.135C144.551 294.135 138.862 288.447 138.862 281.44C138.862 274.432 144.551 268.744 151.558 268.744C153.825 268.744 156.051 269.363 157.947 270.558L170.848 257.656V243.106H170.931L162.976 237.582C143.644 224.269 130.577 203.659 126.867 180.452H108.525L93.1501 195.827C94.3042 197.765 94.9225 199.99 94.9637 202.216C94.9637 209.224 89.2755 214.912 82.2682 214.912C75.2609 214.912 69.5726 209.224 69.5726 202.216C69.5726 195.209 75.2609 189.521 82.2682 189.521C84.5352 189.521 86.7611 190.139 88.6572 191.334L104.939 175.053C105.516 174.476 106.34 174.105 107.165 174.105H126.208C126.208 173.816 126.208 173.61 126.208 173.528V161.45H103.537C101.93 167.633 95.9942 171.673 89.6464 170.89C83.2987 170.065 78.5584 164.707 78.5584 158.318C78.5584 151.929 83.2987 146.529 89.6464 145.746C95.9942 144.921 101.93 148.961 103.537 155.185H126.208V142.489V136.142V132.968C126.208 127.692 130.454 123.446 135.73 123.446H151.599H157.947H170.642V72.4579C164.459 70.8504 160.42 64.9148 161.203 58.567C161.986 52.2192 167.386 47.479 173.775 47.479C180.164 47.479 185.564 52.2192 186.347 58.567C187.13 64.9148 183.132 70.8504 176.908 72.4579V123.364H189.603V107.494C189.603 106.67 189.933 105.846 190.551 105.268L204.401 91.4188C203.247 89.4815 202.629 87.2556 202.587 85.0298C202.587 78.0225 208.276 72.3342 215.283 72.3342C222.29 72.3342 227.978 78.0225 227.978 85.0298C227.978 92.0371 222.29 97.7253 215.283 97.7253C213.016 97.7253 210.79 97.107 208.894 95.9117L196.075 108.813V123.364H211.944C217.22 123.364 221.466 127.609 221.466 132.885V136.059H236.717L243.023 129.753C241.869 127.815 241.251 125.59 241.21 123.364C241.21 116.356 246.898 110.668 253.905 110.668C260.913 110.668 266.601 116.356 266.601 123.364C266.601 130.371 260.913 136.059 253.905 136.059C251.638 136.059 249.412 135.441 247.516 134.246L240.303 141.459C239.726 142.036 238.902 142.407 238.077 142.407H221.507V155.103H254.07C255.678 148.92 261.613 144.88 267.961 145.663C274.268 146.488 279.008 151.887 279.008 158.276ZM249.412 127.857C251.432 129.876 254.606 130.289 257.079 128.846C259.552 127.403 260.789 124.477 260.047 121.715C259.305 118.953 256.791 117.016 253.905 117.016C251.35 117.016 249.041 118.582 248.052 120.932C247.063 123.323 247.599 126.043 249.412 127.857ZM210.914 89.4815C212.933 91.5012 216.107 91.9134 218.58 90.4707C221.054 89.0281 222.29 86.1015 221.548 83.3398C220.806 80.5781 218.292 78.6408 215.407 78.6408C212.851 78.6408 210.543 80.2071 209.553 82.5566C208.564 84.9474 209.1 87.6678 210.914 89.4815ZM97.6842 158.276C97.6842 154.773 94.8401 151.929 91.3364 151.929C87.8328 151.929 84.9886 154.773 84.9886 158.276C84.9886 161.78 87.8328 164.624 91.3364 164.624C94.8401 164.624 97.6842 161.78 97.6842 158.276ZM86.7611 197.765C84.7413 195.745 81.5674 195.333 79.0943 196.775C76.6211 198.218 75.3846 201.145 76.1265 203.906C76.8684 206.668 79.3828 208.605 82.2682 208.605C84.8238 208.605 87.1321 207.039 88.1213 204.689C89.1106 202.299 88.5747 199.578 86.7611 197.765ZM156.009 276.988C153.99 274.968 150.816 274.556 148.343 275.999C145.87 277.442 144.633 280.368 145.375 283.13C146.117 285.891 148.631 287.829 151.517 287.829C154.072 287.829 156.38 286.262 157.37 283.913C158.4 281.563 157.823 278.802 156.009 276.988ZM173.857 66.5635C177.361 66.5635 180.205 63.7194 180.205 60.2158C180.205 56.7121 177.361 53.868 173.857 53.868C170.354 53.868 167.51 56.7121 167.51 60.2158C167.51 63.7194 170.354 66.5635 173.857 66.5635ZM215.118 132.885C215.118 131.113 213.717 129.712 211.944 129.712H135.771C133.998 129.712 132.597 131.113 132.597 132.885V173.528C132.597 175.135 133.215 213.098 173.857 237.088C214.5 213.098 215.118 175.135 215.118 173.528V132.885ZM272.619 158.276C272.619 154.773 269.775 151.929 266.271 151.929C262.767 151.929 259.923 154.773 259.923 158.276C259.923 161.78 262.767 164.624 266.271 164.624C269.775 164.624 272.619 161.78 272.619 158.276Z" fill="#F28E2A" stroke="white" stroke-width="2" stroke-miterlimit="10"></path><path d="M175.5 323C256.962 323 323 256.962 323 175.5C323 94.038 256.962 28 175.5 28C94.038 28 28 94.038 28 175.5C28 256.962 94.038 323 175.5 323Z" stroke="#F28E2A" stroke-width="4" stroke-miterlimit="10"></path><path d="M175.547 340.095C266.424 340.095 340.095 266.424 340.095 175.547C340.095 84.6704 266.424 11 175.547 11C84.6704 11 11 84.6704 11 175.547C11 266.424 84.6704 340.095 175.547 340.095Z" stroke="#D8D8D8" stroke-width="12" stroke-miterlimit="10" stroke-dasharray="4 4"></path></svg>