<svg width="88" height="52" viewBox="0 0 88 52" fill="none" xmlns="http://www.w3.org/2000/svg">
<path d="M86.9343 44.4564H76.577C76.577 44.419 76.577 44.4003 76.577 44.3629V3.68755C76.577 1.64723 74.9318 0 72.894 0H14.9751C12.956 0 11.2921 1.64723 11.2921 3.68755V14.6753C11.2921 15.2556 11.7595 15.7423 12.3578 15.7423C12.9373 15.7423 13.4234 15.2743 13.4234 14.6753V3.68755C13.4234 2.82649 14.1338 2.11519 14.9938 2.11519H72.894C73.754 2.11519 74.4644 2.82649 74.4644 3.68755V44.3629C74.4644 44.4003 74.4644 44.419 74.4644 44.4564H71.7722V26.5241C71.7722 25.9438 71.3049 25.4572 70.7066 25.4572C70.127 25.4572 69.641 25.9251 69.641 26.5241V44.4564H18.2282V7.50612C18.2282 7.1879 18.4899 6.94456 18.789 6.94456H69.0614C69.3792 6.94456 69.6223 7.20662 69.6223 7.50612V21.9755C69.6223 22.5558 70.0897 23.0425 70.6879 23.0425C71.2675 23.0425 71.7536 22.5745 71.7536 21.9755V7.50612C71.7536 6.02736 70.5383 4.81066 69.0614 4.81066H18.789C17.3121 4.81066 16.0969 6.02736 16.0969 7.50612V44.4564H13.4234C13.4234 44.419 13.4234 44.4003 13.4234 44.3629V19.3549C13.4234 18.7747 12.956 18.288 12.3578 18.288C11.7782 18.288 11.2921 18.7559 11.2921 19.3549V44.3629C11.2921 44.4003 11.2921 44.419 11.2921 44.4564H1.06565C0.486085 44.4564 0 44.9244 0 45.5234V48.4622C0 50.4089 1.58912 52 3.53346 52H84.4665C86.4109 52 88 50.4089 88 48.4622V45.5234C88 44.9244 87.5139 44.4564 86.9343 44.4564ZM2.13129 48.4622V46.5904H32.8668V49.8848H3.53346C2.74825 49.8661 2.13129 49.2297 2.13129 48.4622ZM34.9794 49.8661V46.5716H52.871V49.8661H34.9794ZM85.8687 48.4622C85.8687 49.2484 85.233 49.8661 84.4665 49.8661H55.0023V46.5716H85.8687V48.4622Z" fill="#979797"/>
<path d="M28.6042 26.4681C28.6042 34.9288 35.4842 41.8172 43.9346 41.8172C52.385 41.8172 59.265 34.9288 59.265 26.4681C59.265 18.0073 52.385 11.1189 43.9346 11.1189C35.4842 11.1189 28.6042 18.0073 28.6042 26.4681ZM57.1337 26.4681C57.1337 33.7683 51.2072 39.7021 43.9159 39.7021C36.6246 39.7021 30.6982 33.7683 30.6982 26.4681C30.6982 19.1679 36.6433 13.2341 43.9346 13.2341C51.2259 13.2341 57.1337 19.1679 57.1337 26.4681Z" fill="#979797"/>
<path d="M37.3164 19.4111C36.9612 19.5234 36.6995 19.8042 36.606 20.1786C36.2695 21.5825 36.1012 23.0425 36.1012 24.54C36.1012 31.2225 43.1494 36.4262 43.4485 36.6509C43.6355 36.7819 43.8599 36.8568 44.0655 36.8568C44.2898 36.8568 44.4955 36.7819 44.6825 36.6509C44.7572 36.5947 46.5333 35.2844 48.3281 33.1879C50.7585 30.324 52.0298 27.3478 52.0298 24.54C52.0298 23.0425 51.8616 21.5825 51.525 20.1786C51.4316 19.8229 51.1698 19.5234 50.8146 19.4111L44.3833 17.3895C44.1777 17.3334 43.9533 17.3334 43.7477 17.3895L37.3164 19.4111ZM44.0842 19.5234L49.6181 21.2643C49.8237 22.3125 49.9359 23.4169 49.9359 24.54C49.9359 29.0699 45.7107 33.0569 44.0842 34.4234C42.4577 33.0569 38.2325 29.0699 38.2325 24.54C38.2325 23.4169 38.3447 22.3125 38.5503 21.2643L44.0842 19.5234Z" fill="#979797"/>
<path d="M42.3267 28.8264C42.495 29.1072 42.7941 29.2757 43.1119 29.3131C43.1493 29.3131 43.1867 29.3131 43.2241 29.3131C43.5045 29.3131 43.785 29.2008 43.9719 28.9949L47.9541 24.9704C48.3654 24.5586 48.3654 23.8847 47.9541 23.4729C47.5428 23.0611 46.8697 23.0611 46.4584 23.4729L43.4298 26.5428L42.8876 25.663C42.5698 25.1576 41.9154 25.0078 41.4293 25.3261C40.9246 25.6443 40.775 26.2994 41.0928 26.7861L42.3267 28.8264Z" fill="#979797"/>
</svg>
