<svg preserveAspectRatio="none" version="1.1" width="100%" height="100%" viewBox="-50 -80 512 474" xmlns="http://www.w3.org/2000/svg" xmlns:xlink="http://www.w3.org/1999/xlink" ><g id="svgg"><path id="path0" d="M11.311 1.462 C 7.299 3.284,3.284 7.299,1.462 11.311 C -0.759 16.200,-0.763 290.046,1.458 294.922 C 5.599 304.016,11.166 306.250,29.682 306.250 L 44.329 306.250 44.871 311.133 C 46.630 326.983,56.820 344.830,70.141 355.392 C 111.858 388.469,173.608 364.638,182.068 312.196 L 183.027 306.250 200.000 306.250 L 216.973 306.250 217.932 312.196 C 226.392 364.638,288.142 388.469,329.859 355.392 C 343.180 344.830,353.370 326.983,355.129 311.133 L 355.671 306.250 370.318 306.250 C 388.834 306.250,394.401 304.016,398.542 294.922 C 400.763 290.046,400.759 16.200,398.538 11.311 C 396.716 7.299,392.701 3.284,388.689 1.462 C 383.785 -0.766,16.215 -0.766,11.311 1.462 M381.604 15.611 C 385.147 16.958,385.176 17.502,384.966 78.415 L 384.766 136.389 353.516 119.892 L 322.266 103.394 321.798 95.642 C 320.868 80.227,313.346 69.916,299.869 65.583 C 273.780 57.194,249.687 82.504,259.407 108.087 C 260.600 111.225,260.705 112.242,259.939 113.218 C 258.097 115.566,216.953 163.691,215.291 165.442 L 213.612 167.212 208.740 165.233 C 196.911 160.426,181.593 162.989,173.850 171.071 L 171.747 173.266 148.178 159.785 L 124.609 146.304 124.453 140.763 C 123.335 101.109,66.421 96.663,60.128 135.738 C 59.240 141.253,60.212 149.456,62.212 153.324 C 63.336 155.497,63.319 155.777,61.986 157.101 C 61.195 157.887,50.352 167.816,37.891 179.165 L 15.234 199.799 15.036 110.115 C 14.830 17.094,14.833 16.987,18.153 15.654 C 20.646 14.652,378.970 14.610,381.604 15.611 M296.711 81.178 C 311.533 88.802,308.319 110.165,291.934 112.933 C 281.753 114.654,271.303 104.074,273.038 93.804 C 274.850 83.075,287.393 76.386,296.711 81.178 M350.238 135.938 L 385.131 154.297 384.949 221.352 C 384.770 286.717,384.727 288.435,383.249 289.516 C 382.079 290.372,378.674 290.625,368.348 290.625 L 354.963 290.625 354.127 286.126 C 341.026 215.681,235.231 214.462,219.048 284.570 L 217.651 290.625 200.000 290.625 L 182.349 290.625 180.952 284.570 C 164.769 214.462,58.974 215.681,45.873 286.126 L 45.037 290.625 31.652 290.625 C 13.165 290.625,15.277 295.156,15.025 254.946 L 14.815 221.484 41.886 196.875 C 56.775 183.340,70.111 171.298,71.521 170.116 L 74.084 167.966 77.863 169.864 C 89.669 175.793,105.422 173.301,114.686 164.037 L 117.978 160.744 141.026 173.893 L 164.073 187.042 163.587 191.789 C 159.927 227.508,209.851 241.267,225.240 208.782 C 228.493 201.914,228.916 188.882,226.084 182.760 L 224.433 179.191 248.193 151.453 L 271.953 123.715 275.686 125.562 C 287.000 131.162,302.494 128.907,311.374 120.370 C 315.138 116.750,309.408 114.455,350.238 135.938 M99.775 125.861 C 108.706 130.185,111.596 141.439,105.942 149.875 C 96.650 163.740,75.540 157.251,75.525 140.525 C 75.514 128.258,88.501 120.404,99.775 125.861 M203.175 180.273 C 219.768 188.687,212.687 213.094,194.100 211.553 C 180.702 210.441,174.389 194.248,183.440 184.209 C 189.102 177.929,195.885 176.577,203.175 180.273 M129.100 249.655 C 175.165 264.743,180.894 326.562,138.281 348.729 C 90.728 373.465,40.052 320.232,67.233 274.094 C 79.707 252.920,106.616 242.290,129.100 249.655 M293.940 248.004 C 336.687 252.255,355.325 307.374,324.609 338.703 C 286.519 377.553,220.879 340.661,234.353 287.976 C 240.404 264.318,266.630 244.413,287.891 247.342 C 288.750 247.461,291.472 247.758,293.940 248.004 M271.044 278.614 C 255.076 291.360,253.360 293.330,254.223 297.930 C 255.684 305.715,262.157 305.915,271.611 298.467 L 278.516 293.028 278.906 311.427 L 279.297 329.826 281.489 331.710 C 285.322 335.005,291.172 333.796,293.322 329.266 C 294.295 327.215,294.531 323.495,294.531 310.233 C 294.531 301.168,294.724 293.750,294.960 293.750 C 295.196 293.750,298.220 296.035,301.679 298.828 C 307.060 303.173,308.418 303.906,311.076 303.906 C 317.610 303.906,321.337 295.868,316.992 291.145 C 315.434 289.452,289.169 268.259,287.059 266.993 C 286.602 266.718,279.395 271.948,271.044 278.614 M109.611 269.685 C 106.013 271.424,105.469 274.371,105.469 292.110 C 105.469 301.176,105.292 308.594,105.076 308.594 C 104.859 308.594,101.793 306.309,98.261 303.516 C 92.873 299.255,91.354 298.438,88.828 298.438 C 82.725 298.438,78.786 306.289,82.617 310.819 C 85.750 314.523,113.526 335.928,114.364 335.283 C 146.306 310.726,150.424 305.697,143.225 300.034 C 139.317 296.960,136.116 297.789,128.389 303.877 L 121.484 309.316 121.094 290.917 L 120.703 272.518 118.511 270.634 C 116.164 268.617,112.607 268.238,109.611 269.685 " stroke="none" fill="#ffffff" fill-rule="evenodd"></path></g></svg>