<svg preserveAspectRatio="none" version="1.1" width="100%" height="100%" viewBox="-50 -50 512 464" xmlns="http://www.w3.org/2000/svg" xlink="http://www.w3.org/1999/xlink" ><g id="svgg"><path id="path0" d="M105.163 1.189 C 69.620 10.948,58.431 56.239,85.287 81.642 C 96.418 92.171,113.146 96.836,127.587 93.439 L 132.127 92.370 133.898 95.209 C 134.872 96.770,140.348 105.869,146.067 115.429 L 156.465 132.811 153.005 136.523 C 129.122 162.140,130.915 202.139,156.975 225.078 L 161.542 229.099 150.239 247.948 C 144.023 258.315,138.457 267.546,137.870 268.462 C 136.845 270.064,136.631 270.086,132.269 269.060 C 85.264 258.000,54.232 321.428,91.804 351.770 C 137.915 389.008,196.977 325.841,156.389 282.696 L 150.663 276.609 162.518 256.859 C 169.038 245.997,174.486 236.992,174.623 236.848 C 174.760 236.704,177.977 237.394,181.772 238.382 C 215.506 247.162,250.770 225.778,257.627 192.383 L 258.950 185.938 282.476 185.938 L 306.001 185.937 306.972 190.273 C 319.000 244.022,400.000 234.125,400.000 178.906 C 400.000 124.197,322.001 113.518,307.349 166.221 L 305.994 171.094 282.427 171.094 L 258.860 171.094 257.546 164.979 C 249.634 128.159,209.223 107.664,173.311 122.256 L 168.872 124.060 157.422 104.959 L 145.971 85.858 151.483 80.055 C 184.499 45.297,151.174 -11.444,105.163 1.189 M259.766 1.423 C 222.990 12.307,213.550 59.901,243.359 84.135 C 274.964 109.828,322.542 85.075,320.103 44.207 C 318.307 14.103,288.451 -7.067,259.766 1.423 M131.426 17.805 C 158.897 31.329,154.694 70.970,124.982 78.582 C 104.333 83.872,83.756 66.313,85.384 44.791 C 87.084 22.306,111.500 7.995,131.426 17.805 M286.131 17.486 C 300.576 24.426,308.299 40.401,304.318 55.108 C 296.412 84.313,257.345 88.199,243.958 61.112 C 230.826 34.541,259.624 4.750,286.131 17.486 M206.641 133.203 C 243.098 140.831,256.641 185.493,230.442 211.692 C 201.202 240.931,151.260 220.253,151.260 178.906 C 151.260 149.689,178.398 127.293,206.641 133.203 M39.256 136.754 C -12.416 145.996,-13.241 219.782,38.212 230.122 C 76.080 237.732,106.650 197.791,89.670 162.891 C 80.493 144.029,59.481 133.136,39.256 136.754 M358.751 146.965 C 394.260 154.433,393.425 204.725,357.688 210.948 C 341.037 213.848,324.218 201.569,321.013 184.171 C 317.073 162.791,337.631 142.522,358.751 146.965 M52.375 151.568 C 78.867 156.593,88.500 188.653,69.045 207.053 C 52.872 222.348,27.359 217.393,17.741 197.089 C 6.868 174.135,27.611 146.872,52.375 151.568 M265.908 264.829 C 230.411 274.135,218.221 318.390,244.067 344.117 C 273.911 373.823,324.907 352.870,324.988 310.867 C 325.049 279.974,295.618 257.040,265.908 264.829 M289.063 280.388 C 306.836 287.140,315.042 307.765,306.683 324.677 C 296.421 345.441,269.883 349.377,254.076 332.479 C 231.018 307.830,257.502 268.398,289.063 280.388 M129.938 283.981 C 154.055 290.262,162.754 319.175,145.937 337.153 C 129.893 354.304,102.883 349.947,92.892 328.596 C 81.658 304.591,104.314 277.306,129.938 283.981 " stroke="none" fill="#000000" fill-rule="evenodd"></path></g></svg>