<svg preserveAspectRatio="none" version="1.1" width="100%" height="100%" viewBox="-50 -50 512 455" xmlns="http://www.w3.org/2000/svg" xmlns:xlink="http://www.w3.org/1999/xlink" ><g id="svgg"><path id="path0" d="M115.301 0.874 C 94.650 5.718,80.699 29.669,86.291 50.679 C 91.947 71.927,114.761 85.573,135.917 80.362 C 136.723 80.163,139.101 84.061,143.847 93.359 L 150.625 106.641 145.971 110.748 C 104.936 146.960,107.266 212.045,150.744 244.051 L 155.253 247.371 149.125 259.037 C 143.793 269.187,142.766 270.679,141.225 270.520 C 121.873 268.520,111.667 271.271,101.788 281.149 C 76.723 306.215,92.649 348.963,127.666 350.609 C 165.164 352.372,185.447 309.678,160.048 282.444 L 155.642 277.721 161.822 265.911 L 168.002 254.101 172.478 255.906 C 220.762 275.370,278.931 241.458,286.799 189.258 L 287.770 182.813 303.558 182.813 L 319.346 182.813 320.279 186.523 C 331.641 231.691,400.000 222.145,400.000 175.391 C 400.000 128.642,331.639 119.096,320.279 164.258 L 319.346 167.969 303.558 167.969 L 287.770 167.969 286.799 161.523 C 278.654 107.490,219.752 74.928,168.929 96.362 L 162.745 98.971 156.441 86.335 L 150.137 73.700 154.677 69.215 C 183.971 40.279,155.794 -8.623,115.301 0.874 M260.849 1.857 C 232.232 11.959,224.074 48.303,245.630 69.659 C 271.043 94.837,314.778 76.468,314.834 40.594 C 314.879 12.595,287.032 -7.386,260.849 1.857 M136.840 16.545 C 157.369 26.074,157.170 55.045,136.511 64.535 C 123.537 70.495,108.676 64.937,102.156 51.688 C 91.424 29.878,114.718 6.276,136.840 16.545 M283.349 15.747 C 297.723 21.125,304.551 38.057,297.844 51.688 C 289.473 68.700,267.815 72.129,255.035 58.467 C 236.086 38.209,257.406 6.040,283.349 15.747 M221.319 106.579 C 272.839 121.773,290.702 184.336,254.730 223.594 C 211.138 271.166,131.326 240.329,130.982 175.781 C 130.732 128.762,176.820 93.456,221.319 106.579 M181.043 124.671 C 179.532 125.492,178.610 126.865,177.972 129.250 C 177.140 132.364,176.807 132.699,174.120 133.128 C 166.503 134.346,167.268 146.094,174.964 146.094 L 177.344 146.094 177.344 173.828 L 177.344 201.563 174.964 201.563 C 171.599 201.563,168.750 204.607,168.750 208.203 C 168.750 211.752,171.602 214.844,174.878 214.844 C 176.909 214.844,177.231 215.177,177.711 217.773 C 179.351 226.658,188.670 226.610,191.134 217.705 L 192.034 214.453 192.111 217.418 C 192.334 226.042,204.073 226.786,205.218 218.249 L 205.649 215.030 212.004 214.680 C 232.875 213.529,243.214 190.778,230.153 174.743 L 226.753 170.569 228.223 168.683 C 238.434 155.578,227.755 134.616,210.050 133.011 C 205.684 132.615,205.469 132.495,205.469 130.466 C 205.469 121.682,192.413 121.686,192.158 130.469 C 192.079 133.201,192.078 133.200,190.940 129.501 C 189.290 124.137,185.468 122.271,181.043 124.671 M30.681 140.185 C -3.702 148.517,-11.426 194.682,18.303 214.174 C 41.455 229.354,73.734 216.545,80.072 189.663 C 87.110 159.814,60.341 132.998,30.681 140.185 M213.813 148.129 C 219.263 152.197,219.978 157.881,215.649 162.730 L 213.413 165.234 202.410 165.489 L 191.406 165.743 191.406 155.856 L 191.406 145.970 201.508 146.227 C 210.319 146.451,211.892 146.695,213.813 148.129 M369.298 150.932 C 387.125 157.493,391.498 182.048,377.139 194.958 C 365.249 205.648,346.941 203.475,337.918 190.303 C 323.125 168.710,344.554 141.825,369.298 150.932 M51.105 155.763 C 60.767 160.273,66.715 169.185,66.760 179.218 C 66.883 207.157,30.422 216.560,17.116 192.020 C 5.479 170.559,29.014 145.454,51.105 155.763 M213.672 179.665 C 220.545 181.251,224.248 188.770,221.224 194.996 C 218.530 200.540,215.594 201.563,202.375 201.563 L 191.406 201.563 191.406 190.234 L 191.406 178.906 200.977 178.925 C 206.240 178.935,211.953 179.268,213.672 179.665 M267.993 266.457 C 237.375 274.473,227.594 313.371,250.665 335.373 C 270.373 354.168,303.517 348.373,315.105 324.108 C 330.460 291.955,302.286 257.479,267.993 266.457 M287.718 280.936 C 298.154 284.618,306.694 297.953,305.140 308.139 C 301.676 330.833,275.887 340.075,260.094 324.281 C 240.319 304.506,261.284 271.610,287.718 280.936 M141.908 286.715 C 167.501 299.315,157.358 338.179,128.906 336.532 C 106.661 335.245,95.956 308.921,111.028 292.570 C 119.224 283.679,131.148 281.418,141.908 286.715 " stroke="none" fill="#ffffff" fill-rule="evenodd"></path></g></svg>