<svg preserveAspectRatio="none" version="1.1" width="100%" height="100%" viewBox="-50 -40 512 444" xmlns="http://www.w3.org/2000/svg" xmlns:xlink="http://www.w3.org/1999/xlink" ><g id="svgg"><path id="path0" d="M196.048 2.592 C 183.900 9.999,21.199 116.078,19.549 117.667 C 16.718 120.394,16.833 125.275,19.788 127.817 L 21.962 129.688 201.645 129.687 C 393.660 129.687,384.806 129.858,386.233 126.137 C 388.917 119.143,394.928 123.589,295.606 59.103 C 189.448 -9.821,203.409 -1.896,196.048 2.592 M279.280 65.625 L 355.625 115.234 278.984 115.434 C 236.832 115.543,167.808 115.543,125.598 115.434 L 48.852 115.234 125.403 65.453 C 167.505 38.074,202.174 15.750,202.444 15.844 C 202.714 15.938,237.290 38.340,279.280 65.625 M195.313 38.524 C 170.884 44.104,162.594 74.985,180.922 92.129 C 201.040 110.950,233.594 96.639,233.594 68.974 C 233.594 49.106,214.718 34.091,195.313 38.524 M210.716 54.389 C 224.982 62.599,220.616 83.892,204.155 86.385 C 194.828 87.798,185.156 79.225,185.156 69.545 C 185.156 55.947,199.078 47.692,210.716 54.389 M55.043 144.105 C 53.135 146.013,52.502 149.811,53.610 152.699 C 54.518 155.065,58.254 156.250,64.805 156.250 L 71.094 156.250 71.094 231.250 L 71.094 306.250 47.227 306.250 C 18.949 306.250,15.513 307.284,17.499 315.198 C 18.917 320.845,-0.342 320.313,202.355 320.313 L 383.321 320.313 385.020 318.504 C 386.964 316.435,387.308 311.388,385.654 309.210 C 383.640 306.560,380.635 306.250,356.980 306.250 L 333.594 306.250 333.594 231.250 L 333.594 156.250 340.294 156.250 C 350.633 156.250,355.144 150.336,349.279 144.471 L 346.995 142.188 308.768 142.188 L 270.541 142.188 268.473 144.103 C 262.254 149.868,267.298 156.250,278.074 156.250 L 284.375 156.250 284.375 231.250 L 284.375 306.250 255.859 306.250 L 227.344 306.250 227.344 231.250 L 227.344 156.250 234.020 156.250 C 242.172 156.250,244.531 154.672,244.531 149.219 C 244.531 146.867,244.025 145.516,242.614 144.105 L 240.696 142.188 202.423 142.188 L 164.150 142.188 161.975 144.058 C 155.592 149.548,160.414 156.250,170.747 156.250 L 177.344 156.250 177.344 231.250 L 177.344 306.250 148.828 306.250 L 120.313 306.250 120.313 231.250 L 120.313 156.250 127.013 156.250 C 137.351 156.250,141.862 150.336,135.998 144.471 L 133.714 142.188 95.337 142.188 L 56.960 142.188 55.043 144.105 M106.250 231.250 L 106.250 306.250 95.703 306.250 L 85.156 306.250 85.156 231.250 L 85.156 156.250 95.703 156.250 L 106.250 156.250 106.250 231.250 M213.281 231.250 L 213.281 306.250 202.344 306.250 L 191.406 306.250 191.406 231.250 L 191.406 156.250 202.344 156.250 L 213.281 156.250 213.281 231.250 M319.531 231.250 L 319.531 306.250 308.984 306.250 L 298.438 306.250 298.438 231.250 L 298.438 156.250 308.984 156.250 L 319.531 156.250 319.531 231.250 M5.078 333.369 C 0.078 334.588,-1.892 341.701,1.808 345.176 L 3.616 346.875 200.109 346.875 L 396.603 346.875 398.301 345.067 C 400.784 342.424,400.630 337.583,397.984 335.097 L 395.968 333.203 201.304 333.095 C 94.239 333.036,5.938 333.159,5.078 333.369 " stroke="none" fill="#ffffff" fill-rule="evenodd"></path></g></svg>