<svg id="Capa_1" data-name="Capa 1" xmlns="http://www.w3.org/2000/svg" viewBox="0 0 101.02 101.02"><defs><style>.cls-1,.cls-2{fill:#ffffff;}.cls-1{fill-rule:evenodd;}</style></defs><title>isotipo</title><path class="cls-1" d="M66.31,53.36a7.06,7.06,0,0,0,2.27-5.06c0-4.49-4.66-8.14-10.39-8.14H34.94L35,44.59l6,0V63.8l-6.06,0v4.5H60.68c5.73,0,10.37-3.66,10.37-8.15C71.05,57.32,69.16,54.81,66.31,53.36Zm-8.12-8.64c2.53,0,4.58,1.6,4.58,3.58s-2.05,3.59-4.58,3.59H46.79V44.65Zm2.49,19-13.89,0V56.61H60.68c2.51,0,4.57,1.59,4.57,3.57S63.19,63.76,60.68,63.76Z" transform="translate(-2.5 -4.03)"/><rect class="cls-2" x="51.64" y="32.15" width="4.78" height="6.68"/><rect class="cls-2" x="43.55" y="61.43" width="4.76" height="6.69"/><rect class="cls-2" x="51.64" y="61.43" width="4.78" height="6.69"/><path class="cls-2" d="M34.93,52H41v4.55H34.93Zm0,0" transform="translate(-2.5 -4.03)"/><path class="cls-2" d="M50.7,36.29V42.4H46.15V36.29Zm0,0" transform="translate(-2.5 -4.03)"/><path class="cls-2" d="M50.78,36.18v6.33H46.07V36.18Zm0,0" transform="translate(-2.5 -4.03)"/><path class="cls-2" d="M56,4v6.09A44.52,44.52,0,0,1,97.43,51.55h6.09A50.61,50.61,0,0,0,56,4Z" transform="translate(-2.5 -4.03)"/><path class="cls-2" d="M56,99v6.09a50.62,50.62,0,0,0,47.52-47.52H97.43A44.53,44.53,0,0,1,56,99Z" transform="translate(-2.5 -4.03)"/><path class="cls-2" d="M50,105.05V99A44.52,44.52,0,0,1,8.59,57.53H2.5A50.6,50.6,0,0,0,50,105.05Z" transform="translate(-2.5 -4.03)"/><path class="cls-2" d="M50,10.12V4A50.59,50.59,0,0,0,2.5,51.55H8.59A44.51,44.51,0,0,1,50,10.12Z" transform="translate(-2.5 -4.03)"/><path class="cls-2" d="M53,20.63a33.91,33.91,0,1,0,33.9,33.91A33.91,33.91,0,0,0,53,20.63Zm0,59.84A25.93,25.93,0,1,1,78.93,54.54,25.93,25.93,0,0,1,53,80.47Z" transform="translate(-2.5 -4.03)"/></svg>