<svg id="Capa_1" data-name="Capa 1" xmlns="http://www.w3.org/2000/svg" viewBox="0 0 414.77 53.94"><defs><style>.cls-1{fill:#ffffff;}</style></defs><title>logotipo</title><path class="cls-1" d="M48.52,13.75a13,13,0,0,1,2.34,7.78A11.32,11.32,0,0,1,48.5,29a12.09,12.09,0,0,1-3.88,2.9,11.36,11.36,0,0,1,5.88,4.5,13.43,13.43,0,0,1,2,7.47A14.89,14.89,0,0,1,50.22,52a14,14,0,0,1-9.37,6.57,35.34,35.34,0,0,1-7.2.69h-23v-51H35.31Q44.64,8.47,48.52,13.75ZM20.85,17.18V28.42H33.24a10.26,10.26,0,0,0,5.39-1.27q2.07-1.26,2.07-4.47c0-2.38-.92-3.95-2.74-4.71a19.18,19.18,0,0,0-6-.79Zm0,19.67V50.44H33.22a12.09,12.09,0,0,0,5.17-.9q3.34-1.65,3.34-6.36a5.47,5.47,0,0,0-3.24-5.46,12.91,12.91,0,0,0-5.1-.87Z" transform="translate(-10.68 -6.77)"/><path class="cls-1" d="M76.23,8.32h12l18,51H94.76L91.4,48.82H72.63L69.17,59.29H58ZM75.52,40H88.58L82.14,20Z" transform="translate(-10.68 -6.77)"/><path class="cls-1" d="M112.62,8.32h11.17L144,43.86V8.32h9.92v51H143.29L122.54,23.13V59.29h-9.92Z" transform="translate(-10.68 -6.77)"/><path class="cls-1" d="M201.63,17.35h-27V28.17h24.75V37H174.66v13.1h28.21v9.16H164.25v-51h37.38Z" transform="translate(-10.68 -6.77)"/><path class="cls-1" d="M219.31,59.29H206.93l16.4-26-15.6-25h12.72l9.09,16.6,9.34-16.6H251.2L235.6,32.91l16.56,26.38H239.23l-9.68-17.38Z" transform="translate(-10.68 -6.77)"/><path class="cls-1" d="M263.27,13.65a21,21,0,0,1,15.67-6.29q12.72,0,18.61,8.43A18.37,18.37,0,0,1,301,25.3H290.39a14.62,14.62,0,0,0-2.61-5.53q-2.85-3.32-8.43-3.32a10.38,10.38,0,0,0-9,4.69q-3.28,4.68-3.29,13.26t3.47,12.84a10.86,10.86,0,0,0,8.81,4.27q5.49,0,8.36-3.66a16.19,16.19,0,0,0,2.64-5.91h10.58a23,23,0,0,1-7,13.55q-5.62,5.22-14.42,5.22-10.87,0-17.1-7.05t-6.23-19.44Q256.19,20.89,263.27,13.65Z" transform="translate(-10.68 -6.77)"/><path class="cls-1" d="M348.79,54.76q-5.78,6-16.7,6t-16.7-6q-7.74-7.29-7.75-21,0-14,7.75-21,5.78-6,16.7-6t16.7,6q7.71,7,7.72,21Q356.51,47.47,348.79,54.76ZM342.14,47q3.72-4.67,3.72-13.28t-3.72-13.26a12.17,12.17,0,0,0-10.05-4.69A12.33,12.33,0,0,0,322,20.46q-3.76,4.66-3.76,13.28T322,47a12.33,12.33,0,0,0,10.1,4.67A12.18,12.18,0,0,0,342.14,47Z" transform="translate(-10.68 -6.77)"/><path class="cls-1" d="M374.35,59.29H363.77v-51h10.58Z" transform="translate(-10.68 -6.77)"/><path class="cls-1" d="M384.13,8.32H395.3l20.23,35.54V8.32h9.93v51H414.81L394.06,23.13V59.29h-9.93Z" transform="translate(-10.68 -6.77)"/></svg>