<svg id="Capa_1" data-name="Capa 1" xmlns="http://www.w3.org/2000/svg" width="81" height="20" viewBox="0 0 173.45 32.39"><defs><style>.cls-1{fill:#383938;}.cls-2,.cls-3{fill:#d4853f;}.cls-2{fill-rule:evenodd;}</style></defs><title>logo-banexcoin</title><path class="cls-1" d="M57.25,14.23A4.13,4.13,0,0,1,58,16.72a3.63,3.63,0,0,1-.76,2.41,3.82,3.82,0,0,1-1.24.93,3.59,3.59,0,0,1,1.88,1.44,4.29,4.29,0,0,1,.64,2.39,4.75,4.75,0,0,1-.73,2.61,4.6,4.6,0,0,1-1.15,1.29,4.72,4.72,0,0,1-1.85.82,11.92,11.92,0,0,1-2.31.22H45.12V12.49H53C55,12.52,56.42,13.1,57.25,14.23Zm-8.87,1.09v3.61h4a3.31,3.31,0,0,0,1.73-.41,1.53,1.53,0,0,0,.66-1.43,1.46,1.46,0,0,0-.88-1.51,6.12,6.12,0,0,0-1.93-.26Zm0,6.31V26h4A3.92,3.92,0,0,0,54,25.7a2,2,0,0,0,1.07-2,1.75,1.75,0,0,0-1-1.75,4.12,4.12,0,0,0-1.63-.28Z" transform="translate(-4.64 -4.44)"/><path class="cls-1" d="M66.13,12.49H70l5.79,16.34H72.07L71,25.47H65l-1.11,3.36H60.3Zm-.22,10.16h4.18L68,16.22Z" transform="translate(-4.64 -4.44)"/><path class="cls-1" d="M77.8,12.49h3.58l6.49,11.39V12.49h3.18V28.83H87.63L81,17.23v11.6H77.8Z" transform="translate(-4.64 -4.44)"/><path class="cls-1" d="M106.33,15.38H97.69v3.47h7.93v2.84H97.69v4.2h9v2.94H94.35V12.49h12Z" transform="translate(-4.64 -4.44)"/><path class="cls-1" d="M112,28.83h-4l5.25-8.33-5-8h4.08l2.92,5.32,3-5.32h4l-5,7.88,5.31,8.46h-4.15l-3.1-5.57Z" transform="translate(-4.64 -4.44)"/><path class="cls-1" d="M126.1,14.19a6.73,6.73,0,0,1,5-2q4.08,0,6,2.7a6,6,0,0,1,1.12,3h-3.42a4.71,4.71,0,0,0-.83-1.77,3.71,3.71,0,0,0-5.59.43,7.39,7.39,0,0,0-1.05,4.26A6.42,6.42,0,0,0,128.43,25a3.46,3.46,0,0,0,2.83,1.37,3.22,3.22,0,0,0,2.68-1.17,5.21,5.21,0,0,0,.84-1.9h3.39a7.39,7.39,0,0,1-2.24,4.35,6.54,6.54,0,0,1-4.62,1.67A6.93,6.93,0,0,1,125.82,27a9.1,9.1,0,0,1-2-6.23A9,9,0,0,1,126.1,14.19Z" transform="translate(-4.64 -4.44)"/><path class="cls-1" d="M153.52,27.38a8.5,8.5,0,0,1-10.71,0q-2.49-2.34-2.49-6.75t2.49-6.73a8.46,8.46,0,0,1,10.71,0c1.64,1.5,2.47,3.74,2.47,6.73S155.16,25.82,153.52,27.38Zm-2.14-2.49a6.65,6.65,0,0,0,1.19-4.26,6.68,6.68,0,0,0-1.19-4.25,3.89,3.89,0,0,0-3.22-1.5,4,4,0,0,0-3.24,1.5,6.64,6.64,0,0,0-1.2,4.25,6.65,6.65,0,0,0,1.2,4.26,4,4,0,0,0,3.24,1.5A3.89,3.89,0,0,0,151.38,24.89Z" transform="translate(-4.64 -4.44)"/><path class="cls-1" d="M161.71,28.83h-3.39V12.49h3.39Z" transform="translate(-4.64 -4.44)"/><path class="cls-1" d="M164.85,12.49h3.58l6.48,11.39V12.49h3.18V28.83h-3.41L168,17.23v11.6h-3.18Z" transform="translate(-4.64 -4.44)"/><path class="cls-2" d="M25.1,20.26a2.26,2.26,0,0,0,.73-1.62c0-1.45-1.5-2.61-3.33-2.61H15l0,1.42H17v6.15H15v1.44H23.3c1.83,0,3.32-1.18,3.32-2.62A2.51,2.51,0,0,0,25.1,20.26Zm-2.6-2.77A1.34,1.34,0,0,1,24,18.64a1.34,1.34,0,0,1-1.47,1.15H18.84V17.47Zm.8,6.1H18.84V21.3H23.3a1.33,1.33,0,0,1,1.46,1.14A1.33,1.33,0,0,1,23.3,23.59Z" transform="translate(-4.64 -4.44)"/><rect class="cls-3" x="16.56" y="10.31" width="1.53" height="2.14"/><rect class="cls-3" x="13.96" y="19.7" width="1.53" height="2.14"/><rect class="cls-3" x="16.56" y="19.7" width="1.53" height="2.14"/><path class="cls-3" d="M15,19.81h2v1.46H15Zm0,0" transform="translate(-4.64 -4.44)"/><path class="cls-3" d="M20.1,14.78v2H18.64v-2Zm0,0" transform="translate(-4.64 -4.44)"/><path class="cls-3" d="M20.12,14.75v2H18.61v-2Zm0,0" transform="translate(-4.64 -4.44)"/><path class="cls-3" d="M21.8,4.44V6.39A14.29,14.29,0,0,1,35.08,19.68h2A16.23,16.23,0,0,0,21.8,4.44Z" transform="translate(-4.64 -4.44)"/><path class="cls-3" d="M21.8,34.88v1.95A16.23,16.23,0,0,0,37,21.59h-2A14.29,14.29,0,0,1,21.8,34.88Z" transform="translate(-4.64 -4.44)"/><path class="cls-3" d="M19.88,36.83V34.88A14.28,14.28,0,0,1,6.6,21.59h-2A16.23,16.23,0,0,0,19.88,36.83Z" transform="translate(-4.64 -4.44)"/><path class="cls-3" d="M19.88,6.39V4.44A16.23,16.23,0,0,0,4.64,19.68h2A14.28,14.28,0,0,1,19.88,6.39Z" transform="translate(-4.64 -4.44)"/><path class="cls-3" d="M20.84,9.77A10.87,10.87,0,1,0,31.71,20.64,10.86,10.86,0,0,0,20.84,9.77Zm0,19.18a8.32,8.32,0,1,1,8.31-8.31A8.32,8.32,0,0,1,20.84,29Z" transform="translate(-4.64 -4.44)"/></svg>