<svg id="Capa_1" data-name="Capa 1" width="81" height="20" xmlns="http://www.w3.org/2000/svg" viewBox="0 0 382.81 71.78"><defs><style>.cls-1,.cls-2{fill:#f28e2a;}.cls-1{fill-rule:evenodd;}.cls-3{fill:#3a3c39;}</style></defs><path class="cls-1" d="M56.56,44.86a5,5,0,0,0,1.6-3.59c0-3.2-3.31-5.79-7.38-5.79H34.26l0,3.15,4.26,0V52.28h-4.3v3.2H52.55c4.07,0,7.37-2.6,7.37-5.8A5.61,5.61,0,0,0,56.56,44.86Zm-5.78-6.14c1.8,0,3.26,1.14,3.26,2.55s-1.46,2.54-3.26,2.54H42.69V38.68Zm1.77,13.53-9.86,0v-5.1h9.86c1.79,0,3.25,1.13,3.25,2.53S54.34,52.25,52.55,52.25Z" transform="translate(-11.21 -9.81)"/><rect class="cls-2" x="36.7" y="22.84" width="3.4" height="4.74"/><rect class="cls-2" x="30.94" y="43.65" width="3.38" height="4.75"/><rect class="cls-2" x="36.7" y="43.65" width="3.4" height="4.75"/><path class="cls-2" d="M34.26,43.87H38.6V47.1H34.26Zm0,0" transform="translate(-11.21 -9.81)"/><path class="cls-2" d="M45.46,32.73v4.34H42.23V32.73Zm0,0" transform="translate(-11.21 -9.81)"/><path class="cls-2" d="M45.52,32.65v4.5H42.17v-4.5Zm0,0" transform="translate(-11.21 -9.81)"/><path class="cls-2" d="M49.23,9.81v4.32A31.64,31.64,0,0,1,78.67,43.57H83A36,36,0,0,0,49.23,9.81Z" transform="translate(-11.21 -9.81)"/><path class="cls-2" d="M49.23,77.26v4.33A36,36,0,0,0,83,47.82H78.67A31.63,31.63,0,0,1,49.23,77.26Z" transform="translate(-11.21 -9.81)"/><path class="cls-2" d="M45,81.59V77.26A31.63,31.63,0,0,1,15.53,47.82H11.21A36,36,0,0,0,45,81.59Z" transform="translate(-11.21 -9.81)"/><path class="cls-2" d="M45,14.13V9.81A36,36,0,0,0,11.21,43.57h4.32A31.64,31.64,0,0,1,45,14.13Z" transform="translate(-11.21 -9.81)"/><path class="cls-2" d="M47.1,21.61A24.09,24.09,0,1,0,71.19,45.7,24.08,24.08,0,0,0,47.1,21.61Zm0,42.51A18.42,18.42,0,1,1,65.52,45.7,18.42,18.42,0,0,1,47.1,64.12Z" transform="translate(-11.21 -9.81)"/><path class="cls-3" d="M127.89,31.78a9.15,9.15,0,0,1,1.65,5.49,8,8,0,0,1-1.66,5.3,8.61,8.61,0,0,1-2.75,2,8,8,0,0,1,4.16,3.18,9.46,9.46,0,0,1,1.4,5.27,10.51,10.51,0,0,1-1.6,5.74,9.95,9.95,0,0,1-6.61,4.64,25.44,25.44,0,0,1-5.09.48H101.18V28h17.39Q125.14,28,127.89,31.78ZM108.35,34.2v7.93h8.75a7.21,7.21,0,0,0,3.81-.89,3.4,3.4,0,0,0,1.46-3.16,3.22,3.22,0,0,0-1.94-3.32,13.63,13.63,0,0,0-4.25-.56Zm0,13.89v9.59h8.74a8.5,8.5,0,0,0,3.64-.63q2.37-1.17,2.37-4.49a3.88,3.88,0,0,0-2.29-3.86,9.2,9.2,0,0,0-3.6-.61Z" transform="translate(-11.21 -9.81)"/><path class="cls-3" d="M147.45,28H156l12.73,36h-8.15l-2.38-7.39H144.91l-2.44,7.39h-7.86ZM147,50.34h9.21l-4.54-14.16Z" transform="translate(-11.21 -9.81)"/><path class="cls-3" d="M173.15,28H181L195.32,53V28h7v36h-7.51L180.16,38.4V63.93h-7Z" transform="translate(-11.21 -9.81)"/><path class="cls-3" d="M236,34.32H217V42h17.48v6.25H217v9.25h19.92v6.47H209.6V28H236Z" transform="translate(-11.21 -9.81)"/><path class="cls-3" d="M248.48,63.93h-8.74L251.31,45.6,240.3,28h9l6.42,11.72L262.3,28H271L260,45.31l11.69,18.62h-9.13L255.7,51.66Z" transform="translate(-11.21 -9.81)"/><path class="cls-3" d="M279.52,31.71a14.81,14.81,0,0,1,11.06-4.45q9,0,13.14,6a13,13,0,0,1,2.46,6.72h-7.52A10.25,10.25,0,0,0,296.82,36a7.42,7.42,0,0,0-6-2.34,7.33,7.33,0,0,0-6.33,3.3q-2.32,3.32-2.32,9.37c0,4,.81,7.06,2.44,9.07a7.68,7.68,0,0,0,6.22,3,7,7,0,0,0,5.9-2.59,11.38,11.38,0,0,0,1.87-4.17h7.47a16.25,16.25,0,0,1-4.94,9.57A14.37,14.37,0,0,1,291,64.94q-7.68,0-12.08-5t-4.39-13.72Q274.52,36.81,279.52,31.71Z" transform="translate(-11.21 -9.81)"/><path class="cls-3" d="M339.9,60.74q-4.08,4.2-11.8,4.2t-11.79-4.2q-5.46-5.16-5.47-14.85,0-9.89,5.47-14.84,4.08-4.2,11.79-4.2t11.8,4.2q5.44,4.95,5.44,14.84Q345.34,55.58,339.9,60.74Zm-4.7-5.47q2.63-3.3,2.62-9.38t-2.62-9.36a8.58,8.58,0,0,0-7.1-3.31,8.68,8.68,0,0,0-7.12,3.3q-2.67,3.28-2.67,9.37T321,55.27a9.33,9.33,0,0,0,14.22,0Z" transform="translate(-11.21 -9.81)"/><path class="cls-3" d="M357.94,63.93h-7.47V28h7.47Z" transform="translate(-11.21 -9.81)"/><path class="cls-3" d="M364.85,28h7.88L387,53V28h7v36H386.5L371.85,38.4V63.93h-7Z" transform="translate(-11.21 -9.81)"/></svg>