<?xml version="1.0" encoding="utf-8"?>
<!-- Generator: Adobe Illustrator 23.0.1, SVG Export Plug-In . SVG Version: 6.00 Build 0)  -->
<svg version="1.1" id="Capa_1" xmlns="http://www.w3.org/2000/svg" xmlns:xlink="http://www.w3.org/1999/xlink" x="0px" y="0px"
	 viewBox="0 0 81 20" style="enable-background:new 0 0 81 20;" width="81" height="20" xml:space="preserve">
<style type="text/css">
	.st0{fill:#FFFFFF;}
	.st1{fill-rule:evenodd;clip-rule:evenodd;fill:#F28E2A;}
	.st2{fill:#F28E2A;}
</style>
<path class="st0" d="M24.6,7c0.2,0.3,0.4,0.7,0.4,1.2c0,0.4-0.1,0.8-0.4,1.1c-0.2,0.2-0.4,0.3-0.6,0.4c0.4,0.1,0.7,0.4,0.9,0.7
	c0.2,0.3,0.3,0.7,0.3,1.1c0,0.4-0.1,0.9-0.3,1.2c-0.1,0.2-0.3,0.4-0.5,0.6c-0.3,0.2-0.6,0.3-0.9,0.4c-0.4,0.1-0.7,0.1-1.1,0.1h-3.4
	V6.2h3.7C23.5,6.2,24.2,6.5,24.6,7z M20.4,7.5v1.7h1.9c0.3,0,0.6-0.1,0.8-0.2c0.2-0.1,0.3-0.4,0.3-0.7c0-0.3-0.1-0.6-0.4-0.7
	c-0.3-0.1-0.6-0.1-0.9-0.1H20.4z M20.4,10.5v2h1.9c0.3,0,0.5,0,0.8-0.1c0.3-0.2,0.5-0.5,0.5-0.9c0-0.3-0.2-0.7-0.5-0.8
	c-0.2-0.1-0.5-0.1-0.8-0.1L20.4,10.5z"/>
<path class="st0" d="M28.7,6.2h1.8l2.7,7.6h-1.7L31,12.3h-2.8l-0.5,1.6H26L28.7,6.2z M28.6,10.9h2l-1-3L28.6,10.9z"/>
<path class="st0" d="M34.2,6.2h1.7l3,5.3V6.2h1.5v7.6h-1.6l-3.1-5.4v5.4h-1.5V6.2z"/>
<path class="st0" d="M47.5,7.5h-4v1.6h3.7v1.3h-3.7v2h4.2v1.4h-5.8V6.2h5.6L47.5,7.5z"/>
<path class="st0" d="M50.1,13.8h-1.9l2.5-3.9l-2.3-3.7h1.9l1.4,2.5l1.4-2.5h1.9l-2.3,3.7l2.5,4h-1.9l-1.4-2.6L50.1,13.8z"/>
<path class="st0" d="M56.7,7c0.6-0.6,1.5-1,2.3-0.9c1.3,0,2.2,0.4,2.8,1.3c0.3,0.4,0.5,0.9,0.5,1.4h-1.6c-0.1-0.3-0.2-0.6-0.4-0.8
	c-0.7-0.7-1.8-0.7-2.5,0C57.9,8,57.8,8,57.8,8.1c-0.4,0.6-0.5,1.3-0.5,2c-0.1,0.7,0.1,1.4,0.5,2c0.3,0.4,0.8,0.7,1.3,0.6
	c0.5,0,0.9-0.2,1.3-0.5c0.2-0.3,0.3-0.6,0.4-0.9h1.6c-0.1,0.8-0.5,1.5-1,2c-0.6,0.5-1.4,0.8-2.2,0.8c-1,0-1.9-0.4-2.6-1.1
	c-0.7-0.8-1-1.9-0.9-2.9C55.6,8.9,56,7.8,56.7,7z"/>
<path class="st0" d="M69.5,13.1c-1.5,1.2-3.5,1.2-5,0c-0.8-0.7-1.2-1.8-1.2-3.2s0.4-2.4,1.2-3.1c1.5-1.2,3.5-1.2,5,0
	c0.8,0.7,1.2,1.7,1.2,3.1S70.3,12.4,69.5,13.1z M68.5,12c0.4-0.6,0.6-1.3,0.6-2c0-0.7-0.2-1.4-0.6-2c-0.4-0.5-0.9-0.7-1.5-0.7
	c-0.6,0-1.1,0.2-1.5,0.7c-0.4,0.6-0.6,1.3-0.6,2c0,0.7,0.2,1.4,0.6,2c0.4,0.5,0.9,0.7,1.5,0.7C67.6,12.7,68.2,12.4,68.5,12z"/>
<path class="st0" d="M73.4,13.8h-1.6V6.2h1.6V13.8z"/>
<path class="st0" d="M74.8,6.2h1.7l3,5.3V6.2H81v7.6h-1.6l-3.1-5.4v5.4h-1.5L74.8,6.2z"/>
<path class="st1" d="M9.6,9.8c0.2-0.2,0.3-0.5,0.3-0.8c0-0.7-0.7-1.2-1.6-1.2H4.8v0.7h0.9v2.9H4.8v0.7h3.9c0.9,0,1.6-0.6,1.6-1.2
	C10.2,10.4,10,10,9.6,9.8z M8.3,8.5C8.7,8.5,9,8.7,9,9.1c0,0.3-0.4,0.6-0.7,0.5H6.6V8.5L8.3,8.5z M8.7,11.4H6.6v-1.1h2.1
	c0.3,0,0.6,0.2,0.7,0.5C9.4,11.2,9,11.4,8.7,11.4z"/>
<rect x="7.7" y="7.3" class="st2" width="0.7" height="1"/>
<rect x="6.5" y="11.6" class="st2" width="0.7" height="1"/>
<rect x="7.7" y="11.6" class="st2" width="0.7" height="1"/>
<path class="st2" d="M4.8,9.6h0.9v0.7H4.8V9.6z"/>
<path class="st2" d="M7.2,7.3v0.9H6.5V7.3L7.2,7.3z"/>
<path class="st2" d="M7.2,7.3v0.9H6.5V7.3H7.2z"/>
<path class="st2" d="M8,2.4v0.9c3.3,0.2,6,2.9,6.2,6.2h0.9C14.9,5.7,11.9,2.7,8,2.4z"/>
<path class="st2" d="M8,16.7v0.9c3.8-0.2,6.9-3.3,7.1-7.1h-0.9C14,13.8,11.3,16.4,8,16.7z"/>
<path class="st2" d="M7.1,17.6v-0.9c-3.3-0.2-6-2.9-6.2-6.2H0C0.2,14.3,3.3,17.3,7.1,17.6z"/>
<path class="st2" d="M7.1,3.3V2.4C3.3,2.7,0.2,5.7,0,9.6h0.9C1.2,6.2,3.8,3.6,7.1,3.3z"/>
<path class="st2" d="M7.6,4.9c-2.8,0-5.1,2.3-5.1,5.1s2.3,5.1,5.1,5.1s5.1-2.3,5.1-5.1c0,0,0,0,0,0C12.6,7.2,10.4,4.9,7.6,4.9
	C7.6,4.9,7.6,4.9,7.6,4.9z M7.6,13.9c-2.1,0-3.9-1.7-3.9-3.9c0-2.1,1.7-3.9,3.9-3.9c2.1,0,3.9,1.7,3.9,3.9c0,0,0,0,0,0
	C11.5,12.1,9.7,13.9,7.6,13.9C7.6,13.9,7.6,13.9,7.6,13.9L7.6,13.9z"/>
</svg>
