<svg xmlns="http://www.w3.org/2000/svg" width="81" height="20" viewBox="0 0 81 20">
    <g fill="#ffffff" fill-rule="evenodd">
        <path d="M6.821 9.787L5.478 3.511 4.114 9.787H6.82zM7.12.78l3.773 14.54H8.207l-.832-3.405H3.56l-.853 3.404H0L3.88.78h3.24zM11.582 15.32h2.629V.212h-2.63zM21.387 8.399c0-.493-.125-.85-.387-1.068-.263-.218-.661-.327-1.201-.327-.455 0-.798.148-1.04.444-.241.296-.356.67-.356 1.12v2.874c0 .464.127.87.39 1.215.263.345.613.517 1.068.517 1.023 0 1.526-.478 1.526-1.437V8.4zm-.583-3.735c.64 0 1.17.067 1.588.202.42.135.753.347 1.002.638.249.29.405.667.498 1.128.092.46.124 1.01.124 1.649v3.468c0 1.191-.238 2.117-.743 2.776-.504.66-1.346.99-2.54.99-.483 0-.938-.108-1.378-.322-.44-.215-.81-.544-.952-.988V20h-2.7V4.894h2.053l.341 1.431a2.927 2.927 0 0 1 1.098-1.217 3.01 3.01 0 0 1 1.61-.444zM30.14 4.664c.612 0 1.112.074 1.503.223.391.149.7.372.928.67.227.298.383.674.476 1.128.092.454.135.986.135 1.596v7.038h-2.63V8.281c0-.454-.088-.78-.259-.98-.17-.198-.485-.297-.94-.297-.255 0-.49.06-.704.18a1.88 1.88 0 0 0-.554.48 2.348 2.348 0 0 0-.38.66c-.086.24-.147.489-.147.744v6.251H24.94V0h2.63v5.961c.355-.41.731-.73 1.136-.957.405-.227.895-.34 1.436-.34M39.008 10.515l-2.416.553v1.34c0 .37.103.603.26.703.156.099.424.148.78.148.369 0 .688-.12.965-.361s.41-.554.41-.937v-1.446zm-.96-5.851c1.237 0 2.14.28 2.722.84.583.56.867 1.457.867 2.691v7.124h-1.968l-.235-1.455c-.298.44-.664.815-1.097 1.134-.434.319-.9.476-1.397.476-1.023 0-1.787-.238-2.256-.713-.469-.476-.72-1.225-.72-2.246V9.813l5.115-1.064v-.554c0-.496-.089-.836-.28-1.02-.193-.185-.534-.277-1.03-.277-.186 0-.4.035-.65.106-.248.071-.496.16-.744.266-.25.106-.483.22-.703.34-.22.121-.402.238-.544.351l-.916-1.83a7.815 7.815 0 0 1 1.812-1.01 7.957 7.957 0 0 1 1.033-.33c.349-.085.679-.127.992-.127zM48.529 4.45c0-.453-.082-.77-.274-.97-.191-.198-.5-.289-.955-.289h-1.613V7.66H47.3c.397 0 .692-.08.913-.222.22-.141.316-.427.316-.838V4.45zM47.299.852c1.208 0 2.14.286 2.836.874.696.59 1.023 1.485 1.023 2.705V6.62c0 .553-.078 1.043-.277 1.468-.2.426-.462.777-.81 1.053a3.63 3.63 0 0 1-1.22.637 5.162 5.162 0 0 1-1.509.221h-1.655v5.32h-2.7V.85H47.3zM57.268 8.28c0-.538-.106-.886-.326-1.042-.221-.156-.592-.234-1.118-.234-.483 0-.876.103-1.132.309-.256.205-.408.535-.408.989v3.532c0 .567.135.933.355 1.096.22.163.634.244 1.217.244.455 0 .806-.099 1.047-.298.242-.198.365-.538.365-1.02V8.28zm-1.442-3.616c.554 0 1.08.078 1.577.234.498.156.935.39 1.311.702.377.312.661.691.874 1.138.213.447.31.968.31 1.564v3.553c0 .596-.093 1.12-.3 1.575a3.17 3.17 0 0 1-.846 1.138 3.83 3.83 0 0 1-1.277.702 5.07 5.07 0 0 1-1.608.245c-.597 0-1.15-.078-1.662-.234a3.79 3.79 0 0 1-1.332-.702 3.212 3.212 0 0 1-.891-1.15 3.771 3.771 0 0 1-.327-1.574V8.302c0-.596.124-1.117.338-1.564.213-.447.513-.826.883-1.138.369-.312.81-.546 1.315-.702a5.525 5.525 0 0 1 1.635-.234zM61.105 4.894h2.63v10.425h-2.63V4.894zm0-4.043h2.63v2.695h-2.63V.851zM70.342 4.642c1.194 0 2.025.302 2.494.905.469.603.703 1.507.703 2.712v7.06h-2.7V8.723c0-.48-.053-.891-.216-1.23-.164-.34-.473-.51-.956-.51-.256 0-.48.06-.686.18-.206.12-.38.28-.529.478-.15.198-.29.42-.375.668a2.331 2.331 0 0 0-.15.754v6.256h-2.63V4.894H67.7l.213 1.088c.298-.458.636-.799 1.013-1.013.376-.215.848-.327 1.417-.327M78.655 13.11c.427 0 .771-.045 1.034-.138.263-.092.53-.195.8-.308L81 14.536c-.44.227-.899.436-1.375.628-.476.191-.927.287-1.353.287-1.024 0-1.748-.188-2.175-.564-.426-.376-.64-1.074-.64-2.096V6.738h-1.633V4.894h1.634v-3.05h2.629v3.05h1.99v1.844h-1.99v5.713c0 .156.06.305.167.447a.49.49 0 0 0 .401.212"/>
    </g>
</svg>
